<?xml version="1.0" standalone="no"?>
<!DOCTYPE svg PUBLIC "-//W3C//DTD SVG 1.1//EN" "http://www.w3.org/Graphics/SVG/1.1/DTD/svg11.dtd" >
<svg xmlns="http://www.w3.org/2000/svg" xmlns:xlink="http://www.w3.org/1999/xlink" version="1.1">
<metadata>
Created by FontForge 20170731 at Tue Apr 19 15:37:47 2011
 By Aleksey,,,
Copyright (c) 2010 Parachute :, www.parachute.gr.  All rights reserved.
</metadata>
<defs>
<font id="PFRegalDisplayPro-Bold" horiz-adv-x="588" >
  <font-face 
    font-family="PF Regal Display Pro"
    font-weight="700"
    font-stretch="normal"
    units-per-em="1000"
    panose-1="2 0 8 3 0 0 0 2 0 3"
    ascent="750"
    descent="-250"
    x-height="435"
    cap-height="673"
    bbox="-215 -285 1200 928"
    underline-thickness="45"
    underline-position="-188"
    unicode-range="U+0020-FB06"
  />
<missing-glyph horiz-adv-x="450" 
d="M3 0v691h444v-691h-444zM225 403l127 236h-255zM261 350q104 -192 122 -227h3v452l-1 1h-2q-40 -76 -122 -226zM98 60h254l-127 236zM63 576v-453h3l123 227l-123 226h-3z" />
    <glyph glyph-name="f_t" unicode="ft" horiz-adv-x="669" 
d="M666 36q-71 -48 -155 -48q-69 0 -95.5 31.5t-26.5 89.5v311h-160v-341q0 -27 10.5 -41t23 -16t23 -5t10.5 -10v-7h-276v7q0 7 10.5 10.5t23 5.5t23 17.5t10.5 44.5v335h-66v14l67 4q2 126 50 193q74 103 181 103q34 0 62.5 -19t28.5 -54q0 -25 -18.5 -42.5t-45.5 -17.5
q-39 0 -59.5 28.5t-15.5 77.5q-43 -14 -43 -91v-180h161q40 10 78 63t47 99h17v-162h122v-17h-122v-319q0 -71 58 -71q30 0 72 19z" />
    <glyph glyph-name="f_f_t" unicode="fft" horiz-adv-x="959" 
d="M529 436h160q40 10 78 63t47 99h17v-162h122v-17h-122v-319q0 -71 58 -71q30 0 72 19l5 -12q-71 -48 -155 -48q-69 0 -95.5 31.5t-26.5 89.5v311h-160v-341q0 -27 11.5 -41t26 -16t26 -5t11.5 -10v-7h-277v7q0 7 9.5 10.5t21 6t21 18t9.5 43.5v335h-159v-341
q0 -34 16.5 -46.5t32.5 -15t16 -10.5v-7h-274v7q0 7 10.5 10.5t23 5.5t23 17.5t10.5 44.5v335h-66v14l66 5q0 121 72.5 194.5t193.5 73.5q79 0 105 -45q70 77 162 77q36 0 62 -19t26 -55q0 -26 -16.5 -42t-44.5 -16q-36 0 -56 26.5t-20 65.5q0 9 1 14q-43 -13 -43 -91v-186z
M228 436h160v9q0 64 18 124q-34 1 -52.5 24t-18.5 57q0 21 7 38q-114 -7 -114 -135v-117z" />
    <glyph glyph-name="fj" unicode="fj" horiz-adv-x="598" 
d="M534 448l1 -421q0 -120 -71 -187q-30 -29 -73.5 -48.5t-87.5 -19.5q-33 0 -59 17t-26 49q0 23 18.5 40.5t44.5 17.5q38 0 58.5 -29t18.5 -72q36 14 36 73v492q0 60 -66 60h-99v-341q0 -27 9.5 -41t20.5 -16t20.5 -5t9.5 -10v-7h-272v7q0 8 17.5 10.5t35 16.5t17.5 51v335
h-66v14l67 6q0 133 76 213.5t204 80.5q47 0 76 -22.5t29 -59.5q0 -19 -16 -34.5t-42 -15.5q-25 0 -47 21t-22 68q0 7 2 25q-56 -4 -88 -41.5t-32 -110.5v-128h90q94 0 211 17z" />
    <glyph glyph-name="ffj" unicode="ffj" horiz-adv-x="895" 
d="M832 448v-421q0 -125 -71 -187q-28 -29 -72 -48.5t-89 -19.5q-33 0 -59 17t-26 49q0 23 18.5 40.5t44.5 17.5q38 0 58.5 -29t18.5 -72q36 14 36 73v492q0 17 -3.5 28.5t-19.5 21.5t-44 10h-95v-341q0 -27 9.5 -41t20.5 -16t20.5 -5t9.5 -10v-7h-267v7q0 8 16 10.5
t32.5 16.5t16.5 51v335h-158v-341q0 -34 15.5 -46.5t31 -15t15.5 -10.5v-7h-271v7q0 7 10.5 10.5t23 5.5t23 17.5t10.5 44.5v335h-66v14l66 6q1 119 74 195.5t198 76.5q89 0 121 -46q76 68 183 68q50 0 80.5 -21.5t30.5 -59.5q0 -19 -16 -35t-43 -16q-33 0 -52 24t-19 59
q0 18 4 31q-56 -4 -88 -41.5t-32 -110.5v-128h40q171 0 259 17zM229 545v-109h159q0 80 27 139q-28 4 -43.5 26.5t-15.5 53.5q0 21 7 39q-62 0 -98 -36t-36 -113z" />
    <glyph glyph-name="fb" unicode="fb" horiz-adv-x="922" 
d="M394 638q0 64 -65 64q-47 0 -74 -33t-27 -93v-140h99v-16h-98v-340q0 -27 9.5 -41.5t20.5 -16.5t20.5 -4.5t9.5 -9.5v-8h-271v8q0 7 17 9.5t34.5 16.5t17.5 51v335h-65v14l66 6q0 127 74 204.5t201 77.5q7 0 23 -2q37 4 144 20l6 -5v-204q0 -96 -19 -153q1 0 2 -0.5
t2 -0.5q56 73 160 73q84 0 146 -57.5t62 -167.5q0 -97 -57 -166.5t-159 -69.5q-100 0 -152 56q-64 -18 -114 -64h-13v657zM624 413q-51 0 -94 -47v-310q44 -39 96 -39q57 0 83.5 48.5t26.5 151.5q0 196 -112 196z" />
    <glyph glyph-name="ffb" unicode="ffb" horiz-adv-x="1223" 
d="M694 643q0 33 -18 49t-47 16q-47 0 -73.5 -33t-26.5 -94v-145h98v-16h-98v-341q0 -27 9.5 -41t20.5 -16t20.5 -5t9.5 -10v-7h-266v7q0 8 16.5 10.5t32.5 16.5t16 51v335h-159v-341q0 -34 15.5 -46.5t31 -15t15.5 -10.5v-7h-271v7q0 7 10.5 10.5t23 5.5t23 17.5t10.5 44.5
v335h-66v14l66 6q1 121 74 197t200 76q98 0 119 -50q72 64 183 64q15 0 22 -1l146 20q1 -2 5 -6v-209q0 -96 -19 -153q1 0 2 -0.5t2 -0.5q56 73 160 73q84 0 146 -57.5t62 -167.5q0 -97 -57 -166.5t-159 -69.5q-100 0 -152 56q-64 -18 -114 -64h-13v662zM924 413
q-51 0 -94 -47v-310q44 -39 96 -39q57 0 83.5 48.5t26.5 151.5q0 196 -112 196zM229 545v-109h160q0 79 29 139q-29 7 -46 29.5t-17 51.5q0 17 8 38q-65 0 -99.5 -34t-34.5 -115z" />
    <glyph glyph-name="fh" unicode="fh" horiz-adv-x="920" 
d="M394 85l-1 553q0 64 -64 64q-47 0 -74 -33t-27 -93v-140h99v-16h-98v-340q0 -27 9.5 -41.5t20.5 -16.5t20.5 -4.5t9.5 -9.5v-8h-271v8q0 7 17 9.5t34.5 16.5t17.5 51v335h-65v14l66 6q0 127 74 204.5t201 77.5q7 0 23 -2q39 4 145 20l5 -5v-243q0 -85 -18 -130l5 -1
q29 47 75 69t94 22q59 0 99.5 -32t40.5 -103v-237q0 -34 17 -46.5t33.5 -15t16.5 -10.5v-8h-266v8q0 7 9 10t19.5 5t19.5 17.5t9 44.5v251q0 36 -17 54.5t-44 18.5q-26 0 -53 -16.5t-40 -41.5v-271q0 -27 9 -41.5t20 -16.5t20 -4.5t9 -9.5v-8h-267v8q0 7 16.5 9.5t33.5 16.5
t17 51z" />
    <glyph glyph-name="ffh" unicode="ffh" horiz-adv-x="1220" 
d="M694 85v558q0 62 -65 62q-46 0 -73 -33t-27 -91v-145h98v-16h-98v-341q0 -27 9.5 -41t20.5 -16t20.5 -5t9.5 -10v-7h-266v7q0 8 16.5 10.5t32.5 16.5t16 51v335h-159v-341q0 -34 15.5 -46.5t31 -15t15.5 -10.5v-7h-271v7q0 7 10.5 10.5t23 5.5t23 17.5t10.5 44.5v335h-66
v14l66 6q1 121 74 197t200 76q98 0 119 -50q72 64 183 64q15 0 22 -1l146 20l3 -3t2 -3v-248q0 -82 -18 -131l2 -1h2q58 91 171 91q57 0 98 -32t41 -102v-238q0 -33 17 -46t33.5 -15.5t16.5 -10.5v-7h-266v7q0 8 14.5 10.5t28.5 16.5t14 51v250q0 34 -15.5 52t-41.5 18
q-28 0 -55.5 -13.5t-42.5 -40.5v-272q0 -27 9 -41t20.5 -16t20.5 -5t9 -10v-7h-267v7q0 7 10.5 10.5t23 5.5t23 17.5t10.5 44.5zM229 545v-109h160q0 79 29 139q-30 9 -47 31t-17 49q0 19 9 39q-65 0 -99.5 -34t-34.5 -115z" />
    <glyph glyph-name="fk" unicode="fk" horiz-adv-x="906" 
d="M536 735v-503h45l87 92q37 39 37 58q0 12 -12 19.5t-27 9.5t-27 6.5t-12 10.5v8h242v-7q0 -8 -21.5 -12t-61 -20t-73.5 -52l-45 -48l118 -196q25 -42 54 -61t44 -22.5t15 -11.5v-6h-203q-83 141 -129 216h-31v-131q0 -28 10.5 -43t23 -18t23 -7t10.5 -11v-6h-281v6
q0 8 11 11.5t24.5 6t24.5 18.5t11 46v550q0 64 -64 64q-47 0 -74 -33t-27 -93v-140h99v-16h-98v-340q0 -27 9.5 -41.5t20.5 -16.5t20.5 -4.5t9.5 -9.5v-8h-271v8q0 7 17 9.5t34.5 16.5t17.5 51v335h-65v14l66 6q0 127 74 204.5t201 77.5q7 0 23 -2q28 3 145 20z" />
    <glyph glyph-name="ffk" unicode="ffk" horiz-adv-x="1207" 
d="M837 232h45l87 92q37 39 37 58q0 12 -12 19.5t-27 9.5t-27 6.5t-12 10.5v8h242v-7q0 -8 -21.5 -12t-61 -20t-73.5 -52l-45 -48l118 -196q25 -42 54 -61t44 -22.5t15 -11.5v-6h-203q-83 141 -129 216h-31v-131q0 -28 10.5 -43t23 -18t23 -7t10.5 -11v-6h-281v6
q0 8 11 11.5t24.5 6t24.5 18.5t11 46v555q0 62 -65 62q-46 0 -73 -33t-27 -91v-145h98v-16h-98v-341q0 -27 9.5 -41t20.5 -16t20.5 -5t9.5 -10v-7h-266v7q0 8 16.5 10.5t32.5 16.5t16 51v335h-159v-341q0 -34 15.5 -46.5t31 -15t15.5 -10.5v-7h-271v7q0 7 10.5 10.5t23 5.5
t23 17.5t10.5 44.5v335h-66v14l66 6q1 121 74 197t200 76q98 0 119 -50q72 64 183 64q15 0 22 -1l147 20q0 -1 2 -3l3 -3v-508zM229 545v-109h160q0 79 29 139q-30 7 -46.5 28.5t-16.5 50.5q0 18 8 40q-65 0 -99.5 -34t-34.5 -115z" />
    <glyph glyph-name="f_y" unicode="fy" horiz-adv-x="848" 
d="M271 713q-42 -14 -42 -91v-186h350v-7q0 -7 -14.5 -11.5t-29.5 -12.5t-15 -24q0 -3 0.5 -6t2 -8.5t4 -11t7 -15.5t9.5 -21t13.5 -29.5t17.5 -38t23 -49.5t28 -61h6l76 187q10 27 10 43q0 19 -12 29t-27 12t-27 6t-12 12v6h202v-6q0 -8 -12 -12t-28 -7t-35.5 -19.5
t-32.5 -47.5l-166 -398q-34 -81 -76 -127t-108 -46q-32 0 -56.5 19t-24.5 45q0 25 18.5 43.5t48.5 18.5q38 0 60.5 -26t26.5 -57q22 10 48 45t47 89l16 41h-15l-184 370q-19 38 -39 48.5t-60 10.5h-40v-341q0 -27 11.5 -41t25.5 -16t25.5 -5t11.5 -10v-7h-283v7
q0 7 10.5 10.5t23 5.5t23 17.5t10.5 44.5v335h-66v14l67 6q0 120 45 190q72 110 186 110q38 0 64.5 -18.5t26.5 -54.5q0 -25 -18.5 -42.5t-45.5 -17.5q-38 0 -59 32t-16 74z" />
    <glyph glyph-name="f_f_y" unicode="ffy" horiz-adv-x="1123" 
d="M228 436h160v9q0 64 18 124q-34 1 -52.5 24t-18.5 57q0 21 7 38q-114 -7 -114 -135v-117zM529 420v-341q0 -27 11.5 -41t26 -16t26 -5t11.5 -10v-7h-277v7q0 7 9.5 10.5t21 6t21 18t9.5 43.5v335h-159v-341q0 -34 16.5 -46.5t32.5 -15t16 -10.5v-7h-274v7q0 7 10.5 10.5
t23 5.5t23 17.5t10.5 44.5v335h-66v14l66 5q0 121 72.5 194.5t193.5 73.5q79 0 105 -45q70 77 162 77q36 0 62 -19t26 -55q0 -26 -16.5 -42t-44.5 -16q-36 0 -56 26.5t-20 65.5q0 9 1 14q-43 -13 -43 -91v-186h325v-7q0 -6 -9 -10.5t-20.5 -7t-20.5 -10.5t-9 -20
q0 -15 22 -62l84 -181h5l74 190q11 28 11 45t-12.5 27t-27.5 12.5t-27.5 7t-12.5 11.5v5h205v-6q0 -8 -11.5 -12t-27.5 -7t-35.5 -19.5t-32.5 -47.5l-164 -398q-33 -80 -77 -127t-110 -47q-36 0 -60 18.5t-24 49.5q0 27 19 45t44 18q41 0 65.5 -27t28.5 -61q52 25 95 135
l16 41h-15l-172 351q-25 52 -42 65t-53 13h-31z" />
    <glyph glyph-name="k_y" unicode="ky" horiz-adv-x="1014" 
d="M550 -224q-40 0 -63 19t-23 51q0 26 19.5 43.5t46.5 17.5q37 0 61 -26.5t29 -60.5q44 24 96 136l14 36h-13l-169 353q-9 19 -13 26.5t-11.5 20t-14 17.5t-12.5 5q-26 0 -91 -69l-45 -48l110 -196q19 -34 40.5 -53.5t36.5 -23t25.5 -7.5t10.5 -11v-6h-203q-39 66 -74 131
t-47 85h-31v-131q0 -28 10.5 -43t23 -18t23 -7t10.5 -11v-6h-281v6q0 8 11 11.5t24.5 6t24.5 18.5t11 46v537q0 34 -17.5 47.5t-35.5 16t-18 9.5v7l209 27l5 -4v-496h45l87 92q37 39 37 58q0 12 -12 19.5t-27 9.5t-27 6.5t-12 10.5v8l440 -1v-8q0 -6 -10.5 -10t-22.5 -6
t-22.5 -11t-10.5 -24q0 -12 9 -33l91 -200h2l69 182q12 30 12 46q0 19 -11 29t-23.5 12t-23.5 5.5t-11 9.5v8h200v-7q0 -5 -13 -9t-31 -10.5t-42.5 -33.5t-42.5 -71l-147 -354q-72 -174 -182 -174z" />
    <glyph glyph-name="longs_b" unicode="&#x17f;b" horiz-adv-x="922" 
d="M394 638q0 64 -65 64q-47 0 -74 -33t-27 -93l1 -496q0 -27 9.5 -41.5t20.5 -16.5t20.5 -4.5t9.5 -9.5v-8h-271v8q0 7 17 9.5t34.5 16.5t17.5 51v335h-65v14l66 6q0 127 74 204.5t201 77.5q7 0 23 -2q37 4 144 20l6 -5v-204q0 -96 -19 -153q1 0 2 -0.5t2 -0.5
q56 73 160 73q84 0 146 -57.5t62 -167.5q0 -97 -57 -166.5t-159 -69.5q-100 0 -152 56q-64 -18 -114 -64h-13v657zM624 413q-51 0 -94 -47v-310q44 -39 96 -39q57 0 83.5 48.5t26.5 151.5q0 196 -112 196z" />
    <glyph glyph-name="longs_h" unicode="&#x17f;h" horiz-adv-x="920" 
d="M394 85l-1 553q0 64 -64 64q-47 0 -73.5 -33t-26.5 -93v-496q0 -27 9.5 -41.5t20.5 -16.5t20.5 -4.5t9.5 -9.5v-8h-271v8q0 7 17 9.5t34.5 16.5t17.5 51v335h-65v14l66 6q0 127 74 204.5t201 77.5q7 0 23 -2q39 4 145 20l5 -5v-243q0 -85 -18 -130l5 -1q29 47 75 69
t94 22q59 0 99.5 -32t40.5 -103v-237q0 -34 17 -46.5t33.5 -15t16.5 -10.5v-8h-266v8q0 7 9 10t19.5 5t19.5 17.5t9 44.5v251q0 36 -17 54.5t-44 18.5q-26 0 -53 -16.5t-40 -41.5v-271q0 -27 9 -41.5t20 -16.5t20 -4.5t9 -9.5v-8h-267v8q0 7 16.5 9.5t33.5 16.5t17 51z" />
    <glyph glyph-name="longs_i" unicode="&#x17f;i" horiz-adv-x="625" 
d="M229 564v-485q0 -27 9.5 -41t20.5 -16t20.5 -5t9.5 -10v-7h-272v7q0 8 17.5 10.5t35 16.5t17.5 51v335h-66v14l67 6q0 133 76 213t205 80q50 0 86 -19t36 -59q0 -27 -18.5 -45t-48.5 -18q-35 0 -56.5 28t-21.5 71q0 7 2 25q-56 -4 -87.5 -41.5t-31.5 -110.5zM389 83v260
q0 27 -11 41.5t-23.5 16.5t-23.5 5.5t-11 10.5v8l206 26l5 -5v-368q0 -33 16.5 -45.5t33.5 -15t17 -10.5v-7h-274v7q0 8 16 10.5t32.5 16.5t16.5 49z" />
    <glyph glyph-name="longs_k" unicode="&#x17f;k" horiz-adv-x="906" 
d="M536 735v-503h45l87 92q37 39 37 58q0 12 -12 19.5t-27 9.5t-27 6.5t-12 10.5v8h242v-7q0 -8 -21.5 -12t-61 -20t-73.5 -52l-45 -48l118 -196q25 -42 54 -61t44 -22.5t15 -11.5v-6h-203q-83 141 -129 216h-31v-131q0 -28 10.5 -43t23 -18t23 -7t10.5 -11v-6h-281v6
q0 8 11 11.5t24.5 6t24.5 18.5t11 46v550q0 64 -64 64q-47 0 -74 -33t-27 -93l1 -496q0 -27 9.5 -41.5t20.5 -16.5t20.5 -4.5t9.5 -9.5v-8h-271v8q0 7 17 9.5t34.5 16.5t17.5 51v335h-65v14l66 6q0 127 74 204.5t201 77.5q7 0 23 -2q28 3 145 20z" />
    <glyph glyph-name="longs_l" unicode="&#x17f;l" horiz-adv-x="624" 
d="M393 83v554q0 65 -64 65q-47 0 -73.5 -33t-26.5 -94v-496q0 -27 9.5 -41t20.5 -16t20.5 -5t9.5 -10v-7h-272v7q0 8 17.5 10.5t35 16.5t17.5 51v335h-66v14l67 6q0 126 74 203.5t201 77.5q15 0 22 -1l145 20l6 -6v-656q0 -33 17 -45.5t34.5 -15t17.5 -10.5v-7h-275v7
q0 8 16 10.5t31.5 16.5t15.5 49z" />
    <glyph glyph-name="longs_longs" unicode="&#x17f;&#x17f;" horiz-adv-x="629" 
d="M532 575v-496q0 -27 9.5 -41t21.5 -16t21.5 -5t9.5 -10v-7h-266v7q0 8 15.5 10.5t31 16.5t15.5 51v335h-66v14l67 6q0 76 27 135q-59 24 -59 80q0 21 7 39q-61 0 -97.5 -37t-36.5 -112v-466q0 -34 15.5 -46.5t31 -15t15.5 -10.5v-7h-271v7q0 7 10.5 10.5t23 5.5t23 17.5
t10.5 44.5v335h-66v14l66 6q1 121 74 197t200 76q93 0 118 -46q74 69 175 69q42 0 74 -19.5t32 -55.5q0 -26 -18 -42.5t-46 -16.5q-35 0 -54.5 26t-19.5 68q0 13 1 20q-43 -5 -68.5 -42.5t-25.5 -98.5z" />
    <glyph glyph-name="longs_longs_i" unicode="&#x17f;&#x17f;i" horiz-adv-x="926" 
d="M528 564v-485q0 -27 9.5 -41t20.5 -16t20.5 -5t9.5 -10v-7h-266v7q0 8 16 10.5t32.5 16.5t16.5 51v335h-66v14l67 6q0 75 26 135q-58 23 -58 80q0 21 7 39q-61 0 -97.5 -37t-36.5 -112v-466q0 -34 15.5 -46.5t31 -15t15.5 -10.5v-7h-271v7q0 7 10.5 10.5t23 5.5t23 17.5
t10.5 44.5v335h-66v14l66 6q1 118 73 195t196 77q102 0 123 -46q76 68 184 68q49 0 79.5 -22t30.5 -60q0 -18 -17.5 -34t-40.5 -16q-25 0 -47 22.5t-22 66.5q0 7 2 25q-57 -4 -88.5 -41.5t-31.5 -110.5zM690 83v260q0 27 -11 41.5t-23.5 16.5t-23.5 5.5t-11 10.5v8l206 26
l5 -5v-368q0 -26 10.5 -40t22.5 -16t22.5 -5t10.5 -10v-7h-273v7q0 8 16.5 10.5t32.5 16.5t16 49z" />
    <glyph glyph-name="longs_longs_l" unicode="&#x17f;&#x17f;l" horiz-adv-x="925" 
d="M693 83v560q0 62 -65 62q-45 0 -72 -33t-27 -91v-502q0 -27 9.5 -41t20.5 -16t20.5 -5t9.5 -10v-7h-266v7q0 8 16.5 10.5t32.5 16.5t16 51v335h-66v14l67 6q0 74 28 135q-61 11 -61 76q0 19 7 43q-134 0 -134 -149v-466q0 -34 15.5 -46.5t31 -15t15.5 -10.5v-7h-271v7
q0 7 10.5 10.5t23 5.5t23 17.5t10.5 44.5v335h-66v14l66 6q1 121 74 197t200 76q97 0 119 -50q72 64 183 64q15 0 22 -1l145 20l6 -6v-662q0 -33 17 -45.5t34.5 -15t17.5 -10.5v-7h-275v7q0 8 16 10.5t31.5 16.5t15.5 49z" />
    <glyph glyph-name="longs_s" unicode="&#x17f;s" horiz-adv-x="751" 
d="M227 555v-476q0 -27 9.5 -41t21.5 -16t21.5 -5t9.5 -10v-7h-271v7q0 7 10.5 10.5t23 5.5t23 17.5t10.5 44.5v335h-66v14l67 6q0 132 76.5 209.5t201.5 77.5q45 0 79.5 -19t34.5 -55q0 -26 -18 -42.5t-46 -16.5q-33 0 -53.5 25.5t-20.5 65.5q0 7 2 23q-53 -5 -84 -42.5
t-31 -110.5zM592 427q-16 6 -40 6q-34 0 -61.5 -18.5t-27.5 -58.5q0 -25 26.5 -45.5t64.5 -36.5t76 -34.5t64.5 -48.5t26.5 -70q0 -65 -62 -99t-154 -34q-90 0 -140.5 27.5t-50.5 70.5q0 25 16.5 39.5t38.5 14.5q31 0 49 -20t18 -51q0 -35 -13 -56q27 -10 62 -10q41 0 69 22
t28 63q0 27 -26 48t-62.5 37t-73 33.5t-62.5 44.5t-26 62q0 65 53 102t139 37q81 0 127.5 -27t46.5 -70q0 -24 -15 -37.5t-37 -13.5q-26 0 -46 18t-20 48q0 31 12 57z" />
    <glyph glyph-name="t_y" unicode="ty" horiz-adv-x="834" 
d="M350 36q-71 -48 -155 -48q-69 0 -95.5 31.5t-26.5 89.5v310h-60v15l64 6q40 10 76 60.5t45 97.5h17v-162h350v-7q0 -7 -14.5 -11.5t-29.5 -12.5t-15 -24q0 -3 0.5 -6t2 -8.5t4 -11t7 -15.5t9.5 -21t13.5 -29.5t17.5 -38t23 -49.5t28 -61h6l76 187q10 27 10 43
q0 19 -12 29t-27 12t-27 6t-12 12v6h202v-6q0 -8 -12 -12t-28 -7t-35.5 -19.5t-32.5 -47.5l-166 -398q-34 -81 -76 -127t-108 -46q-32 0 -56.5 19t-24.5 45q0 25 18.5 43.5t48.5 18.5q38 0 60.5 -26t26.5 -57q22 10 48 45t47 89l16 41h-15l-184 370q-19 38 -39 48t-60 10
h-40v-319q0 -71 58 -71q30 0 72 19z" />
    <glyph glyph-name="t_w" unicode="tw" horiz-adv-x="1073" 
d="M350 36q-71 -48 -155 -48q-69 0 -95.5 31.5t-26.5 89.5v310h-60v15l64 6q40 10 76 60.5t45 97.5h17v-162h339v-7q0 -6 -9 -9.5t-19.5 -5.5t-19.5 -10.5t-9 -22.5q0 -13 10 -36l69 -168h4l58 160q9 24 9 39t-9.5 23.5t-20.5 11t-20.5 7.5t-9.5 13v5h253v-7q0 -6 -9 -9
t-19.5 -4.5t-19.5 -9.5t-9 -22t11 -39q44 -107 71 -169h5l57 163q13 35 5 51.5t-23 19t-29.5 7t-14.5 14.5v5h195v-6q0 -9 -12.5 -13t-29 -6t-36 -19t-31.5 -48l-133 -354l-18 -2l-141 340h-4l-126 -338l-18 -2l-157 373q-14 34 -32.5 46t-49.5 12h-57v-319q0 -71 58 -71
q30 0 72 19z" />
    <glyph glyph-name="ff" unicode="ff" horiz-adv-x="639" 
d="M572 713q-43 -13 -43 -91v-186h108v-16h-108v-341q0 -27 11.5 -41t26 -16t26 -5t11.5 -10v-7h-277v7q0 7 9.5 10.5t21 6t21 18t9.5 43.5v335h-159v-341q0 -34 16.5 -46.5t32.5 -15t16 -10.5v-7h-274v7q0 7 10.5 10.5t23 5.5t23 17.5t10.5 44.5v335h-66v14l66 5
q0 121 72.5 194.5t193.5 73.5q79 0 105 -45q70 77 162 77q36 0 62 -19t26 -55q0 -26 -16.5 -42t-44.5 -16q-36 0 -56 26.5t-20 65.5q0 9 1 14zM228 436h160v9q0 64 18 124q-34 1 -52.5 24t-18.5 57q0 21 7 38q-114 -7 -114 -135v-117z" />
    <glyph glyph-name="f_i" unicode="fi" horiz-adv-x="630" 
d="M531 453l5 -5v-370q0 -26 10.5 -40t22.5 -16t22.5 -5t10.5 -10v-7h-271v7q0 8 15.5 10.5t31.5 16.5t16 49v277q0 60 -66 60h-99v-341q0 -27 9.5 -41t20.5 -16t20.5 -5t9.5 -10v-7h-272v7q0 8 17.5 10.5t35 16.5t17.5 51v335h-66v14l67 6q0 133 76 213.5t204 80.5
q47 0 76 -22.5t29 -59.5q0 -18 -17 -34t-41 -16t-46.5 22.5t-22.5 66.5q0 7 2 25q-56 -4 -88 -41.5t-32 -110.5v-128h90q96 0 213 17z" />
    <glyph glyph-name="f_l" unicode="fl" horiz-adv-x="624" 
d="M393 83v554q0 62 -64 62q-46 0 -73.5 -33t-27.5 -91v-139h99v-16h-98v-341q0 -27 9.5 -41t20.5 -16t20.5 -5t9.5 -10v-7h-272v7q0 8 17.5 10.5t35 16.5t17.5 51v335h-66v14l67 6q0 126 74 203.5t201 77.5q15 0 22 -1l145 20l6 -6v-656q0 -33 17 -45.5t34.5 -15
t17.5 -10.5v-7h-275v7q0 8 16 10.5t31.5 16.5t15.5 49z" />
    <glyph glyph-name="ffi" unicode="ffi" horiz-adv-x="926" 
d="M827 453l5 -5v-370q0 -26 10.5 -40t23 -16t23 -5t10.5 -10v-7h-271v7q0 7 9.5 10.5t21.5 6t21.5 17.5t9.5 42v277q0 60 -66 60h-95v-341q0 -27 9.5 -41t20.5 -16t20.5 -5t9.5 -10v-7h-267v7q0 8 16 10.5t32.5 16.5t16.5 51v335h-158v-341q0 -34 15.5 -46.5t31 -15
t15.5 -10.5v-7h-271v7q0 7 10.5 10.5t23 5.5t23 17.5t10.5 44.5v335h-66v14l66 6q1 121 74 197t200 76q94 0 119 -47q75 69 190 69q45 0 74 -22t29 -61q0 -18 -17 -34t-41 -16t-46.5 22.5t-22.5 66.5q0 7 2 25q-56 -4 -88 -41.5t-32 -110.5v-128h87q95 0 212 17zM229 545
v-109h159q0 80 27 139q-28 4 -43.5 26.5t-15.5 53.5q0 21 7 39q-62 0 -98 -36t-36 -113z" />
    <glyph glyph-name="ffl" unicode="ffl" horiz-adv-x="925" 
d="M693 83v560q0 62 -64 62q-46 0 -73 -33t-27 -91v-145h98v-16h-98v-341q0 -27 9.5 -41t20.5 -16t20.5 -5t9.5 -10v-7h-266v7q0 8 16.5 10.5t32.5 16.5t16 51v335h-159v-341q0 -34 15.5 -46.5t31 -15t15.5 -10.5v-7h-271v7q0 7 10.5 10.5t23 5.5t23 17.5t10.5 44.5v335h-66
v14l66 6q1 121 74 197t200 76q39 0 72.5 -12.5t46.5 -37.5q74 64 183 64q15 0 22 -1q46 5 145 20l6 -6v-662q0 -33 17 -45.5t34.5 -15t17.5 -10.5v-7h-275v7q0 8 16 10.5t31.5 16.5t15.5 49zM229 436h160q0 76 27 137q-29 4 -44.5 27t-15.5 55q0 21 7 39q-134 0 -134 -149
v-109z" />
    <glyph glyph-name="longs_t" unicode="&#x17f;t" horiz-adv-x="669" 
d="M229 575v-496q0 -27 9.5 -41t21.5 -16t21.5 -5t9.5 -10v-7h-271v7q0 7 10.5 10.5t23 5.5t23 17.5t10.5 44.5v335h-66v14q44 2 67 4q0 129 76 213t190 84q42 0 74 -19t32 -55q0 -26 -18 -42.5t-46 -16.5q-35 0 -54.5 26t-19.5 68q0 13 1 20q-43 -5 -68.5 -42.5
t-25.5 -98.5zM665 36q-71 -48 -155 -48q-69 0 -95.5 31.5t-26.5 89.5v310h-60v15l64 6q40 10 79 65t41 93h18v-162h122v-17h-122v-319q0 -71 58 -71q30 0 72 19z" />
    <glyph glyph-name=".notdef" horiz-adv-x="450" 
d="M3 0v691h444v-691h-444zM225 403l127 236h-255zM261 350q104 -192 122 -227h3v452l-1 1h-2q-40 -76 -122 -226zM98 60h254l-127 236zM63 576v-453h3l123 227l-123 226h-3z" />
    <glyph glyph-name=".null" horiz-adv-x="0" 
 />
    <glyph glyph-name="nonmarkingreturn" horiz-adv-x="333" 
 />
    <glyph glyph-name="space" unicode=" " horiz-adv-x="264" 
 />
    <glyph glyph-name="exclam" unicode="!" horiz-adv-x="326" 
d="M93 60q0 30 21 51t50 21q30 0 51 -21t21 -51q0 -29 -21 -50t-51 -21q-29 0 -50 21t-21 50zM173 194h-17l-77 413q-7 36 14 67t70 31q50 0 69.5 -30.5t12.5 -70.5z" />
    <glyph glyph-name="quotedbl" unicode="&#x22;" horiz-adv-x="354" 
d="M158 648l-45 -219h-15l-46 213q-6 26 8.5 47t43.5 21q28 0 43.5 -17.5t10.5 -44.5zM301 648l-45 -219h-15l-46 213q-6 26 8.5 47t43.5 21q28 0 43.5 -17.5t10.5 -44.5z" />
    <glyph glyph-name="numbersign" unicode="#" 
d="M319 29l34 194h-163l-34 -194h-31l34 194h-106v30h111l28 160h-110v30h115l32 181h31l-32 -181h163l32 181h32l-32 -181h106v-30h-111l-28 -160h110v-30h-115l-34 -194h-32zM223 413l-28 -160h163l28 160h-163z" />
    <glyph glyph-name="dollar" unicode="$" 
d="M316 -80v817h18v-74q86 -6 134.5 -39.5t48.5 -81.5q0 -29 -17.5 -46.5t-42.5 -17.5q-32 0 -53 23t-21 61q0 39 14 73q-24 7 -63 12v-230q49 -23 77.5 -39.5t65.5 -45t54.5 -63.5t17.5 -77q0 -81 -58.5 -132t-156.5 -63v-77h-18zM269 737v-817h-18v74q-96 6 -150.5 45.5
t-54.5 91.5q0 31 19 49.5t44 18.5q38 0 57.5 -26.5t19.5 -65.5q0 -45 -21 -77q35 -18 86 -20v282q-34 17 -54.5 28t-48.5 29.5t-43.5 36t-27 42.5t-11.5 52q0 76 51 122.5t134 58.5v76h18zM424 135q0 65 -90 115v-233q44 9 67 41.5t23 76.5zM187 543q0 -48 64 -83v179
q-29 -9 -46.5 -34.5t-17.5 -61.5z" />
    <glyph glyph-name="percent" unicode="%" horiz-adv-x="813" 
d="M591 720l-354 -759h-25l355 759h24zM34 489q0 81 43.5 139t128.5 58q89 0 130 -56.5t41 -139.5q0 -80 -43 -138.5t-129 -58.5q-87 0 -129 56.5t-42 139.5zM144 489q0 -182 63 -182q61 0 61 182t-62 182t-62 -182zM434 189q0 81 43.5 139t128.5 58q89 0 130 -56.5
t41 -139.5q0 -80 -43 -138.5t-129 -58.5q-87 0 -129 56.5t-42 139.5zM544 189q0 -182 63 -182q61 0 61 182t-62 182t-62 -182z" />
    <glyph glyph-name="ampersand" unicode="&#x26;" horiz-adv-x="834" 
d="M406 -34q-173 0 -264.5 64.5t-91.5 163.5q0 36 15.5 71t47.5 68.5t92 56t139 26.5v4q-128 1 -182.5 41.5t-54.5 96.5q0 69 69 110.5t184 41.5q94 0 151.5 -32t57.5 -80q0 -31 -18.5 -48t-44.5 -17q-36 0 -54.5 25t-18.5 61q0 31 14 62q-29 9 -55 9q-54 -1 -90.5 -38.5
t-36.5 -96.5q0 -120 153 -129l-2 -16q-76 -5 -134 -61t-58 -151q0 -40 9.5 -75.5t31 -67.5t62 -50.5t95.5 -18.5q141 0 219 71.5t78 166.5q0 61 -42.5 106t-109.5 45q-68 0 -102.5 -29.5t-34.5 -69.5q0 -36 28.5 -60.5t77.5 -24.5q-4 16 -4 29q0 24 13.5 42t37.5 18
q18 0 29.5 -11.5t11.5 -28.5q0 -30 -24.5 -46.5t-59.5 -16.5q-59 0 -96 28.5t-37 75.5q0 57 38.5 94t93.5 52.5t110.5 26.5t94 28t38.5 46q0 21 -19 31.5t-46 10.5q-9 0 -21 -2q5 -15 5 -29q0 -22 -12.5 -38t-35.5 -16q-15 0 -26 9t-11 26q0 31 30 48t67 17q49 0 78.5 -22
t29.5 -60q0 -36 -34 -71t-117 -53q66 -65 66 -152q0 -48 -20.5 -93.5t-59.5 -83.5t-104 -61t-146 -23z" />
    <glyph glyph-name="quotesingle" unicode="'" horiz-adv-x="218" 
d="M162 648l-45 -219h-15l-46 217q-5 25 10 44.5t42 19.5q28 0 43.5 -17.5t10.5 -44.5z" />
    <glyph glyph-name="parenleft" unicode="(" horiz-adv-x="362" 
d="M56 261q0 135 68.5 263.5t194.5 214.5l8 -11q-77 -79 -115.5 -202t-38.5 -257t38 -255t115 -202l-9 -12q-127 82 -194 204.5t-67 256.5z" />
    <glyph glyph-name="parenright" unicode=")" horiz-adv-x="362" 
d="M305 261q0 -134 -67 -256.5t-194 -204.5l-9 12q77 81 115 202t38 255t-38.5 257t-115.5 202l8 11q126 -86 194.5 -214.5t68.5 -263.5z" />
    <glyph glyph-name="asterisk" unicode="*" horiz-adv-x="422" 
d="M215 709q23 0 35 -15t5 -37l-32 -90h-15l-33 89q-8 21 3.5 37t36.5 16zM54 575q0 28 19 43.5t36 2.5l85 -67l-5 -13l-99 -2q-36 0 -36 36zM333 443q0 -17 -16 -31.5t-35 -14.5q-24 0 -33 31l-25 94l12 8l84 -61q13 -8 13 -26zM376 575q0 -36 -36 -36l-99 2l-5 13l85 67
q17 13 36 -2.5t19 -43.5zM100 443q0 18 13 26l84 61l12 -8l-25 -94q-9 -31 -33 -31q-19 0 -35 14.5t-16 31.5z" />
    <glyph glyph-name="plus" unicode="+" 
d="M85 277v40h193v189h40v-189h191v-40h-191v-195h-40v195h-193z" />
    <glyph glyph-name="comma" unicode="," horiz-adv-x="251" 
d="M123 137q37 0 57.5 -26t20.5 -64q0 -54 -34.5 -122t-84.5 -109l-9 11q39 36 67.5 89t31.5 92q-20 -15 -47 -15q-32 0 -52 20t-20 52q0 29 19.5 50.5t50.5 21.5z" />
    <glyph glyph-name="hyphen" unicode="-" horiz-adv-x="326" 
d="M292 224h-258v45h258v-45z" />
    <glyph glyph-name="period" unicode="." horiz-adv-x="237" 
d="M46 64q0 31 21 52t51 21q31 0 52 -21t21 -52q0 -30 -21 -51t-52 -21q-30 0 -51 21t-21 51z" />
    <glyph glyph-name="slash" unicode="/" horiz-adv-x="311" 
d="M309 727l-270 -785h-39l271 785h38z" />
    <glyph glyph-name="zero" unicode="0" 
d="M34 332q0 89 26 163.5t86.5 125.5t147.5 51q70 0 122 -29t81 -78.5t42.5 -107.5t13.5 -124q0 -64 -14.5 -123.5t-44.5 -110.5t-82 -81.5t-119 -30.5q-68 0 -119.5 29t-81 79t-44 109.5t-14.5 127.5zM190 331q0 -330 105 -330q103 0 103 329q0 161 -22.5 244t-81.5 83
q-104 0 -104 -326z" />
    <glyph glyph-name="one" unicode="1" 
d="M363 675l4 -4v-592q0 -26 13 -40t28 -16t28 -5.5t13 -10.5v-7h-307v7q0 7 13 11t28.5 6.5t28.5 18t13 42.5v447q0 24 -5.5 38.5t-17.5 20.5t-21 7t-27 1h-15q-19 0 -19 16z" />
    <glyph glyph-name="two" unicode="2" 
d="M114 102h216q66 0 99.5 9.5t48.5 25.5t39 59q9 15 16 14l8 -1q-12 -40 -33 -114t-27 -95h-466l-3 8q45 64 111.5 133t109 110.5t75 104.5t32.5 136q0 68 -34.5 111t-88.5 43q-45 0 -80 -25q41 -27 41 -82q0 -27 -17 -48.5t-48 -21.5q-30 0 -46 19t-16 44q0 17 10.5 38.5
t32 45.5t65.5 40t102 16q119 0 175.5 -49.5t56.5 -119.5q0 -47 -29.5 -92.5t-76.5 -84.5t-97 -74t-101 -74.5t-77 -72.5q2 -2 2 -3z" />
    <glyph glyph-name="three" unicode="3" 
d="M270 672q61 0 106.5 -14.5t69.5 -38t35 -48t11 -49.5q0 -58 -55.5 -104.5t-162.5 -54.5v-4q105 0 177 -47.5t72 -131.5q0 -85 -72.5 -138.5t-184.5 -53.5q-106 0 -170 42t-64 108q0 44 35.5 73t86.5 32l9 -11q-16 -32 -16 -83q0 -62 27 -105t81 -43q60 0 87 49t27 121
q0 86 -47.5 129t-126.5 43q-5 0 -41 -2l-4 15q97 23 142.5 65.5t45.5 108.5q0 56 -30 89t-76 33q-37 0 -63 -19q29 -30 29 -75q0 -31 -18.5 -53t-50.5 -22q-28 0 -44.5 17.5t-16.5 43.5q0 45 48 86.5t154 41.5z" />
    <glyph glyph-name="four" unicode="4" 
d="M463 424q1 -1 2 -1q2 -1 3 -1v-223h91v-17h-91v-96q0 -29 14 -44.5t31.5 -18.5t31.5 -7t14 -12v-4h-325v4q0 8 14 12t31 7t31 19t14 45v95h-302v16q154 225 273 461h173l-19 -37q-89 -126 -207.5 -244.5t-201.5 -178.5h284v159q83 20 139 66z" />
    <glyph glyph-name="five" unicode="5" 
d="M144 648h206q84 0 109 10.5t44 46.5q7 15 15 14l7 -1q-7 -29 -21 -91t-22 -91q-86 10 -193 10h-144l-27 -194q78 47 178 47q99 0 163 -55t64 -144q0 -90 -69 -151t-193 -61q-101 0 -163 40.5t-62 103.5q0 46 35 77t88 33l8 -10q-16 -34 -16 -83q0 -148 106 -148
q44 0 71 30t35.5 68.5t8.5 86.5q0 86 -42.5 131t-111.5 45q-51 0 -103 -26q-6 2 -14 4z" />
    <glyph glyph-name="six" unicode="6" 
d="M543 211q0 -93 -67.5 -158t-186.5 -65q-127 0 -187 67t-60 175q0 152 119 272.5t300 170.5l4 -12q-135 -54 -204 -164.5t-69 -266.5q0 -114 22 -171.5t82 -57.5q99 0 99 206q0 70 -33.5 121.5t-108.5 51.5q-2 10 -2 12q40 17 92 17q87 0 143.5 -53.5t56.5 -144.5z" />
    <glyph glyph-name="seven" unicode="7" 
d="M539 660l5 -5q-142 -259 -251 -655h-178q138 276 359 554h-225q-74 0 -99.5 -11.5t-51.5 -53.5q-13 -21 -23 -18l-5 1l55 199q92 -10 255 -10z" />
    <glyph glyph-name="eight" unicode="8" 
d="M502 519q0 -46 -33.5 -85t-86.5 -56q78 -45 120.5 -89.5t42.5 -109.5q0 -89 -72 -140.5t-181 -51.5q-62 0 -115 17t-90 56.5t-37 95.5q0 55 38 103.5t103 74.5q-55 37 -84.5 74.5t-29.5 86.5q0 81 62.5 129.5t157.5 48.5q86 0 145.5 -40.5t59.5 -113.5zM423 111
q0 24 -10 46t-23.5 38.5t-38.5 36t-43.5 31t-51.5 31.5t-49 30q-57 -53 -57 -152q0 -79 38.5 -125t113.5 -46q53 0 87 31t34 79zM193 552q0 -26 12.5 -49t42 -45t50.5 -34t65 -36q43 46 43 127q0 63 -29.5 103t-86.5 40q-44 0 -70.5 -28t-26.5 -78z" />
    <glyph glyph-name="nine" unicode="9" 
d="M41 451q0 94 68 157.5t186 63.5q125 0 186 -69t61 -176q0 -152 -114 -268t-304 -168q-1 1 -2.5 5t-2.5 6q138 59 206.5 169t68.5 257q0 230 -106 230q-99 0 -99 -203q0 -68 34 -118.5t108 -50.5l3 -11q-41 -17 -93 -17q-88 0 -144 51t-56 142z" />
    <glyph glyph-name="colon" unicode=":" horiz-adv-x="237" 
d="M46 64q0 31 21 52t51 21q31 0 52 -21t21 -52q0 -30 -21 -51t-52 -21q-30 0 -51 21t-21 51zM46 343q0 31 21 52t51 21q31 0 52 -21t21 -52q0 -30 -21 -51t-52 -21q-30 0 -51 21t-21 51z" />
    <glyph glyph-name="semicolon" unicode=";" horiz-adv-x="237" 
d="M46 343q0 31 21 52t51 21q31 0 52 -21t21 -52q0 -30 -21 -51t-52 -21q-30 0 -51 21t-21 51zM114 137q37 0 58 -26t21 -64q0 -54 -35 -122t-85 -109l-9 11q39 36 67.5 89t31.5 92q-20 -15 -47 -15q-31 0 -51.5 20t-20.5 52q0 29 20 50.5t50 21.5z" />
    <glyph glyph-name="less" unicode="&#x3c;" 
d="M527 58l-472 219v31q87 40 247 113.5t225 103.5v-45l-411 -187l411 -188v-47z" />
    <glyph glyph-name="equal" unicode="=" 
d="M509 189h-422v39h422v-39zM509 354h-422v39h422v-39z" />
    <glyph glyph-name="greater" unicode="&#x3e;" 
d="M527 277l-472 -219v47q75 35 215 98.5t196 89.5l-411 187v45q87 -40 247 -113.5t225 -103.5v-31z" />
    <glyph glyph-name="question" unicode="?" horiz-adv-x="548" 
d="M105 315q0 29 25 60t60.5 57.5t71.5 53t61 57t25 59.5q0 41 -29.5 61t-71.5 20q-33 0 -63 -10q18 -29 18 -65q0 -37 -20 -62.5t-56 -25.5q-23 0 -40.5 16t-17.5 45q0 53 54.5 87t153.5 34q58 0 104.5 -11.5t80 -44t33.5 -82.5q0 -49 -39.5 -95t-86.5 -75.5t-86.5 -64
t-39.5 -63.5q0 -37 48 -77l-7 -14q-83 12 -130.5 51t-47.5 89zM175 55q0 31 21.5 52t50.5 21q30 0 51 -21t21 -52q0 -29 -21 -49.5t-51 -20.5q-29 0 -50.5 20.5t-21.5 49.5z" />
    <glyph glyph-name="at" unicode="@" horiz-adv-x="986" 
d="M559 180h-4q-54 -59 -146 -59q-48 0 -79.5 24.5t-31.5 70.5q0 49 33.5 81.5t78 44t97.5 11.5q26 0 47 -3v57q0 104 -75 104q-32 0 -57 -16q23 -23 23 -55q0 -28 -17 -46.5t-47 -18.5q-23 0 -36 13.5t-13 33.5q0 39 43.5 72t134.5 33q47 0 80.5 -11.5t50 -27t26 -43
t11 -46.5t1.5 -50v-136q0 -34 10.5 -50t36.5 -16q74 0 127.5 67.5t53.5 162.5q0 157 -112 248t-281 91q-187 0 -311.5 -118.5t-124.5 -293.5q0 -182 113.5 -300t290.5 -118q85 0 146 18l6 -21q-61 -20 -157 -20q-183 0 -302.5 125t-119.5 313q0 185 130 310.5t329 125.5
q180 0 298 -95.5t118 -263.5q0 -115 -69.5 -189.5t-181.5 -74.5q-41 0 -75.5 16t-44.5 50zM479 161q44 0 75 39v137h-28q-53 -3 -77.5 -30t-24.5 -68q0 -37 14.5 -57.5t40.5 -20.5z" />
    <glyph glyph-name="A" unicode="A" horiz-adv-x="758" 
d="M483 115l-36 96h-250l-31 -86q-11 -27 -11 -46q0 -31 24 -44.5t48 -17t24 -11.5v-6h-246v6q0 7 15 11.5t36 9t45.5 28t40.5 65.5q27 72 82 216t82 217q9 24 9 40q0 23 -14.5 37t-32.5 17t-32.5 7.5t-14.5 11.5v8h217l217 -577q15 -40 39 -58.5t39.5 -22t15.5 -10.5v-6
h-320v6q0 7 17.5 10.5t34.5 13.5t17 32q0 11 -15 53zM325 543h-6l-116 -315h238z" />
    <glyph glyph-name="B" unicode="B" horiz-adv-x="730" 
d="M288 655v-280h60q55 0 96.5 35t41.5 103q0 75 -41.5 108.5t-109.5 33.5h-47zM422 0h-391v7q0 6 15 10t33 7.5t33 24t15 56.5v472q0 33 -15 51t-32.5 20.5t-32.5 6.5t-15 12v7h371q133 0 191.5 -45t58.5 -112q0 -59 -54 -100.5t-145 -45.5v-4q120 -6 178 -59t58 -121
q0 -75 -63.5 -131t-204.5 -56zM288 358v-238q0 -27 2 -42.5t9 -31.5t24 -23t44 -7h10q64 0 103 44t39 123q0 50 -17.5 86.5t-45.5 54.5t-55.5 26t-55.5 8h-57z" />
    <glyph glyph-name="C" unicode="C" horiz-adv-x="694" 
d="M397 685q110 0 191 -29l29 46h15l9 -254h-5q-7 0 -11.5 8t-11.5 31q-60 180 -197 180q-98 0 -144.5 -92t-46.5 -250q0 -318 194 -318q158 0 214 202q1 5 3 12t3 11t2.5 9t2.5 8t2.5 7t2.5 6t3 3.5t3.5 2.5t3.5 1h6l-11 -288h-16l-26 47q-111 -40 -217 -40q-164 0 -258 94
t-94 245q0 152 96.5 255t257.5 103z" />
    <glyph glyph-name="D" unicode="D" horiz-adv-x="813" 
d="M31 0v7q0 7 15 10.5t33 7.5t33 24t15 56v472q0 33 -14.5 51t-32.5 20.5t-32.5 6.5t-14.5 12v7h312q89 0 164 -20t133.5 -59.5t91.5 -105t33 -151.5q0 -42 -10 -84t-37.5 -89t-70.5 -82.5t-116 -59t-167 -23.5h-335zM289 655v-560q0 -39 18 -59t60 -20h18q96 0 149 77.5
t53 230.5q0 169 -57 250t-191 81h-50z" />
    <glyph glyph-name="E" unicode="E" horiz-adv-x="700" 
d="M290 343v-247q0 -39 18.5 -59t64.5 -20h42q84 0 140.5 51.5t106.5 172.5q7 19 17 19h3q3 -1 4 -1l-58 -280q-76 21 -196 21h-401v7q0 7 15 10.5t33.5 7.5t33.5 24t15 56v473q0 32 -15 50t-33 20.5t-33 6.5t-15 12v7h321q189 0 251 28q4 -36 9 -76.5t10 -88.5t8 -76
q-4 -2 -8 -2q-7 0 -16 19q-43 104 -87.5 141t-133.5 37h-96v-295h83q38 0 60.5 19t27.5 42t11.5 42t16.5 19h5v-270h-6q-11 0 -16.5 20.5t-9.5 44.5t-25 44.5t-58 20.5h-89z" />
    <glyph glyph-name="F" unicode="F" horiz-adv-x="646" 
d="M130 103v475q0 32 -15 50t-33 20.5t-33 6.5t-15 12v7h325q189 0 251 28q4 -36 9 -76.5t10 -88.5t8 -76q-4 -2 -8 -2q-7 0 -16 19q-43 104 -87.5 141t-133.5 37h-100v-307h92q38 0 60.5 19t27.5 42t11.5 42t16.5 19h5v-270h-6q-11 0 -16.5 20.5t-9.5 44.5t-25 44.5
t-58 20.5h-98v-229q0 -35 15.5 -54.5t33.5 -23t33.5 -7t15.5 -11.5v-6h-356v6q0 6 10 9.5t24 6.5t28 9.5t24 24.5t10 47z" />
    <glyph glyph-name="G" unicode="G" horiz-adv-x="778" 
d="M406 685q76 0 186 -31l48 47h18q6 -174 10 -262h-5q-8 0 -12.5 8t-11.5 32q-57 188 -210 188q-103 0 -153.5 -91.5t-50.5 -249.5q0 -161 41.5 -241.5t138.5 -80.5q44 0 81 20.5t59 50.5v161q0 30 -15 46.5t-33.5 19.5t-33.5 7t-15 12v7h323v-7q0 -7 -12.5 -10t-27.5 -6.5
t-27.5 -21t-12.5 -48.5v-227l-16 -5l-52 40q-133 -54 -229 -54q-162 0 -257 93.5t-95 245.5q0 151 100 254t264 103z" />
    <glyph glyph-name="H" unicode="H" horiz-adv-x="855" 
d="M724 580v-475q0 -36 15.5 -56t33.5 -23.5t33.5 -7.5t15.5 -12v-6h-348v6q0 7 14 11t30.5 8.5t30.5 27t14 60.5v234h-275v-244q0 -29 9.5 -47t23 -24.5t26.5 -9.5t22.5 -6.5t9.5 -9.5v-6h-348v6q0 8 15 11.5t32.5 7.5t32.5 23.5t15 54.5v477q0 31 -15 48.5t-32.5 20.5
t-32.5 7t-15 11v7h350v-7q0 -7 -14.5 -11t-32 -7.5t-32 -20.5t-14.5 -48v-216h275v216q0 31 -14 48.5t-30.5 20.5t-30.5 7t-14 11v7h346v-7q0 -7 -15 -11t-33 -7.5t-33 -20.5t-15 -48z" />
    <glyph glyph-name="I" unicode="I" horiz-adv-x="433" 
d="M296 580v-477q0 -35 15.5 -55t33.5 -23.5t33.5 -7t15.5 -11.5v-6h-356v6q0 6 10 9.5t24 6.5t28 9.5t24 24.5t10 47v477q0 30 -15 47.5t-33 20.5t-33 7.5t-15 11.5v7h356v-7q0 -7 -15.5 -11t-33.5 -7.5t-33.5 -20.5t-15.5 -48z" />
    <glyph glyph-name="J" unicode="J" horiz-adv-x="401" 
d="M124 -25v605q0 31 -15 48.5t-33 20.5t-33 7t-15 11v7h358v-7q0 -7 -15.5 -11t-34.5 -7.5t-34.5 -20.5t-15.5 -48q0 -52 0.5 -209.5t0.5 -188.5q0 -201 -87 -292q-106 -112 -221 -112q-35 0 -66.5 19t-31.5 58q0 31 21.5 51t54.5 20q41 0 64.5 -33t22.5 -88q42 19 61 56
t19 114z" />
    <glyph glyph-name="K" unicode="K" horiz-adv-x="782" 
d="M331 329h-48v-227q0 -35 14.5 -54.5t32 -23t32 -7t14.5 -11.5v-6h-346v6q0 7 14 11t31.5 7.5t31.5 23.5t14 55v476q0 31 -14 48t-31.5 20.5t-31.5 7.5t-14 11v7h346v-7q0 -7 -14.5 -11t-32 -7t-32 -20.5t-14.5 -47.5v-232h68l175 202q37 43 37 65q0 15 -13 23.5t-28 11
t-28 6.5t-13 11v7h276v-6q0 -8 -10 -11.5t-29 -7.5t-42 -12t-55 -30t-62 -55l-114 -127l203 -314q23 -36 49 -57.5t43 -27t28 -10t11 -11.5v-5h-327v6q0 7 27 15t27 26q0 14 -16 39z" />
    <glyph glyph-name="L" unicode="L" horiz-adv-x="696" 
d="M380 17h36q87 0 139.5 50.5t107.5 177.5q5 12 9 16t9 3q2 0 3.5 -0.5t2.5 -0.5l-54 -279q-54 16 -203 16h-393v7q0 7 15.5 10.5t33.5 7t33.5 24t15.5 56.5v474q0 31 -15 48t-33 20.5t-33 7.5t-15 11v7h356v-7q0 -7 -15.5 -11t-33.5 -7t-33.5 -20.5t-15.5 -47.5
q0 -80 -0.5 -241.5t-0.5 -242.5q0 -39 18.5 -59t65.5 -20z" />
    <glyph glyph-name="M" unicode="M" horiz-adv-x="978" 
d="M698 674h253v-9q0 -7 -16 -10.5t-35 -7t-34.5 -22t-14.5 -50.5l9 -472q1 -35 16.5 -55t33.5 -23.5t33 -7t15 -11.5v-6h-348v6q0 8 14 12t31.5 7.5t31.5 25t14 61.5q0 153 -9 494h-3l-168 -408l58 -127l-17 -9q-57 70 -175 72q-55 119 -97.5 208.5t-62 129.5t-32 66.5
t-17.5 36.5t-10 22h-3l-9 -469q-1 -44 17.5 -69t40.5 -30.5t40.5 -10t18.5 -12.5v-6h-253v6q0 6 18 11t39.5 11t40 34t19.5 75l10 438q1 32 -14.5 50.5t-34.5 22t-35 7.5t-16 11v8h249l213 -457q40 96 102.5 248t86.5 209z" />
    <glyph glyph-name="N" unicode="N" horiz-adv-x="815" 
d="M294 674l360 -453l1 1v305q0 102 -75 121q-5 1 -14 3t-13 3t-9 3t-7 4t-2 5v7h257v-7q0 -3 -2 -5t-6.5 -3.5t-8.5 -2.5t-11.5 -3t-12.5 -3q-38 -10 -58 -36.5t-20 -85.5v-547l-21 -6l-492 616v-446q0 -53 16.5 -79t51.5 -39q9 -3 24 -6.5t21.5 -6.5t6.5 -7v-6h-256v6
q0 6 18.5 11t40.5 12.5t40.5 36.5t18.5 78v430q0 32 -15 50.5t-33.5 22t-33.5 8t-15 11.5v8h249z" />
    <glyph glyph-name="O" unicode="O" horiz-adv-x="808" 
d="M43 337q0 148 98 248.5t261 100.5q116 0 200 -49.5t123.5 -126.5t39.5 -171q0 -145 -98 -248t-266 -103q-171 0 -264.5 100t-93.5 249zM227 337q0 -333 179 -333q64 0 104.5 47t55.5 117t15 165q0 336 -179 336q-47 0 -82.5 -28.5t-55 -77t-28.5 -105t-9 -121.5z" />
    <glyph glyph-name="P" unicode="P" horiz-adv-x="681" 
d="M127 103v474q0 33 -15 51t-32.5 20.5t-32.5 6.5t-15 12v7h340q129 0 209 -50t80 -148q0 -70 -41 -118t-101.5 -68.5t-135.5 -20.5q-53 0 -94 7q0 -29 0.5 -87t0.5 -87q0 -35 15 -54.5t32.5 -23t32.5 -7t15 -11.5v-6h-354v6q0 7 15 11t33 7.5t33 23.5t15 55zM289 656v-363
q12 -3 26 -3q81 0 126.5 49.5t45.5 134.5q0 84 -44 133t-112 49h-42z" />
    <glyph glyph-name="Q" unicode="Q" horiz-adv-x="808" 
d="M43 337q0 148 98 248.5t261 100.5q116 0 200 -49.5t123.5 -126.5t39.5 -171q0 -142 -93.5 -243t-253.5 -107q23 -19 64 -25t76 -1q10 -7 34.5 -25t39 -27t35.5 -21.5t40 -18t37 -5.5q32 0 70 29l10 -10q-33 -43 -78.5 -72.5t-83.5 -29.5q-66 0 -147 70t-121 135
q-168 2 -259.5 101.5t-91.5 247.5zM227 337q0 -333 179 -333q64 0 104.5 47t55.5 117t15 165q0 336 -179 336q-47 0 -82.5 -28.5t-55 -77t-28.5 -105t-9 -121.5z" />
    <glyph glyph-name="R" unicode="R" horiz-adv-x="767" 
d="M292 656v-319h34q73 0 114.5 44t41.5 115q0 70 -42.5 115t-113.5 45h-34zM310 321h-18v-219q0 -35 15 -54.5t33 -23t33 -7t15 -11.5v-6h-354v6q0 7 15 11t33 8t33 24t15 54v476q0 32 -15 49t-32.5 20t-32.5 7t-15 12v7h310q308 0 308 -177q0 -82 -74 -131t-206 -49
q-13 0 -41 2q25 -30 70.5 -40t118.5 -8l123 -182q22 -33 44.5 -50t36 -18.5t22 -4t8.5 -11.5v-5h-226z" />
    <glyph glyph-name="S" unicode="S" horiz-adv-x="620" 
d="M284 -12q-114 0 -183.5 41t-69.5 98q0 32 20 51t47 19q40 0 62 -27.5t22 -68.5q0 -42 -19 -74q45 -21 106 -21q69 0 117 35t48 95q0 44 -39 80t-94.5 62.5t-111 53.5t-94.5 68t-39 93q0 94 74.5 143.5t186.5 49.5q104 0 167.5 -37t63.5 -91q0 -31 -18.5 -48.5
t-45.5 -17.5q-35 0 -58 23.5t-23 63.5q0 41 15 75q-37 13 -88 13q-52 0 -87.5 -29.5t-35.5 -78.5q0 -37 39.5 -68.5t95.5 -57t112 -54.5t95.5 -75t39.5 -104q0 -102 -85.5 -157t-219.5 -55z" />
    <glyph glyph-name="T" unicode="T" horiz-adv-x="684" 
d="M341 674q207 0 305 22l27 -246q-2 -1 -5 -1q-11 0 -17 18q-37 105 -80.5 147t-123.5 42h-26q0 -92 0.5 -277t0.5 -277q0 -35 15.5 -54.5t33.5 -23t33.5 -7t15.5 -11.5v-6h-356v6q0 7 15 11t33 7.5t33 23.5t15 55v553h-25q-80 0 -123.5 -42t-80.5 -147q-6 -18 -17 -18
q-3 0 -5 1l27 246q98 -22 305 -22z" />
    <glyph glyph-name="U" unicode="U" horiz-adv-x="830" 
d="M695 544v-250q0 -150 -63.5 -228t-210.5 -78q-146 0 -224.5 63t-78.5 192v336q0 31 -14 48t-31.5 20.5t-31.5 7.5t-14 11v7h350v-7q0 -8 -15 -12.5t-33.5 -9t-33.5 -27.5t-15 -63v-321q0 -108 41 -163.5t149 -55.5q95 0 150.5 67.5t55.5 190.5v272q0 44 -19 69.5
t-41 30.5t-41 10t-19 12v7h257v-7q0 -7 -18.5 -11.5t-40.5 -10t-40.5 -31t-18.5 -69.5z" />
    <glyph glyph-name="V" unicode="V" horiz-adv-x="741" 
d="M430 186l3 -1l132 351q13 32 13 58q0 24 -14 37.5t-31.5 16t-31.5 6.5t-14 12v8h246v-8q0 -7 -15 -11.5t-36 -11.5t-49 -38t-49 -84l-207 -528q-4 -1 -13 -2t-13 -2l-246 595q-12 28 -29.5 44t-31.5 19.5t-24.5 8t-10.5 12.5v6h329v-7q0 -8 -19 -11.5t-37.5 -13
t-18.5 -30.5q0 -14 13 -44z" />
    <glyph glyph-name="W" unicode="W" horiz-adv-x="1078" 
d="M804 212h2l110 347q10 34 10 44q0 20 -14.5 32t-32.5 14.5t-32.5 6t-14.5 10.5v8h238v-7q0 -8 -15 -11.5t-35 -7t-43.5 -25.5t-36.5 -61l-191 -571q-8 0 -24 -2l-199 536h-3l-185 -534q-16 -2 -24 -2l-215 594q-13 37 -37 53t-40.5 19.5t-16.5 11.5v7h326v-7
q0 -7 -12 -10.5t-26 -5.5t-26 -12t-12 -27q2 -24 6 -34l132 -372h2l125 367q6 19 6 32q0 18 -13 28t-29 13t-29 8t-13 13v7h288v-6q0 -9 -11.5 -13t-25 -5.5t-25 -11t-11.5 -27.5q0 -11 8 -32z" />
    <glyph glyph-name="X" unicode="X" horiz-adv-x="751" 
d="M431 108l-114 180l-85 -123q-52 -73 -52 -99q0 -18 13 -28.5t29 -13t29 -6.5t13 -12v-6h-257v6q0 6 9 9.5t27 8.5t39.5 15t50.5 36t57 65l117 163l-160 254q-29 46 -60 69.5t-46.5 29t-15.5 11.5v6h352v-6q0 -9 -18.5 -13t-37 -13t-18.5 -29q0 -18 30 -65l90 -140l80 121
q37 56 37 82q0 21 -18.5 30t-37 13t-18.5 13v7h253v-6q0 -7 -9.5 -10.5t-29 -10t-43 -18t-55.5 -41t-63 -72.5l-86 -123l187 -292q26 -41 57 -59.5t48.5 -22.5t17.5 -12v-6h-369v6q0 7 18 12.5t36.5 16t18.5 30.5q0 18 -16 43z" />
    <glyph glyph-name="Y" unicode="Y" horiz-adv-x="704" 
d="M418 326l4 1l103 211q19 38 19 59q0 28 -23 40.5t-46 16.5t-23 12v7h247v-7q0 -8 -14 -12t-34.5 -9t-48.5 -29.5t-49 -66.5l-125 -244v-203q0 -35 15.5 -54.5t34 -23t34 -7t15.5 -11.5v-6h-356v6q0 7 15 11t32.5 7.5t32.5 23.5t15 55v176l-165 304q-15 27 -34 43.5
t-32.5 20.5t-23 8.5t-9.5 11.5v6h342v-7q0 -8 -19.5 -11.5t-39 -13t-19.5 -29.5q0 -13 10 -30z" />
    <glyph glyph-name="Z" unicode="Z" horiz-adv-x="691" 
d="M440 655h-130q-95 0 -141 -39t-85 -147q-6 -17 -17 -17h-5l35 249q85 -27 215 -27h321v-17q-49 -76 -412 -640h160q100 0 153 46.5t109 184.5q11 18 19 19h5l-57 -290q-77 23 -201 23h-389v15z" />
    <glyph glyph-name="bracketleft" unicode="[" horiz-adv-x="305" 
d="M70 -186v915h205v-17h-88v-882h88v-16h-205z" />
    <glyph glyph-name="backslash" unicode="\" horiz-adv-x="311" 
d="M270 -58l-270 785h38l271 -785h-39z" />
    <glyph glyph-name="bracketright" unicode="]" horiz-adv-x="305" 
d="M235 729v-915h-205v16h88v882h-88v17h205z" />
    <glyph glyph-name="asciicircum" unicode="^" horiz-adv-x="559" 
d="M501 359h-46l-177 289l-176 -289h-44q26 43 206 335h30z" />
    <glyph glyph-name="underscore" unicode="_" horiz-adv-x="500" 
d="M500 -104h-500v34h500v-34z" />
    <glyph glyph-name="grave" unicode="`" horiz-adv-x="537" 
d="M354 520l-5 -12q-103 25 -157 70t-54 76q0 18 13 31.5t37 13.5q18 0 29 -9.5t20.5 -27.5t21 -39t36.5 -49.5t59 -53.5z" />
    <glyph glyph-name="a" unicode="a" horiz-adv-x="539" 
d="M267 451q61 0 102.5 -15.5t61.5 -44.5t27.5 -58.5t7.5 -67.5v-179q0 -37 10 -48.5t43 -12.5q0 -2 0.5 -6.5t0.5 -6.5q-39 -23 -97 -23q-87 0 -95 65h-4q-63 -67 -167 -67q-55 0 -91 28t-36 80q0 43 21.5 75t57.5 49t76 25t85 8q28 0 54 -3v65q0 119 -87 119
q-37 0 -66 -18q26 -26 26 -65q0 -30 -21 -50.5t-54 -20.5q-25 0 -39 14.5t-14 37.5q0 45 47.5 82.5t150.5 37.5zM237 31q51 0 87 44v158q-3 0 -9 0.5t-9 0.5q-70 0 -101 -31t-31 -82q0 -41 17 -65.5t46 -24.5z" />
    <glyph glyph-name="b" unicode="b" horiz-adv-x="602" 
d="M73 -19v644q0 26 -11 40.5t-24 16.5t-24 5t-11 9v8l207 27l5 -4v-196q0 -96 -19 -153q1 0 2 -0.5t2 -0.5q56 73 160 73q84 0 146 -57.5t62 -167.5q0 -97 -57 -166.5t-159 -69.5q-100 0 -152 56q-64 -18 -114 -64h-13zM303 413q-51 0 -94 -47v-310q44 -39 96 -39
q57 0 83.5 48.5t26.5 151.5q0 196 -112 196z" />
    <glyph glyph-name="c" unicode="c" horiz-adv-x="476" 
d="M293 452q87 0 124 -32t37 -73q0 -26 -16.5 -43.5t-41.5 -17.5q-32 0 -48.5 20.5t-16.5 50.5q0 37 21 68q-12 3 -27 3q-63 0 -101.5 -53t-38.5 -145q0 -97 40 -147t117 -50q64 0 112 28l5 -13q-75 -61 -185 -61q-116 0 -178.5 61t-62.5 163q0 104 70 172.5t190 68.5z" />
    <glyph glyph-name="d" unicode="d" horiz-adv-x="611" 
d="M534 728l1 -637q0 -27 11 -42t23.5 -17t23.5 -5.5t11 -10.5v-7q-33 -5 -99 -11.5t-99 -11.5q-1 0 -3 2l-3 3q6 54 8 81h-2l-2 1q-28 -43 -72 -64.5t-91 -21.5q-104 0 -156 60t-52 163q0 114 63 178t160 64q80 0 131 -35l5 1v208q0 27 -10.5 41.5t-23 16.5t-23 5.5
t-10.5 10.5v8l203 25zM187 220q0 -93 27 -142.5t80 -49.5q56 0 98 53v315q-41 29 -93 29q-112 0 -112 -205z" />
    <glyph glyph-name="e" unicode="e" horiz-adv-x="527" 
d="M499 250l-8 -8h-308q0 -206 156 -206q74 0 143 49l8 -8q-74 -89 -203 -89q-121 0 -187.5 64t-66.5 166q0 100 68 166.5t181 66.5q98 0 157.5 -58t59.5 -143zM278 436q-42 0 -66 -49t-28 -128l179 7v27q0 56 -21 99.5t-64 43.5z" />
    <glyph glyph-name="f" unicode="f" horiz-adv-x="345" 
d="M319 739q36 0 62.5 -19t26.5 -54q0 -26 -17 -42.5t-45 -16.5q-34 0 -55.5 24t-21.5 62q0 6 2 20q-43 -14 -43 -91v-186h108v-16h-107v-341q0 -27 11.5 -41t25.5 -16t25.5 -5t11.5 -10v-7h-283v7q0 7 10.5 10.5t23 5.5t23 17.5t10.5 44.5v335h-66v14l67 6v16q4 116 50 181
q73 102 181 102z" />
    <glyph glyph-name="g" unicode="g" horiz-adv-x="548" 
d="M499 402q-23 0 -44.5 16.5t-26.5 52.5q-28 -10 -55 -40q53 -21 80 -60.5t27 -88.5q0 -71 -58.5 -121t-163.5 -50q-76 0 -128 26q-21 -7 -37 -22t-16 -27q0 -20 46.5 -26.5t112.5 -8t132 -7.5t112.5 -33.5t46.5 -78.5q0 -66 -73.5 -114t-202.5 -48q-118 0 -177 38t-59 92
q0 30 18.5 51t45.5 21q32 0 46.5 -21t14.5 -46q0 -61 -46 -87q14 -12 52.5 -21t75.5 -9q65 0 102.5 38.5t37.5 90.5q0 41 -50.5 61t-111.5 22.5t-111.5 16.5t-50.5 45q0 19 20.5 41.5t56.5 37.5v3q-74 42 -74 128q0 76 58.5 127t159.5 51q53 0 101 -15q23 31 56.5 50
t64.5 19q28 0 48.5 -13t20.5 -44q0 -21 -15.5 -34t-35.5 -13zM182 280q0 -156 80 -156q76 0 76 159q0 154 -78 154q-41 0 -59.5 -45t-18.5 -112z" />
    <glyph glyph-name="h" unicode="h" horiz-adv-x="609" 
d="M521 317v-238q0 -26 10.5 -40t23 -16t23 -5.5t10.5 -10.5v-7h-266v7q0 8 14 10.5t28.5 16.5t14.5 51v250q0 35 -15.5 52.5t-41.5 17.5q-28 0 -56 -14t-41 -40v-272q0 -27 9 -41t20 -16t20 -5t9 -10v-7h-267v7q0 7 10.5 10.5t23 5.5t23 17.5t10.5 44.5v540q0 27 -10.5 42
t-23.5 17t-23.5 5.5t-10.5 10.5v8l205 25q4 -4 5 -6v-250q0 -66 -18 -116q1 0 2.5 -0.5t2.5 -0.5q56 90 175 90q55 0 94.5 -32.5t39.5 -100.5z" />
    <glyph glyph-name="i" unicode="i" horiz-adv-x="337" 
d="M102 83v260q0 27 -11 41.5t-23.5 16.5t-23.5 5.5t-11 10.5v8l205 26l5 -5v-368q0 -33 16.5 -45.5t33.5 -15t17 -10.5v-7h-274v7q0 8 16.5 10.5t33 16.5t16.5 49zM169 695q33 0 56.5 -23t23.5 -55q0 -34 -23 -57.5t-57 -23.5t-56.5 23.5t-22.5 57.5q0 32 23 55t56 23z" />
    <glyph glyph-name="j" unicode="j" horiz-adv-x="304" 
d="M4 -228q-33 0 -59 17t-26 49q0 23 18.5 40.5t44.5 17.5q38 0 58.5 -29t18.5 -72q36 14 36 73v475q0 27 -11.5 41.5t-25 16.5t-25 5.5t-11.5 10.5v8l209 27l5 -6v-419q0 -125 -71 -187q-28 -29 -72 -48.5t-89 -19.5zM162 695q34 0 57 -23t23 -55q0 -34 -23 -57.5
t-57 -23.5q-33 0 -56 23.5t-23 57.5q0 32 23 55t56 23z" />
    <glyph glyph-name="k" unicode="k" horiz-adv-x="595" 
d="M229 728v-496h45l87 92q37 39 37 58q0 12 -12 19.5t-27 9.5t-27 6.5t-12 10.5v8h242v-7q0 -8 -21.5 -12t-61 -20t-73.5 -52l-45 -48l118 -196q25 -42 54 -61t44 -22.5t15 -11.5v-6h-203q-83 141 -129 216h-31v-131q0 -28 10.5 -43t23 -18t23 -7t10.5 -11v-6h-281v6
q0 8 11 11.5t24.5 6t24.5 18.5t11 46v537q0 34 -17.5 47.5t-35.5 16t-18 9.5v7l209 27z" />
    <glyph glyph-name="l" unicode="l" horiz-adv-x="328" 
d="M93 83v542q0 27 -11 42t-24 17t-24 5.5t-11 10.5v7l208 26l5 -5v-650q0 -26 11 -40t24 -16t24 -5t11 -10v-7h-280v7q0 8 16.5 10.5t33.5 16.5t17 49z" />
    <glyph glyph-name="m" unicode="m" horiz-adv-x="881" 
d="M319 7q0 7 8.5 10t19 5.5t19 18t8.5 44.5v252q0 67 -53 67q-58 0 -86 -53v-272q0 -27 8.5 -41t18 -16t18 -5t8.5 -10v-7h-261v7q0 8 16.5 10.5t33 16.5t16.5 51v256q0 27 -11 42t-23.5 17t-23.5 5.5t-11 10.5v7q32 5 98 14t98 14l3 -3t3 -2l-8 -85l2 -1h2q54 90 162 90
q41 0 76 -20t48 -61q53 82 153 82q56 0 95 -32.5t39 -101.5v-238q0 -33 16.5 -46t32.5 -15.5t16 -10.5v-7h-259v7q0 8 13.5 10.5t26.5 16.5t13 51v253q0 32 -14 49.5t-36 17.5q-60 0 -90 -53q1 -10 1 -33v-240q0 -26 8.5 -40t19 -16t19 -5.5t8.5 -10.5v-7h-251v7z" />
    <glyph glyph-name="n" unicode="n" horiz-adv-x="620" 
d="M531 315v-236q0 -26 10.5 -40t23 -16t23 -5.5t10.5 -10.5v-7h-265v7q0 8 14.5 10.5t28.5 16.5t14 51v251q0 35 -16 52.5t-42 17.5q-28 0 -55 -13.5t-41 -39.5v-274q0 -27 9 -41t20 -16t20 -5t9 -10v-7h-267v7q0 7 10.5 10.5t23 5.5t23 17.5t10.5 44.5v256q0 27 -11 42
t-23.5 17t-23.5 5.5t-11 10.5v7q33 5 99 14t99 14l3 -3t3 -2q-6 -54 -8 -81q1 0 2 -0.5t2 -0.5q54 85 160 85q62 0 104 -31.5t42 -102.5z" />
    <glyph glyph-name="o" unicode="o" horiz-adv-x="586" 
d="M33 221q0 99 69 165t190 66q129 0 195 -65.5t66 -164.5q0 -98 -69 -166.5t-192 -68.5q-126 0 -192.5 67t-66.5 167zM188 221q0 -220 106 -220q56 0 80.5 62t24.5 155q0 218 -106 218q-55 0 -80 -63.5t-25 -151.5z" />
    <glyph glyph-name="p" unicode="p" horiz-adv-x="616" 
d="M430 216q0 93 -27.5 143.5t-80.5 50.5q-27 0 -54.5 -14t-43.5 -37v-316q43 -29 93 -29q59 0 86 55.5t27 146.5zM373 452q99 0 154.5 -61.5t55.5 -163.5q0 -115 -63 -177.5t-160 -62.5q-80 0 -132 35l-5 -1v-156q0 -27 9.5 -41t21 -16t21 -5t9.5 -10v-7h-268v7
q0 8 16.5 10.5t33 16.5t16.5 51v471q0 27 -10.5 41.5t-23.5 16.5t-23.5 5.5t-10.5 10.5v8l193 27l5 -5l-8 -81l5 -1q59 88 164 88z" />
    <glyph glyph-name="q" unicode="q" horiz-adv-x="596" 
d="M394 48h-2q-58 -61 -153 -61q-86 0 -145.5 56.5t-59.5 166.5q0 102 58.5 170t162.5 68q88 0 144 -53q68 15 122 62h13q0 -97 0.5 -291t0.5 -290q0 -34 17 -49.5t34 -19.5t17 -11v-7h-280v7q0 6 11 10t24.5 8t24.5 20t11 44v170zM296 22q51 0 95 50v308q-43 39 -93 39
q-112 0 -112 -204q0 -193 110 -193z" />
    <glyph glyph-name="r" unicode="r" horiz-adv-x="455" 
d="M101 83v263q0 33 -18 45.5t-36 15t-18 11.5v7l198 27l5 -6l-8 -107l4 -1q59 114 141 114q35 0 59 -19.5t24 -50.5q0 -27 -18.5 -43.5t-45.5 -16.5q-32 0 -56.5 23.5t-23.5 61.5q-39 -22 -65 -77v-251q0 -33 18 -45.5t36 -15t18 -10.5v-8h-281v8q0 7 10.5 10t23 5.5
t23 17.5t10.5 42z" />
    <glyph glyph-name="s" unicode="s" horiz-adv-x="464" 
d="M46 314q0 65 52.5 101.5t138.5 36.5q81 0 127.5 -26.5t46.5 -69.5q-1 -25 -16.5 -39t-36.5 -14q-29 0 -47 19t-18 49q0 31 12 56q-22 8 -45 8q-35 0 -59.5 -19.5t-24.5 -59.5q0 -25 27 -45.5t65 -36.5t76 -34t65 -48.5t27 -69.5q0 -66 -62 -100.5t-154 -34.5
q-89 0 -140 28.5t-51 70.5q0 26 16.5 40t38.5 14q32 0 50 -21t18 -52q0 -29 -14 -53q25 -11 62 -11q41 0 69 22t28 63q0 27 -26 48.5t-63 37.5t-73.5 33t-62.5 44.5t-26 62.5z" />
    <glyph glyph-name="t" unicode="t" horiz-adv-x="354" 
d="M350 36q-71 -48 -155 -48q-69 0 -95.5 31.5t-26.5 89.5v310h-60v15l64 6q40 10 76 60.5t45 97.5h17v-162h122v-17h-122v-319q0 -71 58 -71q30 0 72 19z" />
    <glyph glyph-name="u" unicode="u" horiz-adv-x="617" 
d="M526 448v-357q0 -27 11 -42t23.5 -17t23.5 -5.5t11 -10.5v-7q-33 -5 -99 -11.5t-99 -11.5q-1 0 -3 2l-3 3q6 54 8 81h-2l-2 1q-28 -43 -72 -64t-92 -21q-59 0 -99.5 32t-40.5 103v222q0 27 -10.5 41.5t-23 16.5t-23 5.5t-10.5 10.5v8l203 25l6 -6v-343q0 -74 63 -74
q24 0 48 16t40 43v258q0 34 -16.5 47.5t-33 16t-16.5 11.5v7l203 25z" />
    <glyph glyph-name="v" unicode="v" horiz-adv-x="558" 
d="M304 436v-7q0 -8 -17 -11t-33.5 -11t-16.5 -27q0 -12 10 -35l89 -195h2l70 168q14 32 14 53q0 24 -17 34t-34 13t-17 10v8h196v-6q0 -7 -12 -11t-28.5 -8.5t-40 -28t-41.5 -63.5l-148 -328h-12l-176 355q-14 28 -30.5 44.5t-28 20.5t-19.5 8t-8 10v7h298z" />
    <glyph glyph-name="w" unicode="w" horiz-adv-x="796" 
d="M312 160l64 177q9 24 9 39t-9.5 23.5t-20.5 11t-20.5 7.5t-9.5 13v5h242v-7q0 -6 -9 -9t-19.5 -4.5t-19.5 -9.5t-9 -22q0 -18 9 -39l78 -183h2l53 153q16 45 16 58q0 22 -17 32t-34 13t-17 10v8h192v-8q0 -6 -12.5 -9.5t-29.5 -7t-38 -24.5t-35 -58l-130 -338
q-10 -2 -16 -2q-83 184 -142 324h-2l-128 -323q-3 0 -8.5 -0.5t-8.5 -0.5l-150 355q-12 29 -28 46t-28 21t-20.5 8t-8.5 11v6h285v-8q0 -6 -9.5 -9.5t-21.5 -5.5t-21.5 -11t-9.5 -25q0 -11 9 -34l71 -183h2z" />
    <glyph glyph-name="x" unicode="x" horiz-adv-x="573" 
d="M274 347l60 -87l47 68q27 40 27 56q0 14 -9.5 21.5t-21.5 9t-21.5 4.5t-9.5 9v8h199v-7q0 -7 -19 -11t-56 -25.5t-70 -67.5l-57 -78l114 -163q23 -33 50 -49t42.5 -19.5t15.5 -9.5v-6h-312v6q0 6 30.5 13t30.5 24t-25 52l-63 91l-63 -91q-19 -27 -19 -44t16 -24.5
t31.5 -10.5t15.5 -9v-7h-199v5q0 5 7 7.5t20.5 6.5t30 11.5t40 27.5t45.5 51l66 90l-116 166q-19 28 -40 40.5t-31.5 15.5t-10.5 8v7h293v-7q0 -7 -28 -14.5t-28 -28.5q0 -13 18 -39z" />
    <glyph glyph-name="y" unicode="y" horiz-adv-x="552" 
d="M88 -224q-40 0 -63 19t-23 51q0 26 19.5 43.5t46.5 17.5q37 0 61 -26.5t29 -60.5q44 24 96 136l14 36h-13l-169 353q-13 27 -29.5 43.5t-28.5 20t-20 8t-8 11.5v7h298v-8q0 -6 -10.5 -10t-22.5 -6t-22.5 -11t-10.5 -24q0 -12 9 -33l91 -200h2l69 182q12 30 12 46
q0 19 -11 29t-23.5 12t-23.5 5.5t-11 9.5v8h200v-7q0 -5 -13 -9t-31 -10.5t-42.5 -33.5t-42.5 -71l-147 -354q-72 -174 -182 -174z" />
    <glyph glyph-name="z" unicode="z" horiz-adv-x="496" 
d="M290 419h-51q-67 0 -102 -25.5t-73 -105.5q-8 -17 -15 -17q-2 0 -4 0.5t-3 0.5l28 179q45 -16 164 -16h224v-14q-45 -68 -135.5 -203t-135.5 -203h77q75 0 114 30t77 121q10 20 15 20q1 0 3.5 -0.5t3.5 -0.5l-38 -202q-68 17 -178 17h-245v12q182 272 274 407z" />
    <glyph glyph-name="braceleft" unicode="{" horiz-adv-x="369" 
d="M246 137v-208q0 -44 18.5 -70t74.5 -29v-14q-209 -16 -209 165v186q0 39 -4 62t-22.5 43.5t-53.5 24.5v16q53 10 66.5 38t13.5 92v112q0 86 50 133.5t159 39.5v-15q-31 -1 -51 -11t-28.5 -28t-11 -33t-2.5 -38v-123q0 -162 -146 -172v-4q75 -5 110.5 -46.5t35.5 -120.5z
" />
    <glyph glyph-name="bar" unicode="|" horiz-adv-x="318" 
d="M180 -141h-42v885h42v-885z" />
    <glyph glyph-name="braceright" unicode="}" horiz-adv-x="369" 
d="M123 -71v208q0 79 35.5 120.5t110.5 46.5v4q-146 10 -146 172v123q0 23 -2.5 38t-11 33t-28.5 28t-51 11v15q109 8 159 -39.5t50 -133.5v-112q0 -33 2 -50.5t9 -36t24 -28t45 -15.5v-16q-50 -6 -65 -38.5t-15 -91.5v-186q0 -181 -209 -165v14q56 3 74.5 29t18.5 70z" />
    <glyph glyph-name="asciitilde" unicode="~" 
d="M511 361l14 -3q-12 -59 -48 -100.5t-96 -41.5q-35 0 -100.5 17t-93.5 17q-78 0 -107 -53l-14 4q4 28 16.5 57t44.5 56t75 27q29 0 104 -18.5t103 -18.5q35 0 59 12.5t43 44.5z" />
    <glyph glyph-name="exclamdown" unicode="&#xa1;" horiz-adv-x="326" 
d="M156 244h17l72 -410q7 -40 -12.5 -70.5t-69.5 -30.5t-71.5 32t-12.5 66zM93 378q0 29 21 50.5t50 21.5q30 0 51 -21.5t21 -50.5q0 -30 -21 -51t-51 -21q-29 0 -50 21t-21 51z" />
    <glyph glyph-name="cent" unicode="&#xa2;" 
d="M497 144l7 -12q-73 -58 -192 -59l-11 -108h-20l12 109q-102 7 -157.5 66t-55.5 153q0 104 70 171t191 67l12 101h19q-8 -68 -11 -102q74 -4 107.5 -34t33.5 -65q0 -23 -15 -40.5t-38 -17.5q-30 0 -45 20t-15 49q0 33 18 64q-19 6 -48 6l-42 -390q25 -7 54 -7q61 0 126 29
zM221 301q0 -136 78 -169q26 250 40 376q-55 -11 -86.5 -67t-31.5 -140z" />
    <glyph glyph-name="sterling" unicode="&#xa3;" 
d="M344 669q79 0 126.5 -32.5t47.5 -76.5q0 -29 -17 -46t-42 -17q-35 0 -51.5 22.5t-16.5 55.5q0 39 16 69q-16 5 -46 5q-58 0 -89.5 -38t-31.5 -96q0 -64 36 -175h185v-19h-182q4 -19 4 -41q-1 -52 -28 -98.5t-74 -74.5l1 -4h211q39 0 64 5.5t42 22.5t25.5 31.5t23.5 47.5
q5 10 11 9l5 -1l-55 -218h-456v16q134 97 134 178q0 48 -41 127h-105v19h93q-39 66 -39 120q0 101 72.5 155t176.5 54z" />
    <glyph glyph-name="currency" unicode="&#xa4;" 
d="M298 99q-53 0 -110 34l-61 -58l-40 39l60 59q-37 53 -37 110q0 53 37 107l-60 58q13 15 41 43q7 -6 19 -18t22.5 -22t19.5 -18q58 34 109 34q58 0 107 -30l59 54q5 -5 19.5 -18.5t22.5 -22.5q-8 -9 -17.5 -18.5t-21.5 -21t-18 -17.5q35 -62 35 -109q0 -54 -36 -109
l59 -58l-41 -43l-60 60q-53 -35 -108 -35zM298 406q-52 0 -88.5 -35.5t-36.5 -86.5q0 -52 36.5 -89t88.5 -37t88.5 37t36.5 89q0 51 -36.5 86.5t-88.5 35.5z" />
    <glyph glyph-name="yen" unicode="&#xa5;" 
d="M34 234h517v-18h-189v-129q0 -30 12 -46t27 -18.5t27 -6t12 -10.5v-6h-308v6q0 8 12.5 11.5t27 6t27 18.5t12.5 46v128h-177v18zM551 294h-517v18h163l-123 251q-15 31 -32.5 49.5t-29.5 21.5t-20 7.5t-8 12.5v5h303v-6q0 -8 -10 -11.5t-21.5 -5t-21.5 -8t-10 -20.5
q0 -16 11 -38l116 -239h3l105 232q11 25 11 41q0 19 -16 26t-32 10t-16 13v6h190v-6q0 -8 -12.5 -11.5t-29.5 -6t-38.5 -20.5t-37.5 -52l-115 -251h188v-18z" />
    <glyph glyph-name="brokenbar" unicode="&#xa6;" horiz-adv-x="318" 
d="M181 383h-42v361h42v-361zM139 272h42v-413h-42v413z" />
    <glyph glyph-name="section" unicode="&#xa7;" horiz-adv-x="598" 
d="M190 621l-4 4q-62 -50 -62 -119q0 -46 31.5 -97t76 -96.5t89 -91.5t76 -97t31.5 -96q0 -47 -36 -92l4 -6q85 47 85 131q0 38 -15 75.5t-50.5 81.5t-57.5 67.5t-71 72.5q-34 34 -55.5 59t-41.5 64t-20 75t20 65zM340 -25q0 34 -29 75.5t-70.5 83t-83 86t-70.5 97.5
t-29 103q0 116 78.5 194.5t215.5 78.5q69 0 113.5 -28.5t44.5 -76.5q0 -28 -16.5 -44.5t-41.5 -16.5q-34 0 -53.5 23t-19.5 58t14 60q-16 4 -37 4q-43 0 -69.5 -20t-26.5 -60q0 -37 30 -75.5t72.5 -74t85 -75.5t72.5 -97t30 -121q0 -50 -19 -96.5t-56 -86t-99 -63
t-141 -23.5q-67 0 -108 29t-41 76q0 29 18.5 46.5t41.5 17.5q35 0 55 -24t20 -60q0 -31 -16 -63q18 -3 35 -3q42 0 71 20t29 56z" />
    <glyph glyph-name="dieresis" unicode="&#xa8;" horiz-adv-x="537" 
d="M172 668q28 0 47.5 -19.5t19.5 -46.5q0 -28 -19.5 -48t-47.5 -20t-47.5 20t-19.5 48q0 27 19.5 46.5t47.5 19.5zM369 668q28 0 48 -19.5t20 -46.5q0 -28 -19.5 -48t-48.5 -20q-28 0 -47 19.5t-19 48.5q0 27 19 46.5t47 19.5z" />
    <glyph glyph-name="copyright" unicode="&#xa9;" horiz-adv-x="835" 
d="M423 576q68 0 125 -35q4 5 10 17.5t10 17.5h10v-152h-4q-9 0 -14 14t-11 33.5t-16.5 39.5t-37 34t-65.5 14q-125 0 -125 -224q0 -208 128 -208q52 0 84 25t40 54.5t15 54.5t15 25h5v-175h-9l-24 39q-69 -41 -141 -41q-107 0 -170.5 64t-63.5 164q0 101 66 170t173 69z
M418 22q140 0 233.5 94t93.5 230t-93.5 230.5t-233.5 94.5t-233.5 -94.5t-93.5 -230.5q0 -138 90 -231t237 -93zM418 -7q-163 0 -262.5 101t-99.5 252q0 148 103.5 251t258.5 103q154 0 257.5 -103t103.5 -251q0 -149 -103.5 -251t-257.5 -102z" />
    <glyph glyph-name="ordfeminine" unicode="&#xaa;" horiz-adv-x="377" 
d="M184 596q82 0 110 -35t28 -91v-112q0 -21 7 -27.5t30 -7.5q0 -3 0.5 -7t0.5 -7q-32 -17 -70 -17q-57 0 -69 39q-41 -40 -112 -40q-39 0 -64.5 19t-25.5 54q0 54 49.5 79t116.5 25q24 0 34 -1v38q0 73 -56 73q-22 0 -38 -9q14 -15 14 -40q0 -21 -13 -35.5t-38 -14.5
q-19 0 -29.5 10.5t-10.5 27.5q0 29 32 54t104 25zM163 326q34 0 56 27v97q-95 0 -95 -69q0 -25 10.5 -40t28.5 -15z" />
    <glyph glyph-name="guillemotleft" unicode="&#xab;" horiz-adv-x="475" 
d="M259 411l10 -9q-21 -33 -63 -97.5t-62 -97.5l123 -197l-11 -9l-184 168q-26 23 -26 39q0 17 25 39zM419 411l10 -9q-21 -33 -62.5 -97.5t-62.5 -97.5l123 -197l-11 -9l-184 168q-26 23 -26 39q0 17 25 39z" />
    <glyph glyph-name="logicalnot" unicode="&#xac;" 
d="M85 277v40h424v-235h-40v195h-384z" />
    <glyph glyph-name="sfthyphen" unicode="&#xad;" horiz-adv-x="326" 
d="M292 224h-258v45h258v-45z" />
    <glyph glyph-name="registered" unicode="&#xae;" horiz-adv-x="608" 
d="M294 598q130 0 130 -74q0 -32 -31 -52.5t-89 -20.5q-3 0 -9.5 0.5t-9.5 0.5q21 -18 61 -18q13 0 19 1l64 -88q8 -11 18.5 -15.5t16.5 -5.5t6 -5v-4h-98l-100 136h-3v-97q0 -20 17.5 -26t17.5 -9v-4h-139v4q0 4 18 9.5t18 25.5v203q0 15 -9 21t-18 8t-9 6v4h129zM269 590
v-129h12q32 0 51 18t19 46q0 31 -23 48t-52 17h-7zM304 193q-117 0 -188.5 73t-71.5 181q0 107 74 181.5t186 74.5t186.5 -74t74.5 -182q0 -106 -74.5 -180t-186.5 -74zM304 219q102 0 167 65.5t65 162.5t-66 163.5t-166 66.5t-165 -65.5t-65 -164.5q0 -98 64 -163t166 -65z
" />
    <glyph glyph-name="macron" unicode="&#xaf;" horiz-adv-x="543" 
d="M424 618l-3 -71q-123 10 -299 0l1 54q78 12 301 17z" />
    <glyph glyph-name="degree" unicode="&#xb0;" horiz-adv-x="397" 
d="M108 570q0 -39 26 -65.5t65 -26.5q38 0 64 26.5t26 65.5q0 40 -26 66.5t-64 26.5q-39 0 -65 -26.5t-26 -66.5zM77 570q0 52 35.5 88t86.5 36q50 0 85.5 -36t35.5 -88q0 -51 -35.5 -86t-85.5 -35q-51 0 -86.5 35t-35.5 86z" />
    <glyph glyph-name="plusminus" unicode="&#xb1;" 
d="M85 284v39h193v181h40v-181h191v-39h-191v-188h-40v188h-193zM85 45h424v-40h-424v40z" />
    <glyph glyph-name="twosuperior" unicode="&#xb2;" horiz-adv-x="382" 
d="M314 300h-309l-3 9q26 33 68 70.5t71 62t51 61t22 78.5q0 37 -22.5 61.5t-59.5 24.5q-16 0 -34 -5q23 -20 23 -50q0 -22 -13.5 -38t-36.5 -16q-21 0 -32.5 12.5t-11.5 29.5q0 29 34.5 58.5t106.5 29.5q82 0 119 -26.5t37 -66.5q0 -41 -39.5 -77.5t-123.5 -87.5
q-49 -29 -87 -65h140q61 0 83.5 11t41.5 48q5 11 13 9l4 -1z" />
    <glyph glyph-name="threesuperior" unicode="&#xb3;" horiz-adv-x="382" 
d="M218 513v-4q59 -4 95 -32t36 -70q0 -51 -48.5 -83t-123.5 -32q-71 0 -113.5 25.5t-42.5 64.5q0 27 25 43t62 20q1 -1 2.5 -2t2 -2t2 -2.5l2.5 -2.5q-10 -19 -10 -47q0 -34 15.5 -58t46.5 -24q37 0 53 27t16 67q0 48 -28.5 72t-76.5 24q-13 0 -33 -3l-3 14q63 14 92 37
t29 59q0 30 -19.5 47.5t-47.5 17.5q-15 0 -28 -5q16 -19 16 -45q0 -18 -14.5 -33t-36.5 -15q-21 0 -33 12t-12 28q0 27 32.5 52t103.5 25q77 0 113.5 -27.5t36.5 -61.5q0 -73 -111 -86z" />
    <glyph glyph-name="acute" unicode="&#xb4;" horiz-adv-x="537" 
d="M197 507l-6 12q42 31 70 67t37.5 59t23.5 38.5t36 15.5q23 0 36 -13t13 -32q0 -31 -53.5 -76t-156.5 -71z" />
    <glyph glyph-name="mu" unicode="&#xb5;" horiz-adv-x="626" 
d="M535 448v-357q0 -27 11 -42t23.5 -17t23.5 -5.5t11 -10.5v-7q-33 -5 -99 -11.5t-99 -11.5q-1 0 -3 2l-3 3q6 54 8 81h-2l-2 1q-27 -43 -73.5 -64t-95.5 -21v-123q0 -27 9.5 -41t20.5 -16t20.5 -5t9.5 -10v-7h-267v7q0 8 16.5 10.5t33 16.5t16.5 51l-1 474
q0 27 -10.5 41.5t-23 16.5t-23 5.5t-10.5 10.5v8l203 25l6 -6v-343q0 -36 18.5 -55t48.5 -19q25 0 50 16.5t41 42.5v258q0 34 -16.5 47.5t-33 16t-16.5 11.5v7l203 25z" />
    <glyph glyph-name="mu" unicode="&#x3bc;" horiz-adv-x="626" 
d="M535 448v-357q0 -27 11 -42t23.5 -17t23.5 -5.5t11 -10.5v-7q-33 -5 -99 -11.5t-99 -11.5q-1 0 -3 2l-3 3q6 54 8 81h-2l-2 1q-27 -43 -73.5 -64t-95.5 -21v-123q0 -27 9.5 -41t20.5 -16t20.5 -5t9.5 -10v-7h-267v7q0 8 16.5 10.5t33 16.5t16.5 51l-1 474
q0 27 -10.5 41.5t-23 16.5t-23 5.5t-10.5 10.5v8l203 25l6 -6v-343q0 -36 18.5 -55t48.5 -19q25 0 50 16.5t41 42.5v258q0 34 -16.5 47.5t-33 16t-16.5 11.5v7l203 25z" />
    <glyph glyph-name="paragraph" unicode="&#xb6;" horiz-adv-x="663" 
d="M263 674h363v-8q0 -8 -15 -11.5t-33.5 -5.5t-33.5 -18.5t-15 -47.5v-438q0 -38 -3 -74q-9 -118 -88.5 -189.5t-222.5 -71.5q-68 0 -108.5 29.5t-40.5 76.5q0 29 18.5 47t41.5 18q35 0 53.5 -24t18.5 -59q0 -37 -15 -67q5 -1 13 -1q34 0 57 17t34.5 49t16 67.5t4.5 82.5
v235h-45q-91 0 -149 57t-58 141q0 82 58.5 138.5t148.5 56.5zM390 656v-634q0 -141 -97 -180l2 -7q151 28 151 210v611h-56z" />
    <glyph glyph-name="periodcentered" unicode="&#xb7;" horiz-adv-x="261" 
d="M58 255q0 31 21 52t51 21q31 0 52 -21t21 -52q0 -30 -21 -51t-52 -21q-30 0 -51 21t-21 51z" />
    <glyph glyph-name="cedilla" unicode="&#xb8;" horiz-adv-x="479" 
d="M245 2l-26 -66q87 3 129.5 -23.5t42.5 -66.5q0 -41 -48.5 -71t-135.5 -30q-30 0 -50 2v16q68 0 101 24.5t33 51.5q0 25 -27.5 41t-79.5 17l45 108z" />
    <glyph glyph-name="onesuperior" unicode="&#xb9;" horiz-adv-x="342" 
d="M226 685v-335q0 -18 13 -25t26.5 -9t13.5 -9v-7h-209v6q0 7 13 10t26.5 11t13.5 26v255q0 21 -8.5 26.5t-36.5 4.5q-21 0 -22 7v7l165 37z" />
    <glyph glyph-name="ordmasculine" unicode="&#xba;" horiz-adv-x="405" 
d="M21 445q0 66 48 108.5t133 42.5q88 0 134.5 -43t46.5 -107t-48.5 -109t-133.5 -45q-88 0 -134 43.5t-46 109.5zM133 445q0 -137 70 -137q36 0 52 39t16 96q0 137 -69 137q-36 0 -52.5 -40t-16.5 -95z" />
    <glyph glyph-name="guillemotright" unicode="&#xbb;" horiz-adv-x="475" 
d="M46 402l10 9l188 -164q25 -22 25 -39q0 -16 -26 -39l-184 -168l-11 9l123 197q-20 32 -62.5 97t-62.5 98zM206 402l10 9l188 -164q25 -22 25 -39q0 -16 -26 -39l-184 -168l-11 9l123 197q-21 32 -62.5 97t-62.5 98z" />
    <glyph glyph-name="onequarter" unicode="&#xbc;" horiz-adv-x="813" 
d="M584 720l-354 -759h-25l355 759h24zM230 685v-335q0 -18 13 -25t26.5 -9t13.5 -9v-7h-209v6q0 7 13 10t26.5 11t13.5 26v255q0 21 -8.5 26.5t-36.5 4.5q-21 0 -22 7v7l165 37zM697 120h59v-15h-59v-55q0 -18 13 -25t26 -9.5t13 -9.5v-6h-209v5q0 7 13 10.5t26.5 11
t13.5 25.5v53h-189v12q75 94 170 264h124q-84 -120 -263 -261h158v88q54 12 99 41l2 -1h3v-128z" />
    <glyph glyph-name="onehalf" unicode="&#xbd;" horiz-adv-x="813" 
d="M559 720l-354 -759h-25l355 759h24zM224 685v-335q0 -18 13 -25t26.5 -9t13.5 -9v-7h-209v6q0 7 13 10t26.5 11t13.5 26v255q0 21 -8.5 26.5t-36.5 4.5q-21 0 -22 7v7l165 37zM726 0h-309l-3 9q26 33 68 70.5t71 62t51 61t22 78.5q0 37 -22.5 61.5t-59.5 24.5
q-16 0 -34 -5q23 -20 23 -50q0 -22 -13.5 -38t-36.5 -16q-21 0 -32.5 12.5t-11.5 29.5q0 29 34.5 58.5t106.5 29.5q82 0 119 -26.5t37 -66.5q0 -41 -39.5 -77.5t-123.5 -87.5q-49 -29 -87 -65h140q61 0 83.5 11t41.5 48q5 11 13 9l4 -1z" />
    <glyph glyph-name="threequarters" unicode="&#xbe;" horiz-adv-x="813" 
d="M620 720l-354 -759h-25l355 759h24zM234 513v-4q59 -4 95 -32t36 -70q0 -51 -48.5 -83t-123.5 -32q-71 0 -113.5 25.5t-42.5 64.5q0 27 25 43t62 20l9 -9q-10 -19 -10 -47q0 -34 15.5 -58t46.5 -24q37 0 53 27t16 67q0 48 -28.5 72t-76.5 24q-13 0 -33 -3l-3 14
q63 14 92 37t29 59q0 30 -19.5 47.5t-47.5 17.5q-15 0 -28 -5q16 -19 16 -45q0 -18 -14.5 -33t-36.5 -15q-21 0 -33 12t-12 28q0 27 32.5 52t103.5 25q77 0 113.5 -27.5t36.5 -61.5q0 -73 -111 -86zM717 120h59v-15h-59v-55q0 -18 13 -25t26 -9.5t13 -9.5v-6h-209v5
q0 7 13 10.5t26.5 11t13.5 25.5v53h-189v12q75 94 170 264h124q-84 -120 -263 -261h158v88q54 12 99 41l2 -1h3v-128z" />
    <glyph glyph-name="questiondown" unicode="&#xbf;" horiz-adv-x="548" 
d="M450 117q0 -29 -25 -60t-61 -57.5t-71.5 -53t-60.5 -56.5t-25 -59q0 -41 29.5 -61t71.5 -20q34 0 62 10q-18 31 -18 65q0 37 20.5 62.5t56.5 25.5q23 0 40 -16.5t17 -44.5q0 -53 -54 -87t-153 -34q-58 0 -104.5 11.5t-80.5 42.5t-34 80q0 40 26 78t63 66t74.5 54
t63.5 52.5t26 50.5q0 37 -48 77l7 14q84 -12 131 -50.5t47 -89.5zM379 377q0 -31 -21 -52t-50 -21q-30 0 -51.5 21t-21.5 52q0 29 21.5 50t51.5 21q29 0 50 -21t21 -50z" />
    <glyph glyph-name="Agrave" unicode="&#xc0;" horiz-adv-x="758" 
d="M483 115l-36 96h-250l-31 -86q-11 -27 -11 -46q0 -31 24 -44.5t48 -17t24 -11.5v-6h-246v6q0 7 15 11.5t36 9t45.5 28t40.5 65.5q27 72 82 216t82 217q9 24 9 40q0 23 -14.5 37t-32.5 17t-32.5 7.5t-14.5 11.5v8h217l217 -577q15 -40 39 -58.5t39.5 -22t15.5 -10.5v-6
h-320v6q0 7 17.5 10.5t34.5 13.5t17 32q0 11 -15 53zM325 543h-6l-116 -315h238zM443 745l-4 -13q-62 6 -110 21.5t-73 34.5t-37 35.5t-12 28.5q0 17 13.5 30.5t37.5 13.5q18 0 34 -14.5t29.5 -35.5t45.5 -50t76 -51z" />
    <glyph glyph-name="Aacute" unicode="&#xc1;" horiz-adv-x="758" 
d="M483 115l-36 96h-250l-31 -86q-11 -27 -11 -46q0 -31 24 -44.5t48 -17t24 -11.5v-6h-246v6q0 7 15 11.5t36 9t45.5 28t40.5 65.5q27 72 82 216t82 217q9 24 9 40q0 23 -14.5 37t-32.5 17t-32.5 7.5t-14.5 11.5v8h217l217 -577q15 -40 39 -58.5t39.5 -22t15.5 -10.5v-6
h-320v6q0 7 17.5 10.5t34.5 13.5t17 32q0 11 -15 53zM325 543h-6l-116 -315h238zM305 731l-4 12q44 23 76 52t46 49.5t30 35t34 14.5q24 0 37 -13t13 -30q0 -12 -12 -28.5t-37 -35.5t-73 -34.5t-110 -21.5z" />
    <glyph glyph-name="Acircumflex" unicode="&#xc2;" horiz-adv-x="758" 
d="M483 115l-36 96h-250l-31 -86q-11 -27 -11 -46q0 -31 24 -44.5t48 -17t24 -11.5v-6h-246v6q0 7 15 11.5t36 9t45.5 28t40.5 65.5q27 72 82 216t82 217q9 24 9 40q0 23 -14.5 37t-32.5 17t-32.5 7.5t-14.5 11.5v8h217l217 -577q15 -40 39 -58.5t39.5 -22t15.5 -10.5v-6
h-320v6q0 7 17.5 10.5t34.5 13.5t17 32q0 11 -15 53zM325 543h-6l-116 -315h238zM530 718l-164 88l-166 -87l-8 11l131 131q27 31 45 31q17 0 45 -31l125 -133z" />
    <glyph glyph-name="Atilde" unicode="&#xc3;" horiz-adv-x="758" 
d="M483 115l-36 96h-250l-31 -86q-11 -27 -11 -46q0 -31 24 -44.5t48 -17t24 -11.5v-6h-246v6q0 7 15 11.5t36 9t45.5 28t40.5 65.5q27 72 82 216t82 217q9 24 9 40q0 23 -14.5 37t-32.5 17t-32.5 7.5t-14.5 11.5v8h217l217 -577q15 -40 39 -58.5t39.5 -22t15.5 -10.5v-6
h-320v6q0 7 17.5 10.5t34.5 13.5t17 32q0 11 -15 53zM325 543h-6l-116 -315h238zM536 845l10 -3q-10 -46 -36 -76.5t-66 -30.5q-23 0 -79.5 16.5t-78.5 16.5q-51 0 -75 -41l-11 4q9 42 33.5 76.5t67.5 34.5q20 0 80 -18t85 -18q45 0 70 39z" />
    <glyph glyph-name="Adieresis" unicode="&#xc4;" horiz-adv-x="758" 
d="M483 115l-36 96h-250l-31 -86q-11 -27 -11 -46q0 -31 24 -44.5t48 -17t24 -11.5v-6h-246v6q0 7 15 11.5t36 9t45.5 28t40.5 65.5q27 72 82 216t82 217q9 24 9 40q0 23 -14.5 37t-32.5 17t-32.5 7.5t-14.5 11.5v8h217l217 -577q15 -40 39 -58.5t39.5 -22t15.5 -10.5v-6
h-320v6q0 7 17.5 10.5t34.5 13.5t17 32q0 11 -15 53zM325 543h-6l-116 -315h238zM272 870q28 0 47.5 -19.5t19.5 -46.5q0 -28 -19.5 -48t-47.5 -20t-47.5 20t-19.5 48q0 27 19.5 46.5t47.5 19.5zM469 870q28 0 48 -19.5t20 -46.5q0 -28 -19.5 -48t-48.5 -20q-28 0 -47 19.5
t-19 48.5q0 27 19 46.5t47 19.5z" />
    <glyph glyph-name="Aring" unicode="&#xc5;" horiz-adv-x="758" 
d="M483 115l-36 96h-250l-31 -86q-11 -27 -11 -46q0 -31 24 -44.5t48 -17t24 -11.5v-6h-246v6q0 7 15 11.5t36 9t45.5 28t40.5 65.5q27 72 82 216t82 217q9 24 9 40q0 23 -14.5 37t-32.5 17t-32.5 7.5t-14.5 11.5v8h217l217 -577q15 -40 39 -58.5t39.5 -22t15.5 -10.5v-6
h-320v6q0 7 17.5 10.5t34.5 13.5t17 32q0 11 -15 53zM325 543h-6l-116 -315h238zM370 702q-45 0 -76.5 30t-31.5 73t31.5 74.5t76.5 31.5q44 0 74.5 -31t30.5 -75q0 -43 -30.5 -73t-74.5 -30zM370 883q-32 0 -54.5 -23.5t-22.5 -54.5t22 -53.5t55 -22.5q30 0 51.5 22.5
t21.5 53.5q0 30 -22 54t-51 24z" />
    <glyph glyph-name="AE" unicode="&#xc6;" horiz-adv-x="1024" 
d="M642 343v-247q0 -39 18.5 -59t64.5 -20h14q84 0 140.5 51.5t106.5 172.5q7 19 17 19h3q3 -1 4 -1l-58 -280q-76 21 -196 21h-373v7q0 7 15 10.5t33.5 7.5t33.5 24t15 56v147h-237l-105 -152q-18 -26 -18 -44t23 -25.5t46.5 -11.5t23.5 -12v-7h-236v5q0 9 11 13.5t28.5 9
t47.5 29t61 66.5l352 481q-5 21 -21 32.5t-31.5 13.5t-28 5.5t-12.5 11.5v7h293q189 0 251 28q4 -36 9 -76.5t10 -88.5t8 -76q-4 -2 -8 -2q-7 0 -16 19q-43 104 -87.5 141t-133.5 37h-68v-295h55q38 0 60.5 19t27.5 42t11.5 42t16.5 19h5v-270h-6q-11 0 -16.5 20.5
t-9.5 44.5t-25 44.5t-58 20.5h-61zM480 576h-3l-222 -307h225v307z" />
    <glyph glyph-name="Ccedilla" unicode="&#xc7;" horiz-adv-x="694" 
d="M397 685q110 0 191 -29l29 46h15l9 -254h-5q-7 0 -11.5 8t-11.5 31q-60 180 -197 180q-98 0 -144.5 -92t-46.5 -250q0 -318 194 -318q158 0 214 202q1 5 3 12t3 11t2.5 9t2.5 8t2.5 7t2.5 6t3 3.5t3.5 2.5t3.5 1h6l-11 -288h-16l-26 47q-111 -40 -217 -40q-16 0 -23 1
l-21 -53q87 3 129.5 -23.5t42.5 -66.5q0 -41 -48.5 -71t-135.5 -30q-30 0 -50 2v16q68 0 101 24.5t33 51.5q0 25 -27.5 41t-79.5 17l38 93q-146 11 -228.5 103.5t-82.5 233.5q0 152 96.5 255t257.5 103z" />
    <glyph glyph-name="Egrave" unicode="&#xc8;" horiz-adv-x="700" 
d="M290 343v-247q0 -39 18.5 -59t64.5 -20h42q84 0 140.5 51.5t106.5 172.5q7 19 17 19h3q3 -1 4 -1l-58 -280q-76 21 -196 21h-401v7q0 7 15 10.5t33.5 7.5t33.5 24t15 56v473q0 32 -15 50t-33 20.5t-33 6.5t-15 12v7h321q189 0 251 28q4 -36 9 -76.5t10 -88.5t8 -76
q-4 -2 -8 -2q-7 0 -16 19q-43 104 -87.5 141t-133.5 37h-96v-295h83q38 0 60.5 19t27.5 42t11.5 42t16.5 19h5v-270h-6q-11 0 -16.5 20.5t-9.5 44.5t-25 44.5t-58 20.5h-89zM422 745l-4 -13q-62 6 -110 21.5t-73 34.5t-37 35.5t-12 28.5q0 17 13.5 30.5t37.5 13.5
q18 0 34 -14.5t29.5 -35.5t45.5 -50t76 -51z" />
    <glyph glyph-name="Eacute" unicode="&#xc9;" horiz-adv-x="700" 
d="M290 343v-247q0 -39 18.5 -59t64.5 -20h42q84 0 140.5 51.5t106.5 172.5q7 19 17 19h3q3 -1 4 -1l-58 -280q-76 21 -196 21h-401v7q0 7 15 10.5t33.5 7.5t33.5 24t15 56v473q0 32 -15 50t-33 20.5t-33 6.5t-15 12v7h321q189 0 251 28q4 -36 9 -76.5t10 -88.5t8 -76
q-4 -2 -8 -2q-7 0 -16 19q-43 104 -87.5 141t-133.5 37h-96v-295h83q38 0 60.5 19t27.5 42t11.5 42t16.5 19h5v-270h-6q-11 0 -16.5 20.5t-9.5 44.5t-25 44.5t-58 20.5h-89zM247 731l-4 12q44 23 76 52t46 49.5t30 35t34 14.5q24 0 37 -13t13 -30q0 -12 -12 -28.5t-37 -35.5
t-73 -34.5t-110 -21.5z" />
    <glyph glyph-name="Ecircumflex" unicode="&#xca;" horiz-adv-x="700" 
d="M290 343v-247q0 -39 18.5 -59t64.5 -20h42q84 0 140.5 51.5t106.5 172.5q7 19 17 19h3q3 -1 4 -1l-58 -280q-76 21 -196 21h-401v7q0 7 15 10.5t33.5 7.5t33.5 24t15 56v473q0 32 -15 50t-33 20.5t-33 6.5t-15 12v7h321q189 0 251 28q4 -36 9 -76.5t10 -88.5t8 -76
q-4 -2 -8 -2q-7 0 -16 19q-43 104 -87.5 141t-133.5 37h-96v-295h83q38 0 60.5 19t27.5 42t11.5 42t16.5 19h5v-270h-6q-11 0 -16.5 20.5t-9.5 44.5t-25 44.5t-58 20.5h-89zM495 728l-164 88l-166 -87l-8 11l131 131q27 31 45 31q17 0 45 -31l125 -133z" />
    <glyph glyph-name="Edieresis" unicode="&#xcb;" horiz-adv-x="700" 
d="M290 343v-247q0 -39 18.5 -59t64.5 -20h42q84 0 140.5 51.5t106.5 172.5q7 19 17 19h3q3 -1 4 -1l-58 -280q-76 21 -196 21h-401v7q0 7 15 10.5t33.5 7.5t33.5 24t15 56v473q0 32 -15 50t-33 20.5t-33 6.5t-15 12v7h321q189 0 251 28q4 -36 9 -76.5t10 -88.5t8 -76
q-4 -2 -8 -2q-7 0 -16 19q-43 104 -87.5 141t-133.5 37h-96v-295h83q38 0 60.5 19t27.5 42t11.5 42t16.5 19h5v-270h-6q-11 0 -16.5 20.5t-9.5 44.5t-25 44.5t-58 20.5h-89zM228 870q28 0 47.5 -19.5t19.5 -46.5q0 -28 -19.5 -48t-47.5 -20t-47.5 20t-19.5 48
q0 27 19.5 46.5t47.5 19.5zM425 870q28 0 48 -19.5t20 -46.5q0 -28 -19.5 -48t-48.5 -20q-28 0 -47 19.5t-19 48.5q0 27 19 46.5t47 19.5z" />
    <glyph glyph-name="Igrave" unicode="&#xcc;" horiz-adv-x="417" 
d="M296 580v-477q0 -35 15.5 -55t33.5 -23.5t33.5 -7t15.5 -11.5v-6h-356v6q0 6 10 9.5t24 6.5t28 9.5t24 24.5t10 47v477q0 30 -15 47.5t-33 20.5t-33 7.5t-15 11.5v7h356v-7q0 -7 -15.5 -11t-33.5 -7.5t-33.5 -20.5t-15.5 -48zM315 745l-4 -13q-62 6 -110 21.5t-73 34.5
t-37 35.5t-12 28.5q0 17 13.5 30.5t37.5 13.5q18 0 34 -14.5t29.5 -35.5t45.5 -50t76 -51z" />
    <glyph glyph-name="Iacute" unicode="&#xcd;" horiz-adv-x="417" 
d="M296 580v-477q0 -35 15.5 -55t33.5 -23.5t33.5 -7t15.5 -11.5v-6h-356v6q0 6 10 9.5t24 6.5t28 9.5t24 24.5t10 47v477q0 30 -15 47.5t-33 20.5t-33 7.5t-15 11.5v7h356v-7q0 -7 -15.5 -11t-33.5 -7.5t-33.5 -20.5t-15.5 -48zM122 731l-4 12q44 23 76 52t46 49.5t30 35
t34 14.5q24 0 37 -13t13 -30q0 -12 -12 -28.5t-37 -35.5t-73 -34.5t-110 -21.5z" />
    <glyph glyph-name="Icircumflex" unicode="&#xce;" horiz-adv-x="417" 
d="M296 580v-477q0 -35 15.5 -55t33.5 -23.5t33.5 -7t15.5 -11.5v-6h-356v6q0 6 10 9.5t24 6.5t28 9.5t24 24.5t10 47v477q0 30 -15 47.5t-33 20.5t-33 7.5t-15 11.5v7h356v-7q0 -7 -15.5 -11t-33.5 -7.5t-33.5 -20.5t-15.5 -48zM377 728l-164 88l-166 -87l-8 11l131 131
q27 31 45 31q17 0 45 -31l125 -133z" />
    <glyph glyph-name="Idieresis" unicode="&#xcf;" horiz-adv-x="417" 
d="M296 580v-477q0 -35 15.5 -55t33.5 -23.5t33.5 -7t15.5 -11.5v-6h-356v6q0 6 10 9.5t24 6.5t28 9.5t24 24.5t10 47v477q0 30 -15 47.5t-33 20.5t-33 7.5t-15 11.5v7h356v-7q0 -7 -15.5 -11t-33.5 -7.5t-33.5 -20.5t-15.5 -48zM112 870q28 0 47.5 -19.5t19.5 -46.5
q0 -28 -19.5 -48t-47.5 -20t-47.5 20t-19.5 48q0 27 19.5 46.5t47.5 19.5zM309 870q28 0 48 -19.5t20 -46.5q0 -28 -19.5 -48t-48.5 -20q-28 0 -47 19.5t-19 48.5q0 27 19 46.5t47 19.5z" />
    <glyph glyph-name="Eth" unicode="&#xd0;" horiz-adv-x="813" 
d="M31 0v7q0 7 15 10.5t33 7.5t33 24t15 56v239h-72v19h72v214q0 33 -14.5 51t-32.5 20.5t-32.5 6.5t-14.5 12v7h312q89 0 164 -20t133.5 -59.5t91.5 -105t33 -151.5q0 -42 -10 -84t-37.5 -89t-70.5 -82.5t-116 -59t-167 -23.5h-335zM289 655v-292h140v-19h-140v-249
q0 -39 18 -59t60 -20h18q96 0 149 77.5t53 230.5q0 169 -57 250t-191 81h-50z" />
    <glyph glyph-name="Ntilde" unicode="&#xd1;" horiz-adv-x="815" 
d="M294 674l360 -453l1 1v305q0 102 -75 121q-5 1 -14 3t-13 3t-9 3t-7 4t-2 5v7h257v-7q0 -3 -2 -5t-6.5 -3.5t-8.5 -2.5t-11.5 -3t-12.5 -3q-38 -10 -58 -36.5t-20 -85.5v-547l-21 -6l-492 616v-446q0 -53 16.5 -79t51.5 -39q9 -3 24 -6.5t21.5 -6.5t6.5 -7v-6h-256v6
q0 6 18.5 11t40.5 12.5t40.5 36.5t18.5 78v430q0 32 -15 50.5t-33.5 22t-33.5 8t-15 11.5v8h249zM576 861l10 -3q-10 -46 -36 -76.5t-66 -30.5q-23 0 -79.5 16.5t-78.5 16.5q-51 0 -75 -41l-11 4q9 42 33.5 76.5t67.5 34.5q20 0 80 -18t85 -18q45 0 70 39z" />
    <glyph glyph-name="Ograve" unicode="&#xd2;" horiz-adv-x="808" 
d="M43 337q0 148 98 248.5t261 100.5q116 0 200 -49.5t123.5 -126.5t39.5 -171q0 -145 -98 -248t-266 -103q-171 0 -264.5 100t-93.5 249zM227 337q0 -333 179 -333q64 0 104.5 47t55.5 117t15 165q0 336 -179 336q-47 0 -82.5 -28.5t-55 -77t-28.5 -105t-9 -121.5zM500 748
l-4 -13q-62 6 -110 21.5t-73 34.5t-37 35.5t-12 28.5q0 17 13.5 30.5t37.5 13.5q18 0 34 -14.5t29.5 -35.5t45.5 -50t76 -51z" />
    <glyph glyph-name="Oacute" unicode="&#xd3;" horiz-adv-x="808" 
d="M43 337q0 148 98 248.5t261 100.5q116 0 200 -49.5t123.5 -126.5t39.5 -171q0 -145 -98 -248t-266 -103q-171 0 -264.5 100t-93.5 249zM227 337q0 -333 179 -333q64 0 104.5 47t55.5 117t15 165q0 336 -179 336q-47 0 -82.5 -28.5t-55 -77t-28.5 -105t-9 -121.5zM320 735
l-4 12q44 23 76 52t46 49.5t30 35t34 14.5q24 0 37 -13t13 -30q0 -12 -12 -28.5t-37 -35.5t-73 -34.5t-110 -21.5z" />
    <glyph glyph-name="Ocircumflex" unicode="&#xd4;" horiz-adv-x="808" 
d="M43 337q0 148 98 248.5t261 100.5q116 0 200 -49.5t123.5 -126.5t39.5 -171q0 -145 -98 -248t-266 -103q-171 0 -264.5 100t-93.5 249zM227 337q0 -333 179 -333q64 0 104.5 47t55.5 117t15 165q0 336 -179 336q-47 0 -82.5 -28.5t-55 -77t-28.5 -105t-9 -121.5zM569 728
l-164 88l-166 -87l-8 11l131 131q27 31 45 31q17 0 45 -31l125 -133z" />
    <glyph glyph-name="Otilde" unicode="&#xd5;" horiz-adv-x="808" 
d="M43 337q0 148 98 248.5t261 100.5q116 0 200 -49.5t123.5 -126.5t39.5 -171q0 -145 -98 -248t-266 -103q-171 0 -264.5 100t-93.5 249zM227 337q0 -333 179 -333q64 0 104.5 47t55.5 117t15 165q0 336 -179 336q-47 0 -82.5 -28.5t-55 -77t-28.5 -105t-9 -121.5zM566 872
l10 -3q-10 -46 -36 -76.5t-66 -30.5q-23 0 -79.5 16.5t-78.5 16.5q-51 0 -75 -41l-11 4q9 42 33.5 76.5t67.5 34.5q20 0 80 -18t85 -18q45 0 70 39z" />
    <glyph glyph-name="Odieresis" unicode="&#xd6;" horiz-adv-x="808" 
d="M43 337q0 148 98 248.5t261 100.5q116 0 200 -49.5t123.5 -126.5t39.5 -171q0 -145 -98 -248t-266 -103q-171 0 -264.5 100t-93.5 249zM227 337q0 -333 179 -333q64 0 104.5 47t55.5 117t15 165q0 336 -179 336q-47 0 -82.5 -28.5t-55 -77t-28.5 -105t-9 -121.5zM302 870
q28 0 47.5 -19.5t19.5 -46.5q0 -28 -19.5 -48t-47.5 -20t-47.5 20t-19.5 48q0 27 19.5 46.5t47.5 19.5zM499 870q28 0 48 -19.5t20 -46.5q0 -28 -19.5 -48t-48.5 -20q-28 0 -47 19.5t-19 48.5q0 27 19 46.5t47 19.5z" />
    <glyph glyph-name="multiply" unicode="&#xd7;" 
d="M117 144l144 144l-140 141l27 28l141 -141l142 141l27 -28l-141 -141q16 -16 45 -44.5t52.5 -52t43.5 -44.5l-28 -29q-26 27 -74 75l-67 67l-144 -144z" />
    <glyph glyph-name="Oslash" unicode="&#xd8;" horiz-adv-x="803" 
d="M401 686q113 0 198 -50q7 9 14 19t15 22t13 19q13 -8 14 -9q-7 -10 -20.5 -30t-20.5 -29q74 -46 112 -122.5t38 -166.5q0 -146 -97.5 -248.5t-265.5 -102.5q-118 0 -201 50l-48 -67l-14 10q8 12 24 34t23 32q-70 47 -106 122.5t-36 167.5q0 148 97.5 248.5t260.5 100.5z
M581 333q0 122 -37 196q-53 -77 -152.5 -218t-126.5 -180q42 -128 140 -128q176 0 176 330zM402 668q-60 0 -101 -44.5t-57.5 -109t-16.5 -144.5q0 -145 32 -217l279 396q-40 119 -136 119z" />
    <glyph glyph-name="Ugrave" unicode="&#xd9;" horiz-adv-x="830" 
d="M695 544v-250q0 -150 -63.5 -228t-210.5 -78q-146 0 -224.5 63t-78.5 192v336q0 31 -14 48t-31.5 20.5t-31.5 7.5t-14 11v7h350v-7q0 -8 -15 -12.5t-33.5 -9t-33.5 -27.5t-15 -63v-321q0 -108 41 -163.5t149 -55.5q95 0 150.5 67.5t55.5 190.5v272q0 44 -19 69.5
t-41 30.5t-41 10t-19 12v7h257v-7q0 -7 -18.5 -11.5t-40.5 -10t-40.5 -31t-18.5 -69.5zM522 745l-4 -13q-62 6 -110 21.5t-73 34.5t-37 35.5t-12 28.5q0 17 13.5 30.5t37.5 13.5q18 0 34 -14.5t29.5 -35.5t45.5 -50t76 -51z" />
    <glyph glyph-name="Uacute" unicode="&#xda;" horiz-adv-x="830" 
d="M695 544v-250q0 -150 -63.5 -228t-210.5 -78q-146 0 -224.5 63t-78.5 192v336q0 31 -14 48t-31.5 20.5t-31.5 7.5t-14 11v7h350v-7q0 -8 -15 -12.5t-33.5 -9t-33.5 -27.5t-15 -63v-321q0 -108 41 -163.5t149 -55.5q95 0 150.5 67.5t55.5 190.5v272q0 44 -19 69.5
t-41 30.5t-41 10t-19 12v7h257v-7q0 -7 -18.5 -11.5t-40.5 -10t-40.5 -31t-18.5 -69.5zM339 731l-4 12q44 23 76 52t46 49.5t30 35t34 14.5q24 0 37 -13t13 -30q0 -12 -12 -28.5t-37 -35.5t-73 -34.5t-110 -21.5z" />
    <glyph glyph-name="Ucircumflex" unicode="&#xdb;" horiz-adv-x="830" 
d="M695 544v-250q0 -150 -63.5 -228t-210.5 -78q-146 0 -224.5 63t-78.5 192v336q0 31 -14 48t-31.5 20.5t-31.5 7.5t-14 11v7h350v-7q0 -8 -15 -12.5t-33.5 -9t-33.5 -27.5t-15 -63v-321q0 -108 41 -163.5t149 -55.5q95 0 150.5 67.5t55.5 190.5v272q0 44 -19 69.5
t-41 30.5t-41 10t-19 12v7h257v-7q0 -7 -18.5 -11.5t-40.5 -10t-40.5 -31t-18.5 -69.5zM580 728l-164 88l-166 -87l-8 11l131 131q27 31 45 31q17 0 45 -31l125 -133z" />
    <glyph glyph-name="Udieresis" unicode="&#xdc;" horiz-adv-x="830" 
d="M695 544v-250q0 -150 -63.5 -228t-210.5 -78q-146 0 -224.5 63t-78.5 192v336q0 31 -14 48t-31.5 20.5t-31.5 7.5t-14 11v7h350v-7q0 -8 -15 -12.5t-33.5 -9t-33.5 -27.5t-15 -63v-321q0 -108 41 -163.5t149 -55.5q95 0 150.5 67.5t55.5 190.5v272q0 44 -19 69.5
t-41 30.5t-41 10t-19 12v7h257v-7q0 -7 -18.5 -11.5t-40.5 -10t-40.5 -31t-18.5 -69.5zM308 870q28 0 47.5 -19.5t19.5 -46.5q0 -28 -19.5 -48t-47.5 -20t-47.5 20t-19.5 48q0 27 19.5 46.5t47.5 19.5zM505 870q28 0 48 -19.5t20 -46.5q0 -28 -19.5 -48t-48.5 -20
q-28 0 -47 19.5t-19 48.5q0 27 19 46.5t47 19.5z" />
    <glyph glyph-name="Yacute" unicode="&#xdd;" horiz-adv-x="704" 
d="M418 326l4 1l103 211q19 38 19 59q0 28 -23 40.5t-46 16.5t-23 12v7h247v-7q0 -8 -14 -12t-34.5 -9t-48.5 -29.5t-49 -66.5l-125 -244v-203q0 -35 15.5 -54.5t34 -23t34 -7t15.5 -11.5v-6h-356v6q0 7 15 11t32.5 7.5t32.5 23.5t15 55v176l-165 304q-15 27 -34 43.5
t-32.5 20.5t-23 8.5t-9.5 11.5v6h342v-7q0 -8 -19.5 -11.5t-39 -13t-19.5 -29.5q0 -13 10 -30zM283 731l-4 12q44 23 76 52t46 49.5t30 35t34 14.5q24 0 37 -13t13 -30q0 -12 -12 -28.5t-37 -35.5t-73 -34.5t-110 -21.5z" />
    <glyph glyph-name="Thorn" unicode="&#xde;" horiz-adv-x="669" 
d="M281 580v-32q70 7 90 7q51 0 96.5 -10t88 -31.5t67.5 -62.5t25 -97q0 -102 -79.5 -153.5t-195.5 -51.5q-57 0 -92 5v-51q0 -35 15.5 -55t33.5 -23.5t33.5 -7t15.5 -11.5v-6h-356v6q0 6 10 9.5t24 6.5t28 9.5t24 24.5t10 47v477q0 30 -15 47.5t-33 20.5t-33 7.5t-15 11.5
v7h356v-7q0 -7 -15.5 -11t-33.5 -7.5t-33.5 -20.5t-15.5 -48zM315 533q-24 0 -34 -2v-359q17 -3 36 -3q73 0 115.5 51t42.5 134q0 82 -39.5 130.5t-120.5 48.5z" />
    <glyph glyph-name="germandbls" unicode="&#xdf;" horiz-adv-x="631" 
d="M312 732q109 0 165 -47t56 -115q0 -57 -46 -103t-129 -54v-4q66 -2 114.5 -22t74 -51t37 -64t11.5 -69q0 -89 -59 -153t-159 -64q-53 0 -93 22t-40 66q0 23 16 37.5t37 14.5q26 0 43 -22t17 -53q0 -26 -16 -42q104 11 104 194q0 86 -38 140t-121 57l-2 15q113 21 113 161
q0 72 -27.5 106t-66.5 34q-42 0 -65 -30.5t-23 -88.5v-591l-6 -6h-204v8q0 7 10.5 10t23.5 5.5t23.5 17.5t10.5 42v386q0 115 64 189t175 74z" />
    <glyph glyph-name="agrave" unicode="&#xe0;" horiz-adv-x="539" 
d="M267 451q61 0 102.5 -15.5t61.5 -44.5t27.5 -58.5t7.5 -67.5v-179q0 -37 10 -48.5t43 -12.5q0 -2 0.5 -6.5t0.5 -6.5q-39 -23 -97 -23q-87 0 -95 65h-4q-63 -67 -167 -67q-55 0 -91 28t-36 80q0 43 21.5 75t57.5 49t76 25t85 8q28 0 54 -3v65q0 119 -87 119
q-37 0 -66 -18q26 -26 26 -65q0 -30 -21 -50.5t-54 -20.5q-25 0 -39 14.5t-14 37.5q0 45 47.5 82.5t150.5 37.5zM237 31q51 0 87 44v158q-3 0 -9 0.5t-9 0.5q-70 0 -101 -31t-31 -82q0 -41 17 -65.5t46 -24.5zM362 520l-5 -12q-103 25 -157 70t-54 76q0 18 13 31.5t37 13.5
q18 0 29 -9.5t20.5 -27.5t21 -39t36.5 -49.5t59 -53.5z" />
    <glyph glyph-name="aacute" unicode="&#xe1;" horiz-adv-x="539" 
d="M267 451q61 0 102.5 -15.5t61.5 -44.5t27.5 -58.5t7.5 -67.5v-179q0 -37 10 -48.5t43 -12.5q0 -2 0.5 -6.5t0.5 -6.5q-39 -23 -97 -23q-87 0 -95 65h-4q-63 -67 -167 -67q-55 0 -91 28t-36 80q0 43 21.5 75t57.5 49t76 25t85 8q28 0 54 -3v65q0 119 -87 119
q-37 0 -66 -18q26 -26 26 -65q0 -30 -21 -50.5t-54 -20.5q-25 0 -39 14.5t-14 37.5q0 45 47.5 82.5t150.5 37.5zM237 31q51 0 87 44v158q-3 0 -9 0.5t-9 0.5q-70 0 -101 -31t-31 -82q0 -41 17 -65.5t46 -24.5zM193 507l-6 12q42 31 70 67t37.5 59t23.5 38.5t36 15.5
q23 0 36 -13t13 -32q0 -31 -53.5 -76t-156.5 -71z" />
    <glyph glyph-name="acircumflex" unicode="&#xe2;" horiz-adv-x="539" 
d="M267 451q61 0 102.5 -15.5t61.5 -44.5t27.5 -58.5t7.5 -67.5v-179q0 -37 10 -48.5t43 -12.5q0 -2 0.5 -6.5t0.5 -6.5q-39 -23 -97 -23q-87 0 -95 65h-4q-63 -67 -167 -67q-55 0 -91 28t-36 80q0 43 21.5 75t57.5 49t76 25t85 8q28 0 54 -3v65q0 119 -87 119
q-37 0 -66 -18q26 -26 26 -65q0 -30 -21 -50.5t-54 -20.5q-25 0 -39 14.5t-14 37.5q0 45 47.5 82.5t150.5 37.5zM237 31q51 0 87 44v158q-3 0 -9 0.5t-9 0.5q-70 0 -101 -31t-31 -82q0 -41 17 -65.5t46 -24.5zM439 504l-164 104l-166 -104l-9 11l137 156q22 26 40 26
q20 0 40 -26l131 -158z" />
    <glyph glyph-name="atilde" unicode="&#xe3;" horiz-adv-x="539" 
d="M267 451q61 0 102.5 -15.5t61.5 -44.5t27.5 -58.5t7.5 -67.5v-179q0 -37 10 -48.5t43 -12.5q0 -2 0.5 -6.5t0.5 -6.5q-39 -23 -97 -23q-87 0 -95 65h-4q-63 -67 -167 -67q-55 0 -91 28t-36 80q0 43 21.5 75t57.5 49t76 25t85 8q28 0 54 -3v65q0 119 -87 119
q-37 0 -66 -18q26 -26 26 -65q0 -30 -21 -50.5t-54 -20.5q-25 0 -39 14.5t-14 37.5q0 45 47.5 82.5t150.5 37.5zM237 31q51 0 87 44v158q-3 0 -9 0.5t-9 0.5q-70 0 -101 -31t-31 -82q0 -41 17 -65.5t46 -24.5zM434 648l10 -3q-10 -46 -36 -76.5t-66 -30.5q-23 0 -79.5 16.5
t-78.5 16.5q-51 0 -75 -41l-11 4q9 42 33.5 76.5t67.5 34.5q20 0 80 -18t85 -18q45 0 70 39z" />
    <glyph glyph-name="adieresis" unicode="&#xe4;" horiz-adv-x="539" 
d="M267 451q61 0 102.5 -15.5t61.5 -44.5t27.5 -58.5t7.5 -67.5v-179q0 -37 10 -48.5t43 -12.5q0 -2 0.5 -6.5t0.5 -6.5q-39 -23 -97 -23q-87 0 -95 65h-4q-63 -67 -167 -67q-55 0 -91 28t-36 80q0 43 21.5 75t57.5 49t76 25t85 8q28 0 54 -3v65q0 119 -87 119
q-37 0 -66 -18q26 -26 26 -65q0 -30 -21 -50.5t-54 -20.5q-25 0 -39 14.5t-14 37.5q0 45 47.5 82.5t150.5 37.5zM237 31q51 0 87 44v158q-3 0 -9 0.5t-9 0.5q-70 0 -101 -31t-31 -82q0 -41 17 -65.5t46 -24.5zM176 668q28 0 47.5 -19.5t19.5 -46.5q0 -28 -19.5 -48
t-47.5 -20t-47.5 20t-19.5 48q0 27 19.5 46.5t47.5 19.5zM373 668q28 0 48 -19.5t20 -46.5q0 -28 -19.5 -48t-48.5 -20q-28 0 -47 19.5t-19 48.5q0 27 19 46.5t47 19.5z" />
    <glyph glyph-name="aring" unicode="&#xe5;" horiz-adv-x="539" 
d="M267 451q61 0 102.5 -15.5t61.5 -44.5t27.5 -58.5t7.5 -67.5v-179q0 -37 10 -48.5t43 -12.5q0 -2 0.5 -6.5t0.5 -6.5q-39 -23 -97 -23q-87 0 -95 65h-4q-63 -67 -167 -67q-55 0 -91 28t-36 80q0 43 21.5 75t57.5 49t76 25t85 8q28 0 54 -3v65q0 119 -87 119
q-37 0 -66 -18q26 -26 26 -65q0 -30 -21 -50.5t-54 -20.5q-25 0 -39 14.5t-14 37.5q0 45 47.5 82.5t150.5 37.5zM237 31q51 0 87 44v158q-3 0 -9 0.5t-9 0.5q-70 0 -101 -31t-31 -82q0 -41 17 -65.5t46 -24.5zM269 502q-45 0 -76.5 30t-31.5 73t31.5 74.5t76.5 31.5
q44 0 74.5 -31t30.5 -75q0 -43 -30.5 -73t-74.5 -30zM269 683q-32 0 -54.5 -23.5t-22.5 -54.5t22 -53.5t55 -22.5q30 0 51.5 22.5t21.5 53.5q0 30 -22 54t-51 24z" />
    <glyph glyph-name="ae" unicode="&#xe6;" horiz-adv-x="813" 
d="M784 249l-8 -8h-305q0 -203 153 -203q74 0 142 49l9 -9q-74 -88 -203 -88q-135 0 -201 82q-93 -88 -214 -88q-58 0 -94 28.5t-36 84.5q0 43 22 75t58.5 49.5t77.5 25.5t85 8q28 0 51 -3q1 19 1 69q0 51 -17.5 81.5t-67.5 30.5q-37 0 -66 -18q26 -26 26 -65
q0 -29 -19.5 -51t-53.5 -22q-26 0 -40.5 15.5t-14.5 38.5q0 44 45 82t142 38q56 0 97.5 -20t59.5 -56q54 76 157 76q93 0 147.5 -48t63.5 -126zM238 29q61 0 123 56q-39 56 -39 151h-18q-68 0 -99.5 -31.5t-31.5 -82.5q0 -93 65 -93zM563 436q-42 0 -65 -49.5t-26 -128.5
q61 3 176 7v25q0 56 -21 101t-64 45z" />
    <glyph glyph-name="ccedilla" unicode="&#xe7;" horiz-adv-x="476" 
d="M293 452q87 0 124 -32t37 -73q0 -26 -16.5 -43.5t-41.5 -17.5q-32 0 -48.5 20.5t-16.5 50.5q0 37 21 68q-26 6 -60 -3q-48 -14 -77.5 -64.5t-29.5 -127.5q0 -97 40 -147t117 -50q64 0 112 28l5 -13q-75 -61 -185 -61q-16 0 -30 2l-20 -53q86 3 129 -23.5t43 -66.5
q0 -41 -48.5 -71t-135.5 -30q-30 0 -50 2v16q67 0 100.5 24.5t33.5 51.5q0 25 -27.5 41t-79.5 17l38 94q-93 11 -143.5 69.5t-50.5 150.5q0 104 70 172.5t190 68.5z" />
    <glyph glyph-name="egrave" unicode="&#xe8;" horiz-adv-x="527" 
d="M499 250l-8 -8h-308q0 -206 156 -206q74 0 143 49l8 -8q-74 -89 -203 -89q-121 0 -187.5 64t-66.5 166q0 100 68 166.5t181 66.5q98 0 157.5 -58t59.5 -143zM278 436q-42 0 -66 -49t-28 -128l179 7v27q0 56 -21 99.5t-64 43.5zM358 520l-5 -12q-103 25 -157 70t-54 76
q0 18 13 31.5t37 13.5q18 0 29 -9.5t20.5 -27.5t21 -39t36.5 -49.5t59 -53.5z" />
    <glyph glyph-name="eacute" unicode="&#xe9;" horiz-adv-x="527" 
d="M499 250l-8 -8h-308q0 -206 156 -206q74 0 143 49l8 -8q-74 -89 -203 -89q-121 0 -187.5 64t-66.5 166q0 100 68 166.5t181 66.5q98 0 157.5 -58t59.5 -143zM278 436q-42 0 -66 -49t-28 -128l179 7v27q0 56 -21 99.5t-64 43.5zM189 507l-6 12q42 31 70 67t37.5 59
t23.5 38.5t36 15.5q23 0 36 -13t13 -32q0 -31 -53.5 -76t-156.5 -71z" />
    <glyph glyph-name="ecircumflex" unicode="&#xea;" horiz-adv-x="527" 
d="M499 250l-8 -8h-308q0 -206 156 -206q74 0 143 49l8 -8q-74 -89 -203 -89q-121 0 -187.5 64t-66.5 166q0 100 68 166.5t181 66.5q98 0 157.5 -58t59.5 -143zM278 436q-42 0 -66 -49t-28 -128l179 7v27q0 56 -21 99.5t-64 43.5zM438 504l-164 104l-166 -104l-9 11l137 156
q22 26 40 26q20 0 40 -26l131 -158z" />
    <glyph glyph-name="edieresis" unicode="&#xeb;" horiz-adv-x="527" 
d="M499 250l-8 -8h-308q0 -206 156 -206q74 0 143 49l8 -8q-74 -89 -203 -89q-121 0 -187.5 64t-66.5 166q0 100 68 166.5t181 66.5q98 0 157.5 -58t59.5 -143zM278 436q-42 0 -66 -49t-28 -128l179 7v27q0 56 -21 99.5t-64 43.5zM174 668q28 0 47.5 -19.5t19.5 -46.5
q0 -28 -19.5 -48t-47.5 -20t-47.5 20t-19.5 48q0 27 19.5 46.5t47.5 19.5zM371 668q28 0 48 -19.5t20 -46.5q0 -28 -19.5 -48t-48.5 -20q-28 0 -47 19.5t-19 48.5q0 27 19 46.5t47 19.5z" />
    <glyph glyph-name="igrave" unicode="&#xec;" horiz-adv-x="337" 
d="M255 520l-5 -12q-103 25 -157 70t-54 76q0 18 13.5 31.5t36.5 13.5q18 0 29 -9.5t20.5 -27.5t21 -39t36.5 -49.5t59 -53.5zM102 83v260q0 27 -11 41.5t-23.5 16.5t-23.5 5.5t-11 10.5v8q75 6 205 26l5 -5v-368q0 -33 16.5 -45.5t33.5 -15t17 -10.5v-7h-274v7
q0 8 16.5 10.5t33 16.5t16.5 49z" />
    <glyph glyph-name="iacute" unicode="&#xed;" horiz-adv-x="337" 
d="M65 507l-6 12q42 31 70 67t37.5 59t23.5 38.5t36 15.5q23 0 36 -13t13 -32q0 -31 -53.5 -76t-156.5 -71zM102 83v260q0 27 -11 41.5t-23.5 16.5t-23.5 5.5t-11 10.5v8q75 6 205 26l5 -5v-368q0 -33 16.5 -45.5t33.5 -15t17 -10.5v-7h-274v7q0 8 16.5 10.5t33 16.5
t16.5 49z" />
    <glyph glyph-name="icircumflex" unicode="&#xee;" horiz-adv-x="337" 
d="M102 83v260q0 27 -11 41.5t-23.5 16.5t-23.5 5.5t-11 10.5v8q75 6 205 26l5 -5v-368q0 -33 16.5 -45.5t33.5 -15t17 -10.5v-7h-274v7q0 8 16.5 10.5t33 16.5t16.5 49zM336 504l-164 104l-166 -104l-9 11l137 156q22 26 40 26q20 0 40 -26l131 -158z" />
    <glyph glyph-name="idieresis" unicode="&#xef;" horiz-adv-x="337" 
d="M52 668q28 0 47.5 -19.5t19.5 -46.5q0 -28 -19.5 -48t-47.5 -20t-47.5 20t-19.5 48q0 27 19.5 46.5t47.5 19.5zM249 668q28 0 48 -19.5t20 -46.5q0 -28 -19.5 -48t-48.5 -20q-28 0 -47 19.5t-19 48.5q0 27 19 46.5t47 19.5zM102 83v260q0 27 -11 41.5t-23.5 16.5
t-23.5 5.5t-11 10.5v8q75 6 205 26l5 -5v-368q0 -33 16.5 -45.5t33.5 -15t17 -10.5v-7h-274v7q0 8 16.5 10.5t33 16.5t16.5 49z" />
    <glyph glyph-name="eth" unicode="&#xf0;" horiz-adv-x="584" 
d="M444 698l-90 -61q198 -149 198 -382q0 -113 -69 -190t-193 -77t-190.5 66.5t-66.5 166.5q0 97 67.5 164.5t180.5 67.5q77 0 122 -39l5 4q-29 97 -107 184q-22 -14 -97 -66l-10 16q64 42 96 64q-66 70 -140 108l6 15q103 -36 182 -91q64 42 96 64zM291 436
q-38 0 -62.5 -34t-33 -80t-8.5 -101q0 -220 108 -220q56 0 80.5 62t24.5 155q0 218 -109 218z" />
    <glyph glyph-name="ntilde" unicode="&#xf1;" horiz-adv-x="620" 
d="M531 315v-236q0 -26 10.5 -40t23 -16t23 -5.5t10.5 -10.5v-7h-265v7q0 8 14.5 10.5t28.5 16.5t14 51v251q0 35 -16 52.5t-42 17.5q-28 0 -55 -13.5t-41 -39.5v-274q0 -27 9 -41t20 -16t20 -5t9 -10v-7h-267v7q0 7 10.5 10.5t23 5.5t23 17.5t10.5 44.5v256q0 27 -11 42
t-23.5 17t-23.5 5.5t-11 10.5v7q33 5 99 14t99 14l3 -3t3 -2q-6 -54 -8 -81q1 0 2 -0.5t2 -0.5q54 85 160 85q62 0 104 -31.5t42 -102.5zM466 648l10 -3q-10 -46 -36 -76.5t-66 -30.5q-23 0 -79.5 16.5t-78.5 16.5q-51 0 -75 -41l-11 4q9 42 33.5 76.5t67.5 34.5
q20 0 80 -18t85 -18q45 0 70 39z" />
    <glyph glyph-name="ograve" unicode="&#xf2;" horiz-adv-x="586" 
d="M33 221q0 99 69 165t190 66q129 0 195 -65.5t66 -164.5q0 -98 -69 -166.5t-192 -68.5q-126 0 -192.5 67t-66.5 167zM188 221q0 -220 106 -220q56 0 80.5 62t24.5 155q0 218 -106 218q-55 0 -80 -63.5t-25 -151.5zM380 520l-5 -12q-103 25 -157 70t-54 76q0 18 13 31.5
t37 13.5q18 0 29 -9.5t20.5 -27.5t21 -39t36.5 -49.5t59 -53.5z" />
    <glyph glyph-name="oacute" unicode="&#xf3;" horiz-adv-x="586" 
d="M33 221q0 99 69 165t190 66q129 0 195 -65.5t66 -164.5q0 -98 -69 -166.5t-192 -68.5q-126 0 -192.5 67t-66.5 167zM188 221q0 -220 106 -220q56 0 80.5 62t24.5 155q0 218 -106 218q-55 0 -80 -63.5t-25 -151.5zM205 507l-6 12q42 31 70 67t37.5 59t23.5 38.5t36 15.5
q23 0 36 -13t13 -32q0 -31 -53.5 -76t-156.5 -71z" />
    <glyph glyph-name="ocircumflex" unicode="&#xf4;" horiz-adv-x="586" 
d="M33 221q0 99 69 165t190 66q129 0 195 -65.5t66 -164.5q0 -98 -69 -166.5t-192 -68.5q-126 0 -192.5 67t-66.5 167zM188 221q0 -220 106 -220q56 0 80.5 62t24.5 155q0 218 -106 218q-55 0 -80 -63.5t-25 -151.5zM460 504l-164 104l-166 -104l-9 11l137 156q22 26 40 26
q20 0 40 -26l131 -158z" />
    <glyph glyph-name="otilde" unicode="&#xf5;" horiz-adv-x="586" 
d="M33 221q0 99 69 165t190 66q129 0 195 -65.5t66 -164.5q0 -98 -69 -166.5t-192 -68.5q-126 0 -192.5 67t-66.5 167zM188 221q0 -220 106 -220q56 0 80.5 62t24.5 155q0 218 -106 218q-55 0 -80 -63.5t-25 -151.5zM459 648l10 -3q-10 -46 -36 -76.5t-66 -30.5
q-23 0 -79.5 16.5t-78.5 16.5q-51 0 -75 -41l-11 4q9 42 33.5 76.5t67.5 34.5q20 0 80 -18t85 -18q45 0 70 39z" />
    <glyph glyph-name="odieresis" unicode="&#xf6;" horiz-adv-x="586" 
d="M33 221q0 99 69 165t190 66q129 0 195 -65.5t66 -164.5q0 -98 -69 -166.5t-192 -68.5q-126 0 -192.5 67t-66.5 167zM188 221q0 -220 106 -220q56 0 80.5 62t24.5 155q0 218 -106 218q-55 0 -80 -63.5t-25 -151.5zM191 668q28 0 47.5 -19.5t19.5 -46.5q0 -28 -19.5 -48
t-47.5 -20t-47.5 20t-19.5 48q0 27 19.5 46.5t47.5 19.5zM388 668q28 0 48 -19.5t20 -46.5q0 -28 -20 -48t-48 -20t-47 19.5t-19 48.5q0 27 19 46.5t47 19.5z" />
    <glyph glyph-name="divide" unicode="&#xf7;" 
d="M297 383q-24 0 -41.5 17t-17.5 41q0 25 17.5 42.5t41.5 17.5q25 0 42.5 -17.5t17.5 -42.5q0 -24 -17.5 -41t-42.5 -17zM298 89q-24 0 -41.5 17t-17.5 41q0 25 17.5 42.5t41.5 17.5q25 0 42.5 -17.5t17.5 -42.5t-17 -41.5t-43 -16.5zM83 277v41h423v-41h-423z" />
    <glyph glyph-name="oslash" unicode="&#xf8;" horiz-adv-x="586" 
d="M292 451q78 0 134 -29l30 43l14 -9q-26 -37 -29 -41q56 -30 84 -81t28 -112q0 -98 -69 -166t-193 -68q-75 0 -136 28l-35 -49l-14 10q6 9 17.5 24.5t16.5 22.5q-107 62 -107 197q0 99 69 164.5t190 65.5zM292 436q-29 0 -50.5 -18.5t-33 -50.5t-16.5 -66.5t-5 -73.5
q0 -60 16 -114l174 241q-25 82 -85 82zM399 218q0 67 -17 115q-57 -81 -173 -243q24 -89 85 -89q29 0 50.5 18.5t33 50.5t16.5 68.5t5 79.5z" />
    <glyph glyph-name="ugrave" unicode="&#xf9;" horiz-adv-x="617" 
d="M526 448v-357q0 -27 11 -42t23.5 -17t23.5 -5.5t11 -10.5v-7q-33 -5 -99 -11.5t-99 -11.5q-1 0 -3 2l-3 3q6 54 8 81h-2l-2 1q-28 -43 -72 -64t-92 -21q-59 0 -99.5 32t-40.5 103v222q0 27 -10.5 41.5t-23 16.5t-23 5.5t-10.5 10.5v8l203 25l6 -6v-343q0 -74 63 -74
q24 0 48 16t40 43v258q0 34 -16.5 47.5t-33 16t-16.5 11.5v7l203 25zM383 520l-5 -12q-103 25 -157 70t-54 76q0 18 13.5 31.5t36.5 13.5q18 0 29 -9.5t20.5 -27.5t21 -39t36.5 -49.5t59 -53.5z" />
    <glyph glyph-name="uacute" unicode="&#xfa;" horiz-adv-x="617" 
d="M526 448v-357q0 -27 11 -42t23.5 -17t23.5 -5.5t11 -10.5v-7q-33 -5 -99 -11.5t-99 -11.5q-1 0 -3 2l-3 3q6 54 8 81h-2l-2 1q-28 -43 -72 -64t-92 -21q-59 0 -99.5 32t-40.5 103v222q0 27 -10.5 41.5t-23 16.5t-23 5.5t-10.5 10.5v8l203 25l6 -6v-343q0 -74 63 -74
q24 0 48 16t40 43v258q0 34 -16.5 47.5t-33 16t-16.5 11.5v7l203 25zM229 507l-6 12q42 31 70 67t37.5 59t23.5 38.5t36 15.5q23 0 36 -13t13 -32q0 -31 -53.5 -76t-156.5 -71z" />
    <glyph glyph-name="ucircumflex" unicode="&#xfb;" horiz-adv-x="617" 
d="M526 448v-357q0 -27 11 -42t23.5 -17t23.5 -5.5t11 -10.5v-7q-33 -5 -99 -11.5t-99 -11.5q-1 0 -3 2l-3 3q6 54 8 81h-2l-2 1q-28 -43 -72 -64t-92 -21q-59 0 -99.5 32t-40.5 103v222q0 27 -10.5 41.5t-23 16.5t-23 5.5t-10.5 10.5v8l203 25l6 -6v-343q0 -74 63 -74
q24 0 48 16t40 43v258q0 34 -16.5 47.5t-33 16t-16.5 11.5v7l203 25zM465 504l-164 104l-166 -104l-9 11l137 156q22 26 40 26q20 0 40 -26l131 -158z" />
    <glyph glyph-name="udieresis" unicode="&#xfc;" horiz-adv-x="617" 
d="M526 448v-357q0 -27 11 -42t23.5 -17t23.5 -5.5t11 -10.5v-7q-33 -5 -99 -11.5t-99 -11.5q-1 0 -3 2l-3 3q6 54 8 81h-2l-2 1q-28 -43 -72 -64t-92 -21q-59 0 -99.5 32t-40.5 103v222q0 27 -10.5 41.5t-23 16.5t-23 5.5t-10.5 10.5v8l203 25l6 -6v-343q0 -74 63 -74
q24 0 48 16t40 43v258q0 34 -16.5 47.5t-33 16t-16.5 11.5v7l203 25zM198 668q28 0 47.5 -19.5t19.5 -46.5q0 -28 -19.5 -48t-47.5 -20t-47.5 20t-19.5 48q0 27 19.5 46.5t47.5 19.5zM395 668q28 0 48 -19.5t20 -46.5q0 -28 -19.5 -48t-48.5 -20q-28 0 -47 19.5t-19 48.5
q0 27 19 46.5t47 19.5z" />
    <glyph glyph-name="yacute" unicode="&#xfd;" horiz-adv-x="552" 
d="M88 -224q-40 0 -63 19t-23 51q0 26 19.5 43.5t46.5 17.5q37 0 61 -26.5t29 -60.5q44 24 96 136l14 36h-13l-169 353q-13 27 -29.5 43.5t-28.5 20t-20 8t-8 11.5v7h298v-8q0 -6 -10.5 -10t-22.5 -6t-22.5 -11t-10.5 -24q0 -12 9 -33l91 -200h2l69 182q12 30 12 46
q0 19 -11 29t-23.5 12t-23.5 5.5t-11 9.5v8h200v-7q0 -5 -13 -9t-31 -10.5t-42.5 -33.5t-42.5 -71l-147 -354q-72 -174 -182 -174zM237 507l-6 12q42 31 70 67t37.5 59t23.5 38.5t36 15.5q23 0 36 -13t13 -32q0 -31 -53.5 -76t-156.5 -71z" />
    <glyph glyph-name="thorn" unicode="&#xfe;" horiz-adv-x="613" 
d="M314 13q112 0 112 203q0 93 -27.5 143.5t-80.5 50.5q-26 0 -53.5 -14t-43.5 -37v-316q44 -30 93 -30zM580 226q0 -113 -62.5 -175t-155.5 -62q-86 0 -137 33q-1 0 -2.5 -0.5t-2.5 -0.5v-155q0 -27 9.5 -41.5t21 -16.5t21 -4.5t9.5 -9.5v-8h-268v8q0 7 10.5 10t22.5 5
t22.5 17.5t10.5 44.5v754q0 27 -10.5 42t-23.5 17t-23.5 5.5t-10.5 10.5v8l202 25l6 -6v-232q0 -79 -21 -131q1 0 2.5 -0.5t2.5 -0.5q57 80 154 87q108 0 165.5 -59t57.5 -165z" />
    <glyph glyph-name="ydieresis" unicode="&#xff;" horiz-adv-x="552" 
d="M88 -224q-40 0 -63 19t-23 51q0 26 19.5 43.5t46.5 17.5q37 0 61 -26.5t29 -60.5q44 24 96 136l14 36h-13l-169 353q-13 27 -29.5 43.5t-28.5 20t-20 8t-8 11.5v7h298v-8q0 -6 -10.5 -10t-22.5 -6t-22.5 -11t-10.5 -24q0 -12 9 -33l91 -200h2l69 182q12 30 12 46
q0 19 -11 29t-23.5 12t-23.5 5.5t-11 9.5v8h200v-7q0 -5 -13 -9t-31 -10.5t-42.5 -33.5t-42.5 -71l-147 -354q-72 -174 -182 -174zM198 668q28 0 47.5 -19.5t19.5 -46.5q0 -28 -19.5 -48t-47.5 -20t-47.5 20t-19.5 48q0 27 19.5 46.5t47.5 19.5zM395 668q28 0 48 -19.5
t20 -46.5q0 -28 -19.5 -48t-48.5 -20q-28 0 -47 19.5t-19 48.5q0 27 19 46.5t47 19.5z" />
    <glyph glyph-name="Amacron" unicode="&#x100;" horiz-adv-x="758" 
d="M483 115l-36 96h-250l-31 -86q-11 -27 -11 -46q0 -31 24 -44.5t48 -17t24 -11.5v-6h-246v6q0 7 15 11.5t36 9t45.5 28t40.5 65.5q27 72 82 216t82 217q9 24 9 40q0 23 -14.5 37t-32.5 17t-32.5 7.5t-14.5 11.5v8h217l217 -577q15 -40 39 -58.5t39.5 -22t15.5 -10.5v-6
h-320v6q0 7 17.5 10.5t34.5 13.5t17 32q0 11 -15 53zM325 543h-6l-116 -315h238zM514 833l-7 -72q-120 11 -294 0l4 55q75 12 297 17z" />
    <glyph glyph-name="amacron" unicode="&#x101;" horiz-adv-x="539" 
d="M267 451q61 0 102.5 -15.5t61.5 -44.5t27.5 -58.5t7.5 -67.5v-179q0 -37 10 -48.5t43 -12.5q0 -2 0.5 -6.5t0.5 -6.5q-39 -23 -97 -23q-87 0 -95 65h-4q-63 -67 -167 -67q-55 0 -91 28t-36 80q0 43 21.5 75t57.5 49t76 25t85 8q28 0 54 -3v65q0 119 -87 119
q-37 0 -66 -18q26 -26 26 -65q0 -30 -21 -50.5t-54 -20.5q-25 0 -39 14.5t-14 37.5q0 45 47.5 82.5t150.5 37.5zM237 31q51 0 87 44v158q-3 0 -9 0.5t-9 0.5q-70 0 -101 -31t-31 -82q0 -41 17 -65.5t46 -24.5zM432 618l-3 -71q-123 10 -299 0l1 54q78 12 301 17z" />
    <glyph glyph-name="Abreve" unicode="&#x102;" horiz-adv-x="758" 
d="M483 115l-36 96h-250l-31 -86q-11 -27 -11 -46q0 -31 24 -44.5t48 -17t24 -11.5v-6h-246v6q0 7 15 11.5t36 9t45.5 28t40.5 65.5q27 72 82 216t82 217q9 24 9 40q0 23 -14.5 37t-32.5 17t-32.5 7.5t-14.5 11.5v8h217l217 -577q15 -40 39 -58.5t39.5 -22t15.5 -10.5v-6
h-320v6q0 7 17.5 10.5t34.5 13.5t17 32q0 11 -15 53zM325 543h-6l-116 -315h238zM355 731q-64 0 -106 43.5t-53 119.5l13 4q49 -96 145 -96q98 0 153 96l12 -3q-16 -82 -62 -123t-102 -41z" />
    <glyph glyph-name="abreve" unicode="&#x103;" horiz-adv-x="539" 
d="M267 451q61 0 102.5 -15.5t61.5 -44.5t27.5 -58.5t7.5 -67.5v-179q0 -37 10 -48.5t43 -12.5q0 -2 0.5 -6.5t0.5 -6.5q-39 -23 -97 -23q-87 0 -95 65h-4q-63 -67 -167 -67q-55 0 -91 28t-36 80q0 43 21.5 75t57.5 49t76 25t85 8q28 0 54 -3v65q0 119 -87 119
q-37 0 -66 -18q26 -26 26 -65q0 -30 -21 -50.5t-54 -20.5q-25 0 -39 14.5t-14 37.5q0 45 47.5 82.5t150.5 37.5zM237 31q51 0 87 44v158q-3 0 -9 0.5t-9 0.5q-70 0 -101 -31t-31 -82q0 -41 17 -65.5t46 -24.5zM268 513q-67 0 -113 48.5t-57 130.5l13 4q28 -55 69.5 -80.5
t86.5 -25.5q44 0 89.5 25t74.5 81l12 -2q-17 -91 -67 -136t-108 -45z" />
    <glyph glyph-name="Aogonek" unicode="&#x104;" horiz-adv-x="758" 
d="M483 115l-36 96h-250l-31 -86q-11 -27 -11 -46q0 -31 24 -44.5t48 -17t24 -11.5v-6h-246v6q0 7 15 11.5t36 9t45.5 28t40.5 65.5q27 72 82 216t82 217q9 24 9 40q0 23 -14.5 37t-32.5 17t-32.5 7.5t-14.5 11.5v8h217l217 -577q15 -40 39 -58.5t39.5 -22t15.5 -10.5v-6
h-150q-33 -29 -51 -63t-18 -61q0 -79 99 -79q39 0 65 6q0 -2 5 -11q-61 -37 -141 -37q-55 0 -84 23t-29 63q0 34 31 77t96 82h-143v6q0 7 17.5 10.5t34.5 13.5t17 32q0 11 -15 53zM325 543h-6l-116 -315h238z" />
    <glyph glyph-name="aogonek" unicode="&#x105;" horiz-adv-x="539" 
d="M267 451q61 0 102.5 -15.5t61.5 -44.5t27.5 -58.5t7.5 -67.5v-179q0 -37 10 -48.5t43 -12.5q0 -2 0.5 -6.5t0.5 -6.5q-39 -23 -97 -23q-19 0 -28 2q-58 -58 -58 -113q0 -79 99 -79q39 0 65 6q1 -2 5 -11q-61 -37 -141 -37q-55 0 -84 23t-29 63q0 33 28.5 74.5t89.5 79.5
q-37 13 -42 57h-4q-63 -67 -167 -67q-55 0 -91 28t-36 80q0 43 21.5 75t57.5 49t76 25t85 8q28 0 54 -3v65q0 119 -87 119q-37 0 -66 -18q26 -26 26 -65q0 -30 -21 -50.5t-54 -20.5q-25 0 -39 14.5t-14 37.5q0 45 47.5 82.5t150.5 37.5zM237 31q51 0 87 44v158q-3 0 -9 0.5
t-9 0.5q-70 0 -101 -31t-31 -82q0 -41 17 -65.5t46 -24.5z" />
    <glyph glyph-name="Cacute" unicode="&#x106;" horiz-adv-x="694" 
d="M397 685q110 0 191 -29l29 46h15l9 -254h-5q-7 0 -11.5 8t-11.5 31q-60 180 -197 180q-98 0 -144.5 -92t-46.5 -250q0 -318 194 -318q158 0 214 202q1 5 3 12t3 11t2.5 9t2.5 8t2.5 7t2.5 6t3 3.5t3.5 2.5t3.5 1h6l-11 -288h-16l-26 47q-111 -40 -217 -40q-164 0 -258 94
t-94 245q0 152 96.5 255t257.5 103zM304 737l-4 12q44 23 76 52t46 49.5t30 35t34 14.5q24 0 37 -13t13 -30q0 -12 -12 -28.5t-37 -35.5t-73 -34.5t-110 -21.5z" />
    <glyph glyph-name="cacute" unicode="&#x107;" horiz-adv-x="476" 
d="M293 452q87 0 124 -32t37 -73q0 -26 -16.5 -43.5t-41.5 -17.5q-32 0 -48.5 20.5t-16.5 50.5q0 37 21 68q-12 3 -27 3q-63 0 -101.5 -53t-38.5 -145q0 -97 40 -147t117 -50q64 0 112 28l5 -13q-75 -61 -185 -61q-116 0 -178.5 61t-62.5 163q0 104 70 172.5t190 68.5z
M169 507l-6 12q42 31 70 67t37.5 59t23.5 38.5t36 15.5q23 0 36 -13t13 -32q0 -31 -53.5 -76t-156.5 -71z" />
    <glyph glyph-name="Ccircumflex" unicode="&#x108;" horiz-adv-x="694" 
d="M397 685q110 0 191 -29l29 46h15l9 -254h-5q-7 0 -11.5 8t-11.5 31q-60 180 -197 180q-98 0 -144.5 -92t-46.5 -250q0 -318 194 -318q158 0 214 202q1 5 3 12t3 11t2.5 9t2.5 8t2.5 7t2.5 6t3 3.5t3.5 2.5t3.5 1h6l-11 -288h-16l-26 47q-111 -40 -217 -40q-164 0 -258 94
t-94 245q0 152 96.5 255t257.5 103zM553 734l-164 88l-166 -87l-8 11l131 131q27 31 45 31q17 0 45 -31l125 -133z" />
    <glyph glyph-name="ccircumflex" unicode="&#x109;" horiz-adv-x="476" 
d="M293 452q87 0 124 -32t37 -73q0 -26 -16.5 -43.5t-41.5 -17.5q-32 0 -48.5 20.5t-16.5 50.5q0 37 21 68q-12 3 -27 3q-63 0 -101.5 -53t-38.5 -145q0 -97 40 -147t117 -50q64 0 112 28l5 -13q-75 -61 -185 -61q-116 0 -178.5 61t-62.5 163q0 104 70 172.5t190 68.5z
M422 504l-164 104l-166 -104l-9 11l137 156q22 26 40 26q20 0 40 -26l131 -158z" />
    <glyph glyph-name="Cdotaccent" unicode="&#x10a;" horiz-adv-x="694" 
d="M397 685q110 0 191 -29l29 46h15l9 -254h-5q-7 0 -11.5 8t-11.5 31q-60 180 -197 180q-98 0 -144.5 -92t-46.5 -250q0 -318 194 -318q158 0 214 202q1 5 3 12t3 11t2.5 9t2.5 8t2.5 7t2.5 6t3 3.5t3.5 2.5t3.5 1h6l-11 -288h-16l-26 47q-111 -40 -217 -40q-164 0 -258 94
t-94 245q0 152 96.5 255t257.5 103zM383 888q30 0 51.5 -21.5t21.5 -50.5q0 -31 -21 -53t-52 -22q-29 0 -50.5 22t-21.5 53q0 29 21.5 50.5t50.5 21.5z" />
    <glyph glyph-name="cdotaccent" unicode="&#x10b;" horiz-adv-x="476" 
d="M293 452q87 0 124 -32t37 -73q0 -26 -16.5 -43.5t-41.5 -17.5q-32 0 -48.5 20.5t-16.5 50.5q0 37 21 68q-12 3 -27 3q-63 0 -101.5 -53t-38.5 -145q0 -97 40 -147t117 -50q64 0 112 28l5 -13q-75 -61 -185 -61q-116 0 -178.5 61t-62.5 163q0 104 70 172.5t190 68.5z
M269 680q30 0 51.5 -21.5t21.5 -50.5q0 -31 -21 -53t-52 -22q-29 0 -50.5 22t-21.5 53q0 29 21.5 50.5t50.5 21.5z" />
    <glyph glyph-name="Ccaron" unicode="&#x10c;" horiz-adv-x="694" 
d="M397 685q110 0 191 -29l29 46h15l9 -254h-5q-7 0 -11.5 8t-11.5 31q-60 180 -197 180q-98 0 -144.5 -92t-46.5 -250q0 -318 194 -318q158 0 214 202q1 5 3 12t3 11t2.5 9t2.5 8t2.5 7t2.5 6t3 3.5t3.5 2.5t3.5 1h6l-11 -288h-16l-26 47q-111 -40 -217 -40q-164 0 -258 94
t-94 245q0 152 96.5 255t257.5 103zM390 815l164 87l8 -9l-125 -134q-28 -31 -45 -31t-45 32l-131 130l8 11z" />
    <glyph glyph-name="ccaron" unicode="&#x10d;" horiz-adv-x="476" 
d="M293 452q87 0 124 -32t37 -73q0 -26 -16.5 -43.5t-41.5 -17.5q-32 0 -48.5 20.5t-16.5 50.5q0 37 21 68q-12 3 -27 3q-63 0 -101.5 -53t-38.5 -145q0 -97 40 -147t117 -50q64 0 112 28l5 -13q-75 -61 -185 -61q-116 0 -178.5 61t-62.5 163q0 104 70 172.5t190 68.5z
M258 595l162 102l9 -9l-129 -156q-22 -26 -40 -26q-19 0 -41 26l-136 154l9 11z" />
    <glyph glyph-name="Dcaron" unicode="&#x10e;" horiz-adv-x="813" 
d="M31 0v7q0 7 15 10.5t33 7.5t33 24t15 56v472q0 33 -14.5 51t-32.5 20.5t-32.5 6.5t-14.5 12v7h312q89 0 164 -20t133.5 -59.5t91.5 -105t33 -151.5q0 -42 -10 -84t-37.5 -89t-70.5 -82.5t-116 -59t-167 -23.5h-335zM289 655v-560q0 -39 18 -59t60 -20h18q96 0 149 77.5
t53 230.5q0 169 -57 250t-191 81h-50zM378 815l164 87l8 -9l-125 -134q-28 -31 -45 -31t-45 32l-131 130l8 11z" />
    <glyph glyph-name="dcaron" unicode="&#x10f;" horiz-adv-x="642" 
d="M534 728l1 -637q0 -27 11 -42t23.5 -17t23.5 -5.5t11 -10.5v-7q-33 -5 -99 -11.5t-99 -11.5q-1 0 -3 2l-3 3q6 54 8 81h-2l-2 1q-28 -43 -72 -64.5t-91 -21.5q-104 0 -156 60t-52 163q0 114 63 178t160 64q80 0 131 -35l5 1v208q0 27 -10.5 41.5t-23 16.5t-23 5.5
t-10.5 10.5v8l203 25zM187 220q0 -93 27 -142.5t80 -49.5q56 0 98 53v315q-41 29 -93 29q-112 0 -112 -205zM702 669q0 -40 -26.5 -88t-66.5 -80l-9 10q33 29 54.5 64t23.5 64q-20 -12 -39 -12q-25 0 -42 16t-17 41q0 22 16.5 39t40.5 17q32 0 48.5 -20t16.5 -51z" />
    <glyph glyph-name="Dcroat" unicode="&#x110;" horiz-adv-x="813" 
d="M31 0v7q0 7 15 10.5t33 7.5t33 24t15 56v239h-72v19h72v214q0 33 -14.5 51t-32.5 20.5t-32.5 6.5t-14.5 12v7h312q89 0 164 -20t133.5 -59.5t91.5 -105t33 -151.5q0 -42 -10 -84t-37.5 -89t-70.5 -82.5t-116 -59t-167 -23.5h-335zM289 655v-292h140v-19h-140v-249
q0 -39 18 -59t60 -20h18q96 0 149 77.5t53 230.5q0 169 -57 250t-191 81h-50z" />
    <glyph glyph-name="dcroat" unicode="&#x111;" horiz-adv-x="611" 
d="M534 728v-162h62v-20h-62l1 -455q0 -27 11 -42t23.5 -17t23.5 -5.5t11 -10.5v-7q-33 -5 -99 -11.5t-99 -11.5q-1 0 -3 2l-3 3q6 54 8 81h-2l-2 1q-28 -43 -72 -64.5t-91 -21.5q-104 0 -156 60t-52 163q0 114 63 178t160 64q80 0 131 -35l5 1v128h-166v20h166v60
q0 27 -10.5 41.5t-23 16.5t-23 5.5t-10.5 10.5v8l203 25zM187 220q0 -93 27 -142.5t80 -49.5q56 0 98 53v315q-41 29 -93 29q-112 0 -112 -205z" />
    <glyph glyph-name="Emacron" unicode="&#x112;" horiz-adv-x="700" 
d="M290 343v-247q0 -39 18.5 -59t64.5 -20h42q84 0 140.5 51.5t106.5 172.5q7 19 17 19h3q3 -1 4 -1l-58 -280q-76 21 -196 21h-401v7q0 7 15 10.5t33.5 7.5t33.5 24t15 56v473q0 32 -15 50t-33 20.5t-33 6.5t-15 12v7h321q189 0 251 28q4 -36 9 -76.5t10 -88.5t8 -76
q-4 -2 -8 -2q-7 0 -16 19q-43 104 -87.5 141t-133.5 37h-96v-295h83q38 0 60.5 19t27.5 42t11.5 42t16.5 19h5v-270h-6q-11 0 -16.5 20.5t-9.5 44.5t-25 44.5t-58 20.5h-89zM485 833l-7 -72q-120 11 -294 0l4 55q75 12 297 17z" />
    <glyph glyph-name="emacron" unicode="&#x113;" horiz-adv-x="527" 
d="M499 250l-8 -8h-308q0 -206 156 -206q74 0 143 49l8 -8q-74 -89 -203 -89q-121 0 -187.5 64t-66.5 166q0 100 68 166.5t181 66.5q98 0 157.5 -58t59.5 -143zM278 436q-42 0 -66 -49t-28 -128l179 7v27q0 56 -21 99.5t-64 43.5zM434 618l-3 -71q-123 10 -299 0l1 54
q78 12 301 17z" />
    <glyph glyph-name="Ebreve" unicode="&#x114;" horiz-adv-x="700" 
d="M290 343v-247q0 -39 18.5 -59t64.5 -20h42q84 0 140.5 51.5t106.5 172.5q7 19 17 19h3q3 -1 4 -1l-58 -280q-76 21 -196 21h-401v7q0 7 15 10.5t33.5 7.5t33.5 24t15 56v473q0 32 -15 50t-33 20.5t-33 6.5t-15 12v7h321q189 0 251 28q4 -36 9 -76.5t10 -88.5t8 -76
q-4 -2 -8 -2q-7 0 -16 19q-43 104 -87.5 141t-133.5 37h-96v-295h83q38 0 60.5 19t27.5 42t11.5 42t16.5 19h5v-270h-6q-11 0 -16.5 20.5t-9.5 44.5t-25 44.5t-58 20.5h-89zM319 731q-64 0 -106 43.5t-53 119.5l13 4q49 -96 145 -96q98 0 153 96l12 -3q-16 -82 -62 -123
t-102 -41z" />
    <glyph glyph-name="ebreve" unicode="&#x115;" horiz-adv-x="527" 
d="M499 250l-8 -8h-308q0 -206 156 -206q74 0 143 49l8 -8q-74 -89 -203 -89q-121 0 -187.5 64t-66.5 166q0 100 68 166.5t181 66.5q98 0 157.5 -58t59.5 -143zM278 436q-42 0 -66 -49t-28 -128l179 7v27q0 56 -21 99.5t-64 43.5zM268 513q-67 0 -113 48.5t-57 130.5l13 4
q28 -55 69.5 -80.5t86.5 -25.5q44 0 89.5 25t74.5 81l12 -2q-17 -91 -67 -136t-108 -45z" />
    <glyph glyph-name="Edotaccent" unicode="&#x116;" horiz-adv-x="700" 
d="M290 343v-247q0 -39 18.5 -59t64.5 -20h42q84 0 140.5 51.5t106.5 172.5q7 19 17 19h3q3 -1 4 -1l-58 -280q-76 21 -196 21h-401v7q0 7 15 10.5t33.5 7.5t33.5 24t15 56v473q0 32 -15 50t-33 20.5t-33 6.5t-15 12v7h321q189 0 251 28q4 -36 9 -76.5t10 -88.5t8 -76
q-4 -2 -8 -2q-7 0 -16 19q-43 104 -87.5 141t-133.5 37h-96v-295h83q38 0 60.5 19t27.5 42t11.5 42t16.5 19h5v-270h-6q-11 0 -16.5 20.5t-9.5 44.5t-25 44.5t-58 20.5h-89zM326 886q30 0 51.5 -21.5t21.5 -50.5q0 -31 -21 -53t-52 -22q-29 0 -50.5 22t-21.5 53
q0 29 21.5 50.5t50.5 21.5z" />
    <glyph glyph-name="edotaccent" unicode="&#x117;" horiz-adv-x="527" 
d="M499 250l-8 -8h-308q0 -206 156 -206q74 0 143 49l8 -8q-74 -89 -203 -89q-121 0 -187.5 64t-66.5 166q0 100 68 166.5t181 66.5q98 0 157.5 -58t59.5 -143zM278 436q-42 0 -66 -49t-28 -128l179 7v27q0 56 -21 99.5t-64 43.5zM275 680q30 0 51.5 -21.5t21.5 -50.5
q0 -31 -21 -53t-52 -22q-29 0 -50.5 22t-21.5 53q0 29 21.5 50.5t50.5 21.5z" />
    <glyph glyph-name="Eogonek" unicode="&#x118;" horiz-adv-x="700" 
d="M290 343v-247q0 -39 18.5 -59t64.5 -20h42q84 0 140.5 51.5t106.5 172.5q7 19 17 19h3q3 -1 4 -1l-58 -280q-44 13 -95 17q-34 -30 -52 -64t-18 -61q0 -79 99 -79q39 0 65 6q1 -2 5 -11q-61 -37 -141 -37q-55 0 -84 23t-29 63q0 35 32 79t99 83q-46 2 -77 2h-401v7
q0 7 15 10.5t33.5 7.5t33.5 24t15 56v473q0 32 -15 50t-33 20.5t-33 6.5t-15 12v7h321q189 0 251 28q4 -36 9 -76.5t10 -88.5t8 -76q-4 -2 -8 -2q-7 0 -16 19q-43 104 -87.5 141t-133.5 37h-96v-295h83q38 0 60.5 19t27.5 42t11.5 42t16.5 19h5v-270h-6q-11 0 -16.5 20.5
t-9.5 44.5t-25 44.5t-58 20.5h-89z" />
    <glyph glyph-name="eogonek" unicode="&#x119;" horiz-adv-x="527" 
d="M499 250l-8 -8h-308q0 -206 156 -206q74 0 143 49l8 -8q-22 -26 -51 -46q-37 -30 -57.5 -66.5t-20.5 -64.5q0 -79 99 -79q39 0 65 6q1 -2 5 -11q-61 -37 -141 -37q-55 0 -84 23t-29 63q0 66 87 133q-38 -10 -76 -10q-121 0 -187.5 64t-66.5 166q0 100 68 166.5t181 66.5
q98 0 157.5 -58t59.5 -143zM278 436q-42 0 -66 -49t-28 -128l179 7v27q0 56 -21 99.5t-64 43.5z" />
    <glyph glyph-name="Ecaron" unicode="&#x11a;" horiz-adv-x="700" 
d="M290 343v-247q0 -39 18.5 -59t64.5 -20h42q84 0 140.5 51.5t106.5 172.5q7 19 17 19h3q3 -1 4 -1l-58 -280q-76 21 -196 21h-401v7q0 7 15 10.5t33.5 7.5t33.5 24t15 56v473q0 32 -15 50t-33 20.5t-33 6.5t-15 12v7h321q189 0 251 28q4 -36 9 -76.5t10 -88.5t8 -76
q-4 -2 -8 -2q-7 0 -16 19q-43 104 -87.5 141t-133.5 37h-96v-295h83q38 0 60.5 19t27.5 42t11.5 42t16.5 19h5v-270h-6q-11 0 -16.5 20.5t-9.5 44.5t-25 44.5t-58 20.5h-89zM333 815l164 87l8 -9l-125 -134q-28 -31 -45 -31t-45 32l-131 130l8 11z" />
    <glyph glyph-name="ecaron" unicode="&#x11b;" horiz-adv-x="527" 
d="M499 250l-8 -8h-308q0 -206 156 -206q74 0 143 49l8 -8q-74 -89 -203 -89q-121 0 -187.5 64t-66.5 166q0 100 68 166.5t181 66.5q98 0 157.5 -58t59.5 -143zM278 436q-42 0 -66 -49t-28 -128l179 7v27q0 56 -21 99.5t-64 43.5zM271 595l162 102l9 -9l-129 -156
q-22 -26 -40 -26q-19 0 -41 26l-136 154l9 11z" />
    <glyph glyph-name="Gcircumflex" unicode="&#x11c;" horiz-adv-x="778" 
d="M406 685q76 0 186 -31l48 47h18q6 -174 10 -262h-5q-8 0 -12.5 8t-11.5 32q-57 188 -210 188q-103 0 -153.5 -91.5t-50.5 -249.5q0 -161 41.5 -241.5t138.5 -80.5q44 0 81 20.5t59 50.5v161q0 30 -15 46.5t-33.5 19.5t-33.5 7t-15 12v7h323v-7q0 -7 -12.5 -10t-27.5 -6.5
t-27.5 -21t-12.5 -48.5v-227l-16 -5l-52 40q-133 -54 -229 -54q-162 0 -257 93.5t-95 245.5q0 151 100 254t264 103zM568 731l-164 88l-166 -87l-8 11l131 131q27 31 45 31q17 0 45 -31l125 -133z" />
    <glyph glyph-name="gcircumflex" unicode="&#x11d;" horiz-adv-x="548" 
d="M499 402q-23 0 -44.5 16.5t-26.5 52.5q-28 -10 -55 -40q53 -21 80 -60.5t27 -88.5q0 -71 -58.5 -121t-163.5 -50q-76 0 -128 26q-21 -7 -37 -22t-16 -27q0 -20 46.5 -26.5t112.5 -8t132 -7.5t112.5 -33.5t46.5 -78.5q0 -66 -73.5 -114t-202.5 -48q-118 0 -177 38t-59 92
q0 30 18.5 51t45.5 21q32 0 46.5 -21t14.5 -46q0 -61 -46 -87q14 -12 52.5 -21t75.5 -9q65 0 102.5 38.5t37.5 90.5q0 41 -50.5 61t-111.5 22.5t-111.5 16.5t-50.5 45q0 19 20.5 41.5t56.5 37.5v3q-74 42 -74 128q0 76 58.5 127t159.5 51q53 0 101 -15q23 31 56.5 50
t64.5 19q28 0 48.5 -13t20.5 -44q0 -21 -15.5 -34t-35.5 -13zM182 280q0 -156 80 -156q76 0 76 159q0 154 -78 154q-41 0 -59.5 -45t-18.5 -112zM429 525l-164 104l-166 -104l-9 11l137 156q22 26 40 26q20 0 40 -26l131 -158z" />
    <glyph glyph-name="Gbreve" unicode="&#x11e;" horiz-adv-x="778" 
d="M406 685q76 0 186 -31l48 47h18q6 -174 10 -262h-5q-8 0 -12.5 8t-11.5 32q-57 188 -210 188q-103 0 -153.5 -91.5t-50.5 -249.5q0 -161 41.5 -241.5t138.5 -80.5q44 0 81 20.5t59 50.5v161q0 30 -15 46.5t-33.5 19.5t-33.5 7t-15 12v7h323v-7q0 -7 -12.5 -10t-27.5 -6.5
t-27.5 -21t-12.5 -48.5v-227l-16 -5l-52 40q-133 -54 -229 -54q-162 0 -257 93.5t-95 245.5q0 151 100 254t264 103zM395 731q-64 0 -106 43.5t-53 119.5l13 4q49 -96 145 -96q98 0 153 96l12 -3q-16 -82 -62 -123t-102 -41z" />
    <glyph glyph-name="gbreve" unicode="&#x11f;" horiz-adv-x="548" 
d="M499 402q-23 0 -44.5 16.5t-26.5 52.5q-28 -10 -55 -40q53 -21 80 -60.5t27 -88.5q0 -71 -58.5 -121t-163.5 -50q-76 0 -128 26q-21 -7 -37 -22t-16 -27q0 -20 46.5 -26.5t112.5 -8t132 -7.5t112.5 -33.5t46.5 -78.5q0 -66 -73.5 -114t-202.5 -48q-118 0 -177 38t-59 92
q0 30 18.5 51t45.5 21q32 0 46.5 -21t14.5 -46q0 -61 -46 -87q14 -12 52.5 -21t75.5 -9q65 0 102.5 38.5t37.5 90.5q0 41 -50.5 61t-111.5 22.5t-111.5 16.5t-50.5 45q0 19 20.5 41.5t56.5 37.5v3q-74 42 -74 128q0 76 58.5 127t159.5 51q53 0 101 -15q23 31 56.5 50
t64.5 19q28 0 48.5 -13t20.5 -44q0 -21 -15.5 -34t-35.5 -13zM182 280q0 -156 80 -156q76 0 76 159q0 154 -78 154q-41 0 -59.5 -45t-18.5 -112zM263 515q-67 0 -113 48.5t-57 130.5l13 4q28 -55 69.5 -80.5t86.5 -25.5q44 0 89.5 25t74.5 81l12 -2q-17 -91 -67 -136
t-108 -45z" />
    <glyph glyph-name="Gdotaccent" unicode="&#x120;" horiz-adv-x="778" 
d="M406 685q76 0 186 -31l48 47h18q6 -174 10 -262h-5q-8 0 -12.5 8t-11.5 32q-57 188 -210 188q-103 0 -153.5 -91.5t-50.5 -249.5q0 -161 41.5 -241.5t138.5 -80.5q44 0 81 20.5t59 50.5v161q0 30 -15 46.5t-33.5 19.5t-33.5 7t-15 12v7h323v-7q0 -7 -12.5 -10t-27.5 -6.5
t-27.5 -21t-12.5 -48.5v-227l-16 -5l-52 40q-133 -54 -229 -54q-162 0 -257 93.5t-95 245.5q0 151 100 254t264 103zM402 882q30 0 51.5 -21.5t21.5 -50.5q0 -31 -21 -53t-52 -22q-29 0 -50.5 22t-21.5 53q0 29 21.5 50.5t50.5 21.5z" />
    <glyph glyph-name="gdotaccent" unicode="&#x121;" horiz-adv-x="548" 
d="M499 402q-23 0 -44.5 16.5t-26.5 52.5q-28 -10 -55 -40q53 -21 80 -60.5t27 -88.5q0 -71 -58.5 -121t-163.5 -50q-76 0 -128 26q-21 -7 -37 -22t-16 -27q0 -20 46.5 -26.5t112.5 -8t132 -7.5t112.5 -33.5t46.5 -78.5q0 -66 -73.5 -114t-202.5 -48q-118 0 -177 38t-59 92
q0 30 18.5 51t45.5 21q32 0 46.5 -21t14.5 -46q0 -61 -46 -87q14 -12 52.5 -21t75.5 -9q65 0 102.5 38.5t37.5 90.5q0 41 -50.5 61t-111.5 22.5t-111.5 16.5t-50.5 45q0 19 20.5 41.5t56.5 37.5v3q-74 42 -74 128q0 76 58.5 127t159.5 51q53 0 101 -15q23 31 56.5 50
t64.5 19q28 0 48.5 -13t20.5 -44q0 -21 -15.5 -34t-35.5 -13zM182 280q0 -156 80 -156q76 0 76 159q0 154 -78 154q-41 0 -59.5 -45t-18.5 -112zM267 680q30 0 51.5 -21.5t21.5 -50.5q0 -31 -21 -53t-52 -22q-29 0 -50.5 22t-21.5 53q0 29 21.5 50.5t50.5 21.5z" />
    <glyph glyph-name="Gcommaaccent" unicode="&#x122;" horiz-adv-x="778" 
d="M406 685q76 0 186 -31l48 47h18q6 -174 10 -262h-5q-8 0 -12.5 8t-11.5 32q-57 188 -210 188q-103 0 -153.5 -91.5t-50.5 -249.5q0 -161 41.5 -241.5t138.5 -80.5q44 0 81 20.5t59 50.5v161q0 30 -15 46.5t-33.5 19.5t-33.5 7t-15 12v7h323v-7q0 -7 -12.5 -10t-27.5 -6.5
t-27.5 -21t-12.5 -48.5v-227l-16 -5l-52 40q-133 -54 -229 -54q-162 0 -257 93.5t-95 245.5q0 151 100 254t264 103zM473 -117q0 -40 -26.5 -88t-66.5 -80l-9 10q33 29 54.5 64t23.5 64q-19 -12 -39 -12q-25 0 -42 16t-17 41q0 22 16.5 39t40.5 17q32 0 48.5 -20t16.5 -51z
" />
    <glyph glyph-name="gcommaaccent" unicode="&#x123;" horiz-adv-x="548" 
d="M204 585q0 40 26 88t67 80q1 -1 4 -4.5t5 -5.5q-33 -29 -54.5 -64t-23.5 -64q20 12 39 12q25 0 42 -16t17 -41q0 -23 -17 -39.5t-41 -16.5q-31 0 -47.5 20t-16.5 51zM499 402q-23 0 -44.5 16.5t-26.5 52.5q-28 -10 -55 -40q53 -21 80 -60.5t27 -88.5q0 -71 -58.5 -121
t-163.5 -50q-76 0 -128 26q-21 -7 -37 -22t-16 -27q0 -20 46.5 -26.5t112.5 -8t132 -7.5t112.5 -33.5t46.5 -78.5q0 -66 -73.5 -114t-202.5 -48q-118 0 -177 38t-59 92q0 30 18.5 51t45.5 21q32 0 46.5 -21t14.5 -46q0 -61 -46 -87q14 -12 52.5 -21t75.5 -9q65 0 102.5 38.5
t37.5 90.5q0 41 -50.5 61t-111.5 22.5t-111.5 16.5t-50.5 45q0 19 20.5 41.5t56.5 37.5v3q-74 42 -74 128q0 76 58.5 127t159.5 51q53 0 101 -15q23 31 56.5 50t64.5 19q28 0 48.5 -13t20.5 -44q0 -21 -15.5 -34t-35.5 -13zM182 280q0 -156 80 -156q76 0 76 159
q0 154 -78 154q-41 0 -59.5 -45t-18.5 -112z" />
    <glyph glyph-name="Hcircumflex" unicode="&#x124;" horiz-adv-x="855" 
d="M724 580v-475q0 -36 15.5 -56t33.5 -23.5t33.5 -7.5t15.5 -12v-6h-348v6q0 7 14 11t30.5 8.5t30.5 27t14 60.5v234h-275v-244q0 -29 9.5 -47t23 -24.5t26.5 -9.5t22.5 -6.5t9.5 -9.5v-6h-348v6q0 8 15 11.5t32.5 7.5t32.5 23.5t15 54.5v477q0 31 -15 48.5t-32.5 20.5
t-32.5 7t-15 11v7h350v-7q0 -7 -14.5 -11t-32 -7.5t-32 -20.5t-14.5 -48v-216h275v216q0 31 -14 48.5t-30.5 20.5t-30.5 7t-14 11v7h346v-7q0 -7 -15 -11t-33 -7.5t-33 -20.5t-15 -48zM577 728l-164 88l-166 -87l-8 11l131 131q27 31 45 31q17 0 45 -31l125 -133z" />
    <glyph glyph-name="hcircumflex" unicode="&#x125;" horiz-adv-x="609" 
d="M521 317v-238q0 -26 10.5 -40t23 -16t23 -5.5t10.5 -10.5v-7h-266v7q0 8 14 10.5t28.5 16.5t14.5 51v250q0 35 -15.5 52.5t-41.5 17.5q-28 0 -56 -14t-41 -40v-272q0 -27 9 -41t20 -16t20 -5t9 -10v-7h-267v7q0 7 10.5 10.5t23 5.5t23 17.5t10.5 44.5v540q0 27 -10.5 42
t-23.5 17t-23.5 5.5t-10.5 10.5v8l205 25q4 -4 5 -6v-250q0 -66 -18 -116q1 0 2.5 -0.5t2.5 -0.5q56 90 175 90q55 0 94.5 -32.5t39.5 -100.5zM312 749l-164 88l-166 -87l-8 11l131 131q27 31 45 31q17 0 45 -31l125 -133z" />
    <glyph glyph-name="Hbar" unicode="&#x126;" horiz-adv-x="855" 
d="M724 580v-59h56v-19h-56v-397q0 -36 15.5 -56t33.5 -23.5t33.5 -7.5t15.5 -12v-6h-348v6q0 7 14 11t30.5 8.5t30.5 27t14 60.5v234h-275v-244q0 -29 9.5 -47t23 -24.5t26.5 -9.5t22.5 -6.5t9.5 -9.5v-6h-348v6q0 8 15 11.5t32.5 7.5t32.5 23.5t15 54.5v399h-61v19h61v59
q0 31 -15 48.5t-32.5 20.5t-32.5 7t-15 11v7h350v-7q0 -7 -14.5 -11t-32 -7.5t-32 -20.5t-14.5 -48v-59h275v59q0 31 -14 48.5t-30.5 20.5t-30.5 7t-14 11v7h346v-7q0 -7 -15 -11t-33 -7.5t-33 -20.5t-15 -48zM288 364h275v138h-275v-138z" />
    <glyph glyph-name="hbar" unicode="&#x127;" horiz-adv-x="609" 
d="M521 317v-238q0 -26 10.5 -40t23 -16t23 -5.5t10.5 -10.5v-7h-266v7q0 8 14 10.5t28.5 16.5t14.5 51v250q0 32 -18.5 52.5t-42.5 20.5q-26 0 -53 -16t-40 -41v-272q0 -27 9 -41t20 -16t20 -5t9 -10v-7h-267v7q0 7 10.5 10.5t23 5.5t23 17.5t10.5 44.5v468h-66v19h66v53
q0 27 -10.5 42t-23.5 17t-23.5 5.5t-10.5 10.5v8l205 25q4 -4 5 -6v-155h165v-19h-165v-76q0 -62 -18 -116q1 0 2.5 -0.5t2.5 -0.5q28 45 72.5 67t91.5 22q59 0 102 -30.5t43 -101.5z" />
    <glyph glyph-name="Itilde" unicode="&#x128;" horiz-adv-x="417" 
d="M296 580v-477q0 -35 15.5 -55t33.5 -23.5t33.5 -7t15.5 -11.5v-6h-356v6q0 6 10 9.5t24 6.5t28 9.5t24 24.5t10 47v477q0 30 -15 47.5t-33 20.5t-33 7.5t-15 11.5v7h356v-7q0 -7 -15.5 -11t-33.5 -7.5t-33.5 -20.5t-15.5 -48zM387 855l10 -3q-10 -46 -36 -76.5t-66 -30.5
q-23 0 -79.5 16.5t-78.5 16.5q-51 0 -75 -41l-11 4q9 42 33.5 76.5t67.5 34.5q20 0 80 -18t85 -18q45 0 70 39z" />
    <glyph glyph-name="itilde" unicode="&#x129;" horiz-adv-x="337" 
d="M331 648l10 -3q-10 -46 -36 -76.5t-66 -30.5q-23 0 -79.5 16.5t-78.5 16.5q-51 0 -75 -41l-11 4q9 42 33.5 76.5t67.5 34.5q20 0 80 -18t85 -18q45 0 70 39zM102 83v260q0 27 -11 41.5t-23.5 16.5t-23.5 5.5t-11 10.5v8q75 6 205 26l5 -5v-368q0 -33 16.5 -45.5t33.5 -15
t17 -10.5v-7h-274v7q0 8 16.5 10.5t33 16.5t16.5 49z" />
    <glyph glyph-name="Imacron" unicode="&#x12a;" horiz-adv-x="417" 
d="M296 580v-477q0 -35 15.5 -55t33.5 -23.5t33.5 -7t15.5 -11.5v-6h-356v6q0 6 10 9.5t24 6.5t28 9.5t24 24.5t10 47v477q0 30 -15 47.5t-33 20.5t-33 7.5t-15 11.5v7h356v-7q0 -7 -15.5 -11t-33.5 -7.5t-33.5 -20.5t-15.5 -48zM363 833l-7 -72q-120 11 -294 0l4 55
q75 12 297 17z" />
    <glyph glyph-name="imacron" unicode="&#x12b;" horiz-adv-x="337" 
d="M313 618l-3 -71q-123 10 -299 0l1 54q78 12 301 17zM102 83v260q0 27 -11 41.5t-23.5 16.5t-23.5 5.5t-11 10.5v8q75 6 205 26l5 -5v-368q0 -33 16.5 -45.5t33.5 -15t17 -10.5v-7h-274v7q0 8 16.5 10.5t33 16.5t16.5 49z" />
    <glyph glyph-name="Ibreve" unicode="&#x12c;" horiz-adv-x="417" 
d="M296 580v-477q0 -35 15.5 -55t33.5 -23.5t33.5 -7t15.5 -11.5v-6h-356v6q0 6 10 9.5t24 6.5t28 9.5t24 24.5t10 47v477q0 30 -15 47.5t-33 20.5t-33 7.5t-15 11.5v7h356v-7q0 -7 -15.5 -11t-33.5 -7.5t-33.5 -20.5t-15.5 -48zM211 731q-64 0 -106 43.5t-53 119.5l13 4
q49 -96 145 -96q98 0 153 96l12 -3q-16 -82 -62 -123t-102 -41z" />
    <glyph glyph-name="ibreve" unicode="&#x12d;" horiz-adv-x="337" 
d="M163 519q-67 0 -113 48.5t-57 130.5l13 4q28 -55 69.5 -80.5t86.5 -25.5q44 0 89.5 25t74.5 81l12 -2q-17 -91 -67 -136t-108 -45zM102 83v260q0 27 -11 41.5t-23.5 16.5t-23.5 5.5t-11 10.5v8q75 6 205 26l5 -5v-368q0 -33 16.5 -45.5t33.5 -15t17 -10.5v-7h-274v7
q0 8 16.5 10.5t33 16.5t16.5 49z" />
    <glyph glyph-name="Iogonek" unicode="&#x12e;" horiz-adv-x="417" 
d="M296 580v-477q0 -35 15.5 -55t33.5 -23.5t33.5 -7t15.5 -11.5v-6h-166q-38 -30 -58.5 -66.5t-20.5 -65.5q0 -79 99 -79q39 0 65 6q1 -2 5 -11q-61 -37 -141 -37q-55 0 -84 23t-29 63q0 36 34 81.5t107 85.5h-167v6q0 6 10 9.5t24 6.5t28 9.5t24 24.5t10 47v477
q0 30 -15 47.5t-33 20.5t-33 7.5t-15 11.5v7h356v-7q0 -7 -15.5 -11t-33.5 -7.5t-33.5 -20.5t-15.5 -48z" />
    <glyph glyph-name="iogonek" unicode="&#x12f;" horiz-adv-x="337" 
d="M102 83v260q0 27 -11 41.5t-23.5 16.5t-23.5 5.5t-11 10.5v8l205 26l5 -5v-368q0 -33 16.5 -45.5t33.5 -15t17 -10.5v-7h-115q-36 -30 -55 -65t-19 -63q0 -79 99 -79q39 0 65 6q1 -2 5 -11q-61 -37 -141 -37q-55 0 -84 23t-29 63q0 35 32 79.5t101 83.5h-133v7
q0 8 16.5 10.5t33 16.5t16.5 49zM169 695q33 0 56.5 -23t23.5 -55q0 -34 -23 -57.5t-57 -23.5t-56.5 23.5t-22.5 57.5q0 32 23 55t56 23z" />
    <glyph glyph-name="Idotaccent" unicode="&#x130;" horiz-adv-x="417" 
d="M296 580v-477q0 -35 15.5 -55t33.5 -23.5t33.5 -7t15.5 -11.5v-6h-356v6q0 6 10 9.5t24 6.5t28 9.5t24 24.5t10 47v477q0 30 -15 47.5t-33 20.5t-33 7.5t-15 11.5v7h356v-7q0 -7 -15.5 -11t-33.5 -7.5t-33.5 -20.5t-15.5 -48zM210 879q30 0 51.5 -21.5t21.5 -50.5
q0 -31 -21 -53t-52 -22q-29 0 -50.5 22t-21.5 53q0 29 21.5 50.5t50.5 21.5z" />
    <glyph glyph-name="dotlessi" unicode="&#x131;" horiz-adv-x="337" 
d="M102 83v260q0 27 -11 41.5t-23.5 16.5t-23.5 5.5t-11 10.5v8q75 6 205 26l5 -5v-368q0 -33 16.5 -45.5t33.5 -15t17 -10.5v-7h-274v7q0 8 16.5 10.5t33 16.5t16.5 49z" />
    <glyph glyph-name="IJ" unicode="&#x132;" horiz-adv-x="766" 
d="M286 580v-477q0 -35 15.5 -55t33.5 -23.5t33.5 -7t15.5 -11.5v-6h-356v6q0 6 10 9.5t24 6.5t28 9.5t24 24.5t10 47v477q0 30 -15 47.5t-33 20.5t-33 7.5t-15 11.5v7h356v-7q0 -7 -15.5 -11t-33.5 -7.5t-33.5 -20.5t-15.5 -48zM489 -25v605q0 31 -15 48.5t-33 20.5t-33 7
t-15 11v7h358v-7q0 -7 -15.5 -11t-34.5 -7.5t-34.5 -20.5t-15.5 -48q0 -52 0.5 -209.5t0.5 -188.5q0 -201 -87 -292q-106 -112 -221 -112q-35 0 -66.5 19t-31.5 58q0 31 21.5 51t54.5 20q41 0 64.5 -33t22.5 -88q42 19 61 56t19 114z" />
    <glyph glyph-name="ij" unicode="&#x133;" horiz-adv-x="606" 
d="M102 83v260q0 27 -11 41.5t-23.5 16.5t-23.5 5.5t-11 10.5v8l205 26l5 -5v-368q0 -33 16.5 -45.5t33.5 -15t17 -10.5v-7h-274v7q0 8 16.5 10.5t33 16.5t16.5 49zM169 695q33 0 56.5 -23t23.5 -55q0 -34 -23 -57.5t-57 -23.5t-56.5 23.5t-22.5 57.5q0 32 23 55t56 23z
M298 -228q-33 0 -59 17t-26 49q0 23 18.5 40.5t44.5 17.5q38 0 58.5 -29t18.5 -72q36 14 36 73v475q0 27 -11.5 41.5t-25 16.5t-25 5.5t-11.5 10.5v8l209 27l5 -6v-419q0 -125 -71 -187q-28 -29 -72 -48.5t-89 -19.5zM456 695q34 0 57 -23t23 -55q0 -34 -23 -57.5t-57 -23.5
q-33 0 -56 23.5t-23 57.5q0 32 23 55t56 23z" />
    <glyph glyph-name="Jcircumflex" unicode="&#x134;" horiz-adv-x="401" 
d="M124 -24v605q0 31 -15 48.5t-33 20.5t-33 7t-15 11v7h358v-7q0 -7 -15.5 -11t-34.5 -7.5t-34.5 -20.5t-15.5 -48q0 -52 0.5 -209.5t0.5 -188.5q0 -201 -87 -292q-106 -112 -221 -112q-35 0 -66.5 19t-31.5 58q0 31 21.5 51t54.5 20q41 0 64.5 -33t22.5 -88q42 19 61 56
t19 114zM372 730l-164 88l-166 -87l-8 11l131 131q27 31 45 31q17 0 45 -31l125 -133z" />
    <glyph glyph-name="jcircumflex" unicode="&#x135;" horiz-adv-x="304" 
d="M4 -228q-33 0 -59 17t-26 49q0 23 18.5 40.5t44.5 17.5q38 0 58.5 -29t18.5 -72q36 14 36 73v475q0 27 -11.5 41.5t-25 16.5t-25 5.5t-11.5 10.5v8q22 1 102 11.5t107 15.5l5 -6v-419q0 -125 -71 -187q-28 -29 -72 -48.5t-89 -19.5zM317 504l-164 104l-166 -104l-9 11
l137 156q22 26 40 26q20 0 40 -26l131 -158z" />
    <glyph glyph-name="Kcommaaccent" unicode="&#x136;" horiz-adv-x="782" 
d="M331 329h-48v-227q0 -35 14.5 -54.5t32 -23t32 -7t14.5 -11.5v-6h-346v6q0 7 14 11t31.5 7.5t31.5 23.5t14 55v476q0 31 -14 48t-31.5 20.5t-31.5 7.5t-14 11v7h346v-7q0 -7 -14.5 -11t-32 -7t-32 -20.5t-14.5 -47.5v-232h68l175 202q37 43 37 65q0 15 -13 23.5t-28 11
t-28 6.5t-13 11v7h276v-6q0 -8 -10 -11.5t-29 -7.5t-42 -12t-55 -30t-62 -55l-114 -127l203 -314q23 -36 49 -57.5t43 -27t28 -10t11 -11.5v-5h-327v6q0 7 27 15t27 26q0 14 -16 39zM448 -113q0 -40 -26.5 -88t-66.5 -80l-9 10q33 29 54.5 64t23.5 64q-19 -12 -39 -12
q-25 0 -42 16t-17 41q0 22 16.5 39t40.5 17q32 0 48.5 -20t16.5 -51z" />
    <glyph glyph-name="kcommaaccent" unicode="&#x137;" horiz-adv-x="595" 
d="M229 728v-496h45l87 92q37 39 37 58q0 12 -12 19.5t-27 9.5t-27 6.5t-12 10.5v8h242v-7q0 -8 -21.5 -12t-61 -20t-73.5 -52l-45 -48l118 -196q25 -42 54 -61t44 -22.5t15 -11.5v-6h-203q-83 141 -129 216h-31v-131q0 -28 10.5 -43t23 -18t23 -7t10.5 -11v-6h-281v6
q0 8 11 11.5t24.5 6t24.5 18.5t11 46v537q0 34 -17.5 47.5t-35.5 16t-18 9.5v7l209 27zM341 -113q0 -40 -26.5 -88t-66.5 -80l-9 10q33 29 54.5 64t23.5 64q-19 -12 -39 -12q-25 0 -42 16t-17 41q0 22 16.5 39t40.5 17q32 0 48.5 -20t16.5 -51z" />
    <glyph glyph-name="kgreenlandic" unicode="&#x138;" horiz-adv-x="589" 
d="M86 85v256q0 35 -16 48.5t-32.5 15.5t-16.5 10v7l204 23q4 -4 6 -5v-212h38l125 129q15 15 15 28q-1 16 -40.5 26t-39.5 18v7h225v-6q0 -10 -18 -12.5t-55.5 -17.5t-71.5 -50l-52 -53l128 -202q20 -31 40 -49t32 -21.5t19.5 -7.5t7.5 -12v-5h-194l-133 211h-26v-131
q0 -34 15.5 -47.5t31 -16.5t15.5 -10v-6h-270v6q0 8 15.5 11t31.5 17.5t16 50.5z" />
    <glyph glyph-name="Lacute" unicode="&#x139;" horiz-adv-x="696" 
d="M380 17h36q87 0 139.5 50.5t107.5 177.5q5 12 9 16t9 3q2 0 3.5 -0.5t2.5 -0.5l-54 -279q-54 16 -203 16h-393v7q0 7 15.5 10.5t33.5 7t33.5 24t15.5 56.5v474q0 31 -15 48t-33 20.5t-33 7.5t-15 11v7h356v-7q0 -7 -15.5 -11t-33.5 -7t-33.5 -20.5t-15.5 -47.5
q0 -80 -0.5 -241.5t-0.5 -242.5q0 -39 18.5 -59t65.5 -20zM104 731l-4 12q44 23 76 52t46 49.5t30 35t34 14.5q24 0 37 -13t13 -30q0 -12 -12 -28.5t-37 -35.5t-73 -34.5t-110 -21.5z" />
    <glyph glyph-name="lacute" unicode="&#x13a;" horiz-adv-x="328" 
d="M93 83v542q0 27 -11 42t-24 17t-24 5.5t-11 10.5v7l208 26l5 -5v-650q0 -26 11 -40t24 -16t24 -5t11 -10v-7h-280v7q0 8 16.5 10.5t33.5 16.5t17 49zM38 765l-4 12q44 23 76 52t46 49.5t30 35t34 14.5q24 0 37 -13t13 -30q0 -12 -12 -28.5t-37 -35.5t-73 -34.5
t-110 -21.5z" />
    <glyph glyph-name="Lcommaaccent" unicode="&#x13b;" horiz-adv-x="696" 
d="M380 17h36q87 0 139.5 50.5t107.5 177.5q5 12 9 16t9 3q2 0 3.5 -0.5t2.5 -0.5l-54 -279q-54 16 -203 16h-393v7q0 7 15.5 10.5t33.5 7t33.5 24t15.5 56.5v474q0 31 -15 48t-33 20.5t-33 7.5t-15 11v7h356v-7q0 -7 -15.5 -11t-33.5 -7t-33.5 -20.5t-15.5 -47.5
q0 -80 -0.5 -241.5t-0.5 -242.5q0 -39 18.5 -59t65.5 -20zM409 -113q0 -40 -26.5 -88t-66.5 -80l-9 10q33 29 54.5 64t23.5 64q-20 -12 -39 -12q-25 0 -42 16t-17 41q0 22 16.5 39t40.5 17q32 0 48.5 -20t16.5 -51z" />
    <glyph glyph-name="lcommaaccent" unicode="&#x13c;" horiz-adv-x="328" 
d="M93 83v542q0 27 -11 42t-24 17t-24 5.5t-11 10.5v7l208 26l5 -5v-650q0 -26 11 -40t24 -16t24 -5t11 -10v-7h-280v7q0 8 16.5 10.5t33.5 16.5t17 49zM231 -113q0 -40 -26.5 -88t-66.5 -80l-9 10q33 29 54.5 64t23.5 64q-20 -12 -39 -12q-25 0 -42 16t-17 41q0 22 16.5 39
t40.5 17q32 0 48.5 -20t16.5 -51z" />
    <glyph glyph-name="Lcaron" unicode="&#x13d;" horiz-adv-x="696" 
d="M380 17h36q87 0 139.5 50.5t107.5 177.5q5 12 9 16t9 3q2 0 3.5 -0.5t2.5 -0.5l-54 -279q-54 16 -203 16h-393v7q0 7 15.5 10.5t33.5 7t33.5 24t15.5 56.5v474q0 31 -15 48t-33 20.5t-33 7.5t-15 11v7h356v-7q0 -7 -15.5 -11t-33.5 -7t-33.5 -20.5t-15.5 -47.5
q0 -80 -0.5 -241.5t-0.5 -242.5q0 -39 18.5 -59t65.5 -20zM555 620q0 -40 -26.5 -88t-66.5 -80l-9 10q33 29 54.5 64t23.5 64q-19 -12 -39 -12q-25 0 -42 16t-17 41q0 22 16.5 39t40.5 17q32 0 48.5 -20t16.5 -51z" />
    <glyph glyph-name="lcaron" unicode="&#x13e;" horiz-adv-x="339" 
d="M93 83v542q0 27 -11 42t-24 17t-24 5.5t-11 10.5v7l208 26l5 -5v-650q0 -26 11 -40t24 -16t24 -5t11 -10v-7h-280v7q0 8 16.5 10.5t33.5 16.5t17 49zM399 670q0 -40 -26.5 -88t-66.5 -80l-9 10q33 29 54.5 64t23.5 64q-19 -12 -39 -12q-25 0 -42 16t-17 41q0 22 16.5 39
t40.5 17q32 0 48.5 -20t16.5 -51z" />
    <glyph glyph-name="Ldot" unicode="&#x13f;" horiz-adv-x="696" 
d="M380 17h36q87 0 139.5 50.5t107.5 177.5q5 12 9 16t9 3q2 0 3.5 -0.5t2.5 -0.5l-54 -279q-54 16 -203 16h-393v7q0 7 15.5 10.5t33.5 7t33.5 24t15.5 56.5v474q0 31 -15 48t-33 20.5t-33 7.5t-15 11v7h356v-7q0 -7 -15.5 -11t-33.5 -7t-33.5 -20.5t-15.5 -47.5
q0 -80 -0.5 -241.5t-0.5 -242.5q0 -39 18.5 -59t65.5 -20zM445 431q30 0 51.5 -21.5t21.5 -50.5q0 -31 -21 -53t-52 -22q-29 0 -50.5 22t-21.5 53q0 29 21.5 50.5t50.5 21.5z" />
    <glyph glyph-name="ldot" unicode="&#x140;" horiz-adv-x="405" 
d="M93 83v542q0 27 -11 42t-24 17t-24 5.5t-11 10.5v7l208 26l5 -5v-650q0 -26 11 -40t24 -16t24 -5t11 -10v-7h-280v7q0 8 16.5 10.5t33.5 16.5t17 49zM343 434q30 0 51.5 -21.5t21.5 -50.5q0 -31 -21 -53t-52 -22q-29 0 -50.5 22t-21.5 53q0 29 21.5 50.5t50.5 21.5z" />
    <glyph glyph-name="Lslash" unicode="&#x141;" horiz-adv-x="696" 
d="M380 17h36q87 0 139.5 50.5t107.5 177.5q5 12 9 16t9 3q2 0 3.5 -0.5t2.5 -0.5l-54 -279q-54 16 -203 16h-393v7q0 7 15.5 10.5t33.5 7t33.5 24t15.5 56.5v162l-106 -54l-9 19l115 58v289q0 31 -15 48t-33 20.5t-33 7.5t-15 11v7h356v-7q0 -7 -15.5 -11t-33.5 -7
t-33.5 -20.5t-15.5 -47.5q0 -34 -0.5 -103t-0.5 -104l124 63q3 -3 10 -18l-134 -69v-253q0 -39 18.5 -59t65.5 -20z" />
    <glyph glyph-name="lslash" unicode="&#x142;" horiz-adv-x="328" 
d="M93 83v201l-79 -42q-2 3 -5 9.5t-4 8.5l88 47v318q0 27 -11 42t-24 17t-24 5.5t-11 10.5v7l208 26l5 -5v-348q12 7 25 14t28.5 15t24.5 13q2 -3 5.5 -9.5t5.5 -8.5l-89 -47v-279q0 -26 11 -40t24 -16t24 -5t11 -10v-7h-280v7q0 8 16.5 10.5t33.5 16.5t17 49z" />
    <glyph glyph-name="Nacute" unicode="&#x143;" horiz-adv-x="815" 
d="M294 674l360 -453l1 1v305q0 102 -75 121q-5 1 -14 3t-13 3t-9 3t-7 4t-2 5v7h257v-7q0 -3 -2 -5t-6.5 -3.5t-8.5 -2.5t-11.5 -3t-12.5 -3q-38 -10 -58 -36.5t-20 -85.5v-547l-21 -6l-492 616v-446q0 -53 16.5 -79t51.5 -39q9 -3 24 -6.5t21.5 -6.5t6.5 -7v-6h-256v6
q0 6 18.5 11t40.5 12.5t40.5 36.5t18.5 78v430q0 32 -15 50.5t-33.5 22t-33.5 8t-15 11.5v8h249zM324 731l-4 12q44 23 76 52t46 49.5t30 35t34 14.5q24 0 37 -13t13 -30q0 -12 -12 -28.5t-37 -35.5t-73 -34.5t-110 -21.5z" />
    <glyph glyph-name="nacute" unicode="&#x144;" horiz-adv-x="620" 
d="M531 315v-236q0 -26 10.5 -40t23 -16t23 -5.5t10.5 -10.5v-7h-265v7q0 8 14.5 10.5t28.5 16.5t14 51v251q0 35 -16 52.5t-42 17.5q-28 0 -55 -13.5t-41 -39.5v-274q0 -27 9 -41t20 -16t20 -5t9 -10v-7h-267v7q0 7 10.5 10.5t23 5.5t23 17.5t10.5 44.5v256q0 27 -11 42
t-23.5 17t-23.5 5.5t-11 10.5v7q33 5 99 14t99 14l3 -3t3 -2q-6 -54 -8 -81q1 0 2 -0.5t2 -0.5q54 85 160 85q62 0 104 -31.5t42 -102.5zM206 507l-6 12q42 31 70 67t37.5 59t23.5 38.5t36 15.5q23 0 36 -13t13 -32q0 -31 -53.5 -76t-156.5 -71z" />
    <glyph glyph-name="Ncommaaccent" unicode="&#x145;" horiz-adv-x="815" 
d="M294 674l360 -453l1 1v305q0 102 -75 121q-5 1 -14 3t-13 3t-9 3t-7 4t-2 5v7h257v-7q0 -3 -2 -5t-6.5 -3.5t-8.5 -2.5t-11.5 -3t-12.5 -3q-38 -10 -58 -36.5t-20 -85.5v-547l-21 -6l-492 616v-446q0 -53 16.5 -79t51.5 -39q9 -3 24 -6.5t21.5 -6.5t6.5 -7v-6h-256v6
q0 6 18.5 11t40.5 12.5t40.5 36.5t18.5 78v430q0 32 -15 50.5t-33.5 22t-33.5 8t-15 11.5v8h249zM450 -93q0 -40 -26.5 -88t-66.5 -80l-9 10q33 29 54.5 64t23.5 64q-19 -12 -39 -12q-25 0 -42 16t-17 41q0 22 16.5 39t40.5 17q32 0 48.5 -20t16.5 -51z" />
    <glyph glyph-name="ncommaaccent" unicode="&#x146;" horiz-adv-x="620" 
d="M531 315v-236q0 -26 10.5 -40t23 -16t23 -5.5t10.5 -10.5v-7h-265v7q0 8 14.5 10.5t28.5 16.5t14 51v251q0 35 -16 52.5t-42 17.5q-28 0 -55 -13.5t-41 -39.5v-274q0 -27 9 -41t20 -16t20 -5t9 -10v-7h-267v7q0 7 10.5 10.5t23 5.5t23 17.5t10.5 44.5v256q0 27 -11 42
t-23.5 17t-23.5 5.5t-11 10.5v7q33 5 99 14t99 14l3 -3t3 -2q-6 -54 -8 -81q1 0 2 -0.5t2 -0.5q54 85 160 85q62 0 104 -31.5t42 -102.5zM367 -113q0 -40 -26.5 -88t-66.5 -80l-9 10q33 29 54.5 64t23.5 64q-19 -12 -39 -12q-25 0 -42 16t-17 41q0 22 16.5 39t40.5 17
q32 0 48.5 -20t16.5 -51z" />
    <glyph glyph-name="Ncaron" unicode="&#x147;" horiz-adv-x="815" 
d="M294 674l360 -453l1 1v305q0 102 -75 121q-5 1 -14 3t-13 3t-9 3t-7 4t-2 5v7h257v-7q0 -3 -2 -5t-6.5 -3.5t-8.5 -2.5t-11.5 -3t-12.5 -3q-38 -10 -58 -36.5t-20 -85.5v-547l-21 -6l-492 616v-446q0 -53 16.5 -79t51.5 -39q9 -3 24 -6.5t21.5 -6.5t6.5 -7v-6h-256v6
q0 6 18.5 11t40.5 12.5t40.5 36.5t18.5 78v430q0 32 -15 50.5t-33.5 22t-33.5 8t-15 11.5v8h249zM414 815l164 87l8 -9l-125 -134q-28 -31 -45 -31t-45 32l-131 130l8 11z" />
    <glyph glyph-name="ncaron" unicode="&#x148;" horiz-adv-x="620" 
d="M531 315v-236q0 -26 10.5 -40t23 -16t23 -5.5t10.5 -10.5v-7h-265v7q0 8 14.5 10.5t28.5 16.5t14 51v251q0 35 -16 52.5t-42 17.5q-28 0 -55 -13.5t-41 -39.5v-274q0 -27 9 -41t20 -16t20 -5t9 -10v-7h-267v7q0 7 10.5 10.5t23 5.5t23 17.5t10.5 44.5v256q0 27 -11 42
t-23.5 17t-23.5 5.5t-11 10.5v7q33 5 99 14t99 14l3 -3t3 -2q-6 -54 -8 -81q1 0 2 -0.5t2 -0.5q54 85 160 85q62 0 104 -31.5t42 -102.5zM296 595l162 102l9 -9l-129 -156q-22 -26 -40 -26q-19 0 -41 26l-136 154l9 11z" />
    <glyph glyph-name="napostrophe" unicode="&#x149;" horiz-adv-x="620" 
d="M531 315v-236q0 -26 10.5 -40t23 -16t23 -5.5t10.5 -10.5v-7h-265v7q0 8 14.5 10.5t28.5 16.5t14 51v251q0 35 -16 52.5t-42 17.5q-28 0 -55 -13.5t-41 -39.5v-274q0 -27 9 -41t20 -16t20 -5t9 -10v-7h-267v7q0 7 10.5 10.5t23 5.5t23 17.5t10.5 44.5v256q0 27 -11 42
t-23.5 17t-23.5 5.5t-11 10.5v7q33 5 99 14t99 14l3 -3t3 -2q-6 -54 -8 -81q1 0 2 -0.5t2 -0.5q54 85 160 85q62 0 104 -31.5t42 -102.5zM83 619q0 -40 -26.5 -88t-66.5 -80l-9 10q33 29 54.5 64t23.5 64q-20 -12 -39 -12q-25 0 -42 16t-17 41q0 22 16.5 39t40.5 17
q32 0 48.5 -20t16.5 -51z" />
    <glyph glyph-name="Eng" unicode="&#x14a;" horiz-adv-x="815" 
d="M294 674l360 -453l1 1v305q0 102 -75 121q-5 1 -14 3t-13 3t-9 3t-7 4t-2 5v7h257v-7q0 -3 -2 -5t-6.5 -3.5t-8.5 -2.5t-11.5 -3t-12.5 -3q-38 -10 -58 -36.5t-20 -85.5v-548q0 -28 -4 -56t-17 -59.5t-32.5 -55.5t-54 -39.5t-78.5 -15.5q-33 0 -58.5 18t-25.5 51
q0 23 17 39.5t41 16.5q36 0 61 -26t27 -70q98 33 104 192h-1l-492 616v-446q0 -53 16.5 -79t51.5 -39q9 -3 24 -6.5t21.5 -6.5t6.5 -7v-6h-256v6q0 6 18.5 11t40.5 12.5t40.5 36.5t18.5 78v430q0 32 -15 50.5t-33.5 22t-33.5 8t-15 11.5v8h249z" />
    <glyph glyph-name="eng" unicode="&#x14b;" horiz-adv-x="596" 
d="M531 315v-253q0 -127 -39 -183q-29 -42 -80 -69t-113 -27q-27 0 -56 18t-29 48q0 24 18 41t44 17q38 0 58 -29.5t20 -71.5q35 14 35 57q0 99 0.5 252.5t0.5 220.5q0 35 -17.5 54t-43.5 19q-25 0 -51.5 -15.5t-41.5 -40.5v-274q0 -27 9 -41t20 -16t20 -5t9 -10v-7h-267v7
q0 7 10.5 10.5t23 5.5t23 17.5t10.5 44.5v256q0 27 -11 42t-23.5 17t-23.5 5.5t-11 10.5v7q33 5 99 14t99 14l3 -3t3 -2q-6 -54 -8 -81q1 0 2 -0.5t2 -0.5q28 44 73 65.5t91 21.5q61 0 101.5 -32.5t40.5 -103.5z" />
    <glyph glyph-name="Omacron" unicode="&#x14c;" horiz-adv-x="808" 
d="M43 337q0 148 98 248.5t261 100.5q116 0 200 -49.5t123.5 -126.5t39.5 -171q0 -145 -98 -248t-266 -103q-171 0 -264.5 100t-93.5 249zM227 337q0 -333 179 -333q64 0 104.5 47t55.5 117t15 165q0 336 -179 336q-47 0 -82.5 -28.5t-55 -77t-28.5 -105t-9 -121.5zM557 833
l-7 -72q-120 11 -294 0l4 55q75 12 297 17z" />
    <glyph glyph-name="omacron" unicode="&#x14d;" horiz-adv-x="586" 
d="M33 221q0 99 69 165t190 66q129 0 195 -65.5t66 -164.5q0 -98 -69 -166.5t-192 -68.5q-126 0 -192.5 67t-66.5 167zM188 221q0 -220 106 -220q56 0 80.5 62t24.5 155q0 218 -106 218q-55 0 -80 -63.5t-25 -151.5zM449 618l-3 -71q-123 10 -299 0l1 54q78 12 301 17z" />
    <glyph glyph-name="Obreve" unicode="&#x14e;" horiz-adv-x="808" 
d="M43 337q0 148 98 248.5t261 100.5q116 0 200 -49.5t123.5 -126.5t39.5 -171q0 -145 -98 -248t-266 -103q-171 0 -264.5 100t-93.5 249zM227 337q0 -333 179 -333q64 0 104.5 47t55.5 117t15 165q0 336 -179 336q-47 0 -82.5 -28.5t-55 -77t-28.5 -105t-9 -121.5zM367 736
q-54 0 -83 26.5t-29 63.5q0 27 18 44t45 17q30 0 46 -23t16 -55q0 -24 -7 -44q59 0 114.5 28.5t95.5 75.5l11 -8q-48 -70 -110.5 -97.5t-116.5 -27.5z" />
    <glyph glyph-name="obreve" unicode="&#x14f;" horiz-adv-x="586" 
d="M33 221q0 99 69 165t190 66q129 0 195 -65.5t66 -164.5q0 -98 -69 -166.5t-192 -68.5q-126 0 -192.5 67t-66.5 167zM188 221q0 -220 106 -220q56 0 80.5 62t24.5 155q0 218 -106 218q-55 0 -80 -63.5t-25 -151.5zM288 513q-67 0 -113 48.5t-57 130.5l13 4
q28 -55 69.5 -80.5t86.5 -25.5q44 0 89.5 25t74.5 81l12 -2q-17 -91 -67 -136t-108 -45z" />
    <glyph glyph-name="Ohungarumlaut" unicode="&#x150;" horiz-adv-x="808" 
d="M43 337q0 148 98 248.5t261 100.5q116 0 200 -49.5t123.5 -126.5t39.5 -171q0 -145 -98 -248t-266 -103q-171 0 -264.5 100t-93.5 249zM227 337q0 -333 179 -333q64 0 104.5 47t55.5 117t15 165q0 336 -179 336q-47 0 -82.5 -28.5t-55 -77t-28.5 -105t-9 -121.5zM234 731
l-4 12q44 23 76 52t46 49.5t30 35t34 14.5q24 0 37 -13t13 -30q0 -12 -12 -28.5t-37 -35.5t-73 -34.5t-110 -21.5zM414 731l-3 12q43 23 75.5 52t46 49.5t29.5 35t34 14.5q24 0 37 -13t13 -30q0 -12 -12 -28.5t-36.5 -35.5t-73 -34.5t-110.5 -21.5z" />
    <glyph glyph-name="ohungarumlaut" unicode="&#x151;" horiz-adv-x="586" 
d="M33 221q0 99 69 165t190 66q129 0 195 -65.5t66 -164.5q0 -98 -69 -166.5t-192 -68.5q-126 0 -192.5 67t-66.5 167zM188 221q0 -220 106 -220q56 0 80.5 62t24.5 155q0 218 -106 218q-55 0 -80 -63.5t-25 -151.5zM308 514l-5 12q42 28 71.5 61t41 55.5t26 38t34.5 15.5
q24 0 37 -14t13 -32q0 -12 -12 -29.5t-35.5 -37.5t-68.5 -39t-102 -30zM133 514l-5 12q42 28 71.5 61t41 55.5t26 38t34.5 15.5q24 0 37 -14t13 -32q0 -12 -12 -29t-35.5 -37.5t-68.5 -39.5t-102 -30z" />
    <glyph glyph-name="OE" unicode="&#x152;" horiz-adv-x="1061" 
d="M712 674q189 0 251 28q4 -36 9 -76.5t10 -88.5t8 -76q-4 -2 -8 -2q-7 0 -16 19q-43 104 -87.5 141t-133.5 37h-73v-295h60q38 0 60.5 19t27.5 42t11.5 42t16.5 19h5v-270h-6q-11 0 -16.5 20.5t-9.5 44.5t-25 44.5t-58 20.5h-66v-247q0 -39 18.5 -59t64.5 -20h19
q84 0 140.5 51.5t106.5 172.5q7 19 17 19h3q3 -1 4 -1l-58 -280q-76 21 -196 21h-285q-48 -12 -105 -12q-171 0 -264.5 100t-93.5 249q0 148 98 248.5t261 100.5q59 0 103 -12h207zM406 4q43 0 74.5 23t31.5 67v485q0 41 -33 65.5t-77 24.5q-47 0 -82.5 -28.5t-55 -77
t-28.5 -105t-9 -121.5q0 -333 179 -333z" />
    <glyph glyph-name="oe" unicode="&#x153;" horiz-adv-x="900" 
d="M871 250q-1 -1 -2 -2.5t-3 -3t-3 -2.5h-307q0 -206 155 -206q75 0 143 49l8 -8q-73 -89 -202 -89q-127 0 -185 86q-65 -86 -184 -86q-126 0 -192 66t-66 167q0 99 69 164.5t190 65.5q125 0 188 -85q66 85 174 85q98 0 157.5 -58t59.5 -143zM291 436q-55 0 -80 -63.5
t-25 -151.5q0 -220 106 -220q56 0 80.5 62t24.5 155q0 218 -106 218zM651 436q-43 0 -67 -49t-28 -128q60 3 180 7q0 170 -85 170z" />
    <glyph glyph-name="Racute" unicode="&#x154;" horiz-adv-x="767" 
d="M292 656v-319h34q73 0 114.5 44t41.5 115q0 70 -42.5 115t-113.5 45h-34zM310 321h-18v-219q0 -35 15 -54.5t33 -23t33 -7t15 -11.5v-6h-354v6q0 7 15 11t33 8t33 24t15 54v476q0 32 -15 49t-32.5 20t-32.5 7t-15 12v7h310q308 0 308 -177q0 -82 -74 -131t-206 -49
q-13 0 -41 2q25 -30 70.5 -40t118.5 -8l123 -182q22 -33 44.5 -50t36 -18.5t22 -4t8.5 -11.5v-5h-226zM237 731l-4 12q44 23 76 52t46 49.5t30 35t34 14.5q24 0 37 -13t13 -30q0 -12 -12 -28.5t-37 -35.5t-73 -34.5t-110 -21.5z" />
    <glyph glyph-name="racute" unicode="&#x155;" horiz-adv-x="455" 
d="M101 83v263q0 33 -18 45.5t-36 15t-18 11.5v7l198 27l5 -6l-8 -107l4 -1q59 114 141 114q35 0 59 -19.5t24 -50.5q0 -27 -18.5 -43.5t-45.5 -16.5q-32 0 -56.5 23.5t-23.5 61.5q-39 -22 -65 -77v-251q0 -33 18 -45.5t36 -15t18 -10.5v-8h-281v8q0 7 10.5 10t23 5.5
t23 17.5t10.5 42zM101 507l-6 12q42 31 70 67t37.5 59t23.5 38.5t36 15.5q23 0 36 -13t13 -32q0 -31 -53.5 -76t-156.5 -71z" />
    <glyph glyph-name="Rcommaaccent" unicode="&#x156;" horiz-adv-x="767" 
d="M292 656v-319h34q73 0 114.5 44t41.5 115q0 70 -42.5 115t-113.5 45h-34zM310 321h-18v-219q0 -35 15 -54.5t33 -23t33 -7t15 -11.5v-6h-354v6q0 7 15 11t33 8t33 24t15 54v476q0 32 -15 49t-32.5 20t-32.5 7t-15 12v7h310q308 0 308 -177q0 -82 -74 -131t-206 -49
q-13 0 -41 2q25 -30 70.5 -40t118.5 -8l123 -182q22 -33 44.5 -50t36 -18.5t22 -4t8.5 -11.5v-5h-226zM453 -107q0 -40 -26.5 -88t-66.5 -80l-9 10q33 29 54.5 64t23.5 64q-19 -12 -39 -12q-25 0 -42 16t-17 41q0 22 16.5 39t40.5 17q32 0 48.5 -20t16.5 -51z" />
    <glyph glyph-name="rcommaaccent" unicode="&#x157;" horiz-adv-x="455" 
d="M101 83v263q0 33 -18 45.5t-36 15t-18 11.5v7l198 27l5 -6l-8 -107l4 -1q59 114 141 114q35 0 59 -19.5t24 -50.5q0 -27 -18.5 -43.5t-45.5 -16.5q-32 0 -56.5 23.5t-23.5 61.5q-39 -22 -65 -77v-251q0 -33 18 -45.5t36 -15t18 -10.5v-8h-281v8q0 7 10.5 10t23 5.5
t23 17.5t10.5 42zM235 -113q0 -40 -26.5 -88t-66.5 -80l-9 10q33 29 54.5 64t23.5 64q-20 -12 -39 -12q-25 0 -42 16t-17 41q0 22 16.5 39t40.5 17q32 0 48.5 -20t16.5 -51z" />
    <glyph glyph-name="Rcaron" unicode="&#x158;" horiz-adv-x="767" 
d="M292 656v-319h34q73 0 114.5 44t41.5 115q0 70 -42.5 115t-113.5 45h-34zM310 321h-18v-219q0 -35 15 -54.5t33 -23t33 -7t15 -11.5v-6h-354v6q0 7 15 11t33 8t33 24t15 54v476q0 32 -15 49t-32.5 20t-32.5 7t-15 12v7h310q308 0 308 -177q0 -82 -74 -131t-206 -49
q-13 0 -41 2q25 -30 70.5 -40t118.5 -8l123 -182q22 -33 44.5 -50t36 -18.5t22 -4t8.5 -11.5v-5h-226zM329 815l164 87l8 -9l-125 -134q-28 -31 -45 -31t-45 32l-131 130l8 11z" />
    <glyph glyph-name="rcaron" unicode="&#x159;" horiz-adv-x="455" 
d="M101 83v263q0 33 -18 45.5t-36 15t-18 11.5v7l198 27l5 -6l-8 -107l4 -1q59 114 141 114q35 0 59 -19.5t24 -50.5q0 -27 -18.5 -43.5t-45.5 -16.5q-32 0 -56.5 23.5t-23.5 61.5q-39 -22 -65 -77v-251q0 -33 18 -45.5t36 -15t18 -10.5v-8h-281v8q0 7 10.5 10t23 5.5
t23 17.5t10.5 42zM212 595l162 102l9 -9l-129 -156q-22 -26 -40 -26q-19 0 -41 26l-136 154l9 11z" />
    <glyph glyph-name="Sacute" unicode="&#x15a;" horiz-adv-x="620" 
d="M284 -12q-114 0 -183.5 41t-69.5 98q0 32 20 51t47 19q40 0 62 -27.5t22 -68.5q0 -42 -19 -74q45 -21 106 -21q69 0 117 35t48 95q0 44 -39 80t-94.5 62.5t-111 53.5t-94.5 68t-39 93q0 94 74.5 143.5t186.5 49.5q104 0 167.5 -37t63.5 -91q0 -31 -18.5 -48.5
t-45.5 -17.5q-35 0 -58 23.5t-23 63.5q0 41 15 75q-37 13 -88 13q-52 0 -87.5 -29.5t-35.5 -78.5q0 -37 39.5 -68.5t95.5 -57t112 -54.5t95.5 -75t39.5 -104q0 -102 -85.5 -157t-219.5 -55zM210 731l-4 12q44 23 76 52t46 49.5t30 35t34 14.5q24 0 37 -13t13 -30
q0 -12 -12 -28.5t-37 -35.5t-73 -34.5t-110 -21.5z" />
    <glyph glyph-name="sacute" unicode="&#x15b;" horiz-adv-x="464" 
d="M46 314q0 65 52.5 101.5t138.5 36.5q81 0 127.5 -26.5t46.5 -69.5q-1 -25 -16.5 -39t-36.5 -14q-29 0 -47 19t-18 49q0 31 12 56q-22 8 -45 8q-35 0 -59.5 -19.5t-24.5 -59.5q0 -25 27 -45.5t65 -36.5t76 -34t65 -48.5t27 -69.5q0 -66 -62 -100.5t-154 -34.5
q-89 0 -140 28.5t-51 70.5q0 26 16.5 40t38.5 14q32 0 50 -21t18 -52q0 -29 -14 -53q25 -11 62 -11q41 0 69 22t28 63q0 27 -26 48.5t-63 37.5t-73.5 33t-62.5 44.5t-26 62.5zM142 507l-6 12q42 31 70 67t37.5 59t23.5 38.5t36 15.5q23 0 36 -13t13 -32q0 -31 -53.5 -76
t-156.5 -71z" />
    <glyph glyph-name="Scircumflex" unicode="&#x15c;" horiz-adv-x="620" 
d="M284 -12q-114 0 -183.5 41t-69.5 98q0 32 20 51t47 19q40 0 62 -27.5t22 -68.5q0 -42 -19 -74q45 -21 106 -21q69 0 117 35t48 95q0 44 -39 80t-94.5 62.5t-111 53.5t-94.5 68t-39 93q0 94 74.5 143.5t186.5 49.5q104 0 167.5 -37t63.5 -91q0 -31 -18.5 -48.5
t-45.5 -17.5q-35 0 -58 23.5t-23 63.5q0 41 15 75q-37 13 -88 13q-52 0 -87.5 -29.5t-35.5 -78.5q0 -37 39.5 -68.5t95.5 -57t112 -54.5t95.5 -75t39.5 -104q0 -102 -85.5 -157t-219.5 -55zM466 728l-164 88l-166 -87l-8 11l131 131q27 31 45 31q17 0 45 -31l125 -133z" />
    <glyph glyph-name="scircumflex" unicode="&#x15d;" horiz-adv-x="464" 
d="M46 314q0 65 52.5 101.5t138.5 36.5q81 0 127.5 -26.5t46.5 -69.5q-1 -25 -16.5 -39t-36.5 -14q-29 0 -47 19t-18 49q0 31 12 56q-22 8 -45 8q-35 0 -59.5 -19.5t-24.5 -59.5q0 -25 27 -45.5t65 -36.5t76 -34t65 -48.5t27 -69.5q0 -66 -62 -100.5t-154 -34.5
q-89 0 -140 28.5t-51 70.5q0 26 16.5 40t38.5 14q32 0 50 -21t18 -52q0 -29 -14 -53q25 -11 62 -11q41 0 69 22t28 63q0 27 -26 48.5t-63 37.5t-73.5 33t-62.5 44.5t-26 62.5zM388 504l-164 104l-166 -104l-9 11l137 156q22 26 40 26q20 0 40 -26l131 -158z" />
    <glyph glyph-name="Scedilla" unicode="&#x15e;" horiz-adv-x="620" 
d="M589 200q0 -99 -80.5 -153.5t-208.5 -58.5l-23 -59q87 3 129.5 -23.5t42.5 -66.5q0 -41 -48.5 -71t-135.5 -30q-30 0 -50 2v16q68 0 101 24.5t33 51.5q0 25 -27.5 41t-79.5 17l41 98q-114 1 -183 41.5t-69 97.5q0 32 20 51t47 19q40 0 62 -27.5t22 -68.5q0 -42 -19 -74
q45 -21 106 -21q69 0 117 35t48 95q0 44 -39 80t-94.5 62.5t-111 53.5t-94.5 68t-39 93q0 94 74.5 143.5t186.5 49.5q104 0 167.5 -37t63.5 -91q0 -31 -18.5 -48.5t-45.5 -17.5q-35 0 -58 23.5t-23 63.5q0 41 15 75q-37 13 -88 13q-52 0 -87.5 -29.5t-35.5 -78.5
q0 -37 39.5 -68.5t95.5 -57t112 -54.5t95.5 -75t39.5 -104z" />
    <glyph glyph-name="scedilla" unicode="&#x15f;" horiz-adv-x="464" 
d="M46 314q0 65 52.5 101.5t138.5 36.5q81 0 127.5 -26.5t46.5 -69.5q-1 -25 -16.5 -39t-36.5 -14q-29 0 -47 19t-18 49q0 31 12 56q-22 8 -45 8q-35 0 -59.5 -19.5t-24.5 -59.5q0 -25 27 -45.5t65 -36.5t76 -34t65 -48.5t27 -69.5q0 -65 -60.5 -99.5t-150.5 -35.5l-24 -61
q87 3 129.5 -23.5t42.5 -66.5q0 -41 -48.5 -71t-135.5 -30q-30 0 -50 2v16q68 0 101 24.5t33 51.5q0 25 -27.5 41t-79.5 17l41 100q-83 2 -130.5 30t-47.5 69q0 26 16.5 40t38.5 14q32 0 50 -21t18 -52q0 -29 -14 -53q25 -11 62 -11q41 0 69 22t28 63q0 27 -26 48.5
t-63 37.5t-73.5 33t-62.5 44.5t-26 62.5z" />
    <glyph glyph-name="Scaron" unicode="&#x160;" horiz-adv-x="620" 
d="M284 -12q-114 0 -183.5 41t-69.5 98q0 32 20 51t47 19q40 0 62 -27.5t22 -68.5q0 -42 -19 -74q45 -21 106 -21q69 0 117 35t48 95q0 44 -39 80t-94.5 62.5t-111 53.5t-94.5 68t-39 93q0 94 74.5 143.5t186.5 49.5q104 0 167.5 -37t63.5 -91q0 -31 -18.5 -48.5
t-45.5 -17.5q-35 0 -58 23.5t-23 63.5q0 41 15 75q-37 13 -88 13q-52 0 -87.5 -29.5t-35.5 -78.5q0 -37 39.5 -68.5t95.5 -57t112 -54.5t95.5 -75t39.5 -104q0 -102 -85.5 -157t-219.5 -55zM292 815l164 87l8 -9l-125 -134q-28 -31 -45 -31t-45 32l-131 130l8 11z" />
    <glyph glyph-name="scaron" unicode="&#x161;" horiz-adv-x="464" 
d="M46 314q0 65 52.5 101.5t138.5 36.5q81 0 127.5 -26.5t46.5 -69.5q-1 -25 -16.5 -39t-36.5 -14q-29 0 -47 19t-18 49q0 31 12 56q-22 8 -45 8q-35 0 -59.5 -19.5t-24.5 -59.5q0 -25 27 -45.5t65 -36.5t76 -34t65 -48.5t27 -69.5q0 -66 -62 -100.5t-154 -34.5
q-89 0 -140 28.5t-51 70.5q0 26 16.5 40t38.5 14q32 0 50 -21t18 -52q0 -29 -14 -53q25 -11 62 -11q41 0 69 22t28 63q0 27 -26 48.5t-63 37.5t-73.5 33t-62.5 44.5t-26 62.5zM234 595l162 102l9 -9l-129 -156q-22 -26 -40 -26q-19 0 -41 26l-136 154l9 11z" />
    <glyph glyph-name="Tcommaaccent" unicode="&#x162;" horiz-adv-x="684" 
d="M341 674q207 0 305 22l27 -246q-2 -1 -5 -1q-11 0 -17 18q-37 105 -80.5 147t-123.5 42h-26q0 -92 0.5 -277t0.5 -277q0 -35 15.5 -54.5t33.5 -23t33.5 -7t15.5 -11.5v-6h-166l-25 -64q87 3 129.5 -23.5t42.5 -66.5q0 -41 -48.5 -71t-135.5 -30q-30 0 -50 2v16
q68 0 101 24.5t33 51.5q0 25 -27.5 41t-79.5 17l43 103h-173v6q0 7 15 11t33 7.5t33 23.5t15 55v553h-25q-80 0 -123.5 -42t-80.5 -147q-6 -18 -17 -18q-3 0 -5 1l27 246q98 -22 305 -22z" />
    <glyph glyph-name="tcommaaccent" unicode="&#x163;" horiz-adv-x="354" 
d="M350 36q-71 -48 -155 -48q-19 0 -43 4l-22 -56q87 3 129.5 -23.5t42.5 -66.5q0 -41 -48.5 -71t-135.5 -30q-30 0 -50 2v16q68 0 101 24.5t33 51.5q0 25 -27.5 41t-79.5 17l41 100q-63 21 -63 112v310h-60v15l64 6q40 10 76 60.5t45 97.5h17v-162h122v-17h-122v-319
q0 -71 58 -71q30 0 72 19z" />
    <glyph glyph-name="Tcaron" unicode="&#x164;" horiz-adv-x="684" 
d="M341 674q207 0 305 22l27 -246q-2 -1 -5 -1q-11 0 -17 18q-37 105 -80.5 147t-123.5 42h-26q0 -92 0.5 -277t0.5 -277q0 -35 15.5 -54.5t33.5 -23t33.5 -7t15.5 -11.5v-6h-356v6q0 7 15 11t33 7.5t33 23.5t15 55v553h-25q-80 0 -123.5 -42t-80.5 -147q-6 -18 -17 -18
q-3 0 -5 1l27 246q98 -22 305 -22zM345 815l164 87l8 -9l-125 -134q-28 -31 -45 -31t-45 32l-131 130l8 11z" />
    <glyph glyph-name="tcaron" unicode="&#x165;" horiz-adv-x="354" 
d="M350 36q-71 -48 -155 -48q-69 0 -95.5 31.5t-26.5 89.5v310h-60v15l64 6q40 10 76 60.5t45 97.5h17v-162h122v-17h-122v-319q0 -71 58 -71q30 0 72 19zM398 662q0 -40 -26.5 -88t-66.5 -80l-9 10q33 29 54.5 64t23.5 64q-19 -12 -39 -12q-25 0 -42 16t-17 41
q0 22 16.5 39t40.5 17q32 0 48.5 -20t16.5 -51z" />
    <glyph glyph-name="Tbar" unicode="&#x166;" horiz-adv-x="688" 
d="M343 674q207 0 305 22l27 -246q-2 -1 -5 -1q-11 0 -17 18q-37 105 -80.5 147t-123.5 42h-26v-282h154v-20h-154q0 -42 0.5 -126t0.5 -126q0 -35 15.5 -54.5t33.5 -23t33.5 -7t15.5 -11.5v-6h-356v6q0 7 15 11t33 7.5t33 23.5t15 55v251h-153v20h153v282h-25
q-80 0 -123.5 -42t-80.5 -147q-6 -18 -17 -18q-3 0 -5 1l27 246q98 -22 305 -22z" />
    <glyph glyph-name="tbar" unicode="&#x167;" horiz-adv-x="354" 
d="M350 36q-71 -48 -155 -48q-69 0 -95.5 31.5t-26.5 89.5v162h-57v17h57v131h-60v15l64 6q41 10 81.5 65t42.5 93h14v-162h122v-17h-122v-131h126v-17h-126v-171q0 -71 58 -71q30 0 72 19z" />
    <glyph glyph-name="Utilde" unicode="&#x168;" horiz-adv-x="830" 
d="M695 544v-250q0 -150 -63.5 -228t-210.5 -78q-146 0 -224.5 63t-78.5 192v336q0 31 -14 48t-31.5 20.5t-31.5 7.5t-14 11v7h350v-7q0 -8 -15 -12.5t-33.5 -9t-33.5 -27.5t-15 -63v-321q0 -108 41 -163.5t149 -55.5q95 0 150.5 67.5t55.5 190.5v272q0 44 -19 69.5
t-41 30.5t-41 10t-19 12v7h257v-7q0 -7 -18.5 -11.5t-40.5 -10t-40.5 -31t-18.5 -69.5zM590 864l10 -3q-10 -46 -36 -76.5t-66 -30.5q-23 0 -79.5 16.5t-78.5 16.5q-51 0 -75 -41l-11 4q9 42 33.5 76.5t67.5 34.5q20 0 80 -18t85 -18q45 0 70 39z" />
    <glyph glyph-name="utilde" unicode="&#x169;" horiz-adv-x="617" 
d="M526 448v-357q0 -27 11 -42t23.5 -17t23.5 -5.5t11 -10.5v-7q-33 -5 -99 -11.5t-99 -11.5q-1 0 -3 2l-3 3q6 54 8 81h-2l-2 1q-28 -43 -72 -64t-92 -21q-59 0 -99.5 32t-40.5 103v222q0 27 -10.5 41.5t-23 16.5t-23 5.5t-10.5 10.5v8l203 25l6 -6v-343q0 -74 63 -74
q24 0 48 16t40 43v258q0 34 -16.5 47.5t-33 16t-16.5 11.5v7l203 25zM472 648l10 -3q-10 -46 -36 -76.5t-66 -30.5q-23 0 -79.5 16.5t-78.5 16.5q-51 0 -75 -41l-11 4q9 42 33.5 76.5t67.5 34.5q20 0 80 -18t85 -18q45 0 70 39z" />
    <glyph glyph-name="Umacron" unicode="&#x16a;" horiz-adv-x="830" 
d="M695 544v-250q0 -150 -63.5 -228t-210.5 -78q-146 0 -224.5 63t-78.5 192v336q0 31 -14 48t-31.5 20.5t-31.5 7.5t-14 11v7h350v-7q0 -8 -15 -12.5t-33.5 -9t-33.5 -27.5t-15 -63v-321q0 -108 41 -163.5t149 -55.5q95 0 150.5 67.5t55.5 190.5v272q0 44 -19 69.5
t-41 30.5t-41 10t-19 12v7h257v-7q0 -7 -18.5 -11.5t-40.5 -10t-40.5 -31t-18.5 -69.5zM568 833l-7 -72q-120 11 -294 0l4 55q75 12 297 17z" />
    <glyph glyph-name="umacron" unicode="&#x16b;" horiz-adv-x="617" 
d="M526 448v-357q0 -27 11 -42t23.5 -17t23.5 -5.5t11 -10.5v-7q-33 -5 -99 -11.5t-99 -11.5q-1 0 -3 2l-3 3q6 54 8 81h-2l-2 1q-28 -43 -72 -64t-92 -21q-59 0 -99.5 32t-40.5 103v222q0 27 -10.5 41.5t-23 16.5t-23 5.5t-10.5 10.5v8l203 25l6 -6v-343q0 -74 63 -74
q24 0 48 16t40 43v258q0 34 -16.5 47.5t-33 16t-16.5 11.5v7l203 25zM462 618l-3 -71q-123 10 -299 0l1 54q78 12 301 17z" />
    <glyph glyph-name="Ubreve" unicode="&#x16c;" horiz-adv-x="830" 
d="M695 544v-250q0 -150 -63.5 -228t-210.5 -78q-146 0 -224.5 63t-78.5 192v336q0 31 -14 48t-31.5 20.5t-31.5 7.5t-14 11v7h350v-7q0 -8 -15 -12.5t-33.5 -9t-33.5 -27.5t-15 -63v-321q0 -108 41 -163.5t149 -55.5q95 0 150.5 67.5t55.5 190.5v272q0 44 -19 69.5
t-41 30.5t-41 10t-19 12v7h257v-7q0 -7 -18.5 -11.5t-40.5 -10t-40.5 -31t-18.5 -69.5zM446 721q-67 0 -113 48.5t-57 130.5l13 4q28 -55 69.5 -80.5t86.5 -25.5q44 0 89.5 25t74.5 81l12 -2q-17 -91 -67 -136t-108 -45z" />
    <glyph glyph-name="ubreve" unicode="&#x16d;" horiz-adv-x="617" 
d="M526 448v-357q0 -27 11 -42t23.5 -17t23.5 -5.5t11 -10.5v-7q-33 -5 -99 -11.5t-99 -11.5q-1 0 -3 2l-3 3q6 54 8 81h-2l-2 1q-28 -43 -72 -64t-92 -21q-59 0 -99.5 32t-40.5 103v222q0 27 -10.5 41.5t-23 16.5t-23 5.5t-10.5 10.5v8l203 25l6 -6v-343q0 -74 63 -74
q24 0 48 16t40 43v258q0 34 -16.5 47.5t-33 16t-16.5 11.5v7l203 25zM302 513q-67 0 -113 48.5t-57 130.5l13 4q28 -55 69.5 -80.5t86.5 -25.5q44 0 89.5 25t74.5 81l12 -2q-17 -91 -67 -136t-108 -45z" />
    <glyph glyph-name="Uring" unicode="&#x16e;" horiz-adv-x="830" 
d="M695 544v-250q0 -150 -63.5 -228t-210.5 -78q-146 0 -224.5 63t-78.5 192v336q0 31 -14 48t-31.5 20.5t-31.5 7.5t-14 11v7h350v-7q0 -8 -15 -12.5t-33.5 -9t-33.5 -27.5t-15 -63v-321q0 -108 41 -163.5t149 -55.5q95 0 150.5 67.5t55.5 190.5v272q0 44 -19 69.5
t-41 30.5t-41 10t-19 12v7h257v-7q0 -7 -18.5 -11.5t-40.5 -10t-40.5 -31t-18.5 -69.5zM442 712q-45 0 -76.5 30t-31.5 73t31.5 74.5t76.5 31.5q44 0 74.5 -31t30.5 -75q0 -43 -30.5 -73t-74.5 -30zM442 893q-32 0 -54.5 -23.5t-22.5 -54.5t22 -53.5t55 -22.5
q30 0 51.5 22.5t21.5 53.5q0 30 -22 54t-51 24z" />
    <glyph glyph-name="uring" unicode="&#x16f;" horiz-adv-x="617" 
d="M526 448v-357q0 -27 11 -42t23.5 -17t23.5 -5.5t11 -10.5v-7q-33 -5 -99 -11.5t-99 -11.5q-1 0 -3 2l-3 3q6 54 8 81h-2l-2 1q-28 -43 -72 -64t-92 -21q-59 0 -99.5 32t-40.5 103v222q0 27 -10.5 41.5t-23 16.5t-23 5.5t-10.5 10.5v8l203 25l6 -6v-343q0 -74 63 -74
q24 0 48 16t40 43v258q0 34 -16.5 47.5t-33 16t-16.5 11.5v7l203 25zM305 502q-45 0 -76.5 30t-31.5 73t31.5 74.5t76.5 31.5q44 0 74.5 -31t30.5 -75q0 -43 -30.5 -73t-74.5 -30zM305 683q-32 0 -54.5 -23.5t-22.5 -54.5t22 -53.5t55 -22.5q30 0 51.5 22.5t21.5 53.5
q0 30 -22 54t-51 24z" />
    <glyph glyph-name="Uhungarumlaut" unicode="&#x170;" horiz-adv-x="830" 
d="M695 544v-250q0 -150 -63.5 -228t-210.5 -78q-146 0 -224.5 63t-78.5 192v336q0 31 -14 48t-31.5 20.5t-31.5 7.5t-14 11v7h350v-7q0 -8 -15 -12.5t-33.5 -9t-33.5 -27.5t-15 -63v-321q0 -108 41 -163.5t149 -55.5q95 0 150.5 67.5t55.5 190.5v272q0 44 -19 69.5
t-41 30.5t-41 10t-19 12v7h257v-7q0 -7 -18.5 -11.5t-40.5 -10t-40.5 -31t-18.5 -69.5zM254 731l-4 12q44 23 76 52t46 49.5t30 35t34 14.5q24 0 37 -13t13 -30q0 -12 -12 -28.5t-37 -35.5t-73 -34.5t-110 -21.5zM434 731l-3 12q43 23 75.5 52t46 49.5t29.5 35t34 14.5
q24 0 37 -13t13 -30q0 -12 -12 -28.5t-36.5 -35.5t-73 -34.5t-110.5 -21.5z" />
    <glyph glyph-name="uhungarumlaut" unicode="&#x171;" horiz-adv-x="617" 
d="M526 448v-357q0 -27 11 -42t23.5 -17t23.5 -5.5t11 -10.5v-7q-33 -5 -99 -11.5t-99 -11.5q-1 0 -3 2l-3 3q6 54 8 81h-2l-2 1q-28 -43 -72 -64t-92 -21q-59 0 -99.5 32t-40.5 103v222q0 27 -10.5 41.5t-23 16.5t-23 5.5t-10.5 10.5v8l203 25l6 -6v-343q0 -74 63 -74
q24 0 48 16t40 43v258q0 34 -16.5 47.5t-33 16t-16.5 11.5v7l203 25zM302 514l-5 12q42 28 71.5 61t41 55.5t26 38t34.5 15.5q24 0 37 -14t13 -32q0 -12 -12 -29.5t-35.5 -37.5t-68.5 -39t-102 -30zM127 514l-5 12q42 28 71.5 61t41 55.5t26 38t34.5 15.5q24 0 37 -14
t13 -32q0 -12 -12 -29t-35.5 -37.5t-68.5 -39.5t-102 -30z" />
    <glyph glyph-name="Uogonek" unicode="&#x172;" horiz-adv-x="830" 
d="M695 544v-250q0 -142 -56.5 -219.5t-186.5 -85.5q-36 -30 -55.5 -65.5t-19.5 -63.5q0 -79 99 -79q39 0 65 6q1 -2 5 -11q-61 -37 -141 -37q-55 0 -84 23t-29 63q0 35 32 79.5t101 83.5h-4q-146 0 -224.5 63t-78.5 192v336q0 31 -14 48t-31.5 20.5t-31.5 7.5t-14 11v7h350
v-7q0 -8 -15 -12.5t-33.5 -9t-33.5 -27.5t-15 -63v-321q0 -108 41 -163.5t149 -55.5q95 0 150.5 67.5t55.5 190.5v272q0 44 -19 69.5t-41 30.5t-41 10t-19 12v7h257v-7q0 -7 -18.5 -11.5t-40.5 -10t-40.5 -31t-18.5 -69.5z" />
    <glyph glyph-name="uogonek" unicode="&#x173;" horiz-adv-x="617" 
d="M526 448v-357q0 -27 11 -42t23.5 -17t23.5 -5.5t11 -10.5v-7q-28 -5 -78.5 -9.5t-67.5 -6.5q-33 -29 -50 -62.5t-17 -59.5q0 -79 99 -79q39 0 65 6q0 -2 5 -11q-61 -37 -141 -37q-55 0 -84 23t-29 63q0 33 28 74t88 79l-16 -3q-1 0 -3 2l-3 3q6 54 8 81h-2l-2 1
q-28 -43 -72 -64t-92 -21q-59 0 -99.5 32t-40.5 103v222q0 27 -10.5 41.5t-23 16.5t-23 5.5t-10.5 10.5v8l203 25l6 -6v-343q0 -74 63 -74q24 0 48 16t40 43v258q0 34 -16.5 47.5t-33 16t-16.5 11.5v7l203 25z" />
    <glyph glyph-name="Wcircumflex" unicode="&#x174;" horiz-adv-x="1078" 
d="M804 212h2l110 347q10 34 10 44q0 20 -14.5 32t-32.5 14.5t-32.5 6t-14.5 10.5v8h238v-7q0 -8 -15 -11.5t-35 -7t-43.5 -25.5t-36.5 -61l-191 -571q-8 0 -24 -2l-199 536h-3l-185 -534q-16 -2 -24 -2l-215 594q-13 37 -37 53t-40.5 19.5t-16.5 11.5v7h326v-7
q0 -7 -12 -10.5t-26 -5.5t-26 -12t-12 -27q2 -24 6 -34l132 -372h2l125 367q6 19 6 32q0 18 -13 28t-29 13t-29 8t-13 13v7h288v-6q0 -9 -11.5 -13t-25 -5.5t-25 -11t-11.5 -27.5q0 -11 8 -32zM721 722l-164 88l-166 -87l-8 11l131 131q27 31 45 31q17 0 45 -31l125 -133z
" />
    <glyph glyph-name="wcircumflex" unicode="&#x175;" horiz-adv-x="796" 
d="M312 160l64 177q9 24 9 39t-9.5 23.5t-20.5 11t-20.5 7.5t-9.5 13v5h242v-7q0 -6 -9 -9t-19.5 -4.5t-19.5 -9.5t-9 -22q0 -18 9 -39l78 -183h2l53 153q16 45 16 58q0 22 -17 32t-34 13t-17 10v8h192v-8q0 -6 -12.5 -9.5t-29.5 -7t-38 -24.5t-35 -58l-130 -338
q-10 -2 -16 -2q-83 184 -142 324h-2l-128 -323q-3 0 -8.5 -0.5t-8.5 -0.5l-150 355q-12 29 -28 46t-28 21t-20.5 8t-8.5 11v6h285v-8q0 -6 -9.5 -9.5t-21.5 -5.5t-21.5 -11t-9.5 -25q0 -11 9 -34l71 -183h2zM576 504l-164 104l-166 -104l-9 11l137 156q22 26 40 26
q20 0 40 -26l131 -158z" />
    <glyph glyph-name="Ycircumflex" unicode="&#x176;" horiz-adv-x="704" 
d="M418 326l4 1l103 211q19 38 19 59q0 28 -23 40.5t-46 16.5t-23 12v7h247v-7q0 -8 -14 -12t-34.5 -9t-48.5 -29.5t-49 -66.5l-125 -244v-203q0 -35 15.5 -54.5t34 -23t34 -7t15.5 -11.5v-6h-356v6q0 7 15 11t32.5 7.5t32.5 23.5t15 55v176l-165 304q-15 27 -34 43.5
t-32.5 20.5t-23 8.5t-9.5 11.5v6h342v-7q0 -8 -19.5 -11.5t-39 -13t-19.5 -29.5q0 -13 10 -30zM530 728l-164 88l-166 -87l-8 11l131 131q27 31 45 31q17 0 45 -31l125 -133z" />
    <glyph glyph-name="ycircumflex" unicode="&#x177;" horiz-adv-x="552" 
d="M88 -224q-40 0 -63 19t-23 51q0 26 19.5 43.5t46.5 17.5q37 0 61 -26.5t29 -60.5q44 24 96 136l14 36h-13l-169 353q-13 27 -29.5 43.5t-28.5 20t-20 8t-8 11.5v7h298v-8q0 -6 -10.5 -10t-22.5 -6t-22.5 -11t-10.5 -24q0 -12 9 -33l91 -200h2l69 182q12 30 12 46
q0 19 -11 29t-23.5 12t-23.5 5.5t-11 9.5v8h200v-7q0 -5 -13 -9t-31 -10.5t-42.5 -33.5t-42.5 -71l-147 -354q-72 -174 -182 -174zM463 504l-164 104l-166 -104l-9 11l137 156q22 26 40 26q20 0 40 -26l131 -158z" />
    <glyph glyph-name="Ydieresis" unicode="&#x178;" horiz-adv-x="704" 
d="M418 326l4 1l103 211q19 38 19 59q0 28 -23 40.5t-46 16.5t-23 12v7h247v-7q0 -8 -14 -12t-34.5 -9t-48.5 -29.5t-49 -66.5l-125 -244v-203q0 -35 15.5 -54.5t34 -23t34 -7t15.5 -11.5v-6h-356v6q0 7 15 11t32.5 7.5t32.5 23.5t15 55v176l-165 304q-15 27 -34 43.5
t-32.5 20.5t-23 8.5t-9.5 11.5v6h342v-7q0 -8 -19.5 -11.5t-39 -13t-19.5 -29.5q0 -13 10 -30zM258 870q28 0 47.5 -19.5t19.5 -46.5q0 -28 -19.5 -48t-47.5 -20t-47.5 20t-19.5 48q0 27 19.5 46.5t47.5 19.5zM455 870q28 0 48 -19.5t20 -46.5q0 -28 -19.5 -48t-48.5 -20
q-28 0 -47 19.5t-19 48.5q0 27 19 46.5t47 19.5z" />
    <glyph glyph-name="Zacute" unicode="&#x179;" horiz-adv-x="691" 
d="M440 655h-130q-95 0 -141 -39t-85 -147q-6 -17 -17 -17h-5l35 249q85 -27 215 -27h321v-17q-49 -76 -412 -640h160q100 0 153 46.5t109 184.5q11 18 19 19h5l-57 -290q-77 23 -201 23h-389v15zM291 731l-4 12q44 23 76 52t46 49.5t30 35t34 14.5q24 0 37 -13t13 -30
q0 -12 -12 -28.5t-37 -35.5t-73 -34.5t-110 -21.5z" />
    <glyph glyph-name="zacute" unicode="&#x17a;" horiz-adv-x="496" 
d="M290 419h-51q-67 0 -102 -25.5t-73 -105.5q-8 -17 -15 -17q-2 0 -4 0.5t-3 0.5l28 179q45 -16 164 -16h224v-14q-45 -68 -135.5 -203t-135.5 -203h77q75 0 114 30t77 121q10 20 15 20q1 0 3.5 -0.5t3.5 -0.5l-38 -202q-68 17 -178 17h-245v12q182 272 274 407zM189 507
l-6 12q42 31 70 67t37.5 59t23.5 38.5t36 15.5q23 0 36 -13t13 -32q0 -31 -53.5 -76t-156.5 -71z" />
    <glyph glyph-name="Zdotaccent" unicode="&#x17b;" horiz-adv-x="691" 
d="M440 655h-130q-95 0 -141 -39t-85 -147q-6 -17 -17 -17h-5l35 249q85 -27 215 -27h321v-17q-49 -76 -412 -640h160q100 0 153 46.5t109 184.5q11 18 19 19h5l-57 -290q-77 23 -201 23h-389v15zM373 886q30 0 51.5 -21.5t21.5 -50.5q0 -31 -21 -53t-52 -22q-29 0 -50.5 22
t-21.5 53q0 29 21.5 50.5t50.5 21.5z" />
    <glyph glyph-name="zdotaccent" unicode="&#x17c;" horiz-adv-x="496" 
d="M290 419h-51q-67 0 -102 -25.5t-73 -105.5q-8 -17 -15 -17q-2 0 -4 0.5t-3 0.5l28 179q45 -16 164 -16h224v-14q-45 -68 -135.5 -203t-135.5 -203h77q75 0 114 30t77 121q10 20 15 20q1 0 3.5 -0.5t3.5 -0.5l-38 -202q-68 17 -178 17h-245v12q182 272 274 407zM269 680
q30 0 51.5 -21.5t21.5 -50.5q0 -31 -21 -53t-52 -22q-29 0 -50.5 22t-21.5 53q0 29 21.5 50.5t50.5 21.5z" />
    <glyph glyph-name="Zcaron" unicode="&#x17d;" horiz-adv-x="691" 
d="M440 655h-130q-95 0 -141 -39t-85 -147q-6 -17 -17 -17h-5l35 249q85 -27 215 -27h321v-17q-49 -76 -412 -640h160q100 0 153 46.5t109 184.5q11 18 19 19h5l-57 -290q-77 23 -201 23h-389v15zM371 815l164 87l8 -9l-125 -134q-28 -31 -45 -31t-45 32l-131 130l8 11z" />
    <glyph glyph-name="zcaron" unicode="&#x17e;" horiz-adv-x="496" 
d="M290 419h-51q-67 0 -102 -25.5t-73 -105.5q-8 -17 -15 -17q-2 0 -4 0.5t-3 0.5l28 179q45 -16 164 -16h224v-14q-45 -68 -135.5 -203t-135.5 -203h77q75 0 114 30t77 121q10 20 15 20q1 0 3.5 -0.5t3.5 -0.5l-38 -202q-68 17 -178 17h-245v12q182 272 274 407zM269 595
l162 102l9 -9l-129 -156q-22 -26 -40 -26q-19 0 -41 26l-136 154l9 11z" />
    <glyph glyph-name="longs" unicode="&#x17f;" horiz-adv-x="322" 
d="M228 566q0 -80 0.5 -240.5t0.5 -240.5q0 -27 11.5 -42.5t25 -19t25 -7.5t11.5 -10v-6h-286v6q0 7 17.5 10.5t35.5 19.5t18 52v330h-65v16q44 2 66 4q1 128 75 212t197 84q57 0 94.5 -21t37.5 -63q0 -27 -18 -44.5t-48 -17.5q-36 0 -58.5 27.5t-22.5 69.5q0 16 4 31
q-56 -3 -88.5 -40t-32.5 -110z" />
    <glyph glyph-name="florin" unicode="&#x192;" 
d="M375 349q-10 -85 -21.5 -146.5t-32.5 -124.5t-48 -102t-69.5 -63.5t-96.5 -24.5q-40 0 -70 15.5t-30 49.5q0 22 16.5 38t39.5 16q39 0 62 -25.5t25 -73.5q14 7 24 27t17.5 62.5t12.5 84t14 122t18 145.5h-93v20h96q9 59 28 111.5t48.5 96.5t74 70t97.5 26
q41 0 71.5 -20.5t30.5 -55.5q0 -22 -14.5 -38t-40.5 -16q-30 0 -52.5 21.5t-22.5 63.5q0 11 4 29q-55 -7 -86 -288h108v-20h-110z" />
    <glyph glyph-name="AEacute" unicode="&#x1fc;" horiz-adv-x="1024" 
d="M642 343v-247q0 -39 18.5 -59t64.5 -20h14q84 0 140.5 51.5t106.5 172.5q7 19 17 19h3q3 -1 4 -1l-58 -280q-76 21 -196 21h-373v7q0 7 15 10.5t33.5 7.5t33.5 24t15 56v147h-237l-105 -152q-18 -26 -18 -44t23 -25.5t46.5 -11.5t23.5 -12v-7h-236v5q0 9 11 13.5t28.5 9
t47.5 29t61 66.5l352 481q-5 21 -21 32.5t-31.5 13.5t-28 5.5t-12.5 11.5v7h293q189 0 251 28q4 -36 9 -76.5t10 -88.5t8 -76q-4 -2 -8 -2q-7 0 -16 19q-43 104 -87.5 141t-133.5 37h-68v-295h55q38 0 60.5 19t27.5 42t11.5 42t16.5 19h5v-270h-6q-11 0 -16.5 20.5
t-9.5 44.5t-25 44.5t-58 20.5h-61zM480 576h-3l-222 -307h225v307zM569 731l-4 12q44 23 76 52t46 49.5t30 35t34 14.5q24 0 37 -13t13 -30q0 -12 -12 -28.5t-37 -35.5t-73 -34.5t-110 -21.5z" />
    <glyph glyph-name="aeacute" unicode="&#x1fd;" horiz-adv-x="813" 
d="M784 249l-8 -8h-305q0 -203 153 -203q74 0 142 49l9 -9q-74 -88 -203 -88q-135 0 -201 82q-93 -88 -214 -88q-58 0 -94 28.5t-36 84.5q0 43 22 75t58.5 49.5t77.5 25.5t85 8q28 0 51 -3q1 19 1 69q0 51 -17.5 81.5t-67.5 30.5q-37 0 -66 -18q26 -26 26 -65
q0 -29 -19.5 -51t-53.5 -22q-26 0 -40.5 15.5t-14.5 38.5q0 44 45 82t142 38q56 0 97.5 -20t59.5 -56q54 76 157 76q93 0 147.5 -48t63.5 -126zM238 29q61 0 123 56q-39 56 -39 151h-18q-68 0 -99.5 -31.5t-31.5 -82.5q0 -93 65 -93zM563 436q-42 0 -65 -49.5t-26 -128.5
q61 3 176 7v25q0 56 -21 101t-64 45zM369 507l-6 12q42 31 70 67t37.5 59t23.5 38.5t36 15.5q23 0 36 -13t13 -32q0 -31 -53.5 -76t-156.5 -71z" />
    <glyph glyph-name="Oslashacute" unicode="&#x1fe;" horiz-adv-x="803" 
d="M327 731l-4 12q44 23 76 52t46 49.5t30 35t34 14.5q24 0 37 -13t13 -30q0 -12 -12 -28.5t-37 -35.5t-73 -34.5t-110 -21.5zM401 686q113 0 198 -50q7 9 14 19t15 22t13 19q13 -8 14 -9q-7 -10 -20.5 -30t-20.5 -29q74 -46 112 -122.5t38 -166.5q0 -146 -97.5 -248.5
t-265.5 -102.5q-118 0 -201 50l-48 -67l-14 10q8 12 24 34t23 32q-70 47 -106 122.5t-36 167.5q0 148 97.5 248.5t260.5 100.5zM581 333q0 122 -37 196q-53 -77 -152.5 -218t-126.5 -180q42 -128 140 -128q176 0 176 330zM402 668q-60 0 -101 -44.5t-57.5 -109t-16.5 -144.5
q0 -145 32 -217l279 396q-40 119 -136 119z" />
    <glyph glyph-name="oslashacute" unicode="&#x1ff;" horiz-adv-x="586" 
d="M226 507l-6 12q42 31 70 67t37.5 59t23.5 38.5t36 15.5q23 0 36 -13t13 -32q0 -31 -53.5 -76t-156.5 -71zM292 451q78 0 134 -29l30 43l14 -9q-26 -37 -29 -41q56 -30 84 -81t28 -112q0 -98 -69 -166t-193 -68q-75 0 -136 28l-35 -49l-14 10q6 9 17.5 24.5t16.5 22.5
q-107 62 -107 197q0 99 69 164.5t190 65.5zM292 436q-29 0 -50.5 -18.5t-33 -50.5t-16.5 -66.5t-5 -73.5q0 -60 16 -114l174 241q-25 82 -85 82zM399 218q0 67 -17 115q-57 -81 -173 -243q24 -89 85 -89q29 0 50.5 18.5t33 50.5t16.5 68.5t5 79.5z" />
    <glyph glyph-name="Scommaaccent" unicode="&#x218;" horiz-adv-x="620" 
d="M284 -12q-114 0 -183.5 41t-69.5 98q0 32 20 51t47 19q40 0 62 -27.5t22 -68.5q0 -42 -19 -74q45 -21 106 -21q69 0 117 35t48 95q0 44 -39 80t-94.5 62.5t-111 53.5t-94.5 68t-39 93q0 94 74.5 143.5t186.5 49.5q104 0 167.5 -37t63.5 -91q0 -31 -18.5 -48.5
t-45.5 -17.5q-35 0 -58 23.5t-23 63.5q0 41 15 75q-37 13 -88 13q-52 0 -87.5 -29.5t-35.5 -78.5q0 -37 39.5 -68.5t95.5 -57t112 -54.5t95.5 -75t39.5 -104q0 -102 -85.5 -157t-219.5 -55zM361 -113q0 -40 -26.5 -88t-66.5 -80l-9 10q33 29 54.5 64t23.5 64
q-20 -12 -39 -12q-25 0 -42 16t-17 41q0 22 16.5 39t40.5 17q32 0 48.5 -20t16.5 -51z" />
    <glyph glyph-name="scommaaccent" unicode="&#x219;" horiz-adv-x="464" 
d="M46 314q0 65 52.5 101.5t138.5 36.5q81 0 127.5 -26.5t46.5 -69.5q-1 -25 -16.5 -39t-36.5 -14q-29 0 -47 19t-18 49q0 31 12 56q-22 8 -45 8q-35 0 -59.5 -19.5t-24.5 -59.5q0 -25 27 -45.5t65 -36.5t76 -34t65 -48.5t27 -69.5q0 -66 -62 -100.5t-154 -34.5
q-89 0 -140 28.5t-51 70.5q0 26 16.5 40t38.5 14q32 0 50 -21t18 -52q0 -29 -14 -53q25 -11 62 -11q41 0 69 22t28 63q0 27 -26 48.5t-63 37.5t-73.5 33t-62.5 44.5t-26 62.5zM288 -113q0 -40 -26.5 -88t-66.5 -80l-9 10q33 29 54.5 64t23.5 64q-20 -12 -39 -12
q-25 0 -42 16t-17 41q0 22 16.5 39t40.5 17q32 0 48.5 -20t16.5 -51z" />
    <glyph glyph-name="uni021A" unicode="&#x21a;" horiz-adv-x="684" 
d="M341 674q207 0 305 22l27 -246q-2 -1 -5 -1q-11 0 -17 18q-37 105 -80.5 147t-123.5 42h-26q0 -92 0.5 -277t0.5 -277q0 -35 15.5 -54.5t33.5 -23t33.5 -7t15.5 -11.5v-6h-356v6q0 7 15 11t33 7.5t33 23.5t15 55v553h-25q-80 0 -123.5 -42t-80.5 -147q-6 -18 -17 -18
q-3 0 -5 1l27 246q98 -22 305 -22zM410 -113q0 -40 -26.5 -88t-66.5 -80l-9 10q33 29 54.5 64t23.5 64q-20 -12 -39 -12q-25 0 -42 16t-17 41q0 22 16.5 39t40.5 17q32 0 48.5 -20t16.5 -51z" />
    <glyph glyph-name="uni021B" unicode="&#x21b;" horiz-adv-x="354" 
d="M350 36q-71 -48 -155 -48q-69 0 -95.5 31.5t-26.5 89.5v310h-60v15l64 6q40 10 76 60.5t45 97.5h17v-162h122v-17h-122v-319q0 -71 58 -71q30 0 72 19zM221 -113q0 -40 -26.5 -88t-66.5 -80l-9 10q33 29 54.5 64t23.5 64q-20 -12 -39 -12q-25 0 -42 16t-17 41
q0 22 16.5 39t40.5 17q32 0 48.5 -20t16.5 -51z" />
    <glyph glyph-name="schwa" unicode="&#x259;" horiz-adv-x="527" 
d="M33 193l8 7h307q0 202 -154 202q-30 0 -70.5 -14t-71.5 -35l-9 9q74 89 207 89q121 0 185 -62t64 -165q0 -100 -68 -168t-181 -68q-98 0 -157.5 60t-59.5 145zM253 3q43 0 67 50.5t28 129.5q-120 -4 -180 -7q0 -173 85 -173z" />
    <glyph glyph-name="primemod" unicode="&#x2b9;" horiz-adv-x="253" 
d="M31 380l93 250q24 65 70 65q16 0 29.5 -12.5t13.5 -29.5q0 -29 -25 -61l-168 -219q-11 5 -13 7z" />
    <glyph glyph-name="circumflex" unicode="&#x2c6;" horiz-adv-x="537" 
d="M433 504l-164 104l-166 -104l-9 11l137 156q22 26 40 26q20 0 40 -26l131 -158z" />
    <glyph glyph-name="caron" unicode="&#x2c7;" horiz-adv-x="537" 
d="M267 595l162 102l9 -9l-129 -156q-22 -26 -40 -26q-19 0 -41 26l-136 154l9 11z" />
    <glyph glyph-name="breve" unicode="&#x2d8;" horiz-adv-x="537" 
d="M264 513q-67 0 -113 48.5t-57 130.5l13 4q28 -55 69.5 -80.5t86.5 -25.5q44 0 89.5 25t74.5 81l12 -2q-17 -91 -67 -136t-108 -45z" />
    <glyph glyph-name="dotaccent" unicode="&#x2d9;" horiz-adv-x="497" 
d="M250 680q30 0 51.5 -21.5t21.5 -50.5q0 -31 -21 -53t-52 -22q-29 0 -50.5 22t-21.5 53q0 29 21.5 50.5t50.5 21.5z" />
    <glyph glyph-name="ring" unicode="&#x2da;" horiz-adv-x="537" 
d="M270 502q-45 0 -76.5 30t-31.5 73t31.5 74.5t76.5 31.5q44 0 74.5 -31t30.5 -75q0 -43 -30.5 -73t-74.5 -30zM270 683q-32 0 -54.5 -23.5t-22.5 -54.5t22 -53.5t55 -22.5q30 0 51.5 22.5t21.5 53.5q0 30 -22 54t-51 24z" />
    <glyph glyph-name="ogonek" unicode="&#x2db;" horiz-adv-x="524" 
d="M427 37l4 -8q-42 -31 -64.5 -69.5t-22.5 -68.5q0 -79 99 -79q39 0 65 6q0 -2 5 -11q-61 -37 -141 -37q-55 0 -84 23t-29 63q0 39 40.5 89t127.5 92z" />
    <glyph glyph-name="tilde" unicode="&#x2dc;" horiz-adv-x="559" 
d="M438 648l10 -3q-10 -46 -36 -76.5t-66 -30.5q-23 0 -79.5 16.5t-78.5 16.5q-51 0 -75 -41l-11 4q9 42 33.5 76.5t67.5 34.5q20 0 80 -18t85 -18q45 0 70 39z" />
    <glyph glyph-name="hungarumlaut" unicode="&#x2dd;" horiz-adv-x="560" 
d="M267 514l-5 12q42 28 71.5 61t41 55.5t26 38t34.5 15.5q24 0 37 -14t13 -32q0 -12 -12 -29.5t-35.5 -37.5t-68.5 -39t-102 -30zM92 514l-5 12q42 28 71.5 61t41 55.5t26 38t34.5 15.5q24 0 37 -14t13 -32q0 -12 -12 -29t-35.5 -37.5t-68.5 -39.5t-102 -30z" />
    <glyph glyph-name="tonos" unicode="&#x384;" horiz-adv-x="537" 
d="M204 501l-6 12q39 33 64.5 71.5t33.5 62.5t21.5 40t36.5 16t36 -12t13 -30q0 -33 -50.5 -81t-148.5 -79z" />
    <glyph glyph-name="dieresistonos" unicode="&#x385;" horiz-adv-x="568" 
d="M82 602q0 26 19 45t46 19t46 -19t19 -45q0 -28 -19 -47t-46 -19t-46 19t-19 47zM363 602q0 26 18.5 45t45.5 19t46.5 -19t19.5 -45q0 -28 -19.5 -47t-46.5 -19t-45.5 19t-18.5 47zM195 498l-8 10q33 41 52 85t23.5 70t17.5 43t40 17q20 0 32 -12t12 -30
q0 -33 -42.5 -85.5t-126.5 -97.5z" />
    <glyph glyph-name="Alphatonos" unicode="&#x386;" horiz-adv-x="758" 
d="M483 115l-36 96h-250l-31 -86q-11 -27 -11 -46q0 -31 24 -44.5t48 -17t24 -11.5v-6h-246v6q0 7 15 11.5t36 9t45.5 28t40.5 65.5q27 72 82 216t82 217q9 24 9 40q0 23 -14.5 37t-32.5 17t-32.5 7.5t-14.5 11.5v8h217l217 -577q15 -40 39 -58.5t39.5 -22t15.5 -10.5v-6
h-320v6q0 7 17.5 10.5t34.5 13.5t17 32q0 11 -15 53zM325 543h-6l-116 -315h238zM6 489l-6 12q39 33 64.5 71.5t33.5 62.5t21.5 40t36.5 16t36 -12t13 -30q0 -33 -50.5 -81t-148.5 -79z" />
    <glyph glyph-name="anoteleia" unicode="&#x387;" horiz-adv-x="237" 
d="M46 343q0 31 21 52t51 21q31 0 52 -21t21 -52q0 -30 -21 -51t-52 -21q-30 0 -51 21t-21 51z" />
    <glyph glyph-name="Epsilontonos" unicode="&#x388;" horiz-adv-x="700" 
d="M290 343v-247q0 -39 18.5 -59t64.5 -20h42q84 0 140.5 51.5t106.5 172.5q7 19 17 19h3q3 -1 4 -1l-58 -280q-76 21 -196 21h-401v7q0 7 15 10.5t33.5 7.5t33.5 24t15 56v473q0 32 -15 50t-33 20.5t-33 6.5t-15 12v7h321q189 0 251 28q4 -36 9 -76.5t10 -88.5t8 -76
q-4 -2 -8 -2q-7 0 -16 19q-43 104 -87.5 141t-133.5 37h-96v-295h83q38 0 60.5 19t27.5 42t11.5 42t16.5 19h5v-270h-6q-11 0 -16.5 20.5t-9.5 44.5t-25 44.5t-58 20.5h-89zM-191 489l-6 12q39 33 64.5 71.5t33.5 62.5t21.5 40t36.5 16t36 -12t13 -30q0 -33 -50.5 -81
t-148.5 -79z" />
    <glyph glyph-name="Etatonos" unicode="&#x389;" horiz-adv-x="855" 
d="M724 580v-475q0 -36 15.5 -56t33.5 -23.5t33.5 -7.5t15.5 -12v-6h-348v6q0 7 14 11t30.5 8.5t30.5 27t14 60.5v234h-275v-244q0 -29 9.5 -47t23 -24.5t26.5 -9.5t22.5 -6.5t9.5 -9.5v-6h-348v6q0 8 15 11.5t32.5 7.5t32.5 23.5t15 54.5v477q0 31 -15 48.5t-32.5 20.5
t-32.5 7t-15 11v7h350v-7q0 -7 -14.5 -11t-32 -7.5t-32 -20.5t-14.5 -48v-216h275v216q0 31 -14 48.5t-30.5 20.5t-30.5 7t-14 11v7h346v-7q0 -7 -15 -11t-33 -7.5t-33 -20.5t-15 -48zM-195 489l-6 12q39 33 64.5 71.5t33.5 62.5t21.5 40t36.5 16t36 -12t13 -30
q0 -33 -50.5 -81t-148.5 -79z" />
    <glyph glyph-name="Iotatonos" unicode="&#x38a;" horiz-adv-x="417" 
d="M296 580v-477q0 -35 15.5 -55t33.5 -23.5t33.5 -7t15.5 -11.5v-6h-356v6q0 6 10 9.5t24 6.5t28 9.5t24 24.5t10 47v477q0 30 -15 47.5t-33 20.5t-33 7.5t-15 11.5v7h356v-7q0 -7 -15.5 -11t-33.5 -7.5t-33.5 -20.5t-15.5 -48zM-184 489l-6 12q39 33 64.5 71.5t33.5 62.5
t21.5 40t36.5 16t36 -12t13 -30q0 -33 -50.5 -81t-148.5 -79z" />
    <glyph glyph-name="Omicrontonos" unicode="&#x38c;" horiz-adv-x="808" 
d="M43 337q0 148 98 248.5t261 100.5q116 0 200 -49.5t123.5 -126.5t39.5 -171q0 -145 -98 -248t-266 -103q-171 0 -264.5 100t-93.5 249zM227 337q0 -333 179 -333q64 0 104.5 47t55.5 117t15 165q0 336 -179 336q-47 0 -82.5 -28.5t-55 -77t-28.5 -105t-9 -121.5z
M-136 489l-6 12q39 33 64.5 71.5t33.5 62.5t21.5 40t36.5 16t36 -12t13 -30q0 -33 -50.5 -81t-148.5 -79z" />
    <glyph glyph-name="Upsilontonos" unicode="&#x38e;" horiz-adv-x="704" 
d="M418 326l4 1l103 211q19 38 19 59q0 28 -23 40.5t-46 16.5t-23 12v7h247v-7q0 -8 -14 -12t-34.5 -9t-48.5 -29.5t-49 -66.5l-125 -244v-203q0 -35 15.5 -54.5t34 -23t34 -7t15.5 -11.5v-6h-356v6q0 7 15 11t32.5 7.5t32.5 23.5t15 55v176l-165 304q-15 27 -34 43.5
t-32.5 20.5t-23 8.5t-9.5 11.5v6h342v-7q0 -8 -19.5 -11.5t-39 -13t-19.5 -29.5q0 -13 10 -30zM-209 489l-6 12q39 33 64.5 71.5t33.5 62.5t21.5 40t36.5 16t36 -12t13 -30q0 -33 -50.5 -81t-148.5 -79z" />
    <glyph glyph-name="Omegatonos" unicode="&#x38f;" horiz-adv-x="857" 
d="M302 18q9 0 29 -0.5t30 -0.5q-4 12 -12.5 23t-24 21.5t-27 17t-34.5 18.5t-34 18q-165 92 -165 267q0 52 21.5 104.5t64 98.5t114.5 75t163 29q90 0 162 -27t115 -71.5t65 -98t22 -110.5q0 -141 -109 -230q-27 -21 -73.5 -45t-75.5 -44.5t-36 -45.5h42q76 0 124 21
t78.5 60.5t64.5 115.5q10 22 20 22q1 -1 5 -1q-36 -195 -49 -254q-1 0 -2 -1q-111 20 -245 20h-60q1 25 15.5 46t34.5 42.5t40 52.5t34 91t14 142q0 84 -17.5 148.5t-60.5 107.5t-108 43q-92 0 -138 -84t-46 -216q0 -149 44 -230q13 -25 38 -51t40.5 -47t16.5 -45h-56
q-151 0 -251 -20l-2 1q-5 23 -13.5 65.5t-19.5 100t-17 88.5q5 0 6 1q7 0 10.5 -4.5t9.5 -17.5q26 -57 47 -90.5t50 -59t66 -35.5t90 -11zM-125 489l-6 12q39 33 64.5 71.5t33.5 62.5t21.5 40t36.5 16t36 -12t13 -30q0 -33 -50.5 -81t-148.5 -79z" />
    <glyph glyph-name="iotadieresistonos" unicode="&#x390;" horiz-adv-x="325" 
d="M237 447v-360q0 -37 12 -49.5t49 -14.5q1 -4 1 -13q-16 -9 -48 -15.5t-56 -6.5q-46 0 -72.5 18.5t-26.5 69.5v267q0 27 -10.5 42t-22.5 17t-22.5 5.5t-10.5 10.5v7l202 27q2 -3 5 -5zM-50 602q0 26 19 45t46 19t46 -19t19 -45q0 -28 -19 -47t-46 -19t-46 19t-19 47z
M231 602q0 26 18.5 45t45.5 19t46.5 -19t19.5 -45q0 -28 -19.5 -47t-46.5 -19t-45.5 19t-18.5 47zM63 498l-8 10q33 41 52 85t23.5 70t17.5 43t40 17q20 0 32 -12t12 -30q0 -33 -42.5 -85.5t-126.5 -97.5z" />
    <glyph glyph-name="Alpha" unicode="&#x391;" horiz-adv-x="758" 
d="M483 115l-36 96h-250l-31 -86q-11 -27 -11 -46q0 -31 24 -44.5t48 -17t24 -11.5v-6h-246v6q0 7 15 11.5t36 9t45.5 28t40.5 65.5q27 72 82 216t82 217q9 24 9 40q0 23 -14.5 37t-32.5 17t-32.5 7.5t-14.5 11.5v8h217l217 -577q15 -40 39 -58.5t39.5 -22t15.5 -10.5v-6
h-320v6q0 7 17.5 10.5t34.5 13.5t17 32q0 11 -15 53zM325 543h-6l-116 -315h238z" />
    <glyph glyph-name="Beta" unicode="&#x392;" horiz-adv-x="730" 
d="M288 655v-280h60q55 0 96.5 35t41.5 103q0 75 -41.5 108.5t-109.5 33.5h-47zM422 0h-391v7q0 6 15 10t33 7.5t33 24t15 56.5v472q0 33 -15 51t-32.5 20.5t-32.5 6.5t-15 12v7h371q133 0 191.5 -45t58.5 -112q0 -59 -54 -100.5t-145 -45.5v-4q120 -6 178 -59t58 -121
q0 -75 -63.5 -131t-204.5 -56zM288 358v-238q0 -27 2 -42.5t9 -31.5t24 -23t44 -7h10q64 0 103 44t39 123q0 50 -17.5 86.5t-45.5 54.5t-55.5 26t-55.5 8h-57z" />
    <glyph glyph-name="Gamma" unicode="&#x393;" horiz-adv-x="638" 
d="M292 656v-554q0 -35 15.5 -54.5t33.5 -23t33.5 -7t15.5 -11.5v-6h-356v6q0 6 10 9.5t24 6.5t28 9.5t24 24.5t10 47v475q0 32 -15 50t-33 20.5t-33 6.5t-15 12v7h313q189 0 251 28q4 -36 9 -76.5t10 -88.5t8 -76q-4 -2 -8 -2q-7 0 -16 19q-43 104 -87.5 141t-133.5 37h-88
z" />
    <glyph glyph-name="Delta" unicode="&#x394;" horiz-adv-x="678" 
d="M10 0v12l323 668l25 2l310 -669v-13h-658zM271 515l-193 -402h379l-182 402h-4z" />
    <glyph glyph-name="Epsilon" unicode="&#x395;" horiz-adv-x="700" 
d="M290 343v-247q0 -39 18.5 -59t64.5 -20h42q84 0 140.5 51.5t106.5 172.5q7 19 17 19h3q3 -1 4 -1l-58 -280q-76 21 -196 21h-401v7q0 7 15 10.5t33.5 7.5t33.5 24t15 56v473q0 32 -15 50t-33 20.5t-33 6.5t-15 12v7h321q189 0 251 28q4 -36 9 -76.5t10 -88.5t8 -76
q-4 -2 -8 -2q-7 0 -16 19q-43 104 -87.5 141t-133.5 37h-96v-295h83q38 0 60.5 19t27.5 42t11.5 42t16.5 19h5v-270h-6q-11 0 -16.5 20.5t-9.5 44.5t-25 44.5t-58 20.5h-89z" />
    <glyph glyph-name="Zeta" unicode="&#x396;" horiz-adv-x="691" 
d="M440 655h-130q-95 0 -141 -39t-85 -147q-6 -17 -17 -17h-5l35 249q85 -27 215 -27h321v-17q-49 -76 -412 -640h160q100 0 153 46.5t109 184.5q11 18 19 19h5l-57 -290q-77 23 -201 23h-389v15z" />
    <glyph glyph-name="Eta" unicode="&#x397;" horiz-adv-x="855" 
d="M724 580v-475q0 -36 15.5 -56t33.5 -23.5t33.5 -7.5t15.5 -12v-6h-348v6q0 7 14 11t30.5 8.5t30.5 27t14 60.5v234h-275v-244q0 -29 9.5 -47t23 -24.5t26.5 -9.5t22.5 -6.5t9.5 -9.5v-6h-348v6q0 8 15 11.5t32.5 7.5t32.5 23.5t15 54.5v477q0 31 -15 48.5t-32.5 20.5
t-32.5 7t-15 11v7h350v-7q0 -7 -14.5 -11t-32 -7.5t-32 -20.5t-14.5 -48v-216h275v216q0 31 -14 48.5t-30.5 20.5t-30.5 7t-14 11v7h346v-7q0 -7 -15 -11t-33 -7.5t-33 -20.5t-15 -48z" />
    <glyph glyph-name="Theta" unicode="&#x398;" horiz-adv-x="864" 
d="M292 289l-14 6q28 107 106 107q20 0 66 -12.5t65 -12.5q39 0 58 39q10 -2 12 -3q-18 -112 -100 -112q-21 0 -63.5 12t-60.5 12q-47 0 -69 -36zM429 686q181 0 286 -101.5t105 -245.5t-108 -247.5t-283 -103.5q-179 0 -282.5 100.5t-103.5 248.5q0 146 108 247.5
t278 101.5zM430 668q-66 0 -113.5 -46.5t-69.5 -119.5t-22 -165q0 -150 52.5 -242t155.5 -92q100 0 153 91t53 239q0 152 -52.5 243.5t-156.5 91.5z" />
    <glyph glyph-name="Iota" unicode="&#x399;" horiz-adv-x="417" 
d="M296 580v-477q0 -35 15.5 -55t33.5 -23.5t33.5 -7t15.5 -11.5v-6h-356v6q0 6 10 9.5t24 6.5t28 9.5t24 24.5t10 47v477q0 30 -15 47.5t-33 20.5t-33 7.5t-15 11.5v7h356v-7q0 -7 -15.5 -11t-33.5 -7.5t-33.5 -20.5t-15.5 -48z" />
    <glyph glyph-name="Kappa" unicode="&#x39a;" horiz-adv-x="782" 
d="M331 329h-48v-227q0 -35 14.5 -54.5t32 -23t32 -7t14.5 -11.5v-6h-346v6q0 7 14 11t31.5 7.5t31.5 23.5t14 55v476q0 31 -14 48t-31.5 20.5t-31.5 7.5t-14 11v7h346v-7q0 -7 -14.5 -11t-32 -7t-32 -20.5t-14.5 -47.5v-232h68l175 202q37 43 37 65q0 15 -13 23.5t-28 11
t-28 6.5t-13 11v7h276v-6q0 -8 -10 -11.5t-29 -7.5t-42 -12t-55 -30t-62 -55l-114 -127l203 -314q23 -36 49 -57.5t43 -27t28 -10t11 -11.5v-5h-327v6q0 7 27 15t27 26q0 14 -16 39z" />
    <glyph glyph-name="Lambda" unicode="&#x39b;" horiz-adv-x="723" 
d="M297 487l-151 -399q-7 -19 -7 -29q0 -15 12.5 -23.5t27.5 -10.5t27.5 -6t12.5 -12v-7h-209v6q0 9 13 13.5t30.5 7t38.5 20.5t34 50l229 583l35 3l240 -597q11 -28 27 -43.5t27.5 -18t20 -6.5t8.5 -13v-5h-311v6q0 8 11 12.5t24 6.5t24 9.5t11 22.5q0 11 -5 22l-166 408
h-4z" />
    <glyph glyph-name="Mu" unicode="&#x39c;" horiz-adv-x="978" 
d="M698 674h253v-9q0 -7 -16 -10.5t-35 -7t-34.5 -22t-14.5 -50.5l9 -472q1 -35 16.5 -55t33.5 -23.5t33 -7t15 -11.5v-6h-348v6q0 8 14 12t31.5 7.5t31.5 25t14 61.5q0 153 -9 494h-3l-168 -408l58 -127l-17 -9q-57 70 -175 72q-55 119 -97.5 208.5t-62 129.5t-32 66.5
t-17.5 36.5t-10 22h-3l-9 -469q-1 -44 17.5 -69t40.5 -30.5t40.5 -10t18.5 -12.5v-6h-253v6q0 6 18 11t39.5 11t40 34t19.5 75l10 438q1 32 -14.5 50.5t-34.5 22t-35 7.5t-16 11v8h249l213 -457q40 96 102.5 248t86.5 209z" />
    <glyph glyph-name="Nu" unicode="&#x39d;" horiz-adv-x="815" 
d="M294 674l360 -453l1 1v305q0 102 -75 121q-5 1 -14 3t-13 3t-9 3t-7 4t-2 5v7h257v-7q0 -3 -2 -5t-6.5 -3.5t-8.5 -2.5t-11.5 -3t-12.5 -3q-38 -10 -58 -36.5t-20 -85.5v-547l-21 -6l-492 616v-446q0 -53 16.5 -79t51.5 -39q9 -3 24 -6.5t21.5 -6.5t6.5 -7v-6h-256v6
q0 6 18.5 11t40.5 12.5t40.5 36.5t18.5 78v430q0 32 -15 50.5t-33.5 22t-33.5 8t-15 11.5v8h249z" />
    <glyph glyph-name="Xi" unicode="&#x39e;" horiz-adv-x="712" 
d="M182 271q-3 1 -7.5 2t-7.5 2q31 134 142 134q27 0 85 -14t81 -14q47 0 64 47q12 -2 15 -2q-18 -138 -127 -138q-32 0 -89 16t-76 16q-56 0 -80 -49zM679 246l-41 -261l-2 -2q-83 17 -274 17q-144 0 -263 -13l-26 -3q-24 188 -34 261l3 1h5q9 0 18 -19q30 -71 61.5 -90.5
t120.5 -19.5h199q42 0 68 3t55 13.5t49.5 34t36.5 61.5q7 18 16 18q1 0 4 -0.5t4 -0.5zM504 561h-260q-65 0 -101.5 -12.5t-55.5 -52.5q-5 -11 -8.5 -15t-8.5 -3l-6 1q12 135 17 212q2 0 2 1q97 -18 279 -18q184 0 265 18l2 -1l17 -214l-8 -1q-5 -1 -8.5 4t-8.5 17
q-18 41 -41 52.5t-76 11.5z" />
    <glyph glyph-name="Omicron" unicode="&#x39f;" horiz-adv-x="808" 
d="M43 337q0 148 98 248.5t261 100.5q116 0 200 -49.5t123.5 -126.5t39.5 -171q0 -145 -98 -248t-266 -103q-171 0 -264.5 100t-93.5 249zM227 337q0 -333 179 -333q64 0 104.5 47t55.5 117t15 165q0 336 -179 336q-47 0 -82.5 -28.5t-55 -77t-28.5 -105t-9 -121.5z" />
    <glyph glyph-name="Pi" unicode="&#x3a0;" horiz-adv-x="847" 
d="M718 580v-448q0 -47 15.5 -73.5t33.5 -31t33.5 -9t15.5 -12.5v-6h-349v6q0 7 14 11t30.5 8.5t30.5 26.5t14 60v544h-268v-554q0 -35 14 -54.5t31.5 -23t31.5 -7t14 -11.5v-6h-348v6q0 7 15 11t32.5 7.5t32.5 23.5t15 55v476q0 31 -15 48.5t-32.5 20.5t-32.5 7t-15 11v7
h783v-7q0 -7 -15 -11t-33 -7t-33 -20.5t-15 -47.5z" />
    <glyph glyph-name="Rho" unicode="&#x3a1;" horiz-adv-x="681" 
d="M127 103v474q0 33 -15 51t-32.5 20.5t-32.5 6.5t-15 12v7h340q129 0 209 -50t80 -148q0 -70 -41 -118t-101.5 -68.5t-135.5 -20.5q-53 0 -94 7q0 -29 0.5 -87t0.5 -87q0 -35 15 -54.5t32.5 -23t32.5 -7t15 -11.5v-6h-354v6q0 7 15 11t33 7.5t33 23.5t15 55zM289 656v-363
q12 -3 26 -3q81 0 126.5 49.5t45.5 134.5q0 84 -44 133t-112 49h-42z" />
    <glyph glyph-name="Sigma" unicode="&#x3a3;" horiz-adv-x="680" 
d="M204 656l172 -266l-234 -274h307q79 0 112.5 24.5t69.5 104.5q10 20 20 17l4 -1l-38 -261h-596v17l238 278l-235 362v17h565l19 -199l-4 -1q-11 -2 -21 18q-49 99 -87 131.5t-116 32.5h-176z" />
    <glyph glyph-name="Tau" unicode="&#x3a4;" horiz-adv-x="684" 
d="M341 674q207 0 305 22l27 -246q-2 -1 -5 -1q-11 0 -17 18q-37 105 -80.5 147t-123.5 42h-26q0 -92 0.5 -277t0.5 -277q0 -35 15.5 -54.5t33.5 -23t33.5 -7t15.5 -11.5v-6h-356v6q0 7 15 11t33 7.5t33 23.5t15 55v553h-25q-80 0 -123.5 -42t-80.5 -147q-6 -18 -17 -18
q-3 0 -5 1l27 246q98 -22 305 -22z" />
    <glyph glyph-name="Upsilon" unicode="&#x3a5;" horiz-adv-x="704" 
d="M418 326l4 1l103 211q19 38 19 59q0 28 -23 40.5t-46 16.5t-23 12v7h247v-7q0 -8 -14 -12t-34.5 -9t-48.5 -29.5t-49 -66.5l-125 -244v-203q0 -35 15.5 -54.5t34 -23t34 -7t15.5 -11.5v-6h-356v6q0 7 15 11t32.5 7.5t32.5 23.5t15 55v176l-165 304q-15 27 -34 43.5
t-32.5 20.5t-23 8.5t-9.5 11.5v6h342v-7q0 -8 -19.5 -11.5t-39 -13t-19.5 -29.5q0 -13 10 -30z" />
    <glyph glyph-name="Phi" unicode="&#x3a6;" horiz-adv-x="931" 
d="M542 591v-5q159 -6 254 -73.5t95 -165.5q0 -100 -90 -169t-259 -80v-9q0 -28 15 -44t33.5 -19t33.5 -7.5t15 -11.5v-7h-350v7q0 8 14.5 12.5t31.5 7.5t31.5 19t14.5 45v7q-174 13 -259 79.5t-85 167.5q0 93 93.5 161.5t250.5 79.5v4q0 32 -23 45.5t-46 18t-23 13.5v7h352
v-7q0 -7 -15.5 -12t-34 -8t-34 -17t-15.5 -39zM720 340q0 95 -46.5 159t-131.5 72v-456q81 7 129.5 71.5t48.5 153.5zM381 114v456q-77 -8 -124 -69.5t-47 -155.5q0 -105 46 -164.5t125 -66.5z" />
    <glyph glyph-name="Chi" unicode="&#x3a7;" horiz-adv-x="751" 
d="M431 108l-114 180l-85 -123q-52 -73 -52 -99q0 -18 13 -28.5t29 -13t29 -6.5t13 -12v-6h-257v6q0 6 9 9.5t27 8.5t39.5 15t50.5 36t57 65l117 163l-160 254q-29 46 -60 69.5t-46.5 29t-15.5 11.5v6h352v-6q0 -9 -18.5 -13t-37 -13t-18.5 -29q0 -18 30 -65l90 -140l80 121
q37 56 37 82q0 21 -18.5 30t-37 13t-18.5 13v7h253v-6q0 -7 -9.5 -10.5t-29 -10t-43 -18t-55.5 -41t-63 -72.5l-86 -123l187 -292q26 -41 57 -59.5t48.5 -22.5t17.5 -12v-6h-369v6q0 7 18 12.5t36.5 16t18.5 30.5q0 18 -16 43z" />
    <glyph glyph-name="Psi" unicode="&#x3a8;" horiz-adv-x="935" 
d="M548 580v-369q152 18 152 208v250l5 5h222v-7q0 -8 -11.5 -12t-24.5 -6.5t-24.5 -18t-11.5 -43.5v-83q0 -280 -307 -309v-92q0 -35 15.5 -55t33.5 -23.5t33.5 -7t15.5 -11.5v-6h-356v6q0 6 10 9.5t24 6.5t28 9.5t24 24.5t10 47v92q-164 16 -235 91t-71 204v95
q0 36 -18 50t-36.5 17.5t-18.5 11.5v7q144 4 222 7l5 -4v-214q0 -116 33.5 -178t118.5 -71v369q0 30 -15 47.5t-33 20.5t-33 7.5t-15 11.5v7h356v-7q0 -7 -15.5 -11t-33.5 -7.5t-33.5 -20.5t-15.5 -48z" />
    <glyph glyph-name="Omega" unicode="&#x3a9;" horiz-adv-x="848" 
d="M302 18q9 0 29 -0.5t30 -0.5q-4 12 -12.5 23t-24 21.5t-27 17t-34.5 18.5t-34 18q-165 92 -165 267q0 52 21.5 104.5t64 98.5t114.5 75t163 29q90 0 162 -27t115 -71.5t65 -98t22 -110.5q0 -141 -109 -230q-27 -21 -73.5 -45t-75.5 -44.5t-36 -45.5h42q76 0 124 21
t78.5 60.5t64.5 115.5q10 22 20 22q1 -1 5 -1q-36 -195 -49 -254q-1 0 -2 -1q-111 20 -245 20h-60q1 25 15.5 46t34.5 42.5t40 52.5t34 91t14 142q0 84 -17.5 148.5t-60.5 107.5t-108 43q-92 0 -138 -84t-46 -216q0 -149 44 -230q13 -25 38 -51t40.5 -47t16.5 -45h-56
q-151 0 -251 -20l-2 1q-5 23 -13.5 65.5t-19.5 100t-17 88.5q5 0 6 1q7 0 10.5 -4.5t9.5 -17.5q26 -57 47 -90.5t50 -59t66 -35.5t90 -11z" />
    <glyph glyph-name="Iotadieresis" unicode="&#x3aa;" horiz-adv-x="417" 
d="M296 580v-477q0 -35 15.5 -55t33.5 -23.5t33.5 -7t15.5 -11.5v-6h-356v6q0 6 10 9.5t24 6.5t28 9.5t24 24.5t10 47v477q0 30 -15 47.5t-33 20.5t-33 7.5t-15 11.5v7h356v-7q0 -7 -15.5 -11t-33.5 -7.5t-33.5 -20.5t-15.5 -48zM111 862q28 0 47.5 -19.5t19.5 -46.5
q0 -28 -19.5 -48t-47.5 -20t-47.5 20t-19.5 48q0 27 19.5 46.5t47.5 19.5zM308 862q28 0 48 -19.5t20 -46.5q0 -28 -20 -48t-48 -20t-47 19.5t-19 48.5q0 27 19 46.5t47 19.5z" />
    <glyph glyph-name="Upsilondieresis" unicode="&#x3ab;" horiz-adv-x="704" 
d="M418 326l4 1l103 211q19 38 19 59q0 28 -23 40.5t-46 16.5t-23 12v7h247v-7q0 -8 -14 -12t-34.5 -9t-48.5 -29.5t-49 -66.5l-125 -244v-203q0 -35 15.5 -54.5t34 -23t34 -7t15.5 -11.5v-6h-356v6q0 7 15 11t32.5 7.5t32.5 23.5t15 55v176l-165 304q-15 27 -34 43.5
t-32.5 20.5t-23 8.5t-9.5 11.5v6h342v-7q0 -8 -19.5 -11.5t-39 -13t-19.5 -29.5q0 -13 10 -30zM262 860q28 0 47.5 -19.5t19.5 -46.5q0 -28 -19.5 -48t-47.5 -20t-47.5 20t-19.5 48q0 27 19.5 46.5t47.5 19.5zM459 860q28 0 48 -19.5t20 -46.5q0 -28 -19.5 -48t-48.5 -20
q-28 0 -47 19.5t-19 48.5q0 27 19 46.5t47 19.5z" />
    <glyph glyph-name="alphatonos" unicode="&#x3ac;" horiz-adv-x="593" 
d="M301 418q-55 0 -85 -54.5t-30 -146.5q0 -99 23 -147t74 -48q58 0 97 55v320q-37 21 -79 21zM257 448q73 0 132 -39l125 45h12q-4 -84 -4 -159v-207q0 -37 9.5 -49.5t43.5 -13.5q0 -2 0.5 -6.5t0.5 -6.5q-15 -9 -44.5 -16t-52.5 -7q-88 0 -96 65h-4q-52 -67 -154 -67
q-85 0 -138.5 55t-53.5 166q0 102 60 171t164 69zM234 501l-6 12q39 33 64.5 71.5t33.5 62.5t21.5 40t36.5 16t36 -12t13 -30q0 -33 -50.5 -81t-148.5 -79z" />
    <glyph glyph-name="epsilontonos" unicode="&#x3ad;" horiz-adv-x="452" 
d="M158 501l-6 12q39 33 64.5 71.5t33.5 62.5t21.5 40t36.5 16t36 -12t13 -30q0 -33 -50.5 -81t-148.5 -79zM439 81l10 -9q-79 -85 -215 -85q-95 0 -149.5 31t-54.5 91q0 43 38 81t109 44l1 4q-73 3 -105.5 31.5t-32.5 65.5q0 46 50 81.5t149 35.5q83 0 130 -26.5t47 -70.5
q0 -22 -14 -36.5t-36 -14.5q-30 0 -47.5 21.5t-17.5 51.5q0 27 12 49q-18 6 -39 6q-43 0 -71 -25t-28 -73q0 -90 139 -92v-14q-61 -6 -98 -37t-37 -84q0 -44 26.5 -69t73.5 -25q41 0 84.5 18t75.5 50z" />
    <glyph glyph-name="etatonos" unicode="&#x3ae;" horiz-adv-x="620" 
d="M531 315v-228q0 -35 12.5 -47.5t45.5 -15.5v-14q-40 -22 -101 -22q-98 0 -98 81v267q0 70 -56 70q-29 0 -57 -14t-42 -39v-274q0 -27 9 -41t20 -16t20 -5t9 -10v-7h-266v7q0 7 10.5 10.5t23 5.5t23 17.5t10.5 44.5v256q0 27 -11 42t-23.5 17t-23.5 5.5t-11 10.5v7
q33 5 98.5 14t98.5 14l5 -5q-2 -27 -8 -81q1 0 2.5 -0.5t2.5 -0.5q55 86 168 86q59 0 99 -33t40 -102zM219 501l-6 12q39 33 64.5 71.5t33.5 62.5t21.5 40t36.5 16t36 -12t13 -30q0 -33 -50.5 -81t-148.5 -79z" />
    <glyph glyph-name="iotatonos" unicode="&#x3af;" horiz-adv-x="325" 
d="M237 447v-360q0 -37 12 -49.5t49 -14.5q1 -4 1 -13q-16 -9 -48 -15.5t-56 -6.5q-46 0 -72.5 18.5t-26.5 69.5v267q0 27 -10.5 42t-22.5 17t-22.5 5.5t-10.5 10.5v7l202 27q2 -3 5 -5zM72 501l-6 12q39 33 64.5 71.5t33.5 62.5t21.5 40t36.5 16t36 -12t13 -30
q0 -33 -50.5 -81t-148.5 -79z" />
    <glyph glyph-name="upsilondieresistonos" unicode="&#x3b0;" horiz-adv-x="601" 
d="M568 234q0 -46 -16 -89t-47 -79t-83 -57.5t-118 -21.5q-99 0 -155.5 50t-56.5 145v163q0 27 -10.5 41.5t-23.5 16.5t-23.5 5.5t-10.5 10.5v8l203 25l6 -6v-342q0 -102 72 -102q58 0 83 64.5t25 160.5q0 79 -12.5 130t-51.5 85l4 14q107 -10 161 -75t54 -147zM102 602
q0 26 19 45t46 19t46 -19t19 -45q0 -28 -19 -47t-46 -19t-46 19t-19 47zM383 602q0 26 18.5 45t45.5 19t46.5 -19t19.5 -45q0 -28 -19.5 -47t-46.5 -19t-45.5 19t-18.5 47zM215 498l-8 10q33 41 52 85t23.5 70t17.5 43t40 17q20 0 32 -12t12 -30q0 -33 -42.5 -85.5
t-126.5 -97.5z" />
    <glyph glyph-name="alpha" unicode="&#x3b1;" horiz-adv-x="593" 
d="M301 418q-55 0 -85 -54.5t-30 -146.5q0 -99 23 -147t74 -48q58 0 97 55v320q-37 21 -79 21zM257 448q73 0 132 -39l125 45h12q-4 -84 -4 -159v-207q0 -37 9.5 -49.5t43.5 -13.5q0 -2 0.5 -6.5t0.5 -6.5q-15 -9 -44.5 -16t-52.5 -7q-88 0 -96 65h-4q-52 -67 -154 -67
q-85 0 -138.5 55t-53.5 166q0 102 60 171t164 69z" />
    <glyph glyph-name="beta" unicode="&#x3b2;" horiz-adv-x="565" 
d="M224 396q-1 6 -1 17q121 17 121 161q0 140 -81 140q-44 0 -61 -35t-17 -99v-541q44 -27 82 -27q58 0 84 59.5t26 146.5q0 80 -37.5 128.5t-115.5 49.5zM43 464q0 107 66 187.5t167 80.5q102 0 155 -49.5t53 -118.5q0 -61 -48 -107.5t-137 -47.5v-4q64 -3 111.5 -23.5
t72.5 -52t37 -63.5t12 -65q0 -99 -62 -156t-158 -57q-80 0 -127 31l-4 -3q0 -102 -1 -177q-62 -11 -126 -59q-2 0 -6.5 1t-6.5 1q2 156 2 350v332z" />
    <glyph glyph-name="gamma" unicode="&#x3b3;" horiz-adv-x="532" 
d="M323 96h5q10 34 34 116t37 126q7 22 7 36q0 18 -11 27.5t-25 11t-25 5.5t-11 12v6h193v-8q0 -7 -13 -10t-30 -6.5t-36.5 -22.5t-30.5 -53l-86 -277v-241q-66 -12 -128 -58q-2 0 -6.5 0.5t-6.5 0.5v263l-96 286q-8 23 -13.5 36t-19.5 27.5t-32 14.5q-9 0 -18 -3l-6 13
q21 21 58.5 36.5t70.5 15.5q42 0 60.5 -17.5t35.5 -67.5z" />
    <glyph glyph-name="delta" unicode="&#x3b4;" horiz-adv-x="586" 
d="M293 1q105 0 105 208q0 67 -29 118t-99 91q-36 -19 -61 -73t-25 -123q0 -113 26 -167t83 -54zM298 738q84 0 135.5 -31t51.5 -76q0 -26 -15 -42.5t-38 -16.5q-31 0 -49 20.5t-18 50.5q0 35 19 63q-21 9 -48 9q-44 0 -78.5 -19.5t-34.5 -62.5q0 -27 33.5 -56t81 -60
t95 -68t81 -95.5t33.5 -127.5q0 -97 -67 -167.5t-191 -70.5t-191.5 65t-67.5 159q0 84 55.5 149.5t156.5 74.5q-68 36 -104.5 73.5t-36.5 88.5q0 61 54 100.5t143 39.5z" />
    <glyph glyph-name="epsilon" unicode="&#x3b5;" horiz-adv-x="452" 
d="M439 81l10 -9q-79 -85 -215 -85q-95 0 -149.5 31t-54.5 91q0 43 38 81t109 44l1 4q-73 3 -105.5 31.5t-32.5 65.5q0 46 50 81.5t149 35.5q83 0 130 -26.5t47 -70.5q0 -22 -14 -36.5t-36 -14.5q-30 0 -47.5 21.5t-17.5 51.5q0 27 12 49q-18 6 -39 6q-43 0 -71 -25t-28 -73
q0 -90 139 -92v-14q-61 -6 -98 -37t-37 -84q0 -44 26.5 -69t73.5 -25q41 0 84.5 18t75.5 50z" />
    <glyph glyph-name="zeta" unicode="&#x3b6;" horiz-adv-x="451" 
d="M32 200q0 55 34.5 120t92 127t120.5 116t132 102l-2 3q-42 -28 -105 -48.5t-115 -20.5q-103 0 -103 84q0 34 20 63h14q48 -76 175 -76q102 0 192 45l5 -11q-148 -96 -243.5 -213t-95.5 -222q0 -46 30.5 -81t73.5 -57t86 -41.5t73.5 -45t30.5 -57.5q0 -44 -52 -84.5
t-147 -66.5l-6 13q43 18 67 40.5t24 43.5q0 19 -31 35.5t-75.5 33t-88.5 38.5t-75 63.5t-31 96.5z" />
    <glyph glyph-name="eta" unicode="&#x3b7;" horiz-adv-x="620" 
d="M531 315v-228q0 -35 12.5 -47.5t45.5 -15.5v-14q-40 -22 -101 -22q-98 0 -98 81v267q0 70 -56 70q-29 0 -57 -14t-42 -39v-274q0 -27 9 -41t20 -16t20 -5t9 -10v-7h-266v7q0 7 10.5 10.5t23 5.5t23 17.5t10.5 44.5v256q0 27 -11 42t-23.5 17t-23.5 5.5t-11 10.5v7
q33 5 98.5 14t98.5 14l5 -5q-2 -27 -8 -81q1 0 2.5 -0.5t2.5 -0.5q55 86 168 86q59 0 99 -33t40 -102z" />
    <glyph glyph-name="theta" unicode="&#x3b8;" horiz-adv-x="590" 
d="M33 360q0 168 68 273t193 105q69 0 120.5 -28.5t82 -80t45.5 -118t15 -147.5q0 -80 -15.5 -147.5t-46.5 -119.5t-82 -81t-117 -29q-130 0 -196.5 102t-66.5 271zM298 1q64 0 86.5 88.5t22.5 280.5h-224q0 -185 24.5 -277t90.5 -92zM292 723q-107 0 -109 -337h224
q-2 169 -26 253t-89 84z" />
    <glyph glyph-name="iota" unicode="&#x3b9;" horiz-adv-x="325" 
d="M237 447v-360q0 -37 12 -49.5t49 -14.5q1 -4 1 -13q-16 -9 -48 -15.5t-56 -6.5q-46 0 -72.5 18.5t-26.5 69.5v267q0 27 -10.5 42t-22.5 17t-22.5 5.5t-10.5 10.5v7l202 27q2 -3 5 -5z" />
    <glyph glyph-name="kappa" unicode="&#x3ba;" horiz-adv-x="589" 
d="M86 85v256q0 35 -16 48.5t-32.5 15.5t-16.5 10v7l204 23q4 -4 6 -5v-212h38l125 129q15 15 15 28q-1 16 -40.5 26t-39.5 18v7h225v-6q0 -10 -18 -12.5t-55.5 -17.5t-71.5 -50l-52 -53l128 -202q20 -31 40 -49t32 -21.5t19.5 -7.5t7.5 -12v-5h-194l-133 211h-26v-131
q0 -34 15.5 -47.5t31 -16.5t15.5 -10v-6h-270v6q0 8 15.5 11t31.5 17.5t16 50.5z" />
    <glyph glyph-name="lambda" unicode="&#x3bb;" horiz-adv-x="529" 
d="M203 734q48 0 71 -26.5t41 -88.5l147 -517q9 -33 19.5 -47.5t35.5 -14.5q6 0 10 1l5 -13q-49 -38 -106 -38q-46 0 -70 35.5t-43 104.5l-74 267h-4q-18 -49 -54.5 -148t-55.5 -148q-9 -24 -9 -39q0 -19 12 -28.5t27 -11t27 -5t12 -12.5v-5h-199v5q0 8 12.5 12t29 7
t36.5 21t32 50l125 330l-59 198q-8 27 -18.5 38.5t-35.5 11.5q-12 0 -30 -3q-4 8 -5 13q69 51 121 51z" />
    <glyph glyph-name="nu" unicode="&#x3bd;" horiz-adv-x="558" 
d="M304 436v-7q0 -8 -17 -11t-33.5 -11t-16.5 -27q0 -12 10 -35l89 -195h2l70 168q14 32 14 53q0 24 -17 34t-34 13t-17 10v8h196v-6q0 -7 -12 -11t-28.5 -8.5t-40 -28t-41.5 -63.5l-148 -328h-12l-176 355q-14 28 -30.5 44.5t-28 20.5t-19.5 8t-8 10v7h298z" />
    <glyph glyph-name="xi" unicode="&#x3be;" horiz-adv-x="445" 
d="M268 735q91 0 138 -33.5t47 -78.5q0 -23 -15 -41.5t-41 -18.5q-31 0 -47.5 19t-16.5 49q0 39 25 70q-27 14 -63 14q-55 0 -88.5 -39t-33.5 -104q0 -69 50 -107.5t169 -40.5q-2 -10 -2 -16q-105 0 -162 -40t-57 -106q0 -42 29.5 -76.5t72 -58t85 -45t72 -48t29.5 -56.5
q0 -90 -189 -150q-6 11 -7 13q74 39 74 82q0 19 -31.5 37t-76.5 38t-90 46t-76.5 70.5t-31.5 101.5q0 75 62.5 132t177.5 66l1 2v2q-118 0 -174.5 41.5t-56.5 108.5q0 74 62 120.5t165 46.5z" />
    <glyph glyph-name="omicron" unicode="&#x3bf;" horiz-adv-x="586" 
d="M33 221q0 99 69 165t190 66q129 0 195 -65.5t66 -164.5q0 -98 -69 -166.5t-192 -68.5q-126 0 -192.5 67t-66.5 167zM188 221q0 -220 106 -220q56 0 80.5 62t24.5 155q0 218 -106 218q-55 0 -80 -63.5t-25 -151.5z" />
    <glyph glyph-name="pi" unicode="&#x3c0;" horiz-adv-x="628" 
d="M389 419h-154v-339q0 -27 8.5 -41.5t19.5 -16.5t19.5 -4.5t8.5 -9.5v-8h-263v8q0 7 16 9.5t32.5 16.5t16.5 51v334h-74v16h584v-16h-73v-331q0 -36 13 -49t47 -15l1 -14q-37 -22 -104 -22q-44 0 -71 17.5t-27 69.5v344z" />
    <glyph glyph-name="rho" unicode="&#x3c1;" horiz-adv-x="575" 
d="M387 216q0 221 -104 221q-51 0 -76 -43t-25 -112v-254q36 -22 85 -22q120 0 120 210zM183 11l-2 -1v-194q-71 -13 -130 -57q-2 0 -6 0.5t-6 0.5v410q0 126 61.5 204.5t192.5 78.5q119 0 184.5 -65t65.5 -171q0 -102 -67.5 -166.5t-174.5 -64.5q-67 0 -118 25z" />
    <glyph glyph-name="sigma1" unicode="&#x3c2;" horiz-adv-x="475" 
d="M279 451q82 0 128 -31.5t46 -78.5q0 -25 -16.5 -40.5t-39.5 -15.5q-67 0 -67 74q0 37 14 65q-20 9 -49 9q-59 0 -94.5 -39.5t-35.5 -100.5q0 -45 27.5 -83t66.5 -63.5t78.5 -48t67 -48.5t27.5 -53q0 -47 -46.5 -88t-148.5 -68q-5 11 -6 13q83 41 83 82q0 16 -29 34.5
t-70 40t-82.5 49t-70.5 72t-29 97.5q0 100 68.5 161t177.5 61z" />
    <glyph glyph-name="sigma" unicode="&#x3c3;" horiz-adv-x="585" 
d="M407 420l-1 -4q74 -27 107 -84t33 -118q0 -91 -69.5 -159t-190.5 -68q-119 0 -186.5 66.5t-67.5 158.5q0 97 69 160.5t185 63.5h271v-16h-150zM185 213q0 -212 104 -212q57 0 83 60t26 150q0 209 -111 209q-102 0 -102 -207z" />
    <glyph glyph-name="tau" unicode="&#x3c4;" horiz-adv-x="401" 
d="M235 -11q-69 0 -95 31t-26 90v310h-107v16h380v-16h-131v-310q0 -76 60 -76q33 0 67 15l4 -13q-69 -47 -152 -47z" />
    <glyph glyph-name="upsilon" unicode="&#x3c5;" horiz-adv-x="601" 
d="M568 234q0 -46 -16 -89t-47 -79t-83 -57.5t-118 -21.5q-99 0 -155.5 50t-56.5 145v163q0 27 -10.5 41.5t-23.5 16.5t-23.5 5.5t-10.5 10.5v8l203 25l6 -6v-342q0 -102 72 -102q58 0 83 64.5t25 160.5q0 79 -12.5 130t-51.5 85l4 14q107 -10 161 -75t54 -147z" />
    <glyph glyph-name="phi" unicode="&#x3c6;" horiz-adv-x="737" 
d="M482 434q-49 0 -49 -74v-361q116 14 116 219q0 105 -13.5 160.5t-53.5 55.5zM293 -235v218q-130 9 -196 74.5t-66 161.5q0 87 59 152.5t175 81.5l3 -15q-40 -23 -61 -73.5t-21 -154.5q0 -206 107 -210v191q0 48 8 89t27.5 82t60.5 65t100 24q102 0 158.5 -61.5
t56.5 -157.5q0 -97 -68.5 -167t-202.5 -82v-162q-68 -12 -128 -57q-2 0 -6 0.5t-6 0.5z" />
    <glyph glyph-name="chi" unicode="&#x3c7;" horiz-adv-x="573" 
d="M274 347l60 -87l47 68q27 40 27 56q0 14 -9.5 21.5t-21.5 9t-21.5 4.5t-9.5 9v8h199v-7q0 -7 -19 -11t-56 -25.5t-70 -67.5l-57 -78l114 -163q23 -33 50 -49t42.5 -19.5t15.5 -9.5v-6h-312v6q0 6 30.5 13t30.5 24t-25 52l-63 91l-63 -91q-19 -27 -19 -44t16 -24.5
t31.5 -10.5t15.5 -9v-7h-199v5q0 5 7 7.5t20.5 6.5t30 11.5t40 27.5t45.5 51l66 90l-116 166q-19 28 -40 40.5t-31.5 15.5t-10.5 8v7h293v-7q0 -7 -28 -14.5t-28 -28.5q0 -13 18 -39z" />
    <glyph glyph-name="psi" unicode="&#x3c8;" horiz-adv-x="770" 
d="M322 -131v117q-126 11 -189 75.5t-63 165.5v116q0 27 -9.5 41.5t-20.5 16.5t-20.5 5.5t-9.5 10.5v8l194 25l5 -5v-259q0 -85 25.5 -130.5t87.5 -54.5v479q0 27 -9.5 41.5t-21.5 17t-21.5 6t-9.5 10.5v7q66 9 196 25q2 -1 6 -5v-581q65 9 86.5 55.5t21.5 126.5v104
q0 83 24 123.5t76 40.5q49 0 91 -20q0 -10 -1 -15q-28 -3 -40 -16.5t-12 -48.5v-111q0 -107 -60.5 -175.5t-186.5 -78.5v-121q0 -34 17 -46.5t34 -14.5t17 -10v-8h-274v8q0 7 10.5 10t23 5.5t23 17.5t10.5 42z" />
    <glyph glyph-name="omega" unicode="&#x3c9;" horiz-adv-x="798" 
d="M33 214q0 93 58.5 158.5t161.5 76.5l4 -16q-70 -38 -70 -219q0 -43 1.5 -72t6 -58t13 -45.5t22.5 -27t35 -10.5q72 0 72 140v95q0 34 -12.5 47t-24.5 16t-12 11v8q96 11 181 25q4 -4 6 -5v-81q0 -97 -30 -162q8 -45 30 -67t51 -22q85 0 85 207q0 181 -71 219l5 16
q103 -11 161.5 -76t58.5 -155q0 -96 -60.5 -162.5t-165.5 -66.5q-38 0 -66.5 21t-41.5 61q-54 -82 -168 -82q-117 0 -173.5 63t-56.5 163z" />
    <glyph glyph-name="iotadieresis" unicode="&#x3ca;" horiz-adv-x="325" 
d="M237 447v-360q0 -37 12 -49.5t49 -14.5q1 -4 1 -13q-16 -9 -48 -15.5t-56 -6.5q-46 0 -72.5 18.5t-26.5 69.5v267q0 27 -10.5 42t-22.5 17t-22.5 5.5t-10.5 10.5v7l202 27q2 -3 5 -5zM58 668q28 0 47.5 -19.5t19.5 -46.5q0 -28 -19.5 -48t-47.5 -20t-47.5 20t-19.5 48
q0 27 19.5 46.5t47.5 19.5zM255 668q28 0 48 -19.5t20 -46.5q0 -28 -19.5 -48t-48.5 -20q-28 0 -47 19.5t-19 48.5q0 27 19 46.5t47 19.5z" />
    <glyph glyph-name="upsilondieresis" unicode="&#x3cb;" horiz-adv-x="601" 
d="M568 234q0 -46 -16 -89t-47 -79t-83 -57.5t-118 -21.5q-99 0 -155.5 50t-56.5 145v163q0 27 -10.5 41.5t-23.5 16.5t-23.5 5.5t-10.5 10.5v8l203 25l6 -6v-342q0 -102 72 -102q58 0 83 64.5t25 160.5q0 79 -12.5 130t-51.5 85l4 14q107 -10 161 -75t54 -147zM203 668
q28 0 47.5 -19.5t19.5 -46.5q0 -28 -19.5 -48t-47.5 -20t-47.5 20t-19.5 48q0 27 19.5 46.5t47.5 19.5zM400 668q28 0 48 -19.5t20 -46.5q0 -28 -20 -48t-48 -20t-47 19.5t-19 48.5q0 27 19 46.5t47 19.5z" />
    <glyph glyph-name="omicrontonos" unicode="&#x3cc;" horiz-adv-x="586" 
d="M33 221q0 99 69 165t190 66q129 0 195 -65.5t66 -164.5q0 -98 -69 -166.5t-192 -68.5q-126 0 -192.5 67t-66.5 167zM188 221q0 -220 106 -220q56 0 80.5 62t24.5 155q0 218 -106 218q-55 0 -80 -63.5t-25 -151.5zM223 501l-6 12q39 33 64.5 71.5t33.5 62.5t21.5 40
t36.5 16t36 -12t13 -30q0 -33 -50.5 -81t-148.5 -79z" />
    <glyph glyph-name="upsilontonos" unicode="&#x3cd;" horiz-adv-x="601" 
d="M230 501l-6 12q39 33 64.5 71.5t33.5 62.5t21.5 40t36.5 16t36 -12t13 -30q0 -33 -50.5 -81t-148.5 -79zM568 234q0 -46 -16 -89t-47 -79t-83 -57.5t-118 -21.5q-99 0 -155.5 50t-56.5 145v163q0 27 -10.5 41.5t-23.5 16.5t-23.5 5.5t-10.5 10.5v8l203 25l6 -6v-342
q0 -102 72 -102q58 0 83 64.5t25 160.5q0 79 -12.5 130t-51.5 85l4 14q107 -10 161 -75t54 -147z" />
    <glyph glyph-name="omegatonos" unicode="&#x3ce;" horiz-adv-x="798" 
d="M33 214q0 93 58.5 158.5t161.5 76.5l4 -16q-70 -38 -70 -219q0 -43 1.5 -72t6 -58t13 -45.5t22.5 -27t35 -10.5q72 0 72 140v95q0 34 -12.5 47t-24.5 16t-12 11v8q96 11 181 25q4 -4 6 -5v-81q0 -97 -30 -162q8 -45 30 -67t51 -22q85 0 85 207q0 181 -71 219l5 16
q103 -11 161.5 -76t58.5 -155q0 -96 -60.5 -162.5t-165.5 -66.5q-38 0 -66.5 21t-41.5 61q-54 -82 -168 -82q-117 0 -173.5 63t-56.5 163zM332 501l-6 12q39 33 64.5 71.5t33.5 62.5t21.5 40t36.5 16t36 -12t13 -30q0 -33 -50.5 -81t-148.5 -79z" />
    <glyph glyph-name="afii10023" unicode="&#x401;" horiz-adv-x="700" 
d="M290 343v-247q0 -39 18.5 -59t64.5 -20h42q84 0 140.5 51.5t106.5 172.5q7 19 17 19h3q3 -1 4 -1l-58 -280q-76 21 -196 21h-401v7q0 7 15 10.5t33.5 7.5t33.5 24t15 56v473q0 32 -15 50t-33 20.5t-33 6.5t-15 12v7h321q189 0 251 28q4 -36 9 -76.5t10 -88.5t8 -76
q-4 -2 -8 -2q-7 0 -16 19q-43 104 -87.5 141t-133.5 37h-96v-295h83q38 0 60.5 19t27.5 42t11.5 42t16.5 19h5v-270h-6q-11 0 -16.5 20.5t-9.5 44.5t-25 44.5t-58 20.5h-89zM251 870q28 0 47.5 -19.5t19.5 -46.5q0 -28 -19.5 -48t-47.5 -20t-47.5 20t-19.5 48
q0 27 19.5 46.5t47.5 19.5zM448 870q28 0 48 -19.5t20 -46.5q0 -28 -20 -48t-48 -20t-47 19.5t-19 48.5q0 27 19 46.5t47 19.5z" />
    <glyph glyph-name="afii10051" unicode="&#x402;" horiz-adv-x="890" 
d="M31 698q93 -24 297 -24q233 0 314 25l2 -2l25 -249q-1 0 -3 -0.5t-3 -0.5q-2 0 -3 0.5t-2.5 1t-2.5 1.5t-2 2.5t-2 3.5t-1.5 3.5t-1.5 5t-2 5.5t-2.5 6.5l-2.5 7.5q-32 96 -78 133.5t-123 37.5h-34v-302q84 42 174 42q122 0 196.5 -83t74.5 -201q0 -113 -65 -194.5
t-186 -81.5q-61 0 -101.5 22t-40.5 69q0 24 16 41.5t40 17.5q31 0 47.5 -21t16.5 -52q0 -36 -17 -56q112 0 112 245q0 132 -51 195t-129 63q-45 -3 -87 -22v-237q0 -34 10.5 -53t23 -22.5t23 -7.5t10.5 -11v-6h-324v6q0 7 14.5 11t32 8t32 23t14.5 52v555h-10
q-80 0 -125 -40t-81 -150q-6 -19 -16 -19q-4 0 -6 1q17 157 26 249v1z" />
    <glyph glyph-name="afii10052" unicode="&#x403;" horiz-adv-x="638" 
d="M292 656v-554q0 -35 15.5 -54.5t33.5 -23t33.5 -7t15.5 -11.5v-6h-356v6q0 6 10 9.5t24 6.5t28 9.5t24 24.5t10 47v475q0 32 -15 50t-33 20.5t-33 6.5t-15 12v7h313q189 0 251 28q4 -36 9 -76.5t10 -88.5t8 -76q-4 -2 -8 -2q-7 0 -16 19q-43 104 -87.5 141t-133.5 37h-88
zM257 731l-4 12q44 23 76 52t46 49.5t30 35t34 14.5q24 0 37 -13t13 -30q0 -12 -12 -28.5t-37 -35.5t-73 -34.5t-110 -21.5z" />
    <glyph glyph-name="afii10053" unicode="&#x404;" horiz-adv-x="680" 
d="M389 685q87 0 186 -30l34 47q1 0 4 -0.5t5 -0.5l9 -255h-3q-6 0 -9.5 4t-8.5 19q-11 32 -18.5 51.5t-24.5 51t-36 49.5t-50 32t-68 14q-93 0 -137 -88t-46 -243q39 54 107 54q19 0 58.5 -8t58.5 -8q26 0 40 30q9 -3 11 -3q-10 -47 -37.5 -71.5t-63.5 -24.5q-24 0 -68 13
t-61 13q-27 0 -45 -21q2 -303 191 -303q148 0 203 205q1 5 3 11.5t3 10.5t2.5 9t2.5 8t2.5 6.5t2.5 5.5t2.5 4t3 2.5t3.5 0.5h6l-11 -288h-10l-34 47q-108 -40 -209 -40q-162 0 -254 94t-92 244q0 152 95 255t253 103z" />
    <glyph glyph-name="afii10054" unicode="&#x405;" horiz-adv-x="620" 
d="M284 -12q-114 0 -183.5 41t-69.5 98q0 32 20 51t47 19q40 0 62 -27.5t22 -68.5q0 -42 -19 -74q45 -21 106 -21q69 0 117 35t48 95q0 44 -39 80t-94.5 62.5t-111 53.5t-94.5 68t-39 93q0 94 74.5 143.5t186.5 49.5q104 0 167.5 -37t63.5 -91q0 -31 -18.5 -48.5
t-45.5 -17.5q-35 0 -58 23.5t-23 63.5q0 41 15 75q-37 13 -88 13q-52 0 -87.5 -29.5t-35.5 -78.5q0 -37 39.5 -68.5t95.5 -57t112 -54.5t95.5 -75t39.5 -104q0 -102 -85.5 -157t-219.5 -55z" />
    <glyph glyph-name="afii10055" unicode="&#x406;" horiz-adv-x="433" 
d="M296 580v-477q0 -35 15.5 -55t33.5 -23.5t33.5 -7t15.5 -11.5v-6h-356v6q0 6 10 9.5t24 6.5t28 9.5t24 24.5t10 47v477q0 30 -15 47.5t-33 20.5t-33 7.5t-15 11.5v7h356v-7q0 -7 -15.5 -11t-33.5 -7.5t-33.5 -20.5t-15.5 -48z" />
    <glyph glyph-name="afii10056" unicode="&#x407;" horiz-adv-x="433" 
d="M296 580v-477q0 -35 15.5 -55t33.5 -23.5t33.5 -7t15.5 -11.5v-6h-356v6q0 6 10 9.5t24 6.5t28 9.5t24 24.5t10 47v477q0 30 -15 47.5t-33 20.5t-33 7.5t-15 11.5v7h356v-7q0 -7 -15.5 -11t-33.5 -7.5t-33.5 -20.5t-15.5 -48zM118 847q28 0 47.5 -19.5t19.5 -46.5
q0 -28 -19.5 -48t-47.5 -20t-47.5 20t-19.5 48q0 27 19.5 46.5t47.5 19.5zM315 847q28 0 48 -19.5t20 -46.5q0 -29 -19.5 -48.5t-48.5 -19.5q-28 0 -47 19.5t-19 48.5q0 27 19 46.5t47 19.5z" />
    <glyph glyph-name="afii10057" unicode="&#x408;" horiz-adv-x="401" 
d="M124 -25v605q0 31 -15 48.5t-33 20.5t-33 7t-15 11v7h358v-7q0 -7 -15.5 -11t-34.5 -7.5t-34.5 -20.5t-15.5 -48q0 -52 0.5 -209.5t0.5 -188.5q0 -201 -87 -292q-106 -112 -221 -112q-35 0 -66.5 19t-31.5 58q0 31 21.5 51t54.5 20q41 0 64.5 -33t22.5 -88q42 19 61 56
t19 114z" />
    <glyph glyph-name="afii10058" unicode="&#x409;" horiz-adv-x="1075" 
d="M489 654h-170q-2 -333 -53.5 -502.5t-173.5 -169.5q-39 0 -64.5 21t-25.5 53q0 31 22 50.5t53 19.5q35 0 62 -25.5t36 -68.5q108 94 120 473q0 62 -7 90q-6 24 -24 37.5t-37 16t-34 6.5t-15 11v8h567v-7q0 -7 -14.5 -11t-31.5 -8t-31.5 -25t-14.5 -58v-173q63 9 120 9
q39 0 75.5 -5.5t73.5 -20t63.5 -36.5t43.5 -58t17 -82q0 -34 -13.5 -66.5t-41 -63.5t-79.5 -50t-121 -19h-393v6q0 7 9.5 10t23 6.5t26.5 11.5t22.5 29.5t9.5 55.5v535zM653 375v-259q0 -49 13.5 -74.5t56.5 -25.5q63 0 106 49.5t43 131.5q0 180 -184 180q-11 0 -35 -2z" />
    <glyph glyph-name="afii10059" unicode="&#x40a;" horiz-adv-x="1099" 
d="M122 114v466q0 30 -14.5 47t-31.5 20.5t-31.5 7.5t-14.5 11v7h339v-7q0 -7 -13 -11t-29 -7.5t-29 -20.5t-13 -47v-210h226v210q0 31 -13 48t-28.5 20t-28.5 7t-13 11v7h342v-7q0 -7 -15 -11t-32.5 -7.5t-32.5 -20.5t-15 -47v-197q51 6 119 6q49 0 93 -8.5t86.5 -29
t67.5 -60.5t25 -97q0 -33 -14 -65.5t-42 -62t-80 -48t-119 -18.5h-384v6q0 7 13 11t29 7.5t29 23.5t13 55v248h-226v-250q0 -34 13 -53.5t29 -23t29 -7.5t13 -11v-6h-340v6q0 8 14.5 11.5t32 7.5t32 26.5t14.5 62.5zM675 365v-266q0 -42 15 -62.5t57 -20.5h7q61 0 99.5 47
t38.5 126q0 88 -48.5 133t-122.5 45q-24 0 -46 -2z" />
    <glyph glyph-name="afii10060" unicode="&#x40b;" horiz-adv-x="910" 
d="M247 655h-10q-81 0 -126 -38.5t-80 -145.5q-6 -19 -15 -19q-5 0 -7 1q23 211 26 243q0 1 1 2q93 -24 296 -24q233 0 314 25q0 -1 0.5 -1t0.5 -1l25 -243q-1 0 -3 -0.5t-3 -0.5q-10 0 -19 27q-34 102 -78.5 138.5t-124.5 36.5h-34v-306q85 50 190 50q199 0 199 -188v-110
q0 -34 14.5 -53.5t32.5 -23t32.5 -7.5t14.5 -11v-6h-339v6q0 7 13 11t28 8t28 23t13 53v111q0 79 -29 113.5t-85 34.5q-51 0 -112 -27v-233q0 -34 13.5 -53t29.5 -22.5t29.5 -7.5t13.5 -11v-6h-345v6q0 7 15 11t33 8t33 23t15 52v555z" />
    </font>
</defs>
</svg>
