<?xml version="1.0" standalone="no"?>
<!DOCTYPE svg PUBLIC "-//W3C//DTD SVG 1.1//EN" "http://www.w3.org/Graphics/SVG/1.1/DTD/svg11.dtd" >
<svg xmlns="http://www.w3.org/2000/svg" xmlns:xlink="http://www.w3.org/1999/xlink" version="1.1">
<metadata>
Created by FontForge 20170731 at Tue Apr 19 15:37:22 2011
 By Aleksey,,,
Copyright (c) 2010 Parachute :, www.parachute.gr.  All rights reserved.
</metadata>
<defs>
<font id="PFRegalDisplayPro-BoldItalic" horiz-adv-x="534" >
  <font-face 
    font-family="PF Regal Display Pro"
    font-weight="700"
    font-style="italic"
    font-stretch="normal"
    units-per-em="1000"
    panose-1="2 0 8 3 0 0 0 9 0 3"
    ascent="750"
    descent="-250"
    x-height="453"
    cap-height="673"
    bbox="-183 -300 1125 933"
    underline-thickness="45"
    underline-position="-188"
    slope="-12"
    unicode-range="U+0020-FB06"
  />
<missing-glyph horiz-adv-x="436" 
d="M1 0v689h433v-689h-433zM75 49h285l-143 249zM217 392l143 249h-285q82 -143 142 -249zM49 586v-481q37 61 140 240q-81 143 -140 241zM247 345l138 -240v481h-1z" />
    <glyph glyph-name="f_t" unicode="ft" horiz-adv-x="575" 
d="M309 53q0 26 16 106l51 260h-140l-12 -75q-34 -213 -79 -340.5t-98.5 -178.5t-125.5 -51q-32 0 -55 18t-23 42t16 39t38 15q30 0 49.5 -24t19.5 -68q37 10 53 89q19 102 47.5 289.5t40.5 244.5h-86q0 7 2 17h87q31 137 104 220.5t155 83.5q35 0 56 -15.5t21 -39.5
q0 -25 -17 -39t-42 -14q-61 0 -67 84q-40 -20 -58 -125q-12 -70 -24 -155h142q51 16 88.5 57t57.5 99h13l-30 -156h114l-3 -17h-114l-75 -395q50 33 97 83l9 -9q-45 -53 -86.5 -81.5t-69.5 -28.5q-72 0 -72 65z" />
    <glyph glyph-name="f_f_t" unicode="fft" horiz-adv-x="847" 
d="M581 53q0 25 9 68l59 298h-136q-37 -257 -86 -405q-48 -145 -123 -200q-55 -41 -106 -41q-34 0 -56.5 17t-22.5 42q0 24 15.5 38t37.5 14q25 0 47 -20.5t22 -66.5q43 13 53 81q56 376 90 541h-143l-78 -424q-53 -8 -91 -49.5t-52 -112.5l-4 -20h-16q33 169 115 606h-87
l3 17h88q17 77 49.5 133.5t75 87.5t87 45t92.5 14q30 0 52 -11t28 -30q68 71 146 71q31 0 53 -16t22 -41t-17.5 -39t-42.5 -14q-31 0 -49 24t-17 60q-42 -23 -59 -128q-4 -23 -11.5 -75.5t-12.5 -80.5h138q51 16 88.5 57t57.5 99h13l-30 -156h113q-2 -12 -2 -17h-114
l-75 -395q51 34 96 83l10 -9q-89 -108 -167 -108q-30 0 -46 17t-16 46zM245 436h143q21 100 64 171q-31 0 -49 21t-18 54q0 6 2 16q-26 -2 -48 -19t-35 -39t-24.5 -56.5t-17.5 -59.5t-12 -61z" />
    <glyph glyph-name="fj" unicode="fj" horiz-adv-x="548" 
d="M-5 -178q16 88 35 187.5t42.5 221.5t36.5 188h-87l3 17h87q29 136 108 218t186 82q46 0 77 -16t31 -47q0 -27 -16 -41t-41 -14q-36 0 -53.5 26.5t-17.5 64.5q0 6 1 10q-24 -2 -42.5 -11t-32.5 -29t-23.5 -39t-19 -56.5t-15 -66t-14.5 -81.5h83q94 0 190 18l3 -3l-59 -323
q-11 -59 -31 -125q-30 -94 -93.5 -164.5t-149.5 -70.5q-30 0 -55 18.5t-25 43.5q0 26 17 41t42 15t45.5 -24t20.5 -65v-6q13 4 23 16t17 35t10.5 37.5t9.5 48.5t8 43l70 372q8 46 -3 61t-54 15h-72l-75 -411q-118 -18 -147 -162l-5 -24h-15z" />
    <glyph glyph-name="ffj" unicode="ffj" horiz-adv-x="821" 
d="M246 436h139q23 106 69 170q-33 6 -50.5 23.5t-17.5 53.5q0 4 2 16q-54 -5 -83 -53t-48 -150zM510 419l-74 -412q-118 -18 -146 -163l-5 -23h-16l114 598h-140l-86 -458q-123 -18 -147 -184h-15q40 214 122 642h-88l3 17h88q17 77 49 134t73 88t84.5 45.5t91.5 14.5
q31 0 57 -13t31 -34v-3q77 68 176 68q44 0 74.5 -17t30.5 -46q0 -27 -16 -41t-41 -14q-32 0 -51 21.5t-19 57.5q0 10 3 22q-58 -10 -89.5 -67.5t-51.5 -167.5l-9 -48h83q94 0 190 18l3 -3l-59 -323q-11 -59 -31 -125q-30 -94 -93.5 -164.5t-149.5 -70.5q-30 0 -55 18.5
t-25 43.5q0 26 17 41t42 15t45.5 -24t20.5 -65v-6q13 4 23 16t17 35t10.5 37.5t9.5 48.5t8 43l70 372q8 46 -3 61t-54 15h-72z" />
    <glyph glyph-name="fb" unicode="fb" horiz-adv-x="828" 
d="M576 744l-45 -239q-37 -195 -67 -295h5q47 134 97 188t105 54q54 0 89 -37t35 -115q0 -77 -27.5 -147t-84 -117.5t-130.5 -47.5q-77 0 -122 53q-66 -14 -119 -61h-13l125 655q4 24 4 30q0 48 -44 48q-42 0 -77 -36t-46 -103l-23 -138h91l-3 -17h-90q-56 -296 -94.5 -422
t-107.5 -174q-51 -49 -113 -49q-35 0 -56.5 18t-21.5 43q0 24 15.5 38t37.5 14q31 0 50 -23.5t19 -66.5q43 12 54 90q19 101 47.5 288t40.5 244h-87l3 17h86q27 131 106.5 212.5t187.5 81.5q7 0 33 -2q46 7 136 19zM616 406q-36 0 -84.5 -87t-76.5 -203l-15 -64
q37 -37 75 -37q58 0 102.5 99t44.5 201q0 91 -46 91z" />
    <glyph glyph-name="ffb" unicode="ffb" horiz-adv-x="1094" 
d="M377 419h-135l-78 -421q-116 -17 -144 -164l-3 -19h-16l115 604h-87l3 17h87q17 77 50 133.5t75.5 87.5t86.5 45t92 14q31 0 54.5 -12t28.5 -33q71 59 163 59q12 0 28 -2l142 19l3 -3q-11 -59 -41 -218q-42 -216 -71 -316h4q48 134 97.5 188t104.5 54q54 0 89 -37
t35 -115q0 -77 -27.5 -147t-84 -117.5t-130.5 -47.5q-80 0 -125 54q-63 -14 -116 -62h-13q104 538 123 642q6 24 6 43q0 48 -45 48q-61 0 -88 -61.5t-50 -215.5h91q0 -3 -0.5 -5.5t-1.5 -6t-1 -5.5h-91q-73 -501 -201 -600q-55 -43 -103 -43q-86 0 -86 64q0 21 14.5 36
t38.5 15q33 0 55 -24t19 -69q28 14 45 84q21 94 48 286.5t40 250.5zM245 436h136q21 101 68 170q-31 7 -47 24t-16 50q0 11 2 17q-21 -5 -37 -14t-27.5 -18t-22 -29t-16.5 -34t-14 -46t-12.5 -53.5t-13.5 -66.5zM882 406q-38 0 -84.5 -85.5t-76.5 -204.5l-16 -64
q37 -37 75 -37t73 45.5t55 111.5t20 128q0 106 -46 106z" />
    <glyph glyph-name="fh" unicode="fh" horiz-adv-x="836" 
d="M673 298q0 110 -49 110q-42 0 -94.5 -100t-77.5 -218l-19 -90h-129q78 412 118 619q6 32 6 46q0 48 -44 48q-42 0 -77 -36t-46 -103l-23 -138h91l-3 -17h-90l-16 -93q-36 -207 -69 -306q-48 -144 -123 -203q-53 -43 -107 -43q-33 0 -55.5 18t-22.5 43q0 24 15.5 40
t37.5 16q27 0 48 -23.5t21 -66.5q39 10 55 90q21 106 48.5 290.5t38.5 237.5h-87l3 17h87q27 132 106.5 213t189.5 81q12 0 30 -2l138 19l4 -3l-74 -395q-10 -58 -37 -148h3q85 251 210 251q54 0 87.5 -37t33.5 -118q0 -126 -71 -224.5t-164 -98.5q-38 0 -60 19t-22 46
q0 22 12.5 38t34.5 16q26 0 40.5 -20.5t14.5 -53.5q0 -15 -4 -30h1q42 18 66 110t24 199z" />
    <glyph glyph-name="ffh" unicode="ffh" horiz-adv-x="1101" 
d="M245 436h136q21 101 68 170q-31 7 -47 24t-16 50q0 11 2 17q-21 -5 -37 -14t-27.5 -18t-22 -29t-16.5 -34t-14 -46t-12.5 -53.5t-13.5 -66.5zM838 747l4 -3q-56 -300 -60 -320q-3 -16 -11 -61t-16 -79t-23 -83h3q85 251 210 251q55 0 89.5 -37.5t34.5 -118.5
q0 -128 -73.5 -227t-164.5 -99q-39 0 -60.5 19.5t-21.5 46.5q0 21 12.5 36t34.5 15q26 0 41.5 -20.5t15.5 -51.5q0 -14 -5 -29q43 14 67 103.5t24 206.5q0 112 -49 112q-43 0 -95.5 -99.5t-77.5 -218.5l-19 -90h-129q39 207 119 623q5 27 5 42q0 48 -45 48q-61 0 -88 -62
t-50 -215h91l-3 -17h-91q-38 -247 -83 -388t-100.5 -200t-134.5 -59q-33 0 -54.5 16.5t-21.5 41.5q0 24 15.5 38t38.5 14q25 0 46.5 -24.5t21.5 -65.5q40 12 54 88q14 80 45 277t45 262h-137l-79 -424q-116 -17 -143 -164q-1 -3 -2 -10t-2 -10h-16q72 372 116 608h-87l3 17
h87q17 77 50 133.5t75.5 87.5t86.5 45t92 14q31 0 54.5 -12t28.5 -33q71 59 163 59q12 0 28 -2q47 7 141 19z" />
    <glyph glyph-name="fk" unicode="fk" horiz-adv-x="804" 
d="M107 419h-87l3 17h86q27 132 107 213t190 81q12 0 30 -2l137 19l4 -3l-61 -316q-2 -12 -10 -53.5t-12 -60.5t-13 -55t-21 -72h4q42 132 100.5 198.5t123.5 66.5q37 0 58.5 -20.5t21.5 -52.5q0 -46 -44.5 -87t-106.5 -61q25 -117 85 -200q40 29 82 76l10 -9
q-94 -111 -160 -111q-56 0 -87.5 62t-39.5 150q80 25 122.5 62t42.5 82q0 21 -11 36t-32 15q-49 0 -102.5 -95t-75.5 -213l-18 -86h-131q75 389 122 635q4 16 4 30q0 48 -44 48q-42 0 -77 -36t-46 -103l-23 -138h91l-3 -17h-89q-72 -494 -202 -594q-55 -43 -103 -43
q-86 0 -86 64q0 21 14.5 36t38.5 15q33 0 55 -24t19 -69q28 14 45 84q22 94 49 283.5t40 247.5z" />
    <glyph glyph-name="ffk" unicode="ffk" horiz-adv-x="1070" 
d="M245 436h136q21 101 68 170q-31 7 -47 24t-16 50q0 11 2 17q-21 -5 -37 -14t-27.5 -18t-22 -29t-16.5 -34t-14 -46t-12.5 -53.5t-13.5 -66.5zM697 728q47 7 141 19l4 -3l-85 -432q-10 -49 -32 -125h4q42 132 100.5 198.5t124.5 66.5q38 0 60.5 -22t22.5 -55
q0 -47 -46.5 -85.5t-108.5 -58.5q25 -117 85 -200q38 27 83 76l9 -9q-94 -111 -160 -111q-55 0 -87 62t-39 150q79 25 122 62t43 82q0 21 -11.5 36t-32.5 15q-48 0 -101.5 -95t-76.5 -213q-10 -46 -17 -86h-132l121 626q5 28 5 39q0 48 -45 48q-60 0 -88 -63.5t-50 -213.5
h91q0 -3 -0.5 -5.5t-1.5 -6t-1 -5.5h-91l-13 -86q-63 -421 -196 -519q-56 -41 -109 -41q-33 0 -54.5 17t-21.5 41t15.5 38t38.5 14q30 0 49 -21.5t19 -64.5q39 14 52 76q18 96 48.5 290t43.5 256h-137l-78 -422q-116 -17 -144 -165l-3 -19h-16l115 606h-87l2 17h88
q17 77 50 133.5t75.5 87.5t86.5 45t92 14q31 0 54.5 -12t28.5 -33q71 59 163 59q12 0 28 -2z" />
    <glyph glyph-name="longs_b" unicode="&#x17f;b" horiz-adv-x="828" 
d="M261 574l-25 -155q-44 -275 -87.5 -411t-114.5 -185q-51 -49 -113 -49q-35 0 -56.5 18t-21.5 43q0 24 15.5 38t37.5 14q31 0 50 -23.5t19 -66.5q43 12 54 90q19 101 47.5 288t40.5 244h-87l3 17h86q27 131 106.5 212.5t187.5 81.5q7 0 33 -2q46 7 136 19l4 -3l-45 -239
q-37 -195 -67 -295h5q47 134 97 188t105 54q54 0 89 -37t35 -115q0 -77 -27.5 -147t-84 -117.5t-130.5 -47.5q-77 0 -122 53q-66 -14 -119 -61h-13l125 655q4 24 4 30q0 48 -44 48q-42 0 -77 -36t-46 -103zM616 406q-36 0 -84.5 -87t-76.5 -203l-15 -64q37 -37 75 -37
q58 0 102.5 99t44.5 201q0 91 -46 91z" />
    <glyph glyph-name="longs_h" unicode="&#x17f;h" horiz-adv-x="836" 
d="M261 574l-41 -248q-32 -196 -69 -306q-48 -144 -123 -203q-53 -43 -107 -43q-33 0 -55.5 18t-22.5 43q0 24 15.5 40t37.5 16q27 0 48 -23.5t21 -66.5q39 10 55 90q21 106 48.5 290.5t38.5 237.5h-87l3 17h87q27 132 106.5 213t189.5 81q12 0 30 -2l138 19l4 -3l-74 -395
q-10 -58 -37 -148h3q85 251 210 251q54 0 87.5 -37t33.5 -118q0 -126 -71 -224.5t-164 -98.5q-38 0 -60 19t-22 46q0 22 12.5 38t34.5 16q26 0 40.5 -20.5t14.5 -53.5q0 -15 -4 -30h1q42 18 66 110t24 199q0 110 -49 110q-42 0 -94.5 -100t-77.5 -218l-19 -90h-129
q78 412 118 619q6 32 6 46q0 48 -44 48q-42 0 -77 -36t-46 -103z" />
    <glyph glyph-name="longs_i" unicode="&#x17f;i" horiz-adv-x="563" 
d="M233 407q-35 -239 -81 -379.5t-101 -197t-130 -56.5q-32 0 -55 18.5t-23 42.5t15 38t38 14q30 0 49.5 -21t19.5 -61v-8q35 13 49 70q25 106 54 306t39 246h-87l2 17h89q28 135 109.5 217.5t187.5 82.5q44 0 76 -16.5t32 -46.5q0 -26 -16.5 -40.5t-41.5 -14.5
q-34 0 -52 22t-18 54q0 9 4 25q-8 0 -15 -3q-33 -8 -55.5 -29.5t-38.5 -65t-26.5 -89t-23.5 -125.5zM505 364q-10 -69 -34 -186.5t-30 -153.5q49 32 96 83l9 -9q-91 -109 -165 -109q-63 0 -63 70q0 17 12 75l54 282q-37 -26 -97 -87l-3 3t-3.5 4t-3.5 3q96 113 164 113
q65 0 65 -70q0 -3 -0.5 -9t-0.5 -9z" />
    <glyph glyph-name="longs_k" unicode="&#x17f;k" horiz-adv-x="804" 
d="M261 574l-24 -155q-41 -262 -89.5 -403t-112.5 -191q-55 -43 -103 -43q-86 0 -86 64q0 21 14.5 36t38.5 15q33 0 55 -24t19 -69q28 14 45 84q22 94 49 283.5t40 247.5h-87l3 17h86q27 132 107 213t190 81q12 0 30 -2l137 19l4 -3l-61 -316q-2 -12 -10 -53.5t-12 -60.5
t-13 -55t-21 -72h4q42 132 100.5 198.5t123.5 66.5q37 0 58.5 -20.5t21.5 -52.5q0 -46 -44.5 -87t-106.5 -61q25 -117 85 -200q40 29 82 76l10 -9q-94 -111 -160 -111q-56 0 -87.5 62t-39.5 150q80 25 122.5 62t42.5 82q0 21 -11 36t-32 15q-49 0 -102.5 -95t-75.5 -213
l-18 -86h-131q75 389 122 635q4 16 4 30q0 48 -44 48q-42 0 -77 -36t-46 -103z" />
    <glyph glyph-name="longs_l" unicode="&#x17f;l" horiz-adv-x="568" 
d="M227 364q-39 -227 -82 -354.5t-95 -180.5t-128 -53q-31 0 -53 17.5t-22 46.5q0 24 15 38t36 14q31 0 50 -24.5t19 -69.5q22 6 33.5 28.5t20.5 67.5q20 102 47 285.5t39 239.5h-87l3 16h87q26 135 109 214.5t199 79.5q2 0 7 -0.5t7 -0.5q41 6 142 19l3 -3
q-46 -239 -136 -715q47 30 96 79l9 -10q-46 -53 -89.5 -81.5t-70.5 -28.5q-68 0 -68 64q0 16 10 74l94 499q6 30 6 40q0 47 -44 47q-42 0 -74.5 -35.5t-46.5 -103.5q-6 -29 -36 -209z" />
    <glyph glyph-name="longs_longs" unicode="&#x17f;&#x17f;" horiz-adv-x="541" 
d="M249 459q-20 -105 -47 -256t-39 -213q-117 -17 -144 -165q-1 -3 -2 -9.5t-2 -9.5h-15l116 613h-87q0 5 2 17h88q17 77 50 133.5t75.5 87.5t86.5 45t92 14q30 0 52 -11t29 -30q66 71 146 71q30 0 52 -16.5t22 -40.5q0 -25 -17 -39t-43 -14q-64 0 -66 84q-38 -20 -53 -98
q-6 -32 -17.5 -110.5t-17.5 -115.5q-41 -255 -90.5 -394t-115.5 -189q-49 -37 -106 -37q-35 0 -56.5 16.5t-21.5 41.5t16 40t39 15q31 0 49 -23t18 -67q38 15 51 68q24 106 53 305t39 247h-80l3 17h80q21 100 64 171q-29 0 -47.5 20.5t-18.5 51.5q0 12 2 18q-66 -22 -91 -68
t-48 -170z" />
    <glyph glyph-name="longs_longs_i" unicode="&#x17f;&#x17f;i" horiz-adv-x="836" 
d="M249 459q-11 -61 -40.5 -221.5t-45.5 -247.5q-117 -17 -144 -165q-1 -3 -2 -9.5t-2 -9.5h-15q16 88 55.5 295t60.5 318h-87l2 17h88q17 77 50 133.5t75.5 87.5t86.5 45t92 14q31 0 53.5 -11.5t28.5 -30.5q67 64 147 64q47 0 75 -17.5t28 -45.5q0 -27 -17.5 -42.5
t-44.5 -15.5q-37 0 -54 28t-13 73q-56 -15 -77 -104q-11 -46 -35 -195q-40 -244 -84 -383.5t-99 -200.5t-134 -61q-35 0 -56 17.5t-21 42.5q0 24 15.5 38.5t37.5 14.5q31 0 50 -23t19 -67q41 12 55 89q17 92 46 281.5t42 251.5h-81l3 17h81q22 99 64 170q-66 11 -66 74
q0 11 2 17q-63 -9 -89.5 -60t-49.5 -178zM701 454q35 0 54.5 -16.5t19.5 -47.5q0 -17 -4 -34l-66 -335q42 28 99 84l9 -8q-96 -110 -156 -110q-72 0 -72 70q0 13 3 30l65 333q-36 -25 -99 -88l-10 9q100 113 157 113z" />
    <glyph glyph-name="longs_longs_l" unicode="&#x17f;&#x17f;l" horiz-adv-x="839" 
d="M243 428l-80 -434q-116 -17 -144 -165l-3 -19h-16q78 406 116 609h-87l2 17h88q17 77 50 134t75.5 88t87 45.5t91.5 14.5q31 0 54.5 -13t28.5 -34q71 58 166 58q22 0 30 -1l137 19l3 -3l-137 -720q49 32 96 83l10 -9q-90 -108 -166 -108q-62 0 -62 65q0 13 10 68l97 512
q3 18 3 30q0 48 -45 48q-32 0 -54 -17t-38 -57.5t-25.5 -85.5t-21.5 -122q-46 -298 -92 -431q-47 -134 -118 -185q-60 -43 -107 -43q-34 0 -56.5 16.5t-22.5 42.5q0 24 15 38t38 14q26 0 47.5 -19.5t21.5 -65.5q43 12 54 83q65 422 89 538h-76l3 17h76q21 101 68 170
q-63 13 -63 74q0 11 2 17q-24 -7 -42 -17.5t-32 -28.5t-23 -35.5t-18 -50t-15 -60.5t-15 -77z" />
    <glyph glyph-name="longs_s" unicode="&#x17f;s" horiz-adv-x="686" 
d="M236 419q-39 -248 -84.5 -390t-99.5 -198.5t-131 -56.5q-33 0 -56.5 18t-23.5 42q0 25 16 40t39 15q31 0 49.5 -23.5t19.5 -68.5q41 15 52 75q20 103 49 297t41 250h-87l3 17h88q28 139 115 220.5t201 81.5q40 0 66.5 -18t26.5 -47q0 -26 -15.5 -40.5t-40.5 -14.5
q-32 0 -50.5 23.5t-18.5 53.5q0 13 4 24q-37 0 -64 -20t-45.5 -63t-30 -91.5t-23.5 -125.5zM418 -12q-77 0 -117 26.5t-40 65.5q0 28 16 42.5t35 14.5q26 0 40.5 -17.5t14.5 -43.5q0 -35 -22 -61q31 -11 67 -11q45 0 72 23t27 56q0 23 -19.5 45t-47.5 41t-56 38.5t-47.5 46
t-19.5 56.5q0 67 58 104.5t134 37.5q68 0 108 -26.5t40 -64.5q0 -27 -15.5 -42t-35.5 -15q-26 0 -40 16.5t-14 41.5q0 40 20 65q-24 8 -53 8q-34 0 -60.5 -18t-26.5 -55q0 -22 20.5 -43t50 -39t59 -37.5t50 -48.5t20.5 -62q0 -72 -63 -108t-155 -36z" />
    <glyph glyph-name="ff" unicode="ff" horiz-adv-x="555" 
d="M237 435h142q20 97 63 169q-63 15 -63 74q0 13 1 20q-29 -4 -49.5 -17.5t-34 -31.5t-24.5 -54t-18 -68t-17 -92zM-10 -199q63 341 117 618h-79q2 8 2 16h79q22 101 74.5 166.5t110.5 90t122 24.5q29 0 51.5 -10.5t29.5 -28.5q69 67 147 67q31 0 51.5 -15t20.5 -40
t-17 -39.5t-42 -14.5q-35 0 -52.5 24.5t-16.5 61.5q-39 -24 -66 -195l-14 -91h102l-3 -16h-101q-5 -24 -14 -86q-27 -181 -78 -332q-39 -115 -98 -168t-126 -53q-37 0 -58.5 16.5t-21.5 42.5t16 41t40 15q31 0 49.5 -24.5t18.5 -69.5q25 8 39.5 44t29.5 112q15 79 37.5 242
t35.5 220h-142q-3 -18 -79 -428q-114 -13 -144 -161l-6 -29h-15z" />
    <glyph glyph-name="f_i" unicode="fi" horiz-adv-x="557" 
d="M303 53q0 25 7.5 68.5t21 109.5t18.5 94q8 32 8 58q0 36 -46 36h-80l-12 -78q-33 -213 -77.5 -339t-98.5 -176t-127 -50q-33 0 -56 18.5t-23 42.5q0 25 15.5 39t38.5 14q29 0 49.5 -25t20.5 -67q24 6 37 37.5t27 108.5q15 79 39.5 247.5t36.5 227.5h-77l2 16h79
q30 138 113.5 218.5t193.5 80.5q42 0 69.5 -19t27.5 -48q0 -26 -16.5 -41t-40.5 -15q-33 0 -51 22.5t-18 55.5q0 16 4 28q-38 -3 -63.5 -22t-42.5 -61t-26.5 -83.5t-20.5 -115.5h80q102 0 187 18l3 -3l-81 -423q46 28 97 82l9 -10q-45 -54 -87.5 -82.5t-70.5 -28.5
q-69 0 -69 65z" />
    <glyph glyph-name="f_l" unicode="fl" horiz-adv-x="568" 
d="M318 52q0 16 10 74l94 499q6 30 6 40q0 47 -44 47q-43 0 -76.5 -35.5t-44.5 -103.5q-16 -92 -23 -138h91l-3 -16h-91l-10 -55q-39 -227 -82 -354.5t-95 -180.5t-128 -53q-31 0 -53 17.5t-22 46.5q0 24 15 38t36 14q31 0 50 -24.5t19 -69.5q22 6 33.5 28.5t20.5 67.5
q20 102 47 285.5t39 239.5h-87l3 16h87q26 135 109 214.5t199 79.5q2 0 7 -0.5t7 -0.5q41 6 142 19l3 -3q-46 -239 -136 -715q47 30 96 79l9 -10q-46 -53 -89.5 -81.5t-70.5 -28.5q-68 0 -68 64z" />
    <glyph glyph-name="ffi" unicode="ffi" horiz-adv-x="824" 
d="M582 419h-78q-43 -261 -92 -404.5t-118 -195.5q-57 -43 -107 -43q-34 0 -56 17t-22 41q0 25 15.5 39t38.5 14q31 0 49.5 -22t18.5 -66q41 12 55 89q19 101 47.5 287t40.5 244h-140q-21 -111 -79 -428q-129 -24 -150 -190h-15q17 92 36.5 195t43.5 228.5t37 194.5h-79
l2 17h80q17 77 50 133.5t76 87.5t88 45t93 14q71 0 82 -48q74 66 188 66q39 0 65.5 -17.5t26.5 -45.5q0 -25 -16.5 -39.5t-40.5 -14.5q-34 0 -52 21t-18 53q0 14 4 25q-25 -4 -44 -14t-33.5 -29t-24.5 -38.5t-19 -54.5t-14.5 -64.5t-13.5 -80.5h83q90 0 184 18l2 -3
q-67 -350 -80 -423q44 27 96 82q2 -2 5 -5.5t4 -4.5q-45 -54 -87 -82.5t-70 -28.5q-38 0 -54.5 16t-16.5 52q0 21 52 292q4 18 4 33q0 20 -11 29t-36 9zM237 436h141q20 100 68 170q-67 7 -67 74q0 11 2 17q-60 -11 -87.5 -57t-45.5 -144z" />
    <glyph glyph-name="ffl" unicode="ffl" horiz-adv-x="827" 
d="M-10 -199l117 618h-79q2 8 2 16h79q17 76 51 133t76.5 88t86.5 45.5t90 14.5q32 0 56.5 -12.5t29.5 -33.5q69 59 176 59q3 0 8.5 -0.5t7.5 -0.5l140 19l3 -3q-83 -439 -136 -715q44 27 96 79q1 -2 3 -3.5t4 -3.5l3 -3q-45 -53 -89.5 -81.5t-71.5 -28.5q-68 0 -68 64
q0 24 9 69l91 481q10 50 10 64q0 46 -43 46q-91 0 -120 -173l-18 -104h85l-3 -16h-85l-14 -85q-32 -193 -75 -326q-40 -120 -100.5 -176.5t-127.5 -56.5q-34 0 -56 19t-22 43q0 25 16 40t39 15q31 0 50 -24.5t19 -69.5q33 14 49 78q25 97 54 296.5t39 246.5h-138
q-54 -286 -79 -428q-114 -13 -144 -161l-6 -29h-15zM237 435h138q21 107 65 169q-28 3 -44.5 22.5t-16.5 51.5q0 13 1 20q-58 -9 -85.5 -54t-45.5 -143z" />
    <glyph glyph-name="longs_t" unicode="&#x17f;t" horiz-adv-x="565" 
d="M233 426q-47 -287 -91 -418q-76 -229 -226 -229q-33 0 -55.5 17t-22.5 41q0 25 15.5 39t38.5 14q29 0 49.5 -25t20.5 -67q27 8 39.5 42.5t25.5 114.5q8 49 35 223.5t40 240.5h-77l2 16h79q30 138 111 219t189 81q44 0 74.5 -17t30.5 -46q0 -26 -16.5 -41t-40.5 -15
q-33 0 -51.5 22t-18.5 54q0 16 4 28q-30 -2 -53.5 -17.5t-38 -38t-27 -63.5t-20 -77.5t-16.5 -97.5zM300 55q0 21 7 58q32 164 59 305h-60q0 7 2 17h62q102 34 146 158h13q-2 -10 -30 -157h110l-3 -18h-110l-74 -389q48 29 100 81l2.5 -2.5t2.5 -2t2 -2t2 -2.5
q-47 -56 -92 -84t-77 -28q-31 0 -46.5 14.5t-15.5 51.5z" />
    <glyph glyph-name=".notdef" horiz-adv-x="436" 
d="M1 0v689h433v-689h-433zM75 49h285l-143 249zM217 392l143 249h-285q82 -143 142 -249zM49 586v-481q37 61 140 240q-81 143 -140 241zM247 345l138 -240v481h-1z" />
    <glyph glyph-name=".null" horiz-adv-x="0" 
 />
    <glyph glyph-name="nonmarkingreturn" horiz-adv-x="333" 
 />
    <glyph glyph-name="space" unicode=" " horiz-adv-x="232" 
 />
    <glyph glyph-name="exclam" unicode="!" horiz-adv-x="298" 
d="M133 134q24 0 39.5 -16.5t15.5 -42.5q0 -34 -24.5 -60t-56.5 -26q-23 0 -38.5 16.5t-15.5 41.5q0 34 24.5 60.5t55.5 26.5zM151 190h-16l-1 391q0 128 94 128q66 0 66 -70q0 -29 -15 -72z" />
    <glyph glyph-name="quotedbl" unicode="&#x22;" horiz-adv-x="320" 
d="M214 642l-78 -213h-15l-7 206q-3 75 59 75q21 0 33.5 -11.5t12.5 -31.5q0 -10 -5 -25zM347 642l-78 -213h-15l-7 206q-3 75 59 75q21 0 33.5 -11.5t12.5 -31.5q0 -10 -5 -25z" />
    <glyph glyph-name="numbersign" unicode="#" 
d="M510 413h-98l-53 -159h96q-1 -10 -5 -32h-101l-63 -193h-32q11 32 32 96.5t32 96.5h-146q-15 -43 -64 -193h-32l65 193h-94l6 32h97q6 18 24 73.5t29 85.5h-97l6 31h101l59 180h30q-38 -120 -58 -180h147q38 120 59 180h31l-60 -180h94q-2 -9 -5 -31zM234 413
q-18 -53 -52 -159h145q6 18 17 50t20 58.5t17 50.5h-147z" />
    <glyph glyph-name="dollar" unicode="$" horiz-adv-x="537" 
d="M327 736q-83 -475 -145 -818h-15l13 75q-82 4 -120 43t-38 84q0 36 19 54.5t43 18.5q32 0 49 -22.5t17 -55.5q0 -57 -36 -91q24 -13 69 -17q48 270 51 287q-65 42 -101 83t-36 98q0 81 60.5 131.5t142.5 59.5l12 70h15zM231 -82q18 97 44 245.5t57.5 326.5t43.5 246h16
l-12 -71q73 -8 107 -42.5t34 -75.5q0 -31 -17.5 -49.5t-41.5 -18.5q-31 0 -47.5 20.5t-16.5 52.5q0 50 29 85q-21 7 -51 12l-41 -233q35 -21 58 -37.5t49 -42t39 -56.5t13 -67q0 -92 -67 -149.5t-166 -69.5q-4 -21 -13 -76h-17zM367 147q0 52 -61 100l-42 -231
q45 12 74 47.5t29 83.5zM218 538q0 -38 46 -75q21 125 32 181q-33 -9 -55.5 -37t-22.5 -69z" />
    <glyph glyph-name="percent" unicode="%" horiz-adv-x="796" 
d="M640 720l-451 -759h-19l452 759h18zM274 693q68 0 99 -40.5t31 -104.5q0 -37 -12 -79.5t-34.5 -82.5t-62.5 -66.5t-90 -26.5q-66 0 -97.5 40.5t-31.5 105.5q0 58 21 114t67.5 98t109.5 42zM208 308q39 0 71 105.5t32 195.5q0 69 -39 69t-71 -108t-32 -194q0 -68 39 -68z
M617 393q67 0 98.5 -40.5t31.5 -104.5q0 -37 -12 -79.5t-34.5 -82.5t-63 -66.5t-90.5 -26.5q-66 0 -97.5 40.5t-31.5 105.5q0 57 21 113.5t68 98.5t110 42zM551 8q39 0 71 105.5t32 195.5q0 69 -40 69t-71.5 -107.5t-31.5 -194.5q0 -68 40 -68z" />
    <glyph glyph-name="ampersand" unicode="&#x26;" horiz-adv-x="776" 
d="M352 416v2q1 1 1 2q-108 2 -153.5 35t-45.5 81q0 76 77 125t189 49q83 0 126 -30t43 -74q0 -30 -18 -49.5t-49 -19.5q-26 0 -42.5 18t-16.5 48q0 47 28 80q-21 7 -45 7q-61 0 -100.5 -45.5t-39.5 -115.5q0 -98 118 -103l-5 -16q-87 -8 -152 -85t-65 -202q0 -67 35 -106
t110 -39q73 0 135.5 27t102 69.5t62 91.5t22.5 95q0 58 -33 92.5t-88 34.5q-71 0 -114 -32.5t-43 -83.5q0 -32 25.5 -57.5t71.5 -26.5q-2 14 -2 20q0 28 15 46.5t40 18.5q15 0 24.5 -10t9.5 -24q0 -31 -25.5 -47.5t-58.5 -16.5q-53 0 -85 29t-32 72q0 54 31 91t77 52.5
t100 28t100 20t77 26t31 47.5q0 21 -18.5 31.5t-40.5 10.5q-9 0 -13 -1q6 -10 6 -25q0 -23 -14 -40.5t-37 -17.5q-14 0 -23.5 9t-9.5 23q0 32 28.5 49.5t63.5 17.5q40 0 62 -18.5t22 -48.5q0 -45 -50 -85t-133 -54q52 -46 52 -120q0 -51 -23 -104.5t-66 -100.5t-112.5 -76.5
t-153.5 -29.5q-146 0 -218.5 54.5t-72.5 141.5q0 41 16 81.5t50 79.5t98 66t149 32z" />
    <glyph glyph-name="quotesingle" unicode="'" horiz-adv-x="201" 
d="M223 648q-54 -146 -80 -219h-14q-4 138 -4 208q0 73 58 73q44 0 44 -39q0 -14 -4 -23z" />
    <glyph glyph-name="parenleft" unicode="(" horiz-adv-x="324" 
d="M144 86q0 -178 77 -276q-1 -1 -8 -11q-81 65 -122 162.5t-41 205.5q0 159 84.5 314.5t241.5 258.5l6 -9q-117 -109 -177.5 -288t-60.5 -357z" />
    <glyph glyph-name="parenright" unicode=")" horiz-adv-x="324" 
d="M123 740q81 -68 121.5 -170t40.5 -215q0 -154 -85.5 -306t-236.5 -250l-6 10q114 102 174 277t60 361q0 189 -77 284z" />
    <glyph glyph-name="asterisk" unicode="*" horiz-adv-x="389" 
d="M273 709q15 0 24 -8t9 -22q0 -10 -6 -22l-46 -90h-14l-14 89q-1 3 -1 8q0 19 13.5 32t34.5 13zM145 627q8 0 14 -6l66 -67l-6 -13l-91 -2q-28 -1 -28 26q0 24 15 43t30 19zM260 530l66 -61q10 -10 10 -23q0 -17 -17.5 -33t-39.5 -16q-23 0 -25 31l-6 94zM369 627
q12 0 20.5 -12t8.5 -29q0 -18 -10 -33t-30 -14l-91 2l-3 13l90 67q8 6 15 6zM224 530l10 -8l-40 -94q-14 -31 -35 -31q-16 0 -28 12.5t-12 27.5q0 21 17 32z" />
    <glyph glyph-name="plus" unicode="+" 
d="M469 281h-171q-22 -132 -34 -198h-35q6 33 17 99t17 99h-174l6 38h174l33 190h36q-7 -37 -19.5 -109.5t-13.5 -80.5h171z" />
    <glyph glyph-name="comma" unicode="," horiz-adv-x="225" 
d="M93 140q29 0 44.5 -19t15.5 -49q0 -55 -48.5 -132t-111.5 -122l-10 12q42 35 76.5 86t45.5 94q-17 -13 -40 -13q-25 0 -38.5 14.5t-13.5 39.5q0 35 23 62t57 27z" />
    <glyph glyph-name="hyphen" unicode="-" horiz-adv-x="299" 
d="M264 218h-233l9 52h233q-1 -4 -4.5 -22.5t-4.5 -29.5z" />
    <glyph glyph-name="period" unicode="." horiz-adv-x="216" 
d="M97 141q24 0 40 -17t16 -43q0 -36 -25 -62.5t-59 -26.5q-25 0 -40.5 17t-15.5 43q0 36 25.5 62.5t58.5 26.5z" />
    <glyph glyph-name="slash" unicode="/" horiz-adv-x="279" 
d="M370 728l-378 -788h-28l377 788h29z" />
    <glyph glyph-name="zero" unicode="0" 
d="M342 668q99 0 143 -66t44 -170q0 -52 -11 -110t-35 -118t-58.5 -108t-86.5 -78.5t-113 -30.5q-96 0 -141 66t-45 172q0 59 12 120t37.5 119t61 103.5t85.5 73t107 27.5zM340 652q-47 0 -88.5 -102.5t-62.5 -224t-21 -207.5q0 -115 60 -115q48 0 89.5 100.5t62.5 223
t21 213.5q0 112 -61 112z" />
    <glyph glyph-name="one" unicode="1" 
d="M410 675l3 -4l-101 -583q-4 -23 3 -37.5t19.5 -20t25.5 -8.5t22 -6t8 -9l-1 -7h-314l1 7q1 7 15.5 11t31.5 6.5t33.5 18t21.5 42.5l76 446q7 44 -6 57t-65 13q-15 0 -15 9v7z" />
    <glyph glyph-name="two" unicode="2" 
d="M82 106h191q74 0 112.5 22.5t74.5 76.5q9 15 16 15q2 0 8 -2l-90 -218h-427l-2 8q43 58 102.5 115.5t104.5 97.5t87 86.5t64.5 104t22.5 128.5q0 47 -24.5 76t-69.5 29t-76 -24q36 -23 36 -74q0 -33 -18.5 -56.5t-51.5 -23.5q-25 0 -40 16t-15 39q0 61 62 105.5t149 44.5
q96 0 143 -41t47 -102q0 -51 -30 -99.5t-80 -89.5t-102 -77t-108.5 -78t-87.5 -76z" />
    <glyph glyph-name="three" unicode="3" 
d="M319 672q93 0 135.5 -38t42.5 -90q0 -64 -55 -116.5t-162 -67.5q85 -2 136 -40t51 -107q0 -97 -78 -161t-191 -64q-92 0 -140.5 34.5t-48.5 91.5q0 53 40 89t95 43l6 -11q-35 -54 -35 -135q0 -97 74 -97q61 0 97.5 69t36.5 151q0 61 -33 91t-91 30q-26 0 -40 -3q0 2 -1 8
t-1 8q102 16 151 74t49 130q0 37 -23.5 62.5t-58.5 25.5q-36 0 -63 -18q29 -23 29 -68q0 -26 -19 -53t-53 -27q-24 0 -38.5 15.5t-14.5 38.5q0 57 57.5 96t145.5 39z" />
    <glyph glyph-name="four" unicode="4" horiz-adv-x="537" 
d="M454 424q1 -1 2 -1q2 -1 3 -1q-22 -116 -39 -223h82q-3 -12 -3 -17h-82q-18 -90 -18 -111q0 -27 19.5 -39t39.5 -15t20 -10q0 -5 -1 -7h-306q0 11 13.5 16.5t30 8t33 18t20.5 44.5l15 95h-277l3 16q173 202 334 461h160v-2q-108 -138 -240 -260.5t-237 -197.5h261
q24 139 27 157q78 20 140 68z" />
    <glyph glyph-name="five" unicode="5" 
d="M204 648h189q52 0 79.5 6t39.5 16t29 34q11 14 16 14q2 0 6 -2q-9 -24 -32 -86.5t-35 -97.5q-73 10 -199 10h-107q-11 -34 -31 -98t-28 -90q79 46 171 46q80 0 127.5 -44t47.5 -119q0 -99 -75 -174t-202 -75q-92 0 -138.5 33t-46.5 89q0 57 43.5 92t91.5 44l7 -10
q-34 -62 -34 -140q0 -94 74 -94q44 0 76.5 39.5t46.5 91.5t14 104q0 62 -29 93.5t-81 31.5q-49 0 -99 -27l-14 5z" />
    <glyph glyph-name="six" unicode="6" 
d="M345 412q69 0 110.5 -42.5t41.5 -116.5q0 -108 -76 -186.5t-199 -78.5q-99 0 -144.5 49t-45.5 132q0 86 38.5 168.5t103 147t149 113.5t177.5 75l3 -12q-157 -59 -249.5 -212.5t-92.5 -342.5q0 -105 69 -105q39 0 70.5 45.5t46.5 104.5t15 114q0 49 -18.5 85t-61.5 36
q-2 0 -6 -0.5t-6 -0.5l-2 13q34 14 77 14z" />
    <glyph glyph-name="seven" unicode="7" 
d="M564 660l4 -5q-179 -263 -338 -655h-168q175 284 420 550h-199q-65 0 -92 -13.5t-59 -54.5q-17 -22 -27 -20l-3 1l80 209q88 -12 252 -12h130z" />
    <glyph glyph-name="eight" unicode="8" 
d="M346 672q74 0 122.5 -32.5t48.5 -93.5q0 -54 -39 -101t-105 -65q54 -39 85 -80t31 -94q0 -100 -77.5 -159.5t-189.5 -59.5q-82 0 -138.5 36t-56.5 105q0 66 47 122.5t121 78.5q-83 70 -83 145q0 91 69.5 144.5t164.5 53.5zM232 4q56 1 90.5 42t34.5 93q0 16 -4 31.5
t-13.5 30t-18 25t-25.5 25t-26.5 22.5t-31.5 24t-31 23q-47 -39 -65.5 -94.5t-18.5 -99.5q0 -55 27.5 -88.5t81.5 -33.5zM339 655q-44 0 -76.5 -33.5t-32.5 -85.5q0 -22 9.5 -42t32.5 -40t38.5 -31.5t48.5 -32.5q33 29 46.5 78.5t13.5 88.5q0 44 -20 71t-60 27z" />
    <glyph glyph-name="nine" unicode="9" 
d="M339 672q99 0 144 -51t45 -136q0 -170 -131 -303t-334 -191l-3 11q110 45 188 132t114 191.5t36 218.5q0 52 -17.5 83t-49.5 31q-38 0 -69.5 -43.5t-47 -102.5t-15.5 -115q0 -108 81 -108q7 0 21 2l3 -11q-40 -22 -88 -22q-70 0 -112 38.5t-42 109.5q0 107 77.5 186.5
t199.5 79.5z" />
    <glyph glyph-name="colon" unicode=":" horiz-adv-x="216" 
d="M97 142q25 0 40.5 -17t15.5 -43q0 -36 -25 -63t-58 -27q-25 0 -41 17.5t-16 43.5q0 35 26 62t58 27zM143 419q25 0 41 -17.5t16 -43.5q0 -36 -25 -62.5t-59 -26.5q-25 0 -40.5 17t-15.5 43q0 36 25.5 63t57.5 27z" />
    <glyph glyph-name="semicolon" unicode=";" horiz-adv-x="219" 
d="M92 140q29 0 44.5 -19t15.5 -49q0 -55 -48.5 -132t-111.5 -122l-9 12q41 36 76 87.5t45 92.5q-18 -13 -39 -13q-25 0 -39 14.5t-14 39.5q0 35 23 62t57 27zM145 418q25 0 41 -17t16 -43q0 -36 -25 -63t-58 -27q-25 0 -41 17t-16 43q0 36 26 63t57 27z" />
    <glyph glyph-name="less" unicode="&#x3c;" 
d="M452 62q-216 120 -394 220l4 27l469 219q-5 -35 -7 -45q-135 -63 -407 -187l341 -189q-1 -5 -2.5 -14t-2.5 -16.5t-1 -14.5z" />
    <glyph glyph-name="equal" unicode="=" 
d="M454 192h-379l7 39h379zM483 361h-379l7 40h379z" />
    <glyph glyph-name="greater" unicode="&#x3e;" 
d="M489 282q-255 -121 -468 -220l8 47l406 188l-342 188l8 43l393 -219q-1 -9 -5 -27z" />
    <glyph glyph-name="question" unicode="?" horiz-adv-x="496" 
d="M506 580q-2 -43 -32.5 -84t-73 -72.5t-84.5 -59.5t-71 -57.5t-29 -56.5q0 -34 41 -58l-9 -13q-68 10 -105 42.5t-37 77.5q0 35 27.5 70.5t67 65.5t79 59.5t67 62.5t27.5 65q0 62 -76 62q-28 0 -60 -9q18 -25 18 -59q0 -38 -22.5 -66.5t-59.5 -28.5q-23 0 -38.5 15
t-15.5 40q0 57 55 93t151 36q79 0 129.5 -29.5t50.5 -95.5zM206 130q24 0 40 -17t16 -43q0 -34 -24.5 -60t-56.5 -26q-24 0 -39 16.5t-15 42.5q0 34 24.5 60.5t54.5 26.5z" />
    <glyph glyph-name="at" unicode="@" horiz-adv-x="907" 
d="M454 509q70 0 111 -44q50 7 106 49h11q-35 -143 -75 -396q101 7 168.5 102.5t67.5 211.5q0 124 -79 196t-214 72q-127 0 -234.5 -69.5t-169.5 -187t-62 -254.5q0 -144 78.5 -231t212.5 -87q73 0 134 19l1 -21q-59 -21 -144 -21q-140 0 -224 95t-84 246q0 143 66.5 265.5
t181 195t248.5 72.5q137 0 225 -75.5t88 -209.5q0 -86 -34 -164t-98 -128.5t-143 -50.5q-87 0 -87 70q0 40 21 124l-1 1q-72 -195 -173 -195q-48 0 -78.5 33t-30.5 102q0 109 57.5 194.5t153.5 85.5zM400 139q39 0 84.5 92.5t68.5 219.5q-30 32 -64 32q-49 0 -88 -81.5
t-39 -171.5q0 -91 38 -91z" />
    <glyph glyph-name="A" unicode="A" horiz-adv-x="663" 
d="M94 115l236 462q8 17 8 32q0 22 -15 32t-30.5 14t-15.5 11q0 2 0.5 5t0.5 4h179l99 -585q5 -30 17.5 -47t24.5 -20.5t21.5 -6.5t9.5 -9v-7h-294l1 6q1 7 13 11t25 6.5t24 15t11 34.5q0 12 -5 40l-19 102h-222l-43 -84q-19 -38 -21 -67q0 -19 12.5 -29.5t27 -13t27 -5.5
t12.5 -9t-1 -7h-217q0 10 7 13.5t21 6.5t30 10t37 28.5t39 56.5zM333 540h-4l-157 -309h210z" />
    <glyph glyph-name="B" unicode="B" horiz-adv-x="663" 
d="M348 0h-360q0 14 13.5 19t30 6t33.5 20.5t24 57.5l71 405q12 70 12 84q0 24 -11.5 38t-26 17t-26 6.5t-11.5 9.5q0 4 1 11h336q107 0 157.5 -39t50.5 -96q0 -66 -59.5 -115t-161.5 -55q-1 -1 -1 -2q108 -5 158 -51t50 -110q0 -34 -16 -68.5t-48 -66t-88 -51.5t-128 -20z
M332 358l3 18q63 3 111.5 49t48.5 128q0 49 -34 75.5t-90 26.5h-39l-97 -565q-3 -15 -3 -28q0 -45 56 -45q71 0 128.5 55t57.5 158q0 61 -42.5 93.5t-99.5 34.5z" />
    <glyph glyph-name="C" unicode="C" horiz-adv-x="617" 
d="M448 667q-70 0 -126 -78.5t-84 -188t-28 -217.5q0 -83 32.5 -130t93.5 -47q141 0 223 215q12 30 18 39.5t14 9.5h4q-27 -146 -57 -288h-8q-4 8 -12.5 23t-12.5 23q-103 -39 -198 -39q-125 0 -191 75t-66 198q0 182 109.5 303t272.5 121q82 0 162 -31l38 47l9 -1l-36 -258
h-5q-10 0 -13 28q-4 34 -8 56t-14 51.5t-23.5 46.5t-37.5 29.5t-56 12.5z" />
    <glyph glyph-name="D" unicode="D" horiz-adv-x="722" 
d="M297 0h-310q-1 13 12 17.5t29.5 6.5t33.5 21.5t24 57.5l77 447q0 1 2.5 13t4 22.5t1.5 12.5q0 22 -12 34.5t-26.5 15.5t-26.5 6.5t-12 9.5v4q1 4 1 6h248q364 0 364 -278q0 -45 -12 -94.5t-42.5 -104.5t-75 -98t-117.5 -71t-163 -28zM328 655l-97 -567q0 -3 -1 -9.5
t-2 -11.5t-1 -7q0 -43 53 -43h14q72 0 130 59.5t89.5 155.5t31.5 207q0 112 -46.5 164t-142.5 52h-28z" />
    <glyph glyph-name="E" unicode="E" horiz-adv-x="628" 
d="M287 17h45q81 0 138 50t127 172q13 22 21 22q1 0 3.5 -0.5t3.5 -0.5q-91 -264 -97 -280l-3 -1q-60 21 -219 21h-318q-1 12 11.5 17.5t29.5 7.5t34 20t23 52l83 473l4 28q0 30 -19.5 42t-39 14.5t-19.5 9.5v10h280q170 0 244 30q2 0 3 -1l-16 -244q-2 -1 -6 -1
q-7 0 -13 22q-11 43 -17.5 66t-18 46t-22.5 32.5t-31.5 18t-45 10.5t-63.5 2h-57l-51 -294h71q38 0 64 20.5t36 45t19 45t15 20.5h5l-49 -287h-5q-8 0 -10 21.5t-2 48t-18 48t-55 21.5h-74l-45 -260q-3 -18 -3 -23q0 -44 57 -44z" />
    <glyph glyph-name="F" unicode="F" horiz-adv-x="578" 
d="M97 147l72 423l4 28q0 30 -19.5 42t-39 14.5t-19.5 9.5v10h285q170 0 244 30q2 0 3 -1l-16 -244q-2 -1 -6 -1q-7 0 -13 22q-11 43 -17.5 66t-18 46t-22.5 32.5t-31.5 18t-45 10.5t-63.5 2h-62l-53 -306h83q38 0 64 20.5t36 45t18.5 45t15.5 20.5h4l-48 -287h-5
q-9 0 -10.5 21.5t-1.5 48t-18 48t-55 21.5h-86l-37 -215q-4 -22 -4 -39q0 -25 13 -39t28.5 -16.5t28.5 -6t13 -9.5t-1 -7h-329v2q1 9 12.5 13.5t26 6.5t30 15.5t23.5 38.5q10 31 17 71z" />
    <glyph glyph-name="G" unicode="G" horiz-adv-x="694" 
d="M583 7l-7 -3l-43 41q-122 -56 -226 -56q-125 0 -191 74.5t-66 199.5q0 181 111.5 302t276.5 121q98 0 178 -33l45 49q1 0 4 -0.5t4 -0.5l-38 -261h-3q-11 0 -15 39q-19 188 -150 188q-69 0 -128 -69t-92 -179t-33 -231q0 -181 110 -181q38 0 76 20.5t61 49.5l23 134
q0 2 3 19.5t3 21.5q0 22 -11.5 34.5t-25.5 15.5t-25.5 6.5t-11.5 9.5v3q0 1 0.5 3t0.5 3h292q0 -13 -11.5 -18t-26 -6.5t-29.5 -18.5t-20 -51z" />
    <glyph glyph-name="H" unicode="H" horiz-adv-x="760" 
d="M710 580l-80 -460q-5 -27 -5 -41q0 -30 20 -44t40 -18t20 -10q0 -5 -1 -7h-323q0 9 8 13t20.5 7t25.5 8.5t25 24t17 48.5l43 246h-244l-39 -227q-5 -28 -5 -41q0 -30 18.5 -44t37 -18t18.5 -10q0 -5 -1 -7h-317q0 9 8.5 13t21 7t26 8.5t26 24t17.5 48.5l79 448q5 40 5 50
q0 22 -11.5 34.5t-24.5 15.5t-24.5 6.5t-11.5 9.5v3q0 1 0.5 3t0.5 3h314q0 -13 -13 -18t-29.5 -6.5t-32.5 -18.5t-22 -51l-38 -216h244l33 185q0 3 2 14.5t3.5 22t1.5 13.5q0 22 -11 34.5t-24 15.5t-24 6.5t-11 9.5v3q0 1 0.5 3t0.5 3h313q0 -13 -13 -18t-29.5 -6.5
t-32.5 -18.5t-22 -51z" />
    <glyph glyph-name="I" unicode="I" horiz-adv-x="388" 
d="M327 580l-80 -460q-5 -28 -5 -41q0 -30 20.5 -44t41 -18t20.5 -10q0 -5 -1 -7h-327q0 9 8.5 13t22 7t27 8.5t26 24t17.5 48.5l78 457q0 2 3 19.5t3 21.5q0 22 -11.5 34.5t-25.5 15.5t-25.5 6.5t-11.5 9.5v3q0 1 0.5 3t0.5 3h319q0 -13 -13.5 -18t-30.5 -6.5t-33.5 -18.5
t-22.5 -51z" />
    <glyph glyph-name="J" unicode="J" horiz-adv-x="424" 
d="M95 322l4 17h101q25 98 70.5 164.5t127.5 121.5l-2 4q-94 -62 -190 -62q-52 0 -121 24q-10 -26 -27 -97q-2 0 -6 0.5t-6 0.5q7 42 13.5 68t19.5 63t33 56t47 19q42 0 110.5 -30.5t100.5 -30.5q43 0 91 45l8 -9q-54 -44 -74.5 -106t-48.5 -231h96l-3 -17h-96
q-35 -207 -79.5 -307.5t-110.5 -155.5q-85 -71 -163 -71q-45 0 -72 22.5t-27 58.5q0 31 21.5 50.5t49.5 19.5q42 0 66.5 -30t24.5 -73q0 -15 -1 -21q44 20 62 97q25 115 49 244t32 166h-100z" />
    <glyph glyph-name="K" unicode="K" horiz-adv-x="711" 
d="M319 328h-45l-37 -209q-5 -22 -5 -41q0 -31 19 -44.5t38.5 -16.5t19.5 -10q0 -2 -1 -5v-2h-320v2q0 9 8.5 12.5t21.5 7.5t27 12t27 33t20 64l74 430q5 35 5 38q0 29 -18 41t-36 15t-18 10q0 6 1 8h317q1 -13 -12 -18t-30 -6.5t-34.5 -18.5t-23.5 -50l-40 -234h52l199 194
q56 54 56 80q0 16 -17.5 23t-35 10.5t-16.5 12.5v8h245q0 -14 -13 -19.5t-35 -9t-65 -29t-90 -71.5l-122 -119l146 -315q16 -35 37 -56t36.5 -26t26 -10t10.5 -12v-7h-306v6q1 8 15.5 11.5t29 10.5t14.5 24q0 13 -8 30z" />
    <glyph glyph-name="L" unicode="L" horiz-adv-x="606" 
d="M308 0h-320q-1 12 12 17.5t29.5 7.5t34 20t23.5 52l84 476q3 21 3 25q0 28 -18 40t-36.5 15.5t-18.5 10.5q0 2 0.5 5t0.5 4h319v-3q-2 -11 -16 -15.5t-30 -6.5t-32.5 -18.5t-22.5 -49.5l-86 -483q-5 -32 -5 -36q0 -44 58 -44h37q80 0 137 49.5t127 172.5q13 22 21 22
q1 0 3.5 -0.5t3.5 -0.5q-91 -264 -97 -280l-3 -1q-60 21 -208 21z" />
    <glyph glyph-name="M" unicode="M" horiz-adv-x="878" 
d="M452 202q9 -32 34 -130l-13 -5q-31 78 -146 78l-115 449h-3l-86 -460q-3 -18 -3 -32q0 -33 13 -52.5t28.5 -23t28.5 -7.5t13 -11v-8h-224v6q1 7 12 10.5t27 8.5t33 16.5t33 42t25 76.5l78 402q5 20 5 35q0 28 -18 40.5t-36.5 16t-18.5 9.5q0 2 0.5 5.5t0.5 5.5h215
l112 -449l255 449h223q0 -13 -14 -18.5t-32 -7.5t-35.5 -19.5t-22.5 -52.5l-73 -477q-2 -16 -2 -21q0 -31 19 -44.5t37.5 -17t18.5 -9.5q0 -2 -0.5 -4t-0.5 -3h-312v6q2 7 15 11.5t28.5 8t31 21.5t20.5 50l78 503h-2z" />
    <glyph glyph-name="N" unicode="N" horiz-adv-x="715" 
d="M335 674q33 -65 115.5 -222t124.5 -241l2 1l51 298q6 30 6 59q0 33 -14 52.5t-31 23.5t-31 7.5t-14 10.5q0 8 1 10h233q0 -11 -7.5 -16.5t-19.5 -6.5t-27 -8t-29.5 -18.5t-27.5 -40.5t-21 -72l-90 -518l-50 -3l-309 600h-2l-77 -448q-3 -15 -3 -39q0 -33 14 -52.5
t31.5 -23.5t31.5 -8t14 -11q0 -2 -0.5 -4.5t-0.5 -3.5h-231v6q1 9 17.5 14t37.5 10.5t43 36t31 84.5l69 410q5 25 5 34q0 23 -12 36t-26 16t-26 7.5t-12 12.5v7h234z" />
    <glyph glyph-name="O" unicode="O" horiz-adv-x="718" 
d="M436 686q133 0 200.5 -76.5t67.5 -196.5q0 -79 -28 -155t-77 -136.5t-123 -97.5t-160 -37q-131 0 -198 75.5t-67 195.5q0 112 48.5 209.5t137.5 158t199 60.5zM434 669q-54 0 -99 -55.5t-71.5 -137t-41 -163.5t-14.5 -145q0 -164 115 -164q53 0 98 53t71.5 132.5
t41 162.5t14.5 152q0 165 -114 165z" />
    <glyph glyph-name="P" unicode="P" horiz-adv-x="611" 
d="M89 105l78 453q6 32 6 41q0 22 -11.5 34.5t-25.5 15.5t-25.5 6.5t-11.5 9.5v3q0 1 0.5 3t0.5 3h315q100 0 164.5 -46t64.5 -128q0 -58 -26 -104t-69 -73t-94.5 -41t-107.5 -14q-44 0 -83 6l-27 -154q-5 -28 -5 -41q0 -30 20.5 -43t41 -17t20.5 -12q0 -5 -1 -7h-327
q0 12 13.5 18t30.5 8.5t35 22t24 56.5zM330 655q-9 -54 -19.5 -114.5t-23.5 -134.5t-20 -114q6 -1 17 -1q91 0 147.5 65.5t56.5 168.5q0 62 -34 96t-92 34h-32z" />
    <glyph glyph-name="Q" unicode="Q" horiz-adv-x="718" 
d="M435 686q132 0 200.5 -76t68.5 -195q0 -104 -46 -199.5t-134 -159.5t-198 -68q23 -37 99 -37q16 0 28 3q3 -3 19 -17.5t21.5 -19.5t19.5 -16.5t23 -16.5t21.5 -12t24.5 -9.5t24 -2.5q23 0 61 31l10 -11q-79 -95 -158 -95q-35 0 -71 22.5t-64.5 57t-48 65t-33.5 58.5
q-124 4 -188 77.5t-64 189.5q0 113 48 211.5t137.5 159t199.5 60.5zM433 669q-53 0 -98 -52t-71 -130t-40.5 -159.5t-14.5 -149.5q0 -174 112 -174q54 0 99.5 53.5t72.5 132.5t42 159t15 142q0 178 -117 178z" />
    <glyph glyph-name="R" unicode="R" horiz-adv-x="678" 
d="M329 655q-43 -248 -55 -317h37q76 0 125 56t49 142q0 58 -32 88.5t-87 30.5h-37zM272 321q-15 -83 -37 -212q-4 -20 -4 -31q0 -25 13 -39t29 -16.5t29 -6t13 -9.5q0 -2 -0.5 -4t-0.5 -3h-326v6q1 7 14 11t29.5 7.5t33 23t22.5 53.5l82 478q2 14 2 20q0 28 -18 40t-36 15
t-18 10q0 5 1 9h334q95 0 151 -38t56 -112q0 -92 -79.5 -148.5t-207.5 -56.5q-7 0 -18.5 0.5t-16.5 0.5q15 -27 55.5 -40t84.5 -13q15 0 22 1l77 -178q14 -32 38.5 -48t41.5 -21t17 -13v-7h-212l-144 321h-27z" />
    <glyph glyph-name="S" unicode="S" horiz-adv-x="571" 
d="M218 -12q-97 0 -154 36.5t-57 88.5q0 38 21 58t50 20q31 0 50 -23t19 -54q0 -55 -32 -91q35 -18 90 -18q80 0 132 37.5t52 105.5q0 38 -30 72t-72.5 61t-85 55t-72.5 66t-30 82q0 67 42.5 115t100.5 67.5t122 19.5q97 0 149.5 -34t52.5 -85q0 -32 -19 -51t-46 -19
q-33 0 -50 20.5t-17 52.5q0 50 29 84q-31 13 -80 13q-59 0 -98 -33t-39 -79q0 -34 30.5 -65t73.5 -57.5t86.5 -56t74 -72t30.5 -93.5q0 -105 -93 -164t-230 -59z" />
    <glyph glyph-name="T" unicode="T" horiz-adv-x="606" 
d="M103 697l3 1q76 -24 184 -24h141q151 0 223 23l3 -1q-3 -35 -15 -247h-3q-10 0 -14 18q-21 102 -51.5 145.5t-97.5 43.5h-30l-96 -556q-6 -33 4.5 -51t26.5 -21.5t30 -8t14 -12.5l-1 -7h-322l1 7q1 8 15 12.5t30 8t32.5 21t21.5 48.5l98 559h-29q-60 0 -108.5 -44
t-97.5 -142q-10 -21 -21 -19l-4 1z" />
    <glyph glyph-name="U" unicode="U" horiz-adv-x="718" 
d="M665 537l-37 -225q-27 -160 -96 -242t-207 -82q-233 0 -233 198q0 37 7 73l50 284q8 42 8 56q0 31 -18.5 42.5t-37.5 14t-19 11.5q0 4 1 6h321q0 -12 -13.5 -17t-30.5 -6.5t-34.5 -18.5t-23.5 -51l-59 -334q-9 -48 -9 -92q0 -140 140 -140q83 0 146 72t84 199l39 233
q5 33 5 49q0 34 -14 54t-30.5 24t-30.5 8t-14 11q0 2 0.5 5t0.5 4h234q1 -14 -15.5 -19.5t-38 -8.5t-44.5 -30t-31 -78z" />
    <glyph glyph-name="V" unicode="V" horiz-adv-x="641" 
d="M369 184l174 330q35 65 35 91q0 18 -12 29t-26 13.5t-26 6.5t-12 11q0 1 0.5 4t0.5 5h223l-1 -7q-1 -9 -16 -15t-36.5 -14t-53.5 -42t-62 -89l-274 -515l-30 -2l-121 597q-7 33 -26 48t-34 18.5t-15 11.5v9h305v-2q0 -10 -11.5 -15.5t-26 -7.5t-26 -14.5t-11.5 -34.5
q0 -25 4 -41l74 -375h4z" />
    <glyph glyph-name="W" unicode="W" horiz-adv-x="945" 
d="M339 208h3l164 350q13 26 13 47q0 18 -11 29t-23.5 13.5t-23.5 6.5t-11 11q0 2 0.5 4.5t0.5 4.5h274v-6q0 -9 -19.5 -15t-39 -21t-19.5 -46q0 -10 4 -34l50 -344h3l147 320q23 50 23 75q0 20 -11 31t-24.5 13.5t-24.5 6.5t-11 10q0 2 0.5 5t0.5 5h223q0 -13 -12 -18.5
t-30 -8t-43.5 -23t-47.5 -57.5q-20 -33 -35 -64l-241 -510l-30 -3q-27 174 -79 524h-1l-2 1q-42 -87 -125 -261.5t-125 -261.5q-18 -2 -28 -2l-92 593q-6 36 -24.5 51.5t-34 19t-15.5 10.5q0 2 2 10h301q1 -13 -10.5 -19.5t-26.5 -8.5t-27.5 -13.5t-12.5 -33.5q0 -11 4 -47z
" />
    <glyph glyph-name="X" unicode="X" horiz-adv-x="658" 
d="M356 89l-74 194l-94 -119q-64 -81 -64 -109q0 -19 17 -26.5t34 -10.5t17 -11q0 -2 -0.5 -4t-0.5 -3h-228q0 11 8.5 16t22.5 7.5t40 16.5t54 39q39 36 95 106l93 115l-96 242q-3 8 -18 43q-14 33 -35.5 48t-35.5 19.5t-14 11.5q0 1 2 9h322v-4q0 -10 -11.5 -14.5t-26 -6
t-26 -12t-11.5 -30.5q0 -22 19 -67l54 -131l113 146q28 36 28 63q0 14 -9 21.5t-19.5 9.5t-19.5 6t-9 10q0 4 1 9h224v-5q0 -9 -14 -14.5t-36.5 -12t-60.5 -34t-76 -74.5l-115 -141l125 -307q14 -34 38.5 -49.5t41.5 -19t17 -9.5q0 -5 -1 -7h-341l1 7q1 8 19.5 12t36.5 13.5
t18 32.5q0 11 -5 24z" />
    <glyph glyph-name="Y" unicode="Y" horiz-adv-x="607" 
d="M380 327l126 200q33 51 33 78q0 17 -11 27.5t-23.5 13.5t-23.5 7.5t-11 10.5v4q1 3 1 5h218q1 -12 -10 -17.5t-29.5 -9.5t-49.5 -29.5t-60 -71.5l-154 -240l-33 -179q-4 -28 -4 -41q0 -28 13 -43.5t28 -18.5t27 -7.5t11 -13.5v-2h-327l1 6q1 8 15 12t30.5 8t33.5 24.5
t23 57.5l29 167l-96 307q-10 33 -30 49t-34.5 21t-14.5 13q0 2 0.5 4.5t0.5 3.5h312v-5q0 -9 -12.5 -14.5t-27 -7.5t-27 -12.5t-12.5 -29.5q0 -10 13 -51l74 -226h1z" />
    <glyph glyph-name="Z" unicode="Z" horiz-adv-x="611" 
d="M145 698l3 1q60 -25 245 -25h242l-2 -17l-470 -640h143q90 0 144 49.5t136 191.5q9 14 17 14q1 0 4 -0.5t4 -0.5l-103 -293l-3 -1q-63 23 -196 23h-331l3 15q157 214 475 640h-124q-83 0 -128.5 -38t-102.5 -148q-10 -20 -21 -20q-5 0 -6 1z" />
    <glyph glyph-name="bracketleft" unicode="[" horiz-adv-x="276" 
d="M-8 -187l157 917h185q0 -2 -1 -9t-1 -8h-79l-152 -883h78q0 -2 -1 -9t-1 -8h-185z" />
    <glyph glyph-name="backslash" unicode="\" horiz-adv-x="285" 
d="M209 -66l-150 799h27l151 -799h-28z" />
    <glyph glyph-name="bracketright" unicode="]" horiz-adv-x="276" 
d="M299 730l-158 -916h-183l3 17h76q95 543 152 881h-78l3 18h185z" />
    <glyph glyph-name="asciicircum" unicode="^" horiz-adv-x="499" 
d="M471 360h-42q-98 264 -107 289l-204 -289h-42l240 336h30q24 -66 71.5 -193t53.5 -143z" />
    <glyph glyph-name="underscore" unicode="_" horiz-adv-x="446" 
d="M390 -100h-446l5 31h446z" />
    <glyph glyph-name="grave" unicode="`" horiz-adv-x="512" 
d="M394 526l-4 -11q-57 14 -98.5 34.5t-61 41.5t-28 36.5t-8.5 27.5q1 18 12 31.5t31 13.5q21 0 36 -17t25.5 -40.5t36 -57t59.5 -59.5z" />
    <glyph glyph-name="a" unicode="a" horiz-adv-x="573" 
d="M532 458q-45 -173 -81 -427q49 31 92 77l10 -10q-98 -110 -157 -110q-68 0 -68 65q0 19 10 74.5t19 88.5h-2q-77 -229 -199 -229q-55 0 -90 36.5t-35 114.5q0 122 66 218t176 96q79 0 125 -50q68 13 122 56h12zM312 424q-40 0 -75 -51.5t-53.5 -120.5t-18.5 -129
q0 -88 47 -88q38 0 85.5 83t73.5 204l15 66q-34 36 -74 36z" />
    <glyph glyph-name="b" unicode="b" horiz-adv-x="542" 
d="M182 231h4q84 221 199 221q54 0 89 -37.5t35 -113.5q0 -80 -28.5 -150t-86 -115.5t-133.5 -45.5q-72 0 -120 51q-68 -20 -120 -61h-11q105 545 117 611q8 48 8 53q0 25 -14.5 34.5t-29.5 11t-15 7.5q0 1 0.5 4t0.5 5l204 27q2 -1 4 -5l-66 -346q-15 -71 -37 -151zM228 17
q39 0 74 49.5t54 118t19 130.5q0 87 -45 87q-39 0 -86 -79t-75 -203l-16 -68q32 -35 75 -35z" />
    <glyph glyph-name="c" unicode="c" horiz-adv-x="445" 
d="M314 453q63 0 93.5 -24.5t30.5 -60.5q0 -26 -17 -41t-39 -15q-31 0 -47 21t-16 52q0 28 15 49q-52 0 -91.5 -47.5t-57 -111t-17.5 -127.5q0 -55 25 -87.5t75 -32.5q64 0 127 58q1 -2 9 -10q-91 -89 -200 -89q-83 0 -128 46t-45 123q0 121 78.5 209t204.5 88z" />
    <glyph glyph-name="d" unicode="d" horiz-adv-x="572" 
d="M354 207h-3q-80 -219 -196 -219q-55 0 -89.5 36t-34.5 113q0 123 66.5 218t176.5 95q69 0 114 -38l40 196q4 17 4 30q0 25 -16.5 35t-33 12t-16.5 8v3q1 4 1 6q70 9 210 29l4 -5q-24 -123 -68 -360t-64 -339q43 27 96 83l9 -10q-43 -52 -85.5 -81.5t-70.5 -29.5
q-69 0 -69 70q0 48 25 148zM312 423q-58 0 -102.5 -93t-44.5 -192q0 -102 45 -102q37 0 85 82.5t75 207.5l14 66q-33 31 -72 31z" />
    <glyph glyph-name="e" unicode="e" horiz-adv-x="464" 
d="M206 -12q-86 0 -130.5 45t-44.5 123q0 117 75.5 206.5t206.5 89.5q69 0 103 -27t34 -75q0 -39 -25.5 -70t-68 -50t-89 -30t-98.5 -15q-2 -22 -2 -33q0 -122 95 -122q76 0 148 72l9 -9q-91 -105 -213 -105zM171 205q81 7 125.5 60.5t44.5 115.5q0 53 -41 53
q-44 0 -80 -66.5t-49 -162.5z" />
    <glyph glyph-name="f" unicode="f" horiz-adv-x="296" 
d="M-68 -218q-86 0 -86 64q0 21 14.5 36t38.5 15q33 0 55 -24t19 -69q28 14 45 84q22 94 49 283.5t40 247.5h-86l2 16h87q31 140 105 222.5t156 82.5q34 0 55.5 -15.5t21.5 -39.5q0 -25 -16 -38t-41 -13q-34 0 -52 23t-20 60q-41 -25 -69 -210l-11 -72h102l-3 -16h-101
q-72 -494 -202 -594q-55 -43 -103 -43z" />
    <glyph glyph-name="g" unicode="g" horiz-adv-x="508" 
d="M286 436q-45 0 -77 -83t-32 -155t52 -72q30 0 56 42.5t38.5 96.5t12.5 99q0 72 -50 72zM287 453q31 0 66 -11q19 44 55 72.5t74 28.5q27 0 44.5 -14.5t17.5 -37.5q0 -24 -17 -38.5t-40 -14.5q-20 0 -42.5 17t-24.5 50q-34 -19 -55 -68q44 -15 69.5 -48t25.5 -78
q0 -80 -66 -140t-171 -60q-67 0 -113 26q-22 -11 -35 -25.5t-13 -24.5q0 -17 38.5 -22.5t93 -6.5t109.5 -6.5t93.5 -30t38.5 -68.5q0 -71 -81 -126t-211 -55q-98 0 -141 35.5t-43 81.5q0 32 18 52.5t43 20.5t39.5 -18t14.5 -44q0 -21 -16 -44.5t-35 -31.5q31 -32 102 -32
q63 0 111 35t48 87q0 40 -43 60.5t-94.5 24t-94.5 16.5t-43 39q0 20 23 46t67 44q-47 35 -47 97q0 85 66.5 148.5t168.5 63.5z" />
    <glyph glyph-name="h" unicode="h" horiz-adv-x="544" 
d="M13 0l113 594q6 30 6 46q0 24 -16 34t-32 11.5t-16 7.5v3q1 4 1 6q70 9 210 29l3 -3l-56 -298q-19 -101 -48 -211l1 -1h2q37 111 91 172.5t118 61.5q53 0 87 -37t34 -118q0 -126 -71 -224.5t-164 -98.5q-38 0 -60 19t-22 46q0 22 12.5 37t34.5 15q26 0 40.5 -20t14.5 -52
q0 -15 -4 -30h1q42 18 66 110t24 199q0 106 -50 106q-45 0 -94.5 -87.5t-73.5 -207.5l-22 -109h-130z" />
    <glyph glyph-name="i" unicode="i" horiz-adv-x="318" 
d="M237 696q28 0 45.5 -18.5t17.5 -46.5q0 -37 -27.5 -64.5t-62.5 -27.5q-27 0 -44 18t-17 45q0 37 26.5 65.5t61.5 28.5zM181 454q35 0 54.5 -16.5t19.5 -47.5q0 -17 -4 -34l-66 -335q43 27 99 84l9 -8q-96 -110 -156 -110q-72 0 -72 70q0 13 3 30l65 333q-36 -25 -99 -88
l-10 9q100 113 157 113z" />
    <glyph glyph-name="j" unicode="j" horiz-adv-x="279" 
d="M242 330q-5 -25 -14.5 -80t-15 -84.5t-15.5 -71.5t-20 -75q-13 -43 -34 -83.5t-50.5 -77.5t-71.5 -59.5t-89 -22.5q-34 0 -56.5 16t-22.5 43q0 26 17 43t42 17t45.5 -18.5t20.5 -61.5q0 -3 -0.5 -8t-0.5 -8q32 5 51 108l97 506q-33 -20 -98 -85l-10 11q56 61 92 86.5
t70 25.5t51 -19.5t17 -52.5q0 -19 -5 -49zM142 603q0 36 25.5 64t61.5 28q29 0 47 -19.5t18 -48.5q0 -36 -26.5 -63.5t-60.5 -27.5q-28 0 -46 19t-19 48z" />
    <glyph glyph-name="k" unicode="k" horiz-adv-x="516" 
d="M181 227q1 0 3 -1q39 110 97.5 168.5t123.5 58.5q37 0 58.5 -22.5t21.5 -55.5q0 -46 -47 -84t-110 -60q22 -111 83 -198q22 16 82 73l9 -9q-40 -48 -80 -77.5t-89 -29.5q-47 0 -77 59t-38 146q80 30 121.5 68t41.5 78q0 20 -10.5 31.5t-27.5 11.5q-54 0 -104 -78.5
t-75 -210.5l-18 -95h-132l116 606q4 20 4 32q0 25 -16 35t-32 12t-16 8q0 5 1 9q60 8 209 29l3 -4l-52 -281q-20 -113 -50 -219z" />
    <glyph glyph-name="l" unicode="l" horiz-adv-x="285" 
d="M294 727q-44 -232 -134 -698q47 29 97 79l9 -10q-48 -57 -93 -82.5t-76 -25.5q-28 0 -44 16t-16 45q0 12 6 46l92 480q10 52 10 63q0 19 -10 29.5t-22.5 12t-22.5 4t-10 7.5t1 9q70 9 210 29z" />
    <glyph glyph-name="m" unicode="m" horiz-adv-x="819" 
d="M411 452q43 0 65 -23t22 -60q0 -33 -38 -176l3 -1q46 138 100 199t101 61q45 0 67 -25.5t22 -65.5q0 -17 -11 -78q-9 -50 -28.5 -142.5t-23.5 -112.5q47 26 95 78l10 -9q-94 -108 -167 -108q-29 0 -44.5 18t-15.5 48q0 9 2 19q2 12 44 203q13 55 13 75q0 35 -27 35
q-34 0 -81.5 -96t-71.5 -213q-10 -52 -16 -78h-130l66 314q5 25 5 35q0 38 -27 38q-36 0 -83 -101.5t-71 -223.5l-12 -62h-130l78 413q-50 -32 -98 -85l-10 11q96 112 159 112q34 0 51.5 -17t17.5 -45q0 -45 -43 -202h3q46 143 101 204t103 61z" />
    <glyph glyph-name="n" unicode="n" horiz-adv-x="579" 
d="M176 454q35 0 53.5 -17.5t18.5 -47.5q0 -17 -12.5 -80.5t-28.5 -120.5l3 -1q50 141 109 203.5t108 62.5q89 0 89 -91q0 -22 -6 -56l-58 -278q20 12 49 35.5t47 43.5l9 -10q-96 -110 -158 -110q-70 0 -70 66q0 18 7 51l45 200q8 36 8 54q0 35 -27 35q-37 0 -92.5 -106
t-77.5 -225l-12 -62h-129l77 414q-43 -27 -98 -86l-10 11q97 115 156 115z" />
    <glyph glyph-name="o" unicode="o" 
d="M308 453q99 0 147 -50.5t48 -131.5q0 -111 -81 -197.5t-207 -86.5q-95 0 -139.5 49.5t-44.5 130.5q0 117 78 201.5t199 84.5zM306 436q-41 0 -75 -56.5t-50.5 -131t-16.5 -142.5q0 -103 58 -103q36 0 66 36t47.5 89t27 106t9.5 95q0 107 -66 107z" />
    <glyph glyph-name="p" unicode="p" horiz-adv-x="567" 
d="M237 383q0 -40 -29 -158l2 -1h2q77 228 198 228q55 0 90 -36.5t35 -114.5q0 -122 -66 -217t-176 -95q-75 0 -117 36l-2 -1l-25 -131q-4 -22 -4 -35q0 -25 19.5 -36t38.5 -15t19 -11q0 -4 -1 -6h-292v5q0 8 11.5 12t25.5 7t29 19.5t21 46.5q16 84 50 262t51 271
q-43 -29 -98 -86l-9 10q93 112 162 112q65 0 65 -66zM252 13q60 0 104 98.5t44 202.5q0 88 -44 88q-39 0 -87 -82t-75 -209l-14 -66q32 -32 72 -32z" />
    <glyph glyph-name="q" unicode="q" horiz-adv-x="543" 
d="M272 452q77 0 125 -51q70 17 121 58h12l-106 -556q-6 -36 -6 -45q0 -25 17.5 -36t35 -15t17.5 -11v-6h-298v5q1 8 14 12t29.5 7t33 19.5t22.5 46.5l39 195q16 84 32 138l-3 1q-80 -226 -201 -226q-55 0 -90 37t-35 113q0 77 27.5 147.5t84 118.5t129.5 48zM312 423
q-39 0 -74.5 -51.5t-54.5 -121t-19 -128.5q0 -85 46 -85q47 0 94.5 96.5t82.5 253.5q-31 36 -75 36z" />
    <glyph glyph-name="r" unicode="r" horiz-adv-x="445" 
d="M176 454q71 0 71 -67q0 -39 -43 -199l3 -1q86 264 197 264q31 0 51.5 -16.5t20.5 -42.5t-17 -41.5t-41 -15.5q-31 0 -50.5 21.5t-16.5 56.5q-40 -26 -89 -131.5t-73 -231.5l-10 -50h-129l78 413q-43 -26 -98 -85l-9 11q97 115 155 115z" />
    <glyph glyph-name="s" unicode="s" horiz-adv-x="433" 
d="M264 452q68 0 108 -26t40 -66q0 -28 -16 -43t-36 -15q-27 0 -41 17.5t-14 42.5q0 37 23 65q-24 8 -51 8q-35 0 -62 -18t-27 -56q0 -27 31 -53.5t68.5 -46.5t68.5 -54t31 -74q0 -69 -63 -107.5t-155 -38.5q-78 0 -118 27.5t-40 66.5q0 29 16 43.5t35 14.5q26 0 40 -17
t14 -42q0 -40 -23 -66q24 -11 66 -11t72 22.5t30 58.5q0 29 -30 56.5t-66.5 47t-66.5 51t-30 67.5q0 71 58.5 108.5t137.5 37.5z" />
    <glyph glyph-name="t" unicode="t" horiz-adv-x="305" 
d="M39 55q0 21 7 58q32 164 59 305h-60q0 7 2 17h62q102 34 146 158h13q-2 -10 -30 -157h110l-3 -18h-110l-74 -389q48 29 100 81l9 -9q-47 -56 -92 -84t-77 -28q-31 0 -46.5 14.5t-15.5 51.5z" />
    <glyph glyph-name="u" unicode="u" horiz-adv-x="570" 
d="M519 452q1 0 3 -2l2 -1q-48 -236 -81 -422q40 24 97 83l9 -11q-95 -111 -155 -111q-71 0 -71 62q0 48 39 200h-3q-47 -141 -102.5 -202t-103.5 -61q-90 0 -90 89q0 24 6 51l58 284q-43 -26 -97 -82l-10 11q98 113 158 113q72 0 72 -68q0 -14 -7 -49l-47 -215
q-5 -22 -5 -40q0 -33 25 -33q35 0 85.5 101t75.5 220l9 41q76 8 133 42z" />
    <glyph glyph-name="v" unicode="v" horiz-adv-x="466" 
d="M152 453q45 0 60 -44t33 -194q7 -62 12 -98q65 67 103 114t56 91q-28 6 -48 26t-20 52q0 18 12.5 37.5t40.5 19.5q27 0 40.5 -18.5t13.5 -47.5q0 -41 -32.5 -97t-71.5 -100t-97.5 -107.5t-84.5 -94.5h-23q-25 243 -59 406q-34 -29 -75 -87l-10 8q86 134 150 134z" />
    <glyph glyph-name="w" unicode="w" horiz-adv-x="717" 
d="M420 452q50 0 68 -67.5t37 -265.5q115 129 147 204q-31 6 -53.5 26.5t-22.5 50.5q0 22 14 40.5t39 18.5t41 -17.5t16 -50.5q0 -42 -31.5 -98.5t-66 -98.5t-94 -108.5t-81.5 -93.5h-20q-10 90 -34 268q-66 -102 -213 -268h-20q-25 244 -59 405q-24 -19 -75 -87l-10 9
q86 134 153 134q44 0 61 -52q27 -83 42 -280q72 85 117 160q-11 74 -19 119q-24 -19 -65 -75l-10 9q79 118 139 118z" />
    <glyph glyph-name="x" unicode="x" horiz-adv-x="527" 
d="M205 453q33 0 55 -37t52 -133q42 88 78 128.5t81 40.5q26 0 46.5 -16t20.5 -40q0 -25 -17 -39t-39 -14q-26 0 -45 21t-19 49q-45 -34 -100 -153q9 -31 38 -117.5t33 -99.5q37 32 74 85q6 -3 11 -8q-90 -133 -153 -133q-38 0 -58 35q-10 12 -28.5 59t-26.5 81
q-45 -95 -82 -137.5t-84 -42.5q-25 0 -45.5 15.5t-20.5 39.5q0 25 17 39t38 14q29 0 46.5 -21t17.5 -49q47 32 105 166q-6 23 -33 104.5t-33 101.5q-43 -43 -71 -84l-11 9q92 136 153 136z" />
    <glyph glyph-name="y" unicode="y" horiz-adv-x="462" 
d="M393 456q24 0 39 -17t15 -48q0 -50 -36.5 -110.5t-88.5 -117.5t-104 -112.5t-88.5 -110t-36.5 -95.5q0 -46 42 -58q0 41 18 67.5t49 26.5q22 0 34.5 -13t12.5 -32q0 -29 -26 -49t-61 -20q-38 0 -62.5 21t-24.5 55q0 59 69 148q-35 278 -67 410q-26 -24 -73 -88l-9 8
q39 62 73 96t76 34q44 0 69 -75.5t39 -266.5q10 11 38.5 43t40.5 46.5t31 39t30.5 43.5t18.5 37q-30 9 -49.5 30t-19.5 52q0 18 11.5 37t39.5 19z" />
    <glyph glyph-name="z" unicode="z" horiz-adv-x="471" 
d="M147 455q46 0 135.5 -25.5t107.5 -25.5q37 0 76 55l11 -7q-33 -58 -97 -119t-124.5 -104t-124.5 -92.5t-93 -84.5v-3q74 55 142 55q38 0 102 -32.5t90 -32.5q19 0 30 18q-69 12 -69 76q0 20 12.5 36.5t37.5 16.5q23 0 37 -18.5t14 -45.5q0 -55 -41 -106.5t-114 -51.5
q-47 0 -115 36.5t-100 36.5q-42 0 -73 -48l-12 8q26 51 79.5 101.5t108 88t124.5 92.5t117 106l-2 2q-73 -59 -166 -59q-67 0 -155 27q-7 -17 -28 -95l-12 2q27 193 102 193z" />
    <glyph glyph-name="braceleft" unicode="{" horiz-adv-x="332" 
d="M208 139l-36 -208q-3 -25 -2 -46.5t18.5 -37t52.5 -18.5l-2 -13q-107 -5 -144 39.5t-22 130.5l33 185q5 33 6.5 60t-12 46t-43.5 23l2 15q49 10 66.5 38.5t28.5 92.5l18 108q14 88 65 134.5t156 40.5l-2 -14q-29 -2 -48.5 -12t-30 -28t-15 -32.5t-8.5 -37.5l-21 -121
q-29 -166 -174 -174l-1 -3q71 -4 100.5 -44.5t14.5 -123.5z" />
    <glyph glyph-name="bar" unicode="|" horiz-adv-x="317" 
d="M186 -141h-31v885h31v-885z" />
    <glyph glyph-name="braceright" unicode="}" horiz-adv-x="332" 
d="M154 472l24 140q3 25 3 46.5t-17.5 37t-52.5 18.5l2 13q107 5 142.5 -39t20.5 -131l-20 -117q-5 -33 -6.5 -60t12 -46t43.5 -23l-2 -15q-49 -10 -66.5 -38.5t-28.5 -92.5l-30 -176q-14 -88 -65 -134.5t-156 -40.5l2 13q29 2 48.5 12t30 28t15 32.5t8.5 37.5l33 190
q29 167 174 175l1 3q-71 4 -100 43.5t-15 123.5z" />
    <glyph glyph-name="asciitilde" unicode="~" horiz-adv-x="536" 
d="M486 355l11 -5q-16 -60 -56.5 -100t-94.5 -40q-27 0 -90 20t-94 20q-64 0 -93 -53l-12 4q11 54 50.5 97t96.5 43q24 0 91 -20t100 -20t53.5 11.5t37.5 42.5z" />
    <glyph glyph-name="exclamdown" unicode="&#xa1;" horiz-adv-x="301" 
d="M66 -272q-34 0 -49.5 21.5t-15.5 49.5q0 29 12 62q7 19 58.5 172t73.5 213h15q2 -117 2 -375q0 -56 -21.5 -99.5t-74.5 -43.5zM189 449q23 0 38.5 -17.5t15.5 -42.5q0 -35 -24.5 -61.5t-55.5 -26.5q-24 0 -39.5 17t-15.5 43q0 35 24.5 61.5t56.5 26.5z" />
    <glyph glyph-name="cent" unicode="&#xa2;" 
d="M362 532q69 -1 99.5 -24.5t30.5 -58.5q0 -24 -16.5 -39.5t-38.5 -15.5q-29 0 -44.5 20t-15.5 50q0 31 16 50q-25 0 -37 -4l-77 -388q16 -8 40 -8q63 0 127 56l9 -11q-86 -83 -187 -88l-21 -104h-16q20 97 21 103q-83 1 -126 46.5t-43 121.5q0 114 72 199.5t190 93.5
l21 104h15zM216 235q0 -89 49 -106l74 376q-61 -27 -92 -108.5t-31 -161.5z" />
    <glyph glyph-name="sterling" unicode="&#xa3;" 
d="M157 318h-106l3 18h99q-12 77 -12 102q0 107 67 168.5t173 61.5q76 0 115 -29.5t39 -72.5q0 -24 -14 -42t-42 -18t-43 17.5t-15 44.5q0 42 28 75q-22 7 -49 7q-68 0 -94 -53t-26 -152v-49q0 -41 -2 -60h157l-3 -18h-155q-17 -177 -190 -270l1 -1v-2q63 33 109 33
q54 0 150.5 -50.5t137.5 -50.5q31 0 52 30q-31 5 -49 22.5t-22 30.5t-4 26q0 21 13.5 38.5t38.5 17.5t39 -19.5t14 -49.5q0 -54 -45.5 -110.5t-122.5 -56.5q-43 0 -87 19.5t-75 42.5t-69 42.5t-70 19.5q-31 0 -109 -47q-1 2 -8 14q104 59 143.5 120t39.5 135q0 26 -7 66z
" />
    <glyph glyph-name="currency" unicode="&#xa4;" horiz-adv-x="568" 
d="M291 96q-59 0 -108 35q-9 -10 -29.5 -29.5t-29.5 -29.5l-40 40q43 43 60 59q-36 49 -36 110q0 60 35 109l-59 60l39 41l61 -59q52 36 107 36q59 0 106 -34q9 9 31.5 31t26.5 26l40 -41l-58 -58q36 -53 36 -110q0 -58 -36 -111l58 -58q-7 -8 -22 -24t-16 -17l-59 59
q-49 -35 -107 -35zM291 414q-54 0 -92 -38.5t-38 -93.5q0 -56 38 -95t92 -39t92.5 39.5t38.5 94.5t-38.5 93.5t-92.5 38.5z" />
    <glyph glyph-name="yen" unicode="&#xa5;" 
d="M511 295h-470l4 18h145l-64 248q-8 32 -22 49.5t-25.5 20.5t-20.5 8t-9 15v5h295v-6q-1 -9 -12 -14t-24 -7t-23.5 -12.5t-10.5 -30.5q0 -12 4 -27l59 -226h2l122 214q16 27 16 47q0 15 -10 23.5t-22 10.5t-22 7t-10 12q0 2 0.5 5t0.5 4h208q0 -14 -12.5 -19t-30.5 -7.5
t-44.5 -22.5t-48.5 -57l-141 -240h169zM31 234h470l-3 -17h-171l-20 -119q-2 -16 -2 -21q0 -23 11 -36t24 -15.5t24 -6.5t11 -12v-7h-302q0 13 12 18t27 6.5t31 19.5t22 53l21 120h-158z" />
    <glyph glyph-name="brokenbar" unicode="&#xa6;" horiz-adv-x="317" 
d="M184 380h-30v364h30v-364zM154 268h30v-409h-30v409z" />
    <glyph glyph-name="section" unicode="&#xa7;" horiz-adv-x="544" 
d="M154 -123q-62 0 -91.5 32t-29.5 69q0 33 19.5 53.5t42.5 20.5q32 0 48.5 -22t16.5 -52q0 -47 -29 -81q9 -2 27 -2q44 0 74 26.5t30 72.5q0 35 -28 84.5t-61.5 92.5t-61.5 102t-28 112q0 124 87.5 216t216.5 92q68 0 104 -28.5t36 -73.5q0 -31 -18 -49.5t-44 -18.5
q-31 0 -46 20.5t-15 51.5q0 46 24 76q-15 4 -34 4q-42 0 -68.5 -28.5t-26.5 -77.5q0 -31 19.5 -64.5t47.5 -65.5t55.5 -67.5t47 -82.5t19.5 -97q0 -56 -20 -109.5t-58.5 -100.5t-105 -76t-150.5 -29zM233 624l-3 3q-74 -56 -74 -138q0 -58 31 -121t67.5 -109t67.5 -106.5
t31 -115.5t-37 -103l2 -3q92 52 92 150q0 93 -91 224q-1 2 -26.5 36.5t-33.5 48t-24.5 43.5t-23 55.5t-6.5 50.5q0 46 28 85z" />
    <glyph glyph-name="dieresis" unicode="&#xa8;" horiz-adv-x="498" 
d="M235 673q23 0 37.5 -16.5t14.5 -40.5q0 -31 -23 -54.5t-52 -23.5q-22 0 -37.5 15.5t-15.5 38.5q0 32 23 56.5t53 24.5zM418 673q24 0 38.5 -16.5t14.5 -40.5q0 -31 -23 -54.5t-52 -23.5q-22 0 -37.5 15.5t-15.5 38.5q0 32 22.5 56.5t52.5 24.5z" />
    <glyph glyph-name="copyright" unicode="&#xa9;" horiz-adv-x="817" 
d="M422 572q68 0 122 -30l21 32h8v-166h-3q-12 0 -17 19q-7 24 -13.5 41t-20 40t-36 35.5t-51.5 12.5q-122 0 -122 -226q0 -207 123 -207q46 0 76 26t40 57.5t18 57.5t16 26h6l-2 -182h-9q-4 7 -12 19l-10 15q-70 -36 -139 -36q-105 0 -167.5 64t-62.5 164q0 101 65 169.5
t170 68.5zM415 21q135 0 225 93.5t90 227.5t-90.5 228t-224.5 94q-136 0 -225.5 -93.5t-89.5 -228.5q0 -136 87 -228.5t228 -92.5zM415 -3q-156 0 -251 98.5t-95 246.5q0 145 99.5 246t246.5 101q148 0 247 -101t99 -246q0 -146 -99 -245.5t-247 -99.5z" />
    <glyph glyph-name="ordfeminine" unicode="&#xaa;" horiz-adv-x="375" 
d="M208 595q52 0 87 -32q49 11 80 33h14q-20 -73 -55 -270q29 16 62 48l8 -9q-65 -72 -117 -72q-24 0 -33.5 11.5t-9.5 37.5q0 25 10 67q-1 0 -2 1q-52 -119 -124 -119q-37 0 -61.5 24.5t-24.5 75.5q0 80 45 142t121 62zM238 572q-39 0 -68.5 -57.5t-29.5 -120.5
q0 -62 28 -62q30 0 61 61t55 160q-24 19 -46 19z" />
    <glyph glyph-name="guillemotleft" unicode="&#xab;" horiz-adv-x="436" 
d="M268 412l8 -9l-143 -196q24 -66 74 -198q-3 -3 -11 -9l-153 183q-8 11 -8 21q0 11 14 23q6 7 219 185zM416 412l8 -9l-144 -196l75 -198q-2 -2 -6 -5t-5 -4l-153 183q-8 11 -8 20q0 11 14 24z" />
    <glyph glyph-name="logicalnot" unicode="&#xac;" horiz-adv-x="542" 
d="M480 319q-14 -78 -40 -236h-35q30 180 34 202h-352q2 8 6 34h387z" />
    <glyph glyph-name="sfthyphen" unicode="&#xad;" horiz-adv-x="303" 
d="M268 218h-237l9 52h237z" />
    <glyph glyph-name="registered" unicode="&#xae;" horiz-adv-x="652" 
d="M331 598q130 0 130 -74q0 -32 -31 -52.5t-89 -20.5q-3 0 -9.5 0.5t-9.5 0.5q21 -18 61 -18q13 0 19 1l64 -88q8 -11 18.5 -15.5t16.5 -5.5t6 -5v-4h-98l-100 136h-3v-97q0 -20 17.5 -26t17.5 -9v-4h-139v4q0 4 18 9.5t18 25.5v203q0 15 -9 21t-18 8t-9 6v4h129zM306 590
v-129h12q32 0 51 18t19 46q0 31 -23 48t-52 17h-7zM341 193q-117 0 -188.5 73t-71.5 181q0 107 74.5 181.5t185.5 74.5q112 0 186.5 -74t74.5 -182q0 -106 -74.5 -180t-186.5 -74zM341 219q102 0 167 65.5t65 162.5t-66 163.5t-166 66.5t-165 -65.5t-65 -164.5
q0 -98 64 -163t166 -65z" />
    <glyph glyph-name="macron" unicode="&#xaf;" horiz-adv-x="501" 
d="M461 632l-16 -80q-113 11 -279 0l13 62q77 13 282 18z" />
    <glyph glyph-name="degree" unicode="&#xb0;" horiz-adv-x="365" 
d="M126 572q0 -38 25 -64t64 -26t64 26t25 64t-25.5 65.5t-63.5 27.5t-63.5 -27t-25.5 -66zM95 572q0 51 35 87t85 36t85 -36t35 -87q0 -50 -35 -85t-85 -35q-51 0 -85.5 35t-34.5 85z" />
    <glyph glyph-name="plusminus" unicode="&#xb1;" horiz-adv-x="541" 
d="M428 4h-387l6 38h387zM476 288h-174l-33 -190h-35q2 11 33 190h-177q0 5 3 19.5t3 19.5h178q22 131 31 183h35q-9 -52 -31 -183h175z" />
    <glyph glyph-name="twosuperior" unicode="&#xb2;" horiz-adv-x="364" 
d="M107 369h119q54 0 76.5 12t47.5 44q6 8 12 8q1 0 4 -1h3l-59 -132h-286v9q30 33 79 74t81.5 67.5t58 67t25.5 86.5q0 27 -14.5 47.5t-46.5 20.5q-26 0 -45 -16q21 -16 21 -44q0 -18 -11.5 -34.5t-35.5 -16.5q-16 0 -26 11t-10 25q0 38 43 66t97 28q68 0 98.5 -25
t30.5 -63q0 -36 -30.5 -70t-69.5 -57t-88.5 -54t-73.5 -53z" />
    <glyph glyph-name="threesuperior" unicode="&#xb3;" horiz-adv-x="364" 
d="M250 512q47 -5 75 -30t28 -61q0 -55 -52 -92t-128 -37q-60 0 -93.5 21.5t-33.5 55.5q0 32 24.5 53t65.5 26l6 -9q-21 -27 -21 -75q0 -57 46 -57q39 0 61.5 37.5t22.5 83.5q0 71 -81 71q-18 0 -28 -1q0 2 -0.5 6t-0.5 7q127 20 127 116q0 20 -12 35t-36 15q-19 0 -36 -7
q12 -16 12 -36q0 -19 -14.5 -38t-37.5 -19q-18 0 -27 10t-9 25q0 34 37.5 57.5t99.5 23.5q66 0 94 -22.5t28 -54.5q0 -33 -30 -62.5t-87 -40.5v-1z" />
    <glyph glyph-name="acute" unicode="&#xb4;" horiz-adv-x="498" 
d="M238 511l-4 12q40 27 70 62t43 59t30 41.5t38 17.5t31.5 -12.5t9.5 -29.5q-1 -11 -11.5 -27.5t-32.5 -39t-68 -45t-106 -38.5z" />
    <glyph glyph-name="mu" unicode="&#xb5;" horiz-adv-x="570" 
d="M443 26q35 22 97 84q1 -2 4.5 -6t4.5 -5q-95 -110 -161 -110q-36 0 -50.5 18t-14.5 57q11 85 38 185h-3q-84 -249 -182 -249l-16 -84q-8 -50 -8 -57q0 -26 19 -37t38.5 -14t19.5 -10q0 -3 -1 -8h-293q0 11 11.5 16t26 7t29.5 18.5t21 48.5q15 81 50 258.5t53 272.5
q-39 -24 -97 -82l-3 3t-3.5 4t-3.5 3q96 111 167 111q62 0 62 -68q0 -11 -13 -79l-33 -157q-11 -55 -11 -67q0 -34 26 -34q34 0 84 102t75 220l9 43q77 8 133 42l5 -4q-55 -281 -80 -422z" />
    <glyph glyph-name="mu" unicode="&#x3bc;" horiz-adv-x="570" 
d="M443 26q35 22 97 84q1 -2 4.5 -6t4.5 -5q-95 -110 -161 -110q-36 0 -50.5 18t-14.5 57q11 85 38 185h-3q-84 -249 -182 -249l-16 -84q-8 -50 -8 -57q0 -26 19 -37t38.5 -14t19.5 -10q0 -3 -1 -8h-293q0 11 11.5 16t26 7t29.5 18.5t21 48.5q15 81 50 258.5t53 272.5
q-39 -24 -97 -82l-3 3t-3.5 4t-3.5 3q96 111 167 111q62 0 62 -68q0 -11 -13 -79l-33 -157q-11 -55 -11 -67q0 -34 26 -34q34 0 84 102t75 220l9 43q77 8 133 42l5 -4q-55 -281 -80 -422z" />
    <glyph glyph-name="paragraph" unicode="&#xb6;" horiz-adv-x="608" 
d="M318 674h325q-1 -3 -1 -8q-1 -7 -15.5 -11t-32 -8t-35 -25t-23.5 -57l-73 -424q-12 -67 -35.5 -124t-61 -103.5t-93 -73t-123.5 -26.5q-77 0 -109.5 27.5t-32.5 69.5q0 35 17.5 56t43.5 21q30 0 49 -19.5t19 -52.5q0 -45 -27 -78q91 0 120 137q12 57 53 301h-31
q-74 0 -118 47t-44 121q0 97 66 163.5t162 66.5zM425 656l-110 -633q-24 -138 -129 -183q1 -1 1 -2q82 12 126 71.5t58 137.5l104 609h-50z" />
    <glyph glyph-name="periodcentered" unicode="&#xb7;" horiz-adv-x="232" 
d="M132 328q25 0 41 -17.5t16 -44.5q0 -36 -25 -63t-58 -27q-25 0 -41 17.5t-16 43.5q0 36 26 63.5t57 27.5z" />
    <glyph glyph-name="cedilla" unicode="&#xb8;" horiz-adv-x="443" 
d="M210 3l-36 -64q68 -1 107.5 -22.5t39.5 -60.5q0 -45 -50.5 -78.5t-137.5 -33.5q-29 0 -47 2q3 14 3 15q64 0 100.5 24t36.5 60q0 49 -87 57l59 104q6 0 12 -3z" />
    <glyph glyph-name="onesuperior" unicode="&#xb9;" horiz-adv-x="345" 
d="M301 685l-59 -335q-2 -14 5 -21.5t17 -9t18.5 -4.5t8.5 -8l-1 -7h-201l1 6q1 6 9 9.5t18 4.5t19 9.5t12 23.5l45 255q4 21 -2 26.5t-33 5.5q-12 0 -16 1t-3 6l1 6l157 37z" />
    <glyph glyph-name="ordmasculine" unicode="&#xba;" horiz-adv-x="380" 
d="M250 596q69 0 103.5 -33t34.5 -86q0 -71 -56 -128t-144 -57q-67 0 -98 32.5t-31 85.5q0 75 54 130.5t137 55.5zM249 582q-40 0 -67 -72.5t-27 -141.5q0 -63 38 -63q30 0 53.5 39.5t34 86t10.5 84.5q0 67 -42 67z" />
    <glyph glyph-name="guillemotright" unicode="&#xbb;" horiz-adv-x="444" 
d="M68 403l11 9q18 -20 74 -83t86 -97q13 -12 13 -25q-1 -12 -19 -27l-209 -180l-10 9q47 66 139 198q-10 26 -42.5 98t-42.5 98zM220 403l10 9l136 -152q2 -3 8.5 -10t10.5 -11.5t8.5 -10.5t7 -11t2.5 -9q0 -10 -15 -24q-71 -62 -213 -184l-10 9q22 30 73 103.5t66 94.5z
" />
    <glyph glyph-name="onequarter" unicode="&#xbc;" horiz-adv-x="767" 
d="M627 720l-451 -759h-19l452 759h18zM303 685l-59 -335q-2 -14 5 -21.5t17 -9t18.5 -4.5t8.5 -8l-1 -7h-201l1 6q1 6 9 9.5t18 4.5t19 9.5t12 23.5l45 255q4 21 -2 26.5t-33 5.5q-12 0 -16 1t-3 6l1 6l157 37zM664 249l4 -1l-22 -128h54l-3 -15h-54l-6 -35q-3 -14 -3 -25
q0 -16 24.5 -24.5t24.5 -14.5v-6h-204l1 6q1 7 16 11q22 5 31.5 14t14.5 41l6 33h-181l2 13q121 137 212 268h113q1 0 1 -1q-110 -143 -305 -265h161l15 86q53 13 98 43z" />
    <glyph glyph-name="onehalf" unicode="&#xbd;" horiz-adv-x="767" 
d="M606 720l-451 -759h-19l452 759h18zM296 685l-59 -335q-2 -14 5 -21.5t17 -9t18.5 -4.5t8.5 -8l-1 -7h-201l1 6q1 6 9 9.5t18 4.5t19 9.5t12 23.5l45 255q4 21 -2 26.5t-33 5.5q-11 0 -15.5 1t-3.5 6l1 6l157 37zM450 69h119q54 0 76.5 12t47.5 44q6 8 12 8q1 0 4 -1h3
l-59 -132h-286v9q30 33 79 74t81.5 67.5t58 67t25.5 86.5q0 27 -14.5 47.5t-46.5 20.5q-26 0 -45 -16q21 -17 21 -44q0 -18 -11.5 -34.5t-35.5 -16.5q-16 0 -26 11t-10 25q0 38 43 66t97 28q68 0 98.5 -25t30.5 -63q0 -36 -30.5 -70t-69.5 -57t-88.5 -54t-73.5 -53z" />
    <glyph glyph-name="threequarters" unicode="&#xbe;" horiz-adv-x="770" 
d="M262 512q47 -5 75 -30t28 -61q0 -55 -52 -92t-128 -37q-60 0 -93.5 21.5t-33.5 55.5q0 32 24.5 53t65.5 26l6 -9q-21 -27 -21 -75q0 -57 46 -57q39 0 61.5 37.5t22.5 83.5q0 71 -81 71q-18 0 -28 -1q0 2 -0.5 6t-0.5 7q127 20 127 116q0 20 -12 35t-36 15q-19 0 -36 -7
q12 -16 12 -36q0 -19 -14.5 -38t-37.5 -19q-18 0 -27 10t-9 25q0 34 37.5 57.5t99.5 23.5q66 0 94 -22.5t28 -54.5q0 -33 -30 -62.5t-87 -40.5v-1zM682 249l4 -1l-22 -128h54l-3 -15h-54l-6 -35q-3 -14 -3 -25q0 -16 24.5 -24.5t24.5 -14.5v-6h-204l1 6q1 7 16 11
q22 5 31.5 14t14.5 41l6 33h-181l2 13q121 137 212 268h113q1 0 1 -1q-110 -143 -305 -265h161l15 86q53 13 98 43zM653 720l-451 -759h-19l452 759h18z" />
    <glyph glyph-name="questiondown" unicode="&#xbf;" horiz-adv-x="485" 
d="M-17 -148q2 43 32 84t72 71.5t84 59t71 57.5t29 56q0 34 -41 59l9 13q68 -10 105 -42.5t37 -77.5q0 -35 -27.5 -70.5t-67 -65t-79.5 -59t-67.5 -62.5t-27.5 -65q0 -62 76 -62q29 0 61 9q-16 23 -16 58q0 39 22 67.5t59 28.5q23 0 38 -15t15 -40q0 -56 -55 -92t-150 -36
q-80 0 -129.5 29t-49.5 95zM282 301q-24 0 -39.5 17t-15.5 43q0 35 24 61t56 26q24 0 39.5 -17t15.5 -42q0 -35 -24.5 -61.5t-55.5 -26.5z" />
    <glyph glyph-name="Agrave" unicode="&#xc0;" horiz-adv-x="663" 
d="M94 115l236 462q8 17 8 32q0 22 -15 32t-30.5 14t-15.5 11q0 2 0.5 5t0.5 4h179l99 -585q5 -30 17.5 -47t24.5 -20.5t21.5 -6.5t9.5 -9v-7h-294l1 6q1 7 13 11t25 6.5t24 15t11 34.5q0 12 -5 40l-19 102h-222l-43 -84q-19 -38 -21 -67q0 -19 12.5 -29.5t27 -13t27 -5.5
t12.5 -9t-1 -7h-217q0 10 7 13.5t21 6.5t30 10t37 28.5t39 56.5zM333 540h-4l-157 -309h210zM499 751l-5 -12q-59 5 -105 20t-69 34t-34 35t-11 27q0 18 13 31.5t36 13.5q19 0 36 -15.5t31 -36.5t42.5 -49t65.5 -48z" />
    <glyph glyph-name="Aacute" unicode="&#xc1;" horiz-adv-x="663" 
d="M94 115l236 462q8 17 8 32q0 22 -15 32t-30.5 14t-15.5 11q0 2 0.5 5t0.5 4h179l99 -585q5 -30 17.5 -47t24.5 -20.5t21.5 -6.5t9.5 -9v-7h-294l1 6q1 7 13 11t25 6.5t24 15t11 34.5q0 12 -5 40l-19 102h-222l-43 -84q-19 -38 -21 -67q0 -19 12.5 -29.5t27 -13t27 -5.5
t12.5 -9t-1 -7h-217q0 10 7 13.5t21 6.5t30 10t37 28.5t39 56.5zM333 540h-4l-157 -309h210zM311 734q0 2 -0.5 6t-0.5 6q46 22 80 51t48.5 50.5t32 36.5t36.5 15q20 0 30.5 -13t10.5 -30q0 -7 -4.5 -18t-20 -28.5t-39.5 -32t-69.5 -27t-103.5 -16.5z" />
    <glyph glyph-name="Acircumflex" unicode="&#xc2;" horiz-adv-x="663" 
d="M94 115l236 462q8 17 8 32q0 22 -15 32t-30.5 14t-15.5 11q0 2 0.5 5t0.5 4h179l99 -585q5 -30 17.5 -47t24.5 -20.5t21.5 -6.5t9.5 -9v-7h-294l1 6q1 7 13 11t25 6.5t24 15t11 34.5q0 12 -5 40l-19 102h-222l-43 -84q-19 -38 -21 -67q0 -19 12.5 -29.5t27 -13t27 -5.5
t12.5 -9t-1 -7h-217q0 10 7 13.5t21 6.5t30 10t37 28.5t39 56.5zM333 540h-4l-157 -309h210zM546 720q-90 54 -135 80q-112 -52 -167 -79q-3 4 -7 12l144 129q4 3 10.5 9.5t11 10.5t10 8t9 6.5t6.5 2.5q8 0 17 -11q110 -153 112 -156z" />
    <glyph glyph-name="Atilde" unicode="&#xc3;" horiz-adv-x="663" 
d="M94 115l236 462q8 17 8 32q0 22 -15 32t-30.5 14t-15.5 11q0 2 0.5 5t0.5 4h179l99 -585q5 -30 17.5 -47t24.5 -20.5t21.5 -6.5t9.5 -9v-7h-294l1 6q1 7 13 11t25 6.5t24 15t11 34.5q0 12 -5 40l-19 102h-222l-43 -84q-19 -38 -21 -67q0 -19 12.5 -29.5t27 -13t27 -5.5
t12.5 -9t-1 -7h-217q0 10 7 13.5t21 6.5t30 10t37 28.5t39 56.5zM333 540h-4l-157 -309h210zM573 859l9 -3q-16 -51 -47.5 -84.5t-70.5 -33.5q-22 0 -71 15t-70 15q-49 0 -74 -42l-10 4q16 45 45 81t70 36q19 0 71.5 -16.5t75.5 -16.5q45 0 72 45z" />
    <glyph glyph-name="Adieresis" unicode="&#xc4;" horiz-adv-x="663" 
d="M94 115l236 462q8 17 8 32q0 22 -15 32t-30.5 14t-15.5 11q0 2 0.5 5t0.5 4h179l99 -585q5 -30 17.5 -47t24.5 -20.5t21.5 -6.5t9.5 -9v-7h-294l1 6q1 7 13 11t25 6.5t24 15t11 34.5q0 12 -5 40l-19 102h-222l-43 -84q-19 -38 -21 -67q0 -19 12.5 -29.5t27 -13t27 -5.5
t12.5 -9t-1 -7h-217q0 10 7 13.5t21 6.5t30 10t37 28.5t39 56.5zM333 540h-4l-157 -309h210zM331 876q24 0 38.5 -16.5t14.5 -40.5q0 -31 -23 -54.5t-52 -23.5q-23 0 -38 15.5t-15 38.5q0 32 23 56.5t52 24.5zM519 876q24 0 38.5 -16.5t14.5 -40.5q0 -31 -23.5 -54.5
t-52.5 -23.5q-23 0 -38 15.5t-15 38.5q0 32 23 56.5t53 24.5z" />
    <glyph glyph-name="Aring" unicode="&#xc5;" horiz-adv-x="663" 
d="M94 115l236 462q8 17 8 32q0 22 -15 32t-30.5 14t-15.5 11q0 2 0.5 5t0.5 4h179l99 -585q5 -30 17.5 -47t24.5 -20.5t21.5 -6.5t9.5 -9v-7h-294l1 6q1 7 13 11t25 6.5t24 15t11 34.5q0 12 -5 40l-19 102h-222l-43 -84q-19 -38 -21 -67q0 -19 12.5 -29.5t27 -13t27 -5.5
t12.5 -9t-1 -7h-217q0 10 7 13.5t21 6.5t30 10t37 28.5t39 56.5zM333 540h-4l-157 -309h210zM391 697q-37 0 -60.5 23t-23.5 59q0 48 34.5 84t84.5 36q35 0 57.5 -23.5t22.5 -58.5q0 -49 -34 -84.5t-81 -35.5zM421 872q-35 0 -60 -27t-25 -62q0 -25 16.5 -42t43.5 -17
q32 0 56.5 25.5t24.5 59.5q0 27 -15 45t-41 18z" />
    <glyph glyph-name="AE" unicode="&#xc6;" horiz-adv-x="966" 
d="M338 0q1 2 1 6q1 7 14.5 11.5t30 8.5t33 23.5t22.5 53.5l21 124h-235l-77 -103q-37 -50 -37 -68q0 -19 18.5 -27.5t37 -12t18.5 -9.5q0 -5 -1 -7h-221q0 11 11 15.5t29.5 8t49.5 26t62 61.5l401 513q-6 15 -24 21.5t-33 9t-15 9.5q0 2 0.5 5t0.5 5h265q170 0 244 30
q2 0 3 -1l-16 -244q-2 -1 -6 -1q-7 0 -13 22q-11 43 -17.5 66t-18 46t-22.5 32.5t-31.5 18t-45 10.5t-63.5 2h-43l-51 -294h57q38 0 64 20.5t36 45t19 45t15 20.5h5l-49 -287h-5q-8 0 -10 21.5t-2 48t-18 48t-55 21.5h-60l-45 -260q-3 -18 -3 -23q0 -44 57 -44h31
q81 0 138 50t127 172q13 22 21 22q1 0 3.5 -0.5t3.5 -0.5q-78 -228 -98 -281q-60 21 -219 21h-305zM462 244l53 307q7 49 7 54q-43 -56 -139 -177t-144 -184h223z" />
    <glyph glyph-name="Ccedilla" unicode="&#xc7;" horiz-adv-x="617" 
d="M448 667q-70 0 -126 -78.5t-84 -188t-28 -217.5q0 -83 32.5 -130t93.5 -47q141 0 223 215q12 30 18 39.5t14 9.5h4q-27 -146 -57 -288h-8q-4 8 -12.5 23t-12.5 23q-103 -39 -198 -39l-30 -53q68 -1 107.5 -22.5t39.5 -60.5q0 -45 -50.5 -78.5t-137.5 -33.5q-29 0 -47 2
q3 14 3 15q64 0 100.5 24t36.5 60q0 49 -87 57l51 90q-119 4 -181 78.5t-62 194.5q0 182 109.5 303t272.5 121q82 0 162 -31l38 47l9 -1l-36 -258h-5q-10 0 -13 28q-4 34 -8 56t-14 51.5t-23.5 46.5t-37.5 29.5t-56 12.5z" />
    <glyph glyph-name="Egrave" unicode="&#xc8;" horiz-adv-x="628" 
d="M287 17h45q81 0 138 50t127 172q13 22 21 22q1 0 3.5 -0.5t3.5 -0.5q-91 -264 -97 -280l-3 -1q-60 21 -219 21h-318q-1 12 11.5 17.5t29.5 7.5t34 20t23 52l83 473l4 28q0 30 -19.5 42t-39 14.5t-19.5 9.5v10h280q170 0 244 30q2 0 3 -1l-16 -244q-2 -1 -6 -1
q-7 0 -13 22q-11 43 -17.5 66t-18 46t-22.5 32.5t-31.5 18t-45 10.5t-63.5 2h-57l-51 -294h71q38 0 64 20.5t36 45t19 45t15 20.5h5l-49 -287h-5q-8 0 -10 21.5t-2 48t-18 48t-55 21.5h-74l-45 -260q-3 -18 -3 -23q0 -44 57 -44zM489 751l-5 -12q-59 5 -105 20t-69 34
t-34 35t-11 27q0 18 13 31.5t36 13.5q19 0 36 -15.5t31 -36.5t42.5 -49t65.5 -48z" />
    <glyph glyph-name="Eacute" unicode="&#xc9;" horiz-adv-x="628" 
d="M287 17h45q81 0 138 50t127 172q13 22 21 22q1 0 3.5 -0.5t3.5 -0.5q-91 -264 -97 -280l-3 -1q-60 21 -219 21h-318q-1 12 11.5 17.5t29.5 7.5t34 20t23 52l83 473l4 28q0 30 -19.5 42t-39 14.5t-19.5 9.5v10h280q170 0 244 30q2 0 3 -1l-16 -244q-2 -1 -6 -1
q-7 0 -13 22q-11 43 -17.5 66t-18 46t-22.5 32.5t-31.5 18t-45 10.5t-63.5 2h-57l-51 -294h71q38 0 64 20.5t36 45t19 45t15 20.5h5l-49 -287h-5q-8 0 -10 21.5t-2 48t-18 48t-55 21.5h-74l-45 -260q-3 -18 -3 -23q0 -44 57 -44zM280 734q0 2 -0.5 6t-0.5 6q46 22 80 51
t48.5 50.5t32 36.5t36.5 15q20 0 30.5 -13t10.5 -30q0 -7 -4.5 -18t-20 -28.5t-39.5 -32t-69.5 -27t-103.5 -16.5z" />
    <glyph glyph-name="Ecircumflex" unicode="&#xca;" horiz-adv-x="628" 
d="M287 17h45q81 0 138 50t127 172q13 22 21 22q1 0 3.5 -0.5t3.5 -0.5q-91 -264 -97 -280l-3 -1q-60 21 -219 21h-318q-1 12 11.5 17.5t29.5 7.5t34 20t23 52l83 473l4 28q0 30 -19.5 42t-39 14.5t-19.5 9.5v10h280q170 0 244 30q2 0 3 -1l-16 -244q-2 -1 -6 -1
q-7 0 -13 22q-11 43 -17.5 66t-18 46t-22.5 32.5t-31.5 18t-45 10.5t-63.5 2h-57l-51 -294h71q38 0 64 20.5t36 45t19 45t15 20.5h5l-49 -287h-5q-8 0 -10 21.5t-2 48t-18 48t-55 21.5h-74l-45 -260q-3 -18 -3 -23q0 -44 57 -44zM528 730q-90 54 -135 80q-112 -52 -167 -79
q-3 4 -7 12l144 129q4 3 10.5 9.5t11 10.5t10 8t9 6.5t6.5 2.5q8 0 17 -11q110 -153 112 -156z" />
    <glyph glyph-name="Edieresis" unicode="&#xcb;" horiz-adv-x="628" 
d="M287 17h45q81 0 138 50t127 172q13 22 21 22q1 0 3.5 -0.5t3.5 -0.5q-91 -264 -97 -280l-3 -1q-60 21 -219 21h-318q-1 12 11.5 17.5t29.5 7.5t34 20t23 52l83 473l4 28q0 30 -19.5 42t-39 14.5t-19.5 9.5v10h280q170 0 244 30q2 0 3 -1l-16 -244q-2 -1 -6 -1
q-7 0 -13 22q-11 43 -17.5 66t-18 46t-22.5 32.5t-31.5 18t-45 10.5t-63.5 2h-57l-51 -294h71q38 0 64 20.5t36 45t19 45t15 20.5h5l-49 -287h-5q-8 0 -10 21.5t-2 48t-18 48t-55 21.5h-74l-45 -260q-3 -18 -3 -23q0 -44 57 -44zM308 876q24 0 38.5 -16.5t14.5 -40.5
q0 -31 -23 -54.5t-52 -23.5q-23 0 -38 15.5t-15 38.5q0 32 23 56.5t52 24.5zM496 876q24 0 38.5 -16.5t14.5 -40.5q0 -31 -23.5 -54.5t-52.5 -23.5q-23 0 -38 15.5t-15 38.5q0 32 23 56.5t53 24.5z" />
    <glyph glyph-name="Igrave" unicode="&#xcc;" horiz-adv-x="388" 
d="M327 580l-80 -460q-5 -28 -5 -41q0 -30 20.5 -44t41 -18t20.5 -10q0 -5 -1 -7h-327q0 9 8.5 13t22 7t27 8.5t26 24t17.5 48.5l78 457q0 2 3 19.5t3 21.5q0 22 -11.5 34.5t-25.5 15.5t-25.5 6.5t-11.5 9.5v3q0 1 0.5 3t0.5 3h319q0 -13 -13.5 -18t-30.5 -6.5t-33.5 -18.5
t-22.5 -51zM380 751l-5 -12q-59 5 -105 20t-69 34t-34 35t-11 27q0 18 13 31.5t36 13.5q19 0 36 -15.5t31 -36.5t42.5 -49t65.5 -48z" />
    <glyph glyph-name="Iacute" unicode="&#xcd;" horiz-adv-x="388" 
d="M327 580l-80 -460q-5 -28 -5 -41q0 -30 20.5 -44t41 -18t20.5 -10q0 -5 -1 -7h-327q0 9 8.5 13t22 7t27 8.5t26 24t17.5 48.5l78 457q0 2 3 19.5t3 21.5q0 22 -11.5 34.5t-25.5 15.5t-25.5 6.5t-11.5 9.5v3q0 1 0.5 3t0.5 3h319q0 -13 -13.5 -18t-30.5 -6.5t-33.5 -18.5
t-22.5 -51zM182 734q0 2 -0.5 6t-0.5 6q46 22 80 51t48.5 50.5t32 36.5t36.5 15q20 0 30.5 -13t10.5 -30q0 -7 -4.5 -18t-20 -28.5t-39.5 -32t-69.5 -27t-103.5 -16.5z" />
    <glyph glyph-name="Icircumflex" unicode="&#xce;" horiz-adv-x="388" 
d="M327 580l-80 -460q-5 -28 -5 -41q0 -30 20.5 -44t41 -18t20.5 -10q0 -5 -1 -7h-327q0 9 8.5 13t22 7t27 8.5t26 24t17.5 48.5l78 457q0 2 3 19.5t3 21.5q0 22 -11.5 34.5t-25.5 15.5t-25.5 6.5t-11.5 9.5v3q0 1 0.5 3t0.5 3h319q0 -13 -13.5 -18t-30.5 -6.5t-33.5 -18.5
t-22.5 -51zM427 730q-90 54 -135 80q-112 -52 -167 -79q-3 4 -7 12l144 129q4 3 10.5 9.5t11 10.5t10 8t9 6.5t6.5 2.5q8 0 17 -11q110 -153 112 -156z" />
    <glyph glyph-name="Idieresis" unicode="&#xcf;" horiz-adv-x="388" 
d="M327 580l-80 -460q-5 -28 -5 -41q0 -30 20.5 -44t41 -18t20.5 -10q0 -5 -1 -7h-327q0 9 8.5 13t22 7t27 8.5t26 24t17.5 48.5l78 457q0 2 3 19.5t3 21.5q0 22 -11.5 34.5t-25.5 15.5t-25.5 6.5t-11.5 9.5v3q0 1 0.5 3t0.5 3h319q0 -13 -13.5 -18t-30.5 -6.5t-33.5 -18.5
t-22.5 -51zM210 876q24 0 38.5 -16.5t14.5 -40.5q0 -31 -23 -54.5t-52 -23.5q-23 0 -38 15.5t-15 38.5q0 32 23 56.5t52 24.5zM398 876q24 0 38.5 -16.5t14.5 -40.5q0 -31 -23.5 -54.5t-52.5 -23.5q-23 0 -38 15.5t-15 38.5q0 32 23 56.5t53 24.5z" />
    <glyph glyph-name="Eth" unicode="&#xd0;" horiz-adv-x="723" 
d="M297 0h-309q0 11 12.5 15.5t29 7t34 22.5t23.5 58q7 41 21 122t20 121h-75l3 18h75l34 194q6 36 6 40q0 29 -19 41t-38 15t-19 10q0 2 0.5 5t0.5 5h260q163 0 257.5 -66.5t94.5 -211.5q0 -37 -9 -77.5t-27.5 -86t-51.5 -86.5t-76.5 -74t-107.5 -52.5t-139 -19.5zM329 655
l-51 -291h128l-3 -18h-128l-45 -268q-2 -7 -2 -18q0 -43 52 -43q75 0 136.5 60t95.5 157.5t34 209.5q0 110 -46.5 160.5t-143.5 50.5h-27z" />
    <glyph glyph-name="Ntilde" unicode="&#xd1;" horiz-adv-x="715" 
d="M335 674q33 -65 115.5 -222t124.5 -241l2 1l51 298q6 30 6 59q0 33 -14 52.5t-31 23.5t-31 7.5t-14 10.5q0 8 1 10h233q0 -11 -7.5 -16.5t-19.5 -6.5t-27 -8t-29.5 -18.5t-27.5 -40.5t-21 -72l-90 -518l-50 -3l-309 600h-2l-77 -448q-3 -15 -3 -39q0 -33 14 -52.5
t31.5 -23.5t31.5 -8t14 -11q0 -2 -0.5 -4.5t-0.5 -3.5h-231v6q1 9 17.5 14t37.5 10.5t43 36t31 84.5l69 410q5 25 5 34q0 23 -12 36t-26 16t-26 7.5t-12 12.5v7h234zM622 873l9 -3q-16 -51 -47.5 -84.5t-70.5 -33.5q-21 0 -70 15t-71 15q-49 0 -74 -42l-10 4q16 45 45 81
t70 36q19 0 71.5 -16.5t75.5 -16.5q24 0 40 9.5t32 35.5z" />
    <glyph glyph-name="Ograve" unicode="&#xd2;" horiz-adv-x="718" 
d="M436 686q133 0 200.5 -76.5t67.5 -196.5q0 -79 -28 -155t-77 -136.5t-123 -97.5t-160 -37q-131 0 -198 75.5t-67 195.5q0 112 48.5 209.5t137.5 158t199 60.5zM434 669q-54 0 -99 -55.5t-71.5 -137t-41 -163.5t-14.5 -145q0 -164 115 -164q53 0 98 53t71.5 132.5
t41 162.5t14.5 152q0 165 -114 165zM555 751l-5 -12q-59 5 -105 20t-69 34t-34 35t-11 27q0 18 13 31.5t36 13.5q19 0 36 -15.5t31 -36.5t42.5 -49t65.5 -48z" />
    <glyph glyph-name="Oacute" unicode="&#xd3;" horiz-adv-x="718" 
d="M436 686q133 0 200.5 -76.5t67.5 -196.5q0 -79 -28 -155t-77 -136.5t-123 -97.5t-160 -37q-131 0 -198 75.5t-67 195.5q0 112 48.5 209.5t137.5 158t199 60.5zM434 669q-54 0 -99 -55.5t-71.5 -137t-41 -163.5t-14.5 -145q0 -164 115 -164q53 0 98 53t71.5 132.5
t41 162.5t14.5 152q0 165 -114 165zM368 738q0 2 -0.5 6t-0.5 6q46 22 80 51t48.5 50.5t32 36.5t36.5 15q20 0 30.5 -13t10.5 -30q0 -7 -4.5 -18t-20 -28.5t-39.5 -32t-69.5 -27t-103.5 -16.5z" />
    <glyph glyph-name="Ocircumflex" unicode="&#xd4;" horiz-adv-x="718" 
d="M436 686q133 0 200.5 -76.5t67.5 -196.5q0 -79 -28 -155t-77 -136.5t-123 -97.5t-160 -37q-131 0 -198 75.5t-67 195.5q0 112 48.5 209.5t137.5 158t199 60.5zM434 669q-54 0 -99 -55.5t-71.5 -137t-41 -163.5t-14.5 -145q0 -164 115 -164q53 0 98 53t71.5 132.5
t41 162.5t14.5 152q0 165 -114 165zM607 730q-90 54 -135 80q-112 -52 -167 -79q-3 4 -7 12l144 129q4 3 10.5 9.5t11 10.5t10 8t9 6.5t6.5 2.5q8 0 17 -11q110 -153 112 -156z" />
    <glyph glyph-name="Otilde" unicode="&#xd5;" horiz-adv-x="718" 
d="M436 686q133 0 200.5 -76.5t67.5 -196.5q0 -79 -28 -155t-77 -136.5t-123 -97.5t-160 -37q-131 0 -198 75.5t-67 195.5q0 112 48.5 209.5t137.5 158t199 60.5zM434 669q-54 0 -99 -55.5t-71.5 -137t-41 -163.5t-14.5 -145q0 -164 115 -164q53 0 98 53t71.5 132.5
t41 162.5t14.5 152q0 165 -114 165zM639 880l9 -3q-16 -51 -47.5 -84.5t-70.5 -33.5q-22 0 -71 15t-70 15q-49 0 -74 -42l-10 4q16 45 45 81t70 36q19 0 71.5 -16.5t75.5 -16.5q45 0 72 45z" />
    <glyph glyph-name="Odieresis" unicode="&#xd6;" horiz-adv-x="718" 
d="M436 686q133 0 200.5 -76.5t67.5 -196.5q0 -79 -28 -155t-77 -136.5t-123 -97.5t-160 -37q-131 0 -198 75.5t-67 195.5q0 112 48.5 209.5t137.5 158t199 60.5zM434 669q-54 0 -99 -55.5t-71.5 -137t-41 -163.5t-14.5 -145q0 -164 115 -164q53 0 98 53t71.5 132.5
t41 162.5t14.5 152q0 165 -114 165zM389 876q24 0 38.5 -16.5t14.5 -40.5q0 -31 -23 -54.5t-52 -23.5q-23 0 -38 15.5t-15 38.5q0 32 23 56.5t52 24.5zM577 876q24 0 38.5 -16.5t14.5 -40.5q0 -31 -23.5 -54.5t-52.5 -23.5q-23 0 -38 15.5t-15 38.5q0 32 23 56.5t53 24.5z
" />
    <glyph glyph-name="multiply" unicode="&#xd7;" horiz-adv-x="541" 
d="M372 128l-99 135q-104 -93 -151 -138l-19 28l150 138l-101 137q6 5 15.5 14t12.5 12l101 -136l147 135l19 -27l-146 -135q19 -27 56 -77t44 -59z" />
    <glyph glyph-name="Oslash" unicode="&#xd8;" horiz-adv-x="718" 
d="M436 686q99 0 167 -47l48 60l11 -10l-47 -59q89 -73 89 -217q0 -79 -28 -155t-77 -136.5t-123 -97.5t-160 -37q-107 0 -173 52l-52 -66l-10 11l51 64q-81 74 -81 210q0 112 48.5 209.5t137.5 158t199 60.5zM548 504q0 15 -2 39l-336 -420q15 -119 113 -119q53 0 98 53
t71.5 132.5t41 162.5t14.5 152zM434 669q-54 0 -99 -55.5t-71.5 -137t-41 -163.5t-14.5 -145v-24l335 420q-18 105 -109 105z" />
    <glyph glyph-name="Ugrave" unicode="&#xd9;" horiz-adv-x="718" 
d="M665 537l-37 -225q-27 -160 -96 -242t-207 -82q-233 0 -233 198q0 37 7 73l50 284q8 42 8 56q0 31 -18.5 42.5t-37.5 14t-19 11.5q0 4 1 6h321q0 -12 -13.5 -17t-30.5 -6.5t-34.5 -18.5t-23.5 -51l-59 -334q-9 -48 -9 -92q0 -140 140 -140q83 0 146 72t84 199l39 233
q5 33 5 49q0 34 -14 54t-30.5 24t-30.5 8t-14 11q0 2 0.5 5t0.5 4h234q1 -14 -15.5 -19.5t-38 -8.5t-44.5 -30t-31 -78zM568 751l-5 -12q-59 5 -105 20t-69 34t-34 35t-11 27q0 18 13 31.5t36 13.5q19 0 36 -15.5t31 -36.5t42.5 -49t65.5 -48z" />
    <glyph glyph-name="Uacute" unicode="&#xda;" horiz-adv-x="718" 
d="M665 537l-37 -225q-27 -160 -96 -242t-207 -82q-233 0 -233 198q0 37 7 73l50 284q8 42 8 56q0 31 -18.5 42.5t-37.5 14t-19 11.5q0 4 1 6h321q0 -12 -13.5 -17t-30.5 -6.5t-34.5 -18.5t-23.5 -51l-59 -334q-9 -48 -9 -92q0 -140 140 -140q83 0 146 72t84 199l39 233
q5 33 5 49q0 34 -14 54t-30.5 24t-30.5 8t-14 11q0 2 0.5 5t0.5 4h234q1 -14 -15.5 -19.5t-38 -8.5t-44.5 -30t-31 -78zM363 734q0 2 -0.5 6t-0.5 6q46 22 80 51t48.5 50.5t32 36.5t36.5 15q20 0 30.5 -13t10.5 -30q0 -7 -4.5 -18t-20 -28.5t-39.5 -32t-69.5 -27
t-103.5 -16.5z" />
    <glyph glyph-name="Ucircumflex" unicode="&#xdb;" horiz-adv-x="718" 
d="M665 537l-37 -225q-27 -160 -96 -242t-207 -82q-233 0 -233 198q0 37 7 73l50 284q8 42 8 56q0 31 -18.5 42.5t-37.5 14t-19 11.5q0 4 1 6h321q0 -12 -13.5 -17t-30.5 -6.5t-34.5 -18.5t-23.5 -51l-59 -334q-9 -48 -9 -92q0 -140 140 -140q83 0 146 72t84 199l39 233
q5 33 5 49q0 34 -14 54t-30.5 24t-30.5 8t-14 11q0 2 0.5 5t0.5 4h234q1 -14 -15.5 -19.5t-38 -8.5t-44.5 -30t-31 -78zM612 730q-90 54 -135 80q-112 -52 -167 -79q-3 4 -7 12l144 129q4 3 10.5 9.5t11 10.5t10 8t9 6.5t6.5 2.5q8 0 17 -11q110 -153 112 -156z" />
    <glyph glyph-name="Udieresis" unicode="&#xdc;" horiz-adv-x="718" 
d="M665 537l-37 -225q-27 -160 -96 -242t-207 -82q-233 0 -233 198q0 37 7 73l50 284q8 42 8 56q0 31 -18.5 42.5t-37.5 14t-19 11.5q0 4 1 6h321q0 -12 -13.5 -17t-30.5 -6.5t-34.5 -18.5t-23.5 -51l-59 -334q-9 -48 -9 -92q0 -140 140 -140q83 0 146 72t84 199l39 233
q5 33 5 49q0 34 -14 54t-30.5 24t-30.5 8t-14 11q0 2 0.5 5t0.5 4h234q1 -14 -15.5 -19.5t-38 -8.5t-44.5 -30t-31 -78zM381 876q24 0 38.5 -16.5t14.5 -40.5q0 -31 -23 -54.5t-52 -23.5q-23 0 -38 15.5t-15 38.5q0 32 23 56.5t52 24.5zM569 876q24 0 38.5 -16.5t14.5 -40.5
q0 -31 -23.5 -54.5t-52.5 -23.5q-23 0 -38 15.5t-15 38.5q0 32 23 56.5t53 24.5z" />
    <glyph glyph-name="Yacute" unicode="&#xdd;" horiz-adv-x="607" 
d="M380 327l126 200q33 51 33 78q0 17 -11 27.5t-23.5 13.5t-23.5 7.5t-11 10.5v4q1 3 1 5h218q1 -12 -10 -17.5t-29.5 -9.5t-49.5 -29.5t-60 -71.5l-154 -240l-33 -179q-4 -28 -4 -41q0 -28 13 -43.5t28 -18.5t27 -7.5t11 -13.5v-2h-327l1 6q1 8 15 12t30.5 8t33.5 24.5
t23 57.5l29 167l-96 307q-10 33 -30 49t-34.5 21t-14.5 13q0 2 0.5 4.5t0.5 3.5h312v-5q0 -9 -12.5 -14.5t-27 -7.5t-27 -12.5t-12.5 -29.5q0 -10 13 -51l74 -226h1zM305 734q0 2 -0.5 6t-0.5 6q46 22 80 51t48.5 50.5t32 36.5t36.5 15q20 0 30.5 -13t10.5 -30
q0 -7 -4.5 -18t-20 -28.5t-39.5 -32t-69.5 -27t-103.5 -16.5z" />
    <glyph glyph-name="Thorn" unicode="&#xde;" horiz-adv-x="604" 
d="M316 580l-4 -25q29 6 71 6q99 0 165.5 -43.5t66.5 -132.5q0 -77 -44 -131.5t-107.5 -78t-137.5 -23.5q-48 0 -83 7q-11 -69 -11 -80q0 -30 20.5 -44t41 -18t20.5 -10q0 -5 -1 -7h-327q0 9 8.5 13t22 7t27 8.5t26 24t17.5 48.5l75 444q0 3 4.5 27t4.5 27q0 22 -11.5 34.5
t-25.5 15.5t-25.5 6.5t-11.5 9.5v3q0 1 0.5 3t0.5 3h319q0 -13 -14 -18t-31 -6.5t-34 -18.5t-22 -51zM332 540h-22l-63 -364q18 -2 31 -2q79 0 129 63.5t50 158.5q0 62 -31.5 103t-93.5 41z" />
    <glyph glyph-name="germandbls" unicode="&#xdf;" horiz-adv-x="571" 
d="M527 146q0 -71 -53.5 -117t-137.5 -46q-68 0 -105 27t-37 65q0 29 16 43.5t36 14.5q27 0 40.5 -18.5t13.5 -45.5q0 -40 -21 -62q16 -8 46 -8q40 0 60.5 21t20.5 56q0 43 -26.5 90.5t-53 91t-26.5 74.5q0 60 58 102q64 46 91.5 84.5t27.5 103.5q0 39 -21.5 65.5
t-61.5 26.5q-56 0 -101 -66t-64 -192q-45 -288 -90.5 -433.5t-112.5 -195.5q-53 -50 -118 -50q-37 0 -58.5 18.5t-21.5 44.5q0 25 17 40t41 15q28 0 48 -24.5t20 -71.5q41 15 61 126q15 83 41 258t38 236q30 150 122 231.5t200 81.5q75 0 117.5 -30t42.5 -80q0 -47 -33 -84
t-72.5 -56t-72.5 -40.5t-33 -40.5q0 -20 25.5 -49.5t55.5 -56.5t55.5 -67.5t25.5 -81.5z" />
    <glyph glyph-name="agrave" unicode="&#xe0;" horiz-adv-x="573" 
d="M532 458q-45 -173 -81 -427q49 31 92 77l10 -10q-98 -110 -157 -110q-68 0 -68 65q0 19 10 74.5t19 88.5h-2q-77 -229 -199 -229q-55 0 -90 36.5t-35 114.5q0 122 66 218t176 96q79 0 125 -50q68 13 122 56h12zM312 424q-40 0 -75 -51.5t-53.5 -120.5t-18.5 -129
q0 -88 47 -88q38 0 85.5 83t73.5 204l15 66q-34 36 -74 36zM430 526l-4 -11q-57 14 -98.5 34.5t-61 41.5t-28 36.5t-8.5 27.5q1 18 12 31.5t31 13.5q21 0 36 -17t25.5 -40.5t36 -57t59.5 -59.5z" />
    <glyph glyph-name="aacute" unicode="&#xe1;" horiz-adv-x="573" 
d="M532 458q-45 -173 -81 -427q49 31 92 77l10 -10q-98 -110 -157 -110q-68 0 -68 65q0 19 10 74.5t19 88.5h-2q-77 -229 -199 -229q-55 0 -90 36.5t-35 114.5q0 122 66 218t176 96q79 0 125 -50q68 13 122 56h12zM312 424q-40 0 -75 -51.5t-53.5 -120.5t-18.5 -129
q0 -88 47 -88q38 0 85.5 83t73.5 204l15 66q-34 36 -74 36zM244 511l-4 12q40 27 70 62t43 59t30 41.5t38 17.5t31.5 -12.5t9.5 -29.5q-1 -11 -11.5 -27.5t-32.5 -39t-68 -45t-106 -38.5z" />
    <glyph glyph-name="acircumflex" unicode="&#xe2;" horiz-adv-x="573" 
d="M532 458q-45 -173 -81 -427q49 31 92 77l10 -10q-98 -110 -157 -110q-68 0 -68 65q0 19 10 74.5t19 88.5h-2q-77 -229 -199 -229q-55 0 -90 36.5t-35 114.5q0 122 66 218t176 96q79 0 125 -50q68 13 122 56h12zM312 424q-40 0 -75 -51.5t-53.5 -120.5t-18.5 -129
q0 -88 47 -88q38 0 85.5 83t73.5 204l15 66q-34 36 -74 36zM467 512l-131 91l-166 -91l-7 11l165 162q17 16 26 16q10 0 20 -16l104 -162z" />
    <glyph glyph-name="atilde" unicode="&#xe3;" horiz-adv-x="573" 
d="M532 458q-45 -173 -81 -427q49 31 92 77l10 -10q-98 -110 -157 -110q-68 0 -68 65q0 19 10 74.5t19 88.5h-2q-77 -229 -199 -229q-55 0 -90 36.5t-35 114.5q0 122 66 218t176 96q79 0 125 -50q68 13 122 56h12zM312 424q-40 0 -75 -51.5t-53.5 -120.5t-18.5 -129
q0 -88 47 -88q38 0 85.5 83t73.5 204l15 66q-34 36 -74 36zM503 661l9 -3q-16 -51 -47.5 -84.5t-70.5 -33.5q-22 0 -71 15t-70 15q-49 0 -74 -42l-10 4q16 45 45 81t70 36q19 0 71.5 -16.5t75.5 -16.5q45 0 72 45z" />
    <glyph glyph-name="adieresis" unicode="&#xe4;" horiz-adv-x="573" 
d="M532 458q-45 -173 -81 -427q49 31 92 77l10 -10q-98 -110 -157 -110q-68 0 -68 65q0 19 10 74.5t19 88.5h-2q-77 -229 -199 -229q-55 0 -90 36.5t-35 114.5q0 122 66 218t176 96q79 0 125 -50q68 13 122 56h12zM312 424q-40 0 -75 -51.5t-53.5 -120.5t-18.5 -129
q0 -88 47 -88q38 0 85.5 83t73.5 204l15 66q-34 36 -74 36zM437 673q24 0 38.5 -16.5t14.5 -40.5q0 -31 -23 -54.5t-52 -23.5q-22 0 -37.5 15.5t-15.5 38.5q0 32 22.5 56.5t52.5 24.5zM254 673q23 0 37.5 -16.5t14.5 -40.5q0 -31 -23 -54.5t-52 -23.5q-22 0 -37.5 15.5
t-15.5 38.5q0 32 23 56.5t53 24.5z" />
    <glyph glyph-name="aring" unicode="&#xe5;" horiz-adv-x="573" 
d="M532 458q-45 -173 -81 -427q49 31 92 77l10 -10q-98 -110 -157 -110q-68 0 -68 65q0 19 10 74.5t19 88.5h-2q-77 -229 -199 -229q-55 0 -90 36.5t-35 114.5q0 122 66 218t176 96q79 0 125 -50q68 13 122 56h12zM312 424q-40 0 -75 -51.5t-53.5 -120.5t-18.5 -129
q0 -88 47 -88q38 0 85.5 83t73.5 204l15 66q-34 36 -74 36zM333 511q-37 0 -60.5 23t-23.5 59q0 48 34.5 84t84.5 36q35 0 57.5 -23.5t22.5 -58.5q0 -49 -34 -84.5t-81 -35.5zM363 686q-35 0 -60 -27t-25 -62q0 -25 16.5 -42t43.5 -17q32 0 56.5 25.5t24.5 59.5q0 27 -15 45
t-41 18z" />
    <glyph glyph-name="ae" unicode="&#xe6;" horiz-adv-x="730" 
d="M470 -12q-114 0 -154 79q-94 -82 -204 -82q-49 0 -75.5 22.5t-26.5 64.5q0 47 22.5 82t60 54t79.5 27.5t88 8.5q16 0 46 -2q3 15 8 39.5t8 42t3 28.5q0 80 -71 80q-34 0 -64 -16q23 -22 23 -58q0 -30 -19.5 -53t-49.5 -23q-21 0 -34 15t-13 36q0 45 48 82t134 37
q45 0 78.5 -17.5t48.5 -48.5q65 65 167 65q140 0 140 -101q0 -67 -67 -106t-171 -39q-12 0 -38 2q-3 -33 -3 -42q0 -134 95 -134q77 0 145 71q3 -3 10 -9q-38 -44 -94 -74.5t-120 -30.5zM202 32q51 0 108 48q-14 34 -14 72q0 36 7 73q-72 0 -113.5 -34.5t-41.5 -101.5
q0 -28 15 -42.5t39 -14.5zM439 224q88 0 126.5 44.5t38.5 113.5q0 25 -11 37.5t-28 12.5q-46 0 -79.5 -58t-46.5 -150z" />
    <glyph glyph-name="ccedilla" unicode="&#xe7;" horiz-adv-x="445" 
d="M314 453q63 0 93.5 -24.5t30.5 -60.5q0 -26 -17 -41t-39 -15q-31 0 -47 21t-16 52q0 28 15 49q-52 0 -91.5 -47.5t-57 -111t-17.5 -127.5q0 -55 25 -87.5t75 -32.5q64 0 127 58q1 -2 9 -10q-91 -89 -200 -89q-18 0 -27 1l-27 -49q68 -1 107.5 -22.5t39.5 -60.5
q0 -45 -50.5 -78.5t-137.5 -33.5q-29 0 -47 2q3 14 3 15q64 0 100.5 24t36.5 60q0 49 -87 57l50 88q-65 10 -99.5 54.5t-34.5 111.5q0 121 78.5 209t204.5 88z" />
    <glyph glyph-name="egrave" unicode="&#xe8;" horiz-adv-x="464" 
d="M206 -12q-86 0 -130.5 45t-44.5 123q0 117 75.5 206.5t206.5 89.5q69 0 103 -27t34 -75q0 -39 -25.5 -70t-68 -50t-89 -30t-98.5 -15q-2 -22 -2 -33q0 -122 95 -122q76 0 148 72l9 -9q-91 -105 -213 -105zM171 205q81 7 125.5 60.5t44.5 115.5q0 53 -41 53
q-44 0 -80 -66.5t-49 -162.5zM395 526l-4 -11q-57 14 -98.5 34.5t-61 41.5t-28 36.5t-8.5 27.5q1 18 12 31.5t31 13.5q21 0 36 -17t25.5 -40.5t36 -57t59.5 -59.5z" />
    <glyph glyph-name="eacute" unicode="&#xe9;" horiz-adv-x="464" 
d="M206 -12q-86 0 -130.5 45t-44.5 123q0 117 75.5 206.5t206.5 89.5q69 0 103 -27t34 -75q0 -39 -25.5 -70t-68 -50t-89 -30t-98.5 -15q-2 -22 -2 -33q0 -122 95 -122q76 0 148 72l9 -9q-91 -105 -213 -105zM171 205q81 7 125.5 60.5t44.5 115.5q0 53 -41 53
q-44 0 -80 -66.5t-49 -162.5zM220 511l-4 12q40 27 70 62t43 59t30 41.5t38 17.5t31.5 -12.5t9.5 -29.5q-1 -11 -11.5 -27.5t-32.5 -39t-68 -45t-106 -38.5z" />
    <glyph glyph-name="ecircumflex" unicode="&#xea;" horiz-adv-x="464" 
d="M206 -12q-86 0 -130.5 45t-44.5 123q0 117 75.5 206.5t206.5 89.5q69 0 103 -27t34 -75q0 -39 -25.5 -70t-68 -50t-89 -30t-98.5 -15q-2 -22 -2 -33q0 -122 95 -122q76 0 148 72l9 -9q-91 -105 -213 -105zM171 205q81 7 125.5 60.5t44.5 115.5q0 53 -41 53
q-44 0 -80 -66.5t-49 -162.5zM449 512l-131 91l-166 -91l-7 11l165 162q17 16 26 16q10 0 20 -16l104 -162z" />
    <glyph glyph-name="edieresis" unicode="&#xeb;" horiz-adv-x="464" 
d="M206 -12q-86 0 -130.5 45t-44.5 123q0 117 75.5 206.5t206.5 89.5q69 0 103 -27t34 -75q0 -39 -25.5 -70t-68 -50t-89 -30t-98.5 -15q-2 -22 -2 -33q0 -122 95 -122q76 0 148 72l9 -9q-91 -105 -213 -105zM171 205q81 7 125.5 60.5t44.5 115.5q0 53 -41 53
q-44 0 -80 -66.5t-49 -162.5zM229 673q23 0 37.5 -16.5t14.5 -40.5q0 -31 -23 -54.5t-52 -23.5q-22 0 -37.5 15.5t-15.5 38.5q0 32 23 56.5t53 24.5zM412 673q24 0 38.5 -16.5t14.5 -40.5q0 -31 -23 -54.5t-52 -23.5q-22 0 -37.5 15.5t-15.5 38.5q0 32 22.5 56.5t52.5 24.5z
" />
    <glyph glyph-name="igrave" unicode="&#xec;" horiz-adv-x="318" 
d="M282 526l-4 -11q-57 14 -98.5 34.5t-61 41.5t-28 36.5t-8.5 27.5q1 18 12 31.5t31 13.5q21 0 36 -17t25.5 -40.5t36 -57t59.5 -59.5zM181 454q35 0 54.5 -16.5t19.5 -47.5q0 -17 -4 -34l-66 -335q43 27 99 84l9 -8q-96 -110 -156 -110q-72 0 -72 70q0 13 3 30l65 333
q-36 -25 -99 -88l-10 9q100 113 157 113z" />
    <glyph glyph-name="iacute" unicode="&#xed;" horiz-adv-x="318" 
d="M109 511l-4 12q40 27 70 62t43 59t30 41.5t38 17.5q20 0 31 -12.5t10 -29.5q-1 -11 -11.5 -27.5t-32.5 -39t-68 -45t-106 -38.5zM181 454q35 0 54.5 -16.5t19.5 -47.5q0 -17 -4 -34l-66 -335q43 27 99 84l9 -8q-96 -110 -156 -110q-72 0 -72 70q0 13 3 30l65 333
q-36 -25 -99 -88l-10 9q100 113 157 113z" />
    <glyph glyph-name="icircumflex" unicode="&#xee;" horiz-adv-x="318" 
d="M181 454q35 0 54.5 -16.5t19.5 -47.5q0 -17 -4 -34l-66 -335q43 27 99 84l9 -8q-96 -110 -156 -110q-72 0 -72 70q0 13 3 30l65 333q-36 -25 -99 -88l-10 9q100 113 157 113zM335 512l-131 91l-166 -91l-7 11l165 162q17 16 26 16q10 0 20 -16l104 -162z" />
    <glyph glyph-name="idieresis" unicode="&#xef;" horiz-adv-x="318" 
d="M120 673q23 0 37.5 -16.5t14.5 -40.5q0 -31 -23 -54.5t-52 -23.5q-22 0 -37.5 15.5t-15.5 38.5q0 32 23 56.5t53 24.5zM303 673q24 0 38.5 -16.5t14.5 -40.5q0 -31 -23 -54.5t-52 -23.5q-22 0 -37.5 15.5t-15.5 38.5q0 32 22.5 56.5t52.5 24.5zM181 454q35 0 54.5 -16.5
t19.5 -47.5q0 -17 -4 -34l-66 -335q43 27 99 84l9 -8q-96 -110 -156 -110q-72 0 -72 70q0 13 3 30l65 333q-36 -25 -99 -88l-10 9q100 113 157 113z" />
    <glyph glyph-name="eth" unicode="&#xf0;" horiz-adv-x="541" 
d="M394 422q4 2 5 2q-5 104 -43 178l-107 -69l-8 13l107 69q-41 76 -113 113l7 14q89 -35 153 -96q13 8 47.5 31.5t54.5 35.5l8 -14l-98 -64q111 -116 111 -300q0 -63 -19.5 -123.5t-55.5 -111t-94 -81.5t-129 -31q-99 0 -144.5 48.5t-45.5 130.5q0 114 75.5 200t190.5 86
q65 0 98 -31zM305 435q-43 0 -76.5 -56t-49 -130t-15.5 -145q0 -102 59 -102q43 0 78.5 51.5t52.5 120t17 132.5q0 65 -13 97t-53 32z" />
    <glyph glyph-name="ntilde" unicode="&#xf1;" horiz-adv-x="579" 
d="M176 454q35 0 53.5 -17.5t18.5 -47.5q0 -17 -12.5 -80.5t-28.5 -120.5l3 -1q50 141 109 203.5t108 62.5q89 0 89 -91q0 -22 -6 -56l-58 -278q20 12 49 35.5t47 43.5l9 -10q-96 -110 -158 -110q-70 0 -70 66q0 18 7 51l45 200q8 36 8 54q0 35 -27 35q-37 0 -92.5 -106
t-77.5 -225l-12 -62h-129l77 414q-43 -27 -98 -86l-10 11q97 115 156 115zM501 661l9 -3q-16 -51 -47.5 -84.5t-70.5 -33.5q-22 0 -71 15t-70 15q-49 0 -74 -42l-10 4q16 45 45 81t70 36q19 0 71.5 -16.5t75.5 -16.5q45 0 72 45z" />
    <glyph glyph-name="ograve" unicode="&#xf2;" 
d="M308 453q99 0 147 -50.5t48 -131.5q0 -111 -81 -197.5t-207 -86.5q-95 0 -139.5 49.5t-44.5 130.5q0 117 78 201.5t199 84.5zM306 436q-41 0 -75 -56.5t-50.5 -131t-16.5 -142.5q0 -103 58 -103q36 0 66 36t47.5 89t27 106t9.5 95q0 107 -66 107zM410 526l-4 -11
q-57 14 -98.5 34.5t-61 41.5t-28 36.5t-8.5 27.5q1 18 12 31.5t31 13.5q21 0 36 -17t25.5 -40.5t36 -57t59.5 -59.5z" />
    <glyph glyph-name="oacute" unicode="&#xf3;" 
d="M308 453q99 0 147 -50.5t48 -131.5q0 -111 -81 -197.5t-207 -86.5q-95 0 -139.5 49.5t-44.5 130.5q0 117 78 201.5t199 84.5zM306 436q-41 0 -75 -56.5t-50.5 -131t-16.5 -142.5q0 -103 58 -103q36 0 66 36t47.5 89t27 106t9.5 95q0 107 -66 107zM248 511l-4 12
q40 27 70 62t43 59t30 41.5t38 17.5t31.5 -12.5t9.5 -29.5q-1 -11 -11.5 -27.5t-32.5 -39t-68 -45t-106 -38.5z" />
    <glyph glyph-name="ocircumflex" unicode="&#xf4;" 
d="M308 453q99 0 147 -50.5t48 -131.5q0 -111 -81 -197.5t-207 -86.5q-95 0 -139.5 49.5t-44.5 130.5q0 117 78 201.5t199 84.5zM306 436q-41 0 -75 -56.5t-50.5 -131t-16.5 -142.5q0 -103 58 -103q36 0 66 36t47.5 89t27 106t9.5 95q0 107 -66 107zM472 512l-131 91
l-166 -91l-7 11l165 162q17 16 26 16q10 0 20 -16l104 -162z" />
    <glyph glyph-name="otilde" unicode="&#xf5;" 
d="M308 453q99 0 147 -50.5t48 -131.5q0 -111 -81 -197.5t-207 -86.5q-95 0 -139.5 49.5t-44.5 130.5q0 117 78 201.5t199 84.5zM306 436q-41 0 -75 -56.5t-50.5 -131t-16.5 -142.5q0 -103 58 -103q36 0 66 36t47.5 89t27 106t9.5 95q0 107 -66 107zM497 661l9 -3
q-16 -51 -47.5 -84.5t-70.5 -33.5q-22 0 -71 15t-70 15q-49 0 -74 -42l-10 4q16 45 45 81t70 36q19 0 71.5 -16.5t75.5 -16.5q45 0 72 45z" />
    <glyph glyph-name="odieresis" unicode="&#xf6;" 
d="M308 453q99 0 147 -50.5t48 -131.5q0 -111 -81 -197.5t-207 -86.5q-95 0 -139.5 49.5t-44.5 130.5q0 117 78 201.5t199 84.5zM306 436q-41 0 -75 -56.5t-50.5 -131t-16.5 -142.5q0 -103 58 -103q36 0 66 36t47.5 89t27 106t9.5 95q0 107 -66 107zM258 673
q23 0 37.5 -16.5t14.5 -40.5q0 -31 -23 -54.5t-52 -23.5q-22 0 -37.5 15.5t-15.5 38.5q0 32 23 56.5t53 24.5zM441 673q24 0 38.5 -16.5t14.5 -40.5q0 -31 -23 -54.5t-52 -23.5q-22 0 -37.5 15.5t-15.5 38.5q0 32 22.5 56.5t52.5 24.5z" />
    <glyph glyph-name="divide" unicode="&#xf7;" horiz-adv-x="541" 
d="M320 503q21 0 34 -14t13 -36q0 -28 -20.5 -49.5t-46.5 -21.5q-20 0 -33 14t-13 35q0 28 20.5 50t45.5 22zM271 208q20 0 32 -13.5t12 -34.5q0 -30 -19.5 -50.5t-46.5 -20.5q-20 0 -32.5 13t-12.5 34q0 28 20.5 50t46.5 22zM474 278h-387q3 13 7 39h387z" />
    <glyph glyph-name="oslash" unicode="&#xf8;" 
d="M308 453q73 0 120 -30l38 45l10 -9l-37 -44q64 -48 64 -144q0 -111 -81 -197.5t-207 -86.5q-65 0 -111 26l-40 -48l-11 10l39 47q-61 46 -61 145q0 117 78 201.5t199 84.5zM222 3q36 0 66 36t47.5 89.5t27 108t9.5 97.5l-208 -249q5 -82 58 -82zM306 436q-41 0 -75 -55.5
t-50.5 -130t-16.5 -142.5l207 247q-7 81 -65 81z" />
    <glyph glyph-name="ugrave" unicode="&#xf9;" horiz-adv-x="570" 
d="M519 452q1 0 3 -2l2 -1q-48 -236 -81 -422q40 24 97 83l9 -11q-95 -111 -155 -111q-71 0 -71 62q0 48 39 200h-3q-47 -141 -102.5 -202t-103.5 -61q-90 0 -90 89q0 24 6 51l58 284q-43 -26 -97 -82l-10 11q98 113 158 113q72 0 72 -68q0 -14 -7 -49l-47 -215
q-5 -22 -5 -40q0 -33 25 -33q35 0 85.5 101t75.5 220l9 41q76 8 133 42zM418 526l-4 -11q-57 14 -98.5 34.5t-61 41.5t-28 36.5t-8.5 27.5q1 18 12 31.5t31 13.5q21 0 36 -17t25.5 -40.5t36 -57t59.5 -59.5z" />
    <glyph glyph-name="uacute" unicode="&#xfa;" horiz-adv-x="570" 
d="M519 452q1 0 3 -2l2 -1q-48 -236 -81 -422q40 24 97 83l9 -11q-95 -111 -155 -111q-71 0 -71 62q0 48 39 200h-3q-47 -141 -102.5 -202t-103.5 -61q-90 0 -90 89q0 24 6 51l58 284q-43 -26 -97 -82l-10 11q98 113 158 113q72 0 72 -68q0 -14 -7 -49l-47 -215
q-5 -22 -5 -40q0 -33 25 -33q35 0 85.5 101t75.5 220l9 41q76 8 133 42zM254 511l-4 12q40 27 70 62t43 59t30 41.5t38 17.5q20 0 31 -12.5t10 -29.5q-1 -11 -11.5 -27.5t-32.5 -39t-68 -45t-106 -38.5z" />
    <glyph glyph-name="ucircumflex" unicode="&#xfb;" horiz-adv-x="570" 
d="M519 452q1 0 3 -2l2 -1q-48 -236 -81 -422q40 24 97 83l9 -11q-95 -111 -155 -111q-71 0 -71 62q0 48 39 200h-3q-47 -141 -102.5 -202t-103.5 -61q-90 0 -90 89q0 24 6 51l58 284q-43 -26 -97 -82l-10 11q98 113 158 113q72 0 72 -68q0 -14 -7 -49l-47 -215
q-5 -22 -5 -40q0 -33 25 -33q35 0 85.5 101t75.5 220l9 41q76 8 133 42zM472 512l-131 91l-166 -91l-7 11l165 162q17 16 26 16q10 0 20 -16l104 -162z" />
    <glyph glyph-name="udieresis" unicode="&#xfc;" horiz-adv-x="570" 
d="M519 452q1 0 3 -2l2 -1q-48 -236 -81 -422q40 24 97 83l9 -11q-95 -111 -155 -111q-71 0 -71 62q0 48 39 200h-3q-47 -141 -102.5 -202t-103.5 -61q-90 0 -90 89q0 24 6 51l58 284q-43 -26 -97 -82l-10 11q98 113 158 113q72 0 72 -68q0 -14 -7 -49l-47 -215
q-5 -22 -5 -40q0 -33 25 -33q35 0 85.5 101t75.5 220l9 41q76 8 133 42zM444 673q24 0 38.5 -16.5t14.5 -40.5q0 -31 -23 -54.5t-52 -23.5q-22 0 -37.5 15.5t-15.5 38.5q0 32 22.5 56.5t52.5 24.5zM261 673q23 0 37.5 -16.5t14.5 -40.5q0 -31 -23 -54.5t-52 -23.5
q-22 0 -37.5 15.5t-15.5 38.5q0 32 23 56.5t53 24.5z" />
    <glyph glyph-name="yacute" unicode="&#xfd;" horiz-adv-x="462" 
d="M393 456q24 0 39 -17t15 -48q0 -50 -36.5 -110.5t-88.5 -117.5t-104 -112.5t-88.5 -110t-36.5 -95.5q0 -46 42 -58q0 41 18 67.5t49 26.5q22 0 34.5 -13t12.5 -32q0 -29 -26 -49t-61 -20q-38 0 -62.5 21t-24.5 55q0 59 69 148q-35 278 -67 410q-26 -24 -73 -88l-9 8
q39 62 73 96t76 34q44 0 69 -75.5t39 -266.5q10 11 38.5 43t40.5 46.5t31 39t30.5 43.5t18.5 37q-30 9 -49.5 30t-19.5 52q0 18 11.5 37t39.5 19zM208 511l-4 12q40 27 70 62t43 59t30 41.5t38 17.5t31.5 -12.5t9.5 -29.5q-1 -11 -11.5 -27.5t-32.5 -39t-68 -45t-106 -38.5z
" />
    <glyph glyph-name="thorn" unicode="&#xfe;" horiz-adv-x="567" 
d="M16 -120q92 476 137 715q7 35 7 45q0 25 -16 34.5t-32.5 11.5t-16.5 8l1 4v5q124 16 210 28l3 -5q-11 -55 -30.5 -161t-36 -188.5t-34.5 -151.5l2 -1h2q77 228 198 228q55 0 90 -36.5t35 -114.5q0 -122 -66 -217t-176 -95q-75 0 -117 36q-3 0 -8.5 -27.5t-11.5 -64
t-7 -40.5q-4 -22 -4 -35q0 -25 19.5 -36t38.5 -15t19 -11q0 -4 -1 -6h-292v5q1 8 12.5 12t26 7t29 19.5t19.5 46.5zM252 13q60 0 104 98.5t44 202.5q0 88 -44 88q-45 0 -96 -100.5t-80 -256.5q32 -32 72 -32z" />
    <glyph glyph-name="ydieresis" unicode="&#xff;" horiz-adv-x="462" 
d="M393 456q24 0 39 -17t15 -48q0 -50 -36.5 -110.5t-88.5 -117.5t-104 -112.5t-88.5 -110t-36.5 -95.5q0 -46 42 -58q0 41 18 67.5t49 26.5q22 0 34.5 -13t12.5 -32q0 -29 -26 -49t-61 -20q-38 0 -62.5 21t-24.5 55q0 59 69 148q-35 278 -67 410q-26 -24 -73 -88l-9 8
q39 62 73 96t76 34q44 0 69 -75.5t39 -266.5q10 11 38.5 43t40.5 46.5t31 39t30.5 43.5t18.5 37q-30 9 -49.5 30t-19.5 52q0 18 11.5 37t39.5 19zM209 673q23 0 37.5 -16.5t14.5 -40.5q0 -31 -23 -54.5t-52 -23.5q-22 0 -37.5 15.5t-15.5 38.5q0 32 23 56.5t53 24.5z
M392 673q24 0 38.5 -16.5t14.5 -40.5q0 -31 -23 -54.5t-52 -23.5q-22 0 -37.5 15.5t-15.5 38.5q0 32 22.5 56.5t52.5 24.5z" />
    <glyph glyph-name="Amacron" unicode="&#x100;" horiz-adv-x="663" 
d="M94 115l236 462q8 17 8 32q0 22 -15 32t-30.5 14t-15.5 11q0 2 0.5 5t0.5 4h179l99 -585q5 -30 17.5 -47t24.5 -20.5t21.5 -6.5t9.5 -9v-7h-294l1 6q1 7 13 11t25 6.5t24 15t11 34.5q0 12 -5 40l-19 102h-222l-43 -84q-19 -38 -21 -67q0 -19 12.5 -29.5t27 -13t27 -5.5
t12.5 -9t-1 -7h-217q0 10 7 13.5t21 6.5t30 10t37 28.5t39 56.5zM333 540h-4l-157 -309h210zM550 838l-17 -81q-115 11 -284 0l12 63q77 13 289 18z" />
    <glyph glyph-name="amacron" unicode="&#x101;" horiz-adv-x="573" 
d="M532 458q-45 -173 -81 -427q49 31 92 77l10 -10q-98 -110 -157 -110q-68 0 -68 65q0 19 10 74.5t19 88.5h-2q-77 -229 -199 -229q-55 0 -90 36.5t-35 114.5q0 122 66 218t176 96q79 0 125 -50q68 13 122 56h12zM312 424q-40 0 -75 -51.5t-53.5 -120.5t-18.5 -129
q0 -88 47 -88q38 0 85.5 83t73.5 204l15 66q-34 36 -74 36zM479 632l-16 -80q-113 11 -279 0l13 62q77 13 282 18z" />
    <glyph glyph-name="Abreve" unicode="&#x102;" horiz-adv-x="663" 
d="M94 115l236 462q8 17 8 32q0 22 -15 32t-30.5 14t-15.5 11q0 2 0.5 5t0.5 4h179l99 -585q5 -30 17.5 -47t24.5 -20.5t21.5 -6.5t9.5 -9v-7h-294l1 6q1 7 13 11t25 6.5t24 15t11 34.5q0 12 -5 40l-19 102h-222l-43 -84q-19 -38 -21 -67q0 -19 12.5 -29.5t27 -13t27 -5.5
t12.5 -9t-1 -7h-217q0 10 7 13.5t21 6.5t30 10t37 28.5t39 56.5zM333 540h-4l-157 -309h210zM399 729q-59 0 -90.5 43t-29.5 116l13 4q28 -90 119 -90q89 0 153 91l11 -3q-30 -82 -77 -121.5t-99 -39.5z" />
    <glyph glyph-name="abreve" unicode="&#x103;" horiz-adv-x="573" 
d="M532 458q-45 -173 -81 -427q49 31 92 77l10 -10q-98 -110 -157 -110q-68 0 -68 65q0 19 10 74.5t19 88.5h-2q-77 -229 -199 -229q-55 0 -90 36.5t-35 114.5q0 122 66 218t176 96q79 0 125 -50q68 13 122 56h12zM312 424q-40 0 -75 -51.5t-53.5 -120.5t-18.5 -129
q0 -88 47 -88q38 0 85.5 83t73.5 204l15 66q-34 36 -74 36zM326 513q-61 0 -92.5 46.5t-26.5 124.5l14 4q28 -99 117 -99q84 0 153 95l12 -4q-30 -84 -77.5 -125.5t-99.5 -41.5z" />
    <glyph glyph-name="Aogonek" unicode="&#x104;" horiz-adv-x="663" 
d="M94 115l236 462q8 17 8 32q0 22 -15 32t-30.5 14t-15.5 11q0 2 0.5 5t0.5 4h179l99 -585q5 -30 17.5 -47t24.5 -20.5t21.5 -6.5t9.5 -9v-7h-95q-49 -35 -74 -79t-25 -77q0 -32 22 -47.5t59 -15.5q31 0 61 10l1 -12q-65 -38 -138 -38q-91 0 -91 67q0 16 6.5 35.5t23 45.5
t51 55.5t82.5 55.5h-177l1 6q1 7 13 11t25 6.5t24 15t11 34.5q0 12 -5 40l-19 102h-222l-43 -84q-19 -38 -21 -67q0 -19 12.5 -29.5t27 -13t27 -5.5t12.5 -9t-1 -7h-217q0 10 7 13.5t21 6.5t30 10t37 28.5t39 56.5zM333 540h-4l-157 -309h210z" />
    <glyph glyph-name="aogonek" unicode="&#x105;" horiz-adv-x="573" 
d="M532 458q-45 -173 -81 -427q49 31 92 77l10 -10q-98 -110 -157 -110q-14 0 -26 3q-37 -33 -56 -70.5t-19 -66.5q0 -32 22 -47.5t59 -15.5q31 0 61 10l1 -12q-65 -38 -138 -38q-91 0 -91 67q0 36 32 85t111 96q-24 15 -24 54q0 19 10 74.5t19 88.5h-2q-77 -229 -199 -229
q-55 0 -90 36.5t-35 114.5q0 122 66 218t176 96q79 0 125 -50q68 13 122 56h12zM312 424q-40 0 -75 -51.5t-53.5 -120.5t-18.5 -129q0 -88 47 -88q38 0 85.5 83t73.5 204l15 66q-34 36 -74 36z" />
    <glyph glyph-name="Cacute" unicode="&#x106;" horiz-adv-x="617" 
d="M448 667q-70 0 -126 -78.5t-84 -188t-28 -217.5q0 -83 32.5 -130t93.5 -47q141 0 223 215q12 30 18 39.5t14 9.5h4q-27 -146 -57 -288h-8q-4 8 -12.5 23t-12.5 23q-103 -39 -198 -39q-125 0 -191 75t-66 198q0 182 109.5 303t272.5 121q82 0 162 -31l38 47l9 -1l-36 -258
h-5q-10 0 -13 28q-4 34 -8 56t-14 51.5t-23.5 46.5t-37.5 29.5t-56 12.5zM341 740q0 2 -0.5 6t-0.5 6q46 22 80 51t48.5 50.5t32 36.5t36.5 15q20 0 30.5 -13t10.5 -30q0 -7 -4.5 -18t-20 -28.5t-39.5 -32t-69.5 -27t-103.5 -16.5z" />
    <glyph glyph-name="cacute" unicode="&#x107;" horiz-adv-x="445" 
d="M314 453q63 0 93.5 -24.5t30.5 -60.5q0 -26 -17 -41t-39 -15q-31 0 -47 21t-16 52q0 28 15 49q-52 0 -91.5 -47.5t-57 -111t-17.5 -127.5q0 -55 25 -87.5t75 -32.5q64 0 127 58q1 -2 9 -10q-91 -89 -200 -89q-83 0 -128 46t-45 123q0 121 78.5 209t204.5 88zM209 511
l-4 12q40 27 70 62t43 59t30 41.5t38 17.5q20 0 31 -12.5t10 -29.5q-1 -11 -11.5 -27.5t-32.5 -39t-68 -45t-106 -38.5z" />
    <glyph glyph-name="Ccircumflex" unicode="&#x108;" horiz-adv-x="617" 
d="M448 667q-70 0 -126 -78.5t-84 -188t-28 -217.5q0 -83 32.5 -130t93.5 -47q141 0 223 215q12 30 18 39.5t14 9.5h4q-27 -146 -57 -288h-8q-4 8 -12.5 23t-12.5 23q-103 -39 -198 -39q-125 0 -191 75t-66 198q0 182 109.5 303t272.5 121q82 0 162 -31l38 47l9 -1l-36 -258
h-5q-10 0 -13 28q-4 34 -8 56t-14 51.5t-23.5 46.5t-37.5 29.5t-56 12.5zM580 736q-90 54 -135 80q-112 -52 -167 -79q-3 4 -7 12l144 129q4 3 10.5 9.5t11 10.5t10 8t9 6.5t6.5 2.5q8 0 17 -11q110 -153 112 -156z" />
    <glyph glyph-name="ccircumflex" unicode="&#x109;" horiz-adv-x="445" 
d="M314 453q63 0 93.5 -24.5t30.5 -60.5q0 -26 -17 -41t-39 -15q-31 0 -47 21t-16 52q0 28 15 49q-52 0 -91.5 -47.5t-57 -111t-17.5 -127.5q0 -55 25 -87.5t75 -32.5q64 0 127 58q1 -2 9 -10q-91 -89 -200 -89q-83 0 -128 46t-45 123q0 121 78.5 209t204.5 88zM436 512
l-131 91l-166 -91l-7 11l165 162q17 16 26 16q10 0 20 -16l104 -162z" />
    <glyph glyph-name="Cdotaccent" unicode="&#x10a;" horiz-adv-x="617" 
d="M448 667q-70 0 -126 -78.5t-84 -188t-28 -217.5q0 -83 32.5 -130t93.5 -47q141 0 223 215q12 30 18 39.5t14 9.5h4q-27 -146 -57 -288h-8q-4 8 -12.5 23t-12.5 23q-103 -39 -198 -39q-125 0 -191 75t-66 198q0 182 109.5 303t272.5 121q82 0 162 -31l38 47l9 -1l-36 -258
h-5q-10 0 -13 28q-4 34 -8 56t-14 51.5t-23.5 46.5t-37.5 29.5t-56 12.5zM449 892q25 0 40.5 -17.5t15.5 -43.5q0 -36 -25.5 -62.5t-58.5 -26.5q-25 0 -41 17t-16 43q0 35 26 62.5t59 27.5z" />
    <glyph glyph-name="cdotaccent" unicode="&#x10b;" horiz-adv-x="445" 
d="M314 453q63 0 93.5 -24.5t30.5 -60.5q0 -26 -17 -41t-39 -15q-31 0 -47 21t-16 52q0 28 15 49q-52 0 -91.5 -47.5t-57 -111t-17.5 -127.5q0 -55 25 -87.5t75 -32.5q64 0 127 58q1 -2 9 -10q-91 -89 -200 -89q-83 0 -128 46t-45 123q0 121 78.5 209t204.5 88zM334 684
q25 0 40.5 -17.5t15.5 -43.5q0 -36 -25.5 -62.5t-58.5 -26.5q-25 0 -41 17t-16 43q0 35 26 62.5t59 27.5z" />
    <glyph glyph-name="Ccaron" unicode="&#x10c;" horiz-adv-x="617" 
d="M448 667q-70 0 -126 -78.5t-84 -188t-28 -217.5q0 -83 32.5 -130t93.5 -47q141 0 223 215q12 30 18 39.5t14 9.5h4q-27 -146 -57 -288h-8q-4 8 -12.5 23t-12.5 23q-103 -39 -198 -39q-125 0 -191 75t-66 198q0 182 109.5 303t272.5 121q82 0 162 -31l38 47l9 -1l-36 -258
h-5q-10 0 -13 28q-4 34 -8 56t-14 51.5t-23.5 46.5t-37.5 29.5t-56 12.5zM448 823l165 83l7 -11l-170 -159q-13 -10 -19 -10q-8 0 -16 11l-116 157l12 12z" />
    <glyph glyph-name="ccaron" unicode="&#x10d;" horiz-adv-x="445" 
d="M314 453q63 0 93.5 -24.5t30.5 -60.5q0 -26 -17 -41t-39 -15q-31 0 -47 21t-16 52q0 28 15 49q-52 0 -91.5 -47.5t-57 -111t-17.5 -127.5q0 -55 25 -87.5t75 -32.5q64 0 127 58q1 -2 9 -10q-91 -89 -200 -89q-83 0 -128 46t-45 123q0 121 78.5 209t204.5 88zM309 605
l162 93l7 -11l-160 -163q-16 -16 -25 -16t-21 17l-110 162l12 12z" />
    <glyph glyph-name="Dcaron" unicode="&#x10e;" horiz-adv-x="722" 
d="M297 0h-310q-1 13 12 17.5t29.5 6.5t33.5 21.5t24 57.5l77 447q0 1 2.5 13t4 22.5t1.5 12.5q0 22 -12 34.5t-26.5 15.5t-26.5 6.5t-12 9.5v4q1 4 1 6h248q364 0 364 -278q0 -45 -12 -94.5t-42.5 -104.5t-75 -98t-117.5 -71t-163 -28zM328 655l-97 -567q0 -3 -1 -9.5
t-2 -11.5t-1 -7q0 -43 53 -43h14q72 0 130 59.5t89.5 155.5t31.5 207q0 112 -46.5 164t-142.5 52h-28zM423 823l165 83l7 -11l-170 -159q-13 -10 -19 -10q-8 0 -16 11l-116 157l12 12z" />
    <glyph glyph-name="dcaron" unicode="&#x10f;" horiz-adv-x="603" 
d="M354 207h-3q-80 -219 -196 -219q-55 0 -89.5 36t-34.5 113q0 123 66.5 218t176.5 95q69 0 114 -38l40 196q4 17 4 30q0 25 -16.5 35t-33 12t-16.5 8v3q1 4 1 6q70 9 210 29l4 -5q-24 -123 -68 -360t-64 -339q43 27 96 83l9 -10q-43 -52 -85.5 -81.5t-70.5 -29.5
q-69 0 -69 70q0 48 25 148zM312 423q-58 0 -102.5 -93t-44.5 -192q0 -102 45 -102q37 0 85 82.5t75 207.5l14 66q-33 31 -72 31zM689 742q24 0 37 -15.5t13 -40.5q0 -43 -38.5 -102.5t-91.5 -97.5l-7 11q75 63 97 136q-15 -11 -33 -11q-20 0 -32.5 13t-12.5 33q0 28 19.5 51
t48.5 23z" />
    <glyph glyph-name="Dcroat" unicode="&#x110;" horiz-adv-x="723" 
d="M297 0h-309q0 11 12.5 15.5t29 7t34 22.5t23.5 58q7 41 21 122t20 121h-75l3 18h75q10 54 34 196q6 36 6 38q0 29 -19 41t-38 15t-19 10q0 2 0.5 5t0.5 5h260q163 0 257.5 -66.5t94.5 -211.5q0 -37 -9 -77.5t-27.5 -86t-51.5 -86.5t-76.5 -74t-107.5 -52.5t-139 -19.5z
M329 655l-51 -291h128l-3 -18h-128l-45 -268q-2 -7 -2 -18q0 -43 52 -43q75 0 136.5 60t95.5 157.5t34 209.5q0 110 -46.5 160.5t-143.5 50.5h-27z" />
    <glyph glyph-name="dcroat" unicode="&#x111;" horiz-adv-x="572" 
d="M354 207h-3q-80 -219 -196 -219q-55 0 -89.5 36t-34.5 113q0 78 27.5 148.5t84 118t130.5 47.5q69 0 115 -39q4 11 8.5 35.5t10 54t7.5 40.5h-160q0 3 0.5 5.5t1.5 6t1 5.5h160q14 70 14 79q0 25 -16.5 35t-32.5 12t-16 8v3q1 4 1 6q70 9 210 29l4 -5l-33 -167h59l-3 -17
h-59q-12 -64 -96 -515q43 27 96 83l9 -10q-45 -55 -88 -82.5t-74 -27.5q-63 0 -63 73q0 38 25 144zM312 423q-57 0 -100 -91.5t-47 -193.5q0 -102 45 -102q37 0 85 82.5t75 207.5l14 66q-33 31 -72 31z" />
    <glyph glyph-name="Emacron" unicode="&#x112;" horiz-adv-x="628" 
d="M287 17h45q81 0 138 50t127 172q13 22 21 22q1 0 3.5 -0.5t3.5 -0.5q-91 -264 -97 -280l-3 -1q-60 21 -219 21h-318q-1 12 11.5 17.5t29.5 7.5t34 20t23 52l83 473l4 28q0 30 -19.5 42t-39 14.5t-19.5 9.5v10h280q170 0 244 30q2 0 3 -1l-16 -244q-2 -1 -6 -1
q-7 0 -13 22q-11 43 -17.5 66t-18 46t-22.5 32.5t-31.5 18t-45 10.5t-63.5 2h-57l-51 -294h71q38 0 64 20.5t36 45t19 45t15 20.5h5l-49 -287h-5q-8 0 -10 21.5t-2 48t-18 48t-55 21.5h-74l-45 -260q-3 -18 -3 -23q0 -44 57 -44zM550 838l-17 -81q-115 11 -284 0l12 63
q77 13 289 18z" />
    <glyph glyph-name="emacron" unicode="&#x113;" horiz-adv-x="464" 
d="M206 -12q-86 0 -130.5 45t-44.5 123q0 117 75.5 206.5t206.5 89.5q69 0 103 -27t34 -75q0 -39 -25.5 -70t-68 -50t-89 -30t-98.5 -15q-2 -22 -2 -33q0 -122 95 -122q76 0 148 72l9 -9q-91 -105 -213 -105zM171 205q81 7 125.5 60.5t44.5 115.5q0 53 -41 53
q-44 0 -80 -66.5t-49 -162.5zM457 632l-16 -80q-113 11 -279 0l13 62q78 13 282 18z" />
    <glyph glyph-name="Ebreve" unicode="&#x114;" horiz-adv-x="628" 
d="M287 17h45q81 0 138 50t127 172q13 22 21 22q1 0 3.5 -0.5t3.5 -0.5q-91 -264 -97 -280l-3 -1q-60 21 -219 21h-318q-1 12 11.5 17.5t29.5 7.5t34 20t23 52l83 473l4 28q0 30 -19.5 42t-39 14.5t-19.5 9.5v10h280q170 0 244 30q2 0 3 -1l-16 -244q-2 -1 -6 -1
q-7 0 -13 22q-11 43 -17.5 66t-18 46t-22.5 32.5t-31.5 18t-45 10.5t-63.5 2h-57l-51 -294h71q38 0 64 20.5t36 45t19 45t15 20.5h5l-49 -287h-5q-8 0 -10 21.5t-2 48t-18 48t-55 21.5h-74l-45 -260q-3 -18 -3 -23q0 -44 57 -44zM382 729q-59 0 -90.5 43t-29.5 116l13 4
q28 -90 119 -90q89 0 153 91l11 -3q-30 -82 -77 -121.5t-99 -39.5z" />
    <glyph glyph-name="ebreve" unicode="&#x115;" horiz-adv-x="464" 
d="M206 -12q-86 0 -130.5 45t-44.5 123q0 117 75.5 206.5t206.5 89.5q69 0 103 -27t34 -75q0 -39 -25.5 -70t-68 -50t-89 -30t-98.5 -15q-2 -22 -2 -33q0 -122 95 -122q76 0 148 72l9 -9q-91 -105 -213 -105zM171 205q81 7 125.5 60.5t44.5 115.5q0 53 -41 53
q-44 0 -80 -66.5t-49 -162.5zM304 513q-61 0 -92.5 46.5t-26.5 124.5l14 4q28 -99 117 -99q84 0 153 95l12 -4q-30 -84 -77.5 -125.5t-99.5 -41.5z" />
    <glyph glyph-name="Edotaccent" unicode="&#x116;" horiz-adv-x="628" 
d="M287 17h45q81 0 138 50t127 172q13 22 21 22q1 0 3.5 -0.5t3.5 -0.5q-91 -264 -97 -280l-3 -1q-60 21 -219 21h-318q-1 12 11.5 17.5t29.5 7.5t34 20t23 52l83 473l4 28q0 30 -19.5 42t-39 14.5t-19.5 9.5v10h280q170 0 244 30q2 0 3 -1l-16 -244q-2 -1 -6 -1
q-7 0 -13 22q-11 43 -17.5 66t-18 46t-22.5 32.5t-31.5 18t-45 10.5t-63.5 2h-57l-51 -294h71q38 0 64 20.5t36 45t19 45t15 20.5h5l-49 -287h-5q-8 0 -10 21.5t-2 48t-18 48t-55 21.5h-74l-45 -260q-3 -18 -3 -23q0 -44 57 -44zM413 890q25 0 40.5 -17.5t15.5 -43.5
q0 -36 -25.5 -62.5t-58.5 -26.5q-25 0 -41 17t-16 43q0 35 26 62.5t59 27.5z" />
    <glyph glyph-name="edotaccent" unicode="&#x117;" horiz-adv-x="464" 
d="M206 -12q-86 0 -130.5 45t-44.5 123q0 117 75.5 206.5t206.5 89.5q69 0 103 -27t34 -75q0 -39 -25.5 -70t-68 -50t-89 -30t-98.5 -15q-2 -22 -2 -33q0 -122 95 -122q76 0 148 72l9 -9q-91 -105 -213 -105zM171 205q81 7 125.5 60.5t44.5 115.5q0 53 -41 53
q-44 0 -80 -66.5t-49 -162.5zM341 684q25 0 40.5 -17.5t15.5 -43.5q0 -36 -25.5 -62.5t-58.5 -26.5q-25 0 -41 17t-16 43q0 35 26 62.5t59 27.5z" />
    <glyph glyph-name="Eogonek" unicode="&#x118;" horiz-adv-x="628" 
d="M287 17h45q81 0 138 50t127 172q13 22 21 22q1 0 3.5 -0.5t3.5 -0.5q-91 -264 -97 -280l-3 -1q-22 8 -71 15q-45 -36 -69 -78t-24 -74t22 -47.5t59 -15.5q31 0 61 10l1 -12q-65 -38 -138 -38q-91 0 -91 67q0 37 35 89t123 101q-49 4 -127 4h-318q-1 12 11.5 17.5
t29.5 7.5t34 20t23 52l83 473l4 28q0 30 -19.5 42t-39 14.5t-19.5 9.5v10h280q170 0 244 30q2 0 3 -1l-16 -244q-2 -1 -6 -1q-7 0 -13 22q-11 43 -17.5 66t-18 46t-22.5 32.5t-31.5 18t-45 10.5t-63.5 2h-57l-51 -294h71q38 0 64 20.5t36 45t19 45t15 20.5h5l-49 -287h-5
q-8 0 -10 21.5t-2 48t-18 48t-55 21.5h-74l-45 -260q-3 -18 -3 -23q0 -44 57 -44z" />
    <glyph glyph-name="eogonek" unicode="&#x119;" horiz-adv-x="464" 
d="M206 -12q-86 0 -130.5 45t-44.5 123q0 117 75.5 206.5t206.5 89.5q69 0 103 -27t34 -75q0 -39 -25.5 -70t-68 -50t-89 -30t-98.5 -15q-2 -22 -2 -33q0 -122 95 -122q76 0 148 72l9 -9q-39 -46 -91 -74q-51 -35 -77 -79.5t-26 -78.5q0 -32 22 -47.5t59 -15.5q31 0 61 10
l1 -12q-65 -38 -138 -38q-91 0 -91 67q0 20 9 43.5t39.5 60t78.5 67.5q-30 -8 -60 -8zM171 205q81 7 125.5 60.5t44.5 115.5q0 53 -41 53q-44 0 -80 -66.5t-49 -162.5z" />
    <glyph glyph-name="Ecaron" unicode="&#x11a;" horiz-adv-x="628" 
d="M287 17h45q81 0 138 50t127 172q13 22 21 22q1 0 3.5 -0.5t3.5 -0.5q-91 -264 -97 -280l-3 -1q-60 21 -219 21h-318q-1 12 11.5 17.5t29.5 7.5t34 20t23 52l83 473l4 28q0 30 -19.5 42t-39 14.5t-19.5 9.5v10h280q170 0 244 30q2 0 3 -1l-16 -244q-2 -1 -6 -1
q-7 0 -13 22q-11 43 -17.5 66t-18 46t-22.5 32.5t-31.5 18t-45 10.5t-63.5 2h-57l-51 -294h71q38 0 64 20.5t36 45t19 45t15 20.5h5l-49 -287h-5q-8 0 -10 21.5t-2 48t-18 48t-55 21.5h-74l-45 -260q-3 -18 -3 -23q0 -44 57 -44zM401 823l165 83l7 -11l-170 -159
q-13 -10 -19 -10q-8 0 -16 11l-116 157l12 12z" />
    <glyph glyph-name="ecaron" unicode="&#x11b;" horiz-adv-x="464" 
d="M206 -12q-86 0 -130.5 45t-44.5 123q0 117 75.5 206.5t206.5 89.5q69 0 103 -27t34 -75q0 -39 -25.5 -70t-68 -50t-89 -30t-98.5 -15q-2 -22 -2 -33q0 -122 95 -122q76 0 148 72l9 -9q-91 -105 -213 -105zM171 205q81 7 125.5 60.5t44.5 115.5q0 53 -41 53
q-44 0 -80 -66.5t-49 -162.5zM322 605l162 93l7 -11l-160 -163q-16 -16 -25 -16t-21 17l-110 162l12 12z" />
    <glyph glyph-name="Gcircumflex" unicode="&#x11c;" horiz-adv-x="694" 
d="M583 7l-7 -3l-43 41q-122 -56 -226 -56q-125 0 -191 74.5t-66 199.5q0 181 111.5 302t276.5 121q98 0 178 -33l45 49q1 0 4 -0.5t4 -0.5l-38 -261h-3q-11 0 -15 39q-19 188 -150 188q-69 0 -128 -69t-92 -179t-33 -231q0 -181 110 -181q38 0 76 20.5t61 49.5l23 134
q0 2 3 19.5t3 21.5q0 22 -11.5 34.5t-25.5 15.5t-25.5 6.5t-11.5 9.5v3q0 1 0.5 3t0.5 3h292q0 -13 -11.5 -18t-26 -6.5t-29.5 -18.5t-20 -51zM607 733q-90 54 -135 80q-112 -52 -167 -79q-3 4 -7 12l144 129q4 3 10.5 9.5t11 10.5t10 8t9 6.5t6.5 2.5q8 0 17 -11
q110 -153 112 -156z" />
    <glyph glyph-name="gcircumflex" unicode="&#x11d;" horiz-adv-x="508" 
d="M287 453q42 0 82 -16q21 34 52 55.5t64 21.5q27 0 44.5 -14.5t17.5 -37.5q0 -24 -17 -38.5t-40 -14.5q-20 0 -42.5 17t-24.5 50q-22 -12 -43 -44q80 -39 80 -121q0 -80 -66 -140t-171 -60q-67 0 -113 26q-22 -11 -35 -25.5t-13 -24.5q0 -17 38.5 -22.5t93 -6.5
t109.5 -6.5t93.5 -30t38.5 -68.5q0 -71 -81 -126t-211 -55q-98 0 -141 35.5t-43 81.5q0 32 18 52.5t43 20.5t39.5 -18t14.5 -44q0 -21 -16 -44.5t-35 -31.5q31 -32 102 -32q63 0 111 35t48 87q0 40 -43 60.5t-94.5 24t-94.5 16.5t-43 39q0 20 23 46t67 44q-47 35 -47 97
q0 85 66.5 148.5t168.5 63.5zM286 436q-45 0 -77 -83t-32 -155t52 -72q30 0 56 42.5t38.5 96.5t12.5 99q0 72 -50 72zM445 540l-131 91l-166 -91l-7 11l165 162q17 16 26 16q10 0 20 -16l104 -162z" />
    <glyph glyph-name="Gbreve" unicode="&#x11e;" horiz-adv-x="694" 
d="M583 7l-7 -3l-43 41q-122 -56 -226 -56q-125 0 -191 74.5t-66 199.5q0 181 111.5 302t276.5 121q98 0 178 -33l45 49q1 0 4 -0.5t4 -0.5l-38 -261h-3q-11 0 -15 39q-19 188 -150 188q-69 0 -128 -69t-92 -179t-33 -231q0 -181 110 -181q38 0 76 20.5t61 49.5l23 134
q0 2 3 19.5t3 21.5q0 22 -11.5 34.5t-25.5 15.5t-25.5 6.5t-11.5 9.5v3q0 1 0.5 3t0.5 3h292q0 -13 -11.5 -18t-26 -6.5t-29.5 -18.5t-20 -51zM458 728q-59 0 -90.5 43t-29.5 116l13 4q28 -90 119 -90q89 0 153 91l11 -3q-30 -82 -77 -121.5t-99 -39.5z" />
    <glyph glyph-name="gbreve" unicode="&#x11f;" horiz-adv-x="508" 
d="M287 453q42 0 82 -16q21 34 52 55.5t64 21.5q27 0 44.5 -14.5t17.5 -37.5q0 -24 -17 -38.5t-40 -14.5q-20 0 -42.5 17t-24.5 50q-22 -12 -43 -44q80 -39 80 -121q0 -80 -66 -140t-171 -60q-67 0 -113 26q-22 -11 -35 -25.5t-13 -24.5q0 -17 38.5 -22.5t93 -6.5
t109.5 -6.5t93.5 -30t38.5 -68.5q0 -71 -81 -126t-211 -55q-98 0 -141 35.5t-43 81.5q0 32 18 52.5t43 20.5t39.5 -18t14.5 -44q0 -21 -16 -44.5t-35 -31.5q31 -32 102 -32q63 0 111 35t48 87q0 40 -43 60.5t-94.5 24t-94.5 16.5t-43 39q0 20 23 46t67 44q-47 35 -47 97
q0 85 66.5 148.5t168.5 63.5zM286 436q-45 0 -77 -83t-32 -155t52 -72q30 0 56 42.5t38.5 96.5t12.5 99q0 72 -50 72zM304 519q-61 0 -92.5 46.5t-26.5 124.5l14 4q28 -99 117 -99q84 0 153 95l12 -4q-30 -84 -77.5 -125.5t-99.5 -41.5z" />
    <glyph glyph-name="Gdotaccent" unicode="&#x120;" horiz-adv-x="694" 
d="M583 7l-7 -3l-43 41q-122 -56 -226 -56q-125 0 -191 74.5t-66 199.5q0 181 111.5 302t276.5 121q98 0 178 -33l45 49q1 0 4 -0.5t4 -0.5l-38 -261h-3q-11 0 -15 39q-19 188 -150 188q-69 0 -128 -69t-92 -179t-33 -231q0 -181 110 -181q38 0 76 20.5t61 49.5l23 134
q0 2 3 19.5t3 21.5q0 22 -11.5 34.5t-25.5 15.5t-25.5 6.5t-11.5 9.5v3q0 1 0.5 3t0.5 3h292q0 -13 -11.5 -18t-26 -6.5t-29.5 -18.5t-20 -51zM476 886q25 0 40.5 -17.5t15.5 -43.5q0 -36 -25.5 -62.5t-58.5 -26.5q-25 0 -41 17t-16 43q0 35 26 62.5t59 27.5z" />
    <glyph glyph-name="gdotaccent" unicode="&#x121;" horiz-adv-x="508" 
d="M287 453q42 0 82 -16q21 34 52 55.5t64 21.5q27 0 44.5 -14.5t17.5 -37.5q0 -24 -17 -38.5t-40 -14.5q-20 0 -42.5 17t-24.5 50q-22 -12 -43 -44q80 -39 80 -121q0 -80 -66 -140t-171 -60q-67 0 -113 26q-22 -11 -35 -25.5t-13 -24.5q0 -17 38.5 -22.5t93 -6.5
t109.5 -6.5t93.5 -30t38.5 -68.5q0 -71 -81 -126t-211 -55q-98 0 -141 35.5t-43 81.5q0 32 18 52.5t43 20.5t39.5 -18t14.5 -44q0 -21 -16 -44.5t-35 -31.5q31 -32 102 -32q63 0 111 35t48 87q0 40 -43 60.5t-94.5 24t-94.5 16.5t-43 39q0 20 23 46t67 44q-47 35 -47 97
q0 85 66.5 148.5t168.5 63.5zM286 436q-45 0 -77 -83t-32 -155t52 -72q30 0 56 42.5t38.5 96.5t12.5 99q0 72 -50 72zM337 688q25 0 40.5 -17.5t15.5 -43.5q0 -36 -25.5 -62.5t-58.5 -26.5q-25 0 -41 17t-16 43q0 35 26 62.5t59 27.5z" />
    <glyph glyph-name="Gcommaaccent" unicode="&#x122;" horiz-adv-x="694" 
d="M583 7l-7 -3l-43 41q-122 -56 -226 -56q-125 0 -191 74.5t-66 199.5q0 181 111.5 302t276.5 121q98 0 178 -33l45 49q1 0 4 -0.5t4 -0.5l-38 -261h-3q-11 0 -15 39q-19 188 -150 188q-69 0 -128 -69t-92 -179t-33 -231q0 -181 110 -181q38 0 76 20.5t61 49.5l23 134
q0 2 3 19.5t3 21.5q0 22 -11.5 34.5t-25.5 15.5t-25.5 6.5t-11.5 9.5v3q0 1 0.5 3t0.5 3h292q0 -13 -11.5 -18t-26 -6.5t-29.5 -18.5t-20 -51zM326 -44q24 0 37 -15.5t13 -40.5q0 -43 -38.5 -102.5t-91.5 -97.5l-7 11q75 63 97 136q-15 -11 -33 -11q-20 0 -32.5 13t-12.5 33
q0 28 19.5 51t48.5 23z" />
    <glyph glyph-name="gcommaaccent" unicode="&#x123;" horiz-adv-x="508" 
d="M313 522q-23 0 -35 14.5t-12 37.5q0 40 36.5 95t88.5 92q2 -1 4.5 -4.5t3.5 -4.5q-81 -65 -103 -129q22 12 39 12q20 0 31.5 -12t11.5 -32q0 -26 -19.5 -47.5t-45.5 -21.5zM287 453q42 0 82 -16q21 34 52 55.5t64 21.5q27 0 44.5 -14.5t17.5 -37.5q0 -24 -17 -38.5
t-40 -14.5q-20 0 -42.5 17t-24.5 50q-22 -12 -43 -44q80 -39 80 -121q0 -80 -66 -140t-171 -60q-67 0 -113 26q-22 -11 -35 -25.5t-13 -24.5q0 -17 38.5 -22.5t93 -6.5t109.5 -6.5t93.5 -30t38.5 -68.5q0 -71 -81 -126t-211 -55q-98 0 -141 35.5t-43 81.5q0 32 18 52.5
t43 20.5t39.5 -18t14.5 -44q0 -21 -16 -44.5t-35 -31.5q31 -32 102 -32q63 0 111 35t48 87q0 40 -43 60.5t-94.5 24t-94.5 16.5t-43 39q0 20 23 46t67 44q-47 35 -47 97q0 85 66.5 148.5t168.5 63.5zM286 436q-45 0 -77 -83t-32 -155t52 -72q30 0 56 42.5t38.5 96.5t12.5 99
q0 72 -50 72z" />
    <glyph glyph-name="Hcircumflex" unicode="&#x124;" horiz-adv-x="760" 
d="M710 580l-80 -460q-5 -27 -5 -41q0 -30 20 -44t40 -18t20 -10q0 -5 -1 -7h-323q0 9 8 13t20.5 7t25.5 8.5t25 24t17 48.5l43 246h-244l-39 -227q-5 -28 -5 -41q0 -30 18.5 -44t37 -18t18.5 -10q0 -5 -1 -7h-317q0 9 8.5 13t21 7t26 8.5t26 24t17.5 48.5l79 448q5 40 5 50
q0 22 -11.5 34.5t-24.5 15.5t-24.5 6.5t-11.5 9.5v3q0 1 0.5 3t0.5 3h314q0 -13 -13 -18t-29.5 -6.5t-32.5 -18.5t-22 -51l-38 -216h244l33 185q0 3 2 14.5t3.5 22t1.5 13.5q0 22 -11 34.5t-24 15.5t-24 6.5t-11 9.5v3q0 1 0.5 3t0.5 3h313q0 -13 -13 -18t-29.5 -6.5
t-32.5 -18.5t-22 -51zM612 730q-90 54 -135 80q-112 -52 -167 -79q-3 4 -7 12l144 129q4 3 10.5 9.5t11 10.5t10 8t9 6.5t6.5 2.5q8 0 17 -11q110 -153 112 -156z" />
    <glyph glyph-name="hcircumflex" unicode="&#x125;" horiz-adv-x="544" 
d="M13 0l113 594q6 30 6 46q0 24 -16 34t-32 11.5t-16 7.5v3q1 4 1 6q70 9 210 29l3 -3l-56 -298q-19 -101 -48 -211l1 -1h2q37 111 91 172.5t118 61.5q53 0 87 -37t34 -118q0 -126 -71 -224.5t-164 -98.5q-38 0 -60 19t-22 46q0 22 12.5 37t34.5 15q26 0 40.5 -20t14.5 -52
q0 -15 -4 -30h1q42 18 66 110t24 199q0 106 -50 106q-45 0 -94.5 -87.5t-73.5 -207.5l-22 -109h-130zM363 751q-90 54 -135 80q-112 -52 -167 -79q-3 4 -7 12l144 129q4 3 10.5 9.5t11 10.5t10 8t9 6.5t6.5 2.5q8 0 17 -11q110 -153 112 -156z" />
    <glyph glyph-name="Hbar" unicode="&#x126;" horiz-adv-x="760" 
d="M710 580l-12 -68h54l-4 -16h-53l-65 -376q-5 -27 -5 -41q0 -30 20 -44t40 -18t20 -10q0 -5 -1 -7h-323q0 9 8 13t20.5 7t25.5 8.5t25 24t17 48.5l43 246h-244l-39 -227q-5 -28 -5 -41q0 -30 18.5 -44t37 -18t18.5 -10q0 -5 -1 -7h-317q0 9 8.5 13t21 7t26 8.5t26 24
t17.5 48.5l69 395h-60q0 1 3 16h60l7 37q5 40 5 50q0 22 -11.5 34.5t-24.5 15.5t-24.5 6.5t-11.5 9.5v3q0 1 0.5 3t0.5 3h314q0 -13 -13 -18t-29.5 -6.5t-32.5 -18.5t-22 -51l-12 -68h244l7 37q0 3 2 14.5t3.5 22t1.5 13.5q0 22 -11 34.5t-24 15.5t-24 6.5t-11 9.5v3
q0 1 0.5 3t0.5 3h313q0 -13 -13 -18t-29.5 -6.5t-32.5 -18.5t-22 -51zM279 364h244l23 132h-244z" />
    <glyph glyph-name="hbar" unicode="&#x127;" horiz-adv-x="546" 
d="M13 0l104 547h-65q0 2 3 17h65l7 35q5 23 5 41q0 16 -8 24q-9 11 -23.5 15.5t-23.5 6t-9 7.5v3q1 4 1 6q70 9 210 29l3 -5q-25 -133 -31 -162h155l-3 -17h-155q-34 -174 -52 -253l-18 -75l1 -1h2q37 111 91 172.5t118 61.5q55 0 89.5 -37.5t34.5 -118.5q0 -125 -74 -226
t-164 -101q-38 0 -60 19t-22 46q0 22 12.5 37t34.5 15q24 0 39.5 -20t15.5 -54q0 -13 -3 -28q42 18 66 112t24 202q0 104 -48 104q-46 0 -96 -86.5t-74 -206.5l-22 -109h-130z" />
    <glyph glyph-name="Itilde" unicode="&#x128;" horiz-adv-x="388" 
d="M327 580l-80 -460q-5 -28 -5 -41q0 -30 20.5 -44t41 -18t20.5 -10q0 -5 -1 -7h-327q0 9 8.5 13t22 7t27 8.5t26 24t17.5 48.5l78 457q0 2 3 19.5t3 21.5q0 22 -11.5 34.5t-25.5 15.5t-25.5 6.5t-11.5 9.5v3q0 1 0.5 3t0.5 3h319q0 -13 -13.5 -18t-30.5 -6.5t-33.5 -18.5
t-22.5 -51zM457 865l9 -3q-16 -51 -47.5 -84.5t-70.5 -33.5q-22 0 -71 15t-70 15q-49 0 -74 -42l-10 4q16 45 45 81t70 36q19 0 71.5 -16.5t75.5 -16.5q45 0 72 45z" />
    <glyph glyph-name="itilde" unicode="&#x129;" horiz-adv-x="318" 
d="M366 661l9 -3q-16 -51 -47.5 -84.5t-70.5 -33.5q-21 0 -70 15t-71 15q-49 0 -74 -42l-10 4q16 45 45 81t70 36q19 0 71.5 -16.5t75.5 -16.5q45 0 72 45zM181 454q35 0 54.5 -16.5t19.5 -47.5q0 -17 -4 -34l-66 -335q43 27 99 84l9 -8q-96 -110 -156 -110q-72 0 -72 70
q0 13 3 30l65 333q-36 -25 -99 -88l-10 9q100 113 157 113z" />
    <glyph glyph-name="Imacron" unicode="&#x12a;" horiz-adv-x="388" 
d="M327 580l-80 -460q-5 -28 -5 -41q0 -30 20.5 -44t41 -18t20.5 -10q0 -5 -1 -7h-327q0 9 8.5 13t22 7t27 8.5t26 24t17.5 48.5l78 457q0 2 3 19.5t3 21.5q0 22 -11.5 34.5t-25.5 15.5t-25.5 6.5t-11.5 9.5v3q0 1 0.5 3t0.5 3h319q0 -13 -13.5 -18t-30.5 -6.5t-33.5 -18.5
t-22.5 -51zM434 838l-17 -81q-115 11 -284 0l12 63q77 13 289 18z" />
    <glyph glyph-name="imacron" unicode="&#x12b;" horiz-adv-x="318" 
d="M341 632l-16 -80q-113 11 -279 0l13 62q77 13 282 18zM181 454q35 0 54.5 -16.5t19.5 -47.5q0 -17 -4 -34l-66 -335q43 27 99 84l9 -8q-96 -110 -156 -110q-72 0 -72 70q0 13 3 30l65 333q-36 -25 -99 -88l-10 9q100 113 157 113z" />
    <glyph glyph-name="Ibreve" unicode="&#x12c;" horiz-adv-x="395" 
d="M327 580l-80 -460q-5 -28 -5 -41q0 -30 20.5 -44t41 -18t20.5 -10q0 -5 -1 -7h-327q0 9 8.5 13t22 7t27 8.5t26 24t17.5 48.5l78 457q0 2 3 19.5t3 21.5q0 22 -11.5 34.5t-25.5 15.5t-25.5 6.5t-11.5 9.5v3q0 1 0.5 3t0.5 3h319q0 -13 -13.5 -18t-30.5 -6.5t-33.5 -18.5
t-22.5 -51zM278 729q-59 0 -90.5 43t-29.5 116l13 4q28 -90 119 -90q89 0 153 91l11 -3q-30 -82 -77 -121.5t-99 -39.5z" />
    <glyph glyph-name="ibreve" unicode="&#x12d;" horiz-adv-x="318" 
d="M199 519q-61 0 -92.5 46.5t-26.5 124.5l14 4q28 -99 117 -99q84 0 153 95l12 -4q-30 -84 -77.5 -125.5t-99.5 -41.5zM181 454q35 0 54.5 -16.5t19.5 -47.5q0 -17 -4 -34l-66 -335q43 27 99 84l9 -8q-96 -110 -156 -110q-72 0 -72 70q0 13 3 30l65 333q-36 -25 -99 -88
l-10 9q100 113 157 113z" />
    <glyph glyph-name="Iogonek" unicode="&#x12e;" horiz-adv-x="388" 
d="M327 580l-80 -460q-5 -28 -5 -41q0 -30 20.5 -44t41 -18t20.5 -10q0 -5 -1 -7h-135q-49 -35 -74 -79t-25 -77q0 -32 22 -47.5t59 -15.5q31 0 61 10l1 -12q-65 -38 -138 -38q-91 0 -91 67q0 16 6.5 35.5t23 45.5t51 55.5t82.5 55.5h-170q0 9 8.5 13t22 7t27 8.5t26 24
t17.5 48.5l78 457q0 2 3 19.5t3 21.5q0 22 -11.5 34.5t-25.5 15.5t-25.5 6.5t-11.5 9.5v3q0 1 0.5 3t0.5 3h319q0 -13 -13.5 -18t-30.5 -6.5t-33.5 -18.5t-22.5 -51z" />
    <glyph glyph-name="iogonek" unicode="&#x12f;" horiz-adv-x="318" 
d="M291 98q-78 -90 -137 -105q-52 -36 -74.5 -77.5t-22.5 -73.5t22 -47.5t58 -15.5q32 0 61 10q0 -4 2 -12q-65 -38 -138 -38q-90 0 -90 67q0 36 33.5 85.5t113.5 97.5q-55 4 -55 70q0 20 11 75l54 279q-33 -20 -98 -85l-10 11q96 113 158 113q72 0 72 -75q0 -22 -6 -52
l-59 -296q44 27 96 79zM147 602q0 38 26 65.5t62 27.5q29 0 47 -19.5t18 -48.5q0 -37 -27 -65t-61 -28q-27 0 -45.5 19.5t-19.5 48.5z" />
    <glyph glyph-name="Idotaccent" unicode="&#x130;" horiz-adv-x="388" 
d="M327 580l-80 -460q-5 -28 -5 -41q0 -30 20.5 -44t41 -18t20.5 -10q0 -5 -1 -7h-327q0 9 8.5 13t22 7t27 8.5t26 24t17.5 48.5l78 457q0 2 3 19.5t3 21.5q0 22 -11.5 34.5t-25.5 15.5t-25.5 6.5t-11.5 9.5v3q0 1 0.5 3t0.5 3h319q0 -13 -13.5 -18t-30.5 -6.5t-33.5 -18.5
t-22.5 -51zM303 883q25 0 40.5 -17.5t15.5 -43.5q0 -36 -25.5 -62.5t-58.5 -26.5q-25 0 -41 17t-16 43q0 35 26 62.5t59 27.5z" />
    <glyph glyph-name="dotlessi" unicode="&#x131;" horiz-adv-x="318" 
d="M181 454q35 0 54.5 -16.5t19.5 -47.5q0 -17 -4 -34l-66 -335q43 27 99 84l9 -8q-96 -110 -156 -110q-72 0 -72 70q0 13 3 30l65 333q-36 -25 -99 -88l-10 9q100 113 157 113z" />
    <glyph glyph-name="IJ" unicode="&#x132;" horiz-adv-x="793" 
d="M327 580l-80 -460q-5 -28 -5 -41q0 -30 20.5 -44t41 -18t20.5 -10q0 -5 -1 -7h-327q0 9 8.5 13t22 7t27 8.5t26 24t17.5 48.5l78 457q0 2 3 19.5t3 21.5q0 22 -11.5 34.5t-25.5 15.5t-25.5 6.5t-11.5 9.5v3q0 1 0.5 3t0.5 3h319q0 -13 -13.5 -18t-30.5 -6.5t-33.5 -18.5
t-22.5 -51zM469 322l4 17h101q25 98 70.5 164.5t127.5 121.5l-2 4q-94 -62 -190 -62q-52 0 -121 24q-10 -26 -27 -97q-2 0 -6 0.5t-6 0.5q7 42 13.5 68t19.5 63t33 56t47 19q42 0 110.5 -30.5t100.5 -30.5q43 0 91 45l8 -9q-54 -44 -74.5 -106t-48.5 -231h96l-3 -17h-96
q-35 -207 -79.5 -307.5t-110.5 -155.5q-85 -71 -163 -71q-45 0 -72 22.5t-27 58.5q0 31 21.5 50.5t49.5 19.5q42 0 66.5 -30t24.5 -73q0 -15 -1 -21q44 20 62 97q25 115 49 244t32 166h-100z" />
    <glyph glyph-name="ij" unicode="&#x133;" horiz-adv-x="569" 
d="M237 696q28 0 45.5 -18.5t17.5 -46.5q0 -37 -27.5 -64.5t-62.5 -27.5q-27 0 -44 18t-17 45q0 37 26.5 65.5t61.5 28.5zM181 454q35 0 54.5 -16.5t19.5 -47.5q0 -17 -4 -34l-66 -335q43 27 99 84l9 -8q-96 -110 -156 -110q-72 0 -72 70q0 13 3 30l65 333q-36 -25 -99 -88
l-10 9q100 113 157 113zM522 330q-5 -25 -14.5 -80t-15 -84.5t-15.5 -71.5t-20 -75q-13 -43 -34 -83.5t-50.5 -77.5t-71.5 -59.5t-89 -22.5q-34 0 -56.5 16t-22.5 43q0 26 17 43t42 17t45.5 -18.5t20.5 -61.5q0 -3 -0.5 -8t-0.5 -8q32 5 51 108l97 506q-33 -20 -98 -85
l-10 11q56 61 92 86.5t70 25.5t51 -19.5t17 -52.5q0 -19 -5 -49zM422 603q0 36 25.5 64t61.5 28q29 0 47 -19.5t18 -48.5q0 -36 -26.5 -63.5t-60.5 -27.5q-28 0 -46 19t-19 48z" />
    <glyph glyph-name="Jcircumflex" unicode="&#x134;" horiz-adv-x="413" 
d="M95 323l4 17h101q25 98 70.5 164.5t127.5 121.5l-2 4q-94 -62 -190 -62q-52 0 -121 24q-10 -26 -27 -97q-2 0 -6 0.5t-6 0.5q7 42 13.5 68t19.5 63t33 56t47 19q42 0 110.5 -30.5t100.5 -30.5q43 0 91 45l8 -9q-54 -44 -74.5 -106t-48.5 -231h96l-3 -17h-96
q-35 -207 -79.5 -307.5t-110.5 -155.5q-85 -71 -163 -71q-45 0 -72 22.5t-27 58.5q0 31 21.5 50.5t49.5 19.5q42 0 66.5 -30t24.5 -73q0 -15 -1 -21q44 20 62 97q25 115 49 244t32 166h-100zM468 732q-90 54 -135 80q-112 -52 -167 -79q-3 4 -7 12l144 129q4 3 10.5 9.5
t11 10.5t10 8t9 6.5t6.5 2.5q8 0 17 -11q110 -153 112 -156z" />
    <glyph glyph-name="jcircumflex" unicode="&#x135;" horiz-adv-x="279" 
d="M242 330q-5 -25 -14.5 -80t-15 -84.5t-15.5 -71.5t-20 -75q-13 -43 -34 -83.5t-50.5 -77.5t-71.5 -59.5t-89 -22.5q-34 0 -56.5 16t-22.5 43q0 26 17 43t42 17t45.5 -18.5t20.5 -61.5q0 -3 -0.5 -8t-0.5 -8q32 5 51 108l97 506q-33 -20 -98 -85l-10 11q56 61 92 86.5
t70 25.5t51 -19.5t17 -52.5q0 -19 -5 -49zM336 512l-131 91l-166 -91l-7 11l165 162q17 16 26 16q10 0 20 -16l104 -162z" />
    <glyph glyph-name="Kcommaaccent" unicode="&#x136;" horiz-adv-x="711" 
d="M319 328h-45l-37 -209q-5 -22 -5 -41q0 -31 19 -44.5t38.5 -16.5t19.5 -10q0 -2 -1 -5v-2h-320v2q0 9 8.5 12.5t21.5 7.5t27 12t27 33t20 64l74 430q5 35 5 38q0 29 -18 41t-36 15t-18 10q0 6 1 8h317q1 -13 -12 -18t-30 -6.5t-34.5 -18.5t-23.5 -50l-40 -234h52l199 194
q56 54 56 80q0 16 -17.5 23t-35 10.5t-16.5 12.5v8h245q0 -14 -13 -19.5t-35 -9t-65 -29t-90 -71.5l-122 -119l146 -315q16 -35 37 -56t36.5 -26t26 -10t10.5 -12v-7h-306v6q1 8 15.5 11.5t29 10.5t14.5 24q0 13 -8 30zM330 -40q24 0 37 -15.5t13 -40.5q0 -43 -38.5 -102.5
t-91.5 -97.5l-7 11q75 63 97 136q-15 -11 -33 -11q-20 0 -32.5 13t-12.5 33q0 28 19.5 51t48.5 23z" />
    <glyph glyph-name="kcommaaccent" unicode="&#x137;" horiz-adv-x="516" 
d="M181 227q1 0 3 -1q39 110 97.5 168.5t123.5 58.5q37 0 58.5 -22.5t21.5 -55.5q0 -46 -47 -84t-110 -60q22 -111 83 -198q22 16 82 73l9 -9q-40 -48 -80 -77.5t-89 -29.5q-47 0 -77 59t-38 146q80 30 121.5 68t41.5 78q0 20 -10.5 31.5t-27.5 11.5q-54 0 -104 -78.5
t-75 -210.5l-18 -95h-132l116 606q4 20 4 32q0 25 -16 35t-32 12t-16 8q0 5 1 9q60 8 209 29l3 -4l-52 -281q-20 -113 -50 -219zM205 -40q24 0 37 -15.5t13 -40.5q0 -43 -38.5 -102.5t-91.5 -97.5l-7 11q75 63 97 136q-15 -11 -33 -11q-20 0 -32.5 13t-12.5 33q0 28 19.5 51
t48.5 23z" />
    <glyph glyph-name="kgreenlandic" unicode="&#x138;" horiz-adv-x="562" 
d="M178 453q67 0 67 -84q0 -59 -39 -204h4q41 137 122.5 213.5t151.5 76.5q28 0 51 -17.5t23 -44.5q0 -24 -16.5 -38.5t-41.5 -14.5q-65 0 -65 88q-59 -21 -109 -82q64 -208 124 -315q16 10 42.5 34.5t40.5 40.5l9 -9q-87 -107 -165 -107q-42 0 -76.5 70.5t-53.5 165.5
q-11 -25 -21 -56t-15.5 -52t-15 -60.5t-13.5 -57.5h-130q70 369 78 413q-41 -26 -98 -85q-7 7 -9 10q96 115 155 115z" />
    <glyph glyph-name="Lacute" unicode="&#x139;" horiz-adv-x="606" 
d="M308 0h-320q-1 12 12 17.5t29.5 7.5t34 20t23.5 52l84 476q3 21 3 25q0 28 -18 40t-36.5 15.5t-18.5 10.5q0 2 0.5 5t0.5 4h319v-3q-2 -11 -16 -15.5t-30 -6.5t-32.5 -18.5t-22.5 -49.5l-86 -483q-5 -32 -5 -36q0 -44 58 -44h37q80 0 137 49.5t127 172.5q13 22 21 22
q1 0 3.5 -0.5t3.5 -0.5q-91 -264 -97 -280l-3 -1q-60 21 -208 21zM176 734q0 2 -0.5 6t-0.5 6q46 22 80 51t48.5 50.5t32 36.5t36.5 15q20 0 30.5 -13t10.5 -30q0 -7 -4.5 -18t-20 -28.5t-39.5 -32t-69.5 -27t-103.5 -16.5z" />
    <glyph glyph-name="lacute" unicode="&#x13a;" horiz-adv-x="285" 
d="M294 727q-44 -232 -134 -698q47 29 97 79l9 -10q-48 -57 -93 -82.5t-76 -25.5q-28 0 -44 16t-16 45q0 12 6 46l92 480q10 52 10 63q0 19 -10 29.5t-22.5 12t-22.5 4t-10 7.5t1 9q70 9 210 29zM110 768q0 2 -0.5 6t-0.5 6q46 22 80 51t48.5 50.5t32 36.5t36.5 15
q20 0 30.5 -13t10.5 -30q0 -7 -4.5 -18t-20 -28.5t-39.5 -32t-69.5 -27t-103.5 -16.5z" />
    <glyph glyph-name="Lcommaaccent" unicode="&#x13b;" horiz-adv-x="606" 
d="M308 0h-320q-1 12 12 17.5t29.5 7.5t34 20t23.5 52l84 476q3 21 3 25q0 28 -18 40t-36.5 15.5t-18.5 10.5q0 2 0.5 5t0.5 4h319v-3q-2 -11 -16 -15.5t-30 -6.5t-32.5 -18.5t-22.5 -49.5l-86 -483q-5 -32 -5 -36q0 -44 58 -44h37q80 0 137 49.5t127 172.5q13 22 21 22
q1 0 3.5 -0.5t3.5 -0.5q-91 -264 -97 -280l-3 -1q-60 21 -208 21zM276 -40q24 0 37 -15.5t13 -40.5q0 -43 -38.5 -102.5t-91.5 -97.5l-7 11q75 63 97 136q-15 -11 -33 -11q-20 0 -32.5 13t-12.5 33q0 28 19.5 51t48.5 23z" />
    <glyph glyph-name="lcommaaccent" unicode="&#x13c;" horiz-adv-x="285" 
d="M294 727q-44 -232 -134 -698q47 29 97 79l9 -10q-48 -57 -93 -82.5t-76 -25.5q-28 0 -44 16t-16 45q0 12 6 46l92 480q10 52 10 63q0 19 -10 29.5t-22.5 12t-22.5 4t-10 7.5t1 9q70 9 210 29zM80 -40q24 0 37 -15.5t13 -40.5q0 -43 -38.5 -102.5t-91.5 -97.5l-7 11
q75 63 97 136q-15 -11 -33 -11q-20 0 -32.5 13t-12.5 33q0 28 19.5 51t48.5 23z" />
    <glyph glyph-name="Lcaron" unicode="&#x13d;" horiz-adv-x="606" 
d="M308 0h-320q-1 12 12 17.5t29.5 7.5t34 20t23.5 52l84 476q3 21 3 25q0 28 -18 40t-36.5 15.5t-18.5 10.5q0 2 0.5 5t0.5 4h319v-3q-2 -11 -16 -15.5t-30 -6.5t-32.5 -18.5t-22.5 -49.5l-86 -483q-5 -32 -5 -36q0 -44 58 -44h37q80 0 137 49.5t127 172.5q13 22 21 22
q1 0 3.5 -0.5t3.5 -0.5q-91 -264 -97 -280l-3 -1q-60 21 -208 21zM539 693q24 0 37 -15.5t13 -40.5q0 -43 -38.5 -102.5t-91.5 -97.5l-7 11q75 63 97 136q-15 -11 -33 -11q-20 0 -32.5 13t-12.5 33q0 28 19.5 51t48.5 23z" />
    <glyph glyph-name="lcaron" unicode="&#x13e;" horiz-adv-x="314" 
d="M296 727q-44 -232 -134 -698q47 29 97 79l9 -10q-48 -57 -93 -82.5t-76 -25.5q-28 0 -44 16t-16 45q0 12 6 46l92 480q10 52 10 63q0 19 -10 29.5t-22.5 12t-22.5 4t-10 7.5t1 9q70 9 210 29zM399 743q24 0 37 -15.5t13 -40.5q0 -43 -38.5 -102.5t-91.5 -97.5l-7 11
q75 63 97 136q-15 -11 -33 -11q-20 0 -32.5 13t-12.5 33q0 28 19.5 51t48.5 23z" />
    <glyph glyph-name="Ldot" unicode="&#x13f;" horiz-adv-x="606" 
d="M308 0h-320q-1 12 12 17.5t29.5 7.5t34 20t23.5 52l84 476q3 21 3 25q0 28 -18 40t-36.5 15.5t-18.5 10.5q0 2 0.5 5t0.5 4h319v-3q-2 -11 -16 -15.5t-30 -6.5t-32.5 -18.5t-22.5 -49.5l-86 -483q-5 -32 -5 -36q0 -44 58 -44h37q80 0 137 49.5t127 172.5q13 22 21 22
q1 0 3.5 -0.5t3.5 -0.5q-91 -264 -97 -280l-3 -1q-60 21 -208 21zM475 435q25 0 40.5 -17.5t15.5 -43.5q0 -36 -25.5 -62.5t-58.5 -26.5q-25 0 -41 17t-16 43q0 35 26 62.5t59 27.5z" />
    <glyph glyph-name="ldot" unicode="&#x140;" horiz-adv-x="402" 
d="M296 727q-44 -232 -134 -698q47 29 97 79l9 -10q-48 -57 -93 -82.5t-76 -25.5q-28 0 -44 16t-16 45q0 12 6 46l92 480q10 52 10 63q0 19 -10 29.5t-22.5 12t-22.5 4t-10 7.5t1 9q70 9 210 29zM363 431q25 0 40.5 -17.5t15.5 -43.5q0 -36 -25.5 -62.5t-58.5 -26.5
q-25 0 -41 17t-16 43q0 35 26 62.5t59 27.5z" />
    <glyph glyph-name="Lslash" unicode="&#x141;" horiz-adv-x="606" 
d="M288 17h30q89 0 143 47t131 184q9 14 17 14q1 0 3 -0.5t3 -0.5l-94 -283q-75 22 -200 22h-333q0 10 9 14t22.5 7t28 11t27.5 33t19 66l24 138l-105 -56q-2 8 -5 14l113 61l50 285q3 21 3 25q0 28 -18 40t-36.5 15.5t-18.5 10.5q0 2 0.5 5t0.5 4h319v-2q0 -11 -13.5 -15.5
t-30.5 -6.5t-34 -19t-23 -50l-36 -206q23 13 66 35.5t56 29.5l6 -14q-14 -8 -60 -32.5t-71 -38.5l-46 -263q-3 -13 -3 -31q0 -43 56 -43z" />
    <glyph glyph-name="lslash" unicode="&#x142;" horiz-adv-x="285" 
d="M294 726l-69 -356q14 7 41 21.5t41 21.5q4 -10 5 -15l-90 -48q-27 -142 -62 -321q47 29 97 79l9 -10q-48 -55 -92.5 -82t-74.5 -27q-31 0 -46 15.5t-15 50.5q0 10 1 16q5 39 20.5 117.5t16.5 86.5l-78 -42l-4 15q16 9 46.5 25.5t39.5 21.5l63 326q2 12 2 17
q0 25 -16.5 35t-32.5 12t-16 8q0 5 1 9q79 10 209 29z" />
    <glyph glyph-name="Nacute" unicode="&#x143;" horiz-adv-x="715" 
d="M335 674q33 -65 115.5 -222t124.5 -241l2 1l51 298q6 30 6 59q0 33 -14 52.5t-31 23.5t-31 7.5t-14 10.5q0 8 1 10h233q0 -11 -7.5 -16.5t-19.5 -6.5t-27 -8t-29.5 -18.5t-27.5 -40.5t-21 -72l-90 -518l-50 -3l-309 600h-2l-77 -448q-3 -15 -3 -39q0 -33 14 -52.5
t31.5 -23.5t31.5 -8t14 -11q0 -2 -0.5 -4.5t-0.5 -3.5h-231v6q1 9 17.5 14t37.5 10.5t43 36t31 84.5l69 410q5 25 5 34q0 23 -12 36t-26 16t-26 7.5t-12 12.5v7h234zM353 734q0 2 -0.5 6t-0.5 6q46 22 80 51t48.5 50.5t32 36.5t36.5 15q20 0 30.5 -13t10.5 -30
q0 -7 -4.5 -18t-20 -28.5t-39.5 -32t-69.5 -27t-103.5 -16.5z" />
    <glyph glyph-name="nacute" unicode="&#x144;" horiz-adv-x="579" 
d="M176 454q35 0 53.5 -17.5t18.5 -47.5q0 -17 -12.5 -80.5t-28.5 -120.5l3 -1q50 141 109 203.5t108 62.5q89 0 89 -91q0 -22 -6 -56l-58 -278q20 12 49 35.5t47 43.5l9 -10q-96 -110 -158 -110q-70 0 -70 66q0 18 7 51l45 200q8 36 8 54q0 35 -27 35q-37 0 -92.5 -106
t-77.5 -225l-12 -62h-129l77 414q-43 -27 -98 -86l-10 11q97 115 156 115zM240 511l-4 12q40 27 70 62t43 59t30 41.5t38 17.5t31.5 -12.5t9.5 -29.5q-1 -11 -11.5 -27.5t-32.5 -39t-68 -45t-106 -38.5z" />
    <glyph glyph-name="Ncommaaccent" unicode="&#x145;" horiz-adv-x="715" 
d="M335 674q33 -65 115.5 -222t124.5 -241l2 1l51 298q6 30 6 59q0 33 -14 52.5t-31 23.5t-31 7.5t-14 10.5q0 8 1 10h233q0 -11 -7.5 -16.5t-19.5 -6.5t-27 -8t-29.5 -18.5t-27.5 -40.5t-21 -72l-90 -518l-50 -3l-309 600h-2l-77 -448q-3 -15 -3 -39q0 -33 14 -52.5
t31.5 -23.5t31.5 -8t14 -11q0 -2 -0.5 -4.5t-0.5 -3.5h-231v6q1 9 17.5 14t37.5 10.5t43 36t31 84.5l69 410q5 25 5 34q0 23 -12 36t-26 16t-26 7.5t-12 12.5v7h234zM310 -20q24 0 37 -15.5t13 -40.5q0 -43 -38.5 -102.5t-91.5 -97.5l-7 11q75 63 97 136q-15 -11 -33 -11
q-20 0 -32.5 13t-12.5 33q0 28 19.5 51t48.5 23z" />
    <glyph glyph-name="ncommaaccent" unicode="&#x146;" horiz-adv-x="579" 
d="M176 454q35 0 53.5 -17.5t18.5 -47.5q0 -17 -12.5 -80.5t-28.5 -120.5l3 -1q50 141 109 203.5t108 62.5q89 0 89 -91q0 -22 -6 -56l-58 -278q20 12 49 35.5t47 43.5l9 -10q-96 -110 -158 -110q-70 0 -70 66q0 18 7 51l45 200q8 36 8 54q0 35 -27 35q-37 0 -92.5 -106
t-77.5 -225l-12 -62h-129l77 414q-43 -27 -98 -86l-10 11q97 115 156 115zM257 -40q24 0 37 -15.5t13 -40.5q0 -43 -38.5 -102.5t-91.5 -97.5l-7 11q75 63 97 136q-15 -11 -33 -11q-20 0 -32.5 13t-12.5 33q0 28 19.5 51t48.5 23z" />
    <glyph glyph-name="Ncaron" unicode="&#x147;" horiz-adv-x="715" 
d="M335 674q33 -65 115.5 -222t124.5 -241l2 1l51 298q6 30 6 59q0 33 -14 52.5t-31 23.5t-31 7.5t-14 10.5q0 8 1 10h233q0 -11 -7.5 -16.5t-19.5 -6.5t-27 -8t-29.5 -18.5t-27.5 -40.5t-21 -72l-90 -518l-50 -3l-309 600h-2l-77 -448q-3 -15 -3 -39q0 -33 14 -52.5
t31.5 -23.5t31.5 -8t14 -11q0 -2 -0.5 -4.5t-0.5 -3.5h-231v6q1 9 17.5 14t37.5 10.5t43 36t31 84.5l69 410q5 25 5 34q0 23 -12 36t-26 16t-26 7.5t-12 12.5v7h234zM461 823l165 83l7 -11l-170 -159q-13 -10 -19 -10q-8 0 -16 11l-116 157l12 12z" />
    <glyph glyph-name="ncaron" unicode="&#x148;" horiz-adv-x="579" 
d="M176 454q35 0 53.5 -17.5t18.5 -47.5q0 -17 -12.5 -80.5t-28.5 -120.5l3 -1q50 141 109 203.5t108 62.5q89 0 89 -91q0 -22 -6 -56l-58 -278q20 12 49 35.5t47 43.5l9 -10q-96 -110 -158 -110q-70 0 -70 66q0 18 7 51l45 200q8 36 8 54q0 35 -27 35q-37 0 -92.5 -106
t-77.5 -225l-12 -62h-129l77 414q-43 -27 -98 -86l-10 11q97 115 156 115zM323 605l162 93l7 -11l-160 -163q-16 -16 -25 -16t-21 17l-110 162l12 12z" />
    <glyph glyph-name="napostrophe" unicode="&#x149;" horiz-adv-x="593" 
d="M189 454q35 0 53.5 -17.5t18.5 -47.5q0 -17 -12.5 -80.5t-28.5 -120.5l3 -1q50 141 109 203.5t108 62.5q89 0 89 -91q0 -22 -6 -56l-58 -278q20 12 49 35.5t47 43.5l9 -10q-96 -110 -158 -110q-70 0 -70 66q0 18 7 51l45 200q8 36 8 54q0 35 -27 35q-37 0 -92.5 -106
t-77.5 -225l-12 -62h-129l77 414q-43 -27 -98 -86l-10 11q97 115 156 115zM108 704q24 0 37 -15.5t13 -40.5q0 -43 -38.5 -102.5t-91.5 -97.5l-7 11q75 63 97 136q-15 -11 -33 -11q-20 0 -32.5 13t-12.5 33q0 28 19.5 51t48.5 23z" />
    <glyph glyph-name="Eng" unicode="&#x14a;" horiz-adv-x="716" 
d="M331 674q37 -70 121 -219.5t126 -227.5l1 1l52 301q3 22 3 40q0 33 -14 52.5t-31 23.5t-31 7.5t-14 10.5q0 8 1 10h233q0 -13 -11 -18t-27.5 -9t-34 -13.5t-34 -40t-25.5 -81.5l-82 -475q-20 -118 -43 -170q-55 -123 -176 -123q-29 0 -56 18t-27 52q0 29 19.5 48.5
t50.5 19.5q36 0 56.5 -30.5t23.5 -78.5q51 18 82 77.5t43 137.5l-340 603h-2l-75 -434q-5 -25 -5 -53q0 -33 14 -52.5t31.5 -23.5t31.5 -8t14 -11q0 -2 -0.5 -4.5t-0.5 -3.5h-231v6q1 7 17.5 11.5t37.5 11t43 37.5t31 85l70 410q4 20 4 34q0 19 -7 30q-10 15 -27.5 21
t-29.5 8.5t-12 9.5v10h230z" />
    <glyph glyph-name="eng" unicode="&#x14b;" horiz-adv-x="554" 
d="M302 -102l76 376q11 58 11 82q0 35 -26 35q-35 0 -92 -103t-78 -217l-13 -71h-130l78 413q-44 -28 -99 -85l-9 10q93 113 159 113q33 0 50.5 -17t17.5 -45q0 -18 -12 -81t-28 -121h3q49 140 109.5 202.5t108.5 62.5q88 0 88 -99q0 -21 -5 -48l-42 -228
q-25 -140 -128 -230q-72 -62 -151 -62q-32 0 -53.5 18t-21.5 42t16 38t39 14q26 0 48 -21.5t22 -68.5q18 3 35.5 25.5t26.5 65.5z" />
    <glyph glyph-name="Omacron" unicode="&#x14c;" horiz-adv-x="718" 
d="M436 686q133 0 200.5 -76.5t67.5 -196.5q0 -79 -28 -155t-77 -136.5t-123 -97.5t-160 -37q-131 0 -198 75.5t-67 195.5q0 112 48.5 209.5t137.5 158t199 60.5zM434 669q-54 0 -99 -55.5t-71.5 -137t-41 -163.5t-14.5 -145q0 -164 115 -164q53 0 98 53t71.5 132.5
t41 162.5t14.5 152q0 165 -114 165zM614 838l-17 -81q-115 11 -284 0l12 63q77 13 289 18z" />
    <glyph glyph-name="omacron" unicode="&#x14d;" 
d="M308 453q99 0 147 -50.5t48 -131.5q0 -111 -81 -197.5t-207 -86.5q-95 0 -139.5 49.5t-44.5 130.5q0 117 78 201.5t199 84.5zM306 436q-41 0 -75 -56.5t-50.5 -131t-16.5 -142.5q0 -103 58 -103q36 0 66 36t47.5 89t27 106t9.5 95q0 107 -66 107zM482 632l-16 -80
q-113 11 -279 0l13 62q77 13 282 18z" />
    <glyph glyph-name="Obreve" unicode="&#x14e;" horiz-adv-x="718" 
d="M436 686q133 0 200.5 -76.5t67.5 -196.5q0 -79 -28 -155t-77 -136.5t-123 -97.5t-160 -37q-131 0 -198 75.5t-67 195.5q0 112 48.5 209.5t137.5 158t199 60.5zM434 669q-54 0 -99 -55.5t-71.5 -137t-41 -163.5t-14.5 -145q0 -164 115 -164q53 0 98 53t71.5 132.5
t41 162.5t14.5 152q0 165 -114 165zM466 729q-59 0 -90.5 43t-29.5 116l13 4q28 -90 119 -90q89 0 153 91l11 -3q-30 -82 -77 -121.5t-99 -39.5z" />
    <glyph glyph-name="obreve" unicode="&#x14f;" 
d="M308 453q99 0 147 -50.5t48 -131.5q0 -111 -81 -197.5t-207 -86.5q-95 0 -139.5 49.5t-44.5 130.5q0 117 78 201.5t199 84.5zM306 436q-41 0 -75 -56.5t-50.5 -131t-16.5 -142.5q0 -103 58 -103q36 0 66 36t47.5 89t27 106t9.5 95q0 107 -66 107zM334 513
q-61 0 -92.5 46.5t-26.5 124.5l14 4q28 -99 117 -99q84 0 153 95l12 -4q-30 -84 -77.5 -125.5t-99.5 -41.5z" />
    <glyph glyph-name="Ohungarumlaut" unicode="&#x150;" horiz-adv-x="718" 
d="M436 686q133 0 200.5 -76.5t67.5 -196.5q0 -79 -28 -155t-77 -136.5t-123 -97.5t-160 -37q-131 0 -198 75.5t-67 195.5q0 112 48.5 209.5t137.5 158t199 60.5zM434 669q-54 0 -99 -55.5t-71.5 -137t-41 -163.5t-14.5 -145q0 -164 115 -164q53 0 98 53t71.5 132.5
t41 162.5t14.5 152q0 165 -114 165zM303 731q-2 6 -2 12q44 22 79 51t51 50.5t34.5 37t37.5 15.5t29 -11.5t10 -27.5q0 -5 -5 -16t-21.5 -29t-41 -34t-69.5 -29.5t-102 -18.5zM471 732q-1 5 -1 13q45 21 79.5 50.5t50.5 51.5t34 37.5t37 15.5t29.5 -12.5t10.5 -28.5
q0 -5 -5.5 -16.5t-22.5 -29t-42 -33.5t-70 -29.5t-100 -18.5z" />
    <glyph glyph-name="ohungarumlaut" unicode="&#x151;" 
d="M308 453q99 0 147 -50.5t48 -131.5q0 -111 -81 -197.5t-207 -86.5q-95 0 -139.5 49.5t-44.5 130.5q0 117 78 201.5t199 84.5zM306 436q-41 0 -75 -56.5t-50.5 -131t-16.5 -142.5q0 -103 58 -103q36 0 66 36t47.5 89t27 106t9.5 95q0 107 -66 107zM186 516q0 2 -0.5 7
t-0.5 7q45 26 78.5 59t48 56t31.5 39t36 16t28.5 -11t9.5 -27q0 -5 -4.5 -16t-20.5 -30t-39.5 -37t-67.5 -35.5t-99 -27.5zM344 515q-2 10 -2 14q45 26 79 59t48 56t31 39t37 16q18 0 27.5 -11t9.5 -27q0 -6 -5 -17.5t-21 -30.5t-40 -37t-67 -35t-97 -26z" />
    <glyph glyph-name="OE" unicode="&#x152;" horiz-adv-x="977" 
d="M420 0q-72 -12 -104 -12q-132 0 -199 74.5t-67 194.5q0 175 110 302t277 127q23 0 65 -5.5t55 -6.5h165q170 0 244 30q2 0 3 -1l-16 -244q-2 -1 -6 -1q-7 0 -13 22q-11 43 -17.5 66t-18 46t-22.5 32.5t-31.5 18t-45 10.5t-63.5 2h-57l-51 -294h71q31 0 53.5 13.5
t34.5 32.5t19.5 38.5t14 33t12.5 13.5h5l-49 -287h-5q-8 0 -10 21.5t-2 48t-18 48t-55 21.5h-74l-45 -260q-3 -18 -3 -23q0 -44 57 -44h45q81 0 138 50t127 172q13 22 21 22q1 0 3.5 -0.5t3.5 -0.5q-78 -228 -98 -281q-60 21 -219 21h-235zM439 105l75 436q8 43 8 57
q0 66 -75 66q-70 0 -126 -77.5t-82.5 -183t-26.5 -208.5q0 -89 27 -141t84 -52q44 0 75.5 26t40.5 77z" />
    <glyph glyph-name="oe" unicode="&#x153;" horiz-adv-x="794" 
d="M531 -12q-98 0 -135 77q-74 -77 -182 -77q-95 0 -139 49t-44 129q0 117 78 201.5t198 84.5q101 0 152 -82q72 80 181 80q66 0 100 -26.5t34 -73.5q0 -68 -80 -110.5t-199 -54.5q0 -155 95 -155q73 0 146 72l8 -9q-91 -105 -213 -105zM305 435q-32 0 -59.5 -32t-45 -81.5
t-27 -106.5t-9.5 -109q0 -104 58 -104q36 0 66 34t47 85t26.5 104t9.5 98q0 112 -66 112zM497 205q81 11 124 62.5t43 114.5q0 52 -41 52q-45 0 -79.5 -65.5t-46.5 -163.5z" />
    <glyph glyph-name="Racute" unicode="&#x154;" horiz-adv-x="668" 
d="M329 655q-43 -248 -55 -317h37q76 0 125 56t49 142q0 58 -32 88.5t-87 30.5h-37zM272 321q-15 -83 -37 -212q-4 -20 -4 -31q0 -25 13 -39t29 -16.5t29 -6t13 -9.5q0 -2 -0.5 -4t-0.5 -3h-326v6q1 7 14 11t29.5 7.5t33 23t22.5 53.5l82 478q2 14 2 20q0 28 -18 40t-36 15
t-18 10q0 5 1 9h334q95 0 151 -38t56 -112q0 -92 -79.5 -148.5t-207.5 -56.5q-7 0 -18.5 0.5t-16.5 0.5q15 -27 55.5 -40t84.5 -13q15 0 22 1l77 -178q14 -32 38.5 -48t41.5 -21t17 -13v-7h-212l-144 321h-27zM294 734q0 2 -0.5 6t-0.5 6q46 22 80 51t48.5 50.5t32 36.5
t36.5 15q20 0 30.5 -13t10.5 -30q0 -7 -4.5 -18t-20 -28.5t-39.5 -32t-69.5 -27t-103.5 -16.5z" />
    <glyph glyph-name="racute" unicode="&#x155;" horiz-adv-x="445" 
d="M176 454q71 0 71 -67q0 -39 -43 -199l3 -1q86 264 197 264q31 0 51.5 -16.5t20.5 -42.5t-17 -41.5t-41 -15.5q-31 0 -50.5 21.5t-16.5 56.5q-40 -26 -89 -131.5t-73 -231.5l-10 -50h-129l78 413q-43 -26 -98 -85l-9 11q97 115 155 115zM183 511l-4 12q40 27 70 62t43 59
t30 41.5t38 17.5q20 0 31 -12.5t10 -29.5q-1 -11 -11.5 -27.5t-32.5 -39t-68 -45t-106 -38.5z" />
    <glyph glyph-name="Rcommaaccent" unicode="&#x156;" horiz-adv-x="668" 
d="M329 655q-43 -248 -55 -317h37q76 0 125 56t49 142q0 58 -32 88.5t-87 30.5h-37zM272 321q-15 -83 -37 -212q-4 -20 -4 -31q0 -25 13 -39t29 -16.5t29 -6t13 -9.5q0 -2 -0.5 -4t-0.5 -3h-326v6q1 7 14 11t29.5 7.5t33 23t22.5 53.5l82 478q2 14 2 20q0 28 -18 40t-36 15
t-18 10q0 5 1 9h334q95 0 151 -38t56 -112q0 -92 -79.5 -148.5t-207.5 -56.5q-7 0 -18.5 0.5t-16.5 0.5q15 -27 55.5 -40t84.5 -13q15 0 22 1l77 -178q14 -32 38.5 -48t41.5 -21t17 -13v-7h-212l-144 321h-27zM338 -34q24 0 37 -15.5t13 -40.5q0 -43 -38.5 -102.5
t-91.5 -97.5l-7 11q75 63 97 136q-15 -11 -33 -11q-20 0 -32.5 13t-12.5 33q0 28 19.5 51t48.5 23z" />
    <glyph glyph-name="rcommaaccent" unicode="&#x157;" horiz-adv-x="445" 
d="M176 454q71 0 71 -67q0 -39 -43 -199l3 -1q86 264 197 264q31 0 51.5 -16.5t20.5 -42.5t-17 -41.5t-41 -15.5q-31 0 -50.5 21.5t-16.5 56.5q-40 -26 -89 -131.5t-73 -231.5l-10 -50h-129l78 413q-43 -26 -98 -85l-9 11q97 115 155 115zM99 -40q24 0 37 -15.5t13 -40.5
q0 -43 -38.5 -102.5t-91.5 -97.5l-7 11q75 63 97 136q-15 -11 -33 -11q-20 0 -32.5 13t-12.5 33q0 28 19.5 51t48.5 23z" />
    <glyph glyph-name="Rcaron" unicode="&#x158;" horiz-adv-x="668" 
d="M272 321q-15 -83 -37 -212q-4 -20 -4 -31q0 -25 13 -39t29 -16.5t29 -6t13 -9.5q0 -2 -0.5 -4t-0.5 -3h-326v6q1 7 14 11t29.5 7.5t33 23t22.5 53.5l82 478q2 14 2 20q0 28 -18 40t-36 15t-18 10q0 5 1 9h334q95 0 151 -38t56 -112q0 -92 -79.5 -148.5t-207.5 -56.5
q-7 0 -18.5 0.5t-16.5 0.5q15 -27 55.5 -40t84.5 -13q15 0 22 1l77 -178q14 -32 38.5 -48t41.5 -21t17 -13v-7h-212l-144 321h-27zM329 655q-43 -248 -55 -317h37q76 0 125 56t49 142q0 58 -32 88.5t-87 30.5h-37zM391 823l165 83l7 -11l-170 -159q-13 -10 -19 -10
q-8 0 -16 11l-116 157l12 12z" />
    <glyph glyph-name="rcaron" unicode="&#x159;" horiz-adv-x="445" 
d="M176 454q71 0 71 -67q0 -39 -43 -199l3 -1q86 264 197 264q31 0 51.5 -16.5t20.5 -42.5t-17 -41.5t-41 -15.5q-31 0 -50.5 21.5t-16.5 56.5q-40 -26 -89 -131.5t-73 -231.5l-10 -50h-129l78 413q-43 -26 -98 -85l-9 11q97 115 155 115zM256 605l162 93l7 -11l-160 -163
q-16 -16 -25 -16t-21 17l-110 162l12 12z" />
    <glyph glyph-name="Sacute" unicode="&#x15a;" horiz-adv-x="564" 
d="M218 -12q-97 0 -154 36.5t-57 88.5q0 38 21 58t50 20q31 0 50 -23t19 -54q0 -55 -32 -91q35 -18 90 -18q80 0 132 37.5t52 105.5q0 38 -30 72t-72.5 61t-85 55t-72.5 66t-30 82q0 67 42.5 115t100.5 67.5t122 19.5q97 0 149.5 -34t52.5 -85q0 -32 -19 -51t-46 -19
q-33 0 -50 20.5t-17 52.5q0 50 29 84q-31 13 -80 13q-59 0 -98 -33t-39 -79q0 -34 30.5 -65t73.5 -57.5t86.5 -56t74 -72t30.5 -93.5q0 -105 -93 -164t-230 -59zM275 734q0 2 -0.5 6t-0.5 6q46 22 80 51t48.5 50.5t32 36.5t36.5 15q20 0 30.5 -13t10.5 -30q0 -7 -4.5 -18
t-20 -28.5t-39.5 -32t-69.5 -27t-103.5 -16.5z" />
    <glyph glyph-name="sacute" unicode="&#x15b;" horiz-adv-x="433" 
d="M264 452q68 0 108 -26t40 -66q0 -28 -16 -43t-36 -15q-27 0 -41 17.5t-14 42.5q0 37 23 65q-24 8 -51 8q-35 0 -62 -18t-27 -56q0 -27 31 -53.5t68.5 -46.5t68.5 -54t31 -74q0 -69 -63 -107.5t-155 -38.5q-78 0 -118 27.5t-40 66.5q0 29 16 43.5t35 14.5q26 0 40 -17
t14 -42q0 -40 -23 -66q24 -11 66 -11t72 22.5t30 58.5q0 29 -30 56.5t-66.5 47t-66.5 51t-30 67.5q0 71 58.5 108.5t137.5 37.5zM175 511l-4 12q40 27 70 62t43 59t30 41.5t38 17.5q20 0 31 -12.5t10 -29.5q-1 -11 -11.5 -27.5t-32.5 -39t-68 -45t-106 -38.5z" />
    <glyph glyph-name="Scircumflex" unicode="&#x15c;" horiz-adv-x="564" 
d="M218 -12q-97 0 -154 36.5t-57 88.5q0 38 21 58t50 20q31 0 50 -23t19 -54q0 -55 -32 -91q35 -18 90 -18q80 0 132 37.5t52 105.5q0 38 -30 72t-72.5 61t-85 55t-72.5 66t-30 82q0 67 42.5 115t100.5 67.5t122 19.5q97 0 149.5 -34t52.5 -85q0 -32 -19 -51t-46 -19
q-33 0 -50 20.5t-17 52.5q0 50 29 84q-31 13 -80 13q-59 0 -98 -33t-39 -79q0 -34 30.5 -65t73.5 -57.5t86.5 -56t74 -72t30.5 -93.5q0 -105 -93 -164t-230 -59zM501 730q-90 54 -135 80q-112 -52 -167 -79q-3 4 -7 12l144 129q4 3 10.5 9.5t11 10.5t10 8t9 6.5t6.5 2.5
q8 0 17 -11q110 -153 112 -156z" />
    <glyph glyph-name="scircumflex" unicode="&#x15d;" horiz-adv-x="433" 
d="M264 452q68 0 108 -26t40 -66q0 -28 -16 -43t-36 -15q-27 0 -41 17.5t-14 42.5q0 37 23 65q-24 8 -51 8q-35 0 -62 -18t-27 -56q0 -27 31 -53.5t68.5 -46.5t68.5 -54t31 -74q0 -69 -63 -107.5t-155 -38.5q-78 0 -118 27.5t-40 66.5q0 29 16 43.5t35 14.5q26 0 40 -17
t14 -42q0 -40 -23 -66q24 -11 66 -11t72 22.5t30 58.5q0 29 -30 56.5t-66.5 47t-66.5 51t-30 67.5q0 71 58.5 108.5t137.5 37.5zM397 512l-131 91l-166 -91l-7 11l165 162q17 16 26 16q10 0 20 -16l104 -162z" />
    <glyph glyph-name="Scedilla" unicode="&#x15e;" horiz-adv-x="571" 
d="M218 -12h-1l-32 -57q68 -1 107.5 -22.5t39.5 -60.5q0 -45 -50.5 -78.5t-137.5 -33.5q-29 0 -47 2q3 14 3 15q64 0 100.5 24t36.5 60q0 49 -87 57l53 94q-91 3 -143.5 39t-52.5 86q0 38 21 58t50 20q31 0 50 -23t19 -54q0 -55 -32 -91q35 -18 90 -18q80 0 132 37.5
t52 105.5q0 38 -30 72t-72.5 61t-85 55t-72.5 66t-30 82q0 67 42.5 115t100.5 67.5t122 19.5q97 0 149.5 -34t52.5 -85q0 -32 -19 -51t-46 -19q-33 0 -50 20.5t-17 52.5q0 50 29 84q-31 13 -80 13q-59 0 -98 -33t-39 -79q0 -34 30.5 -65t73.5 -57.5t86.5 -56t74 -72
t30.5 -93.5q0 -105 -93 -164t-230 -59z" />
    <glyph glyph-name="scedilla" unicode="&#x15f;" horiz-adv-x="433" 
d="M264 452q68 0 108 -26t40 -66q0 -28 -16 -43t-36 -15q-27 0 -41 17.5t-14 42.5q0 37 23 65q-24 8 -51 8q-35 0 -62 -18t-27 -56q0 -27 31 -53.5t68.5 -46.5t68.5 -54t31 -74q0 -69 -63 -107.5t-155 -38.5h-1l-32 -58q68 -1 107.5 -22.5t39.5 -60.5q0 -45 -50.5 -78.5
t-137.5 -33.5q-29 0 -47 2q3 14 3 15q64 0 100.5 24t36.5 60q0 49 -87 57l54 96q-71 3 -107.5 29.5t-36.5 63.5q0 29 16 43.5t35 14.5q26 0 40 -17t14 -42q0 -40 -23 -66q24 -11 66 -11t72 22.5t30 58.5q0 29 -30 56.5t-66.5 47t-66.5 51t-30 67.5q0 71 58.5 108.5
t137.5 37.5z" />
    <glyph glyph-name="Scaron" unicode="&#x160;" horiz-adv-x="564" 
d="M218 -12q-97 0 -154 36.5t-57 88.5q0 38 21 58t50 20q31 0 50 -23t19 -54q0 -55 -32 -91q35 -18 90 -18q80 0 132 37.5t52 105.5q0 38 -30 72t-72.5 61t-85 55t-72.5 66t-30 82q0 67 42.5 115t100.5 67.5t122 19.5q97 0 149.5 -34t52.5 -85q0 -32 -19 -51t-46 -19
q-33 0 -50 20.5t-17 52.5q0 50 29 84q-31 13 -80 13q-59 0 -98 -33t-39 -79q0 -34 30.5 -65t73.5 -57.5t86.5 -56t74 -72t30.5 -93.5q0 -105 -93 -164t-230 -59zM365 823l165 83l7 -11l-170 -159q-13 -10 -19 -10q-8 0 -16 11l-116 157l12 12z" />
    <glyph glyph-name="scaron" unicode="&#x161;" horiz-adv-x="433" 
d="M264 452q68 0 108 -26t40 -66q0 -28 -16 -43t-36 -15q-27 0 -41 17.5t-14 42.5q0 37 23 65q-24 8 -51 8q-35 0 -62 -18t-27 -56q0 -27 31 -53.5t68.5 -46.5t68.5 -54t31 -74q0 -69 -63 -107.5t-155 -38.5q-78 0 -118 27.5t-40 66.5q0 29 16 43.5t35 14.5q26 0 40 -17
t14 -42q0 -40 -23 -66q24 -11 66 -11t72 22.5t30 58.5q0 29 -30 56.5t-66.5 47t-66.5 51t-30 67.5q0 71 58.5 108.5t137.5 37.5zM280 605l162 93l7 -11l-160 -163q-16 -16 -25 -16t-21 17l-110 162l12 12z" />
    <glyph glyph-name="Tcommaaccent" unicode="&#x162;" horiz-adv-x="608" 
d="M104 697l3 1q76 -24 184 -24h141q151 0 223 23l3 -1q-2 -35 -15 -247h-3q-10 0 -14 18q-21 102 -51.5 145.5t-97.5 43.5h-30l-96 -556q-6 -33 4.5 -51t26.5 -21.5t30 -8t14 -12.5l-1 -7h-157l-32 -57q68 -1 107.5 -22.5t39.5 -60.5q0 -45 -50.5 -78.5t-137.5 -33.5
q-29 0 -47 2q3 14 3 15q64 0 100.5 24t36.5 60q0 49 -87 57l53 94h-151l1 7q1 8 15 12.5t30 8t32.5 21t21.5 48.5l98 559h-29q-60 0 -108.5 -44t-97.5 -142q-10 -21 -21 -19l-4 1z" />
    <glyph glyph-name="tcommaaccent" unicode="&#x163;" horiz-adv-x="305" 
d="M39 55q0 21 7 58q32 164 59 305h-60q0 7 2 17h62q102 34 146 158h13q-2 -10 -30 -157h110l-3 -18h-110l-74 -389q48 29 100 81l9 -9q-47 -56 -92 -84t-77 -28q-9 0 -13 1l-27 -49q68 -1 107.5 -22.5t39.5 -60.5q0 -45 -50.5 -78.5t-137.5 -33.5q-29 0 -47 2q3 14 3 15
q64 0 100.5 24t36.5 60q0 49 -87 57l50 88q-37 11 -37 63z" />
    <glyph glyph-name="Tcaron" unicode="&#x164;" horiz-adv-x="608" 
d="M104 697l3 1q76 -24 184 -24h141q151 0 223 23l3 -1q-2 -35 -15 -247h-3q-10 0 -14 18q-21 102 -51.5 145.5t-97.5 43.5h-30l-96 -556q-6 -33 4.5 -51t26.5 -21.5t30 -8t14 -12.5l-1 -7h-322l1 7q1 8 15 12.5t30 8t32.5 21t21.5 48.5l98 559h-29q-60 0 -108.5 -44
t-97.5 -142q-10 -21 -21 -19l-4 1zM403 823l165 83l7 -11l-170 -159q-13 -10 -19 -10q-8 0 -16 11l-116 157l12 12z" />
    <glyph glyph-name="tcaron" unicode="&#x165;" horiz-adv-x="328" 
d="M39 55q0 21 7 58q32 164 59 305h-60q0 7 2 17h62q102 34 146 158h13q-2 -10 -30 -157h110l-3 -18h-110l-74 -389q48 29 100 81l9 -9q-47 -56 -92 -84t-77 -28q-31 0 -46.5 14.5t-15.5 51.5zM396 744q24 0 37 -15.5t13 -40.5q0 -43 -38.5 -102.5t-91.5 -97.5l-7 11
q75 63 97 136q-15 -11 -33 -11q-20 0 -32.5 13t-12.5 33q0 28 19.5 51t48.5 23z" />
    <glyph glyph-name="Tbar" unicode="&#x166;" horiz-adv-x="608" 
d="M202 97l45 259h-136q0 3 0.5 5.5t1.5 6t1 5.5h136l50 283h-29q-60 0 -108.5 -44t-97.5 -142q-10 -21 -21 -19l-4 1l63 246q88 -24 187 -24h141q155 0 226 24q-3 -39 -15 -249h-3q-10 0 -14 18q-21 102 -51.5 145.5t-97.5 43.5h-30l-49 -283h133q0 -3 -0.5 -5.5t-1.5 -6
t-1 -5.5h-133l-44 -256q-6 -33 4.5 -51t26.5 -21.5t30 -8t14 -12.5l-1 -7h-322l1 7q1 8 15 12.5t30 8t32.5 21t21.5 48.5z" />
    <glyph glyph-name="tbar" unicode="&#x167;" horiz-adv-x="305" 
d="M39 55q0 21 7 58l31 157h-54l3 17h54q9 43 25 131h-60q0 7 2 17h62q102 34 146 158h13q-2 -10 -30 -157h110l-3 -18h-110l-25 -131h111l-3 -17h-111l-46 -241q48 29 100 81l9 -9q-47 -56 -92 -84t-77 -28q-31 0 -46.5 14.5t-15.5 51.5z" />
    <glyph glyph-name="Utilde" unicode="&#x168;" horiz-adv-x="718" 
d="M665 537l-37 -225q-27 -160 -96 -242t-207 -82q-233 0 -233 198q0 37 7 73l50 284q8 42 8 56q0 31 -18.5 42.5t-37.5 14t-19 11.5q0 4 1 6h321q0 -12 -13.5 -17t-30.5 -6.5t-34.5 -18.5t-23.5 -51l-59 -334q-9 -48 -9 -92q0 -140 140 -140q83 0 146 72t84 199l39 233
q5 33 5 49q0 34 -14 54t-30.5 24t-30.5 8t-14 11q0 2 0.5 5t0.5 4h234q1 -14 -15.5 -19.5t-38 -8.5t-44.5 -30t-31 -78zM643 874l9 -3q-16 -51 -47.5 -84.5t-70.5 -33.5q-22 0 -71 15t-70 15q-49 0 -74 -42l-10 4q16 45 45 81t70 36q19 0 71.5 -16.5t75.5 -16.5q45 0 72 45z
" />
    <glyph glyph-name="utilde" unicode="&#x169;" horiz-adv-x="570" 
d="M519 452q1 0 3 -2l2 -1q-48 -236 -81 -422q40 24 97 83l9 -11q-95 -111 -155 -111q-71 0 -71 62q0 48 39 200h-3q-47 -141 -102.5 -202t-103.5 -61q-90 0 -90 89q0 24 6 51l58 284q-43 -26 -97 -82l-10 11q98 113 158 113q72 0 72 -68q0 -14 -7 -49l-47 -215
q-5 -22 -5 -40q0 -33 25 -33q35 0 85.5 101t75.5 220l9 41q76 8 133 42zM512 661l9 -3q-16 -51 -47.5 -84.5t-70.5 -33.5q-21 0 -70 15t-71 15q-49 0 -74 -42l-10 4q16 45 45 81t70 36q19 0 71.5 -16.5t75.5 -16.5q24 0 40 9.5t32 35.5z" />
    <glyph glyph-name="Umacron" unicode="&#x16a;" horiz-adv-x="718" 
d="M665 537l-37 -225q-27 -160 -96 -242t-207 -82q-233 0 -233 198q0 37 7 73l50 284q8 42 8 56q0 31 -18.5 42.5t-37.5 14t-19 11.5q0 4 1 6h321q0 -12 -13.5 -17t-30.5 -6.5t-34.5 -18.5t-23.5 -51l-59 -334q-9 -48 -9 -92q0 -140 140 -140q83 0 146 72t84 199l39 233
q5 33 5 49q0 34 -14 54t-30.5 24t-30.5 8t-14 11q0 2 0.5 5t0.5 4h234q1 -14 -15.5 -19.5t-38 -8.5t-44.5 -30t-31 -78zM618 838l-17 -81q-115 11 -284 0l12 63q77 13 289 18z" />
    <glyph glyph-name="umacron" unicode="&#x16b;" horiz-adv-x="570" 
d="M519 452q1 0 3 -2l2 -1q-48 -236 -81 -422q40 24 97 83l9 -11q-95 -111 -155 -111q-71 0 -71 62q0 48 39 200h-3q-47 -141 -102.5 -202t-103.5 -61q-90 0 -90 89q0 24 6 51l58 284q-43 -26 -97 -82l-10 11q98 113 158 113q72 0 72 -68q0 -14 -7 -49l-47 -215
q-5 -22 -5 -40q0 -33 25 -33q35 0 85.5 101t75.5 220l9 41q76 8 133 42zM489 632l-16 -80q-113 11 -279 0l13 62q77 13 282 18z" />
    <glyph glyph-name="Ubreve" unicode="&#x16c;" horiz-adv-x="718" 
d="M665 537l-37 -225q-27 -160 -96 -242t-207 -82q-233 0 -233 198q0 37 7 73l50 284q8 42 8 56q0 31 -18.5 42.5t-37.5 14t-19 11.5q0 4 1 6h321q0 -12 -13.5 -17t-30.5 -6.5t-34.5 -18.5t-23.5 -51l-59 -334q-9 -48 -9 -92q0 -140 140 -140q83 0 146 72t84 199l39 233
q5 33 5 49q0 34 -14 54t-30.5 24t-30.5 8t-14 11q0 2 0.5 5t0.5 4h234q1 -14 -15.5 -19.5t-38 -8.5t-44.5 -30t-31 -78zM462 727q-59 0 -90.5 43t-29.5 116l13 4q28 -90 119 -90q89 0 153 91l11 -3q-30 -82 -77 -121.5t-99 -39.5z" />
    <glyph glyph-name="ubreve" unicode="&#x16d;" horiz-adv-x="570" 
d="M519 452q1 0 3 -2l2 -1q-48 -236 -81 -422q40 24 97 83l9 -11q-95 -111 -155 -111q-71 0 -71 62q0 48 39 200h-3q-47 -141 -102.5 -202t-103.5 -61q-90 0 -90 89q0 24 6 51l58 284q-43 -26 -97 -82l-10 11q98 113 158 113q72 0 72 -68q0 -14 -7 -49l-47 -215
q-5 -22 -5 -40q0 -33 25 -33q35 0 85.5 101t75.5 220l9 41q76 8 133 42zM332 513q-61 0 -92.5 46.5t-26.5 124.5l14 4q28 -99 117 -99q84 0 153 95l12 -4q-30 -84 -77.5 -125.5t-99.5 -41.5z" />
    <glyph glyph-name="Uring" unicode="&#x16e;" horiz-adv-x="718" 
d="M665 537l-37 -225q-27 -160 -96 -242t-207 -82q-233 0 -233 198q0 37 7 73l50 284q8 42 8 56q0 31 -18.5 42.5t-37.5 14t-19 11.5q0 4 1 6h321q0 -12 -13.5 -17t-30.5 -6.5t-34.5 -18.5t-23.5 -51l-59 -334q-9 -48 -9 -92q0 -140 140 -140q83 0 146 72t84 199l39 233
q5 33 5 49q0 34 -14 54t-30.5 24t-30.5 8t-14 11q0 2 0.5 5t0.5 4h234q1 -14 -15.5 -19.5t-38 -8.5t-44.5 -30t-31 -78zM470 712q-37 0 -60.5 23t-23.5 59q0 48 34.5 84t84.5 36q35 0 57.5 -23.5t22.5 -58.5q0 -49 -34 -84.5t-81 -35.5zM500 887q-35 0 -60 -27t-25 -62
q0 -25 16.5 -42t43.5 -17q32 0 56.5 25.5t24.5 59.5q0 27 -15 45t-41 18z" />
    <glyph glyph-name="uring" unicode="&#x16f;" horiz-adv-x="570" 
d="M519 452q1 0 3 -2l2 -1q-48 -236 -81 -422q40 24 97 83l9 -11q-95 -111 -155 -111q-71 0 -71 62q0 48 39 200h-3q-47 -141 -102.5 -202t-103.5 -61q-90 0 -90 89q0 24 6 51l58 284q-43 -26 -97 -82l-10 11q98 113 158 113q72 0 72 -68q0 -14 -7 -49l-47 -215
q-5 -22 -5 -40q0 -33 25 -33q35 0 85.5 101t75.5 220l9 41q76 8 133 42zM331 511q-37 0 -60.5 23t-23.5 59q0 48 34.5 84t84.5 36q35 0 57.5 -23.5t22.5 -58.5q0 -49 -34 -84.5t-81 -35.5zM361 686q-35 0 -60 -27t-25 -62q0 -25 16.5 -42t43.5 -17q32 0 56.5 25.5t24.5 59.5
q0 27 -15 45t-41 18z" />
    <glyph glyph-name="Uhungarumlaut" unicode="&#x170;" horiz-adv-x="718" 
d="M665 537l-37 -225q-27 -160 -96 -242t-207 -82q-233 0 -233 198q0 37 7 73l50 284q8 42 8 56q0 31 -18.5 42.5t-37.5 14t-19 11.5q0 4 1 6h321q0 -12 -13.5 -17t-30.5 -6.5t-34.5 -18.5t-23.5 -51l-59 -334q-9 -48 -9 -92q0 -140 140 -140q83 0 146 72t84 199l39 233
q5 33 5 49q0 34 -14 54t-30.5 24t-30.5 8t-14 11q0 2 0.5 5t0.5 4h234q1 -14 -15.5 -19.5t-38 -8.5t-44.5 -30t-31 -78zM293 731q-2 6 -2 12q44 22 79 51t51 50.5t34.5 37t37.5 15.5t29 -11.5t10 -27.5q0 -5 -5 -16t-21.5 -29t-41 -34t-69.5 -29.5t-102 -18.5zM461 732
q-1 5 -1 13q45 21 79.5 50.5t50.5 51.5t34 37.5t37 15.5t29.5 -12.5t10.5 -28.5q0 -5 -5.5 -16.5t-22.5 -29t-42 -33.5t-70 -29.5t-100 -18.5z" />
    <glyph glyph-name="uhungarumlaut" unicode="&#x171;" horiz-adv-x="570" 
d="M519 452q1 0 3 -2l2 -1q-48 -236 -81 -422q40 24 97 83l9 -11q-95 -111 -155 -111q-71 0 -71 62q0 48 39 200h-3q-47 -141 -102.5 -202t-103.5 -61q-90 0 -90 89q0 24 6 51l58 284q-43 -26 -97 -82l-10 11q98 113 158 113q72 0 72 -68q0 -14 -7 -49l-47 -215
q-5 -22 -5 -40q0 -33 25 -33q35 0 85.5 101t75.5 220l9 41q76 8 133 42zM337 515q-2 10 -2 14q45 26 79 59t48 56t31 39t37 16q18 0 27.5 -11t9.5 -27q0 -6 -5 -17.5t-21 -30.5t-40 -37t-67 -35t-97 -26zM179 516q0 2 -0.5 7t-0.5 7q45 26 78.5 59t48 56t31.5 39t36 16
t28.5 -11t9.5 -27q0 -5 -4.5 -16t-20.5 -30t-39.5 -37t-67.5 -35.5t-99 -27.5z" />
    <glyph glyph-name="Uogonek" unicode="&#x172;" horiz-adv-x="718" 
d="M665 537l-37 -225q-25 -148 -86 -229.5t-178 -92.5q-51 -35 -77 -80t-26 -79q0 -32 22 -47.5t59 -15.5q31 0 61 10l1 -12q-65 -38 -138 -38q-91 0 -91 67q0 38 36.5 91t128.5 102h-15q-233 0 -233 198q0 37 7 73l50 284q8 42 8 56q0 31 -18.5 42.5t-37.5 14t-19 11.5
q0 4 1 6h321q0 -12 -13.5 -17t-30.5 -6.5t-34.5 -18.5t-23.5 -51l-59 -334q-9 -48 -9 -92q0 -140 140 -140q83 0 146 72t84 199l39 233q5 33 5 49q0 34 -14 54t-30.5 24t-30.5 8t-14 11q0 2 0.5 5t0.5 4h234q1 -14 -15.5 -19.5t-38 -8.5t-44.5 -30t-31 -78z" />
    <glyph glyph-name="uogonek" unicode="&#x173;" horiz-adv-x="570" 
d="M519 452q1 0 3 -2l2 -1q-48 -236 -81 -422q40 24 97 83l9 -11q-95 -111 -155 -111q-30 0 -49 13q-41 -34 -61.5 -73.5t-20.5 -69.5q0 -32 22 -47.5t59 -15.5q31 0 61 10l1 -12q-65 -38 -138 -38q-91 0 -91 67q0 37 35 89t122 100q-11 16 -11 39q0 48 39 200h-3
q-47 -141 -102.5 -202t-103.5 -61q-90 0 -90 89q0 24 6 51l58 284q-43 -26 -97 -82l-10 11q98 113 158 113q72 0 72 -68q0 -14 -7 -49l-47 -215q-5 -22 -5 -40q0 -33 25 -33q35 0 85.5 101t75.5 220l9 41q76 8 133 42z" />
    <glyph glyph-name="Wcircumflex" unicode="&#x174;" horiz-adv-x="945" 
d="M339 208h3l164 350q13 26 13 47q0 18 -11 29t-23.5 13.5t-23.5 6.5t-11 11q0 2 0.5 4.5t0.5 4.5h274v-6q0 -9 -19.5 -15t-39 -21t-19.5 -46q0 -10 4 -34l50 -344h3l147 320q23 50 23 75q0 20 -11 31t-24.5 13.5t-24.5 6.5t-11 10q0 2 0.5 5t0.5 5h223q0 -13 -12 -18.5
t-30 -8t-43.5 -23t-47.5 -57.5q-20 -33 -35 -64l-241 -510l-30 -3q-27 174 -79 524h-1l-2 1q-42 -87 -125 -261.5t-125 -261.5q-18 -2 -28 -2l-92 593q-6 36 -24.5 51.5t-34 19t-15.5 10.5q0 2 2 10h301q1 -13 -10.5 -19.5t-26.5 -8.5t-27.5 -13.5t-12.5 -33.5q0 -11 4 -47z
M728 727q-90 54 -135 80q-112 -52 -167 -79q-3 4 -7 12l144 129q4 3 10.5 9.5t11 10.5t10 8t9 6.5t6.5 2.5q8 0 17 -11q110 -153 112 -156z" />
    <glyph glyph-name="wcircumflex" unicode="&#x175;" horiz-adv-x="717" 
d="M420 452q50 0 68 -67.5t37 -265.5q115 129 147 204q-31 6 -53.5 26.5t-22.5 50.5q0 22 14 40.5t39 18.5t41 -17.5t16 -50.5q0 -42 -31.5 -98.5t-66 -98.5t-94 -108.5t-81.5 -93.5h-20q-10 90 -34 268q-66 -102 -213 -268h-20q-25 244 -59 405q-24 -19 -75 -87l-10 9
q86 134 153 134q44 0 61 -52q27 -83 42 -280q72 85 117 160q-11 74 -19 119q-24 -19 -65 -75l-10 9q79 118 139 118zM557 512l-131 91l-166 -91l-7 11l165 162q17 16 26 16q10 0 20 -16l104 -162z" />
    <glyph glyph-name="Ycircumflex" unicode="&#x176;" horiz-adv-x="607" 
d="M380 327l126 200q33 51 33 78q0 17 -11 27.5t-23.5 13.5t-23.5 7.5t-11 10.5v4q1 3 1 5h218q1 -12 -10 -17.5t-29.5 -9.5t-49.5 -29.5t-60 -71.5l-154 -240l-33 -179q-4 -28 -4 -41q0 -28 13 -43.5t28 -18.5t27 -7.5t11 -13.5v-2h-327l1 6q1 8 15 12t30.5 8t33.5 24.5
t23 57.5l29 167l-96 307q-10 33 -30 49t-34.5 21t-14.5 13q0 2 0.5 4.5t0.5 3.5h312v-5q0 -9 -12.5 -14.5t-27 -7.5t-27 -12.5t-12.5 -29.5q0 -10 13 -51l74 -226h1zM540 727q-90 54 -135 80q-112 -52 -167 -79q-3 4 -7 12l144 129q4 3 10.5 9.5t11 10.5t10 8t9 6.5t6.5 2.5
q8 0 17 -11q110 -153 112 -156z" />
    <glyph glyph-name="ycircumflex" unicode="&#x177;" horiz-adv-x="462" 
d="M393 456q24 0 39 -17t15 -48q0 -50 -36.5 -110.5t-88.5 -117.5t-104 -112.5t-88.5 -110t-36.5 -95.5q0 -46 42 -58q0 41 18 67.5t49 26.5q22 0 34.5 -13t12.5 -32q0 -29 -26 -49t-61 -20q-38 0 -62.5 21t-24.5 55q0 59 69 148q-35 278 -67 410q-26 -24 -73 -88l-9 8
q39 62 73 96t76 34q44 0 69 -75.5t39 -266.5q10 11 38.5 43t40.5 46.5t31 39t30.5 43.5t18.5 37q-30 9 -49.5 30t-19.5 52q0 18 11.5 37t39.5 19zM419 512l-131 91l-166 -91l-7 11l165 162q17 16 26 16q10 0 20 -16l104 -162z" />
    <glyph glyph-name="Ydieresis" unicode="&#x178;" horiz-adv-x="607" 
d="M380 327l126 200q33 51 33 78q0 17 -11 27.5t-23.5 13.5t-23.5 7.5t-11 10.5v4q1 3 1 5h218q1 -12 -10 -17.5t-29.5 -9.5t-49.5 -29.5t-60 -71.5l-154 -240l-33 -179q-4 -28 -4 -41q0 -28 13 -43.5t28 -18.5t27 -7.5t11 -13.5v-2h-327l1 6q1 8 15 12t30.5 8t33.5 24.5
t23 57.5l29 167l-96 307q-10 33 -30 49t-34.5 21t-14.5 13q0 2 0.5 4.5t0.5 3.5h312v-5q0 -9 -12.5 -14.5t-27 -7.5t-27 -12.5t-12.5 -29.5q0 -10 13 -51l74 -226h1zM510 876q24 0 38.5 -16.5t14.5 -40.5q0 -31 -23.5 -54.5t-52.5 -23.5q-23 0 -38 15.5t-15 38.5
q0 32 23 56.5t53 24.5zM322 876q24 0 38.5 -16.5t14.5 -40.5q0 -31 -23 -54.5t-52 -23.5q-23 0 -38 15.5t-15 38.5q0 32 23 56.5t52 24.5z" />
    <glyph glyph-name="Zacute" unicode="&#x179;" horiz-adv-x="611" 
d="M145 698l3 1q60 -25 245 -25h242l-2 -17l-470 -640h143q90 0 144 49.5t136 191.5q9 14 17 14q1 0 4 -0.5t4 -0.5l-103 -293l-3 -1q-63 23 -196 23h-331l3 15q157 214 475 640h-124q-83 0 -128.5 -38t-102.5 -148q-10 -20 -21 -20q-5 0 -6 1zM314 734q0 2 -0.5 6t-0.5 6
q46 22 80 51t48.5 50.5t32 36.5t36.5 15q20 0 30.5 -13t10.5 -30q0 -7 -4.5 -18t-20 -28.5t-39.5 -32t-69.5 -27t-103.5 -16.5z" />
    <glyph glyph-name="zacute" unicode="&#x17a;" horiz-adv-x="471" 
d="M147 455q46 0 135.5 -25.5t107.5 -25.5q37 0 76 55l11 -7q-33 -58 -97 -119t-124.5 -104t-124.5 -92.5t-93 -84.5v-3q74 55 142 55q38 0 102 -32.5t90 -32.5q19 0 30 18q-69 12 -69 76q0 20 12.5 36.5t37.5 16.5q23 0 37 -18.5t14 -45.5q0 -55 -41 -106.5t-114 -51.5
q-47 0 -115 36.5t-100 36.5q-42 0 -73 -48l-12 8q26 51 79.5 101.5t108 88t124.5 92.5t117 106l-2 2q-73 -59 -166 -59q-67 0 -155 27q-7 -17 -28 -95l-12 2q27 193 102 193zM212 511l-4 12q40 27 70 62t43 59t30 41.5t38 17.5t31.5 -12.5t9.5 -29.5q-1 -11 -11.5 -27.5
t-32.5 -39t-68 -45t-106 -38.5z" />
    <glyph glyph-name="Zdotaccent" unicode="&#x17b;" horiz-adv-x="611" 
d="M145 698l3 1q60 -25 245 -25h242l-2 -17l-470 -640h143q90 0 144 49.5t136 191.5q9 14 17 14q1 0 4 -0.5t4 -0.5l-103 -293l-3 -1q-63 23 -196 23h-331l3 15q157 214 475 640h-124q-83 0 -128.5 -38t-102.5 -148q-10 -20 -21 -20q-5 0 -6 1zM432 890q25 0 40.5 -17.5
t15.5 -43.5q0 -36 -25.5 -62.5t-58.5 -26.5q-25 0 -41 17t-16 43q0 35 26 62.5t59 27.5z" />
    <glyph glyph-name="zdotaccent" unicode="&#x17c;" horiz-adv-x="471" 
d="M147 455q46 0 135.5 -25.5t107.5 -25.5q37 0 76 55l11 -7q-33 -58 -97 -119t-124.5 -104t-124.5 -92.5t-93 -84.5v-3q74 55 142 55q38 0 102 -32.5t90 -32.5q19 0 30 18q-69 12 -69 76q0 20 12.5 36.5t37.5 16.5q23 0 37 -18.5t14 -45.5q0 -55 -41 -106.5t-114 -51.5
q-47 0 -115 36.5t-100 36.5q-42 0 -73 -48l-12 8q26 51 79.5 101.5t108 88t124.5 92.5t117 106l-2 2q-73 -59 -166 -59q-67 0 -155 27q-7 -17 -28 -95l-12 2q27 193 102 193zM324 684q25 0 40.5 -17.5t15.5 -43.5q0 -36 -25.5 -62.5t-58.5 -26.5q-25 0 -41 17t-16 43
q0 35 26 62.5t59 27.5z" />
    <glyph glyph-name="Zcaron" unicode="&#x17d;" horiz-adv-x="611" 
d="M145 698l3 1q60 -25 245 -25h242l-2 -17l-470 -640h143q90 0 144 49.5t136 191.5q9 14 17 14q1 0 4 -0.5t4 -0.5l-103 -293l-3 -1q-63 23 -196 23h-331l3 15q157 214 475 640h-124q-83 0 -128.5 -38t-102.5 -148q-10 -20 -21 -20q-5 0 -6 1zM431 823l165 83l7 -11
l-170 -159q-13 -10 -19 -10q-8 0 -16 11l-116 157l12 12z" />
    <glyph glyph-name="zcaron" unicode="&#x17e;" horiz-adv-x="471" 
d="M147 455q46 0 135.5 -25.5t107.5 -25.5q37 0 76 55l11 -7q-33 -58 -97 -119t-124.5 -104t-124.5 -92.5t-93 -84.5v-3q74 55 142 55q38 0 102 -32.5t90 -32.5q19 0 30 18q-69 12 -69 76q0 20 12.5 36.5t37.5 16.5q23 0 37 -18.5t14 -45.5q0 -55 -41 -106.5t-114 -51.5
q-47 0 -115 36.5t-100 36.5q-42 0 -73 -48l-12 8q26 51 79.5 101.5t108 88t124.5 92.5t117 106l-2 2q-73 -59 -166 -59q-67 0 -155 27q-7 -17 -28 -95l-12 2q27 193 102 193zM305 605l162 93l7 -11l-160 -163q-16 -16 -25 -16t-21 17l-110 162l12 12z" />
    <glyph glyph-name="longs" unicode="&#x17f;" horiz-adv-x="270" 
d="M229 402q-38 -236 -82.5 -372.5t-99 -195t-131.5 -58.5q-36 0 -57.5 17.5t-21.5 42.5q0 26 16 41t40 15q31 0 50 -26.5t19 -67.5q44 16 59 120q7 44 20 131t21.5 141.5t20 120.5t20.5 108h-78l3 17h78q30 136 114 219t194 83q44 0 72.5 -17.5t28.5 -47.5q0 -27 -16 -41.5
t-40 -14.5q-30 0 -49.5 22.5t-19.5 53.5q0 13 3 28q-72 -6 -104.5 -78.5t-59.5 -240.5z" />
    <glyph glyph-name="florin" unicode="&#x192;" 
d="M120 369h91q21 84 53.5 150t82.5 110t108 44q40 0 66.5 -21t26.5 -58q0 -23 -14 -37t-36 -14q-31 0 -47.5 22t-16.5 53q0 20 6 37q-12 -2 -21 -9.5t-17 -23.5t-13 -30t-12 -43.5t-11 -50t-11.5 -62t-12.5 -67.5h94l-2 -19h-95q-21 -105 -43.5 -181t-57 -143.5t-83 -102.5
t-111.5 -35q-34 0 -62 16.5t-28 49.5q0 22 14 39.5t42 17.5q33 0 50.5 -26.5t14.5 -78.5q17 6 31.5 31.5t27 72.5t22 93.5t24 120t27.5 126.5h-88q0 4 0.5 10t0.5 9z" />
    <glyph glyph-name="AEacute" unicode="&#x1fc;" horiz-adv-x="966" 
d="M338 0q1 2 1 6q1 7 14.5 11.5t30 8.5t33 23.5t22.5 53.5l21 124h-235l-77 -103q-37 -50 -37 -68q0 -19 18.5 -27.5t37 -12t18.5 -9.5q0 -5 -1 -7h-221q0 11 11 15.5t29.5 8t49.5 26t62 61.5l401 513q-6 15 -24 21.5t-33 9t-15 9.5q0 2 0.5 5t0.5 5h265q170 0 244 30
q2 0 3 -1l-16 -244q-2 -1 -6 -1q-7 0 -13 22q-11 43 -17.5 66t-18 46t-22.5 32.5t-31.5 18t-45 10.5t-63.5 2h-43l-51 -294h57q38 0 64 20.5t36 45t19 45t15 20.5h5l-49 -287h-5q-8 0 -10 21.5t-2 48t-18 48t-55 21.5h-60l-45 -260q-3 -18 -3 -23q0 -44 57 -44h31
q81 0 138 50t127 172q13 22 21 22q1 0 3.5 -0.5t3.5 -0.5q-78 -228 -98 -281q-60 21 -219 21h-305zM462 244l53 307q7 49 7 54q-43 -56 -139 -177t-144 -184h223zM589 734q0 2 -0.5 6t-0.5 6q46 22 80 51t48.5 50.5t32 36.5t36.5 15q20 0 30.5 -13t10.5 -30q0 -7 -4.5 -18
t-20 -28.5t-39.5 -32t-69.5 -27t-103.5 -16.5z" />
    <glyph glyph-name="aeacute" unicode="&#x1fd;" horiz-adv-x="730" 
d="M470 -12q-114 0 -154 79q-94 -82 -204 -82q-49 0 -75.5 22.5t-26.5 64.5q0 47 22.5 82t60 54t79.5 27.5t88 8.5q16 0 46 -2q3 15 8 39.5t8 42t3 28.5q0 80 -71 80q-34 0 -64 -16q23 -22 23 -58q0 -30 -19.5 -53t-49.5 -23q-21 0 -34 15t-13 36q0 45 48 82t134 37
q45 0 78.5 -17.5t48.5 -48.5q65 65 167 65q140 0 140 -101q0 -67 -67 -106t-171 -39q-12 0 -38 2q-3 -33 -3 -42q0 -134 95 -134q77 0 145 71q3 -3 10 -9q-38 -44 -94 -74.5t-120 -30.5zM202 32q51 0 108 48q-14 34 -14 72q0 36 7 73q-72 0 -113.5 -34.5t-41.5 -101.5
q0 -28 15 -42.5t39 -14.5zM439 224q88 0 126.5 44.5t38.5 113.5q0 25 -11 37.5t-28 12.5q-46 0 -79.5 -58t-46.5 -150zM358 510l-4 12q40 27 70 62t43 59t30 41.5t38 17.5t31.5 -12.5t9.5 -29.5q-1 -11 -11.5 -27.5t-32.5 -39t-68 -45t-106 -38.5z" />
    <glyph glyph-name="Oslashacute" unicode="&#x1fe;" horiz-adv-x="718" 
d="M369 734q0 2 -0.5 6t-0.5 6q46 22 80 51t48.5 50.5t32 36.5t36.5 15q20 0 30.5 -13t10.5 -30q0 -7 -4.5 -18t-20 -28.5t-39.5 -32t-69.5 -27t-103.5 -16.5zM436 686q99 0 167 -47l48 60l11 -10l-47 -59q89 -73 89 -217q0 -79 -28 -155t-77 -136.5t-123 -97.5t-160 -37
q-107 0 -173 52l-52 -66l-10 11l51 64q-81 74 -81 210q0 112 48.5 209.5t137.5 158t199 60.5zM548 504q0 15 -2 39l-336 -420q15 -119 113 -119q53 0 98 53t71.5 132.5t41 162.5t14.5 152zM434 669q-54 0 -99 -55.5t-71.5 -137t-41 -163.5t-14.5 -145v-24l335 420
q-18 105 -109 105z" />
    <glyph glyph-name="oslashacute" unicode="&#x1ff;" 
d="M250 511l-4 12q40 27 70 62t43 59t30 41.5t38 17.5t31.5 -12.5t9.5 -29.5q-1 -11 -11.5 -27.5t-32.5 -39t-68 -45t-106 -38.5zM308 453q73 0 120 -30l38 45l10 -9l-37 -44q64 -48 64 -144q0 -111 -81 -197.5t-207 -86.5q-65 0 -111 26l-40 -48l-11 10l39 47
q-61 46 -61 145q0 117 78 201.5t199 84.5zM222 3q36 0 66 36t47.5 89.5t27 108t9.5 97.5l-208 -249q5 -82 58 -82zM306 436q-41 0 -75 -55.5t-50.5 -130t-16.5 -142.5l207 247q-7 81 -65 81z" />
    <glyph glyph-name="Scommaaccent" unicode="&#x218;" horiz-adv-x="564" 
d="M218 -12q-97 0 -154 36.5t-57 88.5q0 38 21 58t50 20q31 0 50 -23t19 -54q0 -55 -32 -91q35 -18 90 -18q80 0 132 37.5t52 105.5q0 38 -30 72t-72.5 61t-85 55t-72.5 66t-30 82q0 67 42.5 115t100.5 67.5t122 19.5q97 0 149.5 -34t52.5 -85q0 -32 -19 -51t-46 -19
q-33 0 -50 20.5t-17 52.5q0 50 29 84q-31 13 -80 13q-59 0 -98 -33t-39 -79q0 -34 30.5 -65t73.5 -57.5t86.5 -56t74 -72t30.5 -93.5q0 -105 -93 -164t-230 -59zM219 -40q24 0 37 -15.5t13 -40.5q0 -43 -38.5 -102.5t-91.5 -97.5l-7 11q75 63 97 136q-15 -11 -33 -11
q-20 0 -32.5 13t-12.5 33q0 28 19.5 51t48.5 23z" />
    <glyph glyph-name="scommaaccent" unicode="&#x219;" horiz-adv-x="433" 
d="M264 452q68 0 108 -26t40 -66q0 -28 -16 -43t-36 -15q-27 0 -41 17.5t-14 42.5q0 37 23 65q-24 8 -51 8q-35 0 -62 -18t-27 -56q0 -27 31 -53.5t68.5 -46.5t68.5 -54t31 -74q0 -69 -63 -107.5t-155 -38.5q-78 0 -118 27.5t-40 66.5q0 29 16 43.5t35 14.5q26 0 40 -17
t14 -42q0 -40 -23 -66q24 -11 66 -11t72 22.5t30 58.5q0 29 -30 56.5t-66.5 47t-66.5 51t-30 67.5q0 71 58.5 108.5t137.5 37.5zM174 -40q24 0 37 -15.5t13 -40.5q0 -43 -38.5 -102.5t-91.5 -97.5l-7 11q75 63 97 136q-15 -11 -33 -11q-20 0 -32.5 13t-12.5 33q0 28 19.5 51
t48.5 23z" />
    <glyph glyph-name="uni021A" unicode="&#x21a;" horiz-adv-x="608" 
d="M104 697l3 1q76 -24 184 -24h141q151 0 223 23l3 -1q-2 -35 -15 -247h-3q-10 0 -14 18q-21 102 -51.5 145.5t-97.5 43.5h-30l-96 -556q-6 -33 4.5 -51t26.5 -21.5t30 -8t14 -12.5l-1 -7h-322l1 7q1 8 15 12.5t30 8t32.5 21t21.5 48.5l98 559h-29q-60 0 -108.5 -44
t-97.5 -142q-10 -21 -21 -19l-4 1zM265 -40q24 0 37 -15.5t13 -40.5q0 -43 -38.5 -102.5t-91.5 -97.5l-7 11q75 63 97 136q-15 -11 -33 -11q-20 0 -32.5 13t-12.5 33q0 28 19.5 51t48.5 23z" />
    <glyph glyph-name="uni021B" unicode="&#x21b;" horiz-adv-x="305" 
d="M39 55q0 21 7 58q32 164 59 305h-60q0 7 2 17h62q102 34 146 158h13q-2 -10 -30 -157h110l-3 -18h-110l-74 -389q48 29 100 81l9 -9q-47 -56 -92 -84t-77 -28q-31 0 -46.5 14.5t-15.5 51.5zM93 -40q24 0 37 -15.5t13 -40.5q0 -43 -38.5 -102.5t-91.5 -97.5l-7 11
q75 63 97 136q-15 -11 -33 -11q-20 0 -32.5 13t-12.5 33q0 28 19.5 51t48.5 23z" />
    <glyph glyph-name="schwa" unicode="&#x259;" horiz-adv-x="471" 
d="M264 452q84 0 129 -45.5t45 -123.5q0 -116 -75 -205.5t-204 -89.5q-139 0 -139 101q0 70 82 111t199 52q1 8 1 26q0 131 -98 131q-75 0 -145 -73l-9 10q94 106 214 106zM298 234q-81 -11 -124.5 -62.5t-43.5 -115.5q0 -25 11.5 -38t29.5 -13q45 0 79.5 65t47.5 164z" />
    <glyph glyph-name="primemod" unicode="&#x2b9;" horiz-adv-x="235" 
d="M57 375q23 44 135 265q31 61 67 61q41 0 41 -49q0 -20 -34 -58l-197 -226q-10 5 -12 7z" />
    <glyph glyph-name="circumflex" unicode="&#x2c6;" horiz-adv-x="498" 
d="M447 512l-131 91l-166 -91l-7 11l165 162q17 16 26 16q10 0 20 -16l104 -162z" />
    <glyph glyph-name="caron" unicode="&#x2c7;" horiz-adv-x="502" 
d="M320 605l162 93l7 -11l-160 -163q-16 -16 -25 -16t-21 17l-110 162l12 12z" />
    <glyph glyph-name="breve" unicode="&#x2d8;" horiz-adv-x="502" 
d="M304 513q-61 0 -92.5 46.5t-26.5 124.5l14 4q28 -99 117 -99q84 0 153 95l12 -4q-30 -84 -77.5 -125.5t-99.5 -41.5z" />
    <glyph glyph-name="dotaccent" unicode="&#x2d9;" horiz-adv-x="461" 
d="M318 684q25 0 40.5 -17.5t15.5 -43.5q0 -36 -25.5 -62.5t-58.5 -26.5q-25 0 -41 17t-16 43q0 35 26 62.5t59 27.5z" />
    <glyph glyph-name="ring" unicode="&#x2da;" horiz-adv-x="502" 
d="M305 511q-37 0 -60.5 23t-23.5 59q0 48 34.5 84t84.5 36q35 0 57.5 -23.5t22.5 -58.5q0 -49 -34 -84.5t-81 -35.5zM335 686q-35 0 -60 -27t-25 -62q0 -25 16.5 -42t43.5 -17q32 0 56.5 25.5t24.5 59.5q0 27 -15 45t-41 18z" />
    <glyph glyph-name="ogonek" unicode="&#x2db;" horiz-adv-x="488" 
d="M365 39l2 -8q-53 -36 -81 -82t-28 -81q0 -32 22 -47.5t59 -15.5q31 0 61 10l1 -12q-65 -38 -138 -38q-91 0 -91 67q0 17 8 38t27 49.5t60 60.5t98 59z" />
    <glyph glyph-name="tilde" unicode="&#x2dc;" horiz-adv-x="521" 
d="M484 661l9 -3q-16 -51 -47.5 -84.5t-70.5 -33.5q-21 0 -70 15t-71 15q-49 0 -74 -42l-10 4q16 45 45 81t70 36q19 0 71.5 -16.5t75.5 -16.5q24 0 40 9.5t32 35.5z" />
    <glyph glyph-name="hungarumlaut" unicode="&#x2dd;" horiz-adv-x="525" 
d="M142 516q0 2 -0.5 7t-0.5 7q45 26 78.5 59t48 56t31.5 39t36 16t28.5 -11t9.5 -27q0 -5 -4.5 -16t-20.5 -30t-39.5 -37t-67.5 -35.5t-99 -27.5zM300 515q-2 10 -2 14q45 26 79 59t48 56t31 39t37 16q18 0 27.5 -11t9.5 -27q0 -6 -5 -17.5t-21 -30.5t-40 -37t-67 -35
t-97 -26z" />
    <glyph glyph-name="tonos" unicode="&#x384;" horiz-adv-x="502" 
d="M245 504q-2 8 -4 12q44 33 74 71.5t40.5 63t26 41t37.5 16.5q19 0 28.5 -10.5t9.5 -26.5q0 -12 -10 -30.5t-31.5 -42.5t-66 -49.5t-104.5 -44.5z" />
    <glyph glyph-name="dieresistonos" unicode="&#x385;" horiz-adv-x="528" 
d="M225 489l-6 10q37 41 61 85.5t32 70t21.5 42.5t36.5 17q15 0 25 -9.5t10 -23.5q0 -34 -43 -90.5t-137 -101.5zM196 668q23 0 37.5 -16t14.5 -40q0 -31 -22.5 -54.5t-51.5 -23.5q-23 0 -38 16t-15 39q0 31 23 55t52 24zM480 668q24 0 38.5 -16t14.5 -40q0 -31 -22.5 -54.5
t-51.5 -23.5q-23 0 -38 16t-15 39q0 31 22.5 55t51.5 24z" />
    <glyph glyph-name="Alphatonos" unicode="&#x386;" horiz-adv-x="663" 
d="M94 115l236 462q8 17 8 32q0 22 -15 32t-30.5 14t-15.5 11q0 2 0.5 5t0.5 4h179l99 -585q5 -30 17.5 -47t24.5 -20.5t21.5 -6.5t9.5 -9v-7h-294l1 6q1 7 13 11t25 6.5t24 15t11 34.5q0 12 -5 40l-19 102h-222l-43 -84q-19 -38 -21 -67q0 -19 12.5 -29.5t27 -13t27 -5.5
t12.5 -9t-1 -7h-217q0 10 7 13.5t21 6.5t30 10t37 28.5t39 56.5zM333 540h-4l-157 -309h210zM13 486q-2 8 -4 12q44 33 74 71.5t40.5 63t26 41t37.5 16.5q19 0 28.5 -10.5t9.5 -26.5q0 -12 -10 -30.5t-31.5 -42.5t-66 -49.5t-104.5 -44.5z" />
    <glyph glyph-name="anoteleia" unicode="&#x387;" horiz-adv-x="217" 
d="M143 418q25 0 41 -17t16 -43q0 -36 -25.5 -62.5t-59.5 -26.5q-25 0 -40.5 17t-15.5 43q0 35 26 62t58 27z" />
    <glyph glyph-name="Epsilontonos" unicode="&#x388;" horiz-adv-x="628" 
d="M287 17h45q81 0 138 50t127 172q13 22 21 22q1 0 3.5 -0.5t3.5 -0.5q-91 -264 -97 -280l-3 -1q-60 21 -219 21h-318q-1 12 11.5 17.5t29.5 7.5t34 20t23 52l83 473l4 28q0 30 -19.5 42t-39 14.5t-19.5 9.5v10h280q170 0 244 30q2 0 3 -1l-16 -244q-2 -1 -6 -1
q-7 0 -13 22q-11 43 -17.5 66t-18 46t-22.5 32.5t-31.5 18t-45 10.5t-63.5 2h-57l-51 -294h71q38 0 64 20.5t36 45t19 45t15 20.5h5l-49 -287h-5q-8 0 -10 21.5t-2 48t-18 48t-55 21.5h-74l-45 -260q-3 -18 -3 -23q0 -44 57 -44zM-145 486q-2 8 -4 12q44 33 74 71.5t40.5 63
t26 41t37.5 16.5q19 0 28.5 -10.5t9.5 -26.5q0 -12 -10 -30.5t-31.5 -42.5t-66 -49.5t-104.5 -44.5z" />
    <glyph glyph-name="Etatonos" unicode="&#x389;" horiz-adv-x="760" 
d="M710 580l-80 -460q-5 -27 -5 -41q0 -30 20 -44t40 -18t20 -10q0 -5 -1 -7h-323q0 9 8 13t20.5 7t25.5 8.5t25 24t17 48.5l43 246h-244l-39 -227q-5 -28 -5 -41q0 -30 18.5 -44t37 -18t18.5 -10q0 -5 -1 -7h-317q0 9 8.5 13t21 7t26 8.5t26 24t17.5 48.5l79 448q5 40 5 50
q0 22 -11.5 34.5t-24.5 15.5t-24.5 6.5t-11.5 9.5v3q0 1 0.5 3t0.5 3h314q0 -13 -13 -18t-29.5 -6.5t-32.5 -18.5t-22 -51l-38 -216h244l33 185q0 3 2 14.5t3.5 22t1.5 13.5q0 22 -11 34.5t-24 15.5t-24 6.5t-11 9.5v3q0 1 0.5 3t0.5 3h313q0 -13 -13 -18t-29.5 -6.5
t-32.5 -18.5t-22 -51zM-138 486q-2 8 -4 12q44 33 74 71.5t40.5 63t26 41t37.5 16.5q19 0 28.5 -10.5t9.5 -26.5q0 -12 -10 -30.5t-31.5 -42.5t-66 -49.5t-104.5 -44.5z" />
    <glyph glyph-name="Iotatonos" unicode="&#x38a;" horiz-adv-x="388" 
d="M327 580l-80 -460q-5 -28 -5 -41q0 -30 20.5 -44t41 -18t20.5 -10q0 -5 -1 -7h-327q0 9 8.5 13t22 7t27 8.5t26 24t17.5 48.5l78 457q0 2 3 19.5t3 21.5q0 22 -11.5 34.5t-25.5 15.5t-25.5 6.5t-11.5 9.5v3q0 1 0.5 3t0.5 3h319q0 -13 -13.5 -18t-30.5 -6.5t-33.5 -18.5
t-22.5 -51zM-133 486q-2 8 -4 12q44 33 74 71.5t40.5 63t26 41t37.5 16.5q19 0 28.5 -10.5t9.5 -26.5q0 -12 -10 -30.5t-31.5 -42.5t-66 -49.5t-104.5 -44.5z" />
    <glyph glyph-name="Omicrontonos" unicode="&#x38c;" horiz-adv-x="718" 
d="M436 686q133 0 200.5 -76.5t67.5 -196.5q0 -79 -28 -155t-77 -136.5t-123 -97.5t-160 -37q-131 0 -198 75.5t-67 195.5q0 112 48.5 209.5t137.5 158t199 60.5zM434 669q-54 0 -99 -55.5t-71.5 -137t-41 -163.5t-14.5 -145q0 -164 115 -164q53 0 98 53t71.5 132.5
t41 162.5t14.5 152q0 165 -114 165zM-109 486q-2 8 -4 12q44 33 74 71.5t40.5 63t26 41t37.5 16.5q19 0 28.5 -10.5t9.5 -26.5q0 -12 -10 -30.5t-31.5 -42.5t-66 -49.5t-104.5 -44.5z" />
    <glyph glyph-name="Upsilontonos" unicode="&#x38e;" horiz-adv-x="607" 
d="M380 327l126 200q33 51 33 78q0 17 -11 27.5t-23.5 13.5t-23.5 7.5t-11 10.5v4q1 3 1 5h218q1 -12 -10 -17.5t-29.5 -9.5t-49.5 -29.5t-60 -71.5l-154 -240l-33 -179q-4 -28 -4 -41q0 -28 13 -43.5t28 -18.5t27 -7.5t11 -13.5v-2h-327l1 6q1 8 15 12t30.5 8t33.5 24.5
t23 57.5l29 167l-96 307q-10 33 -30 49t-34.5 21t-14.5 13q0 2 0.5 4.5t0.5 3.5h312v-5q0 -9 -12.5 -14.5t-27 -7.5t-27 -12.5t-12.5 -29.5q0 -10 13 -51l74 -226h1zM-169 486q-2 8 -4 12q44 33 74 71.5t40.5 63t26 41t37.5 16.5q19 0 28.5 -10.5t9.5 -26.5q0 -12 -10 -30.5
t-31.5 -42.5t-66 -49.5t-104.5 -44.5z" />
    <glyph glyph-name="Omegatonos" unicode="&#x38f;" horiz-adv-x="762" 
d="M26 -15l-3 1q-2 44 -2.5 133t-1.5 121q1 0 3.5 0.5t3.5 0.5q7 0 11 -22q18 -107 60 -154.5t120 -47.5h51q-10 43 -70 90q-57 43 -91 91t-34 121q0 67 26.5 132t74.5 118t122.5 86t161.5 33q71 0 125.5 -21.5t86 -58.5t47 -81t15.5 -93q0 -158 -129 -268
q-26 -23 -72.5 -53t-79 -53.5t-42.5 -42.5h32q103 0 159 45.5t117 155.5q12 22 21 22h2q3 -1 4 -1l-84 -253l-2 -1q-114 15 -243 15h-30l-1 3q5 19 20 38t31.5 34.5t39 45.5t39.5 65q62 128 62 306q0 81 -30.5 129.5t-91.5 48.5q-69 0 -123.5 -62t-81.5 -155.5t-27 -195.5
q0 -65 14.5 -109t31.5 -78t20 -67l-2 -3h-44q-117 0 -216 -15zM-96 486q-2 8 -4 12q44 33 74 71.5t40.5 63t26 41t37.5 16.5q19 0 28.5 -10.5t9.5 -26.5q0 -12 -10 -30.5t-31.5 -42.5t-66 -49.5t-104.5 -44.5z" />
    <glyph glyph-name="iotadieresistonos" unicode="&#x390;" horiz-adv-x="318" 
d="M181 454q35 0 54.5 -16.5t19.5 -47.5q0 -17 -4 -34l-66 -335q43 27 99 84l9 -8q-96 -110 -156 -110q-72 0 -72 70q0 13 3 30l65 333q-36 -25 -99 -88l-10 9q100 113 157 113zM95 489l-6 10q37 41 61 85.5t32 70t21.5 42.5t36.5 17q15 0 25 -9.5t10 -23.5q0 -34 -43 -90.5
t-137 -101.5zM66 668q23 0 37.5 -16t14.5 -40q0 -31 -22.5 -54.5t-51.5 -23.5q-23 0 -38 16t-15 39q0 31 23 55t52 24zM350 668q24 0 38.5 -16t14.5 -40q0 -31 -22.5 -54.5t-51.5 -23.5q-23 0 -38 16t-15 39q0 31 22.5 55t51.5 24z" />
    <glyph glyph-name="Alpha" unicode="&#x391;" horiz-adv-x="663" 
d="M94 115l236 462q8 17 8 32q0 22 -15 32t-30.5 14t-15.5 11q0 2 0.5 5t0.5 4h179l99 -585q5 -30 17.5 -47t24.5 -20.5t21.5 -6.5t9.5 -9v-7h-294l1 6q1 7 13 11t25 6.5t24 15t11 34.5q0 12 -5 40l-19 102h-222l-43 -84q-19 -38 -21 -67q0 -19 12.5 -29.5t27 -13t27 -5.5
t12.5 -9t-1 -7h-217q0 10 7 13.5t21 6.5t30 10t37 28.5t39 56.5zM333 540h-4l-157 -309h210z" />
    <glyph glyph-name="Beta" unicode="&#x392;" horiz-adv-x="663" 
d="M348 0h-360q0 14 13.5 19t30 6t33.5 20.5t24 57.5l71 405q12 70 12 84q0 24 -11.5 38t-26 17t-26 6.5t-11.5 9.5q0 4 1 11h336q107 0 157.5 -39t50.5 -96q0 -66 -59.5 -115t-161.5 -55q-1 -1 -1 -2q108 -5 158 -51t50 -110q0 -34 -16 -68.5t-48 -66t-88 -51.5t-128 -20z
M332 358l3 18q63 3 111.5 49t48.5 128q0 49 -34 75.5t-90 26.5h-39l-97 -565q-3 -15 -3 -28q0 -45 56 -45q71 0 128.5 55t57.5 158q0 61 -42.5 93.5t-99.5 34.5z" />
    <glyph glyph-name="Gamma" unicode="&#x393;" horiz-adv-x="578" 
d="M332 655l-93 -538q-4 -22 -4 -39q0 -25 13 -39t28.5 -16.5t28.5 -6t13 -9.5t-1 -7h-329v2q1 9 12.5 13.5t26 6.5t30 15.5t23.5 38.5q10 31 17 71l72 423l4 28q0 30 -19.5 42t-39 14.5t-19.5 9.5v10h285q170 0 244 30q2 0 3 -1l-16 -244q-2 -1 -6 -1q-7 0 -13 22
q-11 43 -17.5 66t-18 46t-22.5 32.5t-31.5 18t-45 10.5t-63.5 2h-62z" />
    <glyph glyph-name="Delta" unicode="&#x394;" horiz-adv-x="632" 
d="M-12 0q0 8 1 13q250 442 376 663q11 2 34 3.5t34 3.5q28 -132 79.5 -385t58.5 -285q0 -7 -2 -13h-581zM307 544q-93 -165 -281 -495h384l-60 289l-41 206h-2z" />
    <glyph glyph-name="Epsilon" unicode="&#x395;" horiz-adv-x="628" 
d="M287 17h45q81 0 138 50t127 172q13 22 21 22q1 0 3.5 -0.5t3.5 -0.5q-91 -264 -97 -280l-3 -1q-60 21 -219 21h-318q-1 12 11.5 17.5t29.5 7.5t34 20t23 52l83 473l4 28q0 30 -19.5 42t-39 14.5t-19.5 9.5v10h280q170 0 244 30q2 0 3 -1l-16 -244q-2 -1 -6 -1
q-7 0 -13 22q-11 43 -17.5 66t-18 46t-22.5 32.5t-31.5 18t-45 10.5t-63.5 2h-57l-51 -294h71q38 0 64 20.5t36 45t19 45t15 20.5h5l-49 -287h-5q-8 0 -10 21.5t-2 48t-18 48t-55 21.5h-74l-45 -260q-3 -18 -3 -23q0 -44 57 -44z" />
    <glyph glyph-name="Zeta" unicode="&#x396;" horiz-adv-x="611" 
d="M145 698l3 1q60 -25 245 -25h242l-2 -17l-470 -640h143q90 0 144 49.5t136 191.5q9 14 17 14q1 0 4 -0.5t4 -0.5l-103 -293l-3 -1q-63 23 -196 23h-331l3 15q157 214 475 640h-124q-83 0 -128.5 -38t-102.5 -148q-10 -20 -21 -20q-5 0 -6 1z" />
    <glyph glyph-name="Eta" unicode="&#x397;" horiz-adv-x="760" 
d="M710 580l-80 -460q-5 -27 -5 -41q0 -30 20 -44t40 -18t20 -10q0 -5 -1 -7h-323q0 9 8 13t20.5 7t25.5 8.5t25 24t17 48.5l43 246h-244l-39 -227q-5 -28 -5 -41q0 -30 18.5 -44t37 -18t18.5 -10q0 -5 -1 -7h-317q0 9 8.5 13t21 7t26 8.5t26 24t17.5 48.5l79 448q5 40 5 50
q0 22 -11.5 34.5t-24.5 15.5t-24.5 6.5t-11.5 9.5v3q0 1 0.5 3t0.5 3h314q0 -13 -13 -18t-29.5 -6.5t-32.5 -18.5t-22 -51l-38 -216h244l33 185q0 3 2 14.5t3.5 22t1.5 13.5q0 22 -11 34.5t-24 15.5t-24 6.5t-11 9.5v3q0 1 0.5 3t0.5 3h313q0 -13 -13 -18t-29.5 -6.5
t-32.5 -18.5t-22 -51z" />
    <glyph glyph-name="Theta" unicode="&#x398;" horiz-adv-x="762" 
d="M461 686q142 0 216.5 -81.5t74.5 -206.5q0 -77 -30.5 -151t-83.5 -131.5t-131 -92.5t-166 -35q-140 0 -215 78.5t-75 202.5q0 171 119 294t291 123zM459 669q-59 0 -108 -46t-78 -115.5t-45 -145.5t-16 -143q0 -216 134 -216q59 0 107.5 45t77.5 114.5t44.5 146
t15.5 146.5q0 214 -132 214zM265 286q-1 0 -4.5 2t-5.5 4q42 106 106 106q31 0 70.5 -12t50.5 -12q33 0 58 40q8 -2 12 -4q-37 -111 -109 -111q-19 0 -55 11.5t-53 11.5q-41 0 -70 -36z" />
    <glyph glyph-name="Iota" unicode="&#x399;" horiz-adv-x="388" 
d="M327 580l-80 -460q-5 -28 -5 -41q0 -30 20.5 -44t41 -18t20.5 -10q0 -5 -1 -7h-327q0 9 8.5 13t22 7t27 8.5t26 24t17.5 48.5l78 457q0 2 3 19.5t3 21.5q0 22 -11.5 34.5t-25.5 15.5t-25.5 6.5t-11.5 9.5v3q0 1 0.5 3t0.5 3h319q0 -13 -13.5 -18t-30.5 -6.5t-33.5 -18.5
t-22.5 -51z" />
    <glyph glyph-name="Kappa" unicode="&#x39a;" horiz-adv-x="711" 
d="M319 328h-45l-37 -209q-5 -22 -5 -41q0 -31 19 -44.5t38.5 -16.5t19.5 -10q0 -2 -1 -5v-2h-320v2q0 9 8.5 12.5t21.5 7.5t27 12t27 33t20 64l74 430q5 35 5 38q0 29 -18 41t-36 15t-18 10q0 6 1 8h317q1 -13 -12 -18t-30 -6.5t-34.5 -18.5t-23.5 -50l-40 -234h52l199 194
q56 54 56 80q0 16 -17.5 23t-35 10.5t-16.5 12.5v8h245q0 -14 -13 -19.5t-35 -9t-65 -29t-90 -71.5l-122 -119l146 -315q16 -35 37 -56t36.5 -26t26 -10t10.5 -12v-7h-306v6q1 8 15.5 11.5t29 10.5t14.5 24q0 13 -8 30z" />
    <glyph glyph-name="Lambda" unicode="&#x39b;" horiz-adv-x="658" 
d="M322 530l-206 -408q-19 -38 -19 -58q0 -24 20 -34t40 -13.5t20 -9.5q0 -4 -1 -7h-217q0 11 12 15.5t29.5 7t43 25.5t47.5 65l289 563h64l108 -587q7 -37 25 -53t33.5 -19t16.5 -10q0 -2 -0.5 -4t-0.5 -3h-299q0 5 1 8q2 5 21 9.5t36.5 17t17.5 38.5q0 8 -1 14l-77 443h-3
z" />
    <glyph glyph-name="Mu" unicode="&#x39c;" horiz-adv-x="880" 
d="M454 202q9 -32 34 -130l-13 -5q-31 78 -146 78l-115 449h-3l-86 -460q-3 -18 -3 -32q0 -33 13 -52.5t28.5 -23t28.5 -7.5t13 -11v-8h-224v6q1 7 12 10.5t27 8.5t33 16.5t33 42t25 76.5l78 402q5 20 5 35q0 28 -18 40.5t-36.5 16t-18.5 9.5q0 2 0.5 5.5t0.5 5.5h215
l112 -449l255 449h223q0 -13 -14 -18.5t-32 -7.5t-35.5 -19.5t-22.5 -52.5l-73 -477q-2 -16 -2 -21q0 -31 19 -44.5t37.5 -17t18.5 -9.5q0 -2 -0.5 -4t-0.5 -3h-312v6q2 7 15 11.5t28.5 8t31 21.5t20.5 50l78 503h-2z" />
    <glyph glyph-name="Nu" unicode="&#x39d;" horiz-adv-x="715" 
d="M335 674q33 -65 115.5 -222t124.5 -241l2 1l51 298q6 30 6 59q0 33 -14 52.5t-31 23.5t-31 7.5t-14 10.5q0 8 1 10h233q0 -11 -7.5 -16.5t-19.5 -6.5t-27 -8t-29.5 -18.5t-27.5 -40.5t-21 -72l-90 -518l-50 -3l-309 600h-2l-77 -448q-3 -15 -3 -39q0 -33 14 -52.5
t31.5 -23.5t31.5 -8t14 -11q0 -2 -0.5 -4.5t-0.5 -3.5h-231v6q1 9 17.5 14t37.5 10.5t43 36t31 84.5l69 410q5 25 5 34q0 23 -12 36t-26 16t-26 7.5t-12 12.5v7h234z" />
    <glyph glyph-name="Xi" unicode="&#x39e;" horiz-adv-x="643" 
d="M168 271q-2 1 -6.5 2t-6.5 2q50 134 154 134q24 0 73 -14t70 -14q43 0 66 47q10 -2 14 -2q-40 -138 -143 -138q-29 0 -76 16t-65 16q-49 0 -80 -49zM612 246q-10 -30 -26.5 -83t-30.5 -96.5t-26 -81.5q-96 15 -245 15q-164 0 -264 -16l14 261q2 0 4 0.5t3 0.5q9 0 12 -19
q13 -75 37.5 -92.5t109.5 -17.5h178q83 0 126.5 21.5t82.5 90.5q10 18 19 18q1 0 3 -0.5t3 -0.5zM511 562h-254q-54 0 -84 -13t-52 -53q-10 -19 -17 -19q-1 0 -4 1l-4 1q9 36 54 212q80 -17 252 -17q161 0 244 16q-16 -142 -23 -213h-4q-11 0 -14 18q-8 44 -25 55.5
t-69 11.5z" />
    <glyph glyph-name="Omicron" unicode="&#x39f;" horiz-adv-x="718" 
d="M436 686q133 0 200.5 -76.5t67.5 -196.5q0 -79 -28 -155t-77 -136.5t-123 -97.5t-160 -37q-131 0 -198 75.5t-67 195.5q0 112 48.5 209.5t137.5 158t199 60.5zM434 669q-54 0 -99 -55.5t-71.5 -137t-41 -163.5t-14.5 -145q0 -164 115 -164q53 0 98 53t71.5 132.5
t41 162.5t14.5 152q0 165 -114 165z" />
    <glyph glyph-name="Pi" unicode="&#x3a0;" horiz-adv-x="755" 
d="M90 113q32 178 79 455q4 28 4 29q0 28 -19.5 41t-39.5 16.5t-20 9.5q0 3 1 9h709q-1 -1 -1 -3q-1 -10 -14 -14t-29 -6.5t-32.5 -19.5t-21.5 -50l-80 -466q-5 -20 -5 -35q0 -32 20 -45.5t40 -16.5t20 -10q0 -6 -1 -7h-321q1 2 1 6q1 7 14 11t29 7.5t32 23t22 53.5l95 554
h-242q-62 -366 -94 -549q-3 -14 -3 -30q0 -30 17.5 -43t35 -16t17.5 -10q0 -1 -1 -4v-3h-313q0 12 13 16.5t29.5 6.5t34 24.5t24.5 65.5z" />
    <glyph glyph-name="Rho" unicode="&#x3a1;" horiz-adv-x="611" 
d="M89 105l78 453q6 32 6 41q0 22 -11.5 34.5t-25.5 15.5t-25.5 6.5t-11.5 9.5v3q0 1 0.5 3t0.5 3h315q100 0 164.5 -46t64.5 -128q0 -58 -26 -104t-69 -73t-94.5 -41t-107.5 -14q-44 0 -83 6l-27 -154q-5 -28 -5 -41q0 -30 20.5 -43t41 -17t20.5 -12q0 -5 -1 -7h-327
q0 12 13.5 18t30.5 8.5t35 22t24 56.5zM330 655q-9 -54 -19.5 -114.5t-23.5 -134.5t-20 -114q6 -1 17 -1q91 0 147.5 65.5t56.5 168.5q0 62 -34 96t-92 34h-32z" />
    <glyph glyph-name="Sigma" unicode="&#x3a3;" horiz-adv-x="600" 
d="M598 702l3 -1q-5 -81 -17 -243h-5q-3 0 -5.5 0.5t-4 3.5t-2 6.5t-1.5 9.5q-16 103 -51.5 140t-115.5 37h-143l120 -265l-262 -268h268q69 0 107 27t82 114q11 23 20 23h3q2 -1 4 -1l-89 -285h-526q0 5 2 17l267 278q-29 65 -164 359q1 3 2 9.5t2 10.5h295q142 0 211 28z
" />
    <glyph glyph-name="Tau" unicode="&#x3a4;" horiz-adv-x="608" 
d="M104 697l3 1q76 -24 184 -24h141q151 0 223 23l3 -1q-2 -35 -15 -247h-3q-10 0 -14 18q-21 102 -51.5 145.5t-97.5 43.5h-30l-96 -556q-6 -33 4.5 -51t26.5 -21.5t30 -8t14 -12.5l-1 -7h-322l1 7q1 8 15 12.5t30 8t32.5 21t21.5 48.5l98 559h-29q-60 0 -108.5 -44
t-97.5 -142q-10 -21 -21 -19l-4 1z" />
    <glyph glyph-name="Upsilon" unicode="&#x3a5;" horiz-adv-x="607" 
d="M380 327l126 200q33 51 33 78q0 17 -11 27.5t-23.5 13.5t-23.5 7.5t-11 10.5v4q1 3 1 5h218q1 -12 -10 -17.5t-29.5 -9.5t-49.5 -29.5t-60 -71.5l-154 -240l-33 -179q-4 -28 -4 -41q0 -28 13 -43.5t28 -18.5t27 -7.5t11 -13.5v-2h-327l1 6q1 8 15 12t30.5 8t33.5 24.5
t23 57.5l29 167l-96 307q-10 33 -30 49t-34.5 21t-14.5 13q0 2 0.5 4.5t0.5 3.5h312v-5q0 -9 -12.5 -14.5t-27 -7.5t-27 -12.5t-12.5 -29.5q0 -10 13 -51l74 -226h1z" />
    <glyph glyph-name="Phi" unicode="&#x3a6;" horiz-adv-x="827" 
d="M395 585q2 12 2 14q0 22 -11.5 34.5t-25.5 15.5t-25.5 6.5t-11.5 9.5v3q0 1 0.5 3t0.5 3h319q0 -13 -13.5 -18t-30 -6.5t-33.5 -18t-23 -49.5q121 -5 197.5 -62.5t76.5 -145.5q0 -110 -96 -185.5t-261 -87.5q-2 -20 -2 -22q0 -30 20.5 -44t41 -18t20.5 -10q0 -5 -1 -7
h-327q0 11 13.5 15.5t30 7t33.5 22t23 56.5q-119 10 -192.5 63t-73.5 142q0 112 98.5 185t250.5 94zM663 408q0 68 -32 109.5t-91 47.5l-76 -446q82 8 140.5 91t58.5 198zM200 274q0 -70 31 -110t85 -45l76 445q-82 -14 -137 -95.5t-55 -194.5z" />
    <glyph glyph-name="Chi" unicode="&#x3a7;" horiz-adv-x="658" 
d="M356 89l-74 194l-94 -119q-64 -81 -64 -109q0 -19 17 -26.5t34 -10.5t17 -11q0 -2 -0.5 -4t-0.5 -3h-228q0 11 8.5 16t22.5 7.5t40 16.5t54 39q39 36 95 106l93 115l-96 242q-3 8 -18 43q-14 33 -35.5 48t-35.5 19.5t-14 11.5q0 1 2 9h322v-4q0 -10 -11.5 -14.5t-26 -6
t-26 -12t-11.5 -30.5q0 -22 19 -67l54 -131l113 146q28 36 28 63q0 14 -9 21.5t-19.5 9.5t-19.5 6t-9 10q0 4 1 9h224v-5q0 -9 -14 -14.5t-36.5 -12t-60.5 -34t-76 -74.5l-115 -141l125 -307q14 -34 38.5 -49.5t41.5 -19t17 -9.5q0 -5 -1 -7h-341l1 7q1 8 19.5 12t36.5 13.5
t18 32.5q0 11 -5 24z" />
    <glyph glyph-name="Psi" unicode="&#x3a8;" horiz-adv-x="865" 
d="M562 580l-65 -369q27 4 50.5 14.5t41.5 30t32 39t25.5 52t19 56t15.5 65t12.5 65.5t11.5 69.5t10 66.5l5 5h213v-3q-1 -10 -13.5 -14.5t-27.5 -7t-30 -19t-20 -47.5l-16 -93q-21 -123 -105.5 -203t-225.5 -92l-13 -65q-5 -22 -5 -44q0 -28 12.5 -44t28 -19t28 -6.5
t12.5 -9.5q0 -2 -0.5 -4t-0.5 -3h-326v2q0 11 13.5 15.5t30.5 7.5t34 22t23 54l16 94q-115 12 -173.5 70.5t-58.5 150.5q0 35 11.5 104t11.5 75q0 27 -16 39.5t-32 17t-16 12.5q0 1 0.5 3t0.5 4q98 3 215 8l4 -6l-36 -205q-13 -76 -13 -104q0 -139 105 -153l61 350
q5 30 5 39q0 28 -17.5 39.5t-35.5 14.5t-18 10q0 2 0.5 5t0.5 5h312q0 -13 -12.5 -17.5t-29 -6t-33 -19t-22.5 -51.5z" />
    <glyph glyph-name="Omega" unicode="&#x3a9;" horiz-adv-x="762" 
d="M26 -15l-3 1q-2 44 -2.5 133t-1.5 121q1 0 3.5 0.5t3.5 0.5q7 0 11 -22q18 -107 60 -154.5t120 -47.5h51q-10 43 -70 90q-57 43 -91 91t-34 121q0 67 26.5 132t74.5 118t122.5 86t161.5 33q71 0 125.5 -21.5t86 -58.5t47 -81t15.5 -93q0 -158 -129 -268
q-26 -23 -72.5 -53t-79 -53.5t-42.5 -42.5h32q103 0 159 45.5t117 155.5q12 22 21 22h2q3 -1 4 -1l-84 -253l-2 -1q-114 15 -243 15h-30l-1 3q5 19 20 38t31.5 34.5t39 45.5t39.5 65q62 128 62 306q0 81 -30.5 129.5t-91.5 48.5q-69 0 -123.5 -62t-81.5 -155.5t-27 -195.5
q0 -65 14.5 -109t31.5 -78t20 -67l-2 -3h-44q-117 0 -216 -15z" />
    <glyph glyph-name="Iotadieresis" unicode="&#x3aa;" horiz-adv-x="388" 
d="M327 580l-80 -460q-5 -28 -5 -41q0 -30 20.5 -44t41 -18t20.5 -10q0 -5 -1 -7h-327q0 9 8.5 13t22 7t27 8.5t26 24t17.5 48.5l78 457q0 2 3 19.5t3 21.5q0 22 -11.5 34.5t-25.5 15.5t-25.5 6.5t-11.5 9.5v3q0 1 0.5 3t0.5 3h319q0 -13 -13.5 -18t-30.5 -6.5t-33.5 -18.5
t-22.5 -51zM210 867q23 0 37.5 -16.5t14.5 -40.5q0 -31 -23 -54.5t-52 -23.5q-22 0 -37.5 15.5t-15.5 38.5q0 32 23 56.5t53 24.5zM393 867q24 0 38.5 -16.5t14.5 -40.5q0 -31 -23 -54.5t-52 -23.5q-22 0 -37.5 15.5t-15.5 38.5q0 32 22.5 56.5t52.5 24.5z" />
    <glyph glyph-name="Upsilondieresis" unicode="&#x3ab;" horiz-adv-x="607" 
d="M380 327l126 200q33 51 33 78q0 17 -11 27.5t-23.5 13.5t-23.5 7.5t-11 10.5v4q1 3 1 5h218q1 -12 -10 -17.5t-29.5 -9.5t-49.5 -29.5t-60 -71.5l-154 -240l-33 -179q-4 -28 -4 -41q0 -28 13 -43.5t28 -18.5t27 -7.5t11 -13.5v-2h-327l1 6q1 8 15 12t30.5 8t33.5 24.5
t23 57.5l29 167l-96 307q-10 33 -30 49t-34.5 21t-14.5 13q0 2 0.5 4.5t0.5 3.5h312v-5q0 -9 -12.5 -14.5t-27 -7.5t-27 -12.5t-12.5 -29.5q0 -10 13 -51l74 -226h1zM512 865q24 0 38.5 -16.5t14.5 -40.5q0 -31 -23 -54.5t-52 -23.5q-22 0 -37.5 15.5t-15.5 38.5
q0 32 22.5 56.5t52.5 24.5zM329 865q23 0 37.5 -16.5t14.5 -40.5q0 -31 -23 -54.5t-52 -23.5q-22 0 -37.5 15.5t-15.5 38.5q0 32 23 56.5t53 24.5z" />
    <glyph glyph-name="alphatonos" unicode="&#x3ac;" horiz-adv-x="573" 
d="M532 458q-45 -173 -81 -427q49 31 92 77l10 -10q-98 -110 -157 -110q-68 0 -68 63q0 20 10 75.5t19 89.5h-2q-77 -229 -199 -229q-55 0 -90 36.5t-35 114.5q0 122 66 218t176 96q79 0 125 -50q63 12 120 56h14zM312 424q-40 0 -75 -51.5t-53.5 -120.5t-18.5 -129
q0 -88 47 -88q38 0 85.5 83t73.5 204l15 66q-34 36 -74 36zM254 504q-2 8 -4 12q44 33 74 71.5t40.5 63t26 41t37.5 16.5q19 0 28.5 -10.5t9.5 -26.5q0 -12 -10 -30.5t-31.5 -42.5t-66 -49.5t-104.5 -44.5z" />
    <glyph glyph-name="epsilontonos" unicode="&#x3ad;" horiz-adv-x="430" 
d="M185 230q1 1 1 4q-58 7 -84.5 32t-26.5 57q0 49 51 88.5t152 39.5q67 0 106.5 -25.5t39.5 -64.5q0 -23 -15.5 -40.5t-38.5 -17.5q-28 0 -43 17.5t-15 43.5q0 34 20 62q-12 3 -22 3q-45 0 -77.5 -30.5t-32.5 -79.5q0 -79 119 -81v-2l-2 -14q-71 -6 -112 -41.5t-41 -89.5
q0 -75 83 -75q78 0 150 49l7 -11q-84 -66 -200 -66q-180 0 -180 108q0 17 7 36t23.5 40t50.5 37t80 21zM205 504q-2 8 -4 12q44 33 74 71.5t40.5 63t26 41t37.5 16.5q19 0 28.5 -10.5t9.5 -26.5q0 -12 -10 -30.5t-31.5 -42.5t-66 -49.5t-104.5 -44.5z" />
    <glyph glyph-name="etatonos" unicode="&#x3ae;" horiz-adv-x="566" 
d="M176 454q35 0 53.5 -17.5t18.5 -47.5q0 -17 -12.5 -80.5t-28.5 -120.5l3 -1q50 141 109 203.5t108 62.5q89 0 89 -91q0 -22 -6 -56l-90 -434q53 32 95 79l10 -10q-96 -110 -158 -110q-71 0 -71 65q0 16 5 39l80 366q8 38 8 57q0 35 -27 35q-36 0 -91.5 -103.5
t-76.5 -218.5l-14 -71h-129l77 414q-43 -27 -98 -86l-10 11q97 115 156 115zM246 504q-2 8 -4 12q44 33 74 71.5t40.5 63t26 41t37.5 16.5q19 0 28.5 -10.5t9.5 -26.5q0 -12 -10 -30.5t-31.5 -42.5t-66 -49.5t-104.5 -44.5z" />
    <glyph glyph-name="iotatonos" unicode="&#x3af;" horiz-adv-x="318" 
d="M181 454q35 0 54.5 -16.5t19.5 -47.5q0 -17 -4 -34l-66 -335q43 27 99 84l9 -8q-96 -110 -156 -110q-72 0 -72 70q0 13 3 30l65 333q-36 -25 -99 -88l-10 9q100 113 157 113zM112 504q-2 8 -4 12q44 33 74 71.5t40.5 63t26 41t37.5 16.5q19 0 28.5 -10.5t9.5 -26.5
q0 -12 -10 -30.5t-31.5 -42.5t-66 -49.5t-104.5 -44.5z" />
    <glyph glyph-name="upsilondieresistonos" unicode="&#x3b0;" horiz-adv-x="561" 
d="M81 178l47 234q-41 -25 -98 -84q-1 2 -5 6.5t-5 5.5q97 112 157 112q35 0 54 -17.5t19 -48.5q0 -5 -4 -34q-5 -39 -23 -125t-24 -118t-6 -48q0 -59 50 -59q34 0 63.5 34t47.5 85t28.5 107t10.5 104q0 81 -34 111l6 15q84 -7 122.5 -57t38.5 -121q0 -70 -31.5 -135
t-99 -111t-156.5 -46q-163 0 -163 146q0 17 5 44zM225 489l-6 10q37 41 61 85.5t32 70t21.5 42.5t36.5 17q15 0 25 -9.5t10 -23.5q0 -34 -43 -90.5t-137 -101.5zM196 668q23 0 37.5 -16t14.5 -40q0 -31 -22.5 -54.5t-51.5 -23.5q-23 0 -38 16t-15 39q0 31 23 55t52 24z
M480 668q24 0 38.5 -16t14.5 -40q0 -31 -22.5 -54.5t-51.5 -23.5q-23 0 -38 16t-15 39q0 31 22.5 55t51.5 24z" />
    <glyph glyph-name="alpha" unicode="&#x3b1;" horiz-adv-x="573" 
d="M532 458q-45 -173 -81 -427q49 31 92 77l10 -10q-98 -110 -157 -110q-68 0 -68 63q0 20 10 75.5t19 89.5h-2q-77 -229 -199 -229q-55 0 -90 36.5t-35 114.5q0 122 66 218t176 96q79 0 125 -50q63 12 120 56h14zM312 424q-40 0 -75 -51.5t-53.5 -120.5t-18.5 -129
q0 -88 47 -88q38 0 85.5 83t73.5 204l15 66q-34 36 -74 36z" />
    <glyph glyph-name="beta" unicode="&#x3b2;" horiz-adv-x="531" 
d="M90 443q20 120 94.5 204t176.5 84q79 0 117.5 -37t38.5 -93q0 -72 -54.5 -130.5t-159.5 -60.5l-1 -3q55 -1 94.5 -14.5t60 -37t29.5 -49t9 -55.5q0 -107 -70.5 -185t-171.5 -78q-68 0 -114 33l-4 -2q-25 -104 -86.5 -175t-144.5 -71q-35 0 -57.5 17.5t-22.5 42.5
t16.5 39.5t39.5 14.5q30 0 49 -25.5t18 -66.5q31 11 44 74q5 24 23 121t42.5 238.5t33.5 214.5zM247 399l2 16q71 8 111 72.5t40 157.5q0 33 -14.5 51.5t-41.5 18.5q-72 0 -94 -110l-109 -566q35 -27 74 -27q42 0 77 46t52 106.5t17 114.5q0 52 -28 84.5t-86 35.5z" />
    <glyph glyph-name="gamma" unicode="&#x3b3;" horiz-adv-x="459" 
d="M396 460q23 0 39.5 -17.5t16.5 -49.5q0 -65 -53.5 -139.5t-141.5 -162.5q0 -40 -4.5 -80.5t-16.5 -86.5t-31 -80.5t-51.5 -57.5t-74.5 -23q-45 0 -63.5 21t-18.5 47q0 92 137 200q1 100 -13.5 204t-38.5 176q-28 -27 -84 -95l-9 8q39 60 75 95.5t77 35.5q32 0 50 -18
t30 -51q35 -101 37 -271q118 114 155 206q-73 19 -73 84q0 17 13.5 36t42.5 19zM133 12q-111 -101 -111 -169q0 -27 25 -27q33 0 58.5 58t27.5 138z" />
    <glyph glyph-name="delta" unicode="&#x3b4;" 
d="M224 -13q-98 0 -147 49.5t-49 128.5q0 92 63.5 172.5t172.5 92.5q-44 27 -74.5 67t-30.5 83q0 71 56 115t145 44q67 0 112.5 -25t45.5 -73q0 -26 -15.5 -44t-39.5 -18q-26 0 -40.5 17.5t-14.5 44.5q0 43 27 67q-23 14 -57 14q-40 0 -73.5 -23.5t-33.5 -65.5q0 -26 24 -54
t58.5 -57t68.5 -62.5t58 -83.5t24 -108q0 -49 -18.5 -97.5t-52 -90t-88.5 -67.5t-121 -26zM229 2q55 0 95.5 85.5t40.5 174.5q0 94 -84 156q-50 -33 -84 -132t-34 -189q0 -95 66 -95z" />
    <glyph glyph-name="epsilon" unicode="&#x3b5;" horiz-adv-x="430" 
d="M185 230q1 1 1 4q-58 7 -84.5 32t-26.5 57q0 49 51 88.5t152 39.5q67 0 106.5 -25.5t39.5 -64.5q0 -23 -15.5 -40.5t-38.5 -17.5q-28 0 -43 17.5t-15 43.5q0 34 20 62q-12 3 -22 3q-45 0 -77.5 -30.5t-32.5 -79.5q0 -79 119 -81v-2l-2 -14q-71 -6 -112 -41.5t-41 -89.5
q0 -75 83 -75q78 0 150 49l7 -11q-84 -66 -200 -66q-180 0 -180 108q0 17 7 36t23.5 40t50.5 37t80 21z" />
    <glyph glyph-name="zeta" unicode="&#x3b6;" horiz-adv-x="383" 
d="M550 710q0 -2 2 -5.5t3 -5.5q-75 -48 -142 -100t-131 -113.5t-102 -126t-38 -119.5q0 -34 22.5 -62t55 -48t65 -39t55 -43.5t22.5 -53.5q0 -51 -55 -98.5t-160 -59.5q-2 8 -4 14q59 11 91 34.5t32 45.5q0 16 -24.5 33t-59.5 34.5t-70 39.5t-59.5 58t-24.5 80
q0 58 40.5 126t108.5 132t135.5 117t143.5 102l-1 2q-41 -25 -105.5 -46t-110.5 -21q-77 0 -77 62q0 51 42 100h12q5 -43 43 -64.5t99 -21.5q100 0 192 47z" />
    <glyph glyph-name="eta" unicode="&#x3b7;" horiz-adv-x="566" 
d="M176 454q35 0 53.5 -17.5t18.5 -47.5q0 -17 -12.5 -80.5t-28.5 -120.5l3 -1q50 141 109 203.5t108 62.5q89 0 89 -91q0 -22 -6 -56l-90 -434q53 32 95 79l10 -10q-96 -110 -158 -110q-71 0 -71 65q0 16 5 39l80 366q8 38 8 57q0 35 -27 35q-36 0 -91.5 -103.5
t-76.5 -218.5l-14 -71h-129l77 414q-43 -27 -98 -86l-10 11q97 115 156 115z" />
    <glyph glyph-name="theta" unicode="&#x3b8;" horiz-adv-x="530" 
d="M356 737q177 0 177 -235q0 -124 -36.5 -239.5t-111.5 -195t-171 -79.5q-175 0 -175 234q0 125 36 240.5t110.5 195t170.5 79.5zM218 2q56 0 90.5 86.5t72.5 279.5h-187q-33 -167 -33 -244q0 -122 57 -122zM351 721q-36 0 -66 -49t-49.5 -117.5t-39.5 -169.5h188
q25 150 25 228q0 56 -13 82t-45 26z" />
    <glyph glyph-name="iota" unicode="&#x3b9;" horiz-adv-x="318" 
d="M181 454q35 0 54.5 -16.5t19.5 -47.5q0 -17 -4 -34l-66 -335q43 27 99 84l9 -8q-96 -110 -156 -110q-72 0 -72 70q0 13 3 30l65 333q-36 -25 -99 -88l-10 9q100 113 157 113z" />
    <glyph glyph-name="kappa" unicode="&#x3ba;" horiz-adv-x="562" 
d="M178 453q67 0 67 -84q0 -59 -39 -204h4q41 137 122.5 213.5t151.5 76.5q28 0 51 -17.5t23 -44.5q0 -24 -16.5 -38.5t-41.5 -14.5q-65 0 -65 88q-59 -21 -109 -82q64 -208 124 -315q16 10 42.5 34.5t40.5 40.5l9 -9q-87 -107 -165 -107q-42 0 -76.5 70.5t-53.5 165.5
q-11 -25 -21 -56t-15.5 -52t-15 -60.5t-13.5 -57.5h-130q70 369 78 413q-41 -26 -98 -85q-7 7 -9 10q96 115 155 115z" />
    <glyph glyph-name="lambda" unicode="&#x3bb;" horiz-adv-x="499" 
d="M64 95l174 325l-20 272q-27 -18 -91 -80l-9 9q49 58 87 84t80 26q33 0 49 -21t20 -64q6 -77 47 -614q29 25 85 98l9 -8q-44 -65 -79.5 -99.5t-71.5 -34.5q-40 0 -57 21.5t-21 67.5l-26 315l-160 -303q-11 -21 -11 -35t11.5 -22t25 -10t25 -5.5t11.5 -10.5q0 -2 -0.5 -3.5
t-0.5 -2.5h-194q0 12 11 16.5t26.5 6t38 19.5t41.5 53z" />
    <glyph glyph-name="nu" unicode="&#x3bd;" horiz-adv-x="466" 
d="M152 453q45 0 60 -44t33 -194q7 -62 12 -98q65 67 103 114t56 91q-28 6 -48 26t-20 52q0 18 12.5 37.5t40.5 19.5q27 0 40.5 -18.5t13.5 -47.5q0 -41 -32.5 -97t-71.5 -100t-97.5 -107.5t-84.5 -94.5h-23q-25 243 -59 406q-34 -29 -75 -87l-10 8q86 134 150 134z" />
    <glyph glyph-name="xi" unicode="&#x3be;" horiz-adv-x="388" 
d="M327 736q74 0 115.5 -27.5t41.5 -68.5q0 -27 -15.5 -43.5t-38.5 -16.5q-28 0 -41.5 18t-13.5 46q0 38 20 66q-22 8 -43 8q-54 0 -92.5 -45.5t-38.5 -122.5q0 -54 41.5 -87.5t128.5 -37.5q0 -5 -4 -17q-106 0 -173.5 -46t-67.5 -116q0 -33 24 -63.5t58 -53.5t67.5 -45
t57.5 -47.5t24 -51.5q0 -50 -52 -95t-153 -60l-3 14q55 11 85 32.5t30 42.5q0 18 -26 37.5t-63 40t-74.5 45t-63.5 62t-26 81.5q0 83 65 149.5t187 79.5l2 3q-84 5 -134 42t-50 98q0 82 66 130.5t160 48.5z" />
    <glyph glyph-name="omicron" unicode="&#x3bf;" 
d="M308 453q99 0 147 -50.5t48 -131.5q0 -111 -81 -197.5t-207 -86.5q-95 0 -139.5 49.5t-44.5 130.5q0 117 78 201.5t199 84.5zM306 436q-41 0 -75 -56.5t-50.5 -131t-16.5 -142.5q0 -103 58 -103q36 0 66 36t47.5 89t27 106t9.5 95q0 107 -66 107z" />
    <glyph glyph-name="pi" unicode="&#x3c0;" horiz-adv-x="583" 
d="M115 419h-75l3 16h543l-3 -16h-69l-77 -397q44 28 96 83q2 -1 5.5 -4t4.5 -4q-93 -110 -156 -110q-71 0 -71 74q0 22 11 80l55 278h-135l-42 -225q-8 -44 -19 -84t-33.5 -91t-51 -87t-73 -61.5t-97.5 -25.5q-33 0 -54.5 17t-21.5 43q0 24 17 38.5t42 14.5
q26 0 46.5 -22.5t20.5 -67.5q20 5 29.5 29t19.5 74z" />
    <glyph glyph-name="rho" unicode="&#x3c1;" horiz-adv-x="561" 
d="M337 436q-59 0 -108 -87t-73 -200.5t-24 -212.5q0 -121 88 -121q21 0 60 15.5t71 44.5l8 -10q-47 -43 -106 -70t-108 -27q-41 0 -70 16t-43 43t-19.5 53.5t-5.5 57.5q0 56 11 120.5t37.5 135t64.5 127t97.5 93.5t131.5 37q82 0 132.5 -47.5t50.5 -129.5
q0 -105 -77.5 -192t-187.5 -87q-38 0 -61.5 18.5t-23.5 46.5q0 22 12.5 37t32.5 15q27 0 43 -21.5t16 -51.5q0 -16 -4 -28l1 -1h1q49 7 83 110t34 194q0 122 -64 122z" />
    <glyph glyph-name="sigma1" unicode="&#x3c2;" horiz-adv-x="433" 
d="M33 201q0 113 78 182t185 69q66 0 103.5 -27t37.5 -65q0 -26 -15.5 -43.5t-40.5 -17.5q-27 0 -42.5 19t-15.5 45q0 33 22 63q-12 6 -35 6q-68 0 -113 -49t-45 -123q0 -36 20.5 -67.5t49.5 -54t58 -43.5t49.5 -45t20.5 -50q0 -49 -49 -91t-151 -56l-3 14q56 12 82.5 33
t26.5 41q0 17 -35 41t-76.5 48.5t-76.5 70t-35 100.5z" />
    <glyph glyph-name="sigma" unicode="&#x3c3;" horiz-adv-x="540" 
d="M411 420l-2 -4q94 -42 94 -154q0 -48 -18.5 -96t-52.5 -88.5t-89.5 -65.5t-122.5 -25q-94 0 -142 51t-48 128q0 114 78 192t197 78h242l-3 -16h-133zM304 421q-45 0 -79 -64.5t-48 -136.5t-14 -126q0 -93 62 -93q46 0 81.5 63t50 134.5t14.5 124.5q0 98 -67 98z" />
    <glyph glyph-name="tau" unicode="&#x3c4;" horiz-adv-x="363" 
d="M387 419h-113l-76 -390q48 29 100 81l9 -9q-47 -56 -92 -84t-77 -28q-31 0 -46.5 14.5t-15.5 51.5q0 21 7 58q4 20 29 144.5t32 161.5h-111l2 17h355z" />
    <glyph glyph-name="upsilon" unicode="&#x3c5;" horiz-adv-x="560" 
d="M81 178l47 234q-41 -25 -98 -84q-1 2 -5 6.5t-5 5.5q97 112 157 112q35 0 54 -17.5t19 -48.5q0 -5 -4 -34q-5 -39 -23 -125t-24 -118t-6 -48q0 -59 50 -59q34 0 63.5 34t47.5 85t28.5 107t10.5 104q0 81 -34 111l6 15q84 -7 122.5 -57t38.5 -121q0 -70 -31.5 -135
t-99 -111t-156.5 -46q-163 0 -163 146q0 17 5 44z" />
    </font>
</defs>
</svg>
