<?xml version="1.0" standalone="no"?>
<!DOCTYPE svg PUBLIC "-//W3C//DTD SVG 1.1//EN" "http://www.w3.org/Graphics/SVG/1.1/DTD/svg11.dtd" >
<svg xmlns="http://www.w3.org/2000/svg" xmlns:xlink="http://www.w3.org/1999/xlink" version="1.1">
<metadata>
Created by FontForge 20170731 at Tue Apr 19 15:05:48 2011
 By Aleksey,,,
Copyright (c) 2010 Parachute :, www.parachute.gr.  All rights reserved.
</metadata>
<defs>
<font id="PFRegalDisplayPro-BlackItalic" horiz-adv-x="607" >
  <font-face 
    font-family="PF Regal Display Pro Black"
    font-weight="900"
    font-style="italic"
    font-stretch="normal"
    units-per-em="1000"
    panose-1="2 0 5 3 0 0 0 9 0 4"
    ascent="750"
    descent="-250"
    x-height="455"
    cap-height="673"
    bbox="-195 -330 1176 951"
    underline-thickness="50"
    underline-position="-200"
    unicode-range="U+0020-FB06"
  />
<missing-glyph horiz-adv-x="434" 
d="M1 0v694h431v-694h-431zM216 408q42 75 124 225h-248q71 -128 124 -225zM253 347q20 -36 59 -107.5t59 -106.5v430q-20 -36 -59 -108t-59 -108zM93 62h247l-124 224zM61 562v-429q24 41 66.5 118t53.5 96q-105 190 -120 215z" />
    <glyph glyph-name="f_t" unicode="ft" horiz-adv-x="615" 
d="M324 63q0 31 12 91q34 176 52 264h-127l-14 -91q-48 -289 -125 -420t-204 -131q-39 0 -63 20t-24 48q0 27 18 44t43 17q35 0 55.5 -28t20.5 -77q31 7 49 91q19 91 44 282t36 245h-83q0 8 2 18h85q33 140 111.5 221.5t167.5 81.5q41 0 67 -17.5t26 -45.5t-19 -44t-47 -16
q-32 0 -52 24.5t-20 76.5q-14 -6 -25.5 -32t-21 -76.5t-13.5 -80.5t-12 -92h129q64 16 110.5 62.5t70.5 114.5h15l-34 -177h108q0 -2 -1.5 -8.5t-1.5 -9.5h-108q-52 -281 -71 -386q54 39 94 83l11 -10q-99 -118 -174 -118q-41 0 -64 19.5t-23 56.5z" />
    <glyph glyph-name="f_f_t" unicode="fft" horiz-adv-x="898" 
d="M-13 -216q34 189 118 634h-80q2 8 2 17h81q18 77 53.5 134t81 88t92 45.5t95.5 14.5q66 0 86 -40q74 70 165 70q35 0 59.5 -17.5t24.5 -47.5q0 -28 -19.5 -44t-47.5 -16q-30 0 -51.5 22t-21.5 71q0 1 0.5 4t0.5 5q-11 -6 -20 -23.5t-16.5 -50.5t-12 -59.5t-12 -77.5
t-11.5 -78h122q64 16 111 63t71 115h15l-34 -178h107q-2 -14 -2 -17h-108l-72 -386q52 35 94 83l11 -10q-96 -117 -179 -117q-38 0 -60 19.5t-22 55.5q0 23 7 61l57 294h-120l-15 -98q-47 -285 -127 -413t-201 -128q-42 0 -65 19.5t-23 47.5q0 29 18 46.5t45 17.5
q73 0 73 -107q31 12 53.5 92.5t33.5 172t23 200t22 150.5h-124q-11 -62 -76 -421q-146 -8 -181 -193q-2 -12 -4 -20h-17zM268 435h124q19 90 58 156q-64 16 -64 83q0 15 2 23q-44 -9 -68 -54t-40 -139z" />
    <glyph glyph-name="fj" unicode="fj" horiz-adv-x="584" 
d="M-13 -188l113 606h-83l3 18h84q30 133 112 218t199 85q55 0 89 -20.5t34 -55.5q0 -31 -18.5 -47t-46.5 -16q-37 0 -58.5 27t-21.5 68q0 11 3 25q-20 -1 -35.5 -9t-28 -28t-20.5 -39t-17 -57.5t-14.5 -67t-14.5 -83.5h83q95 0 207 21l4 -3q-9 -52 -30.5 -171.5
t-34.5 -192.5q-8 -43 -23 -84.5t-41 -85.5t-59 -77.5t-81 -54.5t-103 -21q-39 0 -65 21t-26 49q0 29 19 47t48 18q32 0 53 -27.5t21 -73.5v-10q14 4 24.5 20.5t19.5 47.5t14 54t12 64l65 357q6 27 6 45q0 21 -13 30t-42 9h-62l-68 -393q-74 -7 -120.5 -51.5t-64.5 -139.5
l-5 -22h-17z" />
    <glyph glyph-name="ffj" unicode="ffj" horiz-adv-x="873" 
d="M551 418l-69 -393q-74 -7 -120 -52t-64 -140l-5 -22h-18l114 607h-122l-81 -436q-73 -5 -119 -55t-64 -155h-17q35 192 121 646h-85l3 18h85q18 77 52.5 134t79 88t91 45.5t95.5 14.5q32 0 57.5 -13t33.5 -35q82 69 191 69q52 0 84 -21t32 -55q0 -31 -18.5 -47t-46.5 -16
q-36 0 -57.5 24.5t-21.5 66.5q0 16 4 29q-47 -5 -73.5 -58t-46.5 -160l-12 -66h84q93 0 207 21l3 -3l-61 -343q-8 -45 -21.5 -88t-39 -90.5t-58 -83t-82 -58.5t-107.5 -23q-40 0 -66.5 20.5t-26.5 48.5q0 29 18.5 47t47.5 18q32 0 53 -27t21 -74v-10q10 3 18.5 9.5
t14.5 18.5t10.5 24t9 32t7 34.5t6.5 40.5t7 41l66 355q2 9 2 33q0 22 -13 30.5t-42 8.5h-61zM269 436h123q21 95 61 155q-67 15 -67 89q0 4 2 20q-47 -8 -69 -63t-50 -201z" />
    <glyph glyph-name="fb" unicode="fb" horiz-adv-x="868" 
d="M615 752l-45 -240q-33 -174 -67 -290h3l1 -1q44 124 92.5 178.5t109.5 54.5q54 0 91 -36.5t37 -113.5q0 -81 -28 -152t-85.5 -118t-131.5 -47q-83 0 -126 56q-81 -15 -147 -67h-16l122 645q7 33 7 50q0 44 -37 44q-38 0 -67.5 -34t-40.5 -100l-24 -145h80l-3 -18h-80
l-13 -73q-39 -223 -76 -328q-41 -120 -106 -180.5t-147 -60.5q-40 0 -63.5 20.5t-23.5 48.5q0 27 17.5 42.5t41.5 15.5q33 0 55 -28t22 -74q19 5 30 26t20 68q18 89 43 278t37 245h-84l3 18h84q27 133 111.5 215t204.5 82q20 0 38 -1q114 17 157 23zM634 395
q-30 0 -72 -78.5t-69 -197.5l-15 -66q28 -32 61 -32q51 0 91 94t40 193q0 27 -1.5 43t-10 30t-24.5 14z" />
    <glyph glyph-name="ffb" unicode="ffb" horiz-adv-x="1154" 
d="M385 418h-120l-74 -408q-148 -12 -181 -194l-2 -15h-18q38 205 116 617h-84l3 18h84q18 77 53 134t80 88t91.5 45t96.5 14q33 0 56.5 -12.5t31.5 -33.5q79 62 185 62q20 0 34 -1q27 4 80.5 12t80.5 11l2 -3l-42 -227q-36 -187 -69 -303h1l2 -1q44 124 92.5 178.5
t109.5 54.5q54 0 91 -36.5t37 -113.5q0 -81 -28 -152t-85.5 -118t-131.5 -47q-84 0 -128 57q-78 -14 -145 -68h-16l120 640q8 37 8 55q0 44 -37 44q-29 0 -49 -16.5t-34.5 -55t-23.5 -84.5t-20 -123h80l-3 -18h-80l-12 -75q-46 -287 -123.5 -428.5t-202.5 -141.5
q-40 0 -65.5 19t-25.5 51q0 26 16.5 42t42.5 16q36 0 57.5 -28.5t21.5 -75.5q28 13 43 75q18 82 44.5 284.5t39.5 261.5zM919 395q-31 0 -71 -77t-69 -199l-16 -66q28 -32 61 -32q36 0 67.5 54t48 123t16.5 125q0 72 -37 72zM268 436h121q20 93 61 155q-64 16 -64 84
q0 14 2 22q-12 -3 -21.5 -8.5t-17 -11t-14.5 -16l-12 -18t-10.5 -23.5t-9 -26t-8.5 -33t-8 -36t-9 -42.5t-10 -46.5z" />
    <glyph glyph-name="fh" unicode="fh" horiz-adv-x="886" 
d="M692 287q0 110 -48 110q-47 0 -95 -116t-79 -281h-162l115 612q9 45 9 59q0 44 -37 44q-38 0 -67.5 -34t-40.5 -100l-24 -145h80l-3 -18h-80l-17 -97q-36 -205 -71 -304q-87 -241 -254 -241q-36 0 -61.5 21.5t-25.5 47.5q0 27 17.5 43.5t41.5 16.5q35 0 56 -27t21 -75
q36 9 50 89q19 90 43.5 281t36.5 245h-84l3 18h84q28 135 113 216.5t208 81.5q11 0 33 -2q27 3 79 11.5t79 11.5l4 -3q-10 -49 -31 -167.5t-38.5 -201.5t-39.5 -162h3q39 114 90 173.5t122 59.5q56 0 93.5 -38.5t37.5 -123.5q0 -130 -78.5 -231.5t-172.5 -101.5
q-42 0 -67 21.5t-25 51.5q0 24 14 41.5t38 17.5q28 0 43.5 -22t15.5 -56q0 -14 -5 -36q33 19 54.5 112.5t21.5 197.5z" />
    <glyph glyph-name="ffh" unicode="ffh" horiz-adv-x="1170" 
d="M268 436h121q20 93 61 155q-64 16 -64 84q0 14 2 22q-12 -3 -21.5 -8.5t-17 -11t-14.5 -16l-12 -18t-10.5 -23.5t-9 -26t-8.5 -33t-8 -36t-9 -42.5t-10 -46.5zM897 755l3 -3q-16 -89 -62 -329q-28 -143 -46 -202h2q39 114 90 173.5t123 59.5q57 0 95 -38.5t38 -123.5
q0 -131 -80 -232.5t-173 -101.5q-41 0 -66.5 22t-25.5 51q0 24 13.5 41t37.5 17q28 0 44.5 -22t16.5 -56q0 -17 -6 -35q33 17 54.5 109t21.5 201q0 111 -47 111q-37 0 -82 -87.5t-73 -213.5l-21 -96h-162l117 617q7 45 7 54q0 44 -37 44q-54 0 -80 -63.5t-47 -215.5h80
l-3 -18h-80l-13 -83q-49 -292 -125.5 -428.5t-207.5 -136.5q-39 0 -62.5 19.5t-23.5 47.5q0 27 17.5 42.5t43.5 15.5q33 0 54 -28.5t21 -73.5q35 9 50 91q13 75 41 272.5t42 261.5h-121l-76 -413q-149 -11 -182 -210h-18q22 122 66.5 356t50.5 267h-84l3 18h84q18 77 53 134
t80 88t91.5 45t96.5 14q33 0 56.5 -12.5t31.5 -33.5q79 62 185 62q20 0 29 -1q110 16 165 23z" />
    <glyph glyph-name="fk" unicode="fk" horiz-adv-x="852" 
d="M97 418h-84l3 18h84q27 134 112.5 216t208.5 82q11 0 33 -2q27 3 79 11.5t79 11.5l4 -3l-63 -322q-28 -144 -55 -232h4q41 128 100 192t126 64q40 0 62.5 -22.5t22.5 -55.5q0 -43 -39.5 -82t-100.5 -59q25 -112 77 -196q40 29 82 76l11 -10q-46 -55 -88.5 -87t-94.5 -32
q-107 0 -121 206q74 23 116.5 58t42.5 76q0 21 -11 36t-33 15q-47 0 -93.5 -81t-71.5 -206l-18 -90h-166q74 384 122 637q5 23 5 34q0 44 -37 44q-38 0 -67.5 -34t-40.5 -100l-24 -145h80l-3 -18h-79l-12 -72q-38 -225 -83 -345q-85 -221 -242 -221q-39 0 -65 19t-26 51
q0 25 16.5 41.5t42.5 16.5q36 0 57.5 -25.5t21.5 -69.5v-8q17 5 26.5 25t18.5 63q17 82 42 273.5t39 251.5z" />
    <glyph glyph-name="ffk" unicode="ffk" horiz-adv-x="1137" 
d="M732 732q110 16 165 23l3 -3l-63 -324q-27 -138 -54 -230h4q41 128 100 192t126 64q41 0 64 -23t23 -57q0 -43 -41 -81t-101 -58q25 -112 77 -196q38 27 83 76q1 -2 3 -3.5t4 -3.5l3 -3q-46 -55 -88.5 -87t-94.5 -32q-107 0 -121 206q74 23 117 58t43 76q0 20 -11.5 35.5
t-33.5 15.5q-47 0 -93.5 -81.5t-71.5 -205.5l-18 -90h-166l119 622q7 46 7 49q0 44 -37 44q-54 0 -80.5 -64.5t-46.5 -214.5h80l-3 -18h-80q-3 -13 -5.5 -36t-4.5 -32l-5 -30q-47 -282 -126.5 -415t-204.5 -133q-37 0 -61.5 20t-24.5 46q0 28 17.5 43.5t43.5 15.5
q35 0 55 -26t20 -74q36 13 47 70q17 86 45 288.5t41 262.5h-121l-75 -410q-147 -12 -180 -194l-2 -16h-18q31 168 116 620h-84l2 18h85q18 77 53 134t80 88t91.5 45t96.5 14q33 0 56.5 -12.5t31.5 -33.5q79 62 185 62q20 0 29 -1zM268 436h121q20 93 61 155q-64 16 -64 84
q0 14 2 22q-12 -3 -21.5 -8.5t-17 -11t-14.5 -16l-12 -18t-10.5 -23.5t-9 -26t-8.5 -33t-8 -36t-9 -42.5t-10 -46.5z" />
    <glyph glyph-name="longs_b" unicode="&#x17f;b" horiz-adv-x="868" 
d="M287 581q-5 -29 -24 -145t-28 -165t-26.5 -126t-35.5 -128q-42 -119 -108 -180t-147 -61q-40 0 -63.5 20.5t-23.5 48.5q0 27 17.5 42.5t41.5 15.5q32 0 54.5 -26t22.5 -70v-6q32 8 45 69l6 29q17 87 42 274.5t37 244.5h-84l3 18h84q27 133 111.5 215t204.5 82q15 0 38 -1
q114 17 157 23l4 -3l-68 -357q-12 -62 -44 -173h2q1 -1 2 -1q43 124 92 178.5t110 54.5q54 0 90.5 -36.5t36.5 -113.5q0 -127 -67 -222t-178 -95q-83 0 -126 56q-80 -15 -147 -67h-15l119 631q10 47 10 64q0 44 -37 44q-38 0 -67.5 -34t-40.5 -100zM634 395q-31 0 -72.5 -78
t-68.5 -198l-15 -66q28 -32 61 -32q51 0 91 106.5t40 198.5q0 69 -36 69z" />
    <glyph glyph-name="longs_h" unicode="&#x17f;h" horiz-adv-x="886" 
d="M287 581l-42 -249q-40 -226 -73 -315q-44 -123 -109.5 -182t-144.5 -59q-40 0 -63.5 21t-23.5 48q0 28 18 45.5t43 17.5q34 0 54.5 -28t20.5 -77q31 8 45 69q25 108 50 304t35 242h-84l3 18h84q28 134 112.5 215.5t205.5 81.5h15q3 0 10.5 -0.5t10.5 -0.5q27 3 79 11.5
t79 11.5l4 -3q-11 -64 -34 -181t-30 -157q-17 -92 -45 -193h3q39 114 90 173.5t122 59.5q56 0 93.5 -38.5t37.5 -123.5q0 -131 -77.5 -232.5t-174.5 -101.5q-41 0 -66.5 22.5t-25.5 50.5q0 24 14 41.5t38 17.5q28 0 43.5 -22t15.5 -57q0 -20 -5 -35l1 -1q33 20 54.5 114.5
t21.5 197.5q0 110 -48 110q-47 0 -95 -116t-79 -281h-162l114 610q7 34 10 61q0 44 -37 44q-38 0 -67.5 -33.5t-40.5 -100.5z" />
    <glyph glyph-name="longs_i" unicode="&#x17f;i" horiz-adv-x="609" 
d="M256 398q-45 -307 -122 -464t-209 -157q-39 0 -66.5 19.5t-27.5 48.5q0 27 16.5 42.5t42.5 15.5q35 0 56 -24t21 -68v-10q26 10 41 61q25 89 52 300.5t37 255.5h-84l2 18h87q30 135 115 219t203 84q51 0 85.5 -21t34.5 -54q0 -31 -18.5 -47.5t-47.5 -16.5
q-38 0 -58.5 24.5t-20.5 61.5q0 11 6 35q-57 0 -88 -78t-57 -245zM550 362q-1 -13 -5 -41q-9 -49 -28 -145t-27 -144q45 30 94 83l10 -10q-97 -118 -178 -118q-82 0 -82 82q0 21 8 61l54 279q-34 -23 -96 -87q-1 1 -3 3.5t-4 4.5t-4 3q57 67 97.5 94.5t78.5 27.5
q85 0 85 -93z" />
    <glyph glyph-name="longs_k" unicode="&#x17f;k" horiz-adv-x="852" 
d="M287 581l-38 -235q-35 -216 -83 -345q-85 -221 -242 -221q-39 0 -65 19t-26 51q0 25 16.5 41.5t42.5 16.5q36 0 57.5 -25.5t21.5 -69.5v-8q17 5 26.5 25t18.5 63q17 82 42 273.5t39 251.5h-84l3 18h84q27 134 112.5 216t208.5 82q11 0 33 -2q27 3 79 11.5t79 11.5l4 -3
l-63 -322q-28 -144 -55 -232h4q41 128 100 192t126 64q40 0 62.5 -22.5t22.5 -55.5q0 -43 -39.5 -82t-100.5 -59q25 -112 77 -196q40 29 82 76l11 -10q-46 -55 -88.5 -87t-94.5 -32q-107 0 -121 206q74 23 116.5 58t42.5 76q0 21 -11 36t-33 15q-47 0 -93.5 -81t-71.5 -206
l-18 -90h-166q74 384 122 637q5 23 5 34q0 44 -37 44q-38 0 -67.5 -34t-40.5 -100z" />
    <glyph glyph-name="longs_l" unicode="&#x17f;l" horiz-adv-x="604" 
d="M253 377q-43 -254 -83 -364q-45 -123 -105.5 -179.5t-145.5 -56.5q-38 0 -62 20t-24 50q0 28 17.5 44.5t42.5 16.5q34 0 54.5 -25.5t20.5 -69.5v-11q30 7 45 72q21 105 46.5 297.5t37.5 246.5h-84l3 17h84q28 139 114.5 218.5t216.5 79.5q3 0 10 -0.5t11 -0.5
q92 14 161 23l3 -3l-135 -717q52 35 93 81l11 -11q-51 -60 -97 -89t-79 -29q-84 0 -84 80q0 24 7 59l94 506l6 39q0 43 -37 43t-66.5 -34t-40.5 -100z" />
    <glyph glyph-name="longs_longs" unicode="&#x17f;&#x17f;" horiz-adv-x="573" 
d="M276 482q-23 -128 -50.5 -281.5t-36.5 -203.5q-148 -12 -181 -195q-2 -15 -3 -16h-17q71 382 118 632h-84q0 6 2 18h85q18 77 53 134t80 88t91.5 45t96.5 14q66 0 86 -41q74 72 164 72q33 0 59 -18.5t26 -47.5q0 -28 -19.5 -44t-47.5 -16q-29 0 -50.5 22t-21.5 71
q0 1 0.5 4t0.5 5q-34 -18 -70 -270q-7 -48 -11 -74q-46 -308 -126.5 -455.5t-210.5 -147.5q-38 0 -62.5 20t-24.5 47q0 28 18 45.5t44 17.5q73 0 73 -105q33 14 45 58q25 89 50.5 299.5t36.5 258.5h-73l3 18h73q22 92 59 156q-27 3 -46 24.5t-19 57.5q0 15 2 22
q-47 -15 -70 -60.5t-42 -153.5z" />
    <glyph glyph-name="longs_longs_i" unicode="&#x17f;&#x17f;i" horiz-adv-x="894" 
d="M276 482l-87 -485q-148 -12 -181 -195q-2 -15 -3 -16h-17q21 118 62 335.5t56 296.5h-84l2 18h85q18 77 53 134t80 88t91.5 45t96.5 14q68 0 88 -44q75 67 170 67q58 0 89 -22.5t31 -54.5q0 -30 -19.5 -47.5t-48.5 -17.5q-37 0 -56.5 27t-19.5 67q0 14 3 29
q-47 -9 -68.5 -75.5t-46.5 -227.5q-19 -123 -39.5 -216t-49 -176t-63 -135.5t-81 -83t-103.5 -30.5q-43 0 -68.5 18.5t-25.5 48.5q0 27 17 43t42 16q76 0 76 -102q36 9 52 92q15 82 41 272.5t39 252.5h-75l3 18h76q20 87 58 155q-28 6 -46.5 27t-18.5 57q0 14 2 22
q-46 -9 -69.5 -57.5t-42.5 -157.5zM744 456q42 0 65.5 -22t23.5 -62q0 -11 -14 -89q-32 -168 -49 -252q52 35 96 83q6 -4 10 -10q-99 -117 -173 -117q-87 0 -87 82q0 6 2 26l6 30q7 35 25.5 133.5t29.5 152.5q-31 -21 -97 -87l-10 10q104 122 172 122z" />
    <glyph glyph-name="longs_longs_l" unicode="&#x17f;&#x17f;l" horiz-adv-x="893" 
d="M554 435l-14 -86q-48 -293 -127 -433t-207 -140q-38 0 -62 21.5t-24 47.5q0 29 17.5 46t44.5 17q34 0 54 -25.5t20 -69.5v-12q20 8 30 28t19 59l6 27q16 79 40 262.5t37 240.5h-72l4 17h71q20 95 59 155q-26 5 -44.5 26.5t-18.5 57.5q0 15 2 23q-44 -9 -67.5 -54
t-40.5 -140q-77 -426 -91 -506q-146 -8 -181 -193q-2 -12 -4 -20h-17q21 118 62 335t56 299h-80q2 10 2 17h81q18 77 53.5 134t81 88t91 45.5t92.5 14.5q33 0 59 -13t34 -34q78 62 206 62h13q27 4 80 12t80 11l3 -3q-75 -403 -136 -717q49 31 94 81l11 -11
q-50 -60 -96.5 -89t-79.5 -29q-85 0 -85 77q0 22 7 59l89 477q11 51 11 71q0 43 -36 43q-52 0 -79 -64.5t-48 -214.5z" />
    <glyph glyph-name="longs_s" unicode="&#x17f;s" horiz-adv-x="738" 
d="M260 418q-50 -340 -128.5 -491t-213.5 -151q-39 0 -63.5 20.5t-24.5 47.5q0 28 18 45.5t44 17.5q36 0 55 -29.5t19 -76.5q36 14 47 70q18 87 45 288t39 259h-84l3 18h86q29 135 116.5 218.5t208.5 83.5q53 0 87.5 -19.5t34.5 -54.5q0 -30 -18.5 -47t-46.5 -17
q-37 0 -57.5 26.5t-20.5 62.5q0 15 6 32q-60 0 -94 -73t-58 -230zM552 455q79 0 121 -29t42 -71q0 -32 -18.5 -49t-40.5 -17q-30 0 -46 19.5t-16 48.5q0 42 24 72q-24 7 -47 7q-35 0 -60.5 -16t-25.5 -50q0 -22 21 -43t51.5 -39.5t61 -39.5t51.5 -50.5t21 -62.5
q0 -73 -68 -111t-171 -38q-91 0 -132.5 30t-41.5 72q0 33 18.5 49.5t39.5 16.5q29 0 45 -20t16 -48q0 -45 -24 -73q25 -10 64 -10t67 18t28 51q0 26 -31 53.5t-67.5 48.5t-67.5 54.5t-31 70.5q0 77 66 116.5t151 39.5z" />
    <glyph glyph-name="ff" unicode="ff" horiz-adv-x="590" 
d="M264 435h124q19 90 58 156q-64 16 -64 83q0 15 2 23q-44 -9 -68 -54t-40 -139zM-17 -216q34 189 118 634h-80q2 8 2 17h81q18 77 53.5 134t81 88t92 45.5t95.5 14.5q66 0 86 -40q74 70 165 70q35 0 59.5 -17.5t24.5 -47.5q0 -28 -19.5 -44t-47.5 -16q-30 0 -51.5 22
t-21.5 71q0 1 0.5 4t0.5 5q-11 -6 -20 -23.5t-16.5 -50.5t-12 -59.5t-12 -77.5t-11.5 -78h98q-2 -12 -2 -17h-98l-15 -98q-47 -285 -127 -413t-201 -128q-42 0 -65 19.5t-23 47.5q0 29 18 46.5t45 17.5q73 0 73 -107q31 12 53.5 92.5t33.5 172t23 200t22 150.5h-124
q-11 -62 -76 -421q-146 -8 -181 -193q-2 -12 -4 -20h-17z" />
    <glyph glyph-name="f_i" unicode="fi" horiz-adv-x="597" 
d="M316 68q0 30 8 75.5t21 105t18 89.5q6 24 6 42q0 38 -41 38h-70l-14 -88q-45 -290 -123 -421.5t-205 -131.5q-39 0 -63 20.5t-24 48.5t16.5 43.5t42.5 15.5q34 0 55.5 -29t21.5 -74q23 5 35 37.5t25 106.5q12 69 34.5 240.5t35.5 231.5h-79l2 17h81q30 130 112.5 215.5
t195.5 85.5q56 0 91 -19.5t35 -55.5q0 -31 -18.5 -48t-46.5 -17q-37 0 -58 25.5t-21 62.5q0 18 6 36q-31 -1 -53 -20.5t-37 -61t-24 -85.5t-20 -118h32q152 0 254 22l4 -4l-80 -419q45 28 95 82l10 -11q-99 -118 -175 -118q-85 0 -85 81z" />
    <glyph glyph-name="f_l" unicode="fl" horiz-adv-x="604" 
d="M325 67q0 24 7 59l94 506l6 39q0 43 -37 43q-58 0 -83.5 -63t-47.5 -216h80l-3 -17h-80l-10 -53q-23 -122 -43.5 -207t-48.5 -161.5t-60 -121.5t-75 -71t-97 -26q-38 0 -66 18t-28 51q0 28 17.5 44.5t42.5 16.5q35 0 55 -26t20 -71v-9q15 4 25 18t14.5 30.5t11.5 47.5
q19 90 42.5 278t35.5 242h-84l3 17h84q29 132 114 214.5t221 82.5h17q92 14 161 23l3 -3l-135 -717q52 35 93 81l11 -11q-51 -60 -97 -89t-79 -29q-84 0 -84 80z" />
    <glyph glyph-name="ffi" unicode="ffi" horiz-adv-x="883" 
d="M615 418h-68q-50 -292 -96 -414q-87 -227 -248 -227q-37 0 -62 20t-25 47t17.5 43t42.5 16q36 0 56 -26t20 -75q35 9 51 92q15 81 41.5 271.5t39.5 252.5h-123q-26 -141 -76 -421q-156 -13 -185 -213h-17q21 118 62 335t56 299h-80l2 18h82q18 77 53 134t80.5 87.5t92 45
t96.5 14.5q70 0 88 -47q77 66 179 66q57 0 91.5 -20.5t34.5 -54.5q0 -29 -19 -46t-46 -17q-37 0 -58 25.5t-21 62.5q0 18 6 34q-31 -4 -52.5 -22.5t-36 -58.5t-23.5 -83.5t-20 -120.5h32q153 0 255 22l2 -4l-79 -419q46 28 94 82l3.5 -3.5t4.5 -4t3 -3.5q-99 -118 -175 -118
q-45 0 -65 20.5t-20 61.5q0 33 49 278q3 24 3 30q0 20 -9 30.5t-33 10.5zM264 436h124q19 89 60 155q-66 12 -66 84q0 14 2 22q-45 -10 -67.5 -55t-40.5 -142z" />
    <glyph glyph-name="ffl" unicode="ffl" horiz-adv-x="887" 
d="M-17 -216q21 118 62 335t56 299h-80q2 10 2 17h81q18 77 53.5 134t81 88t91 45.5t92.5 14.5q33 0 59 -13t34 -34q77 62 206 62h13q27 4 80 12t80 11l3 -3q-75 -403 -136 -717q49 31 94 81l11 -11q-50 -60 -96.5 -89t-79.5 -29q-85 0 -85 77q0 22 7 59l89 477q11 51 11 71
q0 43 -36 43q-52 0 -79 -64.5t-48 -214.5h77l-3 -17h-77l-11 -69q-46 -292 -125.5 -432.5t-208.5 -140.5q-38 0 -62 21.5t-24 47.5q0 29 17.5 46t44.5 17q34 0 54 -25.5t20 -69.5v-12q20 8 30 28t19 59l6 27q16 79 40 262.5t37 240.5h-122q-54 -295 -76 -421
q-146 -8 -181 -193q-2 -12 -4 -20h-17zM264 435h122q20 95 59 155q-26 5 -44.5 26.5t-18.5 57.5q0 15 2 23q-44 -9 -67.5 -54t-40.5 -140z" />
    <glyph glyph-name="longs_t" unicode="&#x17f;t" horiz-adv-x="604" 
d="M257 411q-40 -253 -84 -380q-87 -251 -249 -251q-42 0 -68.5 18t-26.5 48q0 28 16.5 43.5t42.5 15.5q34 0 55.5 -29t21.5 -74q30 7 43 63q19 84 47 289.5t40 263.5h-79l2 17h81q32 136 115 219.5t199 83.5q53 0 87 -20.5t34 -54.5q0 -30 -18.5 -47t-46.5 -17
q-37 0 -58.5 24.5t-21.5 61.5q0 18 6 36q-59 -2 -86.5 -73.5t-51.5 -236.5zM315 67q0 25 6 53l57 297h-59l3 18h60q129 31 180 175h15q-5 -28 -33 -174h106l-3 -19h-106q-14 -80 -71 -382q50 31 96 82l11 -11q-99 -118 -185 -118q-77 0 -77 79z" />
    <glyph glyph-name=".notdef" horiz-adv-x="434" 
d="M1 0v694h431v-694h-431zM216 408q42 75 124 225h-248q71 -128 124 -225zM253 347q20 -36 59 -107.5t59 -106.5v430q-20 -36 -59 -108t-59 -108zM93 62h247l-124 224zM61 562v-429q24 41 66.5 118t53.5 96q-105 190 -120 215z" />
    <glyph glyph-name=".null" horiz-adv-x="0" 
 />
    <glyph glyph-name="nonmarkingreturn" horiz-adv-x="333" 
 />
    <glyph glyph-name="space" unicode=" " horiz-adv-x="241" 
 />
    <glyph glyph-name="exclam" unicode="!" horiz-adv-x="331" 
d="M154 157q28 0 46.5 -20t18.5 -50q0 -41 -28 -71t-67 -30q-27 0 -45 19.5t-18 48.5q0 40 28.5 71.5t64.5 31.5zM171 203h-18q-8 112 -24 379q-3 52 26 93t89 41q43 0 62.5 -25t19.5 -63t-12 -65z" />
    <glyph glyph-name="quotedbl" unicode="&#x22;" horiz-adv-x="346" 
d="M226 632l-84 -220h-16l-13 222q0 31 16.5 54.5t52.5 23.5q25 0 38 -13.5t13 -35.5q-2 -16 -7 -31zM369 632l-85 -220h-16q-13 219 -13 222q0 27 16.5 52.5t53.5 25.5q25 0 37.5 -13.5t12.5 -35.5q0 -15 -6 -31z" />
    <glyph glyph-name="numbersign" unicode="#" horiz-adv-x="570" 
d="M521 410h-93l-50 -153h90q0 -6 -1 -12.5t-2.5 -14.5t-2.5 -12h-96l-62 -189h-37l62 189h-138l-62 -189h-37l62 189h-87l7 39h92q6 17 23 70.5t27 82.5h-90l6 38h96q10 30 29 89t29 88h36l-57 -177h138q38 118 58 177h36q-10 -29 -29 -88t-29 -89h88zM253 410l-50 -153
h137l51 153h-138z" />
    <glyph glyph-name="dollar" unicode="$" horiz-adv-x="571" 
d="M344 740q-121 -683 -147 -827h-16l13 77q-90 5 -133.5 46.5t-43.5 91.5q0 34 20 61t55 27q36 0 56 -25.5t20 -63.5q0 -61 -41 -105q26 -14 70 -16l47 261q-35 24 -55.5 40.5t-46 42.5t-38 55.5t-12.5 62.5q0 88 67.5 140.5t155.5 60.5l13 71h16zM246 -87q55 307 147 827
h17l-12 -71q83 -9 120.5 -46t37.5 -82q0 -33 -21 -53.5t-48 -20.5q-39 0 -56.5 23t-17.5 56q0 56 31 95q-16 5 -50 11l-39 -219q39 -24 62 -41t52.5 -44.5t44 -60.5t14.5 -71q0 -93 -70 -153t-181 -72l-13 -78h-18zM364 132q0 42 -46 84l-36 -199q36 12 59 43.5t23 71.5z
M243 551q0 -34 39 -68q16 95 29 162q-30 -8 -49 -32.5t-19 -61.5z" />
    <glyph glyph-name="percent" unicode="%" horiz-adv-x="819" 
d="M642 720l-431 -759h-20l432 759h19zM279 696q75 0 109.5 -42.5t34.5 -108.5q0 -39 -13 -81.5t-38 -81.5t-67.5 -64.5t-94.5 -25.5q-72 0 -107 43t-35 111q0 96 58 173t153 77zM214 307q34 0 64 118t30 199q0 57 -31 57q-34 0 -64 -121t-30 -197q0 -56 31 -56zM634 396
q75 0 109.5 -42.5t34.5 -108.5q0 -39 -13 -81.5t-38 -81.5t-67.5 -64.5t-95.5 -25.5q-71 0 -106 43t-35 111q0 96 58 173t153 77zM569 7q34 0 64 118t30 199q0 57 -31 57q-34 0 -64 -121t-30 -197q0 -56 31 -56z" />
    <glyph glyph-name="ampersand" unicode="&#x26;" horiz-adv-x="828" 
d="M356 -37q-158 0 -238 55.5t-80 144.5q0 39 16 78t51.5 78.5t104.5 66t162 30.5q1 3 1 4q-218 1 -218 117q0 77 81.5 127.5t206.5 50.5q93 0 140 -33.5t47 -81.5q0 -35 -22 -57.5t-57 -22.5q-32 0 -50.5 22t-18.5 56q0 52 30 90q-22 5 -37 5q-61 0 -96.5 -47.5
t-35.5 -117.5q0 -93 111 -101l-5 -18q-84 -10 -144 -87t-60 -202q0 -139 134 -139q140 0 233.5 88.5t93.5 194.5q0 53 -31 85t-87 32q-71 0 -111.5 -31t-40.5 -77q0 -31 24 -54t68 -23q-3 10 -3 22q0 29 16 47.5t41 18.5q15 0 25 -11t10 -26q0 -31 -26.5 -48t-60.5 -17
q-52 0 -82.5 27t-30.5 69q0 54 31 91t77 53.5t100.5 29.5t100.5 21t77 25.5t31 45.5q0 19 -18.5 29.5t-40.5 10.5q-13 0 -22 -3q6 -11 6 -28q0 -23 -13.5 -39.5t-37.5 -16.5q-14 0 -23.5 9t-9.5 23q0 34 31.5 52t68.5 18q42 0 63.5 -19t21.5 -48q0 -40 -43 -83t-135 -63
q42 -45 42 -108q0 -52 -22.5 -105.5t-65.5 -101t-116.5 -78t-163.5 -30.5z" />
    <glyph glyph-name="quotesingle" unicode="'" horiz-adv-x="219" 
d="M235 635l-85 -223h-16q-8 146 -11 219v4q0 31 16.5 54t51.5 23q50 0 50 -48q0 -14 -6 -29z" />
    <glyph glyph-name="parenleft" unicode="(" horiz-adv-x="339" 
d="M162 82q0 -181 79 -274l-10 -11q-91 65 -137 165.5t-46 211.5q0 160 89.5 315.5t256.5 253.5l6 -10q-117 -107 -177.5 -289t-60.5 -362z" />
    <glyph glyph-name="parenright" unicode=")" horiz-adv-x="339" 
d="M119 743q91 -67 137.5 -172.5t46.5 -222.5q0 -156 -91 -305.5t-251 -245.5l-7 10q114 97 174 277.5t60 365.5q0 194 -79 283z" />
    <glyph glyph-name="asterisk" unicode="*" horiz-adv-x="392" 
d="M278 712q19 0 29.5 -9t10.5 -24q0 -20 -57 -120h-18l-18 97q-2 6 -2 11q0 19 17 32t38 13zM146 624q14 0 22 -12l61 -65l-8 -16l-95 -4q-35 -2 -35 30q0 29 19 48t36 19zM112 426q2 17 22 31l91 64l13 -10l-42 -106q-5 -13 -16.5 -22t-23.5 -9q-19 0 -32 14.5t-13 31.5
q0 1 0.5 3t0.5 3zM413 566q-6 -39 -47 -39l-93 4l-2 16l82 65q14 12 29 12q13 0 22.5 -12t9.5 -31q0 -10 -1 -15zM345 426q-3 -18 -22.5 -35t-40.5 -17q-26 0 -28 31l-4 106l15 10l69 -64q11 -10 11 -31z" />
    <glyph glyph-name="plus" unicode="+" horiz-adv-x="570" 
d="M489 281h-170l-34 -200h-42l33 200h-172l7 47h173q22 126 32 189h43l-32 -189h171z" />
    <glyph glyph-name="comma" unicode="," horiz-adv-x="237" 
d="M103 165q35 0 52.5 -22t17.5 -56q0 -64 -55 -151.5t-126 -139.5l-11 13q49 43 86.5 98.5t49.5 101.5q-19 -13 -45 -13q-30 0 -46.5 17.5t-16.5 46.5q0 40 27 72.5t67 32.5z" />
    <glyph glyph-name="hyphen" unicode="-" horiz-adv-x="312" 
d="M275 212h-243q3 22 11 66h243q-9 -53 -11 -66z" />
    <glyph glyph-name="period" unicode="." horiz-adv-x="233" 
d="M110 166q29 0 47.5 -20t18.5 -51q0 -42 -29 -73t-69 -31q-29 0 -48 20t-19 51q0 41 30.5 72.5t68.5 31.5z" />
    <glyph glyph-name="slash" unicode="/" horiz-adv-x="283" 
d="M371 732l-377 -803h-32l377 803h32z" />
    <glyph glyph-name="zero" unicode="0" horiz-adv-x="570" 
d="M359 673q109 0 159 -70t50 -178q0 -54 -12.5 -112.5t-39 -117t-63.5 -105t-92 -75.5t-119 -29q-105 0 -155.5 69.5t-50.5 179.5q0 106 37 204.5t112.5 166t173.5 67.5zM357 656q-41 0 -79.5 -113t-58.5 -241.5t-20 -205.5q0 -94 46 -94q42 0 80.5 109.5t58.5 238
t20 212.5q0 94 -47 94z" />
    <glyph glyph-name="one" unicode="1" horiz-adv-x="570" 
d="M179 88l75 437q0 2 1.5 9.5t2 13.5t0.5 9q0 17 -9 26t-20 11.5t-37 4.5q-21 2 -21 12v8l272 60l4 -5l-100 -588q-1 -5 -1 -14q0 -26 18.5 -37t37 -15t18.5 -11v-3q-1 -4 -1 -6h-340q0 13 13.5 18.5t30.5 7.5t34 17t22 45z" />
    <glyph glyph-name="two" unicode="2" horiz-adv-x="570" 
d="M104 129h196q61 0 98 10q27 6 51 31t38.5 45.5t21.5 18.5l9 -2l-99 -232h-451l-2 9q43 59 100.5 115.5t101.5 95t84 83t62 102t22 131.5q0 46 -22.5 76t-65.5 30q-27 0 -52 -14q35 -29 35 -81q0 -38 -21.5 -66.5t-59.5 -28.5q-28 0 -45.5 18t-17.5 44q0 68 68 114.5
t158 46.5q103 0 153.5 -43.5t50.5 -107.5q0 -62 -50.5 -120t-114 -96.5t-140 -88t-110.5 -87.5z" />
    <glyph glyph-name="three" unicode="3" horiz-adv-x="570" 
d="M339 675q99 0 145.5 -39.5t46.5 -95.5q0 -64 -55.5 -116t-165.5 -62q-1 -1 -1 -2q92 -1 142.5 -41.5t50.5 -106.5q0 -96 -81.5 -160.5t-205.5 -64.5q-101 0 -152.5 37t-51.5 96q0 64 50.5 101t112.5 39l6 -13q-18 -25 -29 -69t-11 -82q0 -45 12.5 -67t46.5 -22
q38 0 66.5 35.5t41.5 84t13 98.5q0 119 -117 119q-23 0 -36 -2q0 2 -0.5 8t-0.5 9q68 11 112.5 47t60.5 75t16 81q0 33 -18.5 59.5t-54.5 26.5q-23 0 -42 -10q27 -26 27 -72q0 -35 -22.5 -65t-61.5 -30q-28 0 -45 17.5t-17 43.5q0 67 63.5 105t154.5 38z" />
    <glyph glyph-name="four" unicode="4" horiz-adv-x="571" 
d="M487 426l6 -2q-22 -119 -39 -224h77q-3 -15 -3 -18h-77l-15 -83q-2 -18 -2 -26q0 -27 18 -39t36.5 -16t18.5 -11q0 -5 -1 -7h-329q0 10 12 15.5t27.5 9t31 20t20.5 44.5l14 93h-275l3 17q166 205 321 461h199q0 -1 0.5 -2t0.5 -2q-114 -144 -256 -267t-246 -189h257
l24 144q101 23 177 82z" />
    <glyph glyph-name="five" unicode="5" horiz-adv-x="570" 
d="M210 648h205q48 0 67 2q26 2 46 14t29.5 24.5t17.5 22.5t14 10q2 0 8 -2l-75 -209q-77 10 -204 10h-127l-53 -171q86 51 191 51q86 0 134.5 -44t48.5 -119q0 -102 -78.5 -176t-220.5 -74q-96 0 -144.5 34.5t-48.5 91.5q0 38 17.5 68.5t44 46.5t53 24t50.5 8q1 -2 3 -6.5
t2 -6.5q-39 -64 -39 -153q0 -93 60 -93q54 0 87.5 73.5t33.5 158.5q0 60 -27.5 90.5t-77.5 30.5q-45 0 -94 -23l-15 5z" />
    <glyph glyph-name="six" unicode="6" horiz-adv-x="570" 
d="M371 408q72 0 118 -41t46 -118q0 -108 -81.5 -185t-213.5 -77q-110 0 -161 50t-51 135q0 172 142 310t356 194l3 -14q-158 -56 -248 -217.5t-90 -356.5q0 -87 56 -87q33 0 61 45t42 106t14 116q0 40 -18 71.5t-51 35.5l-1 15q47 18 77 18z" />
    <glyph glyph-name="seven" unicode="7" horiz-adv-x="570" 
d="M594 660l4 -5q-193 -263 -322 -655h-213q161 270 432 528h-214q-59 0 -85 -11.5t-52 -43.5q-20 -25 -26 -26q-3 -1 -7 0l-3 1l85 225q95 -13 275 -13h126z" />
    <glyph glyph-name="eight" unicode="8" horiz-adv-x="570" 
d="M364 675q78 0 131 -32t53 -94q0 -51 -39 -96t-105 -59q123 -89 123 -180q0 -109 -84 -168.5t-205 -59.5q-86 0 -149.5 35.5t-63.5 107.5q0 65 48 118t119 71q-83 72 -83 150q0 97 76.5 152t178.5 55zM247 4q51 0 83 37t32 84q0 22 -8 41.5t-27 39t-33.5 32t-45 35.5
t-43.5 34q-69 -66 -69 -177q0 -56 27.5 -91t83.5 -35zM358 656q-41 0 -71 -30t-30 -78q0 -25 20 -51t37 -39t61 -43q3 -3 4.5 -4t4.5 -2.5t5 -3.5q22 27 33.5 72.5t11.5 82.5q0 43 -18.5 69.5t-57.5 26.5z" />
    <glyph glyph-name="nine" unicode="9" horiz-adv-x="570" 
d="M356 675q110 0 160.5 -52t50.5 -141q0 -171 -138 -305t-358 -189l-3 13q110 41 188 133.5t113 203t35 230.5q0 91 -54 91q-48 0 -82.5 -87.5t-34.5 -177.5q0 -43 16.5 -73.5t52.5 -33.5l1 -12q-37 -17 -86 -17q-70 0 -112.5 41t-42.5 112q0 108 81 186t213 78z" />
    <glyph glyph-name="colon" unicode=":" horiz-adv-x="233" 
d="M110 168q29 0 47.5 -20.5t18.5 -51.5q0 -42 -29 -73.5t-69 -31.5q-29 0 -48 20.5t-19 51.5q0 42 30.5 73.5t68.5 31.5zM154 433q29 0 48 -20.5t19 -51.5q0 -42 -29 -73.5t-69 -31.5q-29 0 -48 20t-19 51q0 42 30 74t68 32z" />
    <glyph glyph-name="semicolon" unicode=";" horiz-adv-x="235" 
d="M103 165q35 0 52.5 -22t17.5 -56q0 -64 -55 -151.5t-126 -139.5l-11 13q50 43 87 99t49 101q-19 -13 -45 -13q-30 0 -46.5 17.5t-16.5 46.5q0 40 27 72.5t67 32.5zM155 432q29 0 48 -20t19 -51q0 -42 -29.5 -74t-68.5 -32q-30 0 -48.5 20.5t-18.5 50.5q0 43 30 74.5
t68 31.5z" />
    <glyph glyph-name="less" unicode="&#x3c;" horiz-adv-x="570" 
d="M482 54q-373 203 -422 231q0 5 2 17l3 18l500 231q-1 -3 -4 -24t-5 -32q-88 -40 -424 -192q41 -22 113 -61.5t132 -72t113 -60.5q-6 -40 -8 -55z" />
    <glyph glyph-name="equal" unicode="=" horiz-adv-x="570" 
d="M474 187h-386l9 48h385zM504 368h-385l8 49h386z" />
    <glyph glyph-name="greater" unicode="&#x3e;" horiz-adv-x="570" 
d="M521 285q-154 -72 -499 -231l9 57l424 193l-359 193q2 9 5 27t5 27l421 -231z" />
    <glyph glyph-name="question" unicode="?" horiz-adv-x="520" 
d="M335 712q88 0 144 -31.5t56 -101.5q0 -41 -22 -78t-55 -63t-71.5 -52t-71.5 -46t-55 -43t-22 -45q0 -30 42 -48l-9 -16q-86 6 -129.5 39t-43.5 82q0 38 29 74t70 64.5t82.5 56.5t70.5 60.5t29 65.5q0 59 -76 59q-26 0 -56 -7q19 -27 19 -67q0 -43 -25 -74.5t-67 -31.5
q-27 0 -44.5 16.5t-17.5 44.5q0 59 56.5 100.5t166.5 41.5zM220 150q28 0 47 -20.5t19 -50.5q0 -40 -28.5 -70.5t-66.5 -30.5q-28 0 -46 20t-18 50q0 40 28.5 71t64.5 31z" />
    <glyph glyph-name="at" unicode="@" horiz-adv-x="905" 
d="M695 518q-36 -159 -75 -399q97 12 163.5 110.5t66.5 214.5q0 126 -80.5 198t-214.5 72q-128 0 -236.5 -70t-171.5 -189t-63 -259q0 -146 78.5 -234t213.5 -88q77 0 136 20l2 -25q-61 -21 -146 -21q-141 0 -226 96t-85 251q0 146 67 271t183 198.5t252 73.5
q138 0 227.5 -76.5t89.5 -212.5q0 -85 -33 -165.5t-100 -135.5t-151 -55q-55 0 -77 22t-22 64q0 35 16 97l-2 1q-62 -188 -171 -188q-48 0 -80.5 33t-32.5 101q0 114 58.5 200t155.5 86q74 0 111 -45q69 10 136 54h11zM484 477q-44 0 -78.5 -93t-34.5 -172q0 -66 30 -66
q32 0 70.5 83.5t64.5 219.5q-24 28 -52 28z" />
    <glyph glyph-name="A" unicode="A" horiz-adv-x="672" 
d="M95 117q41 80 114.5 227.5t97.5 194.5q25 50 25 70q0 17 -9 26.5t-20.5 12t-20.5 6.5t-9 10q0 2 0.5 5.5t0.5 4.5h202l96 -583q6 -37 23 -53.5t30.5 -20t13.5 -9.5q0 -2 -0.5 -4.5t-0.5 -3.5h-320q0 10 10.5 15.5t23 8t23 15.5t10.5 36q0 17 -3.5 40.5t-9.5 53.5t-8 44
h-202q-61 -122 -61 -148q0 -24 18.5 -34t37.5 -13t19 -10t-1 -8h-215q0 12 12.5 17t30.5 8t44 26t48 66zM317 515h-4l-142 -285h190z" />
    <glyph glyph-name="B" unicode="B" horiz-adv-x="683" 
d="M373 0h-386q0 13 12 18.5t27 7t30.5 18.5t21.5 51q26 158 80 476q4 28 4 30q0 26 -16 37.5t-32.5 15t-16.5 10.5v10h366q104 0 153 -38.5t49 -95.5q0 -63 -58 -114.5t-166 -56.5q-1 -2 -1 -3q112 -5 162 -50t50 -108q0 -35 -15.5 -69.5t-46.5 -66.5t-87.5 -52t-129.5 -20
zM345 357l4 19q57 4 95.5 53.5t38.5 127.5q0 46 -26.5 71.5t-75.5 25.5h-23l-93 -551q-5 -23 -5 -40q0 -45 49 -45q58 0 104 59.5t46 156.5q0 58 -31 89t-83 34z" />
    <glyph glyph-name="C" unicode="C" horiz-adv-x="615" 
d="M435 688q84 0 161 -30l38 46q1 0 4.5 -0.5t4.5 -0.5l-37 -270h-5q-10 0 -14 32q-5 47 -12.5 80t-21.5 63t-36.5 45t-53.5 15q-60 0 -111 -85t-77 -200t-26 -220q0 -155 103 -155q67 0 120 62.5t91 162.5q17 46 30 46h4q-55 -292 -56 -298h-8l-26 47q-96 -41 -197 -41
q-126 0 -194 77t-68 201q0 182 109.5 302.5t277.5 120.5z" />
    <glyph glyph-name="D" unicode="D" horiz-adv-x="737" 
d="M-15 0q0 11 12 16t27 7t30.5 20t21.5 52l80 476q4 28 4 30q0 26 -16 37.5t-32.5 15t-16.5 10.5v10h250q69 0 123.5 -7.5t103.5 -27t81.5 -50.5t51.5 -80t19 -113q0 -40 -10.5 -87t-39 -103.5t-71.5 -101t-117 -74.5t-166 -30h-335zM354 654l-96 -570q0 -5 -1.5 -13.5
t-1.5 -10.5q0 -42 49 -42h7q60 0 109.5 72t75 174.5t25.5 204.5q0 96 -36 140.5t-111 44.5h-20z" />
    <glyph glyph-name="E" unicode="E" horiz-adv-x="633" 
d="M314 18h29q73 0 130 52t129 178q16 27 24 27q2 0 8 -2q-79 -235 -101 -295h-1l-2 -1q-61 23 -178 23h-366v2q0 10 11.5 15t27 7.5t31 19.5t20.5 49l83 484q3 21 3 23q0 27 -17.5 38.5t-35 14.5t-17.5 10q0 2 0.5 5.5t0.5 5.5h288q161 0 242 32q3 0 4 -1l-9 -129t-8 -129
q-2 -1 -7 -1q-8 0 -13 25q-18 81 -36 116.5t-53 51t-105 15.5h-38q-16 -98 -50 -292h52q36 0 61.5 20.5t35.5 45t19 45t16 20.5h5l-48 -290h-6q-8 0 -10 22t-2.5 48t-18 48t-53.5 22h-54l-44 -258q-3 -21 -3 -23q0 -44 56 -44z" />
    <glyph glyph-name="F" unicode="F" horiz-adv-x="579" 
d="M81 118l78 459q2 12 2 23q0 27 -16.5 38.5t-33.5 14.5t-17 10v11h294q163 0 238 32q3 0 4 -1l-18 -258q-2 -1 -6 -1q-8 0 -14 25q-25 116 -58.5 149.5t-134.5 33.5h-41q-37 -222 -52 -307h59q36 0 61.5 20.5t35.5 45.5t19 45.5t16 20.5h4l-47 -290h-6q-9 0 -11 22t-2 48
t-17.5 48t-53.5 22h-61l-34 -200q-7 -32 -7 -55q0 -29 18.5 -41t37 -15t18.5 -10t-1 -8h-349q0 11 11 16t25.5 7t29.5 16.5t22 42.5q3 9 7 36z" />
    <glyph glyph-name="G" unicode="G" horiz-adv-x="695" 
d="M592 5l-8 -3l-46 45q-120 -59 -228 -59q-126 0 -194.5 75.5t-68.5 201.5q0 182 113.5 302.5t281.5 120.5q109 0 180 -32l49 48q1 0 3 -0.5t4 -0.5l-38 -271h-4q-4 0 -5.5 1t-4.5 10t-5 27q-9 86 -43 142t-101 56q-61 0 -114.5 -75t-84.5 -194.5t-31 -248.5
q0 -72 18.5 -108t62.5 -36q59 0 105 60q4 24 8.5 50.5t10 58.5t8.5 50q0 3 1 10t2 12.5t1 7.5q0 27 -16 38.5t-32.5 15t-16.5 10.5q0 5 2 9h305q0 -12 -10 -17.5t-23 -7t-26.5 -18.5t-18.5 -49z" />
    <glyph glyph-name="H" unicode="H" horiz-adv-x="768" 
d="M729 582l-80 -466q-5 -22 -5 -41q0 -28 18 -40.5t36 -16.5t18 -10q0 -2 -0.5 -4.5t-0.5 -3.5h-341q0 12 11 17t25 7t28 19.5t20 51.5l43 251h-197q-30 -175 -41 -242q-4 -18 -4 -31q0 -21 9.5 -33.5t21 -15.5t21 -6.5t9.5 -9.5t-1 -8h-333q0 11 11.5 16t26.5 7.5t30 20
t21 51.5l81 471q4 32 4 34q0 21 -10 33.5t-22 15t-22 6.5t-10 11v8h331q0 -12 -11 -17t-24.5 -7.5t-28 -19t-19.5 -48.5l-37 -218h197l35 202q4 32 4 36q0 21 -9 32.5t-19.5 14t-19.5 6.5t-9 11v8h330q0 -13 -11.5 -18.5t-26 -7t-29.5 -18t-20 -48.5z" />
    <glyph glyph-name="I" unicode="I" horiz-adv-x="403" 
d="M354 582l-82 -478q-3 -27 -3 -30q0 -21 11.5 -34t24.5 -16t24.5 -6.5t11.5 -9.5t-1 -8h-346q0 11 12 16t27 7t30.5 20t21.5 52q26 158 80 476q4 28 4 30q0 26 -16.5 37.5t-32.5 15t-16 10.5v10h339q0 -12 -12 -17t-26.5 -7t-30 -19t-20.5 -49z" />
    <glyph glyph-name="J" unicode="J" horiz-adv-x="456" 
d="M95 307l4 20h101q27 95 79.5 163t150.5 127l-3 5q-119 -76 -217 -76q-56 0 -120 26q-4 -10 -27 -98l-13 2q5 32 9 53t15 58t23.5 59.5t33.5 40.5t47 18q45 0 119.5 -33.5t108.5 -33.5q44 0 94 41l9 -10q-57 -42 -77 -103t-48 -239h93l-3 -20h-94q-32 -199 -81.5 -302
t-133.5 -159q-96 -65 -175 -65q-47 0 -79 25t-32 68q0 35 24.5 57.5t56.5 22.5q48 0 76 -35t28 -84q0 -16 -2 -23q22 12 37 48.5t32 126.5q49 264 63 320h-99z" />
    <glyph glyph-name="K" unicode="K" horiz-adv-x="736" 
d="M331 321h-31l-38 -217q-3 -24 -3 -30q0 -28 17 -40.5t34 -15.5t17 -10q0 -2 -1 -5v-3h-340q-1 11 10.5 16.5t26.5 10t32.5 31.5t25.5 76l75 438q3 21 3 29q0 27 -16 38t-32 14.5t-16 10.5t1 9h338q0 -11 -12 -16.5t-27 -8t-30.5 -19t-20.5 -47.5q-28 -162 -41 -242h36
q19 19 60 58t70.5 68t61.5 62t49.5 56.5t17.5 34.5q0 12 -11 19.5t-25 9.5t-25 6t-11 11v9h249q0 -14 -12.5 -20t-35 -9.5t-66 -30t-91.5 -73.5l-95 -93l137 -324q16 -36 26 -52q12 -19 27 -31t25.5 -15.5t17.5 -7.5t7 -10t-1 -8h-324v7q1 7 14 10.5t25.5 10.5t12.5 23
q0 13 -7 31q-85 194 -104 239z" />
    <glyph glyph-name="L" unicode="L" horiz-adv-x="608" 
d="M308 0h-322q0 12 11.5 17.5t26.5 7t30 18.5t21 50l84 485q2 14 2 22q0 26 -16 37.5t-32 15t-16 10.5q0 2 0.5 5.5t0.5 4.5h339q-1 -13 -13 -18t-27 -6.5t-30.5 -18t-20.5 -48.5q-14 -82 -42.5 -245t-42.5 -244q-4 -22 -4 -31q0 -43 56 -43h23q75 0 129 51t129 185
q11 19 20 19q1 0 3.5 -0.5t3.5 -0.5q-80 -248 -97 -296q-1 0 -1.5 -0.5t-1.5 -0.5q-59 24 -213 24z" />
    <glyph glyph-name="M" unicode="M" horiz-adv-x="896" 
d="M458 196q9 -35 31 -136l-15 -4q-32 97 -154 97q-4 0 -12 -0.5t-12 -0.5l-91 438h-3l-78 -422q-8 -48 -8 -57q0 -37 13 -58t28.5 -25t28.5 -8.5t13 -11.5v-8h-227v7q2 8 13 11t27 8t33 16.5t34 43t26 80.5l72 377q8 48 8 57q0 27 -17 38.5t-34 14.5t-17 10q0 1 0.5 5
t0.5 6h245l91 -453q160 302 241 453h252q1 -12 -12 -17.5t-29.5 -7.5t-33 -19.5t-21.5 -49.5l-72 -477q0 -2 -1.5 -14t-1.5 -13q0 -29 17 -42t34 -16.5t17 -9.5q0 -2 -0.5 -4.5t-0.5 -3.5h-333v7q1 7 13 11t26 7.5t28 20.5t18 46q13 83 38 248.5t38 248.5h-3z" />
    <glyph glyph-name="N" unicode="N" horiz-adv-x="721" 
d="M374 674q31 -62 104.5 -205t111.5 -220l2 1q1 0 1 1l45 267q5 30 5 49q0 33 -14 53t-30.5 24t-30.5 8t-14 11q0 8 1 10h233q0 -11 -8 -16.5t-20 -6.5t-27.5 -8.5t-30 -19.5t-27.5 -42t-21 -74l-88 -514l-71 -4q-50 98 -301 595h-3l-69 -419q-1 -5 -3 -18.5t-3.5 -24.5
t-1.5 -16q0 -33 14 -53t31.5 -24t31.5 -8t14 -11q0 -2 -0.5 -5t-0.5 -4h-233v7q1 7 12.5 10.5t28 8.5t33.5 15.5t33 38t23 70.5l71 422q3 18 3 26q0 28 -17.5 39.5t-35 15.5t-17.5 12v9h269z" />
    <glyph glyph-name="O" unicode="O" horiz-adv-x="732" 
d="M442 688q142 0 210.5 -77t68.5 -196q0 -77 -27 -152t-75.5 -137.5t-126 -101t-169.5 -38.5q-137 0 -205.5 76t-68.5 197q0 113 47.5 210t139 158t206.5 61zM440 670q-43 0 -81.5 -61.5t-62 -149t-37 -174t-13.5 -145.5q0 -137 84 -137q43 0 81.5 59.5t62 145t37 174
t13.5 154.5q0 134 -84 134z" />
    <glyph glyph-name="P" unicode="P" horiz-adv-x="637" 
d="M77 97q39 237 81 474q3 17 3 29q0 27 -16.5 38.5t-32.5 15t-16 10.5v4q0 1 0.5 3t0.5 3h351q94 0 161 -45.5t67 -132.5q0 -78 -46 -133.5t-112.5 -79t-145.5 -23.5q-42 0 -81 6q-18 -108 -28 -162q-3 -24 -3 -29q0 -28 18.5 -40t37 -15.5t18.5 -11.5q0 -6 -1 -8h-348
q0 13 12 18.5t27.5 7.5t31 19.5t21.5 51.5zM357 654q-20 -123 -62 -369q84 0 135 71.5t51 175.5q0 58 -25.5 90t-74.5 32h-24z" />
    <glyph glyph-name="Q" unicode="Q" horiz-adv-x="732" 
d="M442 688q141 0 209.5 -76.5t68.5 -195.5q0 -101 -44.5 -196t-135 -161.5t-207.5 -71.5q26 -41 112 -41q13 0 31 4q31 -30 46 -43.5t43.5 -29.5t53.5 -16q23 0 65 37l11 -12q-86 -115 -170 -115q-119 0 -219 217q-129 6 -193.5 79.5t-64.5 189.5q0 84 28.5 162t78.5 138
t125 95.5t162 35.5zM440 670q-42 0 -79.5 -56t-61.5 -137t-37.5 -166.5t-13.5 -151.5q0 -78 18.5 -117t62.5 -39q43 0 81 56.5t62 139t38 167.5t14 149q0 155 -84 155z" />
    <glyph glyph-name="R" unicode="R" horiz-adv-x="712" 
d="M355 654l-54 -315h25q66 0 110 58t44 144q0 53 -27 83t-75 30h-23zM299 321q-13 -71 -37 -213q-4 -24 -4 -34q0 -29 18.5 -41t37 -15t18.5 -10q0 -2 -0.5 -4.5t-0.5 -3.5h-345v7q1 7 13 11t26 7.5t29 21t20 48.5l83 486q2 14 2 20q0 26 -15.5 37.5t-31.5 14.5t-16 10
q0 6 1 10h377q91 0 147 -37t56 -113q0 -97 -82 -151.5t-209 -54.5q-8 0 -23.5 0.5t-22.5 0.5q16 -29 61.5 -43t95.5 -14q23 0 41 3l76 -187q12 -30 31.5 -43.5t32.5 -17t13 -9.5v-7h-240l-132 321h-20z" />
    <glyph glyph-name="S" unicode="S" horiz-adv-x="602" 
d="M231 -14q-109 0 -167.5 41t-58.5 97q0 43 23.5 65.5t56.5 22.5q36 0 58 -26t22 -61q0 -63 -34 -104q31 -15 79 -15q72 0 121.5 33.5t49.5 96.5q0 36 -29.5 69.5t-71.5 61.5t-84.5 57.5t-72 69.5t-29.5 85q0 71 45.5 120.5t106 69t126.5 19.5q116 0 170.5 -37.5
t54.5 -91.5q0 -35 -21 -56.5t-52 -21.5q-38 0 -58 23.5t-20 58.5q0 53 31 92q-28 11 -73 11q-54 0 -89.5 -29t-35.5 -70q0 -27 21.5 -54t54.5 -48t70.5 -48t70.5 -53t54.5 -64.5t21.5 -81.5q0 -107 -96.5 -169.5t-244.5 -62.5z" />
    <glyph glyph-name="T" unicode="T" horiz-adv-x="617" 
d="M191 95l94 559h-18q-109 0 -204 -195q-12 -23 -21 -23h-2q-3 1 -4 1l65 260l5 3q69 -26 206 -26h136q142 0 218 26l4 -3l-19 -262h-3q-7 0 -10.5 4t-5.5 18q-19 105 -52 151t-91 46h-19l-92 -550q-3 -27 -3 -30q0 -21 11.5 -34t24.5 -16t24.5 -6.5t11.5 -9.5t-1 -8h-346
q0 11 12 16t27 7t30.5 20t21.5 52z" />
    <glyph glyph-name="U" unicode="U" horiz-adv-x="722" 
d="M329 582l-58 -342q-8 -46 -8 -82q0 -68 30 -103.5t99 -35.5q80 0 138.5 70.5t79.5 194.5l34 204q10 57 10 78q0 34 -14 54t-31 24.5t-31 8.5t-14 10q0 1 0.5 5t0.5 5h235v-2q0 -11 -11 -15t-27.5 -7.5t-34 -12t-33.5 -35.5t-24 -71l-38 -225q-10 -59 -24.5 -105
t-38.5 -87t-57 -68t-80.5 -42.5t-107.5 -15.5q-242 0 -242 207q0 39 7 78l51 299q4 28 4 30q0 26 -16 37.5t-32.5 15t-16.5 10.5v10h339q0 -12 -12 -17t-26.5 -7t-30 -19t-20.5 -49z" />
    <glyph glyph-name="V" unicode="V" horiz-adv-x="650" 
d="M396 224l153 292q30 57 30 85q0 25 -18.5 36t-37.5 15t-19 12q0 1 0.5 4.5t0.5 5.5h227q0 -12 -8.5 -17t-24.5 -10.5t-35.5 -16.5t-47 -42t-52.5 -79l-274 -519l-43 -3l-118 594q-7 34 -24 50t-30.5 21t-13.5 12v10h330q2 -11 -8.5 -17t-23.5 -9t-24.5 -15t-11.5 -34
q0 -21 3 -34l66 -341h4z" />
    <glyph glyph-name="W" unicode="W" horiz-adv-x="971" 
d="M743 256h3l117 253q26 56 26 90q0 21 -11 33.5t-24 15t-23.5 6.5t-9.5 11l1 9h227l-1 -8q-1 -8 -17 -14t-36.5 -12.5t-48.5 -34t-49 -72.5l-260 -543q-24 -2 -37 -4l-81 518h-3l-251 -514l-37 -4l-94 597q-4 27 -16 43t-23 20t-19.5 8.5t-6.5 11.5l1 8h331l-1 -8
q-1 -9 -20 -14t-36.5 -18t-17.5 -40q0 -12 3 -33l44 -310h3l148 319q9 16 9 37q0 17 -11 26.5t-24.5 12t-23.5 7.5t-8 13l1 8h297l-1 -7q-2 -10 -20 -16t-35 -18.5t-17 -38.5q0 -22 3 -40z" />
    <glyph glyph-name="X" unicode="X" horiz-adv-x="680" 
d="M334 111l-60 159l-81 -103q-59 -75 -59 -109q0 -19 16 -27t32.5 -11t16.5 -12q0 -2 -0.5 -4t-0.5 -4h-233q0 12 9 17.5t24 7.5t43 17.5t57 44.5q38 37 91 104l78 98l-107 288q-11 28 -26 45t-27 21.5t-20 9t-8 11.5q0 3 2 9h355v-5q0 -10 -11 -15t-24.5 -6.5t-24.5 -12
t-11 -30.5q0 -22 18 -66l47 -118l80 105q46 61 46 90q0 18 -14 25.5t-28.5 11t-14.5 11.5q0 6 1 10h228v-4q0 -10 -16 -17t-39 -14t-57.5 -31t-64.5 -61l-114 -144l120 -314q13 -34 35.5 -50t38 -20t15.5 -10t-1 -8h-374q1 2 1 7q1 8 19 12.5t35 14.5t17 33q0 19 -9 44z" />
    <glyph glyph-name="Y" unicode="Y" horiz-adv-x="632" 
d="M411 329l118 196q30 49 30 77q0 23 -18.5 33.5t-36.5 15t-18 12.5v4q1 4 1 6h225v-3q0 -12 -12.5 -18.5t-33 -13t-55 -39.5t-69.5 -90l-125 -202l-34 -187q-4 -22 -4 -42q0 -30 17.5 -43t35 -17t17.5 -11v-7h-346q0 12 12 17t27 7.5t31 20.5t22 53l29 167l-91 317
q-7 25 -20 41t-24 20.5t-19 9t-8 11.5q0 2 0.5 5t0.5 4h343v-6q0 -10 -12 -15.5t-26.5 -7.5t-26.5 -12.5t-12 -29.5q0 -13 9 -40l72 -233h1z" />
    <glyph glyph-name="Z" unicode="Z" horiz-adv-x="630" 
d="M650 674q-2 -6 -2 -18l-441 -637h114q84 0 139 51.5t142 197.5q10 15 17 15q1 0 4 -0.5t4 -0.5l-103 -305l-4 -2q-58 25 -189 25h-355l3 17q87 125 250 357t196 280h-87q-85 0 -132.5 -39.5t-107.5 -154.5q-12 -23 -22 -23q-6 0 -7 1l37 129.5t37 132.5l4 1
q60 -27 232 -27h271z" />
    <glyph glyph-name="bracketleft" unicode="[" horiz-adv-x="294" 
d="M-9 -187l156 919h205l-1 -9l-1 -9h-78l-150 -883h77l-1 -9q-1 -8 -1 -9h-206z" />
    <glyph glyph-name="backslash" unicode="\" horiz-adv-x="292" 
d="M204 -74l-129 809h31l129 -809h-31z" />
    <glyph glyph-name="bracketright" unicode="]" horiz-adv-x="294" 
d="M317 732l-156 -918h-203l3 18h76l150 881h-78l3 19h205z" />
    <glyph glyph-name="asciicircum" unicode="^" horiz-adv-x="496" 
d="M476 358h-50l-106 285l-202 -285h-50l245 342h35q25 -68 73.5 -196.5t54.5 -145.5z" />
    <glyph glyph-name="underscore" unicode="_" horiz-adv-x="441" 
d="M386 -100h-441l5 36h442z" />
    <glyph glyph-name="grave" unicode="`" horiz-adv-x="560" 
d="M422 527l-5 -13q-68 16 -115.5 39t-66.5 46.5t-26 39.5t-7 28q0 21 12.5 35.5t37.5 14.5q24 0 41.5 -19t28.5 -45t37.5 -62.5t62.5 -63.5z" />
    <glyph glyph-name="a" unicode="a" 
d="M567 461q-43 -178 -79 -425q46 31 92 81q5 -6 11 -11q-101 -119 -174 -119q-83 0 -83 78q0 47 27 148q-39 -117 -89 -172t-114 -55q-55 0 -92 36t-37 113q0 127 67 223t178 96q82 0 127 -51q91 13 154 58h12zM328 420q-52 0 -91.5 -91.5t-39.5 -197.5q0 -28 1.5 -43.5
t10 -28.5t24.5 -13q32 0 72.5 75.5t67.5 198.5l15 68q-26 32 -60 32z" />
    <glyph glyph-name="b" unicode="b" horiz-adv-x="574" 
d="M416 454q54 0 90.5 -36.5t36.5 -112.5q0 -129 -67.5 -223t-180.5 -94q-81 0 -124 55q-83 -17 -149 -67h-13l117 624q5 30 5 36q0 24 -14.5 34t-29 12t-14.5 8q0 1 0.5 4.5t0.5 5.5l238 33q2 -1 4 -5q-48 -259 -63 -333q-20 -93 -41 -163h4q77 222 200 222zM245 22
q35 0 67 56.5t48.5 126t16.5 121.5q0 67 -36 67q-32 0 -72 -74t-68 -198q-11 -40 -16 -68q26 -31 60 -31z" />
    <glyph glyph-name="c" unicode="c" horiz-adv-x="464" 
d="M321 455q70 0 103.5 -28.5t33.5 -68.5q0 -30 -19 -48t-46 -18q-33 0 -50.5 23t-17.5 56q0 35 22 62q-44 0 -79 -47t-51.5 -111.5t-16.5 -129.5q0 -55 25 -84t71 -29q59 0 117 46q1 -2 4.5 -6t3.5 -5q-89 -81 -203 -81q-92 0 -140.5 48t-48.5 126q0 121 81 208t211 87z
" />
    <glyph glyph-name="d" unicode="d" horiz-adv-x="605" 
d="M328 419q-52 0 -91.5 -89.5t-39.5 -190.5q0 -23 0.5 -35t3.5 -27.5t10.5 -22.5t20.5 -7q35 0 81.5 95.5t71.5 250.5q-24 26 -57 26zM359 208h-1l-2 1q-37 -114 -86 -168t-113 -54q-55 0 -91.5 35.5t-36.5 112.5q0 82 28 153.5t85.5 118t131.5 46.5t115 -38l2 1l37 192
q3 15 3 25q0 19 -9.5 29.5t-21 12.5t-21 5t-9.5 8q0 1 0.5 4.5t0.5 5.5l241 34l5 -5q-25 -131 -70 -373t-60 -320q41 27 94 84l10 -11q-98 -119 -173 -119q-83 0 -83 78q0 50 24 142z" />
    <glyph glyph-name="e" unicode="e" horiz-adv-x="496" 
d="M223 -13q-97 0 -145.5 47.5t-48.5 127.5q0 117 81.5 204.5t218.5 87.5q155 0 155 -107q0 -43 -27 -75.5t-72 -51t-90 -27.5t-93 -12q-2 -22 -2 -32q0 -113 92 -113q77 0 147 67l9 -10q-40 -47 -98.5 -76.5t-126.5 -29.5zM204 204q72 6 111.5 63t39.5 119q0 49 -36 49
q-38 0 -71 -70t-44 -161z" />
    <glyph glyph-name="f" unicode="f" horiz-adv-x="318" 
d="M-76 -220q-40 0 -65.5 18.5t-25.5 51.5q0 25 17 41.5t43 16.5q36 0 57 -29t21 -74q29 14 46 88q19 85 43.5 277t36.5 248h-83l2 17h85q34 147 113.5 226.5t172.5 79.5q39 0 63 -19t24 -46q0 -28 -18.5 -43.5t-46.5 -15.5q-32 0 -53.5 25t-21.5 76q-36 -19 -60 -201
l-11 -82h98l-3 -17h-97q-45 -316 -124.5 -477t-212.5 -161z" />
    <glyph glyph-name="g" unicode="g" horiz-adv-x="545" 
d="M303 437q-41 0 -69.5 -94.5t-28.5 -160.5q0 -62 41 -62q40 0 69 93t29 161q0 63 -41 63zM305 455q30 0 62 -9q18 56 58.5 93.5t87.5 37.5q30 0 50 -17t20 -44q0 -29 -19.5 -46t-46.5 -17q-24 0 -49.5 19.5t-27.5 57.5q-38 -26 -59 -88q54 -15 85.5 -50t31.5 -85
q0 -80 -70 -141.5t-188 -61.5q-80 0 -130 29q-41 -20 -41 -42q0 -17 41.5 -22.5t101 -6.5t119 -6.5t101 -31t41.5 -72.5q0 -72 -88.5 -127.5t-229.5 -55.5q-103 0 -150 35.5t-47 80.5q0 31 18 53t46 22q30 0 47 -21.5t17 -53.5q0 -19 -11 -42.5t-25 -34.5q25 -19 87 -19
q59 0 102.5 30.5t43.5 81.5q0 27 -21 45t-52 25.5t-67.5 14t-67.5 11.5t-52 17t-21 31q0 22 24 49.5t71 46.5q-48 37 -48 98q0 87 70.5 151.5t185.5 64.5z" />
    <glyph glyph-name="h" unicode="h" horiz-adv-x="587" 
d="M312 732l3 -3l-57 -303q-18 -93 -46 -196h2l2 -1q76 225 211 225q54 0 91.5 -38t37.5 -123q0 -131 -75.5 -230t-172.5 -99q-43 0 -67.5 21.5t-24.5 51.5q0 24 13.5 41t37.5 17q28 0 44 -21.5t16 -56.5q0 -17 -6 -36h2q32 20 53 111.5t21 194.5q0 108 -48 108
q-38 0 -82 -82t-70 -207l-22 -106h-163l114 601q4 22 4 33q0 24 -15 34t-30.5 12t-15.5 8q0 1 0.5 4.5t0.5 5.5q20 2 242 34z" />
    <glyph glyph-name="i" unicode="i" horiz-adv-x="343" 
d="M249 712q35 0 56.5 -23.5t21.5 -58.5q0 -44 -32.5 -77t-75.5 -33q-32 0 -54 22t-22 55q0 45 31.5 80t74.5 35zM190 456q90 0 90 -89q0 -13 -7 -48l-56 -288q45 29 96 83l10 -10q-100 -118 -174 -118q-86 0 -86 89q0 10 7 50l56 286q-34 -23 -97 -88q-5 6 -11 11
q105 122 172 122z" />
    <glyph glyph-name="j" unicode="j" horiz-adv-x="306" 
d="M189 455q42 0 64.5 -23.5t22.5 -64.5q0 -24 -5 -52q-15 -84 -22.5 -122.5t-23 -99t-36 -103t-49.5 -79.5q-48 -62 -99 -99.5t-119 -37.5q-40 0 -64.5 19.5t-24.5 49.5q0 29 19 48t48 19t51.5 -22t22.5 -73q0 -3 -0.5 -8t-0.5 -8q36 12 53 105l96 504q-36 -23 -96 -87
l-11 12q59 67 98 94.5t76 27.5zM243 711q36 0 57.5 -24t21.5 -59q0 -44 -32 -77t-74 -33q-33 0 -54.5 23t-23.5 57q0 44 31 78.5t74 34.5z" />
    <glyph glyph-name="k" unicode="k" horiz-adv-x="559" 
d="M210 218h3q42 118 101.5 178t125.5 60q40 0 62.5 -23.5t22.5 -56.5q0 -43 -42 -82t-103 -59q23 -108 76 -196q18 13 83 75l10 -10q-30 -36 -53 -58t-59.5 -41t-74.5 -19q-55 0 -82 52.5t-36 147.5q74 27 115.5 65.5t41.5 77.5q0 19 -10 30t-25 11q-49 0 -96.5 -73.5
t-72.5 -202.5l-18 -94h-165l113 594q0 1 5 39q0 25 -15 35t-30 12t-15 8t1 10l241 34l3 -4l-54 -288q-21 -116 -53 -222z" />
    <glyph glyph-name="l" unicode="l" horiz-adv-x="312" 
d="M324 728q-19 -103 -41 -218.5t-49 -256.5t-42 -218q51 33 95 81l10 -11q-97 -117 -180 -117q-80 0 -80 72q0 20 7 53l86 461q9 54 9 60q0 24 -15 34t-30.5 12t-15.5 8t1 10l242 34z" />
    <glyph glyph-name="m" unicode="m" horiz-adv-x="869" 
d="M441 454q45 0 69.5 -23t24.5 -61t-37 -171l2 -1h2q42 135 97.5 195.5t105.5 60.5t74 -26.5t24 -71.5q0 -33 -9.5 -86t-27 -132t-22.5 -104q45 28 94 81l11 -11q-99 -117 -180 -117q-39 0 -59.5 21.5t-20.5 58.5q0 17 6.5 51t20 91t16.5 73q11 49 11 63q0 27 -22 27
q-28 0 -69 -86.5t-63 -200.5q-3 -14 -8 -42.5t-8 -42.5h-163l63 316q3 10 3 25q0 31 -22 31q-36 0 -77.5 -111t-67.5 -261h-165l77 407q-43 -28 -96 -86l-11 12q57 66 96 93.5t77 27.5q41 0 62.5 -20t21.5 -54q0 -40 -39 -184h4q42 138 98 198t107 60z" />
    <glyph glyph-name="n" unicode="n" horiz-adv-x="616" 
d="M187 455q41 0 63.5 -20.5t22.5 -54.5q0 -48 -38 -183q1 0 2 -0.5t2 -0.5q46 136 106 197.5t111 61.5q98 0 98 -99q0 -20 -6 -56l-53 -266q51 32 94 81l10 -11q-101 -118 -175 -118q-85 0 -85 81q0 13 8 57l38 173q8 36 8 52q0 30 -22 30q-32 0 -78 -95.5t-70 -216.5
l-13 -67h-163l76 408q-35 -23 -97 -87l-11 12q103 122 172 122z" />
    <glyph glyph-name="o" unicode="o" horiz-adv-x="568" 
d="M326 455q111 0 161.5 -52t50.5 -135q0 -113 -83.5 -197.5t-223.5 -84.5q-106 0 -154 50.5t-48 132.5q0 120 82.5 203t214.5 83zM324 437q-36 0 -67 -61.5t-46 -140t-15 -144.5q0 -89 45 -89q32 0 59 40t42.5 97t24 112t8.5 94q0 92 -51 92z" />
    <glyph glyph-name="p" unicode="p" horiz-adv-x="603" 
d="M208 22l-23 -127q-5 -25 -5 -36q0 -25 17 -36t34.5 -15t17.5 -12q0 -4 -1 -6h-314v5q0 8 10.5 13t24 8.5t28 20t19.5 45.5q84 441 99 525q-41 -29 -96 -87l-10 11q55 68 96 95t79 27q82 0 82 -77q0 -48 -26 -148h2q1 -1 2 -1q70 227 200 227q55 0 92 -36t37 -113
q0 -127 -67 -222t-178 -95q-79 0 -118 35q-1 -1 -2 -1zM272 18q53 0 93 108t40 199q0 67 -35 67q-33 0 -74 -76t-67 -203l-15 -69q24 -26 58 -26z" />
    <glyph glyph-name="q" unicode="q" horiz-adv-x="573" 
d="M327 419q-35 0 -67 -57.5t-48.5 -127.5t-16.5 -121q0 -66 37 -66q39 0 79.5 89t76.5 251q-24 32 -61 32zM273 454q83 0 125 -52q87 14 153 62h13l-105 -559q-5 -27 -5 -46q0 -24 15.5 -35.5t31 -15.5t15.5 -11v-7h-317v6q1 9 13 13.5t27 7.5t30 19t21 46l36 181
q13 67 33 140q-1 0 -3 1q-40 -117 -88.5 -167t-110.5 -50q-55 0 -91.5 36t-36.5 112q0 81 28 152.5t85 119t131 47.5z" />
    <glyph glyph-name="r" unicode="r" horiz-adv-x="483" 
d="M187 456q42 0 64 -20.5t22 -55.5q0 -37 -38 -181l3 -1q45 138 96 197t99 59q36 0 59.5 -19t23.5 -50q0 -30 -19 -47.5t-47 -17.5q-35 0 -56.5 24t-20.5 65q-39 -28 -83.5 -124.5t-68.5 -225.5l-11 -59h-164l77 407q-36 -23 -97 -86l-10 12q103 123 171 123z" />
    <glyph glyph-name="s" unicode="s" horiz-adv-x="469" 
d="M286 455q79 0 121 -29t42 -71q0 -32 -18.5 -49t-40.5 -17q-30 0 -46 19.5t-16 48.5q0 42 24 72q-25 7 -47 7q-35 0 -60.5 -16t-25.5 -50q0 -22 21 -43t51.5 -39.5t61 -39.5t51.5 -50.5t21 -62.5q0 -73 -68 -111t-171 -38q-91 0 -132.5 30t-41.5 72q0 33 18.5 49.5
t39.5 16.5q29 0 45 -20t16 -48q0 -45 -24 -73q25 -10 64 -10t67 18t28 51q0 26 -31 53.5t-67.5 48.5t-67.5 54.5t-31 70.5q0 77 66 116.5t151 39.5z" />
    <glyph glyph-name="t" unicode="t" horiz-adv-x="328" 
d="M36 67q0 25 6 53l57 297h-58q0 6 2 18h60q61 10 109.5 60.5t72.5 117.5h14q-4 -26 -9.5 -55.5t-12.5 -65.5t-11 -56h105l-3 -19h-105q-57 -302 -71 -382q52 34 96 82l10 -11q-98 -118 -184 -118q-78 0 -78 79z" />
    <glyph glyph-name="u" unicode="u" 
d="M560 454l6 -4q-47 -237 -80 -417q33 21 95 85l10 -13q-100 -119 -171 -119q-41 0 -63 19.5t-22 53.5q0 49 36 183q-1 0 -2 0.5t-2 0.5q-43 -137 -99.5 -197t-107.5 -60q-98 0 -98 97q0 25 6 54l54 268q-48 -31 -96 -84l-11 12q103 122 175 122q88 0 88 -83q0 -12 -7 -49
l-41 -188q-7 -33 -7 -43q0 -27 21 -27q29 0 71.5 88t66.5 205l10 49q100 8 168 47z" />
    <glyph glyph-name="v" unicode="v" horiz-adv-x="489" 
d="M296 139q107 107 137 169q-34 7 -55 30t-21 57q0 9 3 21.5t18 28.5t40 16q28 0 44 -20.5t16 -55.5q0 -42 -34.5 -97.5t-76 -100t-100.5 -104.5t-85 -92h-24q-40 257 -73 394q-29 -24 -72 -82l-11 10q96 142 174 142q49 0 73 -62t47 -254z" />
    <glyph glyph-name="w" unicode="w" horiz-adv-x="756" 
d="M461 454q35 0 56 -27t35.5 -92.5t27.5 -191.5q89 94 125 167q-36 7 -59 30.5t-23 55.5q0 23 16 45t44 22q27 0 45 -20t18 -57q0 -55 -43 -119.5t-132.5 -159.5t-106.5 -116h-23q-8 57 -41 257q-28 -40 -68 -87t-88 -99.5t-64 -70.5h-22q-40 258 -73 393q-26 -22 -72 -81
l-11 10q96 142 178 142q50 0 74.5 -65.5t41.5 -244.5q65 72 99 126l-23 117q-22 -17 -56 -62q-2 2 -6 5.5t-5 5.5q85 117 156 117z" />
    <glyph glyph-name="x" unicode="x" horiz-adv-x="567" 
d="M235 455q38 0 59.5 -31t52.5 -129q38 80 74 119.5t83 39.5q30 0 51.5 -18t21.5 -46t-20 -43.5t-43 -15.5q-31 0 -51 23t-22 52q-40 -34 -87 -136q10 -33 35 -111t32 -103q33 32 68 78q1 -1 3 -2.5t3.5 -2t3 -2l2.5 -2.5q-20 -28 -36 -47.5t-39 -43t-47.5 -36t-48.5 -12.5
q-40 0 -66.5 35t-48.5 128q-41 -87 -77.5 -128t-85.5 -41q-30 0 -51 17t-21 45t19.5 44t42.5 16q33 0 52 -23.5t21 -52.5q43 37 91 149q-9 33 -34.5 115t-28.5 91q-26 -25 -67 -78q-4 4 -12 10q44 63 86 102.5t85 39.5z" />
    <glyph glyph-name="y" unicode="y" horiz-adv-x="482" 
d="M469 387q0 -53 -37 -114.5t-89.5 -117t-105 -109t-89.5 -105.5t-37 -91q0 -49 40 -60q0 44 21 73t54 29q25 0 39.5 -14.5t14.5 -35.5q0 -34 -28.5 -55.5t-66.5 -21.5q-42 0 -68.5 22t-26.5 61q0 58 68 140q-53 294 -84 396q-25 -24 -69 -79l-10 10q42 63 81.5 100
t89.5 37q23 0 40 -13.5t33.5 -47.5t29 -100.5t20.5 -165.5q5 6 23.5 26t25 27.5t21.5 24.5t22.5 27t17.5 24t16.5 25.5t10.5 22.5q-76 23 -76 95q0 20 13 41t44 21q27 0 44.5 -20t17.5 -52z" />
    <glyph glyph-name="z" unicode="z" horiz-adv-x="505" 
d="M158 459q49 0 145.5 -28.5t114.5 -28.5q39 0 80 59l12 -8q-34 -59 -100.5 -120t-130 -102.5t-132.5 -90t-100 -81.5v-3q85 65 154 65q40 0 111 -37.5t97 -37.5q17 0 29 12q-26 3 -44 14t-25 25.5t-9.5 25t-2.5 20.5q0 22 14 41t42 19q27 0 42 -21.5t15 -52.5
q0 -62 -46 -120.5t-121 -58.5q-45 0 -87.5 22.5t-79.5 45t-69 22.5q-43 0 -78 -53l-12 9q27 50 84 100.5t115 87.5t132 90.5t122 102.5l-2 2q-85 -73 -188 -73q-69 0 -162 32q-4 -10 -7.5 -23.5t-8.5 -34.5t-9 -36l-13 2q28 213 118 213z" />
    <glyph glyph-name="braceleft" unicode="{" horiz-adv-x="346" 
d="M224 135l-35 -203q-7 -43 6 -70.5t63 -31.5l-2 -15q-119 -10 -160 39t-26 139l32 180q12 47 3.5 84.5t-49.5 43.5l2 17q46 12 63.5 40t27.5 90l16 100q15 92 68.5 142t172.5 42l-2 -16q-28 -2 -47.5 -12t-29.5 -27.5t-14.5 -33t-7.5 -37.5l-20 -115q-15 -86 -60 -130.5
t-130 -48.5l-1 -3q80 -2 113 -42.5t17 -131.5z" />
    <glyph glyph-name="bar" unicode="|" horiz-adv-x="309" 
d="M184 -141h-34v885h34v-885z" />
    <glyph glyph-name="braceright" unicode="}" horiz-adv-x="346" 
d="M151 479l23 133q3 25 3 46.5t-17 37t-51 18.5l1 15q62 5 103.5 -7t59 -36.5t23 -59.5t-3.5 -75l-19 -110q-5 -33 -6.5 -59.5t11 -45.5t41.5 -23l-2 -17q-46 -12 -63.5 -40t-27.5 -90l-29 -170q-15 -92 -68.5 -142t-171.5 -42l2 16q28 2 47 11.5t29.5 27.5t14.5 32.5
t8 37.5l32 186q15 86 60 131t130 48l1 4q-80 2 -112.5 42t-17.5 131z" />
    <glyph glyph-name="asciitilde" unicode="~" horiz-adv-x="569" 
d="M504 365l12 -4q-15 -69 -58 -112.5t-99 -43.5q-25 0 -88.5 19t-95.5 19q-64 0 -91 -52l-13 4q11 62 51.5 108t98.5 46q22 0 90.5 -19t101.5 -19q63 0 91 54z" />
    <glyph glyph-name="exclamdown" unicode="&#xa1;" horiz-adv-x="333" 
d="M84 -279q-43 0 -63 25.5t-20 59.5q0 35 12 63q8 20 63 160t82 204h17q3 -45 22 -323q3 -45 3 -48q0 -56 -28.5 -98.5t-87.5 -42.5zM205 451q28 0 46 -20.5t18 -50.5q0 -40 -28.5 -71.5t-65.5 -31.5q-28 0 -46.5 20t-18.5 51q0 41 28.5 72t66.5 31z" />
    <glyph glyph-name="cent" unicode="&#xa2;" horiz-adv-x="570" 
d="M388 638h16l-21 -100q67 -1 99.5 -29.5t32.5 -67.5q0 -30 -19 -48t-46 -18q-33 0 -50.5 23t-17.5 56q0 35 22 62q-12 0 -27 -5q-56 -267 -81 -380q22 -16 57 -16q59 0 117 46q1 -2 4.5 -6t3.5 -5q-86 -78 -195 -81q-6 -31 -11.5 -54.5t-8 -34.5t-3.5 -17h-17q1 6 3.5 17
t8 34.5t11.5 54.5q-88 2 -134 50t-46 124q0 117 77.5 203.5t202.5 90.5zM282 143l77 359q-46 -30 -74 -111t-28 -163q0 -55 25 -85z" />
    <glyph glyph-name="sterling" unicode="&#xa3;" horiz-adv-x="570" 
d="M157 317h-114l3 20h106q-20 70 -20 115q0 101 68 160t172 59q97 0 142.5 -35.5t45.5 -82.5q0 -30 -18 -50t-48 -20q-32 0 -48 20.5t-16 52.5q0 51 28 86q-24 7 -50 7q-62 0 -82 -47t-20 -159v-41q0 -12 -5 -65h142q0 -4 -1.5 -11.5t-1.5 -8.5h-142q-28 -166 -204 -263
l2 -3q68 39 125 39q54 0 154 -48.5t134 -48.5q25 0 41 18q-36 5 -57 23.5t-25 33.5t-4 29q0 21 14.5 42t43.5 21t44.5 -22t15.5 -55q0 -61 -49.5 -121t-127.5 -60q-43 0 -87.5 20.5t-75 45t-67 45t-66.5 20.5q-31 0 -123 -52q-2 5 -8 15q109 63 150 121t41 126q0 31 -12 74z
" />
    <glyph glyph-name="currency" unicode="&#xa4;" horiz-adv-x="596" 
d="M308 87q-56 0 -106 34q-7 -7 -28 -27.5t-32 -31.5l-50 49l60 61q-34 49 -34 108q0 57 34 110l-60 61l48 52l63 -61q52 35 105 35q54 0 104 -33l60 59l50 -52l-60 -60q33 -57 33 -109q0 -59 -32 -110l59 -59q-15 -17 -48 -53l-60 61q-51 -34 -106 -34zM308 410
q-51 0 -88 -37.5t-37 -91.5q0 -53 36.5 -91.5t88.5 -38.5t89 38t37 92t-37 91.5t-89 37.5z" />
    <glyph glyph-name="yen" unicode="&#xa5;" horiz-adv-x="570" 
d="M49 311h128l-59 258q-7 32 -25 48t-31.5 21t-13.5 12q0 2 0.5 5t0.5 4h332v-6q0 -9 -11.5 -14.5t-26 -7.5t-26 -12.5t-11.5 -28.5q0 -2 10 -49l54 -223h1l102 198q29 48 29 74q0 22 -18 32.5t-35.5 15t-17.5 11.5l1 4v6h218v-3q0 -11 -13.5 -17.5t-34.5 -13t-53 -38.5
t-62 -87l-103 -189h153l-3 -21h-159l-10 -56h160l-4 -21h-160l-17 -97q-4 -22 -4 -41q0 -28 15 -41t30.5 -16.5t15.5 -10.5v-7h-321q0 12 11 17t25.5 7t29 19.5t19.5 51.5l18 118h-151l4 21h150l4 22l-8 34h-137z" />
    <glyph glyph-name="brokenbar" unicode="&#xa6;" horiz-adv-x="309" 
d="M180 373h-33v371h33v-371zM147 269h33v-410h-33v410z" />
    <glyph glyph-name="section" unicode="&#xa7;" horiz-adv-x="591" 
d="M169 -138q-71 0 -104.5 34.5t-33.5 75.5q0 37 22.5 61.5t49.5 24.5q35 0 53.5 -24.5t18.5 -59.5q0 -52 -31 -90q9 -2 29 -2q45 0 75 26t30 70q0 36 -30.5 87.5t-67.5 97t-67.5 107t-30.5 115.5q0 126 94 217.5t231 91.5q79 0 118 -33.5t39 -81.5q0 -33 -20 -54.5
t-50 -21.5q-35 0 -52.5 24t-17.5 59q0 47 25 84q-12 4 -29 4q-42 0 -69 -28t-27 -75q0 -32 21 -67t51 -68.5t60.5 -70.5t51.5 -85.5t21 -100.5q0 -44 -12.5 -87.5t-41 -85t-69.5 -73.5t-102.5 -51.5t-134.5 -19.5zM242 624l-3 4q-76 -52 -76 -134q0 -50 23 -101.5t56 -95.5
t66 -87t56 -91t23 -93q0 -52 -33 -98l2 -5q86 49 86 142q0 54 -27.5 108t-76.5 121q-4 6 -25 33t-29.5 38.5t-25 38t-24 44.5t-14.5 43t-7 47q0 46 29 86z" />
    <glyph glyph-name="dieresis" unicode="&#xa8;" horiz-adv-x="529" 
d="M250 697q28 0 45.5 -19.5t17.5 -48.5q0 -37 -27.5 -64.5t-61.5 -27.5q-26 0 -44 18.5t-18 45.5q0 38 26 67t62 29zM444 697q29 0 46 -19.5t17 -48.5q0 -37 -27 -64.5t-61 -27.5q-26 0 -44 18.5t-18 45.5q0 38 25.5 67t61.5 29z" />
    <glyph glyph-name="copyright" unicode="&#xa9;" horiz-adv-x="811" 
d="M409 -5q-154 0 -248 99t-94 247q0 145 98 246t244 101t243.5 -101t97.5 -246q0 -146 -97.5 -246t-243.5 -100zM409 25q130 0 216.5 92.5t86.5 223.5t-86.5 223.5t-216.5 92.5q-131 0 -217.5 -92t-86.5 -224q0 -133 84 -224.5t220 -91.5zM417 567q62 0 117 -26l21 29h9
v-168h-4q-12 0 -17 21q-13 51 -39 89.5t-70 38.5q-98 0 -98 -223q0 -201 99 -201q39 0 66 26.5t37 58.5t19 58.5t16 26.5h6l-3 -186h-9l-21 30q-68 -32 -135 -32q-103 0 -165.5 63t-62.5 161q0 99 65 166.5t169 67.5z" />
    <glyph glyph-name="ordfeminine" unicode="&#xaa;" horiz-adv-x="399" 
d="M209 596q55 0 88 -32q59 8 101 35h15q-8 -34 -53 -269q28 16 61 49l9 -9q-69 -78 -126 -78q-32 0 -44 13t-12 46q0 26 8 56q-2 0 -3 1q-23 -58 -56.5 -88t-68.5 -30q-37 0 -62 24t-25 75q0 83 45.5 145t122.5 62zM248 568q-35 0 -60.5 -64t-25.5 -119q0 -41 21 -41
q46 0 101 210q-19 14 -36 14z" />
    <glyph glyph-name="guillemotleft" unicode="&#xab;" horiz-adv-x="442" 
d="M271 415l9 -10q-24 -33 -71 -99.5t-71 -99.5l73 -199l-11 -10l-160 184q-9 9 -9 22q0 12 16 26zM425 415l9 -10q-14 -19 -142 -199l73 -199l-11 -10l-160 184q-9 12 -9 21q0 13 17 27z" />
    <glyph glyph-name="logicalnot" unicode="&#xac;" horiz-adv-x="574" 
d="M495 328l-41 -247h-42q24 146 34 202h-346q2 8 4 22.5t3 22.5h388z" />
    <glyph glyph-name="sfthyphen" unicode="&#xad;" horiz-adv-x="313" 
d="M276 212h-244q3 22 11 66h244q-3 -22 -11 -66z" />
    <glyph glyph-name="registered" unicode="&#xae;" horiz-adv-x="646" 
d="M343 600q114 0 114 -75q0 -36 -32 -54.5t-86 -18.5q-11 0 -27 2q19 -19 68 -19q21 0 31 2l58 -92q6 -10 14 -14t12.5 -5t4.5 -5v-3h-106l-9 13q-56 82 -83 123h-4v-98q0 -15 7 -21.5t13.5 -8.5t6.5 -5v-3h-143v3q0 3 14.5 9t14.5 26v206q0 20 -14.5 25.5t-14.5 8.5v4h161
zM298 593v-132h8q27 0 43.5 19t16.5 46q0 30 -18 48.5t-45 18.5h-5zM330 182q-119 0 -192.5 76.5t-73.5 189.5t76 191t190 78t190.5 -78t76.5 -191q0 -111 -76.5 -188.5t-190.5 -77.5zM330 212q104 0 168.5 67t64.5 169t-66 170t-167 68q-100 0 -165.5 -66.5t-65.5 -171.5
q0 -103 64.5 -169.5t166.5 -66.5z" />
    <glyph glyph-name="macron" unicode="&#xaf;" horiz-adv-x="530" 
d="M489 642l-18 -94q-119 11 -294 0l14 75q84 14 298 19z" />
    <glyph glyph-name="degree" unicode="&#xb0;" horiz-adv-x="345" 
d="M124 570q0 -39 24 -64t62 -25q37 0 61.5 25.5t24.5 63.5t-24.5 64t-61.5 26t-61.5 -26t-24.5 -64zM90 570q0 52 35 88t85 36t85 -36t35 -88t-35 -87.5t-85 -35.5q-51 0 -85.5 35.5t-34.5 87.5z" />
    <glyph glyph-name="plusminus" unicode="&#xb1;" horiz-adv-x="572" 
d="M444 2h-389q4 33 7 46h389q-3 -13 -7 -46zM492 293h-171l-33 -188h-42q10 62 32 188h-174l8 48h175q11 69 29 178h43l-30 -178h173q-2 -8 -5 -24t-5 -24z" />
    <glyph glyph-name="twosuperior" unicode="&#xb2;" horiz-adv-x="391" 
d="M123 382h122q58 0 81.5 11.5t44.5 40.5q7 10 14 10q5 0 7 -2q-52 -116 -64 -142h-302v9q27 34 73 72.5t78 64.5t57 68.5t25 93.5q0 24 -14 44t-40 20q-17 0 -28 -8q21 -21 21 -49q0 -16 -16.5 -39.5t-40.5 -23.5q-20 0 -31 13.5t-11 30.5q0 44 48 72t105 28q71 0 103 -26
t32 -64t-32 -72.5t-72 -55.5t-89 -48t-71 -48z" />
    <glyph glyph-name="threesuperior" unicode="&#xb3;" horiz-adv-x="391" 
d="M272 513q48 -6 75 -31t27 -61q0 -54 -52.5 -92t-137.5 -38q-68 0 -103 23t-35 59q0 38 30 60t78 24l5 -10q-23 -28 -23 -80q0 -29 7 -43.5t30 -14.5q35 0 55 38t20 83q0 39 -21.5 54.5t-62.5 15.5q-2 0 -8 -0.5t-8 -0.5q0 3 -0.5 7t-0.5 7q119 20 119 118q0 19 -12 33.5
t-31 14.5q-12 0 -23 -4q11 -17 11 -37q0 -27 -17 -46t-47 -19q-19 0 -28.5 11.5t-9.5 26.5q0 38 40.5 62t106.5 24q70 0 101 -23t31 -57q0 -33 -29.5 -62.5t-86.5 -40.5v-1z" />
    <glyph glyph-name="acute" unicode="&#xb4;" horiz-adv-x="529" 
d="M252 510l-5 13q42 28 72.5 66t43.5 65.5t31.5 47t42.5 19.5t37 -14t12 -33q-1 -12 -9.5 -29t-31 -42t-73 -50.5t-120.5 -42.5z" />
    <glyph glyph-name="mu" unicode="&#xb5;" 
d="M486 32q33 22 95 86q2 -2 5 -6.5t5 -6.5q-100 -118 -174 -118q-82 0 -82 79q8 74 35 176h-3q-67 -209 -160 -238l-18 -104q-5 -28 -5 -40q0 -25 17 -36t34.5 -15t17.5 -11q0 -4 -1 -8h-313q0 11 10.5 16.5t23.5 8t27.5 19.5t20.5 48l100 523q-45 -30 -95 -84l-11 12
q101 120 179 120q83 0 83 -83q0 -23 -7 -59.5t-20 -89.5t-17 -74q-10 -40 -10 -55q0 -29 22 -29q27 0 69 89t67 205l11 50q100 9 167 47l6 -5q-57 -295 -79 -417z" />
    <glyph glyph-name="mu" unicode="&#x3bc;" 
d="M486 32q33 22 95 86q2 -2 5 -6.5t5 -6.5q-100 -118 -174 -118q-82 0 -82 79q8 74 35 176h-3q-67 -209 -160 -238l-18 -104q-5 -28 -5 -40q0 -25 17 -36t34.5 -15t17.5 -11q0 -4 -1 -8h-313q0 11 10.5 16.5t23.5 8t27.5 19.5t20.5 48l100 523q-45 -30 -95 -84l-11 12
q101 120 179 120q83 0 83 -83q0 -23 -7 -59.5t-20 -89.5t-17 -74q-10 -40 -10 -55q0 -29 22 -29q27 0 69 89t67 205l11 50q100 9 167 47l6 -5q-57 -295 -79 -417z" />
    <glyph glyph-name="paragraph" unicode="&#xb6;" horiz-adv-x="635" 
d="M326 674h333q-1 -3 -1 -8q-1 -8 -14 -12t-29 -7.5t-32 -22t-21 -51.5l-75 -441q-24 -142 -109 -231t-227 -89q-78 0 -112 30.5t-34 73.5t21 67.5t53 24.5q34 0 53.5 -23t19.5 -58q0 -55 -32 -91h4q45 0 75 40.5t41 97.5q17 86 50 284h-31q-77 0 -121.5 49t-44.5 127
q0 100 68 170t165 70zM444 655q-19 -106 -55 -317.5t-54 -316.5q-23 -129 -115 -176v-4q75 18 114.5 77.5t52.5 133.5l102 603h-45z" />
    <glyph glyph-name="periodcentered" unicode="&#xb7;" horiz-adv-x="241" 
d="M138 338q30 0 48.5 -20.5t18.5 -52.5q0 -42 -29 -74t-68 -32q-30 0 -48.5 20.5t-18.5 51.5q0 43 30 75t67 32z" />
    <glyph glyph-name="cedilla" unicode="&#xb8;" horiz-adv-x="458" 
d="M194 6l-39 -65q78 -1 119.5 -25t41.5 -62q0 -47 -54.5 -82.5t-147.5 -35.5q-30 0 -51 2q0 7 3 16q61 0 100 23t39 61q0 51 -92 57l68 114q4 0 13 -3z" />
    <glyph glyph-name="onesuperior" unicode="&#xb9;" horiz-adv-x="371" 
d="M324 691l-57 -337q-3 -18 8 -26t23 -11t11 -9l-1 -8h-215l1 6q1 7 13 10t25.5 10.5t16.5 26.5l43 259q3 18 -2.5 23t-23.5 6q-21 3 -21 8v2l1 7l174 37z" />
    <glyph glyph-name="ordmasculine" unicode="&#xba;" horiz-adv-x="397" 
d="M262 598q77 0 113.5 -34t36.5 -88q0 -72 -58 -128.5t-155 -56.5q-73 0 -107.5 33.5t-34.5 87.5q0 77 57 131.5t148 54.5zM260 582q-34 0 -59 -80t-25 -145q0 -52 30 -52q36 0 61 80t25 142q0 55 -32 55z" />
    <glyph glyph-name="guillemotright" unicode="&#xbb;" horiz-adv-x="446" 
d="M67 405q4 4 12 10l163 -183q11 -12 11 -24q0 -13 -18 -28l-219 -183l-10 10l140 199q-11 30 -39.5 99.5t-39.5 99.5zM225 405q3 4 11 10l151 -169q23 -28 23 -38q0 -13 -16 -26l-221 -185l-3 3t-4 3.5t-3 3.5q24 33 73 104t67 95q-68 173 -78 199z" />
    <glyph glyph-name="onequarter" unicode="&#xbc;" horiz-adv-x="773" 
d="M620 720l-431 -759h-20l432 759h19zM322 691l-57 -337q-3 -18 8 -26t23 -11t11 -9l-1 -8h-215l1 6q1 7 13 10t25.5 10.5t16.5 26.5l43 259q3 18 -2.5 23t-23.5 6q-21 3 -21 8v2l1 7l174 37zM676 250h2l2 -1l-21 -127h50l-3 -16h-50q-9 -47 -9 -60q0 -17 21.5 -24.5
t21.5 -14.5v-7h-217q0 10 8 14.5t18 6t20 13t13 34.5l6 38h-180q0 4 2 14q110 127 205 269h138q0 -1 0.5 -1t0.5 -1q-102 -144 -322 -265h159q11 58 14 80q65 13 121 48z" />
    <glyph glyph-name="onehalf" unicode="&#xbd;" horiz-adv-x="773" 
d="M597 720l-431 -759h-20l432 759h19zM309 691l-57 -337q-3 -18 8 -26t23 -11t11 -9l-1 -8h-215l1 6q1 7 13 10t25.5 10.5t16.5 26.5l43 259q3 18 -2.5 23t-23.5 6q-21 3 -21 8v2l1 7l174 37zM457 82h122q58 0 82 12t45 40q7 10 12 10q6 0 8 -2q-52 -116 -64 -142h-301v9
q27 34 72.5 72.5t77.5 64.5t57 68.5t25 93.5q0 24 -14 44t-40 20q-17 0 -28 -8q21 -21 21 -49q0 -16 -16.5 -39.5t-40.5 -23.5q-20 0 -31 13.5t-11 30.5q0 44 48 72t105 28q71 0 103 -26t32 -64t-32 -72.5t-72 -55.5t-89 -48t-71 -48z" />
    <glyph glyph-name="threequarters" unicode="&#xbe;" horiz-adv-x="778" 
d="M278 513q48 -6 75 -31t27 -61q0 -54 -52.5 -92t-137.5 -38q-68 0 -103 23t-35 59q0 38 30 60t78 24l5 -10q-23 -28 -23 -80q0 -29 7 -43.5t30 -14.5q35 0 55 38t20 83q0 39 -21.5 54.5t-62.5 15.5q-2 0 -8 -0.5t-8 -0.5q0 3 -0.5 7t-0.5 7q119 20 119 118q0 19 -12 33.5
t-31 14.5q-12 0 -23 -4q11 -17 11 -37q0 -27 -17 -46t-47 -19q-19 0 -28.5 11.5t-9.5 26.5q0 38 40.5 62t106.5 24q70 0 101 -23t31 -57q0 -33 -29.5 -62.5t-86.5 -40.5v-1zM701 250q1 0 2 -0.5t2 -0.5l-21 -127h50l-3 -16h-50q-9 -47 -9 -60q0 -17 21.5 -24.5t21.5 -14.5
v-7h-217q0 10 8 14.5t18 6t20 13t13 34.5l6 38h-180q0 4 2 14q110 127 205 269h138q0 -1 0.5 -1t0.5 -1q-102 -144 -322 -265h159q11 58 14 80q65 13 121 48zM651 720l-431 -759h-20l432 759h19z" />
    <glyph glyph-name="questiondown" unicode="&#xbf;" horiz-adv-x="513" 
d="M174 -285q-89 0 -144 31t-55 101q0 48 30.5 90.5t74 72.5t87 56.5t74 53.5t30.5 53q0 29 -42 49l9 15q85 -6 128.5 -39t43.5 -81q0 -38 -29 -74t-70 -64.5t-82.5 -56.5t-70.5 -60.5t-29 -65.5q0 -59 76 -59q27 0 57 7q-18 28 -18 66q0 44 25 75.5t67 31.5q26 0 43 -16.5
t17 -44.5q0 -59 -56.5 -100t-165.5 -41zM290 275q-28 0 -46.5 20.5t-18.5 50.5q0 41 28.5 71.5t65.5 30.5q28 0 46.5 -20t18.5 -50q0 -41 -29 -72t-65 -31z" />
    <glyph glyph-name="Agrave" unicode="&#xc0;" horiz-adv-x="672" 
d="M95 117q41 80 114.5 227.5t97.5 194.5q25 50 25 70q0 17 -9 26.5t-20.5 12t-20.5 6.5t-9 10q0 2 0.5 5.5t0.5 4.5h202l96 -583q6 -37 23 -53.5t30.5 -20t13.5 -9.5q0 -2 -0.5 -4.5t-0.5 -3.5h-320q0 10 10.5 15.5t23 8t23 15.5t10.5 36q0 17 -3.5 40.5t-9.5 53.5t-8 44
h-202q-61 -122 -61 -148q0 -24 18.5 -34t37.5 -13t19 -10t-1 -8h-215q0 12 12.5 17t30.5 8t44 26t48 66zM317 515h-4l-142 -285h190zM519 751l-5 -13q-57 4 -101.5 16.5t-69.5 28t-41 33t-21 29.5t-5 21q0 21 15 37t43 16q22 0 41 -17.5t33 -42t43.5 -56t67.5 -52.5z" />
    <glyph glyph-name="Aacute" unicode="&#xc1;" horiz-adv-x="672" 
d="M95 117q41 80 114.5 227.5t97.5 194.5q25 50 25 70q0 17 -9 26.5t-20.5 12t-20.5 6.5t-9 10q0 2 0.5 5.5t0.5 4.5h202l96 -583q6 -37 23 -53.5t30.5 -20t13.5 -9.5q0 -2 -0.5 -4.5t-0.5 -3.5h-320q0 10 10.5 15.5t23 8t23 15.5t10.5 36q0 17 -3.5 40.5t-9.5 53.5t-8 44
h-202q-61 -122 -61 -148q0 -24 18.5 -34t37.5 -13t19 -10t-1 -8h-215q0 12 12.5 17t30.5 8t44 26t48 66zM317 515h-4l-142 -285h190zM313 731q0 3 -0.5 7t-0.5 6q41 20 72.5 46t47.5 47t30 40t28 29.5t33 10.5q23 0 35 -14.5t12 -34.5q0 -5 -3 -15t-18 -31t-40.5 -38.5
t-76.5 -33t-119 -19.5z" />
    <glyph glyph-name="Acircumflex" unicode="&#xc2;" horiz-adv-x="672" 
d="M95 117q41 80 114.5 227.5t97.5 194.5q25 50 25 70q0 17 -9 26.5t-20.5 12t-20.5 6.5t-9 10q0 2 0.5 5.5t0.5 4.5h202l96 -583q6 -37 23 -53.5t30.5 -20t13.5 -9.5q0 -2 -0.5 -4.5t-0.5 -3.5h-320q0 10 10.5 15.5t23 8t23 15.5t10.5 36q0 17 -3.5 40.5t-9.5 53.5t-8 44
h-202q-61 -122 -61 -148q0 -24 18.5 -34t37.5 -13t19 -10t-1 -8h-215q0 12 12.5 17t30.5 8t44 26t48 66zM317 515h-4l-142 -285h190zM563 718l-142 83l-177 -81q-1 1 -3.5 5.5t-3.5 7.5l183 169q15 13 21 13q9 0 18 -12q90 -133 115 -172z" />
    <glyph glyph-name="Atilde" unicode="&#xc3;" horiz-adv-x="672" 
d="M95 117q41 80 114.5 227.5t97.5 194.5q25 50 25 70q0 17 -9 26.5t-20.5 12t-20.5 6.5t-9 10q0 2 0.5 5.5t0.5 4.5h202l96 -583q6 -37 23 -53.5t30.5 -20t13.5 -9.5q0 -2 -0.5 -4.5t-0.5 -3.5h-320q0 10 10.5 15.5t23 8t23 15.5t10.5 36q0 17 -3.5 40.5t-9.5 53.5t-8 44
h-202q-61 -122 -61 -148q0 -24 18.5 -34t37.5 -13t19 -10t-1 -8h-215q0 12 12.5 17t30.5 8t44 26t48 66zM317 515h-4l-142 -285h190zM596 875l10 -3q-19 -57 -53 -95t-76 -38q-23 0 -74 14.5t-73 14.5q-55 0 -82 -41l-11 4q17 50 49 91t77 41q18 0 74.5 -16.5t80.5 -16.5
q26 0 43.5 9t34.5 36z" />
    <glyph glyph-name="Adieresis" unicode="&#xc4;" horiz-adv-x="672" 
d="M95 117q41 80 114.5 227.5t97.5 194.5q25 50 25 70q0 17 -9 26.5t-20.5 12t-20.5 6.5t-9 10q0 2 0.5 5.5t0.5 4.5h202l96 -583q6 -37 23 -53.5t30.5 -20t13.5 -9.5q0 -2 -0.5 -4.5t-0.5 -3.5h-320q0 10 10.5 15.5t23 8t23 15.5t10.5 36q0 17 -3.5 40.5t-9.5 53.5t-8 44
h-202q-61 -122 -61 -148q0 -24 18.5 -34t37.5 -13t19 -10t-1 -8h-215q0 12 12.5 17t30.5 8t44 26t48 66zM317 515h-4l-142 -285h190zM336 902q28 0 45.5 -19.5t17.5 -48.5q0 -37 -27 -64.5t-61 -27.5q-27 0 -45 18.5t-18 45.5q0 37 26.5 66.5t61.5 29.5zM536 902
q29 0 46.5 -19.5t17.5 -48.5q0 -37 -28 -64.5t-62 -27.5q-27 0 -44.5 18.5t-17.5 45.5q0 37 26.5 66.5t61.5 29.5z" />
    <glyph glyph-name="Aring" unicode="&#xc5;" horiz-adv-x="672" 
d="M95 117q41 80 114.5 227.5t97.5 194.5q25 50 25 70q0 17 -9 26.5t-20.5 12t-20.5 6.5t-9 10q0 2 0.5 5.5t0.5 4.5h202l96 -583q6 -37 23 -53.5t30.5 -20t13.5 -9.5q0 -2 -0.5 -4.5t-0.5 -3.5h-320q0 10 10.5 15.5t23 8t23 15.5t10.5 36q0 17 -3.5 40.5t-9.5 53.5t-8 44
h-202q-61 -122 -61 -148q0 -24 18.5 -34t37.5 -13t19 -10t-1 -8h-215q0 12 12.5 17t30.5 8t44 26t48 66zM317 515h-4l-142 -285h190zM402 693q-39 0 -64 24.5t-25 61.5q0 51 36.5 88.5t88.5 37.5q37 0 60.5 -24t23.5 -61q0 -52 -35.5 -89.5t-84.5 -37.5zM433 873
q-35 0 -60.5 -27t-25.5 -62q0 -26 16.5 -43t43.5 -17q31 0 56 26t25 61q0 26 -14.5 44t-40.5 18z" />
    <glyph glyph-name="AE" unicode="&#xc6;" horiz-adv-x="967" 
d="M332 0q1 2 1 7q1 7 13 11t27 7.5t30 21.5t20 49l21 129h-221q-5 -7 -26.5 -36t-31 -42.5t-24 -35t-20.5 -34.5t-6 -20q0 -19 18.5 -27t36.5 -11.5t18 -10.5q0 -6 -1 -8h-218q0 9 5 13t12.5 5.5t22 6t28.5 12.5q38 21 79 75l386 502q-3 19 -18.5 27.5t-29.5 11.5t-14 10
q0 2 0.5 5.5t0.5 5.5h285q150 0 229 32q2 0 4 -2q-3 -43 -8.5 -128.5t-8.5 -128.5q-3 -1 -7 -1q-8 0 -13 25q-14 61 -24.5 91t-31 54t-49.5 31t-80 7h-35l-50 -292h43q36 0 61 20.5t34.5 45t18.5 45t15 20.5h6l-48 -290h-6q-9 0 -10.5 22t-1.5 48t-17 48t-53 22h-45
l-44 -258q-3 -21 -3 -24q0 -43 56 -43h19q73 0 130 53t132 184q11 20 20 20q1 0 7 -2l-100 -298l-3 2q-64 23 -213 23h-318zM447 243l50 298q6 33 7 47q-250 -325 -266 -345h209z" />
    <glyph glyph-name="Ccedilla" unicode="&#xc7;" horiz-adv-x="615" 
d="M435 688q84 0 161 -30l38 46q1 0 4.5 -0.5t4.5 -0.5l-37 -270h-5q-10 0 -14 32q-5 47 -12.5 80t-21.5 63t-36.5 45t-53.5 15q-60 0 -111 -85t-77 -200t-26 -220q0 -155 103 -155q67 0 120 62.5t91 162.5q17 46 30 46h4q-55 -292 -56 -298h-8l-26 47q-96 -41 -197 -41h-7
l-28 -47q78 -1 119.5 -25t41.5 -62q0 -47 -54.5 -82.5t-147.5 -35.5q-30 0 -51 2q0 7 3 16q61 0 100 23t39 61q0 51 -92 57l56 94q-117 7 -179 82.5t-62 194.5q0 182 109.5 302.5t277.5 120.5z" />
    <glyph glyph-name="Egrave" unicode="&#xc8;" horiz-adv-x="633" 
d="M314 18h29q73 0 130 52t129 178q16 27 24 27q2 0 8 -2q-79 -235 -101 -295h-1l-2 -1q-61 23 -178 23h-366v2q0 10 11.5 15t27 7.5t31 19.5t20.5 49l83 484q3 21 3 23q0 27 -17.5 38.5t-35 14.5t-17.5 10q0 2 0.5 5.5t0.5 5.5h288q161 0 242 32q3 0 4 -1l-9 -129t-8 -129
q-2 -1 -7 -1q-8 0 -13 25q-18 81 -36 116.5t-53 51t-105 15.5h-38q-16 -98 -50 -292h52q36 0 61.5 20.5t35.5 45t19 45t16 20.5h5l-48 -290h-6q-8 0 -10 22t-2.5 48t-18 48t-53.5 22h-54l-44 -258q-3 -21 -3 -23q0 -44 56 -44zM504 751l-5 -13q-57 4 -101.5 16.5t-69.5 28
t-41 33t-21 29.5t-5 21q0 21 15 37t43 16q22 0 41 -17.5t33 -42t43.5 -56t67.5 -52.5z" />
    <glyph glyph-name="Eacute" unicode="&#xc9;" horiz-adv-x="633" 
d="M314 18h29q73 0 130 52t129 178q16 27 24 27q2 0 8 -2q-79 -235 -101 -295h-1l-2 -1q-61 23 -178 23h-366v2q0 10 11.5 15t27 7.5t31 19.5t20.5 49l83 484q3 21 3 23q0 27 -17.5 38.5t-35 14.5t-17.5 10q0 2 0.5 5.5t0.5 5.5h288q161 0 242 32q3 0 4 -1l-9 -129t-8 -129
q-2 -1 -7 -1q-8 0 -13 25q-18 81 -36 116.5t-53 51t-105 15.5h-38q-16 -98 -50 -292h52q36 0 61.5 20.5t35.5 45t19 45t16 20.5h5l-48 -290h-6q-8 0 -10 22t-2.5 48t-18 48t-53.5 22h-54l-44 -258q-3 -21 -3 -23q0 -44 56 -44zM270 731q0 3 -0.5 7t-0.5 6q41 20 72.5 46
t47.5 47t30 40t28 29.5t33 10.5q23 0 35 -14.5t12 -34.5q0 -5 -3 -15t-18 -31t-40.5 -38.5t-76.5 -33t-119 -19.5z" />
    <glyph glyph-name="Ecircumflex" unicode="&#xca;" horiz-adv-x="633" 
d="M314 18h29q73 0 130 52t129 178q16 27 24 27q2 0 8 -2q-79 -235 -101 -295h-1l-2 -1q-61 23 -178 23h-366v2q0 10 11.5 15t27 7.5t31 19.5t20.5 49l83 484q3 21 3 23q0 27 -17.5 38.5t-35 14.5t-17.5 10q0 2 0.5 5.5t0.5 5.5h288q161 0 242 32q3 0 4 -1l-9 -129t-8 -129
q-2 -1 -7 -1q-8 0 -13 25q-18 81 -36 116.5t-53 51t-105 15.5h-38q-16 -98 -50 -292h52q36 0 61.5 20.5t35.5 45t19 45t16 20.5h5l-48 -290h-6q-8 0 -10 22t-2.5 48t-18 48t-53.5 22h-54l-44 -258q-3 -21 -3 -23q0 -44 56 -44zM533 728l-142 83l-177 -81q-1 1 -3.5 5.5
t-3.5 7.5l183 169q15 13 21 13q9 0 18 -12q90 -133 115 -172z" />
    <glyph glyph-name="Edieresis" unicode="&#xcb;" horiz-adv-x="633" 
d="M314 18h29q73 0 130 52t129 178q16 27 24 27q2 0 8 -2q-79 -235 -101 -295h-1l-2 -1q-61 23 -178 23h-366v2q0 10 11.5 15t27 7.5t31 19.5t20.5 49l83 484q3 21 3 23q0 27 -17.5 38.5t-35 14.5t-17.5 10q0 2 0.5 5.5t0.5 5.5h288q161 0 242 32q3 0 4 -1l-9 -129t-8 -129
q-2 -1 -7 -1q-8 0 -13 25q-18 81 -36 116.5t-53 51t-105 15.5h-38q-16 -98 -50 -292h52q36 0 61.5 20.5t35.5 45t19 45t16 20.5h5l-48 -290h-6q-8 0 -10 22t-2.5 48t-18 48t-53.5 22h-54l-44 -258q-3 -21 -3 -23q0 -44 56 -44zM503 902q29 0 46.5 -19.5t17.5 -48.5
q0 -37 -28 -64.5t-62 -27.5q-27 0 -44.5 18.5t-17.5 45.5q0 37 26.5 66.5t61.5 29.5zM303 902q28 0 45.5 -19.5t17.5 -48.5q0 -37 -27 -64.5t-61 -27.5q-27 0 -45 18.5t-18 45.5q0 37 26.5 66.5t61.5 29.5z" />
    <glyph glyph-name="Igrave" unicode="&#xcc;" horiz-adv-x="403" 
d="M354 582l-82 -478q-3 -27 -3 -30q0 -21 11.5 -34t24.5 -16t24.5 -6.5t11.5 -9.5t-1 -8h-346q0 11 12 16t27 7t30.5 20t21.5 52q26 158 80 476q4 28 4 30q0 26 -16.5 37.5t-32.5 15t-16 10.5v10h339q0 -12 -12 -17t-26.5 -7t-30 -19t-20.5 -49zM404 751l-5 -13
q-57 4 -101.5 16.5t-69.5 28t-41 33t-21 29.5t-5 21q0 21 15 37t43 16q22 0 41 -17.5t33 -42t43.5 -56t67.5 -52.5z" />
    <glyph glyph-name="Iacute" unicode="&#xcd;" horiz-adv-x="403" 
d="M354 582l-82 -478q-3 -27 -3 -30q0 -21 11.5 -34t24.5 -16t24.5 -6.5t11.5 -9.5t-1 -8h-346q0 11 12 16t27 7t30.5 20t21.5 52q26 158 80 476q4 28 4 30q0 26 -16.5 37.5t-32.5 15t-16 10.5v10h339q0 -12 -12 -17t-26.5 -7t-30 -19t-20.5 -49zM178 731q0 3 -0.5 7t-0.5 6
q41 20 72.5 46t47.5 47t30 40t28 29.5t33 10.5q23 0 35 -14.5t12 -34.5q0 -5 -3 -15t-18 -31t-40.5 -38.5t-76.5 -33t-119 -19.5z" />
    <glyph glyph-name="Icircumflex" unicode="&#xce;" horiz-adv-x="403" 
d="M354 582l-82 -478q-3 -27 -3 -30q0 -21 11.5 -34t24.5 -16t24.5 -6.5t11.5 -9.5t-1 -8h-346q0 11 12 16t27 7t30.5 20t21.5 52q26 158 80 476q4 28 4 30q0 26 -16.5 37.5t-32.5 15t-16 10.5v10h339q0 -12 -12 -17t-26.5 -7t-30 -19t-20.5 -49zM442 728l-142 83l-177 -81
q-1 1 -3.5 5.5t-3.5 7.5l183 169q15 13 21 13q9 0 18 -12q90 -133 115 -172z" />
    <glyph glyph-name="Idieresis" unicode="&#xcf;" horiz-adv-x="403" 
d="M354 582l-82 -478q-3 -27 -3 -30q0 -21 11.5 -34t24.5 -16t24.5 -6.5t11.5 -9.5t-1 -8h-346q0 11 12 16t27 7t30.5 20t21.5 52q26 158 80 476q4 28 4 30q0 26 -16.5 37.5t-32.5 15t-16 10.5v10h339q0 -12 -12 -17t-26.5 -7t-30 -19t-20.5 -49zM217 902q28 0 45.5 -19.5
t17.5 -48.5q0 -37 -27 -64.5t-61 -27.5q-27 0 -45 18.5t-18 45.5q0 37 26.5 66.5t61.5 29.5zM417 902q29 0 46.5 -19.5t17.5 -48.5q0 -37 -28 -64.5t-62 -27.5q-27 0 -44.5 18.5t-17.5 45.5q0 37 26.5 66.5t61.5 29.5z" />
    <glyph glyph-name="Eth" unicode="&#xd0;" horiz-adv-x="738" 
d="M-15 0q0 11 12 16t27 7t30.5 20t21.5 52l42 253h-71l4 18h70l35 205q4 28 4 30q0 26 -16 37.5t-32.5 15t-16.5 10.5v10h250q69 0 123.5 -7.5t103.5 -27t81.5 -50.5t51.5 -80t19 -113q0 -40 -10.5 -87t-39 -103.5t-71.5 -101t-117 -74.5t-166 -30h-335zM354 654l-49 -288
h107l-3 -18h-107l-44 -264q0 -5 -1.5 -13.5t-1.5 -10.5q0 -42 49 -42h7q60 0 109.5 72t75 174.5t25.5 204.5q0 96 -36 140.5t-111 44.5h-20z" />
    <glyph glyph-name="Ntilde" unicode="&#xd1;" horiz-adv-x="721" 
d="M374 674q31 -62 104.5 -205t111.5 -220l2 1q1 0 1 1l45 267q5 30 5 49q0 33 -14 53t-30.5 24t-30.5 8t-14 11q0 8 1 10h233q0 -11 -8 -16.5t-20 -6.5t-27.5 -8.5t-30 -19.5t-27.5 -42t-21 -74l-88 -514l-71 -4q-50 98 -301 595h-3l-69 -419q-1 -5 -3 -18.5t-3.5 -24.5
t-1.5 -16q0 -33 14 -53t31.5 -24t31.5 -8t14 -11q0 -2 -0.5 -5t-0.5 -4h-233v7q1 7 12.5 10.5t28 8.5t33.5 15.5t33 38t23 70.5l71 422q3 18 3 26q0 28 -17.5 39.5t-35 15.5t-17.5 12v9h269zM635 886l10 -3q-19 -57 -53 -95t-76 -38q-22 0 -73 14.5t-74 14.5q-55 0 -82 -41
l-11 4q17 50 49 91t77 41q18 0 74.5 -16.5t80.5 -16.5q26 0 43.5 9t34.5 36z" />
    <glyph glyph-name="Ograve" unicode="&#xd2;" horiz-adv-x="732" 
d="M442 688q142 0 210.5 -77t68.5 -196q0 -77 -27 -152t-75.5 -137.5t-126 -101t-169.5 -38.5q-137 0 -205.5 76t-68.5 197q0 113 47.5 210t139 158t206.5 61zM440 670q-43 0 -81.5 -61.5t-62 -149t-37 -174t-13.5 -145.5q0 -137 84 -137q43 0 81.5 59.5t62 145t37 174
t13.5 154.5q0 134 -84 134zM570 750l-5 -13q-57 4 -101.5 16.5t-69.5 28t-41 33t-21 29.5t-5 21q0 21 15 37t43 16q22 0 41 -17.5t33 -42t43.5 -56t67.5 -52.5z" />
    <glyph glyph-name="Oacute" unicode="&#xd3;" horiz-adv-x="732" 
d="M442 688q142 0 210.5 -77t68.5 -196q0 -77 -27 -152t-75.5 -137.5t-126 -101t-169.5 -38.5q-137 0 -205.5 76t-68.5 197q0 113 47.5 210t139 158t206.5 61zM440 670q-43 0 -81.5 -61.5t-62 -149t-37 -174t-13.5 -145.5q0 -137 84 -137q43 0 81.5 59.5t62 145t37 174
t13.5 154.5q0 134 -84 134zM367 735q0 3 -0.5 7t-0.5 6q41 20 72.5 46t47.5 47t30 40t28 29.5t33 10.5q23 0 35 -14.5t12 -34.5q0 -5 -3 -15t-18 -31t-40.5 -38.5t-76.5 -33t-119 -19.5z" />
    <glyph glyph-name="Ocircumflex" unicode="&#xd4;" horiz-adv-x="732" 
d="M442 688q142 0 210.5 -77t68.5 -196q0 -77 -27 -152t-75.5 -137.5t-126 -101t-169.5 -38.5q-137 0 -205.5 76t-68.5 197q0 113 47.5 210t139 158t206.5 61zM440 670q-43 0 -81.5 -61.5t-62 -149t-37 -174t-13.5 -145.5q0 -137 84 -137q43 0 81.5 59.5t62 145t37 174
t13.5 154.5q0 134 -84 134zM619 728l-142 83l-177 -81q-1 1 -3.5 5.5t-3.5 7.5l183 169q15 13 21 13q9 0 18 -12q90 -133 115 -172z" />
    <glyph glyph-name="Otilde" unicode="&#xd5;" horiz-adv-x="732" 
d="M442 688q142 0 210.5 -77t68.5 -196q0 -77 -27 -152t-75.5 -137.5t-126 -101t-169.5 -38.5q-137 0 -205.5 76t-68.5 197q0 113 47.5 210t139 158t206.5 61zM440 670q-43 0 -81.5 -61.5t-62 -149t-37 -174t-13.5 -145.5q0 -137 84 -137q43 0 81.5 59.5t62 145t37 174
t13.5 154.5q0 134 -84 134zM657 893l10 -3q-19 -57 -53 -95t-76 -38q-22 0 -73 14.5t-74 14.5q-55 0 -82 -41l-11 4q17 50 49 91t77 41q18 0 74.5 -16.5t80.5 -16.5q26 0 43.5 9t34.5 36z" />
    <glyph glyph-name="Odieresis" unicode="&#xd6;" horiz-adv-x="732" 
d="M442 688q142 0 210.5 -77t68.5 -196q0 -77 -27 -152t-75.5 -137.5t-126 -101t-169.5 -38.5q-137 0 -205.5 76t-68.5 197q0 113 47.5 210t139 158t206.5 61zM440 670q-43 0 -81.5 -61.5t-62 -149t-37 -174t-13.5 -145.5q0 -137 84 -137q43 0 81.5 59.5t62 145t37 174
t13.5 154.5q0 134 -84 134zM391 902q28 0 45.5 -19.5t17.5 -48.5q0 -37 -27 -64.5t-61 -27.5q-27 0 -45 18.5t-18 45.5q0 37 26.5 66.5t61.5 29.5zM591 902q29 0 46.5 -19.5t17.5 -48.5q0 -37 -28 -64.5t-62 -27.5q-27 0 -44.5 18.5t-17.5 45.5q0 37 26.5 66.5t61.5 29.5z
" />
    <glyph glyph-name="multiply" unicode="&#xd7;" horiz-adv-x="572" 
d="M389 128q-7 10 -42.5 59.5t-54.5 76.5q-17 -16 -69 -64t-80 -75l-23 34l148 139q-20 26 -54.5 74.5t-44.5 61.5l34 33q20 -26 54.5 -74.5t44.5 -61.5l144 135l24 -33l-144 -135q89 -124 98 -137z" />
    <glyph glyph-name="Oslash" unicode="&#xd8;" horiz-adv-x="732" 
d="M442 688q102 0 169 -43q43 55 44 56q4 -4 12 -10l-43 -55q97 -73 97 -221q0 -77 -27 -152t-75.5 -137.5t-126 -101t-169.5 -38.5q-105 0 -172 47l-48 -61l-10 11q3 5 18.5 24.5t27.5 34.5q-90 73 -90 217q0 113 47.5 210t139 158t206.5 61zM523 507l-277 -354v-13
q0 -137 84 -137q41 0 77.5 53.5t60 133t38 163.5t17.5 154zM440 670q-40 0 -76 -52.5t-59.5 -131t-38.5 -159.5t-19 -148q25 32 127 162t150 193q0 136 -84 136z" />
    <glyph glyph-name="Ugrave" unicode="&#xd9;" horiz-adv-x="722" 
d="M329 582l-58 -342q-8 -46 -8 -82q0 -68 30 -103.5t99 -35.5q80 0 138.5 70.5t79.5 194.5l34 204q10 57 10 78q0 34 -14 54t-31 24.5t-31 8.5t-14 10q0 1 0.5 5t0.5 5h235v-2q0 -11 -11 -15t-27.5 -7.5t-34 -12t-33.5 -35.5t-24 -71l-38 -225q-10 -59 -24.5 -105
t-38.5 -87t-57 -68t-80.5 -42.5t-107.5 -15.5q-242 0 -242 207q0 39 7 78l51 299q4 28 4 30q0 26 -16 37.5t-32.5 15t-16.5 10.5v10h339q0 -12 -12 -17t-26.5 -7t-30 -19t-20.5 -49zM586 751l-5 -13q-57 4 -101.5 16.5t-69.5 28t-41 33t-21 29.5t-5 21q0 21 15 37t43 16
q22 0 41 -17.5t33 -42t43.5 -56t67.5 -52.5z" />
    <glyph glyph-name="Uacute" unicode="&#xda;" horiz-adv-x="722" 
d="M329 582l-58 -342q-8 -46 -8 -82q0 -68 30 -103.5t99 -35.5q80 0 138.5 70.5t79.5 194.5l34 204q10 57 10 78q0 34 -14 54t-31 24.5t-31 8.5t-14 10q0 1 0.5 5t0.5 5h235v-2q0 -11 -11 -15t-27.5 -7.5t-34 -12t-33.5 -35.5t-24 -71l-38 -225q-10 -59 -24.5 -105
t-38.5 -87t-57 -68t-80.5 -42.5t-107.5 -15.5q-242 0 -242 207q0 39 7 78l51 299q4 28 4 30q0 26 -16 37.5t-32.5 15t-16.5 10.5v10h339q0 -12 -12 -17t-26.5 -7t-30 -19t-20.5 -49zM352 731q0 3 -0.5 7t-0.5 6q41 20 72.5 46t47.5 47t30 40t28 29.5t33 10.5q23 0 35 -14.5
t12 -34.5q0 -5 -3 -15t-18 -31t-40.5 -38.5t-76.5 -33t-119 -19.5z" />
    <glyph glyph-name="Ucircumflex" unicode="&#xdb;" horiz-adv-x="722" 
d="M329 582l-58 -342q-8 -46 -8 -82q0 -68 30 -103.5t99 -35.5q80 0 138.5 70.5t79.5 194.5l34 204q10 57 10 78q0 34 -14 54t-31 24.5t-31 8.5t-14 10q0 1 0.5 5t0.5 5h235v-2q0 -11 -11 -15t-27.5 -7.5t-34 -12t-33.5 -35.5t-24 -71l-38 -225q-10 -59 -24.5 -105
t-38.5 -87t-57 -68t-80.5 -42.5t-107.5 -15.5q-242 0 -242 207q0 39 7 78l51 299q4 28 4 30q0 26 -16 37.5t-32.5 15t-16.5 10.5v10h339q0 -12 -12 -17t-26.5 -7t-30 -19t-20.5 -49zM623 728l-142 83l-177 -81q-1 1 -3.5 5.5t-3.5 7.5l183 169q15 13 21 13q9 0 18 -12
q90 -133 115 -172z" />
    <glyph glyph-name="Udieresis" unicode="&#xdc;" horiz-adv-x="722" 
d="M329 582l-58 -342q-8 -46 -8 -82q0 -68 30 -103.5t99 -35.5q80 0 138.5 70.5t79.5 194.5l34 204q10 57 10 78q0 34 -14 54t-31 24.5t-31 8.5t-14 10q0 1 0.5 5t0.5 5h235v-2q0 -11 -11 -15t-27.5 -7.5t-34 -12t-33.5 -35.5t-24 -71l-38 -225q-10 -59 -24.5 -105
t-38.5 -87t-57 -68t-80.5 -42.5t-107.5 -15.5q-242 0 -242 207q0 39 7 78l51 299q4 28 4 30q0 26 -16 37.5t-32.5 15t-16.5 10.5v10h339q0 -12 -12 -17t-26.5 -7t-30 -19t-20.5 -49zM380 902q28 0 45.5 -19.5t17.5 -48.5q0 -37 -27 -64.5t-61 -27.5q-27 0 -45 18.5t-18 45.5
q0 37 26.5 66.5t61.5 29.5zM580 902q29 0 46.5 -19.5t17.5 -48.5q0 -37 -28 -64.5t-62 -27.5q-27 0 -44.5 18.5t-17.5 45.5q0 37 26.5 66.5t61.5 29.5z" />
    <glyph glyph-name="Yacute" unicode="&#xdd;" horiz-adv-x="632" 
d="M411 329l118 196q30 49 30 77q0 23 -18.5 33.5t-36.5 15t-18 12.5v4q1 4 1 6h225v-3q0 -12 -12.5 -18.5t-33 -13t-55 -39.5t-69.5 -90l-125 -202l-34 -187q-4 -22 -4 -42q0 -30 17.5 -43t35 -17t17.5 -11v-7h-346q0 12 12 17t27 7.5t31 20.5t22 53l29 167l-91 317
q-7 25 -20 41t-24 20.5t-19 9t-8 11.5q0 2 0.5 5t0.5 4h343v-6q0 -10 -12 -15.5t-26.5 -7.5t-26.5 -12.5t-12 -29.5q0 -13 9 -40l72 -233h1zM307 731q0 3 -0.5 7t-0.5 6q41 20 72.5 46t47.5 47t30 40t28 29.5t33 10.5q23 0 35 -14.5t12 -34.5q0 -5 -3 -15t-18 -31
t-40.5 -38.5t-76.5 -33t-119 -19.5z" />
    <glyph glyph-name="Thorn" unicode="&#xde;" horiz-adv-x="638" 
d="M341 582l-6 -29q36 7 79 7q98 0 166.5 -43t68.5 -137q0 -78 -45 -133.5t-111 -79.5t-144 -24q-47 0 -82 7l-8 -55q-2 -10 -2 -20q0 -28 18 -40.5t36 -16.5t18 -10t-1 -8h-346q0 12 12 17t27 7t30.5 19.5t21.5 51.5l79 469q5 35 5 36q0 27 -16.5 38.5t-33 15t-16.5 10.5
q-1 2 0 5t1 5h338q0 -14 -12 -19t-26.5 -6.5t-29.5 -18t-21 -48.5zM332 534l-61 -365q85 0 132.5 68.5t47.5 162.5q0 58 -27 96t-92 38z" />
    <glyph glyph-name="germandbls" unicode="&#xdf;" horiz-adv-x="609" 
d="M573 158q0 -77 -58 -125.5t-150 -48.5q-76 0 -113 30t-37 70q0 34 19 50t41 16q29 0 44.5 -22t15.5 -52q0 -45 -23 -69q13 -6 36 -6q70 0 70 79q0 45 -27 95t-54 94.5t-27 75.5q0 56 57 95q29 20 43.5 32t32.5 33.5t25.5 49.5t7.5 66q0 39 -19 68t-56 29q-59 0 -94 -72
t-55 -210q-38 -267 -90 -415q-85 -244 -255 -244q-42 0 -65.5 21t-23.5 50t19 45.5t47 16.5q31 0 52.5 -29t21.5 -80q33 11 57 125t43.5 282t27.5 210q31 158 122 238.5t204 80.5q84 0 132.5 -31.5t48.5 -87.5q0 -44 -32.5 -79t-72 -52t-72 -36t-32.5 -35q0 -14 19.5 -32.5
t47 -40t55.5 -47t47.5 -62t19.5 -76.5z" />
    <glyph glyph-name="agrave" unicode="&#xe0;" 
d="M567 461q-43 -178 -79 -425q46 31 92 81q5 -6 11 -11q-101 -119 -174 -119q-83 0 -83 78q0 47 27 148q-39 -117 -89 -172t-114 -55q-55 0 -92 36t-37 113q0 127 67 223t178 96q82 0 127 -51q91 13 154 58h12zM328 420q-52 0 -91.5 -91.5t-39.5 -197.5q0 -28 1.5 -43.5
t10 -28.5t24.5 -13q32 0 72.5 75.5t67.5 198.5l15 68q-26 32 -60 32zM454 527l-5 -13q-68 16 -115.5 39t-66.5 46.5t-26 39.5t-7 28q0 21 12.5 35.5t37.5 14.5q24 0 41.5 -19t28.5 -45t37.5 -62.5t62.5 -63.5z" />
    <glyph glyph-name="aacute" unicode="&#xe1;" 
d="M567 461q-43 -178 -79 -425q46 31 92 81q5 -6 11 -11q-101 -119 -174 -119q-83 0 -83 78q0 47 27 148q-39 -117 -89 -172t-114 -55q-55 0 -92 36t-37 113q0 127 67 223t178 96q82 0 127 -51q91 13 154 58h12zM328 420q-52 0 -91.5 -91.5t-39.5 -197.5q0 -28 1.5 -43.5
t10 -28.5t24.5 -13q32 0 72.5 75.5t67.5 198.5l15 68q-26 32 -60 32zM255 510l-5 13q42 28 72.5 66t43.5 65.5t31.5 47t42.5 19.5t37 -14t12 -33q-1 -12 -9.5 -29t-31 -42t-73 -50.5t-120.5 -42.5z" />
    <glyph glyph-name="acircumflex" unicode="&#xe2;" 
d="M567 461q-43 -178 -79 -425q46 31 92 81q5 -6 11 -11q-101 -119 -174 -119q-83 0 -83 78q0 47 27 148q-39 -117 -89 -172t-114 -55q-55 0 -92 36t-37 113q0 127 67 223t178 96q82 0 127 -51q91 13 154 58h12zM328 420q-52 0 -91.5 -91.5t-39.5 -197.5q0 -28 1.5 -43.5
t10 -28.5t24.5 -13q32 0 72.5 75.5t67.5 198.5l15 68q-26 32 -60 32zM490 517l-139 89l-175 -89l-7 12l179 177q16 14 24 14q10 0 19 -14l110 -177z" />
    <glyph glyph-name="atilde" unicode="&#xe3;" 
d="M567 461q-43 -178 -79 -425q46 31 92 81q5 -6 11 -11q-101 -119 -174 -119q-83 0 -83 78q0 47 27 148q-39 -117 -89 -172t-114 -55q-55 0 -92 36t-37 113q0 127 67 223t178 96q82 0 127 -51q91 13 154 58h12zM328 420q-52 0 -91.5 -91.5t-39.5 -197.5q0 -28 1.5 -43.5
t10 -28.5t24.5 -13q32 0 72.5 75.5t67.5 198.5l15 68q-26 32 -60 32zM533 674l10 -3q-19 -57 -53 -95t-76 -38q-22 0 -73 14.5t-74 14.5q-55 0 -82 -41l-11 4q17 50 49 91t77 41q18 0 74.5 -16.5t80.5 -16.5q26 0 43.5 9t34.5 36z" />
    <glyph glyph-name="adieresis" unicode="&#xe4;" 
d="M567 461q-43 -178 -79 -425q46 31 92 81q5 -6 11 -11q-101 -119 -174 -119q-83 0 -83 78q0 47 27 148q-39 -117 -89 -172t-114 -55q-55 0 -92 36t-37 113q0 127 67 223t178 96q82 0 127 -51q91 13 154 58h12zM328 420q-52 0 -91.5 -91.5t-39.5 -197.5q0 -28 1.5 -43.5
t10 -28.5t24.5 -13q32 0 72.5 75.5t67.5 198.5l15 68q-26 32 -60 32zM262 697q28 0 45.5 -19.5t17.5 -48.5q0 -37 -27.5 -64.5t-61.5 -27.5q-26 0 -44 18.5t-18 45.5q0 38 26 67t62 29zM456 697q29 0 46 -19.5t17 -48.5q0 -37 -27 -64.5t-61 -27.5q-26 0 -44 18.5t-18 45.5
q0 38 25.5 67t61.5 29z" />
    <glyph glyph-name="aring" unicode="&#xe5;" 
d="M567 461q-43 -178 -79 -425q46 31 92 81q5 -6 11 -11q-101 -119 -174 -119q-83 0 -83 78q0 47 27 148q-39 -117 -89 -172t-114 -55q-55 0 -92 36t-37 113q0 127 67 223t178 96q82 0 127 -51q91 13 154 58h12zM328 420q-52 0 -91.5 -91.5t-39.5 -197.5q0 -28 1.5 -43.5
t10 -28.5t24.5 -13q32 0 72.5 75.5t67.5 198.5l15 68q-26 32 -60 32zM352 517q-39 0 -64 24.5t-25 61.5q0 51 36.5 88.5t88.5 37.5q37 0 60.5 -24t23.5 -61q0 -52 -35.5 -89.5t-84.5 -37.5zM383 697q-35 0 -60.5 -27t-25.5 -62q0 -26 16.5 -43t43.5 -17q31 0 56 26t25 61
q0 26 -14.5 44t-40.5 18z" />
    <glyph glyph-name="ae" unicode="&#xe6;" horiz-adv-x="761" 
d="M488 -13q-124 0 -168 79q-92 -84 -208 -84q-105 0 -105 87q0 48 22.5 84t61 56t82 29.5t92.5 9.5q16 0 42 -2q2 9 6.5 32t7.5 42t3 34q0 78 -66 78q-20 0 -48 -11q19 -23 19 -61q0 -34 -21 -60t-57 -26q-24 0 -38.5 16.5t-14.5 39.5q0 50 51.5 87t139.5 37q96 0 132 -62
q68 62 169 62q157 0 157 -107q0 -70 -69.5 -107.5t-169.5 -37.5q-12 0 -36 2q-2 -20 -2 -37q0 -130 93 -130q34 0 72.5 18t68.5 48l11 -10q-40 -46 -99.5 -76t-127.5 -30zM231 44q38 0 82 35q-17 41 -17 76q0 25 7 72q-58 -1 -89.5 -36.5t-31.5 -89.5q0 -27 14 -42t35 -15z
M474 223q75 0 109.5 48t34.5 117q0 46 -35 46q-39 0 -68.5 -62t-40.5 -149z" />
    <glyph glyph-name="ccedilla" unicode="&#xe7;" horiz-adv-x="464" 
d="M321 455q70 0 103.5 -28.5t33.5 -68.5q0 -30 -19 -48t-46 -18q-33 0 -50.5 23t-17.5 56q0 35 22 62q-44 0 -79 -47t-51.5 -111.5t-16.5 -129.5q0 -55 25 -84t71 -29q59 0 117 46q1 -2 4.5 -6t3.5 -5q-89 -81 -203 -81q-22 0 -41 3l-29 -48q78 -1 119.5 -25t41.5 -62
q0 -47 -54.5 -82.5t-147.5 -35.5q-30 0 -51 2q0 7 3 16q61 0 100 23t39 61q0 51 -92 57l57 97q-66 13 -100 58t-34 110q0 121 81 208t211 87z" />
    <glyph glyph-name="egrave" unicode="&#xe8;" horiz-adv-x="496" 
d="M223 -13q-97 0 -145.5 47.5t-48.5 127.5q0 117 81.5 204.5t218.5 87.5q155 0 155 -107q0 -43 -27 -75.5t-72 -51t-90 -27.5t-93 -12q-2 -22 -2 -32q0 -113 92 -113q77 0 147 67l9 -10q-40 -47 -98.5 -76.5t-126.5 -29.5zM204 204q72 6 111.5 63t39.5 119q0 49 -36 49
q-38 0 -71 -70t-44 -161zM420 527l-5 -13q-68 16 -115.5 39t-66.5 46.5t-26 39.5t-7 28q0 21 12.5 35.5t37.5 14.5q24 0 41.5 -19t28.5 -45t37.5 -62.5t62.5 -63.5z" />
    <glyph glyph-name="eacute" unicode="&#xe9;" horiz-adv-x="496" 
d="M223 -13q-97 0 -145.5 47.5t-48.5 127.5q0 117 81.5 204.5t218.5 87.5q155 0 155 -107q0 -43 -27 -75.5t-72 -51t-90 -27.5t-93 -12q-2 -22 -2 -32q0 -113 92 -113q77 0 147 67l9 -10q-40 -47 -98.5 -76.5t-126.5 -29.5zM204 204q72 6 111.5 63t39.5 119q0 49 -36 49
q-38 0 -71 -70t-44 -161zM223 510l-5 13q42 28 72.5 66t43.5 65.5t31.5 47t42.5 19.5t37 -14t12 -33q-1 -12 -9.5 -29t-31 -42t-73 -50.5t-120.5 -42.5z" />
    <glyph glyph-name="ecircumflex" unicode="&#xea;" horiz-adv-x="496" 
d="M223 -13q-97 0 -145.5 47.5t-48.5 127.5q0 117 81.5 204.5t218.5 87.5q155 0 155 -107q0 -43 -27 -75.5t-72 -51t-90 -27.5t-93 -12q-2 -22 -2 -32q0 -113 92 -113q77 0 147 67l9 -10q-40 -47 -98.5 -76.5t-126.5 -29.5zM204 204q72 6 111.5 63t39.5 119q0 49 -36 49
q-38 0 -71 -70t-44 -161zM471 517l-139 89l-175 -89l-7 12l179 177q16 14 24 14q10 0 19 -14l110 -177z" />
    <glyph glyph-name="edieresis" unicode="&#xeb;" horiz-adv-x="496" 
d="M223 -13q-97 0 -145.5 47.5t-48.5 127.5q0 117 81.5 204.5t218.5 87.5q155 0 155 -107q0 -43 -27 -75.5t-72 -51t-90 -27.5t-93 -12q-2 -22 -2 -32q0 -113 92 -113q77 0 147 67l9 -10q-40 -47 -98.5 -76.5t-126.5 -29.5zM204 204q72 6 111.5 63t39.5 119q0 49 -36 49
q-38 0 -71 -70t-44 -161zM237 697q28 0 45.5 -19.5t17.5 -48.5q0 -37 -27.5 -64.5t-61.5 -27.5q-26 0 -44 18.5t-18 45.5q0 38 26 67t62 29zM431 697q29 0 46 -19.5t17 -48.5q0 -37 -27 -64.5t-61 -27.5q-26 0 -44 18.5t-18 45.5q0 38 25.5 67t61.5 29z" />
    <glyph glyph-name="igrave" unicode="&#xec;" horiz-adv-x="343" 
d="M307 527l-5 -13q-68 16 -115.5 39t-66.5 46.5t-26 39.5t-7 28q0 21 12.5 35.5t37.5 14.5q24 0 41.5 -19t28.5 -45t37.5 -62.5t62.5 -63.5zM190 456q90 0 90 -89q0 -13 -7 -48q-12 -66 -33 -172t-23 -116q45 29 96 83l10 -10q-100 -118 -174 -118q-86 0 -86 89q0 10 7 50
l56 286q-34 -23 -97 -88q-5 6 -11 11q105 122 172 122z" />
    <glyph glyph-name="iacute" unicode="&#xed;" horiz-adv-x="343" 
d="M114 510l-5 13q42 28 72.5 66t43.5 65.5t31.5 47t42.5 19.5t37 -14t12 -33q-1 -12 -9.5 -29t-31 -42t-73 -50.5t-120.5 -42.5zM190 456q90 0 90 -89q0 -13 -7 -48q-12 -66 -33 -172t-23 -116q45 29 96 83l10 -10q-100 -118 -174 -118q-86 0 -86 89q0 10 7 50l56 286
q-34 -23 -97 -88q-5 6 -11 11q105 122 172 122z" />
    <glyph glyph-name="icircumflex" unicode="&#xee;" horiz-adv-x="343" 
d="M190 456q90 0 90 -89q0 -13 -7 -48q-12 -66 -33 -172t-23 -116q45 29 96 83l10 -10q-100 -118 -174 -118q-86 0 -86 89q0 10 7 50l56 286q-34 -23 -97 -88q-5 6 -11 11q105 122 172 122zM356 517l-139 89l-175 -89l-7 12l179 177q16 14 24 14q10 0 19 -14l110 -177z" />
    <glyph glyph-name="idieresis" unicode="&#xef;" horiz-adv-x="343" 
d="M123 697q28 0 45.5 -19.5t17.5 -48.5q0 -37 -27.5 -64.5t-61.5 -27.5q-26 0 -44 18.5t-18 45.5q0 38 26 67t62 29zM317 697q29 0 46 -19.5t17 -48.5q0 -37 -27 -64.5t-61 -27.5q-26 0 -44 18.5t-18 45.5q0 38 25.5 67t61.5 29zM190 456q90 0 90 -89q0 -13 -7 -48
q-12 -66 -33 -172t-23 -116q45 29 96 83l10 -10q-100 -118 -174 -118q-86 0 -86 89q0 10 7 50l56 286q-34 -23 -97 -88q-5 6 -11 11q105 122 172 122z" />
    <glyph glyph-name="eth" unicode="&#xf0;" horiz-adv-x="579" 
d="M406 426l5 3q-2 105 -33 174q-21 -13 -59 -38.5t-47 -31.5l-8 14l106 70q-39 79 -117 116l7 14q98 -30 169 -91q8 5 43 28.5t54 35.5l8 -14l-92 -61q116 -111 116 -284q0 -49 -10 -98.5t-34 -99.5t-59.5 -88.5t-91.5 -63t-124 -24.5q-111 0 -161 49.5t-50 133.5
q0 113 78 199.5t202 86.5q64 0 98 -30zM323 436q-37 0 -67.5 -62.5t-45 -141t-14.5 -144.5q0 -86 46 -86q30 0 56.5 35.5t42 88.5t24.5 109t9 102q0 50 -11 74.5t-40 24.5z" />
    <glyph glyph-name="ntilde" unicode="&#xf1;" horiz-adv-x="616" 
d="M187 455q41 0 63.5 -20.5t22.5 -54.5q0 -48 -38 -183q1 0 2 -0.5t2 -0.5q46 136 106 197.5t111 61.5q98 0 98 -99q0 -20 -6 -56l-53 -266q51 32 94 81l10 -11q-101 -118 -175 -118q-85 0 -85 81q0 13 8 57l38 173q8 36 8 52q0 30 -22 30q-32 0 -78 -95.5t-70 -216.5
l-13 -67h-163l76 408q-35 -23 -97 -87l-11 12q103 122 172 122zM533 674l10 -3q-19 -57 -53 -95t-76 -38q-22 0 -73 14.5t-74 14.5q-55 0 -82 -41l-11 4q17 50 49 91t77 41q18 0 74.5 -16.5t80.5 -16.5q26 0 43.5 9t34.5 36z" />
    <glyph glyph-name="ograve" unicode="&#xf2;" horiz-adv-x="568" 
d="M326 455q111 0 161.5 -52t50.5 -135q0 -113 -83.5 -197.5t-223.5 -84.5q-106 0 -154 50.5t-48 132.5q0 120 82.5 203t214.5 83zM324 437q-36 0 -67 -61.5t-46 -140t-15 -144.5q0 -89 45 -89q32 0 59 40t42.5 97t24 112t8.5 94q0 92 -51 92zM436 527l-5 -13
q-68 16 -115.5 39t-66.5 46.5t-26 39.5t-7 28q0 21 12.5 35.5t37.5 14.5q24 0 41.5 -19t28.5 -45t37.5 -62.5t62.5 -63.5z" />
    <glyph glyph-name="oacute" unicode="&#xf3;" horiz-adv-x="568" 
d="M326 455q111 0 161.5 -52t50.5 -135q0 -113 -83.5 -197.5t-223.5 -84.5q-106 0 -154 50.5t-48 132.5q0 120 82.5 203t214.5 83zM324 437q-36 0 -67 -61.5t-46 -140t-15 -144.5q0 -89 45 -89q32 0 59 40t42.5 97t24 112t8.5 94q0 92 -51 92zM255 510l-5 13q42 28 72.5 66
t43.5 65.5t31.5 47t42.5 19.5t37 -14t12 -33q-1 -12 -9.5 -29t-31 -42t-73 -50.5t-120.5 -42.5z" />
    <glyph glyph-name="ocircumflex" unicode="&#xf4;" horiz-adv-x="568" 
d="M326 455q111 0 161.5 -52t50.5 -135q0 -113 -83.5 -197.5t-223.5 -84.5q-106 0 -154 50.5t-48 132.5q0 120 82.5 203t214.5 83zM324 437q-36 0 -67 -61.5t-46 -140t-15 -144.5q0 -89 45 -89q32 0 59 40t42.5 97t24 112t8.5 94q0 92 -51 92zM494 517l-139 89l-175 -89
l-7 12l179 177q16 14 24 14q10 0 19 -14l110 -177z" />
    <glyph glyph-name="otilde" unicode="&#xf5;" horiz-adv-x="568" 
d="M326 455q111 0 161.5 -52t50.5 -135q0 -113 -83.5 -197.5t-223.5 -84.5q-106 0 -154 50.5t-48 132.5q0 120 82.5 203t214.5 83zM324 437q-36 0 -67 -61.5t-46 -140t-15 -144.5q0 -89 45 -89q32 0 59 40t42.5 97t24 112t8.5 94q0 92 -51 92zM525 674l10 -3
q-19 -57 -53 -95t-76 -38q-22 0 -73 14.5t-74 14.5q-55 0 -82 -41l-11 4q17 50 49 91t77 41q18 0 74.5 -16.5t80.5 -16.5q26 0 43.5 9t34.5 36z" />
    <glyph glyph-name="odieresis" unicode="&#xf6;" horiz-adv-x="568" 
d="M326 455q111 0 161.5 -52t50.5 -135q0 -113 -83.5 -197.5t-223.5 -84.5q-106 0 -154 50.5t-48 132.5q0 120 82.5 203t214.5 83zM324 437q-36 0 -67 -61.5t-46 -140t-15 -144.5q0 -89 45 -89q32 0 59 40t42.5 97t24 112t8.5 94q0 92 -51 92zM267 697q28 0 45.5 -19.5
t17.5 -48.5q0 -37 -27.5 -64.5t-61.5 -27.5q-26 0 -44 18.5t-18 45.5q0 38 26 67t62 29zM461 697q29 0 46 -19.5t17 -48.5q0 -37 -27 -64.5t-61 -27.5q-26 0 -44 18.5t-18 45.5q0 38 25.5 67t61.5 29z" />
    <glyph glyph-name="divide" unicode="&#xf7;" horiz-adv-x="572" 
d="M335 510q22 0 36 -15t14 -38q0 -31 -22 -54t-50 -23q-21 0 -34.5 15t-13.5 37q0 30 21.5 54t48.5 24zM287 218q21 0 34.5 -15t13.5 -38q0 -32 -21 -54.5t-50 -22.5q-20 0 -33.5 14.5t-13.5 36.5q0 31 22 55t48 24zM489 277h-389l9 48h388q-1 -8 -4 -24t-4 -24z" />
    <glyph glyph-name="oslash" unicode="&#xf8;" horiz-adv-x="568" 
d="M326 455q71 0 121 -24l35 42l11 -10l-33 -40q78 -47 78 -155q0 -113 -83.5 -197.5t-223.5 -84.5q-68 0 -115 22l-39 -47l-11 11l37 44q-74 46 -74 153q0 120 82.5 203t214.5 83zM241 2q30 0 55 34t41 85.5t25.5 103t11.5 95.5l-178 -216v-13q0 -89 45 -89zM324 437
q-49 0 -84 -98.5t-43 -208.5l178 214v1q0 92 -51 92z" />
    <glyph glyph-name="ugrave" unicode="&#xf9;" 
d="M560 454l6 -4q-47 -237 -80 -417q33 21 95 85l10 -13q-100 -119 -171 -119q-41 0 -63 19.5t-22 53.5q0 49 36 183q-1 0 -2 0.5t-2 0.5q-43 -137 -99.5 -197t-107.5 -60q-98 0 -98 97q0 25 6 54l54 268q-48 -31 -96 -84l-11 12q103 122 175 122q88 0 88 -83q0 -12 -7 -49
l-41 -188q-7 -33 -7 -43q0 -27 21 -27q29 0 71.5 88t66.5 205l10 49q100 8 168 47zM452 527l-5 -13q-68 16 -115.5 39t-66.5 46.5t-26 39.5t-7 28q0 21 12.5 35.5t37.5 14.5q24 0 41.5 -19t28.5 -45t37.5 -62.5t62.5 -63.5z" />
    <glyph glyph-name="uacute" unicode="&#xfa;" 
d="M560 454l6 -4q-47 -237 -80 -417q33 21 95 85l10 -13q-100 -119 -171 -119q-41 0 -63 19.5t-22 53.5q0 49 36 183q-1 0 -2 0.5t-2 0.5q-43 -137 -99.5 -197t-107.5 -60q-98 0 -98 97q0 25 6 54l54 268q-48 -31 -96 -84l-11 12q103 122 175 122q88 0 88 -83q0 -12 -7 -49
l-41 -188q-7 -33 -7 -43q0 -27 21 -27q29 0 71.5 88t66.5 205l10 49q100 8 168 47zM267 510l-5 13q42 28 72.5 66t43.5 65.5t31.5 47t42.5 19.5t37 -14t12 -33q-1 -12 -9.5 -29t-31 -42t-73 -50.5t-120.5 -42.5z" />
    <glyph glyph-name="ucircumflex" unicode="&#xfb;" 
d="M560 454l6 -4q-47 -237 -80 -417q33 21 95 85l10 -13q-100 -119 -171 -119q-41 0 -63 19.5t-22 53.5q0 49 36 183q-1 0 -2 0.5t-2 0.5q-43 -137 -99.5 -197t-107.5 -60q-98 0 -98 97q0 25 6 54l54 268q-48 -31 -96 -84l-11 12q103 122 175 122q88 0 88 -83q0 -12 -7 -49
l-41 -188q-7 -33 -7 -43q0 -27 21 -27q29 0 71.5 88t66.5 205l10 49q100 8 168 47zM498 517l-139 89l-175 -89l-7 12l179 177q16 14 24 14q10 0 19 -14l110 -177z" />
    <glyph glyph-name="udieresis" unicode="&#xfc;" 
d="M560 454l6 -4q-47 -237 -80 -417q33 21 95 85l10 -13q-100 -119 -171 -119q-41 0 -63 19.5t-22 53.5q0 49 36 183q-1 0 -2 0.5t-2 0.5q-43 -137 -99.5 -197t-107.5 -60q-98 0 -98 97q0 25 6 54l54 268q-48 -31 -96 -84l-11 12q103 122 175 122q88 0 88 -83q0 -12 -7 -49
l-41 -188q-7 -33 -7 -43q0 -27 21 -27q29 0 71.5 88t66.5 205l10 49q100 8 168 47zM274 697q28 0 45.5 -19.5t17.5 -48.5q0 -37 -27.5 -64.5t-61.5 -27.5q-26 0 -44 18.5t-18 45.5q0 38 26 67t62 29zM468 697q29 0 46 -19.5t17 -48.5q0 -37 -27 -64.5t-61 -27.5
q-26 0 -44 18.5t-18 45.5q0 38 25.5 67t61.5 29z" />
    <glyph glyph-name="yacute" unicode="&#xfd;" horiz-adv-x="482" 
d="M469 387q0 -53 -37 -114.5t-89.5 -117t-105 -109t-89.5 -105.5t-37 -91q0 -49 40 -60q0 44 21 73t54 29q25 0 39.5 -14.5t14.5 -35.5q0 -34 -28.5 -55.5t-66.5 -21.5q-42 0 -68.5 22t-26.5 61q0 58 68 140q-53 294 -84 396q-25 -24 -69 -79l-10 10q42 63 81.5 100
t89.5 37q23 0 40 -13.5t33.5 -47.5t29 -100.5t20.5 -165.5q5 6 23.5 26t25 27.5t21.5 24.5t22.5 27t17.5 24t16.5 25.5t10.5 22.5q-76 23 -76 95q0 20 13 41t44 21q27 0 44.5 -20t17.5 -52zM216 510l-5 13q42 28 72.5 66t43.5 65.5t31.5 47t42.5 19.5t37 -14t12 -33
q-1 -12 -9.5 -29t-31 -42t-73 -50.5t-120.5 -42.5z" />
    <glyph glyph-name="thorn" unicode="&#xfe;" horiz-adv-x="603" 
d="M16 -118q49 255 134 709q7 42 7 44q0 24 -15.5 34t-31 12.5t-15.5 8.5l1 4q1 3 1 5q151 21 241 34l4 -6q-11 -56 -31 -163t-37 -188t-34 -148h2q1 -1 2 -1q70 227 200 227q55 0 92 -36t37 -113q0 -127 -67 -222t-178 -95q-77 0 -118 35q-10 -26 -20 -88.5t-10 -75.5
q0 -25 17 -36t34.5 -15t17.5 -11q0 -5 -1 -7h-313v6q1 8 12 12.5t24 8t26.5 20t18.5 45.5zM272 18q53 0 93 108t40 199q0 67 -35 67q-81 0 -156 -348q24 -26 58 -26z" />
    <glyph glyph-name="ydieresis" unicode="&#xff;" horiz-adv-x="482" 
d="M469 387q0 -53 -37 -114.5t-89.5 -117t-105 -109t-89.5 -105.5t-37 -91q0 -49 40 -60q0 44 21 73t54 29q25 0 39.5 -14.5t14.5 -35.5q0 -34 -28.5 -55.5t-66.5 -21.5q-42 0 -68.5 22t-26.5 61q0 58 68 140q-53 294 -84 396q-25 -24 -69 -79l-10 10q42 63 81.5 100
t89.5 37q23 0 40 -13.5t33.5 -47.5t29 -100.5t20.5 -165.5q5 6 23.5 26t25 27.5t21.5 24.5t22.5 27t17.5 24t16.5 25.5t10.5 22.5q-76 23 -76 95q0 20 13 41t44 21q27 0 44.5 -20t17.5 -52zM216 697q28 0 45.5 -19.5t17.5 -48.5q0 -37 -27.5 -64.5t-61.5 -27.5
q-26 0 -44 18.5t-18 45.5q0 38 26 67t62 29zM410 697q29 0 46 -19.5t17 -48.5q0 -37 -27 -64.5t-61 -27.5q-26 0 -44 18.5t-18 45.5q0 38 25.5 67t61.5 29z" />
    <glyph glyph-name="Amacron" unicode="&#x100;" horiz-adv-x="672" 
d="M95 117q41 80 114.5 227.5t97.5 194.5q25 50 25 70q0 17 -9 26.5t-20.5 12t-20.5 6.5t-9 10q0 2 0.5 5.5t0.5 4.5h202l96 -583q6 -37 23 -53.5t30.5 -20t13.5 -9.5q0 -2 -0.5 -4.5t-0.5 -3.5h-320q0 10 10.5 15.5t23 8t23 15.5t10.5 36q0 17 -3.5 40.5t-9.5 53.5t-8 44
h-202q-61 -122 -61 -148q0 -24 18.5 -34t37.5 -13t19 -10t-1 -8h-215q0 12 12.5 17t30.5 8t44 26t48 66zM317 515h-4l-142 -285h190zM565 850l-19 -95q-121 12 -296 0l13 76q85 14 302 19z" />
    <glyph glyph-name="amacron" unicode="&#x101;" 
d="M567 461q-43 -178 -79 -425q46 31 92 81q5 -6 11 -11q-101 -119 -174 -119q-83 0 -83 78q0 47 27 148q-39 -117 -89 -172t-114 -55q-55 0 -92 36t-37 113q0 127 67 223t178 96q82 0 127 -51q91 13 154 58h12zM328 420q-52 0 -91.5 -91.5t-39.5 -197.5q0 -28 1.5 -43.5
t10 -28.5t24.5 -13q32 0 72.5 75.5t67.5 198.5l15 68q-26 32 -60 32zM500 642l-18 -94q-119 11 -294 0l14 75q84 14 298 19z" />
    <glyph glyph-name="Abreve" unicode="&#x102;" horiz-adv-x="672" 
d="M95 117q41 80 114.5 227.5t97.5 194.5q25 50 25 70q0 17 -9 26.5t-20.5 12t-20.5 6.5t-9 10q0 2 0.5 5.5t0.5 4.5h202l96 -583q6 -37 23 -53.5t30.5 -20t13.5 -9.5q0 -2 -0.5 -4.5t-0.5 -3.5h-320q0 10 10.5 15.5t23 8t23 15.5t10.5 36q0 17 -3.5 40.5t-9.5 53.5t-8 44
h-202q-61 -122 -61 -148q0 -24 18.5 -34t37.5 -13t19 -10t-1 -8h-215q0 12 12.5 17t30.5 8t44 26t48 66zM317 515h-4l-142 -285h190zM409 730q-63 0 -95.5 47t-29.5 125l13 4q30 -91 126 -91q93 0 157 92l11 -3q-29 -87 -76.5 -130.5t-105.5 -43.5z" />
    <glyph glyph-name="abreve" unicode="&#x103;" 
d="M567 461q-43 -178 -79 -425q46 31 92 81q5 -6 11 -11q-101 -119 -174 -119q-83 0 -83 78q0 47 27 148q-39 -117 -89 -172t-114 -55q-55 0 -92 36t-37 113q0 127 67 223t178 96q82 0 127 -51q91 13 154 58h12zM328 420q-52 0 -91.5 -91.5t-39.5 -197.5q0 -28 1.5 -43.5
t10 -28.5t24.5 -13q32 0 72.5 75.5t67.5 198.5l15 68q-26 32 -60 32zM341 515q-66 0 -98.5 51.5t-26.5 136.5l14 4q35 -103 127 -103q88 0 159 100l13 -4q-30 -91 -80.5 -138t-107.5 -47z" />
    <glyph glyph-name="Aogonek" unicode="&#x104;" horiz-adv-x="672" 
d="M95 117q41 80 114.5 227.5t97.5 194.5q25 50 25 70q0 17 -9 26.5t-20.5 12t-20.5 6.5t-9 10q0 2 0.5 5.5t0.5 4.5h202l96 -583q6 -37 23 -53.5t30.5 -20t13.5 -9.5q0 -2 -0.5 -4.5t-0.5 -3.5h-96q-55 -38 -81.5 -83.5t-26.5 -82.5q0 -67 82 -67q27 0 62 11l1 -12
q-26 -18 -69.5 -31t-82.5 -13q-94 0 -94 69q0 16 7 36t24 49t57 62t96 62h-199q0 10 10.5 15.5t23 8t23 15.5t10.5 36q0 17 -3.5 40.5t-9.5 53.5t-8 44h-202q-61 -122 -61 -148q0 -24 18.5 -34t37.5 -13t19 -10t-1 -8h-215q0 12 12.5 17t30.5 8t44 26t48 66zM317 515h-4
l-142 -285h190z" />
    <glyph glyph-name="aogonek" unicode="&#x105;" 
d="M567 461q-43 -178 -79 -425q46 31 92 81q5 -6 11 -11q-101 -119 -174 -119q-7 0 -21 2q-46 -37 -68.5 -79t-22.5 -75q0 -67 82 -67q27 0 62 11l1 -12q-26 -18 -69.5 -31t-82.5 -13q-94 0 -94 69q0 22 10 49t51.5 71.5t109.5 81.5q-41 16 -41 71q0 47 27 148
q-39 -117 -89 -172t-114 -55q-55 0 -92 36t-37 113q0 127 67 223t178 96q82 0 127 -51q91 13 154 58h12zM328 420q-52 0 -91.5 -91.5t-39.5 -197.5q0 -28 1.5 -43.5t10 -28.5t24.5 -13q32 0 72.5 75.5t67.5 198.5l15 68q-26 32 -60 32z" />
    <glyph glyph-name="Cacute" unicode="&#x106;" horiz-adv-x="615" 
d="M435 688q84 0 161 -30l38 46q1 0 4.5 -0.5t4.5 -0.5l-37 -270h-5q-10 0 -14 32q-5 47 -12.5 80t-21.5 63t-36.5 45t-53.5 15q-60 0 -111 -85t-77 -200t-26 -220q0 -155 103 -155q67 0 120 62.5t91 162.5q17 46 30 46h4q-55 -292 -56 -298h-8l-26 47q-96 -41 -197 -41
q-126 0 -194 77t-68 201q0 182 109.5 302.5t277.5 120.5zM331 737q0 3 -0.5 7t-0.5 6q41 20 72.5 46t47.5 47t30 40t28 29.5t33 10.5q23 0 35 -14.5t12 -34.5q0 -5 -3 -15t-18 -31t-40.5 -38.5t-76.5 -33t-119 -19.5z" />
    <glyph glyph-name="cacute" unicode="&#x107;" horiz-adv-x="464" 
d="M321 455q70 0 103.5 -28.5t33.5 -68.5q0 -30 -19 -48t-46 -18q-33 0 -50.5 23t-17.5 56q0 35 22 62q-44 0 -79 -47t-51.5 -111.5t-16.5 -129.5q0 -55 25 -84t71 -29q59 0 117 46q1 -2 4.5 -6t3.5 -5q-89 -81 -203 -81q-92 0 -140.5 48t-48.5 126q0 121 81 208t211 87z
M207 510l-5 13q42 28 72.5 66t43.5 65.5t31.5 47t42.5 19.5t37 -14t12 -33q-1 -12 -9.5 -29t-31 -42t-73 -50.5t-120.5 -42.5z" />
    <glyph glyph-name="Ccircumflex" unicode="&#x108;" horiz-adv-x="615" 
d="M435 688q84 0 161 -30l38 46q1 0 4.5 -0.5t4.5 -0.5l-37 -270h-5q-10 0 -14 32q-5 47 -12.5 80t-21.5 63t-36.5 45t-53.5 15q-60 0 -111 -85t-77 -200t-26 -220q0 -155 103 -155q67 0 120 62.5t91 162.5q17 46 30 46h4q-55 -292 -56 -298h-8l-26 47q-96 -41 -197 -41
q-126 0 -194 77t-68 201q0 182 109.5 302.5t277.5 120.5zM591 734l-142 83l-177 -81q-1 1 -3.5 5.5t-3.5 7.5l183 169q15 13 21 13q9 0 18 -12q90 -133 115 -172z" />
    <glyph glyph-name="ccircumflex" unicode="&#x109;" horiz-adv-x="464" 
d="M321 455q70 0 103.5 -28.5t33.5 -68.5q0 -30 -19 -48t-46 -18q-33 0 -50.5 23t-17.5 56q0 35 22 62q-44 0 -79 -47t-51.5 -111.5t-16.5 -129.5q0 -55 25 -84t71 -29q59 0 117 46q1 -2 4.5 -6t3.5 -5q-89 -81 -203 -81q-92 0 -140.5 48t-48.5 126q0 121 81 208t211 87z
M451 517l-139 89l-175 -89l-7 12l179 177q16 14 24 14q10 0 19 -14l110 -177z" />
    <glyph glyph-name="Cdotaccent" unicode="&#x10a;" horiz-adv-x="615" 
d="M435 688q84 0 161 -30l38 46q1 0 4.5 -0.5t4.5 -0.5l-37 -270h-5q-10 0 -14 32q-5 47 -12.5 80t-21.5 63t-36.5 45t-53.5 15q-60 0 -111 -85t-77 -200t-26 -220q0 -155 103 -155q67 0 120 62.5t91 162.5q17 46 30 46h4q-55 -292 -56 -298h-8l-26 47q-96 -41 -197 -41
q-126 0 -194 77t-68 201q0 182 109.5 302.5t277.5 120.5zM448 917q30 0 48.5 -20.5t18.5 -50.5q0 -43 -30 -74.5t-70 -31.5q-29 0 -48 20.5t-19 50.5q0 42 30.5 74t69.5 32z" />
    <glyph glyph-name="cdotaccent" unicode="&#x10b;" horiz-adv-x="464" 
d="M321 455q70 0 103.5 -28.5t33.5 -68.5q0 -30 -19 -48t-46 -18q-33 0 -50.5 23t-17.5 56q0 35 22 62q-44 0 -79 -47t-51.5 -111.5t-16.5 -129.5q0 -55 25 -84t71 -29q59 0 117 46q1 -2 4.5 -6t3.5 -5q-89 -81 -203 -81q-92 0 -140.5 48t-48.5 126q0 121 81 208t211 87z
M346 709q30 0 48.5 -20.5t18.5 -50.5q0 -43 -30 -74.5t-70 -31.5q-29 0 -48 20.5t-19 50.5q0 42 30.5 74t69.5 32z" />
    <glyph glyph-name="Ccaron" unicode="&#x10c;" horiz-adv-x="615" 
d="M435 688q84 0 161 -30l38 46q1 0 4.5 -0.5t4.5 -0.5l-37 -270h-5q-10 0 -14 32q-5 47 -12.5 80t-21.5 63t-36.5 45t-53.5 15q-60 0 -111 -85t-77 -200t-26 -220q0 -155 103 -155q67 0 120 62.5t91 162.5q17 46 30 46h4q-55 -292 -56 -298h-8l-26 47q-96 -41 -197 -41
q-126 0 -194 77t-68 201q0 182 109.5 302.5t277.5 120.5zM450 837l172 85l8 -11l-179 -175q-14 -11 -21 -11q-10 0 -17 12l-122 172l13 13z" />
    <glyph glyph-name="ccaron" unicode="&#x10d;" horiz-adv-x="464" 
d="M321 455q70 0 103.5 -28.5t33.5 -68.5q0 -30 -19 -48t-46 -18q-33 0 -50.5 23t-17.5 56q0 35 22 62q-44 0 -79 -47t-51.5 -111.5t-16.5 -129.5q0 -55 25 -84t71 -29q59 0 117 46q1 -2 4.5 -6t3.5 -5q-89 -81 -203 -81q-92 0 -140.5 48t-48.5 126q0 121 81 208t211 87z
M318 623l169 93l7 -12l-170 -178q-15 -15 -24 -15t-19 15l-120 178l13 13z" />
    <glyph glyph-name="Dcaron" unicode="&#x10e;" horiz-adv-x="737" 
d="M-15 0q0 11 12 16t27 7t30.5 20t21.5 52l80 476q4 28 4 30q0 26 -16 37.5t-32.5 15t-16.5 10.5v10h250q69 0 123.5 -7.5t103.5 -27t81.5 -50.5t51.5 -80t19 -113q0 -40 -10.5 -87t-39 -103.5t-71.5 -101t-117 -74.5t-166 -30h-335zM354 654l-96 -570q0 -5 -1.5 -13.5
t-1.5 -10.5q0 -42 49 -42h7q60 0 109.5 72t75 174.5t25.5 204.5q0 96 -36 140.5t-111 44.5h-20zM432 837l172 85l8 -11l-179 -175q-14 -11 -21 -11q-10 0 -17 12l-122 172l13 13z" />
    <glyph glyph-name="dcaron" unicode="&#x10f;" horiz-adv-x="646" 
d="M328 419q-52 0 -91.5 -89.5t-39.5 -190.5q0 -23 0.5 -35t3.5 -27.5t10.5 -22.5t20.5 -7q35 0 81.5 95.5t71.5 250.5q-24 26 -57 26zM359 208h-1l-2 1q-37 -114 -86 -168t-113 -54q-55 0 -91.5 35.5t-36.5 112.5q0 82 28 153.5t85.5 118t131.5 46.5t115 -38l2 1l37 192
q3 15 3 25q0 19 -9.5 29.5t-21 12.5t-21 5t-9.5 8q0 1 0.5 4.5t0.5 5.5l241 34l5 -5q-25 -131 -70 -373t-60 -320q41 27 94 84l10 -11q-98 -119 -173 -119q-83 0 -83 78q0 50 24 142zM731 744q26 0 40.5 -18t14.5 -45q0 -47 -41.5 -114t-96.5 -108l-9 12q79 70 102 147
q-17 -12 -38 -12q-22 0 -35.5 15t-13.5 37q0 32 22 59t55 27z" />
    <glyph glyph-name="Dcroat" unicode="&#x110;" horiz-adv-x="738" 
d="M-15 0q0 11 12 16t27 7t30.5 20t21.5 52l42 253h-71l4 18h70l35 205q4 28 4 30q0 26 -16 37.5t-32.5 15t-16.5 10.5v10h250q69 0 123.5 -7.5t103.5 -27t81.5 -50.5t51.5 -80t19 -113q0 -40 -10.5 -87t-39 -103.5t-71.5 -101t-117 -74.5t-166 -30h-335zM354 654l-49 -288
h107l-3 -18h-107l-44 -264q0 -5 -1.5 -13.5t-1.5 -10.5q0 -42 49 -42h7q60 0 109.5 72t75 174.5t25.5 204.5q0 96 -36 140.5t-111 44.5h-20z" />
    <glyph glyph-name="dcroat" unicode="&#x111;" horiz-adv-x="605" 
d="M359 208h-1l-2 1q-37 -114 -86 -168t-113 -54q-55 0 -91.5 35.5t-36.5 112.5q0 127 67 222.5t178 95.5q74 0 115 -38q5 8 26 126h-151q0 3 0.5 5.5t1.5 6t1 5.5h151l9 46q4 22 4 29q0 19 -9.5 29.5t-21 12.5t-21 5t-9.5 8q0 1 0.5 4.5t0.5 5.5l241 34l5 -5l-33 -169h56
l-3 -17h-56q-52 -275 -94 -507q41 27 94 84l10 -11q-97 -119 -176 -119q-80 0 -80 87q0 41 24 133zM328 419q-34 0 -63.5 -48t-46.5 -110.5t-21 -121.5q0 -23 0.5 -35t3.5 -27.5t10.5 -22.5t20.5 -7q35 0 81.5 95.5t71.5 250.5q-24 26 -57 26z" />
    <glyph glyph-name="Emacron" unicode="&#x112;" horiz-adv-x="633" 
d="M314 18h29q73 0 130 52t129 178q16 27 24 27q2 0 8 -2q-79 -235 -101 -295h-1l-2 -1q-61 23 -178 23h-366v2q0 10 11.5 15t27 7.5t31 19.5t20.5 49l83 484q3 21 3 23q0 27 -17.5 38.5t-35 14.5t-17.5 10q0 2 0.5 5.5t0.5 5.5h288q161 0 242 32q3 0 4 -1l-9 -129t-8 -129
q-2 -1 -7 -1q-8 0 -13 25q-18 81 -36 116.5t-53 51t-105 15.5h-38q-16 -98 -50 -292h52q36 0 61.5 20.5t35.5 45t19 45t16 20.5h5l-48 -290h-6q-8 0 -10 22t-2.5 48t-18 48t-53.5 22h-54l-44 -258q-3 -21 -3 -23q0 -44 56 -44zM559 850l-19 -95q-121 12 -296 0l13 76
q85 14 302 19z" />
    <glyph glyph-name="emacron" unicode="&#x113;" horiz-adv-x="496" 
d="M223 -13q-97 0 -145.5 47.5t-48.5 127.5q0 117 81.5 204.5t218.5 87.5q155 0 155 -107q0 -43 -27 -75.5t-72 -51t-90 -27.5t-93 -12q-2 -22 -2 -32q0 -113 92 -113q77 0 147 67l9 -10q-40 -47 -98.5 -76.5t-126.5 -29.5zM204 204q72 6 111.5 63t39.5 119q0 49 -36 49
q-38 0 -71 -70t-44 -161zM483 642l-18 -94q-119 11 -294 0l14 75q84 14 298 19z" />
    <glyph glyph-name="Ebreve" unicode="&#x114;" horiz-adv-x="633" 
d="M314 18h29q73 0 130 52t129 178q16 27 24 27q2 0 8 -2q-79 -235 -101 -295h-1l-2 -1q-61 23 -178 23h-366v2q0 10 11.5 15t27 7.5t31 19.5t20.5 49l83 484q3 21 3 23q0 27 -17.5 38.5t-35 14.5t-17.5 10q0 2 0.5 5.5t0.5 5.5h288q161 0 242 32q3 0 4 -1l-9 -129t-8 -129
q-2 -1 -7 -1q-8 0 -13 25q-18 81 -36 116.5t-53 51t-105 15.5h-38q-16 -98 -50 -292h52q36 0 61.5 20.5t35.5 45t19 45t16 20.5h5l-48 -290h-6q-8 0 -10 22t-2.5 48t-18 48t-53.5 22h-54l-44 -258q-3 -21 -3 -23q0 -44 56 -44zM380 730q-63 0 -95.5 47t-29.5 125l13 4
q30 -91 126 -91q93 0 157 92l11 -3q-29 -87 -76.5 -130.5t-105.5 -43.5z" />
    <glyph glyph-name="ebreve" unicode="&#x115;" horiz-adv-x="496" 
d="M223 -13q-97 0 -145.5 47.5t-48.5 127.5q0 117 81.5 204.5t218.5 87.5q155 0 155 -107q0 -43 -27 -75.5t-72 -51t-90 -27.5t-93 -12q-2 -22 -2 -32q0 -113 92 -113q77 0 147 67l9 -10q-40 -47 -98.5 -76.5t-126.5 -29.5zM204 204q72 6 111.5 63t39.5 119q0 49 -36 49
q-38 0 -71 -70t-44 -161zM317 515q-66 0 -98.5 51.5t-26.5 136.5l14 4q35 -103 127 -103q88 0 159 100l13 -4q-30 -91 -80.5 -138t-107.5 -47z" />
    <glyph glyph-name="Edotaccent" unicode="&#x116;" horiz-adv-x="633" 
d="M314 18h29q73 0 130 52t129 178q16 27 24 27q2 0 8 -2q-79 -235 -101 -295h-1l-2 -1q-61 23 -178 23h-366v2q0 10 11.5 15t27 7.5t31 19.5t20.5 49l83 484q3 21 3 23q0 27 -17.5 38.5t-35 14.5t-17.5 10q0 2 0.5 5.5t0.5 5.5h288q161 0 242 32q3 0 4 -1l-9 -129t-8 -129
q-2 -1 -7 -1q-8 0 -13 25q-18 81 -36 116.5t-53 51t-105 15.5h-38q-16 -98 -50 -292h52q36 0 61.5 20.5t35.5 45t19 45t16 20.5h5l-48 -290h-6q-8 0 -10 22t-2.5 48t-18 48t-53.5 22h-54l-44 -258q-3 -21 -3 -23q0 -44 56 -44zM418 915q30 0 48.5 -20.5t18.5 -50.5
q0 -43 -30 -74.5t-70 -31.5q-29 0 -48 20.5t-19 50.5q0 42 30.5 74t69.5 32z" />
    <glyph glyph-name="edotaccent" unicode="&#x117;" horiz-adv-x="496" 
d="M223 -13q-97 0 -145.5 47.5t-48.5 127.5q0 117 81.5 204.5t218.5 87.5q155 0 155 -107q0 -43 -27 -75.5t-72 -51t-90 -27.5t-93 -12q-2 -22 -2 -32q0 -113 92 -113q77 0 147 67l9 -10q-40 -47 -98.5 -76.5t-126.5 -29.5zM204 204q72 6 111.5 63t39.5 119q0 49 -36 49
q-38 0 -71 -70t-44 -161zM360 709q30 0 48.5 -20.5t18.5 -50.5q0 -43 -30 -74.5t-70 -31.5q-29 0 -48 20.5t-19 50.5q0 42 30.5 74t69.5 32z" />
    <glyph glyph-name="Eogonek" unicode="&#x118;" horiz-adv-x="633" 
d="M314 18h29q73 0 130 52t129 178q16 27 24 27q2 0 8 -2q-79 -235 -101 -295h-1l-2 -1q-32 12 -78 18q-54 -38 -79.5 -83t-25.5 -81q0 -67 82 -67q27 0 62 11l1 -12q-26 -18 -69.5 -31t-82.5 -13q-94 0 -94 69q0 16 7 36t24 49t57 62t96 62q-34 3 -78 3h-366v2
q0 10 11.5 15t27 7.5t31 19.5t20.5 49l83 484q3 21 3 23q0 27 -17.5 38.5t-35 14.5t-17.5 10q0 2 0.5 5.5t0.5 5.5h288q161 0 242 32q3 0 4 -1l-9 -129t-8 -129q-2 -1 -7 -1q-8 0 -13 25q-18 81 -36 116.5t-53 51t-105 15.5h-38q-16 -98 -50 -292h52q36 0 61.5 20.5t35.5 45
t19 45t16 20.5h5l-48 -290h-6q-8 0 -10 22t-2.5 48t-18 48t-53.5 22h-54l-44 -258q-3 -21 -3 -23q0 -44 56 -44z" />
    <glyph glyph-name="eogonek" unicode="&#x119;" horiz-adv-x="496" 
d="M223 -13q-97 0 -145.5 47.5t-48.5 127.5q0 117 81.5 204.5t218.5 87.5q155 0 155 -107q0 -43 -27 -75.5t-72 -51t-90 -27.5t-93 -12q-2 -22 -2 -32q0 -113 92 -113q77 0 147 67l9 -10q-41 -46 -90 -72q-55 -38 -81.5 -83.5t-26.5 -82.5q0 -67 82 -67q27 0 62 11l1 -12
q-26 -18 -69.5 -31t-82.5 -13q-94 0 -94 69q0 14 5 31.5t18.5 42t42.5 53.5t71 56q-32 -8 -63 -8zM204 204q72 6 111.5 63t39.5 119q0 49 -36 49q-38 0 -71 -70t-44 -161z" />
    <glyph glyph-name="Ecaron" unicode="&#x11a;" horiz-adv-x="633" 
d="M314 18h29q73 0 130 52t129 178q16 27 24 27q2 0 8 -2q-79 -235 -101 -295h-1l-2 -1q-61 23 -178 23h-366v2q0 10 11.5 15t27 7.5t31 19.5t20.5 49l83 484q3 21 3 23q0 27 -17.5 38.5t-35 14.5t-17.5 10q0 2 0.5 5.5t0.5 5.5h288q161 0 242 32q3 0 4 -1l-9 -129t-8 -129
q-2 -1 -7 -1q-8 0 -13 25q-18 81 -36 116.5t-53 51t-105 15.5h-38q-16 -98 -50 -292h52q36 0 61.5 20.5t35.5 45t19 45t16 20.5h5l-48 -290h-6q-8 0 -10 22t-2.5 48t-18 48t-53.5 22h-54l-44 -258q-3 -21 -3 -23q0 -44 56 -44zM408 837l172 85l8 -11l-179 -175
q-14 -11 -21 -11q-10 0 -17 12l-122 172l13 13z" />
    <glyph glyph-name="ecaron" unicode="&#x11b;" horiz-adv-x="496" 
d="M223 -13q-97 0 -145.5 47.5t-48.5 127.5q0 117 81.5 204.5t218.5 87.5q155 0 155 -107q0 -43 -27 -75.5t-72 -51t-90 -27.5t-93 -12q-2 -22 -2 -32q0 -113 92 -113q77 0 147 67l9 -10q-40 -47 -98.5 -76.5t-126.5 -29.5zM204 204q72 6 111.5 63t39.5 119q0 49 -36 49
q-38 0 -71 -70t-44 -161zM339 623l169 93l7 -12l-170 -178q-15 -15 -24 -15t-19 15l-120 178l13 13z" />
    <glyph glyph-name="Gcircumflex" unicode="&#x11c;" horiz-adv-x="695" 
d="M592 5l-8 -3l-46 45q-120 -59 -228 -59q-126 0 -194.5 75.5t-68.5 201.5q0 182 113.5 302.5t281.5 120.5q109 0 180 -32l49 48q1 0 3 -0.5t4 -0.5l-38 -271h-4q-4 0 -5.5 1t-4.5 10t-5 27q-9 86 -43 142t-101 56q-61 0 -114.5 -75t-84.5 -194.5t-31 -248.5
q0 -72 18.5 -108t62.5 -36q59 0 105 60q4 24 8.5 50.5t10 58.5t8.5 50q0 3 1 10t2 12.5t1 7.5q0 27 -16 38.5t-32.5 15t-16.5 10.5q0 5 2 9h305q0 -12 -10 -17.5t-23 -7t-26.5 -18.5t-18.5 -49zM617 731l-142 83l-177 -81q-1 1 -3.5 5.5t-3.5 7.5l183 169q15 13 21 13
q9 0 18 -12q90 -133 115 -172z" />
    <glyph glyph-name="gcircumflex" unicode="&#x11d;" horiz-adv-x="545" 
d="M308 437q-29 0 -53.5 -51.5t-35.5 -109t-11 -94.5q0 -62 43 -62q40 0 69.5 93t29.5 161q0 63 -42 63zM310 455q45 0 87 -14q28 38 65.5 61.5t74.5 23.5q32 0 51.5 -16t19.5 -42q0 -25 -18.5 -41t-44.5 -16q-22 0 -47.5 18.5t-28.5 57.5q-31 -15 -58 -50q97 -38 97 -128
q0 -80 -71.5 -142.5t-192.5 -62.5q-82 0 -132 29q-43 -20 -43 -42q0 -17 42.5 -22.5t103 -6.5t121 -6.5t103 -31t42.5 -72.5q0 -72 -90 -127.5t-234 -55.5q-110 0 -155 34.5t-45 81.5q0 31 18.5 53t47.5 22q30 0 47 -22.5t17 -54.5q0 -19 -10.5 -42.5t-25.5 -34.5
q23 -16 80 -16q63 0 109.5 29.5t46.5 81.5q0 27 -21 45t-53 25.5t-68.5 14t-68.5 11.5t-53 17t-21 31q0 22 24.5 50t72.5 46q-50 38 -50 100q0 86 72.5 150t188.5 64zM473 538l-139 89l-175 -89l-7 12l179 177q16 14 24 14q10 0 19 -14l110 -177z" />
    <glyph glyph-name="Gbreve" unicode="&#x11e;" horiz-adv-x="695" 
d="M592 5l-8 -3l-46 45q-120 -59 -228 -59q-126 0 -194.5 75.5t-68.5 201.5q0 182 113.5 302.5t281.5 120.5q109 0 180 -32l49 48q1 0 3 -0.5t4 -0.5l-38 -271h-4q-4 0 -5.5 1t-4.5 10t-5 27q-9 86 -43 142t-101 56q-61 0 -114.5 -75t-84.5 -194.5t-31 -248.5
q0 -72 18.5 -108t62.5 -36q59 0 105 60q4 24 8.5 50.5t10 58.5t8.5 50q0 3 1 10t2 12.5t1 7.5q0 27 -16 38.5t-32.5 15t-16.5 10.5q0 5 2 9h305q0 -12 -10 -17.5t-23 -7t-26.5 -18.5t-18.5 -49zM461 728q-63 0 -95.5 47t-29.5 125l13 4q30 -91 126 -91q93 0 157 92l11 -3
q-29 -87 -76.5 -130.5t-105.5 -43.5z" />
    <glyph glyph-name="gbreve" unicode="&#x11f;" horiz-adv-x="545" 
d="M308 437q-29 0 -53.5 -51.5t-35.5 -109t-11 -94.5q0 -62 43 -62q40 0 69.5 93t29.5 161q0 63 -42 63zM310 455q45 0 87 -14q28 38 65.5 61.5t74.5 23.5q32 0 51.5 -16t19.5 -42q0 -25 -18.5 -41t-44.5 -16q-22 0 -47.5 18.5t-28.5 57.5q-31 -15 -58 -50q97 -38 97 -128
q0 -80 -71.5 -142.5t-192.5 -62.5q-82 0 -132 29q-43 -20 -43 -42q0 -17 42.5 -22.5t103 -6.5t121 -6.5t103 -31t42.5 -72.5q0 -72 -90 -127.5t-234 -55.5q-110 0 -155 34.5t-45 81.5q0 31 18.5 53t47.5 22q30 0 47 -22.5t17 -54.5q0 -19 -10.5 -42.5t-25.5 -34.5
q23 -16 80 -16q63 0 109.5 29.5t46.5 81.5q0 27 -21 45t-53 25.5t-68.5 14t-68.5 11.5t-53 17t-21 31q0 22 24.5 50t72.5 46q-50 38 -50 100q0 86 72.5 150t188.5 64zM326 518q-66 0 -98.5 51.5t-26.5 136.5l14 4q35 -103 127 -103q88 0 159 100l13 -4q-30 -91 -80.5 -138
t-107.5 -47z" />
    <glyph glyph-name="Gdotaccent" unicode="&#x120;" horiz-adv-x="695" 
d="M592 5l-8 -3l-46 45q-120 -59 -228 -59q-126 0 -194.5 75.5t-68.5 201.5q0 182 113.5 302.5t281.5 120.5q109 0 180 -32l49 48q1 0 3 -0.5t4 -0.5l-38 -271h-4q-4 0 -5.5 1t-4.5 10t-5 27q-9 86 -43 142t-101 56q-61 0 -114.5 -75t-84.5 -194.5t-31 -248.5
q0 -72 18.5 -108t62.5 -36q59 0 105 60q4 24 8.5 50.5t10 58.5t8.5 50q0 3 1 10t2 12.5t1 7.5q0 27 -16 38.5t-32.5 15t-16.5 10.5q0 5 2 9h305q0 -12 -10 -17.5t-23 -7t-26.5 -18.5t-18.5 -49zM486 911q30 0 48.5 -20.5t18.5 -50.5q0 -43 -30 -74.5t-70 -31.5
q-29 0 -48 20.5t-19 50.5q0 42 30.5 74t69.5 32z" />
    <glyph glyph-name="gdotaccent" unicode="&#x121;" horiz-adv-x="545" 
d="M308 437q-29 0 -53.5 -51.5t-35.5 -109t-11 -94.5q0 -62 43 -62q40 0 69.5 93t29.5 161q0 63 -42 63zM310 455q45 0 87 -14q28 38 65.5 61.5t74.5 23.5q32 0 51.5 -16t19.5 -42q0 -25 -18.5 -41t-44.5 -16q-22 0 -47.5 18.5t-28.5 57.5q-31 -15 -58 -50q97 -38 97 -128
q0 -80 -71.5 -142.5t-192.5 -62.5q-82 0 -132 29q-43 -20 -43 -42q0 -17 42.5 -22.5t103 -6.5t121 -6.5t103 -31t42.5 -72.5q0 -72 -90 -127.5t-234 -55.5q-110 0 -155 34.5t-45 81.5q0 31 18.5 53t47.5 22q30 0 47 -22.5t17 -54.5q0 -19 -10.5 -42.5t-25.5 -34.5
q23 -16 80 -16q63 0 109.5 29.5t46.5 81.5q0 27 -21 45t-53 25.5t-68.5 14t-68.5 11.5t-53 17t-21 31q0 22 24.5 50t72.5 46q-50 38 -50 100q0 86 72.5 150t188.5 64zM365 711q30 0 48.5 -20.5t18.5 -50.5q0 -43 -30 -74.5t-70 -31.5q-29 0 -48 20.5t-19 50.5q0 42 30.5 74
t69.5 32z" />
    <glyph glyph-name="Gcommaaccent" unicode="&#x122;" horiz-adv-x="695" 
d="M592 5l-8 -3l-46 45q-120 -59 -228 -59q-126 0 -194.5 75.5t-68.5 201.5q0 182 113.5 302.5t281.5 120.5q109 0 180 -32l49 48q1 0 3 -0.5t4 -0.5l-38 -271h-4q-4 0 -5.5 1t-4.5 10t-5 27q-9 86 -43 142t-101 56q-61 0 -114.5 -75t-84.5 -194.5t-31 -248.5
q0 -72 18.5 -108t62.5 -36q59 0 105 60q4 24 8.5 50.5t10 58.5t8.5 50q0 3 1 10t2 12.5t1 7.5q0 27 -16 38.5t-32.5 15t-16.5 10.5q0 5 2 9h305q0 -12 -10 -17.5t-23 -7t-26.5 -18.5t-18.5 -49zM337 -45q26 0 40.5 -18t14.5 -45q0 -47 -41.5 -114t-96.5 -108l-9 12
q79 70 102 147q-17 -12 -38 -12q-22 0 -35.5 15t-13.5 37q0 32 22 59t55 27z" />
    <glyph glyph-name="gcommaaccent" unicode="&#x123;" horiz-adv-x="545" 
d="M337 534q-26 0 -39.5 17t-13.5 43q0 45 37.5 106t89.5 103l10 -10q-74 -65 -98 -138q23 13 41 13q23 0 35.5 -14.5t12.5 -36.5q0 -30 -21.5 -56.5t-53.5 -26.5zM308 437q-29 0 -53.5 -51.5t-35.5 -109t-11 -94.5q0 -62 43 -62q40 0 69.5 93t29.5 161q0 63 -42 63z
M310 455q45 0 87 -14q28 38 65.5 61.5t74.5 23.5q32 0 51.5 -16t19.5 -42q0 -25 -18.5 -41t-44.5 -16q-22 0 -47.5 18.5t-28.5 57.5q-31 -15 -58 -50q97 -38 97 -128q0 -80 -71.5 -142.5t-192.5 -62.5q-82 0 -132 29q-43 -20 -43 -42q0 -17 42.5 -22.5t103 -6.5t121 -6.5
t103 -31t42.5 -72.5q0 -72 -90 -127.5t-234 -55.5q-110 0 -155 34.5t-45 81.5q0 31 18.5 53t47.5 22q30 0 47 -22.5t17 -54.5q0 -19 -10.5 -42.5t-25.5 -34.5q23 -16 80 -16q63 0 109.5 29.5t46.5 81.5q0 27 -21 45t-53 25.5t-68.5 14t-68.5 11.5t-53 17t-21 31
q0 22 24.5 50t72.5 46q-50 38 -50 100q0 86 72.5 150t188.5 64z" />
    <glyph glyph-name="Hcircumflex" unicode="&#x124;" horiz-adv-x="768" 
d="M729 582l-80 -466q-5 -22 -5 -41q0 -28 18 -40.5t36 -16.5t18 -10q0 -2 -0.5 -4.5t-0.5 -3.5h-341q0 12 11 17t25 7t28 19.5t20 51.5l43 251h-197q-30 -175 -41 -242q-4 -18 -4 -31q0 -21 9.5 -33.5t21 -15.5t21 -6.5t9.5 -9.5t-1 -8h-333q0 11 11.5 16t26.5 7.5t30 20
t21 51.5l81 471q4 32 4 34q0 21 -10 33.5t-22 15t-22 6.5t-10 11v8h331q0 -12 -11 -17t-24.5 -7.5t-28 -19t-19.5 -48.5l-37 -218h197l35 202q4 32 4 36q0 21 -9 32.5t-19.5 14t-19.5 6.5t-9 11v8h330q0 -13 -11.5 -18.5t-26 -7t-29.5 -18t-20 -48.5zM625 728l-142 83
l-177 -81q-1 1 -3.5 5.5t-3.5 7.5l183 169q15 13 21 13q9 0 18 -12q90 -133 115 -172z" />
    <glyph glyph-name="hcircumflex" unicode="&#x125;" horiz-adv-x="587" 
d="M312 732l3 -3l-57 -303q-18 -93 -46 -196h2l2 -1q76 225 211 225q54 0 91.5 -38t37.5 -123q0 -131 -75.5 -230t-172.5 -99q-43 0 -67.5 21.5t-24.5 51.5q0 24 13.5 41t37.5 17q28 0 44 -21.5t16 -56.5q0 -17 -6 -36h2q32 20 53 111.5t21 194.5q0 108 -48 108
q-38 0 -82 -82t-70 -207l-22 -106h-163l114 601q4 22 4 33q0 24 -15 34t-30.5 12t-15.5 8q0 1 0.5 4.5t0.5 5.5q20 2 242 34zM389 753l-142 83l-177 -81q-1 1 -3.5 5.5t-3.5 7.5l183 169q15 13 21 13q9 0 18 -12q90 -133 115 -172z" />
    <glyph glyph-name="Hbar" unicode="&#x126;" horiz-adv-x="768" 
d="M729 582q-5 -25 -13 -75h56l-4 -17h-55q-4 -22 -66 -386q-3 -27 -3 -29q0 -28 18 -40.5t36 -16.5t18 -10q0 -2 -0.5 -4.5t-0.5 -3.5h-341q0 10 11 15t24.5 8t28 21t20.5 51l43 251h-197q-30 -175 -41 -242q-4 -18 -4 -31q0 -21 9.5 -33.5t21 -15.5t21 -6.5t9.5 -9.5
t-1 -8h-333q0 11 11.5 16t26.5 7.5t30 20t21 51.5l68 395h-59q0 2 0.5 5t1.5 6.5t1 5.5h59l6 35q7 37 7 58q0 27 -15.5 38.5t-31.5 15t-16 10.5v10h331q0 -12 -11 -17.5t-24.5 -7.5t-28 -18.5t-19.5 -48.5l-13 -75h197l11 59q4 32 4 36q0 26 -14.5 37t-28.5 14.5t-14 10.5
v10h330q0 -13 -11.5 -18t-26 -6.5t-29.5 -18.5t-20 -49zM307 364h197l21 126h-197z" />
    <glyph glyph-name="hbar" unicode="&#x127;" horiz-adv-x="591" 
d="M12 0q17 90 51 272t52 272h-62l3 18h62l7 35q5 33 5 37q0 21 -15 31.5t-30.5 14t-15.5 8.5q0 1 0.5 4.5t0.5 5.5l242 34l3 -5q-20 -110 -31 -165h158l-3 -18h-158q-7 -31 -25.5 -121t-28.5 -133l-15 -60h2l2 -1q76 225 211 225q57 0 95 -38.5t38 -123.5
q0 -130 -79.5 -232.5t-172.5 -102.5q-42 0 -67 21t-25 51q0 25 14 41.5t38 16.5q27 0 43 -21.5t16 -56.5q0 -15 -5 -35q33 19 54 113.5t21 199.5q0 107 -47 107q-39 0 -83 -81t-70 -207l-22 -106h-163z" />
    <glyph glyph-name="Itilde" unicode="&#x128;" horiz-adv-x="403" 
d="M354 582l-82 -478q-3 -27 -3 -30q0 -21 11.5 -34t24.5 -16t24.5 -6.5t11.5 -9.5t-1 -8h-346q0 11 12 16t27 7t30.5 20t21.5 52q26 158 80 476q4 28 4 30q0 26 -16.5 37.5t-32.5 15t-16 10.5v10h339q0 -12 -12 -17t-26.5 -7t-30 -19t-20.5 -49zM477 879l10 -3
q-19 -57 -53 -95t-76 -38q-22 0 -73 14.5t-74 14.5q-55 0 -82 -41l-11 4q17 50 49 91t77 41q18 0 74.5 -16.5t80.5 -16.5q26 0 43.5 9t34.5 36z" />
    <glyph glyph-name="itilde" unicode="&#x129;" horiz-adv-x="343" 
d="M391 674l10 -3q-19 -57 -53 -95t-76 -38q-22 0 -73 14.5t-74 14.5q-55 0 -82 -41l-11 4q17 50 49 91t77 41q18 0 74.5 -16.5t80.5 -16.5q26 0 43.5 9t34.5 36zM190 456q90 0 90 -89q0 -13 -7 -48q-12 -66 -33 -172t-23 -116q45 29 96 83l10 -10q-100 -118 -174 -118
q-86 0 -86 89q0 10 7 50l56 286q-34 -23 -97 -88q-5 6 -11 11q105 122 172 122z" />
    <glyph glyph-name="Imacron" unicode="&#x12a;" horiz-adv-x="403" 
d="M354 582l-82 -478q-3 -27 -3 -30q0 -21 11.5 -34t24.5 -16t24.5 -6.5t11.5 -9.5t-1 -8h-346q0 11 12 16t27 7t30.5 20t21.5 52q26 158 80 476q4 28 4 30q0 26 -16.5 37.5t-32.5 15t-16 10.5v10h339q0 -12 -12 -17t-26.5 -7t-30 -19t-20.5 -49zM447 850l-19 -95
q-121 12 -296 0l13 76q85 14 302 19z" />
    <glyph glyph-name="imacron" unicode="&#x12b;" horiz-adv-x="343" 
d="M361 642l-18 -94q-119 11 -294 0l14 75q84 14 298 19zM190 456q90 0 90 -89q0 -13 -7 -48q-12 -66 -33 -172t-23 -116q45 29 96 83l10 -10q-100 -118 -174 -118q-86 0 -86 89q0 10 7 50l56 286q-34 -23 -97 -88q-5 6 -11 11q105 122 172 122z" />
    <glyph glyph-name="Ibreve" unicode="&#x12c;" horiz-adv-x="412" 
d="M354 582l-82 -478q-3 -27 -3 -30q0 -21 11.5 -34t24.5 -16t24.5 -6.5t11.5 -9.5t-1 -8h-346q0 11 12 16t27 7t30.5 20t21.5 52q26 158 80 476q4 28 4 30q0 26 -16.5 37.5t-32.5 15t-16 10.5v10h339q0 -12 -12 -17t-26.5 -7t-30 -19t-20.5 -49zM288 730q-63 0 -95.5 47
t-29.5 125l13 4q30 -91 126 -91q93 0 157 92l11 -3q-29 -87 -76.5 -130.5t-105.5 -43.5z" />
    <glyph glyph-name="ibreve" unicode="&#x12d;" horiz-adv-x="343" 
d="M212 521q-66 0 -98.5 51.5t-26.5 136.5l14 4q35 -103 127 -103q88 0 159 100l13 -4q-30 -91 -80.5 -138t-107.5 -47zM190 456q90 0 90 -89q0 -13 -7 -48q-12 -66 -33 -172t-23 -116q45 29 96 83l10 -10q-100 -118 -174 -118q-86 0 -86 89q0 10 7 50l56 286
q-34 -23 -97 -88q-5 6 -11 11q105 122 172 122z" />
    <glyph glyph-name="Iogonek" unicode="&#x12e;" horiz-adv-x="403" 
d="M354 582l-82 -478q-3 -27 -3 -30q0 -21 11.5 -34t24.5 -16t24.5 -6.5t11.5 -9.5t-1 -8h-137q-55 -38 -81.5 -83.5t-26.5 -82.5q0 -67 82 -67q27 0 62 11l1 -12q-26 -18 -69.5 -31t-82.5 -13q-94 0 -94 69q0 16 7 36t24 49t57 62t96 62h-184q0 11 12 16t27 7t30.5 20
t21.5 52q26 158 80 476q4 28 4 30q0 26 -16.5 37.5t-32.5 15t-16 10.5v10h339q0 -12 -12 -17t-26.5 -7t-30 -19t-20.5 -49z" />
    <glyph glyph-name="iogonek" unicode="&#x12f;" horiz-adv-x="343" 
d="M322 105q-80 -96 -146 -112q-54 -38 -78 -81.5t-24 -78.5q0 -34 23 -50.5t59 -16.5q30 0 61 11l3 -12q-26 -17 -70 -30.5t-83 -13.5q-92 0 -92 69q0 22 10 48.5t49 69.5t104 80q-76 3 -76 81q0 19 8 61l54 278q-36 -23 -96 -87l-11 12q56 66 96 94t76 28q43 0 66.5 -24
t23.5 -63q0 -21 -5 -46l-56 -287q49 31 94 81q6 -8 10 -11zM142 596q0 46 31.5 80.5t74.5 34.5q36 0 57.5 -24t21.5 -59q0 -45 -32.5 -79t-74.5 -34q-33 0 -54.5 23.5t-23.5 57.5z" />
    <glyph glyph-name="Idotaccent" unicode="&#x130;" horiz-adv-x="403" 
d="M354 582l-82 -478q-3 -27 -3 -30q0 -21 11.5 -34t24.5 -16t24.5 -6.5t11.5 -9.5t-1 -8h-346q0 11 12 16t27 7t30.5 20t21.5 52q26 158 80 476q4 28 4 30q0 26 -16.5 37.5t-32.5 15t-16 10.5v10h339q0 -12 -12 -17t-26.5 -7t-30 -19t-20.5 -49zM314 908q30 0 48.5 -20.5
t18.5 -50.5q0 -43 -30 -74.5t-70 -31.5q-29 0 -48 20.5t-19 50.5q0 42 30.5 74t69.5 32z" />
    <glyph glyph-name="dotlessi" unicode="&#x131;" horiz-adv-x="343" 
d="M190 456q90 0 90 -89q0 -13 -7 -48q-12 -66 -33 -172t-23 -116q45 29 96 83l10 -10q-100 -118 -174 -118q-86 0 -86 89q0 10 7 50l56 286q-34 -23 -97 -88q-5 6 -11 11q105 122 172 122z" />
    <glyph glyph-name="IJ" unicode="&#x132;" horiz-adv-x="832" 
d="M354 582l-82 -478q-3 -27 -3 -30q0 -21 11.5 -34t24.5 -16t24.5 -6.5t11.5 -9.5t-1 -8h-346q0 11 12 16t27 7t30.5 20t21.5 52q26 158 80 476q4 28 4 30q0 26 -16.5 37.5t-32.5 15t-16 10.5v10h339q0 -12 -12 -17t-26.5 -7t-30 -19t-20.5 -49zM477 307l4 20h101
q27 95 79.5 163t150.5 127l-3 5q-119 -76 -217 -76q-56 0 -120 26q-4 -10 -27 -98l-13 2q5 32 9 53t15 58t23.5 59.5t33.5 40.5t47 18q45 0 119.5 -33.5t108.5 -33.5q44 0 94 41l9 -10q-57 -42 -77 -103t-48 -239h93l-3 -20h-94q-32 -199 -81.5 -302t-133.5 -159
q-96 -65 -175 -65q-47 0 -79 25t-32 68q0 35 24.5 57.5t56.5 22.5q48 0 76 -35t28 -84q0 -16 -2 -23q22 12 37 48.5t32 126.5q49 264 63 320h-99z" />
    <glyph glyph-name="ij" unicode="&#x133;" horiz-adv-x="617" 
d="M492 455q42 0 64.5 -23.5t22.5 -64.5q0 -24 -5 -52q-15 -84 -22.5 -122.5t-23 -99t-36 -103t-49.5 -79.5q-48 -62 -99 -99.5t-119 -37.5q-40 0 -64.5 19.5t-24.5 49.5q0 29 19 48t48 19t51.5 -22t22.5 -73q0 -3 -0.5 -8t-0.5 -8q36 12 53 105l96 504q-36 -23 -96 -87
l-11 12q59 67 98 94.5t76 27.5zM190 456q90 0 90 -89q0 -13 -7 -48l-56 -288q45 29 96 83l10 -10q-100 -118 -174 -118q-86 0 -86 89q0 10 7 50l56 286q-34 -23 -97 -88q-5 6 -11 11q105 122 172 122zM546 711q36 0 57.5 -24t21.5 -59q0 -44 -32 -77t-74 -33q-33 0 -54.5 23
t-23.5 57q0 44 31 78.5t74 34.5zM249 712q35 0 56.5 -23.5t21.5 -58.5q0 -44 -32.5 -77t-75.5 -33q-32 0 -54 22t-22 55q0 45 31.5 80t74.5 35z" />
    <glyph glyph-name="Jcircumflex" unicode="&#x134;" horiz-adv-x="451" 
d="M95 308l4 20h101q27 95 79.5 163t150.5 127l-3 5q-119 -76 -217 -76q-56 0 -120 26q-4 -10 -27 -98l-13 2q5 32 9 53t15 58t23.5 59.5t33.5 40.5t47 18q45 0 119.5 -33.5t108.5 -33.5q44 0 94 41l9 -10q-57 -42 -77 -103t-48 -239h93l-3 -20h-94q-32 -199 -81.5 -302
t-133.5 -159q-96 -65 -175 -65q-47 0 -79 25t-32 68q0 35 24.5 57.5t56.5 22.5q48 0 76 -35t28 -84q0 -16 -2 -23q22 12 37 48.5t32 126.5q49 264 63 320h-99zM509 730l-142 83l-177 -81q-1 1 -3.5 5.5t-3.5 7.5l183 169q15 13 21 13q9 0 18 -12q90 -133 115 -172z" />
    <glyph glyph-name="jcircumflex" unicode="&#x135;" horiz-adv-x="306" 
d="M272 324l-6 -33q-3 -16 -13 -71.5t-14.5 -77.5t-13 -59.5t-17.5 -65.5q-31 -99 -105 -170.5t-180 -71.5q-41 0 -65.5 19.5t-24.5 48.5q0 30 19 49t48 19t52 -22.5t23 -72.5q0 -2 -0.5 -8t-0.5 -9q20 4 31 29.5t21 76.5l96 503q-36 -23 -96 -87l-11 12q59 67 98 94.5
t76 27.5q42 0 64.5 -23.5t22.5 -64.5q0 -18 -4 -43zM356 517l-139 89l-175 -89l-7 12l179 177q16 14 24 14q10 0 19 -14l110 -177z" />
    <glyph glyph-name="Kcommaaccent" unicode="&#x136;" horiz-adv-x="736" 
d="M331 321h-31l-38 -217q-3 -24 -3 -30q0 -28 17 -40.5t34 -15.5t17 -10q0 -2 -1 -5v-3h-340q-1 11 10.5 16.5t26.5 10t32.5 31.5t25.5 76l75 438q3 21 3 29q0 27 -16 38t-32 14.5t-16 10.5t1 9h338q0 -11 -12 -16.5t-27 -8t-30.5 -19t-20.5 -47.5q-28 -162 -41 -242h36
q19 19 60 58t70.5 68t61.5 62t49.5 56.5t17.5 34.5q0 12 -11 19.5t-25 9.5t-25 6t-11 11v9h249q0 -14 -12.5 -20t-35 -9.5t-66 -30t-91.5 -73.5l-95 -93l137 -324q16 -36 26 -52q12 -19 27 -31t25.5 -15.5t17.5 -7.5t7 -10t-1 -8h-324v7q1 7 14 10.5t25.5 10.5t12.5 23
q0 13 -7 31q-85 194 -104 239zM341 -38q26 0 40.5 -18t14.5 -45q0 -47 -41.5 -114t-96.5 -108l-9 12q79 70 102 147q-17 -12 -38 -12q-22 0 -35.5 15t-13.5 37q0 32 22 59t55 27z" />
    <glyph glyph-name="kcommaaccent" unicode="&#x137;" horiz-adv-x="559" 
d="M210 218h3q42 118 101.5 178t125.5 60q40 0 62.5 -23.5t22.5 -56.5q0 -43 -42 -82t-103 -59q23 -108 76 -196q18 13 83 75l10 -10q-30 -36 -53 -58t-59.5 -41t-74.5 -19q-55 0 -82 52.5t-36 147.5q74 27 115.5 65.5t41.5 77.5q0 19 -10 30t-25 11q-49 0 -96.5 -73.5
t-72.5 -202.5l-18 -94h-165l113 594q0 1 5 39q0 25 -15 35t-30 12t-15 8t1 10l241 34l3 -4l-54 -288q-21 -116 -53 -222zM231 -38q26 0 40.5 -18t14.5 -45q0 -47 -41.5 -114t-96.5 -108l-9 12q79 70 102 147q-17 -12 -38 -12q-22 0 -35.5 15t-13.5 37q0 32 22 59t55 27z" />
    <glyph glyph-name="kgreenlandic" unicode="&#x138;" horiz-adv-x="604" 
d="M188 455q84 0 84 -95q0 -57 -33 -182h4q29 95 82 161.5t102.5 93t91.5 26.5q35 0 56 -20.5t21 -49.5q0 -25 -17 -43t-44 -18q-73 0 -73 100q-50 -20 -90 -63q77 -239 123 -327q40 27 83 76l11 -10q-44 -53 -87.5 -84.5t-98.5 -31.5q-48 0 -81 66.5t-49 164.5
q-28 -67 -42 -134l-18 -85h-165l76 407q-40 -28 -96 -86l-11 11q103 123 171 123z" />
    <glyph glyph-name="Lacute" unicode="&#x139;" horiz-adv-x="608" 
d="M308 0h-322q0 12 11.5 17.5t26.5 7t30 18.5t21 50l84 485q2 14 2 22q0 26 -16 37.5t-32 15t-16 10.5q0 2 0.5 5.5t0.5 4.5h339q-1 -13 -13 -18t-27 -6.5t-30.5 -18t-20.5 -48.5q-14 -82 -42.5 -245t-42.5 -244q-4 -22 -4 -31q0 -43 56 -43h23q75 0 129 51t129 185
q11 19 20 19q1 0 3.5 -0.5t3.5 -0.5q-80 -248 -97 -296q-1 0 -1.5 -0.5t-1.5 -0.5q-59 24 -213 24zM170 731q0 3 -0.5 7t-0.5 6q41 20 72.5 46t47.5 47t30 40t28 29.5t33 10.5q23 0 35 -14.5t12 -34.5q0 -5 -3 -15t-18 -31t-40.5 -38.5t-76.5 -33t-119 -19.5z" />
    <glyph glyph-name="lacute" unicode="&#x13a;" horiz-adv-x="312" 
d="M324 728q-19 -103 -41 -218.5t-49 -256.5t-42 -218q51 33 95 81l10 -11q-97 -117 -180 -117q-80 0 -80 72q0 20 7 53l86 461q9 54 9 60q0 24 -15 34t-30.5 12t-15.5 8t1 10l242 34zM111 765q0 3 -0.5 7t-0.5 6q41 20 72.5 46t47.5 47t30 40t28 29.5t33 10.5
q23 0 35 -14.5t12 -34.5q0 -5 -3 -15t-18 -31t-40.5 -38.5t-76.5 -33t-119 -19.5z" />
    <glyph glyph-name="Lcommaaccent" unicode="&#x13b;" horiz-adv-x="608" 
d="M308 0h-322q0 12 11.5 17.5t26.5 7t30 18.5t21 50l84 485q2 14 2 22q0 26 -16 37.5t-32 15t-16 10.5q0 2 0.5 5.5t0.5 4.5h339q-1 -13 -13 -18t-27 -6.5t-30.5 -18t-20.5 -48.5q-14 -82 -42.5 -245t-42.5 -244q-4 -22 -4 -31q0 -43 56 -43h23q75 0 129 51t129 185
q11 19 20 19q1 0 3.5 -0.5t3.5 -0.5q-80 -248 -97 -296q-1 0 -1.5 -0.5t-1.5 -0.5q-59 24 -213 24zM275 -38q26 0 40.5 -18t14.5 -45q0 -47 -41.5 -114t-96.5 -108l-9 12q79 70 102 147q-17 -12 -38 -12q-22 0 -35.5 15t-13.5 37q0 32 22 59t55 27z" />
    <glyph glyph-name="lcommaaccent" unicode="&#x13c;" horiz-adv-x="312" 
d="M324 728q-19 -103 -41 -218.5t-49 -256.5t-42 -218q51 33 95 81l10 -11q-97 -117 -180 -117q-80 0 -80 72q0 20 7 53l86 461q9 54 9 60q0 24 -15 34t-30.5 12t-15.5 8t1 10l242 34zM93 -38q26 0 40.5 -18t14.5 -45q0 -47 -41.5 -114t-96.5 -108l-9 12q79 70 102 147
q-17 -12 -38 -12q-22 0 -35.5 15t-13.5 37q0 32 22 59t55 27z" />
    <glyph glyph-name="Lcaron" unicode="&#x13d;" horiz-adv-x="608" 
d="M308 0h-322q0 12 11.5 17.5t26.5 7t30 18.5t21 50l84 485q2 14 2 22q0 26 -16 37.5t-32 15t-16 10.5q0 2 0.5 5.5t0.5 4.5h339q-1 -13 -13 -18t-27 -6.5t-30.5 -18t-20.5 -48.5q-14 -82 -42.5 -245t-42.5 -244q-4 -22 -4 -31q0 -43 56 -43h23q75 0 129 51t129 185
q11 19 20 19q1 0 3.5 -0.5t3.5 -0.5q-80 -248 -97 -296q-1 0 -1.5 -0.5t-1.5 -0.5q-59 24 -213 24zM551 695q26 0 40.5 -18t14.5 -45q0 -47 -41.5 -114t-96.5 -108l-9 12q79 70 102 147q-17 -12 -38 -12q-22 0 -35.5 15t-13.5 37q0 32 22 59t55 27z" />
    <glyph glyph-name="lcaron" unicode="&#x13e;" horiz-adv-x="353" 
d="M327 728q-19 -103 -41 -218.5t-49 -256.5t-42 -218q51 33 95 81l10 -11q-98 -117 -180 -117q-80 0 -80 72q0 20 7 53l86 461q9 54 9 60q0 24 -15 34t-30.5 12t-15.5 8t1 10l242 34zM437 745q26 0 40.5 -18t14.5 -45q0 -47 -41.5 -114t-96.5 -108l-9 12q79 70 102 147
q-17 -12 -38 -12q-22 0 -35.5 15t-13.5 37q0 32 22 59t55 27z" />
    <glyph glyph-name="Ldot" unicode="&#x13f;" horiz-adv-x="608" 
d="M308 0h-322q0 12 11.5 17.5t26.5 7t30 18.5t21 50l84 485q2 14 2 22q0 26 -16 37.5t-32 15t-16 10.5q0 2 0.5 5.5t0.5 4.5h339q-1 -13 -13 -18t-27 -6.5t-30.5 -18t-20.5 -48.5q-14 -82 -42.5 -245t-42.5 -244q-4 -22 -4 -31q0 -43 56 -43h23q75 0 129 51t129 185
q11 19 20 19q1 0 3.5 -0.5t3.5 -0.5q-80 -248 -97 -296q-1 0 -1.5 -0.5t-1.5 -0.5q-59 24 -213 24zM489 435q30 0 48.5 -20.5t18.5 -50.5q0 -43 -30 -74.5t-70 -31.5q-29 0 -48 20.5t-19 50.5q0 42 30.5 74t69.5 32z" />
    <glyph glyph-name="ldot" unicode="&#x140;" horiz-adv-x="459" 
d="M327 728q-19 -103 -41 -218.5t-49 -256.5t-42 -218q51 33 95 81l10 -11q-98 -117 -180 -117q-80 0 -80 72q0 20 7 53l86 461q9 54 9 60q0 24 -15 34t-30.5 12t-15.5 8t1 10l242 34zM409 445q30 0 48.5 -20.5t18.5 -50.5q0 -43 -30 -74.5t-70 -31.5q-29 0 -48 20.5
t-19 50.5q0 42 30.5 74t69.5 32z" />
    <glyph glyph-name="Lslash" unicode="&#x141;" horiz-adv-x="608" 
d="M314 19h19q79 0 132 49.5t131 191.5q9 14 18 14q1 0 3 -0.5t4 -0.5l-96 -297q-83 24 -199 24h-340q0 11 12 16t27 9t32 30t25 74l21 124l-89 -47l-6 15l98 52l53 305q2 14 2 22q0 26 -16 37.5t-32 15t-16 10.5q0 2 0.5 5.5t0.5 4.5h339q0 -13 -12 -18t-27 -6.5t-31 -18
t-21 -48.5q-26 -147 -35 -203q19 10 54.5 28.5t46.5 24.5q3 -5 7 -15q-15 -8 -53 -28t-58 -31l-46 -268q-3 -14 -3 -29q0 -42 55 -42z" />
    <glyph glyph-name="lslash" unicode="&#x142;" horiz-adv-x="312" 
d="M324 727q-50 -262 -68 -359l75 39l6 -16q-29 -14 -85 -44q-9 -51 -60 -312q51 33 95 81l10 -11q-99 -118 -179 -118q-42 0 -61.5 21t-19.5 68q2 24 7.5 54.5t13 67t10.5 56.5q-48 -26 -72 -38q0 2 -5 16q54 28 81 43l65 340q2 12 2 18q0 25 -15 35t-30.5 12t-15.5 8t1 10
l241 34z" />
    <glyph glyph-name="Nacute" unicode="&#x143;" horiz-adv-x="721" 
d="M374 674q31 -62 104.5 -205t111.5 -220l2 1q1 0 1 1l45 267q5 30 5 49q0 33 -14 53t-30.5 24t-30.5 8t-14 11q0 8 1 10h233q0 -11 -8 -16.5t-20 -6.5t-27.5 -8.5t-30 -19.5t-27.5 -42t-21 -74l-88 -514l-71 -4q-50 98 -301 595h-3l-69 -419q-1 -5 -3 -18.5t-3.5 -24.5
t-1.5 -16q0 -33 14 -53t31.5 -24t31.5 -8t14 -11q0 -2 -0.5 -5t-0.5 -4h-233v7q1 7 12.5 10.5t28 8.5t33.5 15.5t33 38t23 70.5l71 422q3 18 3 26q0 28 -17.5 39.5t-35 15.5t-17.5 12v9h269zM345 731q0 3 -0.5 7t-0.5 6q41 20 72.5 46t47.5 47t30 40t28 29.5t33 10.5
q23 0 35 -14.5t12 -34.5q0 -5 -3 -15t-18 -31t-40.5 -38.5t-76.5 -33t-119 -19.5z" />
    <glyph glyph-name="nacute" unicode="&#x144;" horiz-adv-x="616" 
d="M187 455q41 0 63.5 -20.5t22.5 -54.5q0 -48 -38 -183q1 0 2 -0.5t2 -0.5q46 136 106 197.5t111 61.5q98 0 98 -99q0 -20 -6 -56l-53 -266q51 32 94 81l10 -11q-101 -118 -175 -118q-85 0 -85 81q0 13 8 57l38 173q8 36 8 52q0 30 -22 30q-32 0 -78 -95.5t-70 -216.5
l-13 -67h-163l76 408q-35 -23 -97 -87l-11 12q103 122 172 122zM251 510l-5 13q42 28 72.5 66t43.5 65.5t31.5 47t42.5 19.5t37 -14t12 -33q-1 -12 -9.5 -29t-31 -42t-73 -50.5t-120.5 -42.5z" />
    <glyph glyph-name="Ncommaaccent" unicode="&#x145;" horiz-adv-x="721" 
d="M374 674q31 -62 104.5 -205t111.5 -220l2 1q1 0 1 1l45 267q5 30 5 49q0 33 -14 53t-30.5 24t-30.5 8t-14 11q0 8 1 10h233q0 -11 -8 -16.5t-20 -6.5t-27.5 -8.5t-30 -19.5t-27.5 -42t-21 -74l-88 -514l-71 -4q-50 98 -301 595h-3l-69 -419q-1 -5 -3 -18.5t-3.5 -24.5
t-1.5 -16q0 -33 14 -53t31.5 -24t31.5 -8t14 -11q0 -2 -0.5 -5t-0.5 -4h-233v7q1 7 12.5 10.5t28 8.5t33.5 15.5t33 38t23 70.5l71 422q3 18 3 26q0 28 -17.5 39.5t-35 15.5t-17.5 12v9h269zM307 -18q26 0 40.5 -18t14.5 -45q0 -47 -41.5 -114t-96.5 -108l-9 12
q79 70 102 147q-17 -12 -38 -12q-22 0 -35.5 15t-13.5 37q0 32 22 59t55 27z" />
    <glyph glyph-name="ncommaaccent" unicode="&#x146;" horiz-adv-x="616" 
d="M187 455q41 0 63.5 -20.5t22.5 -54.5q0 -48 -38 -183q1 0 2 -0.5t2 -0.5q46 136 106 197.5t111 61.5q98 0 98 -99q0 -20 -6 -56l-53 -266q51 32 94 81l10 -11q-101 -118 -175 -118q-85 0 -85 81q0 13 8 57l38 173q8 36 8 52q0 30 -22 30q-32 0 -78 -95.5t-70 -216.5
l-13 -67h-163l76 408q-35 -23 -97 -87l-11 12q103 122 172 122zM279 -38q26 0 40.5 -18t14.5 -45q0 -47 -41.5 -114t-96.5 -108l-9 12q79 70 102 147q-17 -12 -38 -12q-22 0 -35.5 15t-13.5 37q0 32 22 59t55 27z" />
    <glyph glyph-name="Ncaron" unicode="&#x147;" horiz-adv-x="721" 
d="M374 674q31 -62 104.5 -205t111.5 -220l2 1q1 0 1 1l45 267q5 30 5 49q0 33 -14 53t-30.5 24t-30.5 8t-14 11q0 8 1 10h233q0 -11 -8 -16.5t-20 -6.5t-27.5 -8.5t-30 -19.5t-27.5 -42t-21 -74l-88 -514l-71 -4q-50 98 -301 595h-3l-69 -419q-1 -5 -3 -18.5t-3.5 -24.5
t-1.5 -16q0 -33 14 -53t31.5 -24t31.5 -8t14 -11q0 -2 -0.5 -5t-0.5 -4h-233v7q1 7 12.5 10.5t28 8.5t33.5 15.5t33 38t23 70.5l71 422q3 18 3 26q0 28 -17.5 39.5t-35 15.5t-17.5 12v9h269zM468 837l172 85l8 -11l-179 -175q-14 -11 -21 -11q-10 0 -17 12l-122 172l13 13z
" />
    <glyph glyph-name="ncaron" unicode="&#x148;" horiz-adv-x="616" 
d="M187 455q41 0 63.5 -20.5t22.5 -54.5q0 -48 -38 -183q1 0 2 -0.5t2 -0.5q46 136 106 197.5t111 61.5q98 0 98 -99q0 -20 -6 -56l-53 -266q51 32 94 81l10 -11q-101 -118 -175 -118q-85 0 -85 81q0 13 8 57l38 173q8 36 8 52q0 30 -22 30q-32 0 -78 -95.5t-70 -216.5
l-13 -67h-163l76 408q-35 -23 -97 -87l-11 12q103 122 172 122zM344 623l169 93l7 -12l-170 -178q-15 -15 -24 -15t-19 15l-120 178l13 13z" />
    <glyph glyph-name="napostrophe" unicode="&#x149;" horiz-adv-x="638" 
d="M208 455q41 0 63.5 -20.5t22.5 -54.5q0 -48 -38 -183l2 -1h2q46 136 106 197.5t111 61.5q98 0 98 -99q0 -20 -6 -56l-53 -266q51 32 94 81l10 -11q-101 -118 -175 -118q-85 0 -85 81q0 13 8 57l38 173q8 36 8 52q0 30 -22 30q-32 0 -78 -95.5t-70 -216.5l-13 -67h-163
l76 408q-35 -23 -97 -87l-11 12q103 122 172 122zM123 729q26 0 40.5 -18t14.5 -45q0 -47 -41.5 -114t-96.5 -108l-9 12q79 70 102 147q-17 -12 -38 -12q-22 0 -35.5 15t-13.5 37q0 32 22 59t55 27z" />
    <glyph glyph-name="Eng" unicode="&#x14a;" horiz-adv-x="721" 
d="M374 674q35 -70 110 -198.5t111 -200.5l2 1q1 0 1 1l40 241q5 30 5 49q0 33 -14 53t-30.5 24t-30.5 8t-14 11q0 8 1 10h233q0 -11 -8 -16.5t-20 -6.5t-27.5 -8.5t-30 -19.5t-27.5 -42t-21 -74l-79 -461l-4 -25q-21 -119 -47 -172q-59 -120 -189 -120q-29 0 -62.5 21
t-33.5 61q0 33 23 56.5t59 23.5q43 0 67 -37.5t24 -92.5q92 31 127 200l-345 623h-3l-69 -419q-1 -5 -3 -18.5t-3.5 -24.5t-1.5 -16q0 -33 14 -53t31.5 -24t31.5 -8t14 -11q0 -2 -0.5 -5t-0.5 -4h-233v7q1 7 12.5 10.5t28 8.5t33.5 15.5t33 38t23 70.5l71 422q3 18 3 26
q0 28 -17.5 39.5t-35 15.5t-17.5 12v9h269z" />
    <glyph glyph-name="eng" unicode="&#x14b;" horiz-adv-x="589" 
d="M304 -105l79 383q10 47 10 70q0 30 -21 30q-29 0 -78 -92t-69 -204l-15 -82h-164l77 407q-37 -24 -97 -86l-5.5 5.5l-5.5 5.5q100 122 174 122q40 0 62 -20t22 -54q0 -47 -38 -184h4q45 135 106 196.5t112 61.5q97 0 97 -104q0 -17 -6 -51q-7 -40 -22 -119.5t-22 -118.5
q-26 -143 -146 -227q-80 -58 -168 -58q-35 0 -62.5 22t-27.5 51q0 30 19 48.5t49 18.5q31 0 53.5 -27t22.5 -81v-9q43 10 60 96z" />
    <glyph glyph-name="Omacron" unicode="&#x14c;" horiz-adv-x="732" 
d="M442 688q142 0 210.5 -77t68.5 -196q0 -77 -27 -152t-75.5 -137.5t-126 -101t-169.5 -38.5q-137 0 -205.5 76t-68.5 197q0 113 47.5 210t139 158t206.5 61zM440 670q-43 0 -81.5 -61.5t-62 -149t-37 -174t-13.5 -145.5q0 -137 84 -137q43 0 81.5 59.5t62 145t37 174
t13.5 154.5q0 134 -84 134zM628 850l-19 -95q-121 12 -296 0l13 76q85 14 302 19z" />
    <glyph glyph-name="omacron" unicode="&#x14d;" horiz-adv-x="568" 
d="M326 455q111 0 161.5 -52t50.5 -135q0 -113 -83.5 -197.5t-223.5 -84.5q-106 0 -154 50.5t-48 132.5q0 120 82.5 203t214.5 83zM324 437q-36 0 -67 -61.5t-46 -140t-15 -144.5q0 -89 45 -89q32 0 59 40t42.5 97t24 112t8.5 94q0 92 -51 92zM511 642l-18 -94
q-119 11 -294 0l14 75q84 14 298 19z" />
    <glyph glyph-name="Obreve" unicode="&#x14e;" horiz-adv-x="732" 
d="M442 688q142 0 210.5 -77t68.5 -196q0 -77 -27 -152t-75.5 -137.5t-126 -101t-169.5 -38.5q-137 0 -205.5 76t-68.5 197q0 113 47.5 210t139 158t206.5 61zM440 670q-43 0 -81.5 -61.5t-62 -149t-37 -174t-13.5 -145.5q0 -137 84 -137q43 0 81.5 59.5t62 145t37 174
t13.5 154.5q0 134 -84 134zM470 730q-63 0 -95.5 47t-29.5 125l13 4q30 -91 126 -91q93 0 157 92l11 -3q-29 -87 -76.5 -130.5t-105.5 -43.5z" />
    <glyph glyph-name="obreve" unicode="&#x14f;" horiz-adv-x="568" 
d="M326 455q111 0 161.5 -52t50.5 -135q0 -113 -83.5 -197.5t-223.5 -84.5q-106 0 -154 50.5t-48 132.5q0 120 82.5 203t214.5 83zM324 437q-36 0 -67 -61.5t-46 -140t-15 -144.5q0 -89 45 -89q32 0 59 40t42.5 97t24 112t8.5 94q0 92 -51 92zM349 515q-66 0 -98.5 51.5
t-26.5 136.5l14 4q35 -103 127 -103q88 0 159 100l13 -4q-30 -91 -80.5 -138t-107.5 -47z" />
    <glyph glyph-name="Ohungarumlaut" unicode="&#x150;" horiz-adv-x="732" 
d="M442 688q142 0 210.5 -77t68.5 -196q0 -77 -27 -152t-75.5 -137.5t-126 -101t-169.5 -38.5q-137 0 -205.5 76t-68.5 197q0 113 47.5 210t139 158t206.5 61zM440 670q-43 0 -81.5 -61.5t-62 -149t-37 -174t-13.5 -145.5q0 -137 84 -137q43 0 81.5 59.5t62 145t37 174
t13.5 154.5q0 134 -84 134zM298 727q-2 10 -2 14q49 24 84.5 57t50.5 57t34.5 41.5t43.5 17.5q23 0 34.5 -12.5t11.5 -31.5q0 -16 -20 -44q-62 -85 -237 -99zM478 730q-1 5 -1 14q41 20 72 46t47.5 47.5t30.5 40.5t28 30t33 11q23 0 35 -14t12 -33q0 1 -0.5 -1t-3 -9.5
t-6.5 -16t-13.5 -20.5t-21.5 -23.5t-32 -23t-44.5 -21t-59.5 -17t-76 -10.5z" />
    <glyph glyph-name="ohungarumlaut" unicode="&#x151;" horiz-adv-x="568" 
d="M326 455q111 0 161.5 -52t50.5 -135q0 -113 -83.5 -197.5t-223.5 -84.5q-106 0 -154 50.5t-48 132.5q0 120 82.5 203t214.5 83zM324 437q-36 0 -67 -61.5t-46 -140t-15 -144.5q0 -89 45 -89q32 0 59 40t42.5 97t24 112t8.5 94q0 92 -51 92zM187 520q0 2 -0.5 7t-0.5 8
q49 27 85 62t50.5 59.5t33 42t40.5 17.5q23 0 34 -12.5t11 -31.5q0 -4 -3 -14t-18.5 -31.5t-40 -41t-75 -38.5t-116.5 -27zM361 518q-2 10 -2 15q50 28 85.5 63t50 59.5t33 42t41.5 17.5q22 0 33 -13t11 -31l-1 -3q0 -4 -3 -12t-7.5 -17t-14 -21t-22 -23.5t-32 -23.5
t-43.5 -22t-57 -18t-72 -13z" />
    <glyph glyph-name="OE" unicode="&#x152;" horiz-adv-x="984" 
d="M434 0q-68 -13 -110 -13q-138 0 -207 75.5t-69 196.5q0 114 48 211t139.5 157.5t208.5 60.5q44 0 120 -14h178q150 0 231 32q2 0 4 -2l-18 -257q-2 -1 -6 -1q-9 0 -14 25q-14 60 -25 91t-31.5 54.5t-50 30.5t-80.5 7h-45l-49 -292h52q36 0 61 20.5t35 45t19 45t17 20.5h5
l-49 -290h-6q-8 0 -10 22t-3 48t-19 48t-54 22h-52q-25 -156 -39 -234q0 -2 -2 -13.5t-3.5 -21t-1.5 -12.5q0 -44 55 -44h29q73 0 130.5 53t132.5 184q10 18 20 20q2 0 8 -2q-15 -44 -47 -141t-52 -155q-64 23 -219 23h-231zM428 98q24 144 74 432q9 54 9 74q0 31 -17 47.5
t-46 16.5q-52 0 -99 -81t-72.5 -197.5t-25.5 -226.5q0 -161 81 -161q36 0 62.5 26t33.5 70z" />
    <glyph glyph-name="oe" unicode="&#x153;" horiz-adv-x="830" 
d="M769 104l8 -11q-93 -106 -225 -106q-96 0 -138 66q-73 -67 -184 -67q-106 0 -153.5 50t-47.5 132q0 120 82.5 203t213.5 83q101 0 155 -74q75 73 176 73q154 0 154 -106q0 -49 -41 -85.5t-101.5 -55.5t-135.5 -25q0 -146 94 -146q70 0 143 69zM323 436q-36 0 -67 -61
t-46 -139.5t-15 -145.5q0 -89 46 -89q42 0 74.5 66.5t46 142t13.5 132.5q0 94 -52 94zM645 435q-39 0 -70 -68t-41 -163q70 11 108 65t38 119q0 47 -35 47z" />
    <glyph glyph-name="Racute" unicode="&#x154;" horiz-adv-x="707" 
d="M355 654l-54 -315h25q66 0 110 58t44 144q0 53 -27 83t-75 30h-23zM299 321q-13 -71 -37 -213q-4 -24 -4 -34q0 -29 18.5 -41t37 -15t18.5 -10q0 -2 -0.5 -4.5t-0.5 -3.5h-345v7q1 7 13 11t26 7.5t29 21t20 48.5l83 486q2 14 2 20q0 26 -15.5 37.5t-31.5 14.5t-16 10
q0 6 1 10h377q91 0 147 -37t56 -113q0 -97 -82 -151.5t-209 -54.5q-8 0 -23.5 0.5t-22.5 0.5q16 -29 61.5 -43t95.5 -14q23 0 41 3l76 -187q12 -30 31.5 -43.5t32.5 -17t13 -9.5v-7h-240l-132 321h-20zM299 731q0 3 -0.5 7t-0.5 6q41 20 72.5 46t47.5 47t30 40t28 29.5
t33 10.5q23 0 35 -14.5t12 -34.5q0 -5 -3 -15t-18 -31t-40.5 -38.5t-76.5 -33t-119 -19.5z" />
    <glyph glyph-name="racute" unicode="&#x155;" horiz-adv-x="483" 
d="M187 456q42 0 64 -20.5t22 -55.5q0 -37 -38 -181l3 -1q45 138 96 197t99 59q36 0 59.5 -19t23.5 -50q0 -30 -19 -47.5t-47 -17.5q-35 0 -56.5 24t-20.5 65q-39 -28 -83.5 -124.5t-68.5 -225.5l-11 -59h-164l77 407q-36 -23 -97 -86l-10 12q103 123 171 123zM179 510
l-5 13q42 28 72.5 66t43.5 65.5t31.5 47t42.5 19.5t37 -14t12 -33q-1 -12 -9.5 -29t-31 -42t-73 -50.5t-120.5 -42.5z" />
    <glyph glyph-name="Rcommaaccent" unicode="&#x156;" horiz-adv-x="707" 
d="M355 654l-54 -315h25q66 0 110 58t44 144q0 53 -27 83t-75 30h-23zM299 321q-13 -71 -37 -213q-4 -24 -4 -34q0 -29 18.5 -41t37 -15t18.5 -10q0 -2 -0.5 -4.5t-0.5 -3.5h-345v7q1 7 13 11t26 7.5t29 21t20 48.5l83 486q2 14 2 20q0 26 -15.5 37.5t-31.5 14.5t-16 10
q0 6 1 10h377q91 0 147 -37t56 -113q0 -97 -82 -151.5t-209 -54.5q-8 0 -23.5 0.5t-22.5 0.5q16 -29 61.5 -43t95.5 -14q23 0 41 3l76 -187q12 -30 31.5 -43.5t32.5 -17t13 -9.5v-7h-240l-132 321h-20zM351 -32q26 0 40.5 -18t14.5 -45q0 -47 -41.5 -114t-96.5 -108l-9 12
q79 70 102 147q-17 -12 -38 -12q-22 0 -35.5 15t-13.5 37q0 32 22 59t55 27z" />
    <glyph glyph-name="rcommaaccent" unicode="&#x157;" horiz-adv-x="483" 
d="M187 456q42 0 64 -20.5t22 -55.5q0 -37 -38 -181l3 -1q45 138 96 197t99 59q36 0 59.5 -19t23.5 -50q0 -30 -19 -47.5t-47 -17.5q-35 0 -56.5 24t-20.5 65q-39 -28 -83.5 -124.5t-68.5 -225.5l-11 -59h-164l77 407q-36 -23 -97 -86l-10 12q103 123 171 123zM113 -38
q26 0 40.5 -18t14.5 -45q0 -47 -41.5 -114t-96.5 -108l-9 12q79 70 102 147q-17 -12 -38 -12q-22 0 -35.5 15t-13.5 37q0 32 22 59t55 27z" />
    <glyph glyph-name="Rcaron" unicode="&#x158;" horiz-adv-x="707" 
d="M299 321q-13 -71 -37 -213q-4 -24 -4 -34q0 -29 18.5 -41t37 -15t18.5 -10q0 -2 -0.5 -4.5t-0.5 -3.5h-345v7q1 7 13 11t26 7.5t29 21t20 48.5l83 486q2 14 2 20q0 26 -15.5 37.5t-31.5 14.5t-16 10q0 6 1 10h377q91 0 147 -37t56 -113q0 -97 -82 -151.5t-209 -54.5
q-8 0 -23.5 0.5t-22.5 0.5q16 -29 61.5 -43t95.5 -14q23 0 41 3l76 -187q12 -30 31.5 -43.5t32.5 -17t13 -9.5v-7h-240l-132 321h-20zM355 654l-54 -315h25q66 0 110 58t44 144q0 53 -27 83t-75 30h-23zM409 837l172 85l8 -11l-179 -175q-14 -11 -21 -11q-9 0 -17 12
l-122 172l13 13z" />
    <glyph glyph-name="rcaron" unicode="&#x159;" horiz-adv-x="483" 
d="M187 456q42 0 64 -20.5t22 -55.5q0 -37 -38 -181l3 -1q45 138 96 197t99 59q36 0 59.5 -19t23.5 -50q0 -30 -19 -47.5t-47 -17.5q-35 0 -56.5 24t-20.5 65q-39 -28 -83.5 -124.5t-68.5 -225.5l-11 -59h-164l77 407q-36 -23 -97 -86l-10 12q103 123 171 123zM262 623
l169 93l7 -12l-170 -178q-15 -15 -24 -15t-19 15l-120 178l13 13z" />
    <glyph glyph-name="Sacute" unicode="&#x15a;" horiz-adv-x="599" 
d="M231 -14q-109 0 -167.5 41t-58.5 97q0 43 23.5 65.5t56.5 22.5q36 0 58 -26t22 -61q0 -63 -34 -104q31 -15 79 -15q72 0 121.5 33.5t49.5 96.5q0 36 -29.5 69.5t-71.5 61.5t-84.5 57.5t-72 69.5t-29.5 85q0 71 45.5 120.5t106 69t126.5 19.5q116 0 170.5 -37.5
t54.5 -91.5q0 -35 -21 -56.5t-52 -21.5q-38 0 -58 23.5t-20 58.5q0 53 31 92q-28 11 -73 11q-54 0 -89.5 -29t-35.5 -70q0 -27 21.5 -54t54.5 -48t70.5 -48t70.5 -53t54.5 -64.5t21.5 -81.5q0 -107 -96.5 -169.5t-244.5 -62.5zM280 731q0 3 -0.5 7t-0.5 6q41 20 72.5 46
t47.5 47t30 40t28 29.5t33 10.5q23 0 35 -14.5t12 -34.5q0 -5 -3 -15t-18 -31t-40.5 -38.5t-76.5 -33t-119 -19.5z" />
    <glyph glyph-name="sacute" unicode="&#x15b;" horiz-adv-x="469" 
d="M286 455q79 0 121 -29t42 -71q0 -32 -18.5 -49t-40.5 -17q-30 0 -46 19.5t-16 48.5q0 42 24 72q-25 7 -47 7q-35 0 -60.5 -16t-25.5 -50q0 -22 21 -43t51.5 -39.5t61 -39.5t51.5 -50.5t21 -62.5q0 -73 -68 -111t-171 -38q-91 0 -132.5 30t-41.5 72q0 33 18.5 49.5
t39.5 16.5q29 0 45 -20t16 -48q0 -45 -24 -73q25 -10 64 -10t67 18t28 51q0 26 -31 53.5t-67.5 48.5t-67.5 54.5t-31 70.5q0 77 66 116.5t151 39.5zM182 510l-5 13q42 28 72.5 66t43.5 65.5t31.5 47t42.5 19.5t37 -14t12 -33q-1 -12 -9.5 -29t-31 -42t-73 -50.5
t-120.5 -42.5z" />
    <glyph glyph-name="Scircumflex" unicode="&#x15c;" horiz-adv-x="599" 
d="M231 -14q-109 0 -167.5 41t-58.5 97q0 43 23.5 65.5t56.5 22.5q36 0 58 -26t22 -61q0 -63 -34 -104q31 -15 79 -15q72 0 121.5 33.5t49.5 96.5q0 36 -29.5 69.5t-71.5 61.5t-84.5 57.5t-72 69.5t-29.5 85q0 71 45.5 120.5t106 69t126.5 19.5q116 0 170.5 -37.5
t54.5 -91.5q0 -35 -21 -56.5t-52 -21.5q-38 0 -58 23.5t-20 58.5q0 53 31 92q-28 11 -73 11q-54 0 -89.5 -29t-35.5 -70q0 -27 21.5 -54t54.5 -48t70.5 -48t70.5 -53t54.5 -64.5t21.5 -81.5q0 -107 -96.5 -169.5t-244.5 -62.5zM516 728l-142 83l-177 -81q-1 1 -3.5 5.5
t-3.5 7.5l183 169q15 13 21 13q9 0 18 -12q90 -133 115 -172z" />
    <glyph glyph-name="scircumflex" unicode="&#x15d;" horiz-adv-x="469" 
d="M286 455q79 0 121 -29t42 -71q0 -32 -18.5 -49t-40.5 -17q-30 0 -46 19.5t-16 48.5q0 42 24 72q-25 7 -47 7q-35 0 -60.5 -16t-25.5 -50q0 -22 21 -43t51.5 -39.5t61 -39.5t51.5 -50.5t21 -62.5q0 -73 -68 -111t-171 -38q-91 0 -132.5 30t-41.5 72q0 33 18.5 49.5
t39.5 16.5q29 0 45 -20t16 -48q0 -45 -24 -73q25 -10 64 -10t67 18t28 51q0 26 -31 53.5t-67.5 48.5t-67.5 54.5t-31 70.5q0 77 66 116.5t151 39.5zM419 517l-139 89l-175 -89l-7 12l179 177q16 14 24 14q10 0 19 -14l110 -177z" />
    <glyph glyph-name="Scedilla" unicode="&#x15e;" horiz-adv-x="602" 
d="M572 218q0 -105 -93.5 -167.5t-238.5 -64.5l-33 -55q78 -1 119.5 -25t41.5 -62q0 -47 -54.5 -82.5t-147.5 -35.5q-30 0 -51 2q0 7 3 16q61 0 100 23t39 61q0 51 -92 57l60 101q-106 1 -163 42t-57 96q0 43 23.5 65.5t56.5 22.5q36 0 58 -26t22 -61q0 -63 -34 -104
q31 -15 79 -15q72 0 121.5 33.5t49.5 96.5q0 36 -29.5 69.5t-71.5 61.5t-84.5 57.5t-72 69.5t-29.5 85q0 71 45.5 120.5t106 69t126.5 19.5q116 0 170.5 -37.5t54.5 -91.5q0 -35 -21 -56.5t-52 -21.5q-38 0 -58 23.5t-20 58.5q0 53 31 92q-28 11 -73 11q-54 0 -89.5 -29
t-35.5 -70q0 -27 21.5 -54t54.5 -48t70.5 -48t70.5 -53t54.5 -64.5t21.5 -81.5z" />
    <glyph glyph-name="scedilla" unicode="&#x15f;" horiz-adv-x="469" 
d="M286 455q79 0 121 -29t42 -71q0 -32 -18.5 -49t-40.5 -17q-30 0 -46 19.5t-16 48.5q0 42 24 72q-25 7 -47 7q-35 0 -60.5 -16t-25.5 -50q0 -22 21 -43t51.5 -39.5t61 -39.5t51.5 -50.5t21 -62.5q0 -71 -64.5 -109t-163.5 -40l-34 -57q78 -1 119.5 -25t41.5 -62
q0 -47 -54.5 -82.5t-147.5 -35.5q-30 0 -51 2q0 7 3 16q61 0 100 23t39 61q0 51 -92 57l61 103q-89 1 -129.5 30.5t-40.5 71.5q0 33 18.5 49.5t39.5 16.5q29 0 45 -20t16 -48q0 -45 -24 -73q25 -10 64 -10t67 18t28 51q0 26 -31 53.5t-67.5 48.5t-67.5 54.5t-31 70.5
q0 77 66 116.5t151 39.5z" />
    <glyph glyph-name="Scaron" unicode="&#x160;" horiz-adv-x="599" 
d="M231 -14q-109 0 -167.5 41t-58.5 97q0 43 23.5 65.5t56.5 22.5q36 0 58 -26t22 -61q0 -63 -34 -104q31 -15 79 -15q72 0 121.5 33.5t49.5 96.5q0 36 -29.5 69.5t-71.5 61.5t-84.5 57.5t-72 69.5t-29.5 85q0 71 45.5 120.5t106 69t126.5 19.5q116 0 170.5 -37.5
t54.5 -91.5q0 -35 -21 -56.5t-52 -21.5q-38 0 -58 23.5t-20 58.5q0 53 31 92q-28 11 -73 11q-54 0 -89.5 -29t-35.5 -70q0 -27 21.5 -54t54.5 -48t70.5 -48t70.5 -53t54.5 -64.5t21.5 -81.5q0 -107 -96.5 -169.5t-244.5 -62.5zM376 837l172 85l8 -11l-179 -175
q-14 -11 -21 -11q-10 0 -17 12l-122 172l13 13z" />
    <glyph glyph-name="scaron" unicode="&#x161;" horiz-adv-x="469" 
d="M286 455q79 0 121 -29t42 -71q0 -32 -18.5 -49t-40.5 -17q-30 0 -46 19.5t-16 48.5q0 42 24 72q-25 7 -47 7q-35 0 -60.5 -16t-25.5 -50q0 -22 21 -43t51.5 -39.5t61 -39.5t51.5 -50.5t21 -62.5q0 -73 -68 -111t-171 -38q-91 0 -132.5 30t-41.5 72q0 33 18.5 49.5
t39.5 16.5q29 0 45 -20t16 -48q0 -45 -24 -73q25 -10 64 -10t67 18t28 51q0 26 -31 53.5t-67.5 48.5t-67.5 54.5t-31 70.5q0 77 66 116.5t151 39.5zM300 623l169 93l7 -12l-170 -178q-15 -15 -24 -15t-19 15l-120 178l13 13z" />
    <glyph glyph-name="Tcommaaccent" unicode="&#x162;" horiz-adv-x="620" 
d="M193 95l94 559h-18q-109 0 -204 -195q-12 -23 -21 -23h-2q-3 1 -4 1l65 260l5 3q69 -26 206 -26h136q142 0 218 26l4 -3l-19 -262h-3q-7 0 -10.5 4t-5.5 18q-19 105 -52 151t-91 46h-19l-92 -550q-3 -27 -3 -30q0 -21 11.5 -34t24.5 -16t24.5 -6.5t11.5 -9.5t-1 -8h-173
l-34 -57q78 -1 119.5 -25t41.5 -62q0 -47 -54.5 -82.5t-147.5 -35.5q-30 0 -51 2q0 7 3 16q61 0 100 23t39 61q0 51 -92 57l61 103h-158q0 11 12 16t27 7t30.5 20t21.5 52z" />
    <glyph glyph-name="tcommaaccent" unicode="&#x163;" horiz-adv-x="328" 
d="M36 67q0 25 6 53l57 297h-58q0 6 2 18h60q61 10 109.5 60.5t72.5 117.5h14q-4 -26 -9.5 -55.5t-12.5 -65.5t-11 -56h105l-3 -19h-105q-57 -302 -71 -382q52 34 96 82l10 -11q-98 -118 -184 -118q-11 0 -15 1l-28 -47q78 -1 119.5 -25t41.5 -62q0 -47 -54.5 -82.5
t-147.5 -35.5q-30 0 -51 2q0 7 3 16q61 0 100 23t39 61q0 51 -92 57l56 95q-49 12 -49 76z" />
    <glyph glyph-name="Tcaron" unicode="&#x164;" horiz-adv-x="620" 
d="M193 95l94 559h-18q-109 0 -204 -195q-12 -23 -21 -23h-2q-3 1 -4 1l65 260l5 3q69 -26 206 -26h136q142 0 218 26l4 -3l-19 -262h-3q-7 0 -10.5 4t-5.5 18q-19 105 -52 151t-91 46h-19l-92 -550q-3 -27 -3 -30q0 -21 11.5 -34t24.5 -16t24.5 -6.5t11.5 -9.5t-1 -8h-346
q0 11 12 16t27 7t30.5 20t21.5 52zM412 837l172 85l8 -11l-179 -175q-14 -11 -21 -11q-10 0 -17 12l-122 172l13 13z" />
    <glyph glyph-name="tcaron" unicode="&#x165;" horiz-adv-x="358" 
d="M36 67q0 25 6 53l57 297h-58q0 6 2 18h60q61 10 109.5 60.5t72.5 117.5h14q-4 -26 -9.5 -55.5t-12.5 -65.5t-11 -56h105l-3 -19h-105q-57 -302 -71 -382q52 34 96 82l10 -11q-98 -118 -184 -118q-78 0 -78 79zM433 767q26 0 40.5 -18t14.5 -45q0 -47 -41.5 -114
t-96.5 -108l-9 12q79 70 102 147q-17 -12 -38 -12q-22 0 -35.5 15t-13.5 37q0 32 22 59t55 27z" />
    <glyph glyph-name="Tbar" unicode="&#x166;" horiz-adv-x="620" 
d="M190 93l45 262h-123q0 3 0.5 5.5t1.5 6t1 5.5h123l48 282h-17q-55 0 -104.5 -46t-100.5 -149q-9 -23 -21 -23h-3q-2 1 -3 1q30 120 69 263q74 -26 200 -26h166q122 0 197 26q0 -14 -17 -265h-3h-1q-4 0 -6 0.5t-4.5 6t-4.5 15.5q-17 104 -51.5 150.5t-92.5 46.5h-17
l-48 -282h114q0 -3 -0.5 -5.5t-1.5 -6t-1 -5.5h-114l-44 -266q-1 -5 -1 -13q0 -28 17.5 -40.5t35 -16.5t17.5 -11q0 -2 -0.5 -4.5t-0.5 -3.5h-345v7q1 9 20.5 12.5t41 19.5t28.5 54z" />
    <glyph glyph-name="tbar" unicode="&#x167;" horiz-adv-x="328" 
d="M36 68q0 22 5.5 55.5t16 81t13.5 65.5h-51l3 18h51q9 43 25 129h-58q0 6 2 18h60q62 10 110 60t72 118h14q-4 -26 -9.5 -55.5t-12.5 -65.5t-11 -56h105l-3 -19h-105l-24 -129h103q-2 -12 -2 -18h-105l-43 -235q52 34 96 82l10 -11q-92 -110 -171 -118q-46 0 -68.5 17.5
t-22.5 62.5z" />
    <glyph glyph-name="Utilde" unicode="&#x168;" horiz-adv-x="722" 
d="M329 582l-58 -342q-8 -46 -8 -82q0 -68 30 -103.5t99 -35.5q80 0 138.5 70.5t79.5 194.5l34 204q10 57 10 78q0 34 -14 54t-31 24.5t-31 8.5t-14 10q0 1 0.5 5t0.5 5h235v-2q0 -11 -11 -15t-27.5 -7.5t-34 -12t-33.5 -35.5t-24 -71l-38 -225q-10 -59 -24.5 -105
t-38.5 -87t-57 -68t-80.5 -42.5t-107.5 -15.5q-242 0 -242 207q0 39 7 78l51 299q4 28 4 30q0 26 -16 37.5t-32.5 15t-16.5 10.5v10h339q0 -12 -12 -17t-26.5 -7t-30 -19t-20.5 -49zM654 888l10 -3q-19 -57 -53 -95t-76 -38q-23 0 -73.5 14.5t-73.5 14.5q-55 0 -82 -41
l-11 4q17 50 49 91t77 41q18 0 74.5 -16.5t80.5 -16.5q26 0 43.5 9t34.5 36z" />
    <glyph glyph-name="utilde" unicode="&#x169;" 
d="M560 454l6 -4q-47 -237 -80 -417q33 21 95 85l10 -13q-100 -119 -171 -119q-41 0 -63 19.5t-22 53.5q0 49 36 183q-1 0 -2 0.5t-2 0.5q-43 -137 -99.5 -197t-107.5 -60q-98 0 -98 97q0 25 6 54l54 268q-48 -31 -96 -84l-11 12q103 122 175 122q88 0 88 -83q0 -12 -7 -49
l-41 -188q-7 -33 -7 -43q0 -27 21 -27q29 0 71.5 88t66.5 205l10 49q100 8 168 47zM546 674l10 -3q-19 -57 -53 -95t-76 -38q-23 0 -74 14.5t-73 14.5q-55 0 -82 -41l-11 4q17 50 49 91t77 41q18 0 74.5 -16.5t80.5 -16.5q26 0 43.5 9t34.5 36z" />
    <glyph glyph-name="Umacron" unicode="&#x16a;" horiz-adv-x="722" 
d="M329 582l-58 -342q-8 -46 -8 -82q0 -68 30 -103.5t99 -35.5q80 0 138.5 70.5t79.5 194.5l34 204q10 57 10 78q0 34 -14 54t-31 24.5t-31 8.5t-14 10q0 1 0.5 5t0.5 5h235v-2q0 -11 -11 -15t-27.5 -7.5t-34 -12t-33.5 -35.5t-24 -71l-38 -225q-10 -59 -24.5 -105
t-38.5 -87t-57 -68t-80.5 -42.5t-107.5 -15.5q-242 0 -242 207q0 39 7 78l51 299q4 28 4 30q0 26 -16 37.5t-32.5 15t-16.5 10.5v10h339q0 -12 -12 -17t-26.5 -7t-30 -19t-20.5 -49zM625 850l-19 -95q-121 12 -296 0l13 76q85 14 302 19z" />
    <glyph glyph-name="umacron" unicode="&#x16b;" 
d="M560 454l6 -4q-47 -237 -80 -417q33 21 95 85l10 -13q-100 -119 -171 -119q-41 0 -63 19.5t-22 53.5q0 49 36 183q-1 0 -2 0.5t-2 0.5q-43 -137 -99.5 -197t-107.5 -60q-98 0 -98 97q0 25 6 54l54 268q-48 -31 -96 -84l-11 12q103 122 175 122q88 0 88 -83q0 -12 -7 -49
l-41 -188q-7 -33 -7 -43q0 -27 21 -27q29 0 71.5 88t66.5 205l10 49q100 8 168 47zM520 642l-18 -94q-119 11 -294 0l14 75q84 14 298 19z" />
    <glyph glyph-name="Ubreve" unicode="&#x16c;" horiz-adv-x="722" 
d="M329 582l-58 -342q-8 -46 -8 -82q0 -68 30 -103.5t99 -35.5q80 0 138.5 70.5t79.5 194.5l34 204q10 57 10 78q0 34 -14 54t-31 24.5t-31 8.5t-14 10q0 1 0.5 5t0.5 5h235v-2q0 -11 -11 -15t-27.5 -7.5t-34 -12t-33.5 -35.5t-24 -71l-38 -225q-10 -59 -24.5 -105
t-38.5 -87t-57 -68t-80.5 -42.5t-107.5 -15.5q-242 0 -242 207q0 39 7 78l51 299q4 28 4 30q0 26 -16 37.5t-32.5 15t-16.5 10.5v10h339q0 -12 -12 -17t-26.5 -7t-30 -19t-20.5 -49zM464 729q-63 0 -95.5 47t-29.5 125l13 4q30 -91 126 -91q93 0 157 92l11 -3
q-29 -87 -76.5 -130.5t-105.5 -43.5z" />
    <glyph glyph-name="ubreve" unicode="&#x16d;" 
d="M560 454l6 -4q-47 -237 -80 -417q33 21 95 85l10 -13q-100 -119 -171 -119q-41 0 -63 19.5t-22 53.5q0 49 36 183q-1 0 -2 0.5t-2 0.5q-43 -137 -99.5 -197t-107.5 -60q-98 0 -98 97q0 25 6 54l54 268q-48 -31 -96 -84l-11 12q103 122 175 122q88 0 88 -83q0 -12 -7 -49
l-41 -188q-7 -33 -7 -43q0 -27 21 -27q29 0 71.5 88t66.5 205l10 49q100 8 168 47zM351 515q-66 0 -98.5 51.5t-26.5 136.5l14 4q35 -103 127 -103q88 0 159 100l13 -4q-30 -91 -80.5 -138t-107.5 -47z" />
    <glyph glyph-name="Uring" unicode="&#x16e;" horiz-adv-x="722" 
d="M329 582l-58 -342q-8 -46 -8 -82q0 -68 30 -103.5t99 -35.5q80 0 138.5 70.5t79.5 194.5l34 204q10 57 10 78q0 34 -14 54t-31 24.5t-31 8.5t-14 10q0 1 0.5 5t0.5 5h235v-2q0 -11 -11 -15t-27.5 -7.5t-34 -12t-33.5 -35.5t-24 -71l-38 -225q-10 -59 -24.5 -105
t-38.5 -87t-57 -68t-80.5 -42.5t-107.5 -15.5q-242 0 -242 207q0 39 7 78l51 299q4 28 4 30q0 26 -16 37.5t-32.5 15t-16.5 10.5v10h339q0 -12 -12 -17t-26.5 -7t-30 -19t-20.5 -49zM476 715q-39 0 -64 24.5t-25 61.5q0 51 36.5 88.5t88.5 37.5q37 0 60.5 -24t23.5 -61
q0 -52 -35.5 -89.5t-84.5 -37.5zM507 895q-35 0 -60.5 -27t-25.5 -62q0 -26 16.5 -43t43.5 -17q31 0 56 26t25 61q0 26 -14.5 44t-40.5 18z" />
    <glyph glyph-name="uring" unicode="&#x16f;" 
d="M560 454l6 -4q-47 -237 -80 -417q33 21 95 85l10 -13q-100 -119 -171 -119q-41 0 -63 19.5t-22 53.5q0 49 36 183q-1 0 -2 0.5t-2 0.5q-43 -137 -99.5 -197t-107.5 -60q-98 0 -98 97q0 25 6 54l54 268q-48 -31 -96 -84l-11 12q103 122 175 122q88 0 88 -83q0 -12 -7 -49
l-41 -188q-7 -33 -7 -43q0 -27 21 -27q29 0 71.5 88t66.5 205l10 49q100 8 168 47zM353 517q-39 0 -64 24.5t-25 61.5q0 51 36.5 88.5t88.5 37.5q37 0 60.5 -24t23.5 -61q0 -52 -35.5 -89.5t-84.5 -37.5zM384 697q-35 0 -60.5 -27t-25.5 -62q0 -26 16.5 -43t43.5 -17
q31 0 56 26t25 61q0 26 -14.5 44t-40.5 18z" />
    <glyph glyph-name="Uhungarumlaut" unicode="&#x170;" horiz-adv-x="722" 
d="M329 582l-58 -342q-8 -46 -8 -82q0 -68 30 -103.5t99 -35.5q80 0 138.5 70.5t79.5 194.5l34 204q10 57 10 78q0 34 -14 54t-31 24.5t-31 8.5t-14 10q0 1 0.5 5t0.5 5h235v-2q0 -11 -11 -15t-27.5 -7.5t-34 -12t-33.5 -35.5t-24 -71l-38 -225q-10 -59 -24.5 -105
t-38.5 -87t-57 -68t-80.5 -42.5t-107.5 -15.5q-242 0 -242 207q0 39 7 78l51 299q4 28 4 30q0 26 -16 37.5t-32.5 15t-16.5 10.5v10h339q0 -12 -12 -17t-26.5 -7t-30 -19t-20.5 -49zM280 727q-2 10 -2 14q49 24 84.5 57t50.5 57t34.5 41.5t43.5 17.5q23 0 34.5 -12.5
t11.5 -31.5q0 -16 -20 -44q-62 -85 -237 -99zM460 730q-1 5 -1 14q41 20 72 46t47.5 47.5t30.5 40.5t28 30t33 11q22 0 34 -13.5t13 -32.5v-1q-14 -62 -93 -102q-65 -32 -164 -40z" />
    <glyph glyph-name="uhungarumlaut" unicode="&#x171;" 
d="M560 454l6 -4q-47 -237 -80 -417q33 21 95 85l10 -13q-100 -119 -171 -119q-41 0 -63 19.5t-22 53.5q0 49 36 183q-1 0 -2 0.5t-2 0.5q-43 -137 -99.5 -197t-107.5 -60q-98 0 -98 97q0 25 6 54l54 268q-48 -31 -96 -84l-11 12q103 122 175 122q88 0 88 -83q0 -12 -7 -49
l-41 -188q-7 -33 -7 -43q0 -27 21 -27q29 0 71.5 88t66.5 205l10 49q100 8 168 47zM352 518q-2 10 -2 15q50 28 85.5 63t50 59.5t33 42t41.5 17.5q22 0 33 -13t11 -31v-3q-1 -4 -4 -12t-7.5 -17t-14 -21t-22 -23.5t-32 -23.5t-43.5 -22t-57 -18t-72 -13zM178 520q0 2 -0.5 7
t-0.5 8q49 27 85 62t50.5 59.5t33 42t40.5 17.5q23 0 34 -12.5t11 -31.5q0 -4 -3 -14t-18.5 -31.5t-40 -41t-75 -38.5t-116.5 -27z" />
    <glyph glyph-name="Uogonek" unicode="&#x172;" horiz-adv-x="722" 
d="M329 582l-58 -342q-8 -46 -8 -82q0 -68 30 -103.5t99 -35.5q80 0 138.5 70.5t79.5 194.5l34 204q10 57 10 78q0 34 -14 54t-31 24.5t-31 8.5t-14 10q0 1 0.5 5t0.5 5h235v-2q0 -11 -11 -15t-27.5 -7.5t-34 -12t-33.5 -35.5t-24 -71l-38 -225q-12 -67 -29.5 -117.5
t-46.5 -93.5t-73.5 -69t-103.5 -34q-58 -38 -85.5 -85t-27.5 -85q0 -67 82 -67q27 0 62 11l1 -12q-26 -18 -69.5 -31t-82.5 -13q-94 0 -94 69q0 16 7 36t24.5 49t57.5 62.5t97 62.5q-5 0 -14 -0.5t-13 -0.5q-242 0 -242 207q0 39 7 78l51 299q4 28 4 30q0 26 -16 37.5
t-32.5 15t-16.5 10.5v10h339q0 -12 -12 -17t-26.5 -7t-30 -19t-20.5 -49z" />
    <glyph glyph-name="uogonek" unicode="&#x173;" 
d="M560 454l6 -4q-47 -237 -80 -417q33 21 95 85l10 -13q-100 -119 -171 -119q-18 0 -36 5q-41 -35 -61 -75t-20 -71q0 -67 82 -67q27 0 62 11l1 -12q-26 -18 -69.5 -31t-82.5 -13q-94 0 -94 69q0 15 6 34t21.5 46t50 58.5t84.5 59.5q-29 18 -29 59q0 49 36 183q-1 0 -2 0.5
t-2 0.5q-43 -137 -99.5 -197t-107.5 -60q-98 0 -98 97q0 25 6 54l54 268q-48 -31 -96 -84l-11 12q103 122 175 122q88 0 88 -83q0 -12 -7 -49l-41 -188q-7 -33 -7 -43q0 -27 21 -27q29 0 71.5 88t66.5 205l10 49q100 8 168 47z" />
    <glyph glyph-name="Wcircumflex" unicode="&#x174;" horiz-adv-x="971" 
d="M743 256h3l117 253q26 56 26 90q0 21 -11 33.5t-24 15t-23.5 6.5t-9.5 11l1 9h227l-1 -8q-1 -8 -17 -14t-36.5 -12.5t-48.5 -34t-49 -72.5l-260 -543q-24 -2 -37 -4l-81 518h-3l-251 -514l-37 -4l-94 597q-4 27 -16 43t-23 20t-19.5 8.5t-6.5 11.5l1 8h331l-1 -8
q-1 -9 -20 -14t-36.5 -18t-17.5 -40q0 -12 3 -33l44 -310h3l148 319q9 16 9 37q0 17 -11 26.5t-24.5 12t-23.5 7.5t-8 13l1 8h297l-1 -7q-2 -10 -20 -16t-35 -18.5t-17 -38.5q0 -22 3 -40zM757 724l-142 83l-177 -81q-1 1 -3.5 5.5t-3.5 7.5l183 169q15 13 21 13q9 0 18 -12
q90 -133 115 -172z" />
    <glyph glyph-name="wcircumflex" unicode="&#x175;" horiz-adv-x="756" 
d="M461 454q35 0 56 -27t35.5 -92.5t27.5 -191.5q89 94 125 167q-36 7 -59 30.5t-23 55.5q0 23 16 45t44 22q27 0 45 -20t18 -57q0 -55 -43 -119.5t-132.5 -159.5t-106.5 -116h-23q-8 57 -41 257q-28 -40 -68 -87t-88 -99.5t-64 -70.5h-22q-40 258 -73 393q-26 -22 -72 -81
l-11 10q96 142 178 142q50 0 74.5 -65.5t41.5 -244.5q65 72 99 126l-23 117q-22 -17 -56 -62q-2 2 -6 5.5t-5 5.5q85 117 156 117zM587 517l-139 89l-175 -89l-7 12l179 177q16 14 24 14q10 0 19 -14l110 -177z" />
    <glyph glyph-name="Ycircumflex" unicode="&#x176;" horiz-adv-x="632" 
d="M411 329l118 196q30 49 30 77q0 23 -18.5 33.5t-36.5 15t-18 12.5v4q1 4 1 6h225v-3q0 -12 -12.5 -18.5t-33 -13t-55 -39.5t-69.5 -90l-125 -202l-34 -187q-4 -22 -4 -42q0 -30 17.5 -43t35 -17t17.5 -11v-7h-346q0 12 12 17t27 7.5t31 20.5t22 53l29 167l-91 317
q-7 25 -20 41t-24 20.5t-19 9t-8 11.5q0 2 0.5 5t0.5 4h343v-6q0 -10 -12 -15.5t-26.5 -7.5t-26.5 -12.5t-12 -29.5q0 -13 9 -40l72 -233h1zM561 727l-142 83l-177 -81q-1 1 -3.5 5.5t-3.5 7.5l183 169q15 13 21 13q9 0 18 -12q90 -133 115 -172z" />
    <glyph glyph-name="ycircumflex" unicode="&#x177;" horiz-adv-x="482" 
d="M469 387q0 -53 -37 -114.5t-89.5 -117t-105 -109t-89.5 -105.5t-37 -91q0 -49 40 -60q0 44 21 73t54 29q25 0 39.5 -14.5t14.5 -35.5q0 -34 -28.5 -55.5t-66.5 -21.5q-42 0 -68.5 22t-26.5 61q0 58 68 140q-53 294 -84 396q-25 -24 -69 -79l-10 10q42 63 81.5 100
t89.5 37q23 0 40 -13.5t33.5 -47.5t29 -100.5t20.5 -165.5q5 6 23.5 26t25 27.5t21.5 24.5t22.5 27t17.5 24t16.5 25.5t10.5 22.5q-76 23 -76 95q0 20 13 41t44 21q27 0 44.5 -20t17.5 -52zM438 517l-139 89l-175 -89l-7 12l179 177q16 14 24 14q10 0 19 -14l110 -177z" />
    <glyph glyph-name="Ydieresis" unicode="&#x178;" horiz-adv-x="632" 
d="M411 329l118 196q30 49 30 77q0 23 -18.5 33.5t-36.5 15t-18 12.5v4q1 4 1 6h225v-3q0 -12 -12.5 -18.5t-33 -13t-55 -39.5t-69.5 -90l-125 -202l-34 -187q-4 -22 -4 -42q0 -30 17.5 -43t35 -17t17.5 -11v-7h-346q0 12 12 17t27 7.5t31 20.5t22 53l29 167l-91 317
q-7 25 -20 41t-24 20.5t-19 9t-8 11.5q0 2 0.5 5t0.5 4h343v-6q0 -10 -12 -15.5t-26.5 -7.5t-26.5 -12.5t-12 -29.5q0 -13 9 -40l72 -233h1zM531 902q29 0 46.5 -19.5t17.5 -48.5q0 -37 -28 -64.5t-62 -27.5q-27 0 -44.5 18.5t-17.5 45.5q0 37 26.5 66.5t61.5 29.5zM331 902
q28 0 45.5 -19.5t17.5 -48.5q0 -37 -27 -64.5t-61 -27.5q-27 0 -45 18.5t-18 45.5q0 37 26.5 66.5t61.5 29.5z" />
    <glyph glyph-name="Zacute" unicode="&#x179;" horiz-adv-x="630" 
d="M650 674q-2 -6 -2 -18l-441 -637h114q84 0 139 51.5t142 197.5q10 15 17 15q1 0 4 -0.5t4 -0.5l-103 -305l-4 -2q-58 25 -189 25h-355l3 17q87 125 250 357t196 280h-87q-85 0 -132.5 -39.5t-107.5 -154.5q-12 -23 -22 -23q-6 0 -7 1l37 129.5t37 132.5l4 1
q60 -27 232 -27h271zM322 731q0 3 -0.5 7t-0.5 6q41 20 72.5 46t47.5 47t30 40t28 29.5t33 10.5q23 0 35 -14.5t12 -34.5q0 -5 -3 -15t-18 -31t-40.5 -38.5t-76.5 -33t-119 -19.5z" />
    <glyph glyph-name="zacute" unicode="&#x17a;" horiz-adv-x="505" 
d="M158 459q49 0 145.5 -28.5t114.5 -28.5q39 0 80 59l12 -8q-34 -59 -100.5 -120t-130 -102.5t-132.5 -90t-100 -81.5v-3q85 65 154 65q40 0 111 -37.5t97 -37.5q17 0 29 12q-26 3 -44 14t-25 25.5t-9.5 25t-2.5 20.5q0 22 14 41t42 19q27 0 42 -21.5t15 -52.5
q0 -62 -46 -120.5t-121 -58.5q-45 0 -87.5 22.5t-79.5 45t-69 22.5q-43 0 -78 -53l-12 9q27 50 84 100.5t115 87.5t132 90.5t122 102.5l-2 2q-85 -73 -188 -73q-69 0 -162 32q-4 -10 -7.5 -23.5t-8.5 -34.5t-9 -36l-13 2q28 213 118 213zM228 510l-5 13q42 28 72.5 66
t43.5 65.5t31.5 47t42.5 19.5t37 -14t12 -33q-1 -12 -9.5 -29t-31 -42t-73 -50.5t-120.5 -42.5z" />
    <glyph glyph-name="Zdotaccent" unicode="&#x17b;" horiz-adv-x="630" 
d="M650 674q-2 -6 -2 -18l-441 -637h114q84 0 139 51.5t142 197.5q10 15 17 15q1 0 4 -0.5t4 -0.5l-103 -305l-4 -2q-58 25 -189 25h-355l3 17q87 125 250 357t196 280h-87q-85 0 -132.5 -39.5t-107.5 -154.5q-12 -23 -22 -23q-6 0 -7 1l37 129.5t37 132.5l4 1
q60 -27 232 -27h271zM455 915q30 0 48.5 -20.5t18.5 -50.5q0 -43 -30 -74.5t-70 -31.5q-29 0 -48 20.5t-19 50.5q0 42 30.5 74t69.5 32z" />
    <glyph glyph-name="zdotaccent" unicode="&#x17c;" horiz-adv-x="505" 
d="M158 459q49 0 145.5 -28.5t114.5 -28.5q39 0 80 59l12 -8q-34 -59 -100.5 -120t-130 -102.5t-132.5 -90t-100 -81.5v-3q85 65 154 65q40 0 111 -37.5t97 -37.5q17 0 29 12q-26 3 -44 14t-25 25.5t-9.5 25t-2.5 20.5q0 22 14 41t42 19q27 0 42 -21.5t15 -52.5
q0 -62 -46 -120.5t-121 -58.5q-45 0 -87.5 22.5t-79.5 45t-69 22.5q-43 0 -78 -53l-12 9q27 50 84 100.5t115 87.5t132 90.5t122 102.5l-2 2q-85 -73 -188 -73q-69 0 -162 32q-4 -10 -7.5 -23.5t-8.5 -34.5t-9 -36l-13 2q28 213 118 213zM354 709q30 0 48.5 -20.5
t18.5 -50.5q0 -43 -30 -74.5t-70 -31.5q-29 0 -48 20.5t-19 50.5q0 42 30.5 74t69.5 32z" />
    <glyph glyph-name="Zcaron" unicode="&#x17d;" horiz-adv-x="630" 
d="M650 674q-2 -6 -2 -18l-441 -637h114q84 0 139 51.5t142 197.5q10 15 17 15q1 0 4 -0.5t4 -0.5l-103 -305l-4 -2q-58 25 -189 25h-355l3 17q87 125 250 357t196 280h-87q-85 0 -132.5 -39.5t-107.5 -154.5q-12 -23 -22 -23q-6 0 -7 1l37 129.5t37 132.5l4 1
q60 -27 232 -27h271zM447 837l172 85l8 -11l-179 -175q-14 -11 -21 -11q-9 0 -17 12l-122 172l13 13z" />
    <glyph glyph-name="zcaron" unicode="&#x17e;" horiz-adv-x="505" 
d="M158 459q49 0 145.5 -28.5t114.5 -28.5q39 0 80 59l12 -8q-34 -59 -100.5 -120t-130 -102.5t-132.5 -90t-100 -81.5v-3q85 65 154 65q40 0 111 -37.5t97 -37.5q17 0 29 12q-26 3 -44 14t-25 25.5t-9.5 25t-2.5 20.5q0 22 14 41t42 19q27 0 42 -21.5t15 -52.5
q0 -62 -46 -120.5t-121 -58.5q-45 0 -87.5 22.5t-79.5 45t-69 22.5q-43 0 -78 -53l-12 9q27 50 84 100.5t115 87.5t132 90.5t122 102.5l-2 2q-85 -73 -188 -73q-69 0 -162 32q-4 -10 -7.5 -23.5t-8.5 -34.5t-9 -36l-13 2q28 213 118 213zM325 623l169 93l7 -12l-170 -178
q-15 -15 -24 -15t-19 15l-120 178l13 13z" />
    <glyph glyph-name="longs" unicode="&#x17f;" horiz-adv-x="293" 
d="M254 396q-48 -318 -126.5 -468.5t-212.5 -150.5q-40 0 -63.5 20t-23.5 48q0 29 18 46t45 17q36 0 55 -30.5t19 -75.5q40 14 56 121q8 53 23 164.5t27.5 195t23.5 135.5h-79l3 18h80q30 134 115.5 219t204.5 85q53 0 87 -21t34 -55q0 -31 -18.5 -48t-46.5 -17
q-36 0 -57 26.5t-21 62.5q0 19 5 34q-60 -3 -91 -79t-57 -247z" />
    <glyph glyph-name="florin" unicode="&#x192;" horiz-adv-x="570" 
d="M118 366h88q14 62 37.5 116t57.5 98.5t80.5 70.5t99.5 26q44 0 75 -24t31 -68q0 -27 -17 -45.5t-45 -18.5q-35 0 -53 24t-18 61q0 28 9 52q-29 -4 -45.5 -60.5t-37.5 -182.5q-5 -32 -8 -49h93l-2 -17h-94q-15 -80 -31 -142t-42.5 -126t-59.5 -105.5t-81.5 -68
t-107.5 -26.5q-41 0 -72 21.5t-31 60.5q0 29 17.5 50.5t50.5 21.5q32 0 49.5 -27t17.5 -62q0 -23 -6 -47q29 6 48 64t43 192.5t38 193.5h-86z" />
    <glyph glyph-name="AEacute" unicode="&#x1fc;" horiz-adv-x="967" 
d="M332 0q1 2 1 7q1 7 13 11t27 7.5t30 21.5t20 49l21 129h-221q-5 -7 -26.5 -36t-31 -42.5t-24 -35t-20.5 -34.5t-6 -20q0 -19 18.5 -27t36.5 -11.5t18 -10.5q0 -6 -1 -8h-218q0 9 5 13t12.5 5.5t22 6t28.5 12.5q38 21 79 75l386 502q-3 19 -18.5 27.5t-29.5 11.5t-14 10
q0 2 0.5 5.5t0.5 5.5h285q150 0 229 32q2 0 4 -2q-3 -43 -8.5 -128.5t-8.5 -128.5q-3 -1 -7 -1q-8 0 -13 25q-14 61 -24.5 91t-31 54t-49.5 31t-80 7h-35l-50 -292h43q36 0 61 20.5t34.5 45t18.5 45t15 20.5h6l-48 -290h-6q-9 0 -10.5 22t-1.5 48t-17 48t-53 22h-45
l-44 -258q-3 -21 -3 -24q0 -43 56 -43h19q73 0 130 53t132 184q11 20 20 20q1 0 7 -2l-100 -298l-3 2q-64 23 -213 23h-318zM447 243l50 298q6 33 7 47q-250 -325 -266 -345h209zM575 731q0 3 -0.5 7t-0.5 6q41 20 72.5 46t47.5 47t30 40t28 29.5t33 10.5q23 0 35 -14.5
t12 -34.5q0 -5 -3 -15t-18 -31t-40.5 -38.5t-76.5 -33t-119 -19.5z" />
    <glyph glyph-name="aeacute" unicode="&#x1fd;" horiz-adv-x="761" 
d="M488 -13q-124 0 -168 79q-92 -84 -208 -84q-105 0 -105 87q0 48 22.5 84t61 56t82 29.5t92.5 9.5q16 0 42 -2q2 9 6.5 32t7.5 42t3 34q0 78 -66 78q-20 0 -48 -11q19 -23 19 -61q0 -34 -21 -60t-57 -26q-24 0 -38.5 16.5t-14.5 39.5q0 50 51.5 87t139.5 37q96 0 132 -62
q68 62 169 62q157 0 157 -107q0 -70 -69.5 -107.5t-169.5 -37.5q-12 0 -36 2q-2 -20 -2 -37q0 -130 93 -130q34 0 72.5 18t68.5 48l11 -10q-40 -46 -99.5 -76t-127.5 -30zM231 44q38 0 82 35q-17 41 -17 76q0 25 7 72q-58 -1 -89.5 -36.5t-31.5 -89.5q0 -27 14 -42t35 -15z
M474 223q75 0 109.5 48t34.5 117q0 46 -35 46q-39 0 -68.5 -62t-40.5 -149zM369 508l-5 13q42 28 72.5 66t43.5 65.5t31.5 47t42.5 19.5t37 -14t12 -33q-1 -12 -9.5 -29t-31 -42t-73 -50.5t-120.5 -42.5z" />
    <glyph glyph-name="Oslashacute" unicode="&#x1fe;" horiz-adv-x="732" 
d="M361 731q0 3 -0.5 7t-0.5 6q41 20 72.5 46t47.5 47t30 40t28 29.5t33 10.5q23 0 35 -14.5t12 -34.5q0 -5 -3 -15t-18 -31t-40.5 -38.5t-76.5 -33t-119 -19.5zM442 688q102 0 169 -43q43 55 44 56q4 -4 12 -10l-43 -55q97 -73 97 -221q0 -77 -27 -152t-75.5 -137.5
t-126 -101t-169.5 -38.5q-105 0 -172 47l-48 -61l-10 11q3 5 18.5 24.5t27.5 34.5q-90 73 -90 217q0 113 47.5 210t139 158t206.5 61zM523 507l-277 -354v-13q0 -137 84 -137q41 0 77.5 53.5t60 133t38 163.5t17.5 154zM440 670q-40 0 -76 -52.5t-59.5 -131t-38.5 -159.5
t-19 -148q25 32 127 162t150 193q0 136 -84 136z" />
    <glyph glyph-name="oslashacute" unicode="&#x1ff;" horiz-adv-x="568" 
d="M256 510l-5 13q42 28 72.5 66t43.5 65.5t31.5 47t42.5 19.5t37 -14t12 -33q-1 -12 -9.5 -29t-31 -42t-73 -50.5t-120.5 -42.5zM326 455q71 0 121 -24l35 42l11 -10l-33 -40q78 -47 78 -155q0 -113 -83.5 -197.5t-223.5 -84.5q-68 0 -115 22l-39 -47l-11 11l37 44
q-74 46 -74 153q0 120 82.5 203t214.5 83zM241 2q30 0 55 34t41 85.5t25.5 103t11.5 95.5l-178 -216v-13q0 -89 45 -89zM324 437q-49 0 -84 -98.5t-43 -208.5l178 214v1q0 92 -51 92z" />
    <glyph glyph-name="Scommaaccent" unicode="&#x218;" horiz-adv-x="599" 
d="M231 -14q-109 0 -167.5 41t-58.5 97q0 43 23.5 65.5t56.5 22.5q36 0 58 -26t22 -61q0 -63 -34 -104q31 -15 79 -15q72 0 121.5 33.5t49.5 96.5q0 36 -29.5 69.5t-71.5 61.5t-84.5 57.5t-72 69.5t-29.5 85q0 71 45.5 120.5t106 69t126.5 19.5q116 0 170.5 -37.5
t54.5 -91.5q0 -35 -21 -56.5t-52 -21.5q-38 0 -58 23.5t-20 58.5q0 53 31 92q-28 11 -73 11q-54 0 -89.5 -29t-35.5 -70q0 -27 21.5 -54t54.5 -48t70.5 -48t70.5 -53t54.5 -64.5t21.5 -81.5q0 -107 -96.5 -169.5t-244.5 -62.5zM229 -38q26 0 40.5 -18t14.5 -45
q0 -47 -41.5 -114t-96.5 -108l-9 12q79 70 102 147q-17 -12 -38 -12q-22 0 -35.5 15t-13.5 37q0 32 22 59t55 27z" />
    <glyph glyph-name="scommaaccent" unicode="&#x219;" horiz-adv-x="469" 
d="M286 455q79 0 121 -29t42 -71q0 -32 -18.5 -49t-40.5 -17q-30 0 -46 19.5t-16 48.5q0 42 24 72q-25 7 -47 7q-35 0 -60.5 -16t-25.5 -50q0 -22 21 -43t51.5 -39.5t61 -39.5t51.5 -50.5t21 -62.5q0 -73 -68 -111t-171 -38q-91 0 -132.5 30t-41.5 72q0 33 18.5 49.5
t39.5 16.5q29 0 45 -20t16 -48q0 -45 -24 -73q25 -10 64 -10t67 18t28 51q0 26 -31 53.5t-67.5 48.5t-67.5 54.5t-31 70.5q0 77 66 116.5t151 39.5zM192 -38q26 0 40.5 -18t14.5 -45q0 -47 -41.5 -114t-96.5 -108l-9 12q79 70 102 147q-17 -12 -38 -12q-22 0 -35.5 15
t-13.5 37q0 32 22 59t55 27z" />
    <glyph glyph-name="uni021A" unicode="&#x21a;" horiz-adv-x="620" 
d="M193 95l94 559h-18q-109 0 -204 -195q-12 -23 -21 -23h-2q-3 1 -4 1l65 260l5 3q69 -26 206 -26h136q142 0 218 26l4 -3l-19 -262h-3q-7 0 -10.5 4t-5.5 18q-19 105 -52 151t-91 46h-19l-92 -550q-3 -27 -3 -30q0 -21 11.5 -34t24.5 -16t24.5 -6.5t11.5 -9.5t-1 -8h-346
q0 11 12 16t27 7t30.5 20t21.5 52zM276 -38q26 0 40.5 -18t14.5 -45q0 -47 -41.5 -114t-96.5 -108l-9 12q79 70 102 147q-17 -12 -38 -12q-22 0 -35.5 15t-13.5 37q0 32 22 59t55 27z" />
    <glyph glyph-name="uni021B" unicode="&#x21b;" horiz-adv-x="328" 
d="M36 67q0 25 6 53l57 297h-58q0 6 2 18h60q61 10 109.5 60.5t72.5 117.5h14q-4 -26 -9.5 -55.5t-12.5 -65.5t-11 -56h105l-3 -19h-105q-57 -302 -71 -382q52 34 96 82l10 -11q-98 -118 -184 -118q-78 0 -78 79zM105 -38q26 0 40.5 -18t14.5 -45q0 -47 -41.5 -114
t-96.5 -108l-9 12q79 70 102 147q-17 -12 -38 -12q-22 0 -35.5 15t-13.5 37q0 32 22 59t55 27z" />
    <glyph glyph-name="schwa" unicode="&#x259;" horiz-adv-x="504" 
d="M280 454q95 0 144 -47.5t49 -127.5q0 -117 -81.5 -204.5t-214.5 -87.5q-156 0 -156 107q0 51 44.5 87.5t104.5 53t131 21.5q1 8 1 24q0 125 -97 125q-73 0 -143 -69l-9 11q97 107 227 107zM297 236q-70 -11 -108 -65t-38 -120q0 -46 35 -46q39 0 70 68t41 163z" />
    <glyph glyph-name="primemod" unicode="&#x2b9;" horiz-adv-x="239" 
d="M52 357l138 290q29 63 74 63q22 0 35 -15t13 -38q0 -31 -35 -69l-213 -239q-1 1 -3.5 2.5l-5 3t-3.5 2.5z" />
    <glyph glyph-name="circumflex" unicode="&#x2c6;" horiz-adv-x="529" 
d="M475 517l-139 89l-175 -89l-7 12l179 177q16 14 24 14q10 0 19 -14l110 -177z" />
    <glyph glyph-name="caron" unicode="&#x2c7;" horiz-adv-x="535" 
d="M344 623l169 93l7 -12l-170 -178q-15 -15 -24 -15t-19 15l-120 178l13 13z" />
    <glyph glyph-name="breve" unicode="&#x2d8;" horiz-adv-x="535" 
d="M326 515q-66 0 -98.5 51.5t-26.5 136.5l14 4q35 -103 127 -103q88 0 159 100l13 -4q-30 -91 -80.5 -138t-107.5 -47z" />
    <glyph glyph-name="dotaccent" unicode="&#x2d9;" horiz-adv-x="470" 
d="M332 709q30 0 48.5 -20.5t18.5 -50.5q0 -43 -30 -74.5t-70 -31.5q-29 0 -48 20.5t-19 50.5q0 42 30.5 74t69.5 32z" />
    <glyph glyph-name="ring" unicode="&#x2da;" horiz-adv-x="535" 
d="M327 517q-39 0 -64 24.5t-25 61.5q0 51 36.5 88.5t88.5 37.5q37 0 60.5 -24t23.5 -61q0 -52 -35.5 -89.5t-84.5 -37.5zM358 697q-35 0 -60.5 -27t-25.5 -62q0 -26 16.5 -43t43.5 -17q31 0 56 26t25 61q0 26 -14.5 44t-40.5 18z" />
    <glyph glyph-name="ogonek" unicode="&#x2db;" horiz-adv-x="511" 
d="M381 39l1 -10q-60 -38 -89.5 -86t-29.5 -87q0 -67 82 -67q27 0 62 11l1 -12q-26 -18 -69.5 -31t-82.5 -13q-94 0 -94 69q0 17 8 39t28.5 53.5t67.5 67t115 66.5z" />
    <glyph glyph-name="tilde" unicode="&#x2dc;" horiz-adv-x="564" 
d="M518 674l10 -3q-19 -57 -53 -95t-76 -38q-23 0 -74 14.5t-73 14.5q-55 0 -82 -41l-11 4q17 50 49 91t77 41q18 0 74.5 -16.5t80.5 -16.5q26 0 43.5 9t34.5 36z" />
    <glyph glyph-name="hungarumlaut" unicode="&#x2dd;" horiz-adv-x="571" 
d="M146 520q0 2 -0.5 7t-0.5 8q49 27 85 62t50.5 59.5t33 42t40.5 17.5q23 0 34 -12.5t11 -31.5q0 -4 -3 -14t-18.5 -31.5t-40 -41t-75 -38.5t-116.5 -27zM320 518q-2 10 -2 15q50 28 85.5 63t50 59.5t33 42t41.5 17.5q22 0 33 -13t11 -31v-3q-1 -4 -4 -12t-7.5 -17t-14 -21
t-22 -23.5t-32 -23.5t-43.5 -22t-57 -18t-72 -13z" />
    <glyph glyph-name="tonos" unicode="&#x384;" horiz-adv-x="535" 
d="M255 503q-2 8 -4 13q50 36 82.5 78t43 69t27 45t42.5 18q23 0 34.5 -13t11.5 -31q0 -10 -5 -23.5t-21 -35t-40.5 -41.5t-69 -42t-101.5 -37z" />
    <glyph glyph-name="dieresistonos" unicode="&#x385;" horiz-adv-x="548" 
d="M246 488q-1 1 -2.5 3t-3 4.5t-2.5 3.5q38 48 60.5 100.5t28.5 81.5t22.5 48.5t48.5 19.5q18 0 29 -11.5t11 -28.5q0 -38 -45 -100t-147 -121zM213 688q27 0 44 -18t17 -46q0 -36 -26.5 -63t-59.5 -27q-26 0 -43 18t-17 45q0 35 25.5 63t59.5 28zM510 688q27 0 44 -18.5
t17 -45.5q0 -36 -26.5 -63t-59.5 -27q-26 0 -43 18t-17 45q0 36 25.5 63.5t59.5 27.5z" />
    <glyph glyph-name="Alphatonos" unicode="&#x386;" horiz-adv-x="672" 
d="M95 117q41 80 114.5 227.5t97.5 194.5q25 50 25 70q0 17 -9 26.5t-20.5 12t-20.5 6.5t-9 10q0 2 0.5 5.5t0.5 4.5h202l96 -583q6 -37 23 -53.5t30.5 -20t13.5 -9.5q0 -2 -0.5 -4.5t-0.5 -3.5h-320q0 10 10.5 15.5t23 8t23 15.5t10.5 36q0 17 -3.5 40.5t-9.5 53.5t-8 44
h-202q-61 -122 -61 -148q0 -24 18.5 -34t37.5 -13t19 -10t-1 -8h-215q0 12 12.5 17t30.5 8t44 26t48 66zM317 515h-4l-142 -285h190zM-14 474q-2 8 -4 13q50 36 82.5 78t43 69t27 45t42.5 18q23 0 34.5 -13t11.5 -31q0 -10 -5 -23.5t-21 -35t-40.5 -41.5t-69 -42t-101.5 -37
z" />
    <glyph glyph-name="anoteleia" unicode="&#x387;" horiz-adv-x="235" 
d="M154 432q29 0 48 -20t19 -51q0 -42 -30 -73.5t-70 -31.5q-29 0 -47.5 20t-18.5 51q0 42 30.5 73.5t68.5 31.5z" />
    <glyph glyph-name="Epsilontonos" unicode="&#x388;" horiz-adv-x="633" 
d="M314 18h29q73 0 130 52t129 178q16 27 24 27q2 0 8 -2q-79 -235 -101 -295h-1l-2 -1q-61 23 -178 23h-366v2q0 10 11.5 15t27 7.5t31 19.5t20.5 49l83 484q3 21 3 23q0 27 -17.5 38.5t-35 14.5t-17.5 10q0 2 0.5 5.5t0.5 5.5h288q161 0 242 32q3 0 4 -1l-9 -129t-8 -129
q-2 -1 -7 -1q-8 0 -13 25q-18 81 -36 116.5t-53 51t-105 15.5h-38q-16 -98 -50 -292h52q36 0 61.5 20.5t35.5 45t19 45t16 20.5h5l-48 -290h-6q-8 0 -10 22t-2.5 48t-18 48t-53.5 22h-54l-44 -258q-3 -21 -3 -23q0 -44 56 -44zM-169 473q-2 8 -4 13q50 36 82.5 78t43 69
t27 45t42.5 18q23 0 34.5 -13t11.5 -31q0 -10 -5 -23.5t-21 -35t-40.5 -41.5t-69 -42t-101.5 -37z" />
    <glyph glyph-name="Etatonos" unicode="&#x389;" horiz-adv-x="768" 
d="M729 582l-80 -466q-5 -22 -5 -41q0 -28 18 -40.5t36 -16.5t18 -10q0 -2 -0.5 -4.5t-0.5 -3.5h-341q0 12 11 17t25 7t28 19.5t20 51.5l43 251h-197q-30 -175 -41 -242q-4 -18 -4 -31q0 -21 9.5 -33.5t21 -15.5t21 -6.5t9.5 -9.5t-1 -8h-333q0 11 11.5 16t26.5 7.5t30 20
t21 51.5l81 471q4 32 4 34q0 21 -10 33.5t-22 15t-22 6.5t-10 11v8h331q0 -12 -11 -17t-24.5 -7.5t-28 -19t-19.5 -48.5l-37 -218h197l35 202q4 32 4 36q0 21 -9 32.5t-19.5 14t-19.5 6.5t-9 11v8h330q0 -13 -11.5 -18.5t-26 -7t-29.5 -18t-20 -48.5zM-162 473q-2 8 -4 13
q50 36 82.5 78t43 69t27 45t42.5 18q23 0 34.5 -13t11.5 -31q0 -10 -5 -23.5t-21 -35t-40.5 -41.5t-69 -42t-101.5 -37z" />
    <glyph glyph-name="Iotatonos" unicode="&#x38a;" horiz-adv-x="403" 
d="M354 582l-82 -478q-3 -27 -3 -30q0 -21 11.5 -34t24.5 -16t24.5 -6.5t11.5 -9.5t-1 -8h-346q0 11 12 16t27 7t30.5 20t21.5 52q26 158 80 476q4 28 4 30q0 26 -16.5 37.5t-32.5 15t-16 10.5v10h339q0 -12 -12 -17t-26.5 -7t-30 -19t-20.5 -49zM-157 473q-2 8 -4 13
q50 36 82.5 78t43 69t27 45t42.5 18q23 0 34.5 -13t11.5 -31q0 -10 -5 -23.5t-21 -35t-40.5 -41.5t-69 -42t-101.5 -37z" />
    <glyph glyph-name="Omicrontonos" unicode="&#x38c;" horiz-adv-x="732" 
d="M442 688q142 0 210.5 -77t68.5 -196q0 -77 -27 -152t-75.5 -137.5t-126 -101t-169.5 -38.5q-137 0 -205.5 76t-68.5 197q0 113 47.5 210t139 158t206.5 61zM440 670q-43 0 -81.5 -61.5t-62 -149t-37 -174t-13.5 -145.5q0 -137 84 -137q43 0 81.5 59.5t62 145t37 174
t13.5 154.5q0 134 -84 134zM-131 473q-2 8 -4 13q50 36 82.5 78t43 69t27 45t42.5 18q23 0 34.5 -13t11.5 -31q0 -10 -5 -23.5t-21 -35t-40.5 -41.5t-69 -42t-101.5 -37z" />
    <glyph glyph-name="Upsilontonos" unicode="&#x38e;" horiz-adv-x="632" 
d="M411 329l118 196q30 49 30 77q0 23 -18.5 33.5t-36.5 15t-18 12.5v4q1 4 1 6h225v-3q0 -12 -12.5 -18.5t-33 -13t-55 -39.5t-69.5 -90l-125 -202l-34 -187q-4 -22 -4 -42q0 -30 17.5 -43t35 -17t17.5 -11v-7h-346q0 12 12 17t27 7.5t31 20.5t22 53l29 167l-91 317
q-7 25 -20 41t-24 20.5t-19 9t-8 11.5q0 2 0.5 5t0.5 4h343v-6q0 -10 -12 -15.5t-26.5 -7.5t-26.5 -12.5t-12 -29.5q0 -13 9 -40l72 -233h1zM-191 473q-2 8 -4 13q50 36 82.5 78t43 69t27 45t42.5 18q23 0 34.5 -13t11.5 -31q0 -10 -5 -23.5t-21 -35t-40.5 -41.5t-69 -42
t-101.5 -37z" />
    <glyph glyph-name="Omegatonos" unicode="&#x38f;" horiz-adv-x="773" 
d="M23 -17l-1 5l-2 267q1 0 3.5 0.5t3.5 0.5q7 0 13 -28q20 -111 63.5 -160t126.5 -49h47q-6 27 -29.5 51t-52.5 45t-57.5 46.5t-48 67t-19.5 96.5q0 70 27.5 135.5t77 116.5t124.5 82t163 31q74 0 130.5 -22t88 -59t47 -80t15.5 -90q0 -168 -142 -281q-29 -23 -75.5 -51
t-77.5 -49.5t-41 -38.5h33q57 0 98 12t74.5 41.5t57 63t57.5 92.5q15 27 26 27l3 -1h3l-87 -270l-2 -1q-123 17 -260 17h-29q-1 1 -1 2q4 17 23.5 43t43 61t47 85.5t39 135.5t15.5 191q0 150 -84 150q-61 0 -111 -74t-74.5 -176.5t-24.5 -203.5q0 -72 21.5 -129t22.5 -83
l-1 -2h-37q-138 0 -237 -17zM-124 473q-2 8 -4 13q50 36 82.5 78t43 69t27 45t42.5 18q23 0 34.5 -13t11.5 -31q0 -10 -5 -23.5t-21 -35t-40.5 -41.5t-69 -42t-101.5 -37z" />
    <glyph glyph-name="iotadieresistonos" unicode="&#x390;" horiz-adv-x="343" 
d="M190 456q90 0 90 -89q0 -13 -7 -48q-11 -60 -32 -165.5t-24 -122.5q45 29 96 83l10 -10q-100 -118 -174 -118q-86 0 -86 89q0 10 7 50l56 286q-34 -23 -97 -88q-5 6 -11 11q105 122 172 122zM112 488q-1 1 -2.5 3t-3 4.5t-2.5 3.5q38 48 60.5 100.5t28.5 81.5t22.5 48.5
t48.5 19.5q18 0 29 -11.5t11 -28.5q0 -38 -45 -100t-147 -121zM79 688q27 0 44 -18t17 -46q0 -36 -26.5 -63t-59.5 -27q-26 0 -43 18t-17 45q0 35 25.5 63t59.5 28zM376 688q27 0 44 -18.5t17 -45.5q0 -36 -26.5 -63t-59.5 -27q-26 0 -43 18t-17 45q0 36 25.5 63.5
t59.5 27.5z" />
    <glyph glyph-name="Alpha" unicode="&#x391;" horiz-adv-x="672" 
d="M95 117q41 80 114.5 227.5t97.5 194.5q25 50 25 70q0 17 -9 26.5t-20.5 12t-20.5 6.5t-9 10q0 2 0.5 5.5t0.5 4.5h202l96 -583q6 -37 23 -53.5t30.5 -20t13.5 -9.5q0 -2 -0.5 -4.5t-0.5 -3.5h-320q0 10 10.5 15.5t23 8t23 15.5t10.5 36q0 17 -3.5 40.5t-9.5 53.5t-8 44
h-202q-61 -122 -61 -148q0 -24 18.5 -34t37.5 -13t19 -10t-1 -8h-215q0 12 12.5 17t30.5 8t44 26t48 66zM317 515h-4l-142 -285h190z" />
    <glyph glyph-name="Beta" unicode="&#x392;" horiz-adv-x="683" 
d="M373 0h-386q0 13 12 18.5t27 7t30.5 18.5t21.5 51q26 158 80 476q4 28 4 30q0 26 -16 37.5t-32.5 15t-16.5 10.5v10h366q104 0 153 -38.5t49 -95.5q0 -63 -58 -114.5t-166 -56.5q-1 -2 -1 -3q112 -5 162 -50t50 -108q0 -35 -15.5 -69.5t-46.5 -66.5t-87.5 -52t-129.5 -20
zM345 357l4 19q57 4 95.5 53.5t38.5 127.5q0 46 -26.5 71.5t-75.5 25.5h-23l-93 -551q-5 -23 -5 -40q0 -45 49 -45q58 0 104 59.5t46 156.5q0 58 -31 89t-83 34z" />
    <glyph glyph-name="Gamma" unicode="&#x393;" horiz-adv-x="579" 
d="M358 654l-93 -551q-3 -14 -3 -29q0 -29 18.5 -41t37 -15t18.5 -10t-1 -8h-349q0 11 10.5 16t25 7t29.5 16.5t22 42.5q5 22 16 81q46 276 70 414q2 12 2 23q0 27 -16.5 38.5t-33.5 14.5t-17 10v11h294q163 0 238 32q3 0 4 -1l-18 -258q-2 -1 -6 -1q-8 0 -14 25
q-29 117 -62.5 150t-130.5 33h-41z" />
    <glyph glyph-name="Delta" unicode="&#x394;" horiz-adv-x="645" 
d="M-14 0q0 10 1 15q244 440 367 660q17 2 51 5t52 5q22 -111 65 -335t65 -335q-2 -10 -2 -15h-599zM292 525h-4q-49 -90 -142 -256.5t-116 -207.5h355z" />
    <glyph glyph-name="Epsilon" unicode="&#x395;" horiz-adv-x="633" 
d="M314 18h29q73 0 130 52t129 178q16 27 24 27q2 0 8 -2q-79 -235 -101 -295h-1l-2 -1q-61 23 -178 23h-366v2q0 10 11.5 15t27 7.5t31 19.5t20.5 49l83 484q3 21 3 23q0 27 -17.5 38.5t-35 14.5t-17.5 10q0 2 0.5 5.5t0.5 5.5h288q161 0 242 32q3 0 4 -1l-9 -129t-8 -129
q-2 -1 -7 -1q-8 0 -13 25q-18 81 -36 116.5t-53 51t-105 15.5h-38q-16 -98 -50 -292h52q36 0 61.5 20.5t35.5 45t19 45t16 20.5h5l-48 -290h-6q-8 0 -10 22t-2.5 48t-18 48t-53.5 22h-54l-44 -258q-3 -21 -3 -23q0 -44 56 -44z" />
    <glyph glyph-name="Zeta" unicode="&#x396;" horiz-adv-x="630" 
d="M650 674q-2 -6 -2 -18l-441 -637h114q84 0 139 51.5t142 197.5q10 15 17 15q1 0 4 -0.5t4 -0.5l-103 -305l-4 -2q-58 25 -189 25h-355l3 17q87 125 250 357t196 280h-87q-85 0 -132.5 -39.5t-107.5 -154.5q-12 -23 -22 -23q-6 0 -7 1l37 129.5t37 132.5l4 1
q60 -27 232 -27h271z" />
    <glyph glyph-name="Eta" unicode="&#x397;" horiz-adv-x="768" 
d="M729 582l-80 -466q-5 -22 -5 -41q0 -28 18 -40.5t36 -16.5t18 -10q0 -2 -0.5 -4.5t-0.5 -3.5h-341q0 12 11 17t25 7t28 19.5t20 51.5l43 251h-197q-30 -175 -41 -242q-4 -18 -4 -31q0 -21 9.5 -33.5t21 -15.5t21 -6.5t9.5 -9.5t-1 -8h-333q0 11 11.5 16t26.5 7.5t30 20
t21 51.5l81 471q4 32 4 34q0 21 -10 33.5t-22 15t-22 6.5t-10 11v8h331q0 -12 -11 -17t-24.5 -7.5t-28 -19t-19.5 -48.5l-37 -218h197l35 202q4 32 4 36q0 21 -9 32.5t-19.5 14t-19.5 6.5t-9 11v8h330q0 -13 -11.5 -18.5t-26 -7t-29.5 -18t-20 -48.5z" />
    <glyph glyph-name="Theta" unicode="&#x398;" horiz-adv-x="780" 
d="M471 688q152 0 228.5 -83t76.5 -208q0 -60 -19 -119.5t-56 -111.5t-87 -92.5t-118 -63.5t-144 -23q-147 0 -225 80t-78 205q0 110 54 205.5t151.5 153t216.5 57.5zM470 670q-51 0 -94.5 -48t-69 -121t-40 -151.5t-14.5 -146.5q0 -201 105 -201q50 0 92.5 47t68.5 119
t40.5 151.5t14.5 149.5q0 201 -103 201zM293 286l-5 2q-4 3 -6 5q40 103 98 109q22 0 57 -12.5t48 -12.5q29 0 50 35l13 -4q-19 -57 -45 -84.5t-67 -27.5q-14 0 -44 10.5t-49 10.5q-28 -3 -50 -31z" />
    <glyph glyph-name="Iota" unicode="&#x399;" horiz-adv-x="403" 
d="M354 582l-82 -478q-3 -27 -3 -30q0 -21 11.5 -34t24.5 -16t24.5 -6.5t11.5 -9.5t-1 -8h-346q0 11 12 16t27 7t30.5 20t21.5 52q26 158 80 476q4 28 4 30q0 26 -16.5 37.5t-32.5 15t-16 10.5v10h339q0 -12 -12 -17t-26.5 -7t-30 -19t-20.5 -49z" />
    <glyph glyph-name="Kappa" unicode="&#x39a;" horiz-adv-x="736" 
d="M331 321h-31l-38 -217q-3 -24 -3 -30q0 -28 17 -40.5t34 -15.5t17 -10q0 -2 -1 -5v-3h-340q-1 11 10.5 16.5t26.5 10t32.5 31.5t25.5 76l75 438q3 21 3 29q0 27 -16 38t-32 14.5t-16 10.5t1 9h338q0 -11 -12 -16.5t-27 -8t-30.5 -19t-20.5 -47.5q-28 -162 -41 -242h36
q19 19 60 58t70.5 68t61.5 62t49.5 56.5t17.5 34.5q0 12 -11 19.5t-25 9.5t-25 6t-11 11v9h249q0 -14 -12.5 -20t-35 -9.5t-66 -30t-91.5 -73.5l-95 -93l137 -324q16 -36 26 -52q12 -19 27 -31t25.5 -15.5t17.5 -7.5t7 -10t-1 -8h-324v7q1 7 14 10.5t25.5 10.5t12.5 23
q0 13 -7 31q-85 194 -104 239z" />
    <glyph glyph-name="Lambda" unicode="&#x39b;" horiz-adv-x="669" 
d="M310 510l-191 -384q-19 -38 -19 -61t19 -33.5t38 -13.5t19 -10q0 -6 -1 -8h-216q0 12 12.5 16.5t30.5 7.5t43.5 26t47.5 66l281 559h96q66 -390 100 -585q6 -37 23 -53t31 -19t14 -10q0 -2 -0.5 -4.5t-0.5 -3.5h-323q-1 11 10 16.5t24 7.5t24 14t11 34l-2 16l-68 422h-3z
" />
    <glyph glyph-name="Mu" unicode="&#x39c;" horiz-adv-x="900" 
d="M461 196q9 -35 31 -136l-15 -4q-32 97 -154 97q-4 0 -12 -0.5t-12 -0.5l-91 438h-3l-78 -422q-8 -48 -8 -57q0 -37 13 -58t28.5 -25t28.5 -8.5t13 -11.5v-8h-227v7q2 8 13 11t27 8t33 16.5t34 43t26 80.5l72 377q8 48 8 57q0 27 -17 38.5t-34 14.5t-17 10q0 1 0.5 5
t0.5 6h245l91 -453q160 302 241 453h252q1 -12 -12 -17.5t-29.5 -7.5t-33 -19.5t-21.5 -49.5l-72 -477q0 -2 -1.5 -14t-1.5 -13q0 -29 17 -42t34 -16.5t17 -9.5q0 -2 -0.5 -4.5t-0.5 -3.5h-333v7q1 7 13 11t26 7.5t28 20.5t18 46q13 83 38 248.5t38 248.5h-3z" />
    <glyph glyph-name="Nu" unicode="&#x39d;" horiz-adv-x="721" 
d="M374 674q31 -62 104.5 -205t111.5 -220l2 1q1 0 1 1l45 267q5 30 5 49q0 33 -14 53t-30.5 24t-30.5 8t-14 11q0 8 1 10h233q0 -11 -8 -16.5t-20 -6.5t-27.5 -8.5t-30 -19.5t-27.5 -42t-21 -74l-88 -514l-71 -4q-50 98 -301 595h-3l-69 -419q-1 -5 -3 -18.5t-3.5 -24.5
t-1.5 -16q0 -33 14 -53t31.5 -24t31.5 -8t14 -11q0 -2 -0.5 -5t-0.5 -4h-233v7q1 7 12.5 10.5t28 8.5t33.5 15.5t33 38t23 70.5l71 422q3 18 3 26q0 28 -17.5 39.5t-35 15.5t-17.5 12v9h269z" />
    <glyph glyph-name="Xi" unicode="&#x39e;" horiz-adv-x="635" 
d="M166 260q-3 1 -9 2t-7 1q49 150 165 150q23 0 69.5 -14t68.5 -14q41 0 60 46q3 0 8.5 -0.5t7.5 -0.5q-19 -78 -60 -115.5t-91 -37.5q-30 0 -75 16t-62 16q-48 0 -75 -49zM612 260q-11 -37 -37.5 -131t-41.5 -145q-96 16 -251 16q-164 0 -268 -18q-1 1 -3 1l21 275
q1 0 3 0.5t3 0.5q10 0 15 -23q12 -65 34 -79t106 -14h167q74 0 120 9q35 6 55 25t48 61q1 2 3.5 5.5t3.5 5t2.5 4t3 4t3 2.5t3 1.5t3.5 0.5q1 0 3 -0.5t4 -0.5zM518 538h-254q-116 0 -147 -52q-14 -24 -22 -24q-1 0 -4 1l-3 1q30 127 57 228q93 -18 255 -18q166 0 244 18
q1 -1 2 -1l-27 -229h-4q-12 0 -16 22q-7 34 -23 44t-58 10z" />
    <glyph glyph-name="Omicron" unicode="&#x39f;" horiz-adv-x="732" 
d="M442 688q142 0 210.5 -77t68.5 -196q0 -77 -27 -152t-75.5 -137.5t-126 -101t-169.5 -38.5q-137 0 -205.5 76t-68.5 197q0 113 47.5 210t139 158t206.5 61zM440 670q-43 0 -81.5 -61.5t-62 -149t-37 -174t-13.5 -145.5q0 -137 84 -137q43 0 81.5 59.5t62 145t37 174
t13.5 154.5q0 134 -84 134z" />
    <glyph glyph-name="Pi" unicode="&#x3a0;" horiz-adv-x="763" 
d="M811 673q0 -12 -12 -17t-26.5 -7t-30 -19t-20.5 -49l-82 -477q-3 -27 -3 -30q0 -28 18 -40t36 -16t18 -10t-1 -8h-338q1 2 1 7q0 8 18 11.5t38.5 20.5t27.5 56l95 558h-194q-62 -370 -94 -556q-2 -8 -2 -26q0 -27 14 -38.5t28.5 -14.5t14.5 -10q0 -1 -1 -4v-4h-328
q0 12 11.5 17t26.5 7t30.5 21t21.5 56l81 475q3 21 3 23q0 21 -11 33t-23.5 15t-23.5 6.5t-11 9.5q0 5 1 10h717z" />
    <glyph glyph-name="Rho" unicode="&#x3a1;" horiz-adv-x="637" 
d="M77 97q39 237 81 474q3 17 3 29q0 27 -16.5 38.5t-32.5 15t-16 10.5v4q0 1 0.5 3t0.5 3h351q94 0 161 -45.5t67 -132.5q0 -78 -46 -133.5t-112.5 -79t-145.5 -23.5q-42 0 -81 6q-18 -108 -28 -162q-3 -24 -3 -29q0 -28 18.5 -40t37 -15.5t18.5 -11.5q0 -6 -1 -8h-348
q0 13 12 18.5t27.5 7.5t31 19.5t21.5 51.5zM357 654q-20 -123 -62 -369q84 0 135 71.5t51 175.5q0 58 -25.5 90t-74.5 32h-24z" />
    <glyph glyph-name="Sigma" unicode="&#x3a3;" horiz-adv-x="601" 
d="M606 705l2 -1q1 -1 2 -1q-12 -170 -19 -255q-3 0 -4 -1q-8 0 -11 5t-5 20q-18 106 -54 144t-118 38h-110l108 -254l-1 -1v-1l-255 -249h252q68 0 104.5 23.5t75.5 100.5q14 28 21 28l3 -1h5q-17 -60 -84 -300l-4 -1q-67 1 -211 1h-324q0 7 2 19q43 44 261 259l-160 374
l5 22h293q149 0 226 31z" />
    <glyph glyph-name="Tau" unicode="&#x3a4;" horiz-adv-x="620" 
d="M193 95l94 559h-18q-109 0 -204 -195q-12 -23 -21 -23h-2q-3 1 -4 1l65 260l5 3q69 -26 206 -26h136q142 0 218 26l4 -3l-19 -262h-3q-7 0 -10.5 4t-5.5 18q-19 105 -52 151t-91 46h-19l-92 -550q-3 -27 -3 -30q0 -21 11.5 -34t24.5 -16t24.5 -6.5t11.5 -9.5t-1 -8h-346
q0 11 12 16t27 7t30.5 20t21.5 52z" />
    <glyph glyph-name="Upsilon" unicode="&#x3a5;" horiz-adv-x="632" 
d="M411 329l118 196q30 49 30 77q0 23 -18.5 33.5t-36.5 15t-18 12.5v4q1 4 1 6h225v-3q0 -12 -12.5 -18.5t-33 -13t-55 -39.5t-69.5 -90l-125 -202l-34 -187q-4 -22 -4 -42q0 -30 17.5 -43t35 -17t17.5 -11v-7h-346q0 12 12 17t27 7.5t31 20.5t22 53l29 167l-91 317
q-7 25 -20 41t-24 20.5t-19 9t-8 11.5q0 2 0.5 5t0.5 4h343v-6q0 -10 -12 -15.5t-26.5 -7.5t-26.5 -12.5t-12 -29.5q0 -13 9 -40l72 -233h1z" />
    <glyph glyph-name="Phi" unicode="&#x3a6;" horiz-adv-x="874" 
d="M398 580q3 19 3 21q0 26 -16.5 37.5t-32.5 15t-16 10.5v4q0 1 0.5 3t0.5 3h339q-2 -12 -14.5 -17.5t-27 -8t-29 -20t-19.5 -49.5q124 -5 202.5 -61.5t78.5 -142.5q0 -108 -95 -182t-267 -88q-4 -26 -4 -31q0 -28 18.5 -40t36.5 -16t18 -10t-1 -8h-347q0 11 13 16.5t29 8
t31.5 22t19.5 55.5q-131 20 -204 74t-73 133q0 113 99.5 184t256.5 87zM676 413q0 62 -24.5 100.5t-69.5 45.5l-73 -434q68 10 117.5 92.5t49.5 195.5zM233 269q0 -66 24.5 -104t64.5 -43l74 438q-70 -17 -116.5 -99t-46.5 -192z" />
    <glyph glyph-name="Chi" unicode="&#x3a7;" horiz-adv-x="680" 
d="M334 111l-60 159l-81 -103q-59 -75 -59 -109q0 -19 16 -27t32.5 -11t16.5 -12q0 -2 -0.5 -4t-0.5 -4h-233q0 12 9 17.5t24 7.5t43 17.5t57 44.5q38 37 91 104l78 98l-107 288q-11 28 -26 45t-27 21.5t-20 9t-8 11.5q0 3 2 9h355v-5q0 -10 -11 -15t-24.5 -6.5t-24.5 -12
t-11 -30.5q0 -22 18 -66l47 -118l80 105q46 61 46 90q0 18 -14 25.5t-28.5 11t-14.5 11.5q0 6 1 10h228v-4q0 -10 -16 -17t-39 -14t-57.5 -31t-64.5 -61l-114 -144l120 -314q13 -34 35.5 -50t38 -20t15.5 -10t-1 -8h-374q1 2 1 7q1 8 19 12.5t35 14.5t17 33q0 19 -9 44z" />
    <glyph glyph-name="Psi" unicode="&#x3a8;" horiz-adv-x="908" 
d="M605 582l-64 -372q22 4 41.5 15t34.5 31t27 40t22.5 52t17.5 56.5t14.5 64.5t11.5 65t10.5 68.5t10.5 65.5q1 1 2.5 3t2.5 3h241v-2q0 -11 -11.5 -16.5t-25.5 -7.5t-28 -18t-19 -47l-14 -87q-20 -121 -104.5 -205.5t-236.5 -98.5l-15 -88q-3 -27 -3 -30q0 -28 18 -40
t36 -16t18 -10t-1 -8h-346q0 11 12 16t27 7t30.5 20t21.5 52q11 70 16 97q-125 16 -185 79t-60 155q0 33 9 82l11 64q3 15 3 24q0 26 -14.5 37t-29 15.5t-14.5 13.5q0 1 0.5 3.5t0.5 3.5l243 9q0 -1 1.5 -3t2.5 -4l-35 -201q-8 -46 -15 -101q-10 -71 15.5 -111.5t69.5 -47.5
q40 240 61 361q4 28 4 30q0 26 -15 37.5t-29.5 15t-14.5 10.5v10h327q0 -12 -11 -17t-24.5 -7t-28 -19t-19.5 -49z" />
    <glyph glyph-name="Omega" unicode="&#x3a9;" horiz-adv-x="773" 
d="M23 -17l-1 5l-2 267q1 0 3.5 0.5t3.5 0.5q7 0 13 -28q20 -111 63.5 -160t126.5 -49h47q-6 27 -29.5 51t-52.5 45t-57.5 46.5t-48 67t-19.5 96.5q0 70 27.5 135.5t77 116.5t124.5 82t163 31q74 0 130.5 -22t88 -59t47 -80t15.5 -90q0 -168 -142 -281q-29 -23 -75.5 -51
t-77.5 -49.5t-41 -38.5h33q57 0 98 12t74.5 41.5t57 63t57.5 92.5q15 27 26 27l3 -1h3l-87 -270l-2 -1q-123 17 -260 17h-29q-1 1 -1 2q4 17 23.5 43t43 61t47 85.5t39 135.5t15.5 191q0 150 -84 150q-61 0 -111 -74t-74.5 -176.5t-24.5 -203.5q0 -72 21.5 -129t22.5 -83
l-1 -2h-37q-138 0 -237 -17z" />
    <glyph glyph-name="Iotadieresis" unicode="&#x3aa;" horiz-adv-x="403" 
d="M354 582l-82 -478q-3 -27 -3 -30q0 -21 11.5 -34t24.5 -16t24.5 -6.5t11.5 -9.5t-1 -8h-346q0 11 12 16t27 7t30.5 20t21.5 52q26 158 80 476q4 28 4 30q0 26 -16.5 37.5t-32.5 15t-16 10.5v10h339q0 -12 -12 -17t-26.5 -7t-30 -19t-20.5 -49zM211 891q28 0 45.5 -19.5
t17.5 -48.5q0 -37 -27.5 -64.5t-61.5 -27.5q-26 0 -44 18.5t-18 45.5q0 38 26 67t62 29zM405 891q29 0 46 -19.5t17 -48.5q0 -37 -27 -64.5t-61 -27.5q-26 0 -44 18.5t-18 45.5q0 38 25.5 67t61.5 29z" />
    <glyph glyph-name="Upsilondieresis" unicode="&#x3ab;" horiz-adv-x="632" 
d="M411 329l118 196q30 49 30 77q0 23 -18.5 33.5t-36.5 15t-18 12.5v4q1 4 1 6h225v-3q0 -12 -12.5 -18.5t-33 -13t-55 -39.5t-69.5 -90l-125 -202l-34 -187q-4 -22 -4 -42q0 -30 17.5 -43t35 -17t17.5 -11v-7h-346q0 12 12 17t27 7.5t31 20.5t22 53l29 167l-91 317
q-7 25 -20 41t-24 20.5t-19 9t-8 11.5q0 2 0.5 5t0.5 4h343v-6q0 -10 -12 -15.5t-26.5 -7.5t-26.5 -12.5t-12 -29.5q0 -13 9 -40l72 -233h1zM331 889q28 0 45.5 -19.5t17.5 -48.5q0 -37 -27.5 -64.5t-61.5 -27.5q-26 0 -44 18.5t-18 45.5q0 38 26 67t62 29zM525 889
q29 0 46 -19.5t17 -48.5q0 -37 -27 -64.5t-61 -27.5q-26 0 -44 18.5t-18 45.5q0 38 25.5 67t61.5 29z" />
    <glyph glyph-name="alphatonos" unicode="&#x3ac;" 
d="M567 461q-43 -178 -79 -425q46 31 92 81q5 -6 11 -11q-101 -119 -174 -119q-40 0 -61.5 19.5t-21.5 55.5q0 47 27 151q-39 -117 -89 -172t-114 -55q-55 0 -92 36t-37 113q0 127 67 223t178 96q82 0 127 -51q86 13 150 58h16zM328 420q-51 0 -91 -95.5t-40 -193.5
q0 -28 1.5 -43.5t10 -28.5t24.5 -13q32 0 72.5 75.5t67.5 198.5l15 68q-26 32 -60 32zM257 503q-2 8 -4 13q50 36 82.5 78t43 69t27 45t42.5 18q23 0 34.5 -13t11.5 -31q0 -10 -5 -23.5t-21 -35t-40.5 -41.5t-69 -42t-101.5 -37z" />
    <glyph glyph-name="epsilontonos" unicode="&#x3ad;" horiz-adv-x="452" 
d="M180 230l2 4q-55 6 -82 31.5t-27 58.5q0 52 54.5 90.5t159.5 38.5q76 0 118 -28t42 -69q0 -27 -17.5 -46t-44.5 -19q-32 0 -49 20.5t-17 50.5q0 37 20 66h-6q-44 0 -75 -30.5t-31 -77.5q0 -82 114 -83l-2 -16v-1q-69 -9 -106 -43.5t-37 -80.5q0 -37 22 -55.5t58 -18.5
q75 0 144 48q2 -4 8 -12q-90 -71 -222 -71q-186 0 -186 111q0 41 36.5 81t123.5 51zM204 503q-2 8 -4 13q50 36 82.5 78t43 69t27 45t42.5 18q23 0 34.5 -13t11.5 -31q0 -10 -5 -23.5t-21 -35t-40.5 -41.5t-69 -42t-101.5 -37z" />
    <glyph glyph-name="etatonos" unicode="&#x3ae;" horiz-adv-x="601" 
d="M187 455q41 0 63.5 -20.5t22.5 -54.5q0 -48 -38 -183q1 0 2 -0.5t2 -0.5q46 136 106 197.5t111 61.5q98 0 98 -99q0 -29 -6 -56l-85 -419q51 34 93 81l11 -11q-99 -119 -175 -119q-86 0 -86 79q0 14 11 69q16 75 68 313q8 36 8 56q0 30 -22 30q-30 0 -76.5 -91.5
t-68.5 -205.5q-9 -49 -16 -82h-163l76 408q-35 -23 -97 -87l-11 12q103 122 172 122zM258 503q-2 8 -4 13q50 36 82.5 78t43 69t27 45t42.5 18q23 0 34.5 -13t11.5 -31q0 -10 -5 -23.5t-21 -35t-40.5 -41.5t-69 -42t-101.5 -37z" />
    <glyph glyph-name="iotatonos" unicode="&#x3af;" horiz-adv-x="343" 
d="M190 456q90 0 90 -89q0 -13 -7 -48q-11 -60 -32 -165.5t-24 -122.5q45 29 96 83l10 -10q-100 -118 -174 -118q-86 0 -86 89q0 10 7 50l56 286q-34 -23 -97 -88q-5 6 -11 11q105 122 172 122zM115 503q-2 8 -4 13q50 36 82.5 78t43 69t27 45t42.5 18q23 0 34.5 -13
t11.5 -31q0 -10 -5 -23.5t-21 -35t-40.5 -41.5t-69 -42t-101.5 -37z" />
    <glyph glyph-name="upsilondieresistonos" unicode="&#x3b0;" horiz-adv-x="592" 
d="M79 182l43 224q-40 -26 -96 -86q-3 5 -11 13q102 121 173 121q42 0 65.5 -22t23.5 -59q0 -23 -8 -66.5t-22 -109t-21 -108.5q-5 -28 -5 -43q0 -45 38 -45q53 0 92 117.5t39 226.5q0 70 -24 99l6 16q98 -4 143 -55.5t45 -128.5q0 -50 -19 -100t-54.5 -93t-95.5 -69.5
t-134 -26.5q-90 0 -136.5 41.5t-46.5 112.5q0 18 5 41zM246 488q-1 1 -2.5 3t-3 4.5t-2.5 3.5q38 48 60.5 100.5t28.5 81.5t22.5 48.5t48.5 19.5q18 0 29 -11.5t11 -28.5q0 -38 -45 -100t-147 -121zM213 688q27 0 44 -18t17 -46q0 -36 -26.5 -63t-59.5 -27q-26 0 -43 18
t-17 45q0 35 25.5 63t59.5 28zM510 688q27 0 44 -18.5t17 -45.5q0 -36 -26.5 -63t-59.5 -27q-26 0 -43 18t-17 45q0 36 25.5 63.5t59.5 27.5z" />
    <glyph glyph-name="alpha" unicode="&#x3b1;" 
d="M567 461q-43 -178 -79 -425q46 31 92 81q5 -6 11 -11q-101 -119 -174 -119q-40 0 -61.5 19.5t-21.5 55.5q0 47 27 151q-39 -117 -89 -172t-114 -55q-55 0 -92 36t-37 113q0 127 67 223t178 96q82 0 127 -51q86 13 150 58h16zM328 420q-51 0 -91 -95.5t-40 -193.5
q0 -28 1.5 -43.5t10 -28.5t24.5 -13q32 0 72.5 75.5t67.5 198.5l15 68q-26 32 -60 32z" />
    <glyph glyph-name="beta" unicode="&#x3b2;" horiz-adv-x="561" 
d="M77 404q20 139 100.5 232t198.5 93q85 0 126.5 -37.5t41.5 -94.5q0 -67 -52.5 -124t-159.5 -65q58 -1 99 -16.5t61 -41.5t28 -51.5t8 -53.5q0 -111 -73 -184.5t-171 -73.5q-74 0 -117 32q-2 0 -3 -1q-28 -107 -98.5 -175t-161.5 -68q-42 0 -66 20t-24 48t18 44.5t44 16.5
q34 0 54.5 -26.5t20.5 -70.5v-8q31 11 47 95q45 241 79 510zM272 401l3 17q56 7 90.5 75t34.5 159q0 61 -43 61q-19 0 -32 -9t-22.5 -29.5t-14.5 -37t-12 -47.5q-70 -375 -106 -552q30 -22 61 -22q38 0 69.5 49t46 109.5t14.5 110.5q0 47 -22 79.5t-67 36.5z" />
    <glyph glyph-name="gamma" unicode="&#x3b3;" horiz-adv-x="489" 
d="M419 465q26 0 45 -20.5t19 -57.5q0 -106 -195 -290q-3 -59 -13 -112.5t-31 -107t-61.5 -85.5t-95.5 -32q-53 0 -74 23.5t-21 52.5q0 93 137 190q4 94 -8.5 199.5t-38.5 176.5q-16 -16 -82 -92l-9 9q19 28 34 48t37.5 43t48 35t52.5 12q67 0 95 -76q36 -94 32 -258
q102 92 147 183q-82 25 -82 98q0 19 15.5 40t48.5 21zM128 5q-57 -49 -81 -89.5t-24 -66.5q0 -28 25 -28q31 0 53.5 55.5t26.5 128.5z" />
    <glyph glyph-name="delta" unicode="&#x3b4;" horiz-adv-x="567" 
d="M242 -14q-109 0 -162.5 51t-53.5 132q0 53 25 106t83 96t138 49q-41 25 -74 69t-33 89q0 79 59 121.5t150 42.5q75 0 124 -25t49 -78q0 -28 -18 -48.5t-45 -20.5q-30 0 -47 20.5t-17 51.5q0 45 25 72q-20 9 -41 9q-36 0 -65 -20.5t-29 -59.5q0 -25 23.5 -53.5t57.5 -59.5
t68 -66.5t57.5 -86.5t23.5 -109q0 -50 -18.5 -98.5t-54 -90t-94.5 -67.5t-131 -26zM247 1q45 0 81 86.5t36 170.5q0 86 -74 148q-39 -43 -66.5 -146.5t-27.5 -178.5q0 -80 51 -80z" />
    <glyph glyph-name="epsilon" unicode="&#x3b5;" horiz-adv-x="452" 
d="M180 230l2 4q-55 6 -82 31.5t-27 58.5q0 52 54.5 90.5t159.5 38.5q76 0 118 -28t42 -69q0 -27 -17.5 -46t-44.5 -19q-32 0 -49 20.5t-17 50.5q0 37 20 66h-6q-44 0 -75 -30.5t-31 -77.5q0 -82 114 -83l-2 -16v-1q-69 -9 -106 -43.5t-37 -80.5q0 -37 22 -55.5t58 -18.5
q75 0 144 48q2 -4 8 -12q-90 -71 -222 -71q-186 0 -186 111q0 41 36.5 81t123.5 51z" />
    <glyph glyph-name="zeta" unicode="&#x3b6;" horiz-adv-x="405" 
d="M566 717q1 -3 3.5 -8t2.5 -6q-71 -41 -138 -89t-131 -106t-103 -122t-39 -120q0 -34 23 -62t55.5 -48.5t65.5 -41.5t56 -49t23 -61q0 -60 -62 -113t-189 -65l-3 17q64 9 98.5 31.5t34.5 45.5q0 17 -24.5 34t-59.5 35.5t-70 41.5t-59.5 60.5t-24.5 82.5q0 195 422 472
l-1 1v2q-45 -27 -105.5 -48.5t-105.5 -21.5q-80 0 -80 69q0 60 46 114h14q6 -46 48 -67.5t106 -21.5q107 0 197 44z" />
    <glyph glyph-name="eta" unicode="&#x3b7;" horiz-adv-x="601" 
d="M187 455q41 0 63.5 -20.5t22.5 -54.5q0 -48 -38 -183q1 0 2 -0.5t2 -0.5q46 136 106 197.5t111 61.5q98 0 98 -99q0 -29 -6 -56l-85 -419q51 34 93 81l11 -11q-99 -119 -175 -119q-86 0 -86 79q0 14 11 69q16 75 68 313q8 36 8 56q0 30 -22 30q-30 0 -76.5 -91.5
t-68.5 -205.5q-9 -49 -16 -82h-163l76 408q-35 -23 -97 -87l-11 12q103 122 172 122z" />
    <glyph glyph-name="theta" unicode="&#x3b8;" horiz-adv-x="563" 
d="M374 740q196 0 196 -246q0 -94 -22 -183.5t-63 -162.5t-106 -117.5t-143 -44.5q-195 0 -195 245q0 71 12.5 141.5t39.5 137t65.5 117.5t94 82t121.5 31zM240 1q44 0 74 86t67 280h-148q-36 -186 -36 -270q0 -96 43 -96zM370 723q-73 0 -135 -336h150q30 184 30 250
q0 45 -10.5 65.5t-34.5 20.5z" />
    <glyph glyph-name="iota" unicode="&#x3b9;" horiz-adv-x="343" 
d="M190 456q90 0 90 -89q0 -13 -7 -48q-11 -60 -32 -165.5t-24 -122.5q45 29 96 83l10 -10q-100 -118 -174 -118q-86 0 -86 89q0 10 7 50l56 286q-34 -23 -97 -88q-5 6 -11 11q105 122 172 122z" />
    <glyph glyph-name="kappa" unicode="&#x3ba;" horiz-adv-x="604" 
d="M188 455q84 0 84 -95q0 -57 -33 -182h4q29 95 82 161.5t102.5 93t91.5 26.5q35 0 56 -20.5t21 -49.5q0 -25 -17 -43t-44 -18q-73 0 -73 100q-50 -20 -90 -63q77 -239 123 -327q40 27 83 76l11 -10q-44 -53 -87.5 -84.5t-98.5 -31.5q-48 0 -81 66.5t-49 164.5
q-28 -67 -42 -134l-18 -85h-165l76 407q-40 -28 -96 -86l-11 11q103 123 171 123z" />
    <glyph glyph-name="lambda" unicode="&#x3bb;" horiz-adv-x="515" 
d="M65 96q54 105 164 315q-4 47 -10 139l-9 138q-36 -28 -92 -90l-11 10q57 70 96.5 98.5t86.5 28.5q43 0 64.5 -23.5t25.5 -75.5q20 -275 42 -596q26 24 90 102l10 -9q-53 -74 -92.5 -110t-82.5 -36q-47 0 -69 23.5t-26 76.5l-21 293l-148 -290q-11 -22 -11 -32
q0 -19 17.5 -27t35 -12t17.5 -13q0 -2 -0.5 -3.5t-0.5 -2.5h-196q0 12 12 17t28.5 7t39 20t40.5 52z" />
    <glyph glyph-name="nu" unicode="&#x3bd;" horiz-adv-x="489" 
d="M296 139q107 107 137 169q-34 7 -55 30t-21 57q0 9 3 21.5t18 28.5t40 16q28 0 44 -20.5t16 -55.5q0 -42 -34.5 -97.5t-76 -100t-100.5 -104.5t-85 -92h-24q-40 257 -73 394q-29 -24 -72 -82l-11 10q96 142 174 142q49 0 73 -62t47 -254z" />
    </font>
</defs>
</svg>
